<svg xmlns="http://www.w3.org/2000/svg" xmlns:xlink="http://www.w3.org/1999/xlink" width="2.083in" height="199.824" viewBox="0 0 52.909 52.871"><g transform="translate(-38.137 -29.824)"><path id="a" fill="#fc8d00" stroke="#904200" stroke-linecap="round" stroke-linejoin="round" stroke-miterlimit="5" stroke-width=".198" d="M-59.718 149.2c-.145.15-.233-.11-.439-.074s-.2.31-.387.219c-.188-.092.033-.256-.065-.44-.098-.185-.357-.094-.328-.301.03-.207.253-.047.399-.198.145-.15-.022-.369.184-.405s.124.226.311.318c.188.092.345-.134.443.05.098.185-.178.188-.207.395-.03.207.234.286.089.436" transform="matrix(-.32274 -.58485 -.58578 .32222 123.94 17.885)"/></g><g stroke-linecap="round" stroke-linejoin="round" stroke-miterlimit="5"><g stroke="#305517"><path fill="#447821" stroke-width=".378" d="M-48.97 169.13c.889 4.07 19.396 19.59 20.112 20.393.028-.472-2.176-9.643-20.112-20.393" transform="matrix(.47992 .05275 -.34996 .53718 120.805 -59.026)"/><path fill="none" stroke-width=".252" d="M-48.981 169.13c.314.562 16.873 14.449 20.158 20.307" transform="matrix(.47992 .05275 -.34996 .53718 120.805 -59.026)"/></g><g stroke="#305517"><path fill="#447821" stroke-width=".415" d="M-48.97 169.13c.889 4.07 19.396 19.59 20.112 20.393.028-.472-2.176-9.643-20.112-20.393" transform="matrix(.43747 .02106 -.2854 .50892 111.126 -64.266)"/><path fill="none" stroke-width=".277" d="M-48.981 169.13c.314.562 16.873 14.449 20.158 20.307" transform="matrix(.43747 .02106 -.2854 .50892 111.126 -64.266)"/></g><g stroke="#305517"><path fill="#447821" stroke-width=".378" d="M-48.97 169.13c.889 4.07 19.396 19.59 20.112 20.393.028-.472-2.176-9.643-20.112-20.393" transform="matrix(-.37132 -.30859 -.14333 .6249 58.534 -87.662)"/><path fill="none" stroke-width=".252" d="M-48.981 169.13c.314.562 16.873 14.449 20.158 20.307" transform="matrix(-.37132 -.30859 -.14333 .6249 58.534 -87.662)"/></g><g stroke="#305517"><path fill="#447821" stroke-width=".378" d="M-48.97 169.13c.889 4.07 19.396 19.59 20.112 20.393.028-.472-2.176-9.643-20.112-20.393" transform="matrix(-.44351 -.1908 .03951 .6399 23.817 -92.371)"/><path fill="none" stroke-width=".252" d="M-48.981 169.13c.314.562 16.873 14.449 20.158 20.307" transform="matrix(-.44351 -.1908 .03951 .6399 23.817 -92.371)"/></g><g stroke="#305517"><path fill="#447821" stroke-width=".476" d="M-48.97 169.13c.889 4.07 19.396 19.59 20.112 20.393.028-.472-2.176-9.643-20.112-20.393" transform="matrix(-.37184 -.09203 .11331 .49554 14.276 -72.016)"/><path fill="none" stroke-width=".317" d="M-48.981 169.13c.314.562 16.873 14.449 20.158 20.307" transform="matrix(-.37184 -.09203 .11331 .49554 14.276 -72.016)"/></g><g stroke="#305517"><path fill="#447821" stroke-width=".318" d="M-48.97 169.13c.889 4.07 19.396 19.59 20.112 20.393.028-.472-2.176-9.643-20.112-20.393" transform="matrix(-.2682 -.50942 -.43842 .62174 109.648 -84.392)"/><path fill="none" stroke-width=".212" d="M-48.981 169.13c.314.562 16.873 14.449 20.158 20.307" transform="matrix(-.2682 -.50942 -.43842 .62174 109.648 -84.392)"/></g><path fill="#585921" stroke="#424319" stroke-width=".198" d="M28.26 52.711c-.487.026-.788-.026-1.42.021 11.828-7.256 13.857-11.275 14.934-13.905 5.373-13.118 4.764-18.59 5.317-19.095.22.782.686 5.36-4.205 18.062C39.5 46.587 29.15 51.963 28.227 52.712z"/><g stroke="#305517"><path fill="#447821" stroke-width=".318" d="M-48.97 169.13c.889 4.07 19.396 19.59 20.112 20.393.028-.472-2.176-9.643-20.112-20.393" transform="matrix(.57528 -.0221 -.31963 .69036 108.047 -81.089)"/><path fill="none" stroke-width=".212" d="M-48.981 169.13c.314.562 16.873 14.449 20.158 20.307" transform="matrix(.57528 -.0221 -.31963 .69036 108.047 -81.089)"/></g></g><g fill="#447821" stroke="#305517" stroke-linecap="round" stroke-linejoin="round" stroke-miterlimit="5"><path stroke-width=".237" d="M-75.654 201.07c4.15-1.62 10.616 4.35 12.551 3.72-2.053-4.777-9.657-9.177-12.551-3.72" transform="matrix(-.80378 -.24414 -.24325 .80041 17.536 -127.904)"/><path fill="none" stroke-width=".158" d="M-75.621 201.02c3.307-4.167 10.484 2.43 12.435 3.754" transform="matrix(-.80378 -.24414 -.24325 .80041 17.536 -127.904)"/><path stroke-width=".237" d="M-75.654 201.07c4.15-1.62 10.616 4.35 12.551 3.72-2.053-4.777-9.657-9.177-12.551-3.72" transform="matrix(.79958 -.25755 .2566 .79623 48.402 -135.782)"/><path fill="none" stroke-width=".158" d="M-75.621 201.02c3.307-4.167 10.484 2.43 12.435 3.754" transform="matrix(.79958 -.25755 .2566 .79623 48.402 -135.782)"/><path stroke-width=".254" d="M-75.654 201.07c4.15-1.62 10.616 4.35 12.551 3.72-2.053-4.777-9.657-9.177-12.551-3.72" transform="matrix(-.13002 -.76016 -.77442 .16195 180.257 -42.205)"/><path fill="none" stroke-width=".169" d="M-75.621 201.02c3.307-4.167 10.484 2.43 12.435 3.754" transform="matrix(-.13002 -.76016 -.77442 .16195 180.257 -42.205)"/></g><g stroke="#305517" stroke-linecap="round" stroke-linejoin="round" stroke-miterlimit="5"><path fill="#447821" stroke-width=".152" d="M-69.233 222.72c.006-2.662 5.257-5.12 7.407-2.892-.433.45-4.023.327-5.33.95-.958.457-1.615 1.357-2.077 1.942" transform="matrix(1.24266 .38307 -.38416 1.24606 201.638 -199.86)"/><path fill="none" stroke-width=".102" d="M-68.002 220.45c1.854-1.237 4.972-1.34 6.158-.622" transform="matrix(1.24266 .38307 -.38416 1.24606 201.638 -199.86)"/><path fill="none" stroke-width=".152" d="M-69.18 222.57c.146-.19.653-1.403 2.147-1.848" transform="matrix(1.24266 .38307 -.38416 1.24606 201.638 -199.86)"/><path fill="#447821" stroke-width=".152" d="M-69.233 222.72c.006-2.662 5.257-5.12 7.407-2.892-.433.45-4.023.327-5.33.95-.958.457-1.615 1.357-2.077 1.942" transform="rotate(32.535 501.421 82.913)scale(-1.30033 1.30398)"/><path fill="none" stroke-width=".102" d="M-68.002 220.45c1.854-1.237 4.972-1.34 6.158-.622" transform="rotate(32.535 501.421 82.913)scale(-1.30033 1.30398)"/><path fill="none" stroke-width=".152" d="M-69.18 222.57c.146-.19.653-1.403 2.147-1.848" transform="rotate(32.535 501.421 82.913)scale(-1.30033 1.30398)"/><path fill="#447821" stroke-width=".176" d="M-69.233 222.72c.006-2.662 5.257-5.12 7.407-2.892-.433.45-4.023.327-5.33.95-.958.457-1.615 1.357-2.077 1.942" transform="matrix(1.0961 -.27292 .27354 1.09671 60.444 -234.44)"/><path fill="none" stroke-width=".117" d="M-68.002 220.45c1.854-1.237 4.972-1.34 6.158-.622" transform="matrix(1.0961 -.27292 .27354 1.09671 60.444 -234.44)"/><path fill="none" stroke-width=".176" d="M-69.18 222.57c.146-.19.653-1.403 2.147-1.848" transform="matrix(1.0961 -.27292 .27354 1.09671 60.444 -234.44)"/><path fill="#447821" stroke-width=".148" d="M-61.433 228.43c-3.208-.446-.248 4.134.066 4.167.265-.05 2.489-6.093-.066-4.167" transform="matrix(.66272 1.1758 -1.16268 .65327 346.204 -34.538)"/><path fill="none" stroke-width=".099" d="M-61.378 228.43c-.311.166-.31 3.157.017 4.163" transform="matrix(.66272 1.1758 -1.16268 .65327 346.204 -34.538)"/><path fill="#447821" stroke-width=".534" d="M-48.97 169.13c.889 4.07 19.396 19.59 20.112 20.393.028-.472-2.176-9.643-20.112-20.393" transform="matrix(.33584 -.04442 -.14617 .43093 84.386 -61.01)"/><path fill="none" stroke-width=".356" d="M-48.981 169.13c.314.562 16.873 14.449 20.158 20.307" transform="matrix(.33584 -.04442 -.14617 .43093 84.386 -61.01)"/><path fill="#447821" stroke-width=".185" d="M-61.433 228.43c-3.208-.446-.248 4.134.066 4.167.265-.05 2.489-6.093-.066-4.167" transform="matrix(-1.02727 .32302 .3205 1.01936 -89.392 -191.516)"/><path fill="none" stroke-width=".123" d="M-61.378 228.43c-.311.166-.31 3.157.017 4.163" transform="matrix(-1.02727 .32302 .3205 1.01936 -89.392 -191.516)"/></g><path fill="#f07a00" d="M47.315 18.514a.675.675 0 0 0-.57.6.54.54 0 1 0-.173 1.015.472.472 0 1 0 .87.341.484.484 0 1 0 .467-.828.675.675 0 0 0-.594-1.128"/><g fill="#fc8d00" transform="rotate(-8.661 -488.87 118.293)"><path stroke="#904200" stroke-linecap="round" stroke-linejoin="round" stroke-miterlimit="5" stroke-width=".198" d="M-59.718 149.2c-.145.15-.233-.11-.439-.074s-.2.31-.387.219c-.188-.092.033-.256-.065-.44-.098-.185-.357-.094-.328-.301.03-.207.253-.047.399-.198.145-.15-.022-.369.184-.405s.124.226.311.318c.188.092.345-.134.443.05.098.185-.178.188-.207.395-.03.207.234.286.089.436" transform="matrix(-.32274 -.58485 -.58578 .32222 123.94 17.885)"/><use xlink:href="#a" transform="rotate(129.73 55.729 100.93)"/><use xlink:href="#a" stroke-width="1.032" transform="matrix(-.91799 .20699 -.19422 -.97834 126.87 189.25)"/><use xlink:href="#a" transform="rotate(139.22 56.175 101.53)"/></g><path fill="none" stroke="#904200" stroke-linecap="round" stroke-linejoin="round" stroke-miterlimit="5" stroke-width=".198" d="M47.315 18.514a.675.675 0 0 0-.57.6.54.54 0 1 0-.173 1.015.472.472 0 1 0 .87.341.484.484 0 1 0 .467-.828.675.675 0 0 0-.594-1.128"/><g stroke-width=".567"><g stroke-width=".555" transform="matrix(-.61462 -.63298 -.6198 .62815 183.482 -156.824)"><path fill="#f07a00" d="M-.362 252.51c-.312 0-.6.196-.75.511a.772.772 0 0 0-1.054 1.127h-.02c-.433 0-.784.418-.784.934 0 .446.263.83.628.918a.83.83 0 0 0-.347.684c0 .446.33.807.736.808a.7.7 0 0 0 .161-.02.37.37 0 0 0-.079.204.76.76 0 0 0-.093.365c0 .445.387.807.865.807q.09 0 .18-.018c.118.302.347.522.62.597a.73.73 0 0 0 .72.66c.228 0 .443-.11.58-.295q.078.015.157.015a.9.9 0 0 0 .538-.184.96.96 0 0 0 .748.348c.51 0 .924-.378.924-.843a.8.8 0 0 0-.105-.389.7.7 0 0 0 .233.039c.485 0 .877-.476.877-1.064 0-.152-.027-.302-.078-.44a.85.85 0 0 0 .756-.835.854.854 0 0 0-.865-.842.9.9 0 0 0-.458.127.8.8 0 0 0 .037-.244.875.875 0 0 0-.722-.848.77.77 0 0 0 .231-.543c0-.446-.398-.807-.889-.807a.92.92 0 0 0-.726.342.842.842 0 0 0-1.402-.807.8.8 0 0 0-.62-.307"/><path fill="none" stroke="#904200" stroke-linecap="round" stroke-linejoin="round" stroke-miterlimit="5" stroke-width=".225" d="M-.362 252.51c-.312 0-.6.196-.75.511a.772.772 0 0 0-1.054 1.127h-.02c-.433 0-.784.418-.784.934 0 .446.263.83.628.918a.83.83 0 0 0-.347.684c0 .446.33.807.736.808a.7.7 0 0 0 .161-.02.37.37 0 0 0-.079.204.76.76 0 0 0-.093.365c0 .445.387.807.865.807q.09 0 .18-.018c.118.302.347.522.62.597a.73.73 0 0 0 .72.66c.228 0 .443-.11.58-.295q.078.015.157.015a.9.9 0 0 0 .538-.184.96.96 0 0 0 .748.348c.51 0 .924-.378.924-.843a.8.8 0 0 0-.105-.389.7.7 0 0 0 .233.039c.485 0 .877-.476.877-1.064 0-.152-.027-.302-.078-.44a.85.85 0 0 0 .756-.835.854.854 0 0 0-.865-.842.9.9 0 0 0-.458.127.8.8 0 0 0 .037-.244.875.875 0 0 0-.722-.848.77.77 0 0 0 .231-.543c0-.446-.398-.807-.889-.807a.92.92 0 0 0-.726.342.842.842 0 0 0-1.402-.807.8.8 0 0 0-.62-.307"/><path id="b" fill="#fc8d00" stroke="#904200" stroke-linecap="round" stroke-linejoin="round" stroke-miterlimit="5" stroke-width=".185" d="M-51.577 146.71c-.145.15-.233-.11-.439-.074s-.2.31-.387.219c-.188-.092.033-.256-.065-.44-.098-.185-.357-.094-.328-.301.03-.207.253-.047.399-.198.145-.15-.022-.369.184-.405s.124.227.311.318c.188.092.345-.134.443.05.098.185-.178.188-.207.395s.234.286.089.436" transform="matrix(.81213 .00022 .00022 .8124 40.641 134.81)"/><g fill="#fc8d00" stroke="#904200"><use xlink:href="#b" transform="matrix(.89427 -.4479 .44824 .89373 -113.5 28.414)"/><use xlink:href="#b" transform="matrix(.56878 -.82252 .82314 .5678 -206.87 107.96)"/><use xlink:href="#b" transform="matrix(.55245 .8329 -.83353 .55344 214.8 115.11)"/><use xlink:href="#b" transform="matrix(-.58818 -.80807 .80868 -.58915 -203.94 403.09)"/><use xlink:href="#b" transform="matrix(.61661 -.78734 .78793 .61567 -195.74 98.016)"/><use xlink:href="#b" transform="matrix(-.76382 -.64472 .64521 -.7646 -160.49 449.25)"/><use xlink:href="#b" transform="matrix(.70106 -.71326 .71379 .7002 -180.24 74.562)"/><use xlink:href="#b" transform="matrix(-.98323 .1829 -.18304 -.98301 48.536 507.54)"/><use xlink:href="#b" transform="matrix(.67114 .74065 -.74121 .67202 192.38 87.631)"/><use xlink:href="#b" transform="matrix(.99424 .10655 -.10663 .99437 31.303 6.034)"/><use xlink:href="#b" transform="matrix(-.3063 -.95139 .95211 -.30744 -239.57 332.63)"/><use xlink:href="#b" transform="matrix(.21507 .9761 -.97684 .21623 250.61 206.01)"/><use xlink:href="#b" transform="matrix(.22101 .97477 -.97551 .22218 248.18 204.64)"/><use xlink:href="#b" transform="matrix(-.25914 .96563 -.96636 -.25799 243.36 325.07)"/><use xlink:href="#b" transform="matrix(.83835 -.54543 .54584 .8377 -138.87 43.456)"/><use xlink:href="#b" transform="rotate(179.911 -1.944 254.349)"/><use xlink:href="#b" transform="rotate(180.098 -1.186 255.311)"/><use xlink:href="#b" transform="matrix(.08988 .99552 -.99628 .09107 251.56 233.14)"/><use xlink:href="#b" transform="matrix(.96751 .25217 -.25237 .96781 65.412 9.993)"/><use xlink:href="#b" transform="matrix(.73108 .6816 -.68212 .73189 173.97 71.579)"/><use xlink:href="#b" transform="matrix(.32901 .94377 -.94449 .33014 241.86 175.03)"/><use xlink:href="#b" transform="matrix(-.99217 .12543 -.12552 -.99202 30.46 508.99)"/><use xlink:href="#b" transform="matrix(-.90406 -.42671 .42703 -.90457 -108.27 487.64)"/><use xlink:href="#b" transform="matrix(-.42866 -.90287 .90355 -.42974 -229.97 365.9)"/><use xlink:href="#b" transform="matrix(-.45864 .88856 -.88923 -.45758 225.82 375.42)"/><use xlink:href="#b" transform="matrix(-.93101 -.36431 .36459 -.93144 -93.624 489.74)"/><use xlink:href="#b" transform="matrix(.98338 .1809 -.18104 .9836 48.923 5.176)"/><use xlink:href="#b" transform="matrix(-.00643 -.9996 1.0004 -.00763 -252.74 255.57)"/><use xlink:href="#b" transform="matrix(.9171 -.39905 .39935 .91662 -98.699 23.323)"/></g></g><g stroke-width=".555" transform="matrix(.61462 -.63298 .6198 .62815 -131.098 -157.24)"><path fill="#f07a00" d="M-.362 252.51c-.312 0-.6.196-.75.511a.772.772 0 0 0-1.054 1.127h-.02c-.433 0-.784.418-.784.934 0 .446.263.83.628.918a.83.83 0 0 0-.347.684c0 .446.33.807.736.808a.7.7 0 0 0 .161-.02.37.37 0 0 0-.079.204.76.76 0 0 0-.093.365c0 .445.387.807.865.807q.09 0 .18-.018c.118.302.347.522.62.597a.73.73 0 0 0 .72.66c.228 0 .443-.11.58-.295q.078.015.157.015a.9.9 0 0 0 .538-.184.96.96 0 0 0 .748.348c.51 0 .924-.378.924-.843a.8.8 0 0 0-.105-.389.7.7 0 0 0 .233.039c.485 0 .877-.476.877-1.064 0-.152-.027-.302-.078-.44a.85.85 0 0 0 .756-.835.854.854 0 0 0-.865-.842.9.9 0 0 0-.458.127.8.8 0 0 0 .037-.244.875.875 0 0 0-.722-.848.77.77 0 0 0 .231-.543c0-.446-.398-.807-.889-.807a.92.92 0 0 0-.726.342.842.842 0 0 0-1.402-.807.8.8 0 0 0-.62-.307"/><path fill="none" stroke="#904200" stroke-linecap="round" stroke-linejoin="round" stroke-miterlimit="5" stroke-width=".225" d="M-.362 252.51c-.312 0-.6.196-.75.511a.772.772 0 0 0-1.054 1.127h-.02c-.433 0-.784.418-.784.934 0 .446.263.83.628.918a.83.83 0 0 0-.347.684c0 .446.33.807.736.808a.7.7 0 0 0 .161-.02.37.37 0 0 0-.079.204.76.76 0 0 0-.093.365c0 .445.387.807.865.807q.09 0 .18-.018c.118.302.347.522.62.597a.73.73 0 0 0 .72.66c.228 0 .443-.11.58-.295q.078.015.157.015a.9.9 0 0 0 .538-.184.96.96 0 0 0 .748.348c.51 0 .924-.378.924-.843a.8.8 0 0 0-.105-.389.7.7 0 0 0 .233.039c.485 0 .877-.476.877-1.064 0-.152-.027-.302-.078-.44a.85.85 0 0 0 .756-.835.854.854 0 0 0-.865-.842.9.9 0 0 0-.458.127.8.8 0 0 0 .037-.244.875.875 0 0 0-.722-.848.77.77 0 0 0 .231-.543c0-.446-.398-.807-.889-.807a.92.92 0 0 0-.726.342.842.842 0 0 0-1.402-.807.8.8 0 0 0-.62-.307"/><path id="c" fill="#fc8d00" stroke="#904200" stroke-linecap="round" stroke-linejoin="round" stroke-miterlimit="5" stroke-width=".185" d="M-51.577 146.71c-.145.15-.233-.11-.439-.074s-.2.31-.387.219c-.188-.092.033-.256-.065-.44-.098-.185-.357-.094-.328-.301.03-.207.253-.047.399-.198.145-.15-.022-.369.184-.405s.124.227.311.318c.188.092.345-.134.443.05.098.185-.178.188-.207.395s.234.286.089.436" transform="matrix(.81213 .00022 .00022 .8124 40.641 134.81)"/><g fill="#fc8d00" stroke="#904200"><use xlink:href="#c" transform="matrix(.89427 -.4479 .44824 .89373 -113.5 28.414)"/><use xlink:href="#c" transform="matrix(.56878 -.82252 .82314 .5678 -206.87 107.96)"/><use xlink:href="#c" transform="matrix(.55245 .8329 -.83353 .55344 214.8 115.11)"/><use xlink:href="#c" transform="matrix(-.58818 -.80807 .80868 -.58915 -203.94 403.09)"/><use xlink:href="#c" transform="matrix(.61661 -.78734 .78793 .61567 -195.74 98.016)"/><use xlink:href="#c" transform="matrix(-.76382 -.64472 .64521 -.7646 -160.49 449.25)"/><use xlink:href="#c" transform="matrix(.70106 -.71326 .71379 .7002 -180.24 74.562)"/><use xlink:href="#c" transform="matrix(-.98323 .1829 -.18304 -.98301 48.536 507.54)"/><use xlink:href="#c" transform="matrix(.67114 .74065 -.74121 .67202 192.38 87.631)"/><use xlink:href="#c" transform="matrix(.99424 .10655 -.10663 .99437 31.303 6.034)"/><use xlink:href="#c" transform="matrix(-.3063 -.95139 .95211 -.30744 -239.57 332.63)"/><use xlink:href="#c" transform="matrix(.21507 .9761 -.97684 .21623 250.61 206.01)"/><use xlink:href="#c" transform="matrix(.22101 .97477 -.97551 .22218 248.18 204.64)"/><use xlink:href="#c" transform="matrix(-.25914 .96563 -.96636 -.25799 243.36 325.07)"/><use xlink:href="#c" transform="matrix(.83835 -.54543 .54584 .8377 -138.87 43.456)"/><use xlink:href="#c" transform="rotate(179.911 -1.944 254.349)"/><use xlink:href="#c" transform="rotate(180.098 -1.186 255.311)"/><use xlink:href="#c" transform="matrix(.08988 .99552 -.99628 .09107 251.56 233.14)"/><use xlink:href="#c" transform="matrix(.96751 .25217 -.25237 .96781 65.412 9.993)"/><use xlink:href="#c" transform="matrix(.73108 .6816 -.68212 .73189 173.97 71.579)"/><use xlink:href="#c" transform="matrix(.32901 .94377 -.94449 .33014 241.86 175.03)"/><use xlink:href="#c" transform="matrix(-.99217 .12543 -.12552 -.99202 30.46 508.99)"/><use xlink:href="#c" transform="matrix(-.90406 -.42671 .42703 -.90457 -108.27 487.64)"/><use xlink:href="#c" transform="matrix(-.42866 -.90287 .90355 -.42974 -229.97 365.9)"/><use xlink:href="#c" transform="matrix(-.45864 .88856 -.88923 -.45758 225.82 375.42)"/><use xlink:href="#c" transform="matrix(-.93101 -.36431 .36459 -.93144 -93.624 489.74)"/><use xlink:href="#c" transform="matrix(.98338 .1809 -.18104 .9836 48.923 5.176)"/><use xlink:href="#c" transform="matrix(-.00643 -.9996 1.0004 -.00763 -252.74 255.57)"/><use xlink:href="#c" transform="matrix(.9171 -.39905 .39935 .91662 -98.699 23.323)"/></g></g><g stroke-linecap="round" stroke-linejoin="round" stroke-miterlimit="5"><g stroke="#305517" stroke-width=".314"><path fill="#447821" d="M-48.97 169.13c.889 4.07 19.396 19.59 20.112 20.393.028-.472-2.176-9.643-20.112-20.393" transform="matrix(.53036 -.22895 -.05506 .77566 49.386 -102.919)"/><path fill="none" stroke-width=".209" d="M-48.981 169.13c.314.562 16.873 14.449 20.158 20.307" transform="matrix(.53036 -.22895 -.05506 .77566 49.386 -102.919)"/><path fill="#447821" d="M-48.97 169.13c.889 4.07 19.396 19.59 20.112 20.393.028-.472-2.176-9.643-20.112-20.393" transform="matrix(-.56564 -.10963 .21365 .7464 -32.675 -99.313)"/><path fill="none" stroke-width=".209" d="M-48.981 169.13c.314.562 16.873 14.449 20.158 20.307" transform="matrix(-.56564 -.10963 .21365 .7464 -32.675 -99.313)"/><path fill="#447821" d="M-48.97 169.13c.889 4.07 19.396 19.59 20.112 20.393.028-.472-2.176-9.643-20.112-20.393" transform="matrix(-.56564 -.10963 .21365 .7464 -32.022 -109.358)"/><path fill="none" stroke-width=".209" d="M-48.981 169.13c.314.562 16.873 14.449 20.158 20.307" transform="matrix(-.56564 -.10963 .21365 .7464 -32.022 -109.358)"/></g><g stroke="#305517"><path fill="#447821" stroke-width=".341" d="M-48.97 169.13c.889 4.07 19.396 19.59 20.112 20.393.028-.472-2.176-9.643-20.112-20.393" transform="matrix(-.50288 -.17498 .10078 .71044 -8.574 -115.43)"/><path fill="none" stroke-width=".227" d="M-48.981 169.13c.314.562 16.873 14.449 20.158 20.307" transform="matrix(-.50288 -.17498 .10078 .71044 -8.574 -115.43)"/></g><g stroke="#305517"><path fill="#447821" stroke-width=".341" d="M-48.97 169.13c.889 4.07 19.396 19.59 20.112 20.393.028-.472-2.176-9.643-20.112-20.393" transform="matrix(-.50784 -.15934 .12177 .70698 -11.5 -123.971)"/><path fill="none" stroke-width=".227" d="M-48.981 169.13c.314.562 16.873 14.449 20.158 20.307" transform="matrix(-.50784 -.15934 .12177 .70698 -11.5 -123.971)"/></g><g stroke="#305517"><path fill="#447821" stroke-width=".314" d="M-48.97 169.13c.889 4.07 19.396 19.59 20.112 20.393.028-.472-2.176-9.643-20.112-20.393" transform="matrix(.56966 -.08509 -.24432 .7365 86.465 -99.12)"/><path fill="none" stroke-width=".209" d="M-48.981 169.13c.314.562 16.873 14.449 20.158 20.307" transform="matrix(.56966 -.08509 -.24432 .7365 86.465 -99.12)"/></g><g stroke="#305517"><path fill="#447821" stroke-width=".345" d="M-48.97 169.13c.889 4.07 19.396 19.59 20.112 20.393.028-.472-2.176-9.643-20.112-20.393" transform="matrix(.51775 -.07745 -.22204 .67041 81.108 -92.749)"/><path fill="none" stroke-width=".23" d="M-48.981 169.13c.314.562 16.873 14.449 20.158 20.307" transform="matrix(.51775 -.07745 -.22204 .67041 81.108 -92.749)"/></g><g stroke="#305517"><path fill="#447821" stroke-width=".345" d="M-48.97 169.13c.889 4.07 19.396 19.59 20.112 20.393.028-.472-2.176-9.643-20.112-20.393" transform="matrix(.51775 -.07745 -.22204 .67041 81.65 -101.243)"/><path fill="none" stroke-width=".23" d="M-48.981 169.13c.314.562 16.873 14.449 20.158 20.307" transform="matrix(.51775 -.07745 -.22204 .67041 81.65 -101.243)"/></g><g stroke="#305517"><path fill="#447821" stroke-width=".396" d="M-48.97 169.13c.889 4.07 19.396 19.59 20.112 20.393.028-.472-2.176-9.643-20.112-20.393" transform="matrix(.4405 -.12303 -.12323 .60548 61.496 -100.595)"/><path fill="none" stroke-width=".264" d="M-48.981 169.13c.314.562 16.873 14.449 20.158 20.307" transform="matrix(.4405 -.12303 -.12323 .60548 61.496 -100.595)"/></g><g stroke="#305517"><path fill="#447821" stroke-width=".396" d="M-48.97 169.13c.889 4.07 19.396 19.59 20.112 20.393.028-.472-2.176-9.643-20.112-20.393" transform="matrix(.4405 -.12303 -.12323 .60548 62.054 -106.544)"/><path fill="none" stroke-width=".264" d="M-48.981 169.13c.314.562 16.873 14.449 20.158 20.307" transform="matrix(.4405 -.12303 -.12323 .60548 62.054 -106.544)"/></g><g stroke="#305517"><path fill="#447821" stroke-width=".226" d="M-75.654 201.07c4.15-1.62 10.616 4.35 12.551 3.72-2.053-4.777-9.657-9.177-12.551-3.72" transform="matrix(-.77763 -.39834 -.38838 .79227 43.157 -144.516)"/><path fill="none" stroke-width=".151" d="M-75.621 201.02c3.307-4.167 10.484 2.43 12.435 3.754" transform="matrix(-.77763 -.39834 -.38838 .79227 43.157 -144.516)"/></g><path fill="#585921" stroke="#424319" stroke-width=".113" d="M112.99 24.108c-.186.017.206-6.766.666-13.478s.854-13.236 1.074-13.545c.235.32-.25 6.387-.678 12.836-.214 3.224-.824 11.325-.73 14.185-.105.014-.118.03-.332.01z" transform="matrix(1.7449 0 0 1.7823 -173.77 9.714)"/></g><g fill="#447821" stroke="#305517" stroke-linecap="round" stroke-linejoin="round" stroke-miterlimit="5"><path stroke-width=".226" d="M-75.654 201.07c4.15-1.62 10.616 4.35 12.551 3.72-2.053-4.777-9.657-9.177-12.551-3.72" transform="matrix(-.82804 -.2722 -.26538 .84363 14.087 -138.133)"/><path fill="none" stroke-width=".151" d="M-75.621 201.02c3.307-4.167 10.484 2.43 12.435 3.754" transform="matrix(-.82804 -.2722 -.26538 .84363 14.087 -138.133)"/><path stroke-width=".226" d="M-75.654 201.07c4.15-1.62 10.616 4.35 12.551 3.72-2.053-4.777-9.657-9.177-12.551-3.72" transform="matrix(.86982 0 0 .88618 89.467 -130.801)"/><path fill="none" stroke-width=".151" d="M-75.621 201.02c3.307-4.167 10.484 2.43 12.435 3.754" transform="matrix(.86982 0 0 .88618 89.467 -130.801)"/><path stroke-width=".259" d="M-75.654 201.07c4.15-1.62 10.616 4.35 12.551 3.72-2.053-4.777-9.657-9.177-12.551-3.72" transform="matrix(.72347 -.24002 .23535 .73288 32.112 -132.307)"/><path fill="none" stroke-width=".173" d="M-75.621 201.02c3.307-4.167 10.484 2.43 12.435 3.754" transform="matrix(.72347 -.24002 .23535 .73288 32.112 -132.307)"/><path stroke-width=".259" d="M-75.654 201.07c4.15-1.62 10.616 4.35 12.551 3.72-2.053-4.777-9.657-9.177-12.551-3.72" transform="matrix(-.6522 -.4001 -.39046 .66007 53.958 -134.232)"/><path fill="none" stroke-width=".173" d="M-75.621 201.02c3.307-4.167 10.484 2.43 12.435 3.754" transform="matrix(-.6522 -.4001 -.39046 .66007 53.958 -134.232)"/><path stroke-width=".254" d="M-75.654 201.07c4.15-1.62 10.616 4.35 12.551 3.72-2.053-4.777-9.657-9.177-12.551-3.72" transform="matrix(.71307 -.33953 .34577 .6928 9.934 -143.325)"/><path fill="none" stroke-width=".169" d="M-75.621 201.02c3.307-4.167 10.484 2.43 12.435 3.754" transform="matrix(.71307 -.33953 .34577 .6928 9.934 -143.325)"/></g><g stroke="#305517" stroke-linecap="round" stroke-linejoin="round" stroke-miterlimit="5"><path fill="#447821" stroke-width=".158" d="M-61.433 228.43c-3.208-.446-.248 4.134.066 4.167.265-.05 2.489-6.093-.066-4.167" transform="matrix(1.11442 .57668 -.55936 1.13174 220.23 -178.747)"/><path fill="none" stroke-width=".105" d="M-61.378 228.43c-.311.166-.31 3.157.017 4.163" transform="matrix(1.11442 .57668 -.55936 1.13174 220.23 -178.747)"/><path fill="#447821" stroke-width=".186" d="M-61.433 228.43c-3.208-.446-.248 4.134.066 4.167.265-.05 2.489-6.093-.066-4.167" transform="matrix(-1.0453 .151 .14535 1.06508 -71.349 -220.22)"/><path fill="none" stroke-width=".124" d="M-61.378 228.43c-.311.166-.31 3.157.017 4.163" transform="matrix(-1.0453 .151 .14535 1.06508 -71.349 -220.22)"/><path fill="#447821" stroke-width=".186" d="M-61.433 228.43c-3.208-.446-.248 4.134.066 4.167.265-.05 2.489-6.093-.066-4.167" transform="matrix(-.93384 .50332 .489 .95216 -143.937 -160.122)"/><path fill="none" stroke-width=".124" d="M-61.378 228.43c-.311.166-.31 3.157.017 4.163" transform="matrix(-.93384 .50332 .489 .95216 -143.937 -160.122)"/><path fill="#447821" stroke-width=".144" d="M-69.233 222.72c.006-2.662 5.257-5.12 7.407-2.892-.433.45-4.023.327-5.33.95-.958.457-1.615 1.357-2.077 1.942" transform="matrix(1.35375 .12502 -.1225 1.38927 145.111 -258.487)"/><path fill="none" stroke-width=".096" d="M-68.002 220.45c1.854-1.237 4.972-1.34 6.158-.622" transform="matrix(1.35375 .12502 -.1225 1.38927 145.111 -258.487)"/><path fill="none" stroke-width=".144" d="M-69.18 222.57c.146-.19.653-1.403 2.147-1.848" transform="matrix(1.35375 .12502 -.1225 1.38927 145.111 -258.487)"/><path fill="#447821" stroke-width=".151" d="M-69.233 222.72c.006-2.662 5.257-5.12 7.407-2.892-.433.45-4.023.327-5.33.95-.958.457-1.615 1.357-2.077 1.942" transform="matrix(-1.23054 .12502 .11136 1.38927 -84.364 -281.318)"/><path fill="none" stroke-width=".101" d="M-68.002 220.45c1.854-1.237 4.972-1.34 6.158-.622" transform="matrix(-1.23054 .12502 .11136 1.38927 -84.364 -281.318)"/><path fill="none" stroke-width=".151" d="M-69.18 222.57c.146-.19.653-1.403 2.147-1.848" transform="matrix(-1.23054 .12502 .11136 1.38927 -84.364 -281.318)"/><path fill="#447821" stroke-width=".157" d="M-69.233 222.72c.006-2.662 5.257-5.12 7.407-2.892-.433.45-4.023.327-5.33.95-.958.457-1.615 1.357-2.077 1.942" transform="matrix(-.9951 .1442 .09005 1.60243 -64.572 -309.14)"/><path fill="none" stroke-width=".104" d="M-68.002 220.45c1.854-1.237 4.972-1.34 6.158-.622" transform="matrix(-.9951 .1442 .09005 1.60243 -64.572 -309.14)"/><path fill="none" stroke-width=".157" d="M-69.18 222.57c.146-.19.653-1.403 2.147-1.848" transform="matrix(-.9951 .1442 .09005 1.60243 -64.572 -309.14)"/></g><g stroke-width=".555" transform="matrix(-.42124 -.78102 -.76456 .4303 220.98 -101.742)"><path fill="#f07a00" d="M-.362 252.51c-.312 0-.6.196-.75.511a.772.772 0 0 0-1.054 1.127h-.02c-.433 0-.784.418-.784.934 0 .446.263.83.628.918a.83.83 0 0 0-.347.684c0 .446.33.807.736.808a.7.7 0 0 0 .161-.02.37.37 0 0 0-.079.204.76.76 0 0 0-.093.365c0 .445.387.807.865.807q.09 0 .18-.018c.118.302.347.522.62.597a.73.73 0 0 0 .72.66c.228 0 .443-.11.58-.295q.078.015.157.015a.9.9 0 0 0 .538-.184.96.96 0 0 0 .748.348c.51 0 .924-.378.924-.843a.8.8 0 0 0-.105-.389.7.7 0 0 0 .233.039c.485 0 .877-.476.877-1.064 0-.152-.027-.302-.078-.44a.85.85 0 0 0 .756-.835.854.854 0 0 0-.865-.842.9.9 0 0 0-.458.127.8.8 0 0 0 .037-.244.875.875 0 0 0-.722-.848.77.77 0 0 0 .231-.543c0-.446-.398-.807-.889-.807a.92.92 0 0 0-.726.342.842.842 0 0 0-1.402-.807.8.8 0 0 0-.62-.307"/><path fill="none" stroke="#904200" stroke-linecap="round" stroke-linejoin="round" stroke-miterlimit="5" stroke-width=".225" d="M-.362 252.51c-.312 0-.6.196-.75.511a.772.772 0 0 0-1.054 1.127h-.02c-.433 0-.784.418-.784.934 0 .446.263.83.628.918a.83.83 0 0 0-.347.684c0 .446.33.807.736.808a.7.7 0 0 0 .161-.02.37.37 0 0 0-.079.204.76.76 0 0 0-.093.365c0 .445.387.807.865.807q.09 0 .18-.018c.118.302.347.522.62.597a.73.73 0 0 0 .72.66c.228 0 .443-.11.58-.295q.078.015.157.015a.9.9 0 0 0 .538-.184.96.96 0 0 0 .748.348c.51 0 .924-.378.924-.843a.8.8 0 0 0-.105-.389.7.7 0 0 0 .233.039c.485 0 .877-.476.877-1.064 0-.152-.027-.302-.078-.44a.85.85 0 0 0 .756-.835.854.854 0 0 0-.865-.842.9.9 0 0 0-.458.127.8.8 0 0 0 .037-.244.875.875 0 0 0-.722-.848.77.77 0 0 0 .231-.543c0-.446-.398-.807-.889-.807a.92.92 0 0 0-.726.342.842.842 0 0 0-1.402-.807.8.8 0 0 0-.62-.307"/><path id="d" fill="#fc8d00" stroke="#904200" stroke-linecap="round" stroke-linejoin="round" stroke-miterlimit="5" stroke-width=".185" d="M-51.577 146.71c-.145.15-.233-.11-.439-.074s-.2.31-.387.219c-.188-.092.033-.256-.065-.44-.098-.185-.357-.094-.328-.301.03-.207.253-.047.399-.198.145-.15-.022-.369.184-.405s.124.227.311.318c.188.092.345-.134.443.05.098.185-.178.188-.207.395s.234.286.089.436" transform="matrix(.81213 .00022 .00022 .8124 40.641 134.81)"/><g fill="#fc8d00" stroke="#904200"><use xlink:href="#d" transform="matrix(.89427 -.4479 .44824 .89373 -113.5 28.414)"/><use xlink:href="#d" transform="matrix(.56878 -.82252 .82314 .5678 -206.87 107.96)"/><use xlink:href="#d" transform="matrix(.55245 .8329 -.83353 .55344 214.8 115.11)"/><use xlink:href="#d" transform="matrix(-.58818 -.80807 .80868 -.58915 -203.94 403.09)"/><use xlink:href="#d" transform="matrix(.61661 -.78734 .78793 .61567 -195.74 98.016)"/><use xlink:href="#d" transform="matrix(-.76382 -.64472 .64521 -.7646 -160.49 449.25)"/><use xlink:href="#d" transform="matrix(.70106 -.71326 .71379 .7002 -180.24 74.562)"/><use xlink:href="#d" transform="matrix(-.98323 .1829 -.18304 -.98301 48.536 507.54)"/><use xlink:href="#d" transform="matrix(.67114 .74065 -.74121 .67202 192.38 87.631)"/><use xlink:href="#d" transform="matrix(.99424 .10655 -.10663 .99437 31.303 6.034)"/><use xlink:href="#d" transform="matrix(-.3063 -.95139 .95211 -.30744 -239.57 332.63)"/><use xlink:href="#d" transform="matrix(.21507 .9761 -.97684 .21623 250.61 206.01)"/><use xlink:href="#d" transform="matrix(.22101 .97477 -.97551 .22218 248.18 204.64)"/><use xlink:href="#d" transform="matrix(-.25914 .96563 -.96636 -.25799 243.36 325.07)"/><use xlink:href="#d" transform="matrix(.83835 -.54543 .54584 .8377 -138.87 43.456)"/><use xlink:href="#d" transform="rotate(179.911 -1.944 254.349)"/><use xlink:href="#d" transform="rotate(180.098 -1.186 255.311)"/><use xlink:href="#d" transform="matrix(.08988 .99552 -.99628 .09107 251.56 233.14)"/><use xlink:href="#d" transform="matrix(.96751 .25217 -.25237 .96781 65.412 9.993)"/><use xlink:href="#d" transform="matrix(.73108 .6816 -.68212 .73189 173.97 71.579)"/><use xlink:href="#d" transform="matrix(.32901 .94377 -.94449 .33014 241.86 175.03)"/><use xlink:href="#d" transform="matrix(-.99217 .12543 -.12552 -.99202 30.46 508.99)"/><use xlink:href="#d" transform="matrix(-.90406 -.42671 .42703 -.90457 -108.27 487.64)"/><use xlink:href="#d" transform="matrix(-.42866 -.90287 .90355 -.42974 -229.97 365.9)"/><use xlink:href="#d" transform="matrix(-.45864 .88856 -.88923 -.45758 225.82 375.42)"/><use xlink:href="#d" transform="matrix(-.93101 -.36431 .36459 -.93144 -93.624 489.74)"/><use xlink:href="#d" transform="matrix(.98338 .1809 -.18104 .9836 48.923 5.176)"/><use xlink:href="#d" transform="matrix(-.00643 -.9996 1.0004 -.00763 -252.74 255.57)"/><use xlink:href="#d" transform="matrix(.9171 -.39905 .39935 .91662 -98.699 23.323)"/></g></g><g stroke-width=".555" transform="matrix(-.61462 -.63298 -.6198 .62815 188.594 -153.713)"><path fill="#f07a00" d="M-.362 252.51c-.312 0-.6.196-.75.511a.772.772 0 0 0-1.054 1.127h-.02c-.433 0-.784.418-.784.934 0 .446.263.83.628.918a.83.83 0 0 0-.347.684c0 .446.33.807.736.808a.7.7 0 0 0 .161-.02.37.37 0 0 0-.079.204.76.76 0 0 0-.093.365c0 .445.387.807.865.807q.09 0 .18-.018c.118.302.347.522.62.597a.73.73 0 0 0 .72.66c.228 0 .443-.11.58-.295q.078.015.157.015a.9.9 0 0 0 .538-.184.96.96 0 0 0 .748.348c.51 0 .924-.378.924-.843a.8.8 0 0 0-.105-.389.7.7 0 0 0 .233.039c.485 0 .877-.476.877-1.064 0-.152-.027-.302-.078-.44a.85.85 0 0 0 .756-.835.854.854 0 0 0-.865-.842.9.9 0 0 0-.458.127.8.8 0 0 0 .037-.244.875.875 0 0 0-.722-.848.77.77 0 0 0 .231-.543c0-.446-.398-.807-.889-.807a.92.92 0 0 0-.726.342.842.842 0 0 0-1.402-.807.8.8 0 0 0-.62-.307"/><path fill="none" stroke="#904200" stroke-linecap="round" stroke-linejoin="round" stroke-miterlimit="5" stroke-width=".225" d="M-.362 252.51c-.312 0-.6.196-.75.511a.772.772 0 0 0-1.054 1.127h-.02c-.433 0-.784.418-.784.934 0 .446.263.83.628.918a.83.83 0 0 0-.347.684c0 .446.33.807.736.808a.7.7 0 0 0 .161-.02.37.37 0 0 0-.079.204.76.76 0 0 0-.093.365c0 .445.387.807.865.807q.09 0 .18-.018c.118.302.347.522.62.597a.73.73 0 0 0 .72.66c.228 0 .443-.11.58-.295q.078.015.157.015a.9.9 0 0 0 .538-.184.96.96 0 0 0 .748.348c.51 0 .924-.378.924-.843a.8.8 0 0 0-.105-.389.7.7 0 0 0 .233.039c.485 0 .877-.476.877-1.064 0-.152-.027-.302-.078-.44a.85.85 0 0 0 .756-.835.854.854 0 0 0-.865-.842.9.9 0 0 0-.458.127.8.8 0 0 0 .037-.244.875.875 0 0 0-.722-.848.77.77 0 0 0 .231-.543c0-.446-.398-.807-.889-.807a.92.92 0 0 0-.726.342.842.842 0 0 0-1.402-.807.8.8 0 0 0-.62-.307"/><path id="e" fill="#fc8d00" stroke="#904200" stroke-linecap="round" stroke-linejoin="round" stroke-miterlimit="5" stroke-width=".185" d="M-51.577 146.71c-.145.15-.233-.11-.439-.074s-.2.31-.387.219c-.188-.092.033-.256-.065-.44-.098-.185-.357-.094-.328-.301.03-.207.253-.047.399-.198.145-.15-.022-.369.184-.405s.124.227.311.318c.188.092.345-.134.443.05.098.185-.178.188-.207.395s.234.286.089.436" transform="matrix(.81213 .00022 .00022 .8124 40.641 134.81)"/><g fill="#fc8d00" stroke="#904200"><use xlink:href="#e" transform="matrix(.89427 -.4479 .44824 .89373 -113.5 28.414)"/><use xlink:href="#e" transform="matrix(.56878 -.82252 .82314 .5678 -206.87 107.96)"/><use xlink:href="#e" transform="matrix(.55245 .8329 -.83353 .55344 214.8 115.11)"/><use xlink:href="#e" transform="matrix(-.58818 -.80807 .80868 -.58915 -203.94 403.09)"/><use xlink:href="#e" transform="matrix(.61661 -.78734 .78793 .61567 -195.74 98.016)"/><use xlink:href="#e" transform="matrix(-.76382 -.64472 .64521 -.7646 -160.49 449.25)"/><use xlink:href="#e" transform="matrix(.70106 -.71326 .71379 .7002 -180.24 74.562)"/><use xlink:href="#e" transform="matrix(-.98323 .1829 -.18304 -.98301 48.536 507.54)"/><use xlink:href="#e" transform="matrix(.67114 .74065 -.74121 .67202 192.38 87.631)"/><use xlink:href="#e" transform="matrix(.99424 .10655 -.10663 .99437 31.303 6.034)"/><use xlink:href="#e" transform="matrix(-.3063 -.95139 .95211 -.30744 -239.57 332.63)"/><use xlink:href="#e" transform="matrix(.21507 .9761 -.97684 .21623 250.61 206.01)"/><use xlink:href="#e" transform="matrix(.22101 .97477 -.97551 .22218 248.18 204.64)"/><use xlink:href="#e" transform="matrix(-.25914 .96563 -.96636 -.25799 243.36 325.07)"/><use xlink:href="#e" transform="matrix(.83835 -.54543 .54584 .8377 -138.87 43.456)"/><use xlink:href="#e" transform="rotate(179.911 -1.944 254.349)"/><use xlink:href="#e" transform="rotate(180.098 -1.186 255.311)"/><use xlink:href="#e" transform="matrix(.08988 .99552 -.99628 .09107 251.56 233.14)"/><use xlink:href="#e" transform="matrix(.96751 .25217 -.25237 .96781 65.412 9.993)"/><use xlink:href="#e" transform="matrix(.73108 .6816 -.68212 .73189 173.97 71.579)"/><use xlink:href="#e" transform="matrix(.32901 .94377 -.94449 .33014 241.86 175.03)"/><use xlink:href="#e" transform="matrix(-.99217 .12543 -.12552 -.99202 30.46 508.99)"/><use xlink:href="#e" transform="matrix(-.90406 -.42671 .42703 -.90457 -108.27 487.64)"/><use xlink:href="#e" transform="matrix(-.42866 -.90287 .90355 -.42974 -229.97 365.9)"/><use xlink:href="#e" transform="matrix(-.45864 .88856 -.88923 -.45758 225.82 375.42)"/><use xlink:href="#e" transform="matrix(-.93101 -.36431 .36459 -.93144 -93.624 489.74)"/><use xlink:href="#e" transform="matrix(.98338 .1809 -.18104 .9836 48.923 5.176)"/><use xlink:href="#e" transform="matrix(-.00643 -.9996 1.0004 -.00763 -252.74 255.57)"/><use xlink:href="#e" transform="matrix(.9171 -.39905 .39935 .91662 -98.699 23.323)"/></g></g></g><g stroke-width=".974"><g stroke-linecap="round" stroke-linejoin="round" stroke-miterlimit="5"><g stroke="#305517"><path fill="#447821" stroke-width=".368" d="M-48.97 169.13c.889 4.07 19.396 19.59 20.112 20.393.028-.472-2.176-9.643-20.112-20.393" transform="matrix(-.4482 -.02894 .23632 .66523 -48.067 -88.868)"/><path fill="none" stroke-width=".245" d="M-48.981 169.13c.314.562 16.873 14.449 20.158 20.307" transform="matrix(-.4482 -.02894 .23632 .66523 -48.067 -88.868)"/></g><g stroke="#305517"><path fill="#447821" stroke-width=".404" d="M-48.97 169.13c.889 4.07 19.396 19.59 20.112 20.393.028-.472-2.176-9.643-20.112-20.393" transform="matrix(-.4043 -.05662 .18158 .62178 -38.37 -92.958)"/><path fill="none" stroke-width=".269" d="M-48.981 169.13c.314.562 16.873 14.449 20.158 20.307" transform="matrix(-.4043 -.05662 .18158 .62178 -38.37 -92.958)"/></g><g stroke="#305517"><path fill="#447821" stroke-width=".368" d="M-48.97 169.13c.889 4.07 19.396 19.59 20.112 20.393.028-.472-2.176-9.643-20.112-20.393" transform="matrix(.38888 -.27724 .03312 .72551 13.515 -109.497)"/><path fill="none" stroke-width=".245" d="M-48.981 169.13c.314.562 16.873 14.449 20.158 20.307" transform="matrix(.38888 -.27724 .03312 .72551 13.515 -109.497)"/></g><g stroke="#305517"><path fill="#447821" stroke-width=".368" d="M-48.97 169.13c.889 4.07 19.396 19.59 20.112 20.393.028-.472-2.176-9.643-20.112-20.393" transform="matrix(.43653 -.1322 -.13684 .7088 46.078 -108.403)"/><path fill="none" stroke-width=".245" d="M-48.981 169.13c.314.562 16.873 14.449 20.158 20.307" transform="matrix(.43653 -.1322 -.13684 .7088 46.078 -108.403)"/></g><g stroke="#305517"><path fill="#447821" stroke-width=".463" d="M-48.97 169.13c.889 4.07 19.396 19.59 20.112 20.393.028-.472-2.176-9.643-20.112-20.393" transform="matrix(.3553 -.03483 -.18178 .53372 51.622 -83.877)"/><path fill="none" stroke-width=".309" d="M-48.981 169.13c.314.562 16.873 14.449 20.158 20.307" transform="matrix(.3553 -.03483 -.18178 .53372 51.622 -83.877)"/></g><g stroke="#305517"><path fill="#447821" stroke-width=".309" d="M-48.97 169.13c.889 4.07 19.396 19.59 20.112 20.393.028-.472-2.176-9.643-20.112-20.393" transform="matrix(.32594 -.52087 .3041 .77606 -33.852 -115.207)"/><path fill="none" stroke-width=".206" d="M-48.981 169.13c.314.562 16.873 14.449 20.158 20.307" transform="matrix(.32594 -.52087 .3041 .77606 -33.852 -115.207)"/></g><path fill="#585921" stroke="#424319" stroke-width=".193" d="M15.419 48.101c-.876-.361-.719-.264-1.076-.413 11.784-4.39 14.98-8.522 16.44-10.96 7.288-12.16 7.51-17.66 8.133-18.076.099.805-.13 5.401-6.878 17.223-4.671 8.183-12 10.002-16.62 12.226z" transform="matrix(-.88249 -.34971 -.29349 1.0786 46.934 6.26)"/><g stroke="#305517"><path fill="#447821" stroke-width=".309" d="M-48.97 169.13c.889 4.07 19.396 19.59 20.112 20.393.028-.472-2.176-9.643-20.112-20.393" transform="matrix(-.52384 -.13018 .18443 .83107 -32.904 -111.217)"/><path fill="none" stroke-width=".206" d="M-48.981 169.13c.314.562 16.873 14.449 20.158 20.307" transform="matrix(-.52384 -.13018 .18443 .83107 -32.904 -111.217)"/></g><g stroke="#305517"><path fill="#447821" stroke-width=".253" d="M-75.654 201.07c4.15-1.62 10.616 4.35 12.551 3.72-2.053-4.777-9.657-9.177-12.551-3.72" transform="matrix(-.6842 -.29258 -.20546 .80879 -.049 -144.395)"/><path fill="none" stroke-width=".169" d="M-75.621 201.02c3.307-4.167 10.484 2.43 12.435 3.754" transform="matrix(-.6842 -.29258 -.20546 .80879 -.049 -144.395)"/></g><g stroke="#305517"><path fill="#447821" stroke-width=".247" d="M-75.654 201.07c4.15-1.62 10.616 4.35 12.551 3.72-2.053-4.777-9.657-9.177-12.551-3.72" transform="matrix(.2387 -.82676 .68439 .32316 -105.207 -80.942)"/><path fill="none" stroke-width=".165" d="M-75.621 201.02c3.307-4.167 10.484 2.43 12.435 3.754" transform="matrix(.2387 -.82676 .68439 .32316 -105.207 -80.942)"/></g><g stroke="#305517"><path fill="#447821" stroke-width=".148" d="M-69.233 222.72c.006-2.662 5.257-5.12 7.407-2.892-.433.45-4.023.327-5.33.95-.958.457-1.615 1.357-2.077 1.942" transform="matrix(-1.19929 .20087 .1562 1.46471 -100.016 -261.271)"/><path fill="none" stroke-width=".099" d="M-68.002 220.45c1.854-1.237 4.972-1.34 6.158-.622" transform="matrix(-1.19929 .20087 .1562 1.46471 -100.016 -261.271)"/><path fill="none" stroke-width=".148" d="M-69.18 222.57c.146-.19.653-1.403 2.147-1.848" transform="matrix(-1.19929 .20087 .1562 1.46471 -100.016 -261.271)"/></g><g stroke="#305517"><path fill="#447821" stroke-width=".148" d="M-69.233 222.72c.006-2.662 5.257-5.12 7.407-2.892-.433.45-4.023.327-5.33.95-.958.457-1.615 1.357-2.077 1.942" transform="matrix(1.11483 -.5816 .46996 1.35866 -19.26 -310.464)"/><path fill="none" stroke-width=".099" d="M-68.002 220.45c1.854-1.237 4.972-1.34 6.158-.622" transform="matrix(1.11483 -.5816 .46996 1.35866 -19.26 -310.464)"/><path fill="none" stroke-width=".148" d="M-69.18 222.57c.146-.19.653-1.403 2.147-1.848" transform="matrix(1.11483 -.5816 .46996 1.35866 -19.26 -310.464)"/></g><g stroke="#305517"><path fill="#447821" stroke-width=".171" d="M-69.233 222.72c.006-2.662 5.257-5.12 7.407-2.892-.433.45-4.023.327-5.33.95-.958.457-1.615 1.357-2.077 1.942" transform="matrix(-1.01817 -.38033 -.27061 1.22114 -3.195 -276.053)"/><path fill="none" stroke-width=".114" d="M-68.002 220.45c1.854-1.237 4.972-1.34 6.158-.622" transform="matrix(-1.01817 -.38033 -.27061 1.22114 -3.195 -276.053)"/><path fill="none" stroke-width=".171" d="M-69.18 222.57c.146-.19.653-1.403 2.147-1.848" transform="matrix(-1.01817 -.38033 -.27061 1.22114 -3.195 -276.053)"/></g><g stroke="#305517"><path fill="#447821" stroke-width=".52" d="M-48.97 169.13c.889 4.07 19.396 19.59 20.112 20.393.028-.472-2.176-9.643-20.112-20.393" transform="matrix(-.31066 -.07988 .11797 .49953 -24.543 -81.592)"/><path fill="none" stroke-width=".346" d="M-48.981 169.13c.314.562 16.873 14.449 20.158 20.307" transform="matrix(-.31066 -.07988 .11797 .49953 -24.543 -81.592)"/></g><g stroke="#305517"><path fill="#447821" stroke-width=".171" d="M-69.233 222.72c.006-2.662 5.257-5.12 7.407-2.892-.433.45-4.023.327-5.33.95-.958.457-1.615 1.357-2.077 1.942" transform="matrix(1.02093 -.37287 .26169 1.22313 19.285 -281.675)"/><path fill="none" stroke-width=".114" d="M-68.002 220.45c1.854-1.237 4.972-1.34 6.158-.622" transform="matrix(1.02093 -.37287 .26169 1.22313 19.285 -281.675)"/><path fill="none" stroke-width=".171" d="M-69.18 222.57c.146-.19.653-1.403 2.147-1.848" transform="matrix(1.02093 -.37287 .26169 1.22313 19.285 -281.675)"/></g></g><path fill="#f07a00" d="M5.633 14.29a.675.675 0 0 0 .826.02.54.54 0 1 0 .869-.554.472.472 0 1 0-.331-.873.484.484 0 1 0-.928.21.675.675 0 0 0-.436 1.197"/><g fill="#fc8d00" transform="rotate(219.164 15.613 66.343)"><path stroke="#904200" stroke-linecap="round" stroke-linejoin="round" stroke-miterlimit="5" stroke-width=".198" d="M-59.718 149.2c-.145.15-.233-.11-.439-.074s-.2.31-.387.219c-.188-.092.033-.256-.065-.44-.098-.185-.357-.094-.328-.301.03-.207.253-.047.399-.198.145-.15-.022-.369.184-.405s.124.226.311.318c.188.092.345-.134.443.05.098.185-.178.188-.207.395-.03.207.234.286.089.436" transform="matrix(-.32274 -.58485 -.58578 .32222 123.94 17.885)"/><use xlink:href="#a" transform="rotate(129.73 55.729 100.93)"/><use xlink:href="#a" stroke-width="1.032" transform="matrix(-.91799 .20699 -.19422 -.97834 126.87 189.25)"/><use xlink:href="#a" transform="rotate(139.22 56.175 101.53)"/></g><path fill="none" stroke="#904200" stroke-linecap="round" stroke-linejoin="round" stroke-miterlimit="5" stroke-width=".198" d="M56.226 100.4a.675.675 0 0 0-.653.506.54.54 0 1 0-.325.978.472.472 0 1 0 .809.468.484.484 0 1 0 .587-.748.675.675 0 0 0-.418-1.204" transform="rotate(219.164 15.613 66.343)"/></g><g stroke-linecap="round" stroke-linejoin="round" stroke-miterlimit="5"><g stroke="#305517"><path fill="#5ca32d" stroke-width=".394" d="M-48.97 169.13c.889 4.07 19.396 19.59 20.112 20.393.028-.472-2.176-9.643-20.112-20.393" transform="matrix(.39974 -.23614 .03765 .61269 22.86 -75.103)"/><path fill="none" stroke-width=".263" d="M-48.981 169.13c.314.562 16.873 14.449 20.158 20.307" transform="matrix(.39974 -.23614 .03765 .61269 22.86 -75.103)"/></g><g stroke="#305517"><path fill="#5ca32d" stroke-width=".394" d="M-48.97 169.13c.889 4.07 19.396 19.59 20.112 20.393.028-.472-2.176-9.643-20.112-20.393" transform="matrix(-.39974 -.23614 -.03765 .61269 10.864 -87.327)"/><path fill="none" stroke-width=".263" d="M-48.981 169.13c.314.562 16.873 14.449 20.158 20.307" transform="matrix(-.39974 -.23614 -.03765 .61269 10.864 -87.327)"/></g><g stroke="#305517"><path fill="#5ca32d" stroke-width=".428" d="M-48.97 169.13c.889 4.07 19.396 19.59 20.112 20.393.028-.472-2.176-9.643-20.112-20.393" transform="matrix(-.35214 -.24262 -.07405 .56033 17.985 -82.735)"/><path fill="none" stroke-width=".285" d="M-48.981 169.13c.314.562 16.873 14.449 20.158 20.307" transform="matrix(-.35214 -.24262 -.07405 .56033 17.985 -82.735)"/></g><g stroke="#305517"><path fill="#5ca32d" stroke-width=".461" d="M-48.97 169.13c.889 4.07 19.396 19.59 20.112 20.393.028-.472-2.176-9.643-20.112-20.393" transform="matrix(.38553 -.09439 -.12032 .51044 47.979 -67.748)"/><path fill="none" stroke-width=".307" d="M-48.981 169.13c.314.562 16.873 14.449 20.158 20.307" transform="matrix(.38553 -.09439 -.12032 .51044 47.979 -67.748)"/></g><g stroke="#305517"><path fill="#5ca32d" stroke-width=".461" d="M-48.97 169.13c.889 4.07 19.396 19.59 20.112 20.393.028-.472-2.176-9.643-20.112-20.393" transform="matrix(.36182 -.16319 -.0251 .52383 27.649 -81.328)"/><path fill="none" stroke-width=".307" d="M-48.981 169.13c.314.562 16.873 14.449 20.158 20.307" transform="matrix(.36182 -.16319 -.0251 .52383 27.649 -81.328)"/></g><g stroke="#305517"><path fill="#5ca32d" stroke-width=".394" d="M-48.97 169.13c.889 4.07 19.396 19.59 20.112 20.393.028-.472-2.176-9.643-20.112-20.393" transform="matrix(.39974 -.23614 .03765 .61269 19.96 -84.555)"/><path fill="none" stroke-width=".263" d="M-48.981 169.13c.314.562 16.873 14.449 20.158 20.307" transform="matrix(.39974 -.23614 .03765 .61269 19.96 -84.555)"/></g><g stroke="#305517"><path fill="#5ca32d" stroke-width=".394" d="M-48.97 169.13c.889 4.07 19.396 19.59 20.112 20.393.028-.472-2.176-9.643-20.112-20.393" transform="matrix(-.42766 -.18072 .0444 .61224 -2.4 -74.108)"/><path fill="none" stroke-width=".263" d="M-48.981 169.13c.314.562 16.873 14.449 20.158 20.307" transform="matrix(-.42766 -.18072 .0444 .61224 -2.4 -74.108)"/></g><path fill="#585921" stroke="#424319" stroke-width=".198" d="M22.935 52.713c-5.076-4.916-5.654-8.461-6.586-13.173-2.328-11.759-4.538-23.193-4.998-23.689-.343.618 1.823 11.245 4.134 22.526.817 3.986 1.26 9.416 6.59 14.35.637.003.146-.028.86-.013z"/><g stroke="#305517"><path fill="#5ca32d" stroke-width=".148" d="M-69.233 222.72c.006-2.662 5.257-5.12 7.407-2.892-.433.45-4.023.327-5.33.95-.958.457-1.615 1.357-2.077 1.942" transform="matrix(-1.191 .59794 .59791 1.2015 -195.422 -175.877)"/><path fill="none" stroke-width=".099" d="M-68.002 220.45c1.854-1.237 4.972-1.34 6.158-.622" transform="matrix(-1.191 .59794 .59791 1.2015 -195.422 -175.877)"/><path fill="none" stroke-width=".148" d="M-69.18 222.57c.146-.19.653-1.403 2.147-1.848" transform="matrix(-1.191 .59794 .59791 1.2015 -195.422 -175.877)"/></g><g stroke="#305517"><path fill="#5ca32d" stroke-width=".175" d="M-69.233 222.72c.006-2.662 5.257-5.12 7.407-2.892-.433.45-4.023.327-5.33.95-.958.457-1.615 1.357-2.077 1.942" transform="matrix(1.0894 .31317 -.31658 1.0914 160.148 -191.467)"/><path fill="none" stroke-width=".117" d="M-68.002 220.45c1.854-1.237 4.972-1.34 6.158-.622" transform="matrix(1.0894 .31317 -.31658 1.0914 160.148 -191.467)"/><path fill="none" stroke-width=".175" d="M-69.18 222.57c.146-.19.653-1.403 2.147-1.848" transform="matrix(1.0894 .31317 -.31658 1.0914 160.148 -191.467)"/></g></g><g fill="#447821" stroke="#305517" stroke-linecap="round" stroke-linejoin="round" stroke-miterlimit="5"><path fill="#5ca32d" stroke-width=".256" d="M-75.654 201.07c4.15-1.62 10.616 4.35 12.551 3.72-2.053-4.777-9.657-9.177-12.551-3.72" transform="matrix(.64352 -.36915 .30624 .75915 6.357 -131.917)"/><path fill="none" stroke-width=".171" d="M-75.621 201.02c3.307-4.167 10.484 2.43 12.435 3.754" transform="matrix(.64352 -.36915 .30624 .75915 6.357 -131.917)"/><path fill="#5ca32d" stroke-width=".279" d="M-75.654 201.07c4.15-1.62 10.616 4.35 12.551 3.72-2.053-4.777-9.657-9.177-12.551-3.72" transform="matrix(-.71264 0 0 .70744 -36.985 -99.167)"/><path fill="none" stroke-width=".186" d="M-75.621 201.02c3.307-4.167 10.484 2.43 12.435 3.754" transform="matrix(-.71264 0 0 .70744 -36.985 -99.167)"/><path fill="#5ca32d" stroke-width=".279" d="M-75.654 201.07c4.15-1.62 10.616 4.35 12.551 3.72-2.053-4.777-9.657-9.177-12.551-3.72" transform="rotate(18.927 356.298 -28.22)scale(-.71264 .70744)"/><path fill="none" stroke-width=".186" d="M-75.621 201.02c3.307-4.167 10.484 2.43 12.435 3.754" transform="rotate(18.927 356.298 -28.22)scale(-.71264 .70744)"/><path fill="#5ca32d" stroke-width=".314" d="M-75.654 201.07c4.15-1.62 10.616 4.35 12.551 3.72-2.053-4.777-9.657-9.177-12.551-3.72" transform="matrix(-.54547 -.32786 -.32589 .53796 37.995 -104.527)"/><path fill="none" stroke-width=".209" d="M-75.621 201.02c3.307-4.167 10.484 2.43 12.435 3.754" transform="matrix(-.54547 -.32786 -.32589 .53796 37.995 -104.527)"/><path fill="#5ca32d" stroke-width=".348" d="M-75.654 201.07c4.15-1.62 10.616 4.35 12.551 3.72-2.053-4.777-9.657-9.177-12.551-3.72" transform="matrix(.50499 -.2759 .27489 .49498 -4.082 -96.217)"/><path fill="none" stroke-width=".232" d="M-75.621 201.02c3.307-4.167 10.484 2.43 12.435 3.754" transform="matrix(.50499 -.2759 .27489 .49498 -4.082 -96.217)"/><path fill="#5ca32d" stroke-width=".279" d="M-75.654 201.07c4.15-1.62 10.616 4.35 12.551 3.72-2.053-4.777-9.657-9.177-12.551-3.72" transform="matrix(.71264 0 0 .70744 70.413 -100.897)"/><path fill="none" stroke-width=".186" d="M-75.621 201.02c3.307-4.167 10.484 2.43 12.435 3.754" transform="matrix(.71264 0 0 .70744 70.413 -100.897)"/><path fill="#5ca32d" stroke-width=".279" d="M-75.654 201.07c4.15-1.62 10.616 4.35 12.551 3.72-2.053-4.777-9.657-9.177-12.551-3.72" transform="matrix(.63489 -.32368 .32132 .63026 -.512 -112.077)"/><path fill="none" stroke-width=".186" d="M-75.621 201.02c3.307-4.167 10.484 2.43 12.435 3.754" transform="matrix(.63489 -.32368 .32132 .63026 -.512 -112.077)"/></g><g stroke="#305517" stroke-linecap="round" stroke-linejoin="round" stroke-miterlimit="5" stroke-width=".164"><path fill="#5ca32d" d="M-61.433 228.43c-3.208-.446-.248 4.134.066 4.167.265-.05 2.489-6.093-.066-4.167" transform="matrix(1.2163 0 0 1.2102 89.97 -240.397)"/><path fill="none" stroke-width=".109" d="M-61.378 228.43c-.311.166-.31 3.157.017 4.163" transform="matrix(1.2163 0 0 1.2102 89.97 -240.397)"/><path fill="#5ca32d" d="M-61.433 228.43c-3.208-.446-.248 4.134.066 4.167.265-.05 2.489-6.093-.066-4.167" transform="matrix(-.84318 .87655 .87216 .83896 -230.872 -88.59)"/><path fill="none" stroke-width=".109" d="M-61.378 228.43c-.311.166-.31 3.157.017 4.163" transform="matrix(-.84318 .87655 .87216 .83896 -230.872 -88.59)"/><path fill="#5ca32d" d="M-61.433 228.43c-3.208-.446-.248 4.134.066 4.167.265-.05 2.489-6.093-.066-4.167" transform="matrix(-1.0471 .6188 .6157 1.0418 -191.892 -176.337)"/><path fill="none" stroke-width=".109" d="M-61.378 228.43c-.311.166-.31 3.157.017 4.163" transform="matrix(-1.0471 .6188 .6157 1.0418 -191.892 -176.337)"/></g><g stroke-width=".561"><path fill="#f07a00" d="M17.5 13.23c.182.201.222.502.106.783a.674.674 0 0 1-.114 1.342l.012.012c.253.28.186.753-.149 1.054-.288.26-.69.315-.961.13a.72.72 0 0 1-.241.624c-.29.261-.716.259-.954-.005a.6.6 0 0 1-.082-.116.33.33 0 0 1-.086.17q-.057.161-.182.274c-.289.26-.75.22-1.028-.089a1 1 0 0 1-.094-.127c-.265.1-.541.08-.75-.052a.629.629 0 0 1-.997-.63.773.773 0 0 1-.296-.55.83.83 0 0 1-.662-.28c-.298-.33-.296-.819.006-1.09a.7.7 0 0 1 .314-.16.6.6 0 0 1-.162-.129c-.283-.313-.203-.846.178-1.19a1.1 1.1 0 0 1 .33-.205.74.74 0 0 1 .1-.978.746.746 0 0 1 1.051.068.77.77 0 0 1 .186.371.7.7 0 0 1 .136-.166.764.764 0 0 1 .973-.028.67.67 0 0 1 .217-.467c.289-.26.755-.214 1.042.104a.8.8 0 0 1 .203.67.735.735 0 0 1 1.343.437c.22-.01.423.07.56.222"/><path fill="none" stroke="#904200" stroke-linecap="round" stroke-linejoin="round" stroke-miterlimit="5" stroke-width=".227" d="M-.362 252.51c-.312 0-.6.196-.75.511a.772.772 0 0 0-1.054 1.127h-.02c-.433 0-.784.418-.784.934 0 .446.263.83.628.918a.83.83 0 0 0-.347.684c0 .446.33.807.736.808a.7.7 0 0 0 .161-.02.37.37 0 0 0-.079.204.76.76 0 0 0-.093.365c0 .445.387.807.865.807q.09 0 .18-.018c.118.302.347.522.62.597a.73.73 0 0 0 .72.66c.228 0 .443-.11.58-.295q.078.015.157.015a.9.9 0 0 0 .538-.184.96.96 0 0 0 .748.348c.51 0 .924-.378.924-.843a.8.8 0 0 0-.105-.389.7.7 0 0 0 .233.039c.485 0 .877-.476.877-1.064 0-.152-.027-.302-.078-.44a.85.85 0 0 0 .756-.835.854.854 0 0 0-.865-.842.9.9 0 0 0-.458.127.8.8 0 0 0 .037-.244.875.875 0 0 0-.722-.848.77.77 0 0 0 .231-.543c0-.446-.398-.807-.889-.807a.92.92 0 0 0-.726.342.842.842 0 0 0-1.402-.807.8.8 0 0 0-.62-.307" transform="matrix(-.58439 -.64782 -.64841 .58422 181.018 -134.527)"/><g fill="#fc8d00" stroke="#904200" transform="matrix(-.58439 -.64782 -.64841 .58422 181.018 -134.527)"><path stroke-linecap="round" stroke-linejoin="round" stroke-miterlimit="5" stroke-width=".187" d="M-51.577 146.71c-.145.15-.233-.11-.439-.074s-.2.31-.387.219c-.188-.092.033-.256-.065-.44-.098-.185-.357-.094-.328-.301.03-.207.253-.047.399-.198.145-.15-.022-.369.184-.405s.124.227.311.318c.188.092.345-.134.443.05.098.185-.178.188-.207.395s.234.286.089.436" transform="matrix(.81213 .00022 .00022 .8124 40.641 134.81)"/><use xlink:href="#d" transform="matrix(.89427 -.4479 .44824 .89373 -113.5 28.414)"/><use xlink:href="#d" transform="matrix(.56878 -.82252 .82314 .5678 -206.87 107.96)"/><use xlink:href="#d" transform="matrix(.55245 .8329 -.83353 .55344 214.8 115.11)"/><use xlink:href="#d" transform="matrix(-.58818 -.80807 .80868 -.58915 -203.94 403.09)"/><use xlink:href="#d" transform="matrix(.61661 -.78734 .78793 .61567 -195.74 98.016)"/><use xlink:href="#d" transform="matrix(-.76382 -.64472 .64521 -.7646 -160.49 449.25)"/><use xlink:href="#d" transform="matrix(.70106 -.71326 .71379 .7002 -180.24 74.562)"/><use xlink:href="#d" transform="matrix(-.98323 .1829 -.18304 -.98301 48.536 507.54)"/><use xlink:href="#d" transform="matrix(.67114 .74065 -.74121 .67202 192.38 87.631)"/><use xlink:href="#d" transform="matrix(.99424 .10655 -.10663 .99437 31.303 6.034)"/><use xlink:href="#d" transform="matrix(-.3063 -.95139 .95211 -.30744 -239.57 332.63)"/><use xlink:href="#d" transform="matrix(.21507 .9761 -.97684 .21623 250.61 206.01)"/><use xlink:href="#d" transform="matrix(.22101 .97477 -.97551 .22218 248.18 204.64)"/><use xlink:href="#d" transform="matrix(-.25914 .96563 -.96636 -.25799 243.36 325.07)"/><use xlink:href="#d" transform="matrix(.83835 -.54543 .54584 .8377 -138.87 43.456)"/><use xlink:href="#d" transform="rotate(179.911 -1.944 254.349)"/><use xlink:href="#d" transform="rotate(180.098 -1.186 255.311)"/><use xlink:href="#d" transform="matrix(.08988 .99552 -.99628 .09107 251.56 233.14)"/><use xlink:href="#d" transform="matrix(.96751 .25217 -.25237 .96781 65.412 9.993)"/><use xlink:href="#d" transform="matrix(.73108 .6816 -.68212 .73189 173.97 71.579)"/><use xlink:href="#d" transform="matrix(.32901 .94377 -.94449 .33014 241.86 175.03)"/><use xlink:href="#d" transform="matrix(-.99217 .12543 -.12552 -.99202 30.46 508.99)"/><use xlink:href="#d" transform="matrix(-.90406 -.42671 .42703 -.90457 -108.27 487.64)"/><use xlink:href="#d" transform="matrix(-.42866 -.90287 .90355 -.42974 -229.97 365.9)"/><use xlink:href="#d" transform="matrix(-.45864 .88856 -.88923 -.45758 225.82 375.42)"/><use xlink:href="#d" transform="matrix(-.93101 -.36431 .36459 -.93144 -93.624 489.74)"/><use xlink:href="#d" transform="matrix(.98338 .1809 -.18104 .9836 48.923 5.176)"/><use xlink:href="#d" transform="matrix(-.00643 -.9996 1.0004 -.00763 -252.74 255.57)"/><use xlink:href="#d" transform="matrix(.9171 -.39905 .39935 .91662 -98.699 23.323)"/></g><path fill="#f07a00" d="M8.01 18.63c-.213-.171-.302-.461-.231-.757a.674.674 0 0 1-.104-1.343l-.014-.01c-.294-.236-.304-.713-.022-1.065.243-.303.631-.42.928-.282a.72.72 0 0 1 .138-.655c.243-.304.665-.37.942-.148q.055.045.1.101a.33.33 0 0 1 .057-.181.67.67 0 0 1 .135-.3c.244-.303.705-.338 1.03-.077q.062.05.113.11c.245-.141.521-.166.748-.069a.629.629 0 0 1 1.085.461q.06.033.114.076a.77.77 0 0 1 .266.419.83.83 0 0 1 .7.17c.347.28.423.762.169 1.078a.7.7 0 0 1-.284.208.6.6 0 0 1 .18.101c.33.264.337.803.016 1.203a1.1 1.1 0 0 1-.294.256c.265.273.29.693.06.982a.746.746 0 0 1-1.05.1.77.77 0 0 1-.242-.336.7.7 0 0 1-.108.187.764.764 0 0 1-.955.183.67.67 0 0 1-.14.496c-.243.303-.711.332-1.045.064a.8.8 0 0 1-.308-.628.735.735 0 0 1-1.396-.216.7.7 0 0 1-.589-.129"/><path fill="none" stroke="#904200" stroke-linecap="round" stroke-linejoin="round" stroke-miterlimit="5" stroke-width=".227" d="M-.362 252.51c-.312 0-.6.196-.75.511a.772.772 0 0 0-1.054 1.127h-.02c-.433 0-.784.418-.784.934 0 .446.263.83.628.918a.83.83 0 0 0-.347.684c0 .446.33.807.736.808a.7.7 0 0 0 .161-.02.37.37 0 0 0-.079.204.76.76 0 0 0-.093.365c0 .445.387.807.865.807q.09 0 .18-.018c.118.302.347.522.62.597a.73.73 0 0 0 .72.66c.228 0 .443-.11.58-.295q.078.015.157.015a.9.9 0 0 0 .538-.184.96.96 0 0 0 .748.348c.51 0 .924-.378.924-.843a.8.8 0 0 0-.105-.389.7.7 0 0 0 .233.039c.485 0 .877-.476.877-1.064 0-.152-.027-.302-.078-.44a.85.85 0 0 0 .756-.835.854.854 0 0 0-.865-.842.9.9 0 0 0-.458.127.8.8 0 0 0 .037-.244.875.875 0 0 0-.722-.848.77.77 0 0 0 .231-.543c0-.446-.398-.807-.889-.807a.92.92 0 0 0-.726.342.842.842 0 0 0-1.402-.807.8.8 0 0 0-.62-.307" transform="matrix(.68086 .54553 .54615 -.68079 -129.652 190.733)"/><g fill="#fc8d00" stroke="#904200" transform="matrix(.68086 .54553 .54615 -.68079 -129.652 190.733)"><path stroke-linecap="round" stroke-linejoin="round" stroke-miterlimit="5" stroke-width=".187" d="M-51.577 146.71c-.145.15-.233-.11-.439-.074s-.2.31-.387.219c-.188-.092.033-.256-.065-.44-.098-.185-.357-.094-.328-.301.03-.207.253-.047.399-.198.145-.15-.022-.369.184-.405s.124.227.311.318c.188.092.345-.134.443.05.098.185-.178.188-.207.395s.234.286.089.436" transform="matrix(.81213 .00022 .00022 .8124 40.641 134.81)"/><use xlink:href="#d" transform="matrix(.89427 -.4479 .44824 .89373 -113.5 28.414)"/><use xlink:href="#d" transform="matrix(.56878 -.82252 .82314 .5678 -206.87 107.96)"/><use xlink:href="#d" transform="matrix(.55245 .8329 -.83353 .55344 214.8 115.11)"/><use xlink:href="#d" transform="matrix(-.58818 -.80807 .80868 -.58915 -203.94 403.09)"/><use xlink:href="#d" transform="matrix(.61661 -.78734 .78793 .61567 -195.74 98.016)"/><use xlink:href="#d" transform="matrix(-.76382 -.64472 .64521 -.7646 -160.49 449.25)"/><use xlink:href="#d" transform="matrix(.70106 -.71326 .71379 .7002 -180.24 74.562)"/><use xlink:href="#d" transform="matrix(-.98323 .1829 -.18304 -.98301 48.536 507.54)"/><use xlink:href="#d" transform="matrix(.67114 .74065 -.74121 .67202 192.38 87.631)"/><use xlink:href="#d" transform="matrix(.99424 .10655 -.10663 .99437 31.303 6.034)"/><use xlink:href="#d" transform="matrix(-.3063 -.95139 .95211 -.30744 -239.57 332.63)"/><use xlink:href="#d" transform="matrix(.21507 .9761 -.97684 .21623 250.61 206.01)"/><use xlink:href="#d" transform="matrix(.22101 .97477 -.97551 .22218 248.18 204.64)"/><use xlink:href="#d" transform="matrix(-.25914 .96563 -.96636 -.25799 243.36 325.07)"/><use xlink:href="#d" transform="matrix(.83835 -.54543 .54584 .8377 -138.87 43.456)"/><use xlink:href="#d" transform="rotate(179.911 -1.944 254.349)"/><use xlink:href="#d" transform="rotate(180.098 -1.186 255.311)"/><use xlink:href="#d" transform="matrix(.08988 .99552 -.99628 .09107 251.56 233.14)"/><use xlink:href="#d" transform="matrix(.96751 .25217 -.25237 .96781 65.412 9.993)"/><use xlink:href="#d" transform="matrix(.73108 .6816 -.68212 .73189 173.97 71.579)"/><use xlink:href="#d" transform="matrix(.32901 .94377 -.94449 .33014 241.86 175.03)"/><use xlink:href="#d" transform="matrix(-.99217 .12543 -.12552 -.99202 30.46 508.99)"/><use xlink:href="#d" transform="matrix(-.90406 -.42671 .42703 -.90457 -108.27 487.64)"/><use xlink:href="#d" transform="matrix(-.42866 -.90287 .90355 -.42974 -229.97 365.9)"/><use xlink:href="#d" transform="matrix(-.45864 .88856 -.88923 -.45758 225.82 375.42)"/><use xlink:href="#d" transform="matrix(-.93101 -.36431 .36459 -.93144 -93.624 489.74)"/><use xlink:href="#d" transform="matrix(.98338 .1809 -.18104 .9836 48.923 5.176)"/><use xlink:href="#d" transform="matrix(-.00643 -.9996 1.0004 -.00763 -252.74 255.57)"/><use xlink:href="#d" transform="matrix(.9171 -.39905 .39935 .91662 -98.699 23.323)"/></g><path fill="#f07a00" d="M17.949 17.748c.131.238.102.54-.076.787a.674.674 0 0 1-.416 1.28l.008.015c.183.33.01.775-.385.993-.34.187-.744.148-.965-.094a.72.72 0 0 1-.378.554c-.34.187-.756.088-.927-.223a.6.6 0 0 1-.053-.132.33.33 0 0 1-.122.146.67.67 0 0 1-.24.226c-.34.187-.78.043-.981-.322a1 1 0 0 1-.063-.145c-.28.037-.545-.045-.717-.221a.629.629 0 0 1-.827-.84.773.773 0 0 1-.163-.602.83.83 0 0 1-.581-.426c-.215-.39-.101-.865.254-1.06a.7.7 0 0 1 .342-.084.6.6 0 0 1-.128-.162c-.204-.37-.005-.87.444-1.118a1.1 1.1 0 0 1 .37-.125.74.74 0 0 1 .32-.93.746.746 0 0 1 1.007.307.77.77 0 0 1 .096.403.7.7 0 0 1 .171-.13.764.764 0 0 1 .953.194.67.67 0 0 1 .318-.405c.34-.188.784-.036.991.34a.8.8 0 0 1 .045.698.735.735 0 0 1 1.208.732c.217.04.396.165.495.344"/><path fill="none" stroke="#904200" stroke-linecap="round" stroke-linejoin="round" stroke-miterlimit="5" stroke-width=".227" d="M-.362 252.51c-.312 0-.6.196-.75.511a.772.772 0 0 0-1.054 1.127h-.02c-.433 0-.784.418-.784.934 0 .446.263.83.628.918a.83.83 0 0 0-.347.684c0 .446.33.807.736.808a.7.7 0 0 0 .161-.02.37.37 0 0 0-.079.204.76.76 0 0 0-.093.365c0 .445.387.807.865.807q.09 0 .18-.018c.118.302.347.522.62.597a.73.73 0 0 0 .72.66c.228 0 .443-.11.58-.295q.078.015.157.015a.9.9 0 0 0 .538-.184.96.96 0 0 0 .748.348c.51 0 .924-.378.924-.843a.8.8 0 0 0-.105-.389.7.7 0 0 0 .233.039c.485 0 .877-.476.877-1.064 0-.152-.027-.302-.078-.44a.85.85 0 0 0 .756-.835.854.854 0 0 0-.865-.842.9.9 0 0 0-.458.127.8.8 0 0 0 .037-.244.875.875 0 0 0-.722-.848.77.77 0 0 0 .231-.543c0-.446-.398-.807-.889-.807a.92.92 0 0 0-.726.342.842.842 0 0 0-1.402-.807.8.8 0 0 0-.62-.307" transform="matrix(-.42124 -.76402 -.76457 .42094 210.858 -88.82)"/><g fill="#fc8d00" stroke="#904200" transform="matrix(-.42124 -.76402 -.76457 .42094 210.858 -88.82)"><path stroke-linecap="round" stroke-linejoin="round" stroke-miterlimit="5" stroke-width=".187" d="M-51.577 146.71c-.145.15-.233-.11-.439-.074s-.2.31-.387.219c-.188-.092.033-.256-.065-.44-.098-.185-.357-.094-.328-.301.03-.207.253-.047.399-.198.145-.15-.022-.369.184-.405s.124.227.311.318c.188.092.345-.134.443.05.098.185-.178.188-.207.395s.234.286.089.436" transform="matrix(.81213 .00022 .00022 .8124 40.641 134.81)"/><use xlink:href="#d" transform="matrix(.89427 -.4479 .44824 .89373 -113.5 28.414)"/><use xlink:href="#d" transform="matrix(.56878 -.82252 .82314 .5678 -206.87 107.96)"/><use xlink:href="#d" transform="matrix(.55245 .8329 -.83353 .55344 214.8 115.11)"/><use xlink:href="#d" transform="matrix(-.58818 -.80807 .80868 -.58915 -203.94 403.09)"/><use xlink:href="#d" transform="matrix(.61661 -.78734 .78793 .61567 -195.74 98.016)"/><use xlink:href="#d" transform="matrix(-.76382 -.64472 .64521 -.7646 -160.49 449.25)"/><use xlink:href="#d" transform="matrix(.70106 -.71326 .71379 .7002 -180.24 74.562)"/><use xlink:href="#d" transform="matrix(-.98323 .1829 -.18304 -.98301 48.536 507.54)"/><use xlink:href="#d" transform="matrix(.67114 .74065 -.74121 .67202 192.38 87.631)"/><use xlink:href="#d" transform="matrix(.99424 .10655 -.10663 .99437 31.303 6.034)"/><use xlink:href="#d" transform="matrix(-.3063 -.95139 .95211 -.30744 -239.57 332.63)"/><use xlink:href="#d" transform="matrix(.21507 .9761 -.97684 .21623 250.61 206.01)"/><use xlink:href="#d" transform="matrix(.22101 .97477 -.97551 .22218 248.18 204.64)"/><use xlink:href="#d" transform="matrix(-.25914 .96563 -.96636 -.25799 243.36 325.07)"/><use xlink:href="#d" transform="matrix(.83835 -.54543 .54584 .8377 -138.87 43.456)"/><use xlink:href="#d" transform="rotate(179.911 -1.944 254.349)"/><use xlink:href="#d" transform="rotate(180.098 -1.186 255.311)"/><use xlink:href="#d" transform="matrix(.08988 .99552 -.99628 .09107 251.56 233.14)"/><use xlink:href="#d" transform="matrix(.96751 .25217 -.25237 .96781 65.412 9.993)"/><use xlink:href="#d" transform="matrix(.73108 .6816 -.68212 .73189 173.97 71.579)"/><use xlink:href="#d" transform="matrix(.32901 .94377 -.94449 .33014 241.86 175.03)"/><use xlink:href="#d" transform="matrix(-.99217 .12543 -.12552 -.99202 30.46 508.99)"/><use xlink:href="#d" transform="matrix(-.90406 -.42671 .42703 -.90457 -108.27 487.64)"/><use xlink:href="#d" transform="matrix(-.42866 -.90287 .90355 -.42974 -229.97 365.9)"/><use xlink:href="#d" transform="matrix(-.45864 .88856 -.88923 -.45758 225.82 375.42)"/><use xlink:href="#d" transform="matrix(-.93101 -.36431 .36459 -.93144 -93.624 489.74)"/><use xlink:href="#d" transform="matrix(.98338 .1809 -.18104 .9836 48.923 5.176)"/><use xlink:href="#d" transform="matrix(-.00643 -.9996 1.0004 -.00763 -252.74 255.57)"/><use xlink:href="#d" transform="matrix(.9171 -.39905 .39935 .91662 -98.699 23.323)"/></g></g><g stroke-width=".558"><g stroke="#305517" stroke-linecap="round" stroke-linejoin="round" stroke-miterlimit="5"><path fill="#5ca32d" stroke-width=".33" d="M-48.97 169.13c.889 4.07 19.396 19.59 20.112 20.393.028-.472-2.176-9.643-20.112-20.393" transform="matrix(.5535 .00973 -.34422 .64585 110.849 -76.806)"/><path fill="none" stroke-width=".22" d="M-48.981 169.13c.314.562 16.873 14.449 20.158 20.307" transform="matrix(.5535 .00973 -.34422 .64585 110.849 -76.806)"/><path fill="#5ca32d" stroke-width=".33" d="M-48.97 169.13c.889 4.07 19.396 19.59 20.112 20.393.028-.472-2.176-9.643-20.112-20.393" transform="matrix(.54958 .0664 -.4086 .60716 125.261 -77.612)"/><path fill="none" stroke-width=".22" d="M-48.981 169.13c.314.562 16.873 14.449 20.158 20.307" transform="matrix(.54958 .0664 -.4086 .60716 125.261 -77.612)"/><path fill="#5ca32d" stroke-width=".346" d="M-48.97 169.13c.889 4.07 19.396 19.59 20.112 20.393.028-.472-2.176-9.643-20.112-20.393" transform="matrix(.52838 -.00702 -.30943 .62713 109.412 -94.173)"/><path fill="none" stroke-width=".231" d="M-48.981 169.13c.314.562 16.873 14.449 20.158 20.307" transform="matrix(.52838 -.00702 -.30943 .62713 109.412 -94.173)"/><path fill="#5ca32d" stroke-width=".367" d="M-48.97 169.13c.889 4.07 19.396 19.59 20.112 20.393.028-.472-2.176-9.643-20.112-20.393" transform="matrix(.49613 -.03123 -.26153 .60449 101.46 -96.608)"/><path fill="none" stroke-width=".245" d="M-48.981 169.13c.314.562 16.873 14.449 20.158 20.307" transform="matrix(.49613 -.03123 -.26153 .60449 101.46 -96.608)"/></g><g stroke-width=".542"><path fill="#f07a00" d="M38.62 10.93c.105-.262.038-.568-.175-.8a.698.698 0 0 0-.587-1.266l.007-.016c.146-.363-.086-.798-.519-.973-.373-.151-.784-.06-.982.215a.75.75 0 0 0-.456-.522c-.373-.151-.788.003-.926.344a.6.6 0 0 0-.038.141.34.34 0 0 0-.144-.135.7.7 0 0 0-.275-.202c-.373-.15-.807.052-.969.452a1 1 0 0 0-.046.157c-.293-.003-.555.114-.71.317a.651.651 0 0 0-.746.966.801.801 0 0 0-.093.64.86.86 0 0 0-.546.508c-.173.428.003.902.393 1.06.114.045.238.06.362.043a.7.7 0 0 0-.112.183c-.164.406.102.896.595 1.095.127.05.262.08.395.083a.77.77 0 0 0 .444.916c.39.157.837-.04.999-.44a.8.8 0 0 0 .048-.427.8.8 0 0 0 .192.114c.346.14.746.006.957-.318.074.175.208.31.376.377.374.151.812-.06.978-.471a.83.83 0 0 0-.04-.724.761.761 0 0 0 1.151-.902.73.73 0 0 0 .467-.415"/><path fill="none" stroke="#904200" stroke-linecap="round" stroke-linejoin="round" stroke-miterlimit="5" stroke-width=".22" d="M-.362 252.51c-.312 0-.6.196-.75.511a.772.772 0 0 0-1.054 1.127h-.02c-.433 0-.784.418-.784.934 0 .446.263.83.628.918a.83.83 0 0 0-.347.684c0 .446.33.807.736.808a.7.7 0 0 0 .161-.02.37.37 0 0 0-.079.204.76.76 0 0 0-.093.365c0 .445.387.807.865.807q.09 0 .18-.018c.118.302.347.522.62.597a.73.73 0 0 0 .72.66c.228 0 .443-.11.58-.295q.078.015.157.015a.9.9 0 0 0 .538-.184.96.96 0 0 0 .748.348c.51 0 .924-.378.924-.843a.8.8 0 0 0-.105-.389.7.7 0 0 0 .233.039c.485 0 .877-.476.877-1.064 0-.152-.027-.302-.078-.44a.85.85 0 0 0 .756-.835.854.854 0 0 0-.865-.842.9.9 0 0 0-.458.127.8.8 0 0 0 .037-.244.875.875 0 0 0-.722-.848.77.77 0 0 0 .231-.543c0-.446-.398-.807-.889-.807a.92.92 0 0 0-.726.342.842.842 0 0 0-1.402-.807.8.8 0 0 0-.62-.307" transform="matrix(-.33867 .8378 -.83836 -.33835 250.19 96.671)"/><g fill="#fc8d00" stroke="#904200"><path stroke-linecap="round" stroke-linejoin="round" stroke-miterlimit="5" stroke-width=".18" d="M-51.577 146.71c-.145.15-.233-.11-.439-.074s-.2.31-.387.219c-.188-.092.033-.256-.065-.44-.098-.185-.357-.094-.328-.301.03-.207.253-.047.399-.198.145-.15-.022-.369.184-.405s.124.227.311.318c.188.092.345-.134.443.05.098.185-.178.188-.207.395s.234.286.089.436" transform="matrix(-.27523 .68033 -.68115 -.2747 123.407 85.107)"/><g transform="matrix(-.33867 .8378 -.83836 -.33835 250.19 96.671)"><use xlink:href="#d" transform="matrix(.89427 -.4479 .44824 .89373 -113.5 28.414)"/><use xlink:href="#d" transform="matrix(.56878 -.82252 .82314 .5678 -206.87 107.96)"/><use xlink:href="#d" transform="matrix(.55245 .8329 -.83353 .55344 214.8 115.11)"/><use xlink:href="#d" transform="matrix(-.58818 -.80807 .80868 -.58915 -203.94 403.09)"/><use xlink:href="#d" transform="matrix(.61661 -.78734 .78793 .61567 -195.74 98.016)"/><use xlink:href="#d" transform="matrix(-.76382 -.64472 .64521 -.7646 -160.49 449.25)"/><use xlink:href="#d" transform="matrix(.70106 -.71326 .71379 .7002 -180.24 74.562)"/><use xlink:href="#d" transform="matrix(-.98323 .1829 -.18304 -.98301 48.536 507.54)"/><use xlink:href="#d" transform="matrix(.67114 .74065 -.74121 .67202 192.38 87.631)"/><use xlink:href="#d" transform="matrix(.99424 .10655 -.10663 .99437 31.303 6.034)"/><use xlink:href="#d" transform="matrix(-.3063 -.95139 .95211 -.30744 -239.57 332.63)"/><use xlink:href="#d" transform="matrix(.21507 .9761 -.97684 .21623 250.61 206.01)"/><use xlink:href="#d" transform="matrix(.22101 .97477 -.97551 .22218 248.18 204.64)"/><use xlink:href="#d" transform="matrix(-.25914 .96563 -.96636 -.25799 243.36 325.07)"/><use xlink:href="#d" transform="matrix(.83835 -.54543 .54584 .8377 -138.87 43.456)"/><use xlink:href="#d" transform="rotate(179.911 -1.944 254.349)"/><use xlink:href="#d" transform="rotate(180.098 -1.186 255.311)"/><use xlink:href="#d" transform="matrix(.08988 .99552 -.99628 .09107 251.56 233.14)"/><use xlink:href="#d" transform="matrix(.96751 .25217 -.25237 .96781 65.412 9.993)"/><use xlink:href="#d" transform="matrix(.73108 .6816 -.68212 .73189 173.97 71.579)"/><use xlink:href="#d" transform="matrix(.32901 .94377 -.94449 .33014 241.86 175.03)"/><use xlink:href="#d" transform="matrix(-.99217 .12543 -.12552 -.99202 30.46 508.99)"/><use xlink:href="#d" transform="matrix(-.90406 -.42671 .42703 -.90457 -108.27 487.64)"/><use xlink:href="#d" transform="matrix(-.42866 -.90287 .90355 -.42974 -229.97 365.9)"/><use xlink:href="#d" transform="matrix(-.45864 .88856 -.88923 -.45758 225.82 375.42)"/><use xlink:href="#d" transform="matrix(-.93101 -.36431 .36459 -.93144 -93.624 489.74)"/><use xlink:href="#d" transform="matrix(.98338 .1809 -.18104 .9836 48.923 5.176)"/><use xlink:href="#d" transform="matrix(-.00643 -.9996 1.0004 -.00763 -252.74 255.57)"/><use xlink:href="#d" transform="matrix(.9171 -.39905 .39935 .91662 -98.699 23.323)"/></g></g></g><g stroke-linecap="round" stroke-linejoin="round" stroke-miterlimit="5"><g stroke="#305517" stroke-width=".33"><path fill="#5ca32d" d="M-48.97 169.13c.889 4.07 19.396 19.59 20.112 20.393.028-.472-2.176-9.643-20.112-20.393" transform="matrix(-.4711 -.29072 -.05908 .72946 28.184 -102.597)"/><path fill="none" stroke-width=".22" d="M-48.981 169.13c.314.562 16.873 14.449 20.158 20.307" transform="matrix(-.4711 -.29072 -.05908 .72946 28.184 -102.597)"/><path fill="#5ca32d" d="M-48.97 169.13c.889 4.07 19.396 19.59 20.112 20.393.028-.472-2.176-9.643-20.112-20.393" transform="matrix(-.47702 -.2809 -.04397 .73054 28.645 -114.81)"/><path fill="none" stroke-width=".22" d="M-48.981 169.13c.314.562 16.873 14.449 20.158 20.307" transform="matrix(-.47702 -.2809 -.04397 .73054 28.645 -114.81)"/><path fill="#5ca32d" d="M-48.97 169.13c.889 4.07 19.396 19.59 20.112 20.393.028-.472-2.176-9.643-20.112-20.393" transform="matrix(-.51345 -.20695 .06503 .72896 9.533 -120.526)"/><path fill="none" stroke-width=".22" d="M-48.981 169.13c.314.562 16.873 14.449 20.158 20.307" transform="matrix(-.51345 -.20695 .06503 .72896 9.533 -120.526)"/></g><path fill="#585921" stroke="#424319" stroke-width=".111" d="M51.992 38.543c2.847-3.264 3.12-5.561 3.643-8.69 1.305-7.807 2.545-15.397 2.803-15.727.192.41-1.023 7.466-2.32 14.955-.457 2.646-.444 5.226-3.554 9.41-.164.008-.018.01-.572.052" transform="matrix(1.7834 .17773 -.17788 1.782 -61.954 -25.24)"/><g stroke="#305517"><path fill="#5ca32d" stroke-width=".457" d="M-48.97 169.13c.889 4.07 19.396 19.59 20.112 20.393.028-.472-2.176-9.643-20.112-20.393" transform="matrix(.38607 -.09537 -.11837 .51698 59.279 -49.433)"/><path fill="none" stroke-width=".305" d="M-48.981 169.13c.314.562 16.873 14.449 20.158 20.307" transform="matrix(.38607 -.09537 -.11837 .51698 59.279 -49.433)"/></g></g><g stroke-width=".542"><path fill="#f07a00" d="M44.116 11.445c.105-.261.038-.568-.175-.8a.698.698 0 0 0-.587-1.265l.007-.017c.147-.363-.086-.798-.519-.973-.373-.15-.784-.06-.981.216a.75.75 0 0 0-.457-.523c-.373-.15-.788.003-.926.344a.6.6 0 0 0-.038.142.34.34 0 0 0-.144-.135.7.7 0 0 0-.275-.202c-.373-.151-.807.051-.969.451a1 1 0 0 0-.046.157c-.293-.003-.555.114-.71.317a.651.651 0 0 0-.746.966.801.801 0 0 0-.093.64.86.86 0 0 0-.546.509c-.173.427.003.902.393 1.059.114.046.238.06.362.044a.7.7 0 0 0-.112.182c-.164.406.102.896.595 1.095.127.051.262.08.395.083a.77.77 0 0 0 .444.916c.39.158.837-.04.999-.44a.8.8 0 0 0 .048-.426.8.8 0 0 0 .193.113c.345.14.745.006.956-.318.074.175.208.31.377.378.373.15.81-.06.977-.472a.83.83 0 0 0-.04-.724.761.761 0 0 0 1.151-.902.73.73 0 0 0 .467-.415"/><path fill="none" stroke="#904200" stroke-linecap="round" stroke-linejoin="round" stroke-miterlimit="5" stroke-width=".22" d="M-.362 252.51c-.312 0-.6.196-.75.511a.772.772 0 0 0-1.054 1.127h-.02c-.433 0-.784.418-.784.934 0 .446.263.83.628.918a.83.83 0 0 0-.347.684c0 .446.33.807.736.808a.7.7 0 0 0 .161-.02.37.37 0 0 0-.079.204.76.76 0 0 0-.093.365c0 .445.387.807.865.807q.09 0 .18-.018c.118.302.347.522.62.597a.73.73 0 0 0 .72.66c.228 0 .443-.11.58-.295q.078.015.157.015a.9.9 0 0 0 .538-.184.96.96 0 0 0 .748.348c.51 0 .924-.378.924-.843a.8.8 0 0 0-.105-.389.7.7 0 0 0 .233.039c.485 0 .877-.476.877-1.064 0-.152-.027-.302-.078-.44a.85.85 0 0 0 .756-.835.854.854 0 0 0-.865-.842.9.9 0 0 0-.458.127.8.8 0 0 0 .037-.244.875.875 0 0 0-.722-.848.77.77 0 0 0 .231-.543c0-.446-.398-.807-.889-.807a.92.92 0 0 0-.726.342.842.842 0 0 0-1.402-.807.8.8 0 0 0-.62-.307" transform="matrix(-.33867 .8378 -.83836 -.33835 255.686 97.187)"/><g fill="#fc8d00" stroke="#904200"><path stroke-linecap="round" stroke-linejoin="round" stroke-miterlimit="5" stroke-width=".18" d="M-51.577 146.71c-.145.15-.233-.11-.439-.074s-.2.31-.387.219c-.188-.092.033-.256-.065-.44-.098-.185-.357-.094-.328-.301.03-.207.253-.047.399-.198.145-.15-.022-.369.184-.405s.124.227.311.318c.188.092.345-.134.443.05.098.185-.178.188-.207.395s.234.286.089.436" transform="matrix(-.27523 .68033 -.68115 -.2747 128.904 85.622)"/><g transform="matrix(-.33867 .8378 -.83836 -.33835 255.686 97.187)"><use xlink:href="#d" transform="matrix(.89427 -.4479 .44824 .89373 -113.5 28.414)"/><use xlink:href="#d" transform="matrix(.56878 -.82252 .82314 .5678 -206.87 107.96)"/><use xlink:href="#d" transform="matrix(.55245 .8329 -.83353 .55344 214.8 115.11)"/><use xlink:href="#d" transform="matrix(-.58818 -.80807 .80868 -.58915 -203.94 403.09)"/><use xlink:href="#d" transform="matrix(.61661 -.78734 .78793 .61567 -195.74 98.016)"/><use xlink:href="#d" transform="matrix(-.76382 -.64472 .64521 -.7646 -160.49 449.25)"/><use xlink:href="#d" transform="matrix(.70106 -.71326 .71379 .7002 -180.24 74.562)"/><use xlink:href="#d" transform="matrix(-.98323 .1829 -.18304 -.98301 48.536 507.54)"/><use xlink:href="#d" transform="matrix(.67114 .74065 -.74121 .67202 192.38 87.631)"/><use xlink:href="#d" transform="matrix(.99424 .10655 -.10663 .99437 31.303 6.034)"/><use xlink:href="#d" transform="matrix(-.3063 -.95139 .95211 -.30744 -239.57 332.63)"/><use xlink:href="#d" transform="matrix(.21507 .9761 -.97684 .21623 250.61 206.01)"/><use xlink:href="#d" transform="matrix(.22101 .97477 -.97551 .22218 248.18 204.64)"/><use xlink:href="#d" transform="matrix(-.25914 .96563 -.96636 -.25799 243.36 325.07)"/><use xlink:href="#d" transform="matrix(.83835 -.54543 .54584 .8377 -138.87 43.456)"/><use xlink:href="#d" transform="rotate(179.911 -1.944 254.349)"/><use xlink:href="#d" transform="rotate(180.098 -1.186 255.311)"/><use xlink:href="#d" transform="matrix(.08988 .99552 -.99628 .09107 251.56 233.14)"/><use xlink:href="#d" transform="matrix(.96751 .25217 -.25237 .96781 65.412 9.993)"/><use xlink:href="#d" transform="matrix(.73108 .6816 -.68212 .73189 173.97 71.579)"/><use xlink:href="#d" transform="matrix(.32901 .94377 -.94449 .33014 241.86 175.03)"/><use xlink:href="#d" transform="matrix(-.99217 .12543 -.12552 -.99202 30.46 508.99)"/><use xlink:href="#d" transform="matrix(-.90406 -.42671 .42703 -.90457 -108.27 487.64)"/><use xlink:href="#d" transform="matrix(-.42866 -.90287 .90355 -.42974 -229.97 365.9)"/><use xlink:href="#d" transform="matrix(-.45864 .88856 -.88923 -.45758 225.82 375.42)"/><use xlink:href="#d" transform="matrix(-.93101 -.36431 .36459 -.93144 -93.624 489.74)"/><use xlink:href="#d" transform="matrix(.98338 .1809 -.18104 .9836 48.923 5.176)"/><use xlink:href="#d" transform="matrix(-.00643 -.9996 1.0004 -.00763 -252.74 255.57)"/><use xlink:href="#d" transform="matrix(.9171 -.39905 .39935 .91662 -98.699 23.323)"/></g></g></g><g stroke="#305517" stroke-linecap="round" stroke-linejoin="round" stroke-miterlimit="5"><path fill="#5ca32d" stroke-width=".152" d="M-69.233 222.72c.006-2.662 5.257-5.12 7.407-2.892-.433.45-4.023.327-5.33.95-.958.457-1.615 1.357-2.077 1.942" transform="rotate(45.373 258.548 310.586)scale(1.30036 1.304)"/><path fill="none" stroke-width=".102" d="M-68.002 220.45c1.854-1.237 4.972-1.34 6.158-.622" transform="rotate(45.373 258.548 310.586)scale(1.30036 1.304)"/><path fill="none" stroke-width=".152" d="M-69.18 222.57c.146-.19.653-1.403 2.147-1.848" transform="rotate(45.373 258.548 310.586)scale(1.30036 1.304)"/></g><g stroke="#305517" stroke-linecap="round" stroke-linejoin="round" stroke-miterlimit="5"><path fill="#5ca32d" stroke-width=".142" d="M-69.233 222.72c.006-2.662 5.257-5.12 7.407-2.892-.433.45-4.023.327-5.33.95-.958.457-1.615 1.357-2.077 1.942" transform="matrix(-1.37827 -.2362 -.23709 1.38392 -7.34 -297.531)"/><path fill="none" stroke-width=".094" d="M-68.002 220.45c1.854-1.237 4.972-1.34 6.158-.622" transform="matrix(-1.37827 -.2362 -.23709 1.38392 -7.34 -297.531)"/><path fill="none" stroke-width=".142" d="M-69.18 222.57c.146-.19.653-1.403 2.147-1.848" transform="matrix(-1.37827 -.2362 -.23709 1.38392 -7.34 -297.531)"/></g><g fill="#447821" stroke="#305517" stroke-linecap="round" stroke-linejoin="round" stroke-miterlimit="5"><path fill="#5ca32d" stroke-width=".287" d="M-75.654 201.07c4.15-1.62 10.616 4.35 12.551 3.72-2.053-4.777-9.657-9.177-12.551-3.72" transform="matrix(-.51317 -.3343 -.42769 .65252 76.025 -109.333)"/><path fill="none" stroke-width=".191" d="M-75.621 201.02c3.307-4.167 10.484 2.43 12.435 3.754" transform="matrix(-.51317 -.3343 -.42769 .65252 76.025 -109.333)"/><path fill="#5ca32d" stroke-width=".242" d="M-75.654 201.07c4.15-1.62 10.616 4.35 12.551 3.72-2.053-4.777-9.657-9.177-12.551-3.72" transform="rotate(-6.124 -1241.078 -727.03)scale(.7766 .86691)"/><path fill="none" stroke-width=".161" d="M-75.621 201.02c3.307-4.167 10.484 2.43 12.435 3.754" transform="rotate(-6.124 -1241.078 -727.03)scale(.7766 .86691)"/><path fill="#5ca32d" stroke-width=".234" d="M-75.654 201.07c4.15-1.62 10.616 4.35 12.551 3.72-2.053-4.777-9.657-9.177-12.551-3.72" transform="matrix(.78128 -.25642 .30506 .81829 32.244 -153.623)"/><path fill="none" stroke-width=".156" d="M-75.621 201.02c3.307-4.167 10.484 2.43 12.435 3.754" transform="matrix(.78128 -.25642 .30506 .81829 32.244 -153.623)"/><path fill="#5ca32d" stroke-width=".229" d="M-75.654 201.07c4.15-1.62 10.616 4.35 12.551 3.72-2.053-4.777-9.657-9.177-12.551-3.72" transform="rotate(40.926 232.127 61.03)scale(-.8698 .86691)"/><path fill="none" stroke-width=".152" d="M-75.621 201.02c3.307-4.167 10.484 2.43 12.435 3.754" transform="rotate(40.926 232.127 61.03)scale(-.8698 .86691)"/></g><g stroke="#305517" stroke-linecap="round" stroke-linejoin="round" stroke-miterlimit="5"><path fill="#5ca32d" stroke-width=".169" d="M-61.433 228.43c-3.208-.446-.248 4.134.066 4.167.265-.05 2.489-6.093-.066-4.167" transform="matrix(1.0973 .43966 -.43197 1.08862 199.711 -189.574)"/><path fill="none" stroke-width=".112" d="M-61.378 228.43c-.311.166-.31 3.157.017 4.163" transform="matrix(1.0973 .43966 -.43197 1.08862 199.711 -189.574)"/><path fill="#5ca32d" stroke-width=".202" d="M-61.433 228.43c-3.208-.446-.248 4.134.066 4.167.265-.05 2.489-6.093-.066-4.167" transform="matrix(.776 .61124 -.60277 .77369 212.291 -89.69)"/><path fill="none" stroke-width=".134" d="M-61.378 228.43c-.311.166-.31 3.157.017 4.163" transform="matrix(.776 .61124 -.60277 .77369 212.291 -89.69)"/><path fill="#5ca32d" stroke-width=".176" d="M-61.433 228.43c-3.208-.446-.248 4.134.066 4.167.265-.05 2.489-6.093-.066-4.167" transform="matrix(-1.1241 -.12243 -.1252 1.11451 -3.128 -241.086)"/><path fill="none" stroke-width=".117" d="M-61.378 228.43c-.311.166-.31 3.157.017 4.163" transform="matrix(-1.1241 -.12243 -.1252 1.11451 -3.128 -241.086)"/></g><g stroke-width=".561"><path fill="#f07a00" d="M39.462 10.918c.262.074.456.307.507.607a.674.674 0 0 1 .619 1.196l.017.005c.363.102.558.537.435.971-.106.374-.417.634-.745.621a.72.72 0 0 1 .129.658c-.106.374-.469.6-.81.503a.6.6 0 0 1-.131-.055.33.33 0 0 1 .018.19.67.67 0 0 1-.008.33c-.106.373-.517.585-.919.472a1 1 0 0 1-.146-.058c-.172.226-.416.356-.663.355a.629.629 0 0 1-1.179-.002.773.773 0 0 1-.543-.307.83.83 0 0 1-.71.115c-.429-.121-.687-.536-.576-.927a.7.7 0 0 1 .18-.302.6.6 0 0 1-.205-.022c-.406-.115-.623-.608-.483-1.102a1.1 1.1 0 0 1 .17-.35.74.74 0 0 1-.436-.881.746.746 0 0 1 .926-.502.77.77 0 0 1 .354.215.7.7 0 0 1 .027-.213.764.764 0 0 1 .809-.542.67.67 0 0 1-.066-.51c.106-.375.526-.584.938-.468a.8.8 0 0 1 .529.46.735.735 0 0 1 1.37-.346.7.7 0 0 1 .592-.11"/><path fill="none" stroke="#904200" stroke-linecap="round" stroke-linejoin="round" stroke-miterlimit="5" stroke-width=".227" d="M-.362 252.51c-.312 0-.6.196-.75.511a.772.772 0 0 0-1.054 1.127h-.02c-.433 0-.784.418-.784.934 0 .446.263.83.628.918a.83.83 0 0 0-.347.684c0 .446.33.807.736.808a.7.7 0 0 0 .161-.02.37.37 0 0 0-.079.204.76.76 0 0 0-.093.365c0 .445.387.807.865.807q.09 0 .18-.018c.118.302.347.522.62.597a.73.73 0 0 0 .72.66c.228 0 .443-.11.58-.295q.078.015.157.015a.9.9 0 0 0 .538-.184.96.96 0 0 0 .748.348c.51 0 .924-.378.924-.843a.8.8 0 0 0-.105-.389.7.7 0 0 0 .233.039c.485 0 .877-.476.877-1.064 0-.152-.027-.302-.078-.44a.85.85 0 0 0 .756-.835.854.854 0 0 0-.865-.842.9.9 0 0 0-.458.127.8.8 0 0 0 .037-.244.875.875 0 0 0-.722-.848.77.77 0 0 0 .231-.543c0-.446-.398-.807-.889-.807a.92.92 0 0 0-.726.342.842.842 0 0 0-1.402-.807.8.8 0 0 0-.62-.307" transform="matrix(-.83964 -.23708 -.23768 .83982 99.173 -201.231)"/><g fill="#fc8d00" stroke="#904200" transform="matrix(-.83964 -.23708 -.23768 .83982 99.173 -201.231)"><path stroke-linecap="round" stroke-linejoin="round" stroke-miterlimit="5" stroke-width=".187" d="M-51.577 146.71c-.145.15-.233-.11-.439-.074s-.2.31-.387.219c-.188-.092.033-.256-.065-.44-.098-.185-.357-.094-.328-.301.03-.207.253-.047.399-.198.145-.15-.022-.369.184-.405s.124.227.311.318c.188.092.345-.134.443.05.098.185-.178.188-.207.395s.234.286.089.436" transform="matrix(.81213 .00022 .00022 .8124 40.641 134.81)"/><use xlink:href="#d" transform="matrix(.89427 -.4479 .44824 .89373 -113.5 28.414)"/><use xlink:href="#d" transform="matrix(.56878 -.82252 .82314 .5678 -206.87 107.96)"/><use xlink:href="#d" transform="matrix(.55245 .8329 -.83353 .55344 214.8 115.11)"/><use xlink:href="#d" transform="matrix(-.58818 -.80807 .80868 -.58915 -203.94 403.09)"/><use xlink:href="#d" transform="matrix(.61661 -.78734 .78793 .61567 -195.74 98.016)"/><use xlink:href="#d" transform="matrix(-.76382 -.64472 .64521 -.7646 -160.49 449.25)"/><use xlink:href="#d" transform="matrix(.70106 -.71326 .71379 .7002 -180.24 74.562)"/><use xlink:href="#d" transform="matrix(-.98323 .1829 -.18304 -.98301 48.536 507.54)"/><use xlink:href="#d" transform="matrix(.67114 .74065 -.74121 .67202 192.38 87.631)"/><use xlink:href="#d" transform="matrix(.99424 .10655 -.10663 .99437 31.303 6.034)"/><use xlink:href="#d" transform="matrix(-.3063 -.95139 .95211 -.30744 -239.57 332.63)"/><use xlink:href="#d" transform="matrix(.21507 .9761 -.97684 .21623 250.61 206.01)"/><use xlink:href="#d" transform="matrix(.22101 .97477 -.97551 .22218 248.18 204.64)"/><use xlink:href="#d" transform="matrix(-.25914 .96563 -.96636 -.25799 243.36 325.07)"/><use xlink:href="#d" transform="matrix(.83835 -.54543 .54584 .8377 -138.87 43.456)"/><use xlink:href="#d" transform="rotate(179.911 -1.944 254.349)"/><use xlink:href="#d" transform="rotate(180.098 -1.186 255.311)"/><use xlink:href="#d" transform="matrix(.08988 .99552 -.99628 .09107 251.56 233.14)"/><use xlink:href="#d" transform="matrix(.96751 .25217 -.25237 .96781 65.412 9.993)"/><use xlink:href="#d" transform="matrix(.73108 .6816 -.68212 .73189 173.97 71.579)"/><use xlink:href="#d" transform="matrix(.32901 .94377 -.94449 .33014 241.86 175.03)"/><use xlink:href="#d" transform="matrix(-.99217 .12543 -.12552 -.99202 30.46 508.99)"/><use xlink:href="#d" transform="matrix(-.90406 -.42671 .42703 -.90457 -108.27 487.64)"/><use xlink:href="#d" transform="matrix(-.42866 -.90287 .90355 -.42974 -229.97 365.9)"/><use xlink:href="#d" transform="matrix(-.45864 .88856 -.88923 -.45758 225.82 375.42)"/><use xlink:href="#d" transform="matrix(-.93101 -.36431 .36459 -.93144 -93.624 489.74)"/><use xlink:href="#d" transform="matrix(.98338 .1809 -.18104 .9836 48.923 5.176)"/><use xlink:href="#d" transform="matrix(-.00643 -.9996 1.0004 -.00763 -252.74 255.57)"/><use xlink:href="#d" transform="matrix(.9171 -.39905 .39935 .91662 -98.699 23.323)"/></g></g></g></svg>