<svg xmlns="http://www.w3.org/2000/svg" xmlns:xlink="http://www.w3.org/1999/xlink" xml:space="preserve" width="227.03" height="400.944" viewBox="0 0 60.068 106.08"><g transform="translate(-37.581 -29.688)"><path id="a" fill="#fbb9d0" stroke="#690526" stroke-linecap="round" stroke-width=".213" d="M-47.205 127.95c-.234.218-.5-.324-.817-.285-.318.038-.445.628-.725.472-.28-.155.154-.574.02-.865-.136-.29-.736-.229-.674-.543s.594-.031.828-.25c.235-.217-.009-.77.309-.808s.213.556.493.711c.28.156.73-.246.864.044.135.29-.462.374-.524.689-.061.314.46.617.226.835z" transform="matrix(.62146 0 0 .6212 -18.702 48.549)"/></g><g stroke="#3e581d" stroke-linecap="round"><g stroke-width=".183"><path fill="#587b25" d="M-16.911 85.907c-2.354-1.018-5.663 2.163-8.557 11.357 6.68-2.481 11.357-11.357 8.557-11.357z" transform="matrix(-.39921 1.08782 -.91717 -.457 93.361 92.343)"/><path fill="none" d="M-16.94 85.9c-2.63 1.166-7.499 10.994-8.489 11.309" transform="matrix(-.39921 1.08782 -.91717 -.457 93.361 92.343)"/></g><g stroke-width=".204"><path fill="#587b25" d="M-115.52 195.8c-10.123-8.503-19.255 7.828-34.282 7.243 7.243-2.024 24.789-19.975 34.282-7.243z" transform="matrix(-.77433 .26323 .2656 1.13345 -121.494 -129.726)"/><path fill="none" d="M-120.11 192.06c-7.842-1.288-12.263 6.987-29.442 10.995" transform="matrix(-.77433 .26323 .2656 1.13345 -121.494 -129.726)"/></g><g stroke-width=".183"><path fill="#587b25" d="M-16.911 85.907c-2.354-1.018-5.663 2.163-8.557 11.357 6.68-2.481 11.357-11.357 8.557-11.357z" transform="matrix(.0194 1.1793 1.00011 -.038 -65.658 105.629)"/><path fill="none" d="M-16.94 85.9c-2.63 1.166-7.499 10.994-8.489 11.309" transform="matrix(.0194 1.1793 1.00011 -.038 -65.658 105.629)"/><path fill="#587b25" d="M-16.911 85.907c-2.354-1.018-5.663 2.163-8.557 11.357 6.68-2.481 11.357-11.357 8.557-11.357z" transform="matrix(-.39921 1.08782 -.91717 -.457 92.645 118.306)"/><path fill="none" d="M-16.94 85.9c-2.63 1.166-7.499 10.994-8.489 11.309" transform="matrix(-.39921 1.08782 -.91717 -.457 92.645 118.306)"/><path fill="#587b25" d="M116.61 53.181c1.53.33.216 58.082-1.422 59.771l-.89.116c3.336-40.17.98-59.647 2.25-59.877z" transform="matrix(-.9997 -.02907 -.02463 1.1798 138.866 -24.314)"/><path fill="#587b25" d="M-16.911 85.907c-2.354-1.018-5.663 2.163-8.557 11.357 6.68-2.481 11.357-11.357 8.557-11.357z" transform="matrix(-.02977 1.17977 -.99985 -.02 106.3 117.994)"/><path fill="none" d="M-16.94 85.9c-2.63 1.166-7.499 10.994-8.489 11.309" transform="matrix(-.02977 1.17977 -.99985 -.02 106.3 117.994)"/></g><g stroke-width=".218"><path fill="#557a27" d="M-125.89 147.59c6.658-7.963 23.806-2.74 27.316-4.35 0 0-23.357-4.558-27.316 4.35z" transform="matrix(-.68804 .16243 .1842 1.15685 -93.17 -52.326)"/><path fill="#587b25" d="M-125.9 147.69c6.172-10.053 23.287-2.64 27.422-4.485 0 0-14.99-4.525-22.841-.541-1.44.73-1.972.827-4.581 5.026z" transform="matrix(-.68804 .16243 .1842 1.15685 -93.17 -52.326)"/></g><g stroke-width=".204"><path fill="#587b25" d="M-115.52 195.8c-5.457-2.228-13.395 4.163-17.55-1.699 7.243-2.024 12.223-3.752 17.55 1.699z" transform="matrix(-.63962 .5826 .60498 .93043 -171.667 -17.209)"/><path fill="none" d="M-115.99 195.38c-6.568-3.224-14.163.983-17.039-1.312" transform="matrix(-.63962 .5826 .60498 .93043 -171.667 -17.209)"/></g><g stroke-width=".206"><path fill="#587b25" d="M-16.911 85.907c-2.354-1.018-5.663 2.163-8.557 11.357 6.68-2.481 11.357-11.357 8.557-11.357z" transform="matrix(-.9552 .1876 .17895 .93501 -10.434 19.543)"/><path fill="none" d="M-16.94 85.9c-2.63 1.166-7.499 10.994-8.489 11.309" transform="matrix(-.9552 .1876 .17895 .93501 -10.434 19.543)"/></g><g stroke-width=".204"><path fill="#587b25" d="M-110.06 204.28c-10.123-8.503-19.255 7.828-34.282 7.243 7.243-2.024 24.789-19.975 34.282-7.243z" transform="matrix(-.78785 -.17217 -.19438 1.16026 -27.55 -171.641)"/><path fill="none" d="M-114.79 200.47c-7.842-1.288-12.288 6.997-29.467 11.005" transform="matrix(-.78785 -.17217 -.19438 1.16026 -27.55 -171.641)"/></g><g stroke-width=".293"><path fill="#587b25" d="M-108.89 204.46c5.669-9.448 21.235 6.569 37.341 9.943-12.552 2.024-29.09-7.84-30.953-9.043s-2.97-3.24-6.389-.9z" transform="matrix(-.4926 -.10765 -.15052 .89847 -2.94 -112.36)"/><path fill="none" d="M-108.82 204.34c4.383-4.031 7.638 1.92 19.178 7.282" transform="matrix(-.4926 -.10765 -.15052 .89847 -2.94 -112.36)"/></g><g stroke-width=".183"><path fill="#587b25" d="M-127.62 169.57c-4.263-2.354.668 5.217 2.386 5.98 1.463-5.662 1.368-9.925-2.386-5.98z" transform="matrix(-.98123 -.21444 -.19438 1.16026 -72.474 -140.981)"/><path fill="none" d="M-127.65 169.56c.62.199 2.383 4.042 2.383 5.95" transform="matrix(-.98123 -.21444 -.19438 1.16026 -72.474 -140.981)"/></g><g stroke-width=".154"><path fill="#587b25" d="M-16.911 85.907c-2.354-1.018-5.663 2.163-8.557 11.357 6.68-2.481 11.357-11.357 8.557-11.357z" transform="matrix(1.21835 .41823 -.41776 1.21689 76.753 -36.865)"/><path fill="none" d="M-16.94 85.9c-2.63 1.166-7.499 10.994-8.489 11.309" transform="matrix(1.21835 .41823 -.41776 1.21689 76.753 -36.865)"/></g><g stroke-width=".183"><path fill="#587b25" d="M-16.911 85.907c-2.354-1.018-5.663 2.163-8.557 11.357 6.68-2.481 11.357-11.357 8.557-11.357z" transform="matrix(-.98123 -.21444 -.19438 1.16026 20.752 -42.144)"/><path fill="none" d="M-16.94 85.9c-2.63 1.166-7.499 10.994-8.489 11.309" transform="matrix(-.98123 -.21444 -.19438 1.16026 20.752 -42.144)"/></g><g stroke-width=".266"><path fill="#587b25" d="M-110.06 204.28c-10.123-8.503-15.783 8.479-30.81 7.894 7.243-2.025 21.317-20.626 30.81-7.894z" transform="matrix(.56475 -.32241 .3229 .80334 17.312 -164.399)"/><path fill="none" d="M-114.79 200.47c-8.216-.942-13.992 9.103-25.72 11.623" transform="matrix(.56475 -.32241 .3229 .80334 17.312 -164.399)"/></g><g stroke-width=".208"><path fill="#587b25" d="M-108.89 204.46c5.669-9.448 21.235 6.569 37.341 9.943-12.552 2.024-29.09-7.84-30.953-9.043s-2.97-3.24-6.389-.9z" transform="matrix(.7603 .16615 -.19438 1.16026 143.52 -183.065)"/><path fill="none" d="M-108.82 204.34c4.383-4.031 7.638 1.92 19.178 7.282" transform="matrix(.7603 .16615 -.19438 1.16026 143.52 -183.065)"/></g><g stroke-width=".183"><path fill="#587b25" d="M-127.62 169.57c-4.263-2.354.668 5.217 2.386 5.98 1.463-5.662 1.368-9.925-2.386-5.98z" transform="matrix(.98123 .21444 -.19438 1.16026 179.41 -133.973)"/><path fill="none" d="M-127.65 169.56c.62.199 2.383 4.042 2.383 5.95" transform="matrix(.98123 .21444 -.19438 1.16026 179.41 -133.973)"/></g><g stroke-width=".26"><path fill="#557a27" d="M-123.6 149.8c9.963-5.849 23.698-4.2 30.173-6.111 0 0-26.214-2.797-30.173 6.111z" transform="rotate(175.594 -12.55 -71.081)scale(.49805 -1.17226)"/><path fill="#587b25" d="M-123.59 149.73c7.099-6.291 26.827-4.42 30.963-6.265-12.807-1.424-27.278-.457-30.963 6.265z" transform="rotate(175.594 -12.55 -71.081)scale(.49805 -1.17226)"/></g><g stroke-width=".358"><path fill="#587b25" d="M-110.06 204.28c-10.123-8.503-19.255 7.828-34.282 7.243 7.243-2.024 24.789-19.975 34.282-7.243z" transform="rotate(-4.406 -992.264 -1202.75)scale(.49791 .6175)"/><path fill="none" d="M-114.79 200.47c-7.842-1.288-12.288 6.997-29.467 11.005" transform="rotate(-4.406 -992.264 -1202.75)scale(.49791 .6175)"/></g><g stroke-width=".247"><path fill="#587b25" d="M-127.62 169.57c-2.68-1.576-8.033 11.236-8.49 12.453 3.55-2.2 12.302-14.676 8.49-12.453z" transform="matrix(-.71909 .35682 .35574 .72254 -107.184 -27.37)"/><path fill="none" d="M-127.61 169.62c-3.053 4.888-7.655 11.346-8.43 12.268" transform="matrix(-.71909 .35682 .35574 .72254 -107.184 -27.37)"/></g><g stroke-width=".198"><path fill="#587b25" d="M43.721 47.061c-3.606-3.272-.51 2.054.985 3.192 2.728-5.173 3.576-6.166-.985-3.192z"/><path fill="none" d="M43.76 47.07c.078 1.21.02 1.571.89 3.093"/><path fill="#587b25" d="M46.497 25.522c4.347-2.195-.054 2.115-1.8 2.815-.403-4.63.078-5.638 1.8-2.815z"/><path fill="none" d="M46.457 25.52c-.397 1.146-.437 1.51-1.681 2.745"/><path fill="#587b25" d="M44.537 70.531c1.332-2.191-1.363-5.906-10.07-10.039 1.537 6.959 9.685 12.812 10.07 10.04z"/><path fill="none" d="M44.548 70.503c-.793-2.766-9.857-8.94-10.033-9.964"/><path fill="#587b25" d="M43.636 86.016c-.632-2.486 3.033-5.249 12.569-6.652-3.508 6.204-13.012 9.416-12.569 6.652z"/><path fill="none" d="M43.634 85.986c1.568-2.413 12.043-5.664 12.51-6.591"/><path fill="#587b25" d="M43.593 86.296c1.332-2.192-1.364-5.907-10.072-10.04 1.539 6.959 9.686 12.812 10.072 10.04z"/><path fill="none" d="M43.603 86.268c-.792-2.767-9.857-8.94-10.033-9.965"/><path fill="#587b25" d="M44.319 27.914c1.532.36.71 75.682-.918 77.614l-.889.14c3.06-45.603.538-77.482 1.806-77.754z"/></g><g fill="#587b25" stroke-width=".227"><path d="M-16.911 85.907c-3.945-2.354-14.634 4.136-19.915 17.115 6.68-1.209 20.551-15.015 19.915-17.115z" transform="matrix(-.74974 .05777 .078 1.0124 24.273 .64)"/><path d="M-16.972 85.955c-3.96.18-18.761 16.601-19.75 16.916" transform="matrix(-.74974 .05777 .078 1.0124 24.273 .64)"/></g><g stroke-width=".221"><path fill="#587b25" d="M-115.52 195.8c-10.123-8.503-19.255 7.828-34.282 7.243 7.243-2.024 24.789-19.975 34.282-7.243z" transform="rotate(-14.206 -460.515 -406.692)scale(.80292 1)"/><path fill="none" d="M-120.11 192.06c-7.842-1.288-12.263 6.987-29.442 10.995" transform="rotate(-14.206 -460.515 -406.692)scale(.80292 1)"/></g><g stroke-width=".237"><path fill="#557a27" d="M-125.89 147.59c6.658-7.963 23.806-2.74 27.316-4.35 0 0-23.357-4.558-27.316 4.35z" transform="rotate(175.594 -26.214 -35.314)scale(.6998 -1)"/><path fill="#587b25" d="M-125.9 147.69c6.172-10.053 23.287-2.64 27.422-4.485 0 0-14.99-4.525-22.841-.541-1.44.73-1.972.827-4.581 5.026z" transform="rotate(175.594 -26.214 -35.314)scale(.6998 -1)"/></g><g stroke-width=".221"><path fill="#587b25" d="M-115.52 195.8c-5.457-2.228-13.395 4.163-17.55-1.699 7.243-2.024 12.223-3.752 17.55 1.699z" transform="rotate(148.99 -61.379 -43.09)scale(.80293 -1)"/><path fill="none" d="M-115.99 195.38c-6.568-3.224-14.163.983-17.039-1.312" transform="rotate(148.99 -61.379 -43.09)scale(.80293 -1)"/></g><g stroke-width=".198"><path fill="#587b25" d="M44.695 70.936c2.27-1.196 5.812 1.722 9.405 10.666-6.852-1.96-12.196-10.45-9.405-10.666z"/><path fill="none" d="M44.724 70.927c2.712.96 8.321 10.385 9.332 10.623"/></g><g stroke-width=".247"><path fill="#587b25" d="M-127.62 169.57c-4.263-2.354.763 20.742 2.481 21.505 1.464-5.663 1.273-25.45-2.481-21.505z" transform="matrix(.76527 .24245 -.24085 .76851 182.77 -49.49)"/><path fill="none" d="M-127.61 169.62c.064 4.9 2.443 19.455 2.443 21.363" transform="matrix(.76527 .24245 -.24085 .76851 182.77 -49.49)"/></g><g stroke-width=".198"><path fill="#587b25" d="M44.061 29.138c3.32-.231-3.46 6.724-5.202 7.428-1.267-5.71 3.563-10.75 5.202-7.428z"/><path fill="none" d="M44.092 29.13c-.627.177-5.133 5.489-5.2 7.396"/></g><g stroke-width=".156"><path fill="#587b25" d="M-97.449 175.12c3.733.662-8.216 2.95-10.232 2.555 6.449-4.115 11.878-5.364 10.232-2.555z" transform="matrix(-1.1855 -.29764 -.90618 1.1405 88.046 -199.978)"/><path fill="none" d="M-97.407 175.13c-.628-.189-7.728 1.398-10.197 2.54" transform="matrix(-1.1855 -.29764 -.90618 1.1405 88.046 -199.978)"/></g></g><g stroke-width=".198"><g stroke="#557a27" stroke-linecap="round"><path fill="#79a933" d="M47.739 46.665c-1.497-2.083.905-5.994 9.27-10.783-1 7.056-8.673 13.518-9.27 10.783z"/><path fill="none" d="M47.726 46.638c.578-2.819 9.141-9.671 9.238-10.706"/></g><g stroke="#557a27" stroke-linecap="round" stroke-width=".221"><path fill="#79a933" d="M-115.52 195.8c-10.123-8.503-19.255 7.828-34.282 7.243 7.243-2.024 24.789-19.975 34.282-7.243z" transform="rotate(26.603 243.146 423.12)scale(.80293 1)"/><path fill="none" d="M-120.11 192.06c-7.842-1.288-12.263 6.987-29.442 10.995" transform="rotate(26.603 243.146 423.12)scale(.80293 1)"/></g><g stroke="#557a27" stroke-linecap="round"><path fill="#79a933" d="M41.241 86.603c1.497-2.082-.905-5.993-9.27-10.783 1 7.056 8.673 13.518 9.27 10.783z"/><path fill="none" d="M41.254 86.577c-.578-2.82-9.141-9.672-9.238-10.706"/><path fill="#79a933" d="M44.167 68.374c-1.496-2.083.906-5.994 9.27-10.783-.999 7.056-8.672 13.518-9.27 10.783z"/><path fill="none" d="M44.154 68.347c.578-2.82 9.142-9.672 9.238-10.706"/><path fill="#79a933" d="M50.366 32.385c1.454.566-12.02 71.902-13.927 73.308l-.898-.026C45.67 66.611 49.072 32.412 50.366 32.385z"/><path fill="#79a933" d="M37.99 97.985c-.615-2.49 3.069-5.228 12.614-6.566-3.55 6.18-13.075 9.327-12.613 6.566z"/><path fill="none" d="M37.989 97.955c1.584-2.402 12.08-5.582 12.555-6.506"/></g><g stroke="#557a27" stroke-linecap="round" stroke-width=".237"><path fill="#557a27" d="M-125.89 147.59c6.658-7.963 23.806-2.74 27.316-4.35 0 0-23.357-4.558-27.316 4.35z" transform="rotate(21.816 99.975 450.644)scale(.69981 1)"/><path fill="#79a933" d="M-125.9 147.69c6.172-10.053 23.287-2.64 27.422-4.485 0 0-14.99-4.525-22.841-.541-1.44.73-1.972.827-4.581 5.026z" transform="rotate(21.816 99.975 450.644)scale(.69981 1)"/></g><g stroke="#557a27" stroke-linecap="round" stroke-width=".221"><path fill="#79a933" d="M-115.52 195.8c-5.457-2.228-13.395 4.163-17.55-1.699 7.243-2.024 12.223-3.752 17.55 1.699z" transform="rotate(48.42 80.108 292.879)scale(.80292 1)"/><path fill="none" d="M-115.99 195.38c-6.568-3.224-14.163.983-17.039-1.312" transform="rotate(48.42 80.108 292.879)scale(.80292 1)"/></g><g stroke="#557a27" stroke-linecap="round"><path fill="#79a933" d="M37.718 98.329c-1.807-1.82-6.061-.096-12.165 7.363 7.124.18 14.764-6.323 12.165-7.363z"/><path fill="none" d="M37.694 98.311c-2.876.105-11.048 7.42-12.084 7.345"/></g><g stroke="#557a27" stroke-linecap="round" stroke-width=".221"><path fill="#79a933" d="M-110.06 204.28c-10.123-8.503-19.255 7.828-34.282 7.243 7.243-2.024 24.789-19.975 34.282-7.243z" transform="matrix(.80293 0 0 1 129.773 -116)"/><path fill="none" d="M-114.79 200.47c-7.842-1.288-12.288 6.997-29.467 11.005" transform="matrix(.80293 0 0 1 129.773 -116)"/></g><g stroke="#557a27" stroke-linecap="round" stroke-width=".318"><path fill="#79a933" d="M-108.89 204.46c5.669-9.448 21.235 6.569 37.341 9.943-12.552 2.024-29.09-7.84-30.953-9.043s-2.97-3.24-6.389-.9z" transform="matrix(.50203 0 0 .77438 95.81 -71.188)"/><path fill="none" d="M-108.82 204.34c4.383-4.031 7.638 1.92 19.178 7.282" transform="matrix(.50203 0 0 .77438 95.81 -71.188)"/></g><g stroke="#557a27" stroke-linecap="round"><path fill="#79a933" d="M41.272 87.221c-4.263-2.354.668 5.218 2.386 5.981 1.463-5.662 1.368-9.925-2.386-5.98z"/><path fill="none" d="M41.242 87.211c.62.2 2.383 4.042 2.383 5.95"/></g><g stroke="#557a27" stroke-linecap="round"><path fill="#79a933" d="M44.04 68.794c-2.354-1.018-5.663 2.163-8.558 11.357 6.681-2.481 11.357-11.357 8.558-11.357z"/><path fill="none" d="M44.01 68.787c-2.63 1.166-7.498 10.994-8.488 11.31"/></g><g stroke="#557a27" stroke-linecap="round" stroke-width=".289"><path fill="#79a933" d="M-110.06 204.28c-10.123-8.503-15.783 8.479-30.81 7.894 7.243-2.025 21.317-20.626 30.81-7.894z" transform="rotate(36.435 221.704 69.253)scale(-.62412 .75729)"/><path fill="none" d="M-114.79 200.47c-8.216-.942-13.992 9.103-25.72 11.623" transform="rotate(36.435 221.704 69.253)scale(-.62412 .75729)"/></g><g stroke="#557a27" stroke-linecap="round" stroke-width=".225"><path fill="#79a933" d="M-108.89 204.46c5.669-9.448 21.235 6.569 37.341 9.943-12.552 2.024-29.09-7.84-30.953-9.043s-2.97-3.24-6.389-.9z" transform="matrix(-.77485 0 0 1 -36.536 -156.589)"/><path fill="none" d="M-108.82 204.34c4.383-4.031 7.638 1.92 19.178 7.282" transform="matrix(-.77485 0 0 1 -36.536 -156.589)"/></g><g stroke="#557a27" stroke-linecap="round"><path fill="#79a933" d="M47.712 47.284c4.263-2.354-.668 5.217-2.386 5.98-1.463-5.662-1.368-9.925 2.386-5.98z"/><path fill="none" d="M47.742 47.274c-.62.198-2.383 4.041-2.383 5.95"/></g><path fill="#79a933" stroke="#557a27" stroke-linecap="round" d="M54.815 28.027c-.157 6.816-3.824 5.624-4.679 6.389 0 0 6.029.72 4.68-6.389zM46.04 25.23c.203 10.123 3.105 7.963 4.004 9.043 0 0-4.994 2.16-4.004-9.043z"/><g transform="matrix(-1 0 0 1 13.859 -109.22)"><path fill="#f58aaf" stroke="#690526" stroke-linecap="round" d="M-39.602 127.17c-1.26 0-2.383.687-2.801 1.714a2 2 0 0 0-.123-.004c-1.193 0-2.16 1.077-2.16 2.407q0 .162.02.323c-.775.247-1.28.83-1.28 1.476 0 .882.927 1.597 2.07 1.597.493 0 .97-.135 1.344-.383q-.04.18-.04.36c0 1.032.947 1.868 2.115 1.868.458 0 .904-.132 1.27-.375.496.158 1.038.24 1.587.24 1.364 0 2.618-.504 3.266-1.311a2.8 2.8 0 0 0 1.323.321c1.23 0 2.227-.735 2.227-1.642 0-.568-.398-1.095-1.052-1.395.359-.413.557-.95.557-1.507 0-1.242-.967-2.25-2.16-2.25-.296 0-.589.064-.86.187a2.19 2.19 0 0 0-2.74-.357c-.534-.786-1.509-1.269-2.563-1.269z"/><use xlink:href="#a" transform="rotate(-48.699 -43.419 119.16)"/><use xlink:href="#a" transform="rotate(-13.365 -41.295 87.676)"/><use xlink:href="#a" transform="rotate(73.134 -44.285 135.44)"/><use xlink:href="#a" transform="rotate(-51.371 -40.624 115.07)"/><use xlink:href="#a" transform="rotate(264.21 -40.547 122.23)"/><use xlink:href="#a" transform="rotate(116.63 -41.474 133.28)"/><use xlink:href="#a" transform="rotate(63.151 -43.152 142.39)"/><use xlink:href="#a" transform="rotate(-72.759 -37.359 118.97)"/><use xlink:href="#a" transform="rotate(52.075 -46.659 147.84)"/><use xlink:href="#a" transform="rotate(256.8 -38.062 124.74)"/><use xlink:href="#a" transform="rotate(233.95 -39.95 127.28)"/><use xlink:href="#a" transform="rotate(-77.53 -37.486 123.5)"/><use xlink:href="#a" transform="rotate(5.806 -122.22 238.96)"/><use xlink:href="#a" transform="rotate(-51.229 -35.766 121.85)"/><use xlink:href="#a" transform="rotate(108.47 -47.718 134.01)"/><use xlink:href="#a" transform="rotate(268.08 -42.164 127.42)"/><use xlink:href="#a" transform="rotate(-10.684 -11.983 104.41)"/><use xlink:href="#a" transform="rotate(24.691 -60.088 138.35)"/><use xlink:href="#a" transform="rotate(256.73 -44.51 127.88)"/><use xlink:href="#a" transform="rotate(-1.784 117.89 -63.104)"/><use xlink:href="#a" transform="rotate(214.5 -43.466 129.29)"/><use xlink:href="#a" transform="rotate(238.47 -41.787 127.93)"/><use xlink:href="#a" transform="rotate(-81.275 -38.015 121.63)"/><use xlink:href="#a" transform="rotate(218.63 -41.655 128.68)"/><use xlink:href="#a" transform="rotate(48.894 -48.613 144.23)"/><use xlink:href="#a" transform="rotate(15.947 -54.855 181.28)"/><use xlink:href="#a" transform="rotate(61.123 -44.938 140.03)"/><use xlink:href="#a" transform="rotate(26.277 -51.931 158.48)"/><use xlink:href="#a" transform="rotate(60.554 -48.749 133.12)"/><use xlink:href="#a" transform="rotate(45.166 -46.569 139.45)"/><use xlink:href="#a" transform="rotate(-35.466 -35.092 113.19)"/><use xlink:href="#a" transform="rotate(1.278 -243.86 658.7)"/><use xlink:href="#a" transform="rotate(265.72 -41.599 124.25)"/><use xlink:href="#a" transform="rotate(-44.498 -38.628 120.82)"/><use xlink:href="#a" transform="rotate(171.07 -45.597 128.76)"/><use xlink:href="#a" transform="rotate(-44.596 -41.892 119.37)"/><use xlink:href="#a" transform="rotate(-15.637 -31.811 105.51)"/><use xlink:href="#a" transform="rotate(252.23 -43.106 126.34)"/><use xlink:href="#a" transform="rotate(181.54 -43.915 129.9)"/><use xlink:href="#a" transform="rotate(202.06 -43.577 128.31)"/><use xlink:href="#a" transform="rotate(23.787 -49.117 156.51)"/></g><g transform="matrix(-1 0 0 1 5.968 -107.817)"><path fill="#f58aaf" stroke="#690526" stroke-linecap="round" d="M-39.602 127.17c-1.26 0-2.383.687-2.801 1.714a2 2 0 0 0-.123-.004c-1.193 0-2.16 1.077-2.16 2.407q0 .162.02.323c-.775.247-1.28.83-1.28 1.476 0 .882.927 1.597 2.07 1.597.493 0 .97-.135 1.344-.383q-.04.18-.04.36c0 1.032.947 1.868 2.115 1.868.458 0 .904-.132 1.27-.375.496.158 1.038.24 1.587.24 1.364 0 2.618-.504 3.266-1.311a2.8 2.8 0 0 0 1.323.321c1.23 0 2.227-.735 2.227-1.642 0-.568-.398-1.095-1.052-1.395.359-.413.557-.95.557-1.507 0-1.242-.967-2.25-2.16-2.25-.296 0-.589.064-.86.187a2.19 2.19 0 0 0-2.74-.357c-.534-.786-1.509-1.269-2.563-1.269z"/><use xlink:href="#a" transform="rotate(-48.699 -43.419 119.16)"/><use xlink:href="#a" transform="rotate(-13.365 -41.295 87.676)"/><use xlink:href="#a" transform="rotate(73.134 -44.285 135.44)"/><use xlink:href="#a" transform="rotate(-51.371 -40.624 115.07)"/><use xlink:href="#a" transform="rotate(264.21 -40.547 122.23)"/><use xlink:href="#a" transform="rotate(116.63 -41.474 133.28)"/><use xlink:href="#a" transform="rotate(63.151 -43.152 142.39)"/><use xlink:href="#a" transform="rotate(-72.759 -37.359 118.97)"/><use xlink:href="#a" transform="rotate(52.075 -46.659 147.84)"/><use xlink:href="#a" transform="rotate(256.8 -38.062 124.74)"/><use xlink:href="#a" transform="rotate(233.95 -39.95 127.28)"/><use xlink:href="#a" transform="rotate(-77.53 -37.486 123.5)"/><use xlink:href="#a" transform="rotate(5.806 -122.22 238.96)"/><use xlink:href="#a" transform="rotate(-51.229 -35.766 121.85)"/><use xlink:href="#a" transform="rotate(108.47 -47.718 134.01)"/><use xlink:href="#a" transform="rotate(268.08 -42.164 127.42)"/><use xlink:href="#a" transform="rotate(-10.684 -11.983 104.41)"/><use xlink:href="#a" transform="rotate(24.691 -60.088 138.35)"/><use xlink:href="#a" transform="rotate(256.73 -44.51 127.88)"/><use xlink:href="#a" transform="rotate(-1.784 117.89 -63.104)"/><use xlink:href="#a" transform="rotate(214.5 -43.466 129.29)"/><use xlink:href="#a" transform="rotate(238.47 -41.787 127.93)"/><use xlink:href="#a" transform="rotate(-81.275 -38.015 121.63)"/><use xlink:href="#a" transform="rotate(218.63 -41.655 128.68)"/><use xlink:href="#a" transform="rotate(48.894 -48.613 144.23)"/><use xlink:href="#a" transform="rotate(15.947 -54.855 181.28)"/><use xlink:href="#a" transform="rotate(61.123 -44.938 140.03)"/><use xlink:href="#a" transform="rotate(26.277 -51.931 158.48)"/><use xlink:href="#a" transform="rotate(60.554 -48.749 133.12)"/><use xlink:href="#a" transform="rotate(45.166 -46.569 139.45)"/><use xlink:href="#a" transform="rotate(-35.466 -35.092 113.19)"/><use xlink:href="#a" transform="rotate(1.278 -243.86 658.7)"/><use xlink:href="#a" transform="rotate(265.72 -41.599 124.25)"/><use xlink:href="#a" transform="rotate(-44.498 -38.628 120.82)"/><use xlink:href="#a" transform="rotate(171.07 -45.597 128.76)"/><use xlink:href="#a" transform="rotate(-44.596 -41.892 119.37)"/><use xlink:href="#a" transform="rotate(-15.637 -31.811 105.51)"/><use xlink:href="#a" transform="rotate(252.23 -43.106 126.34)"/><use xlink:href="#a" transform="rotate(181.54 -43.915 129.9)"/><use xlink:href="#a" transform="rotate(202.06 -43.577 128.31)"/><use xlink:href="#a" transform="rotate(23.787 -49.117 156.51)"/></g><path fill="#79a933" stroke="#557a27" stroke-linecap="round" d="M54.27 22.6c.328 10.596-3.301 10.773-4.2 11.853 0 0 6.12-.463 4.2-11.854z"/><path fill="#79a933" stroke="#557a27" stroke-linecap="round" d="M45.37 30.41c1.787 5.604 3.976 2.968 4.876 4.048 0 0-5.041 1.674-4.875-4.048z"/><g transform="translate(90.607 -104.539)"><path fill="#f58aaf" stroke="#690526" stroke-linecap="round" d="M-39.602 127.17c-1.26 0-2.383.687-2.801 1.714a2 2 0 0 0-.123-.004c-1.193 0-2.16 1.077-2.16 2.407q0 .162.02.323c-.775.247-1.28.83-1.28 1.476 0 .882.927 1.597 2.07 1.597.493 0 .97-.135 1.344-.383q-.04.18-.04.36c0 1.032.947 1.868 2.115 1.868.458 0 .904-.132 1.27-.375.496.158 1.038.24 1.587.24 1.364 0 2.618-.504 3.266-1.311a2.8 2.8 0 0 0 1.323.321c1.23 0 2.227-.735 2.227-1.642 0-.568-.398-1.095-1.052-1.395.359-.413.557-.95.557-1.507 0-1.242-.967-2.25-2.16-2.25-.296 0-.589.064-.86.187a2.19 2.19 0 0 0-2.74-.357c-.534-.786-1.509-1.269-2.563-1.269z"/><use xlink:href="#a" transform="rotate(-48.699 -43.419 119.16)"/><use xlink:href="#a" transform="rotate(-13.365 -41.295 87.676)"/><use xlink:href="#a" transform="rotate(73.134 -44.285 135.44)"/><use xlink:href="#a" transform="rotate(-51.371 -40.624 115.07)"/><use xlink:href="#a" transform="rotate(264.21 -40.547 122.23)"/><use xlink:href="#a" transform="rotate(116.63 -41.474 133.28)"/><use xlink:href="#a" transform="rotate(63.151 -43.152 142.39)"/><use xlink:href="#a" transform="rotate(-72.759 -37.359 118.97)"/><use xlink:href="#a" transform="rotate(52.075 -46.659 147.84)"/><use xlink:href="#a" transform="rotate(256.8 -38.062 124.74)"/><use xlink:href="#a" transform="rotate(233.95 -39.95 127.28)"/><use xlink:href="#a" transform="rotate(-77.53 -37.486 123.5)"/><use xlink:href="#a" transform="rotate(5.806 -122.22 238.96)"/><use xlink:href="#a" transform="rotate(-51.229 -35.766 121.85)"/><use xlink:href="#a" transform="rotate(108.47 -47.718 134.01)"/><use xlink:href="#a" transform="rotate(268.08 -42.164 127.42)"/><use xlink:href="#a" transform="rotate(-10.684 -11.983 104.41)"/><use xlink:href="#a" transform="rotate(24.691 -60.088 138.35)"/><use xlink:href="#a" transform="rotate(256.73 -44.51 127.88)"/><use xlink:href="#a" transform="rotate(-1.784 117.89 -63.104)"/><use xlink:href="#a" transform="rotate(214.5 -43.466 129.29)"/><use xlink:href="#a" transform="rotate(238.47 -41.787 127.93)"/><use xlink:href="#a" transform="rotate(-81.275 -38.015 121.63)"/><use xlink:href="#a" transform="rotate(218.63 -41.655 128.68)"/><use xlink:href="#a" transform="rotate(48.894 -48.613 144.23)"/><use xlink:href="#a" transform="rotate(15.947 -54.855 181.28)"/><use xlink:href="#a" transform="rotate(61.123 -44.938 140.03)"/><use xlink:href="#a" transform="rotate(26.277 -51.931 158.48)"/><use xlink:href="#a" transform="rotate(60.554 -48.749 133.12)"/><use xlink:href="#a" transform="rotate(45.166 -46.569 139.45)"/><use xlink:href="#a" transform="rotate(-35.466 -35.092 113.19)"/><use xlink:href="#a" transform="rotate(1.278 -243.86 658.7)"/><use xlink:href="#a" transform="rotate(265.72 -41.599 124.25)"/><use xlink:href="#a" transform="rotate(-44.498 -38.628 120.82)"/><use xlink:href="#a" transform="rotate(171.07 -45.597 128.76)"/><use xlink:href="#a" transform="rotate(-44.596 -41.892 119.37)"/><use xlink:href="#a" transform="rotate(-15.637 -31.811 105.51)"/><use xlink:href="#a" transform="rotate(252.23 -43.106 126.34)"/><use xlink:href="#a" transform="rotate(181.54 -43.915 129.9)"/><use xlink:href="#a" transform="rotate(202.06 -43.577 128.31)"/><use xlink:href="#a" transform="rotate(23.787 -49.117 156.51)"/></g><g transform="rotate(171.468 7.7 83.619)"><path fill="#f58aaf" stroke="#690526" stroke-linecap="round" d="M-39.602 127.17c-1.26 0-2.383.687-2.801 1.714a2 2 0 0 0-.123-.004c-1.193 0-2.16 1.077-2.16 2.407q0 .162.02.323c-.775.247-1.28.83-1.28 1.476 0 .882.927 1.597 2.07 1.597.493 0 .97-.135 1.344-.383q-.04.18-.04.36c0 1.032.947 1.868 2.115 1.868.458 0 .904-.132 1.27-.375.496.158 1.038.24 1.587.24 1.364 0 2.618-.504 3.266-1.311a2.8 2.8 0 0 0 1.323.321c1.23 0 2.227-.735 2.227-1.642 0-.568-.398-1.095-1.052-1.395.359-.413.557-.95.557-1.507 0-1.242-.967-2.25-2.16-2.25-.296 0-.589.064-.86.187a2.19 2.19 0 0 0-2.74-.357c-.534-.786-1.509-1.269-2.563-1.269z"/><use xlink:href="#a" transform="rotate(-48.699 -43.419 119.16)"/><use xlink:href="#a" transform="rotate(-13.365 -41.295 87.676)"/><use xlink:href="#a" transform="rotate(73.134 -44.285 135.44)"/><use xlink:href="#a" transform="rotate(-51.371 -40.624 115.07)"/><use xlink:href="#a" transform="rotate(264.21 -40.547 122.23)"/><use xlink:href="#a" transform="rotate(116.63 -41.474 133.28)"/><use xlink:href="#a" transform="rotate(63.151 -43.152 142.39)"/><use xlink:href="#a" transform="rotate(-72.759 -37.359 118.97)"/><use xlink:href="#a" transform="rotate(52.075 -46.659 147.84)"/><use xlink:href="#a" transform="rotate(256.8 -38.062 124.74)"/><use xlink:href="#a" transform="rotate(233.95 -39.95 127.28)"/><use xlink:href="#a" transform="rotate(-77.53 -37.486 123.5)"/><use xlink:href="#a" transform="rotate(5.806 -122.22 238.96)"/><use xlink:href="#a" transform="rotate(-51.229 -35.766 121.85)"/><use xlink:href="#a" transform="rotate(108.47 -47.718 134.01)"/><use xlink:href="#a" transform="rotate(268.08 -42.164 127.42)"/><use xlink:href="#a" transform="rotate(-10.684 -11.983 104.41)"/><use xlink:href="#a" transform="rotate(24.691 -60.088 138.35)"/><use xlink:href="#a" transform="rotate(256.73 -44.51 127.88)"/><use xlink:href="#a" transform="rotate(-1.784 117.89 -63.104)"/><use xlink:href="#a" transform="rotate(214.5 -43.466 129.29)"/><use xlink:href="#a" transform="rotate(238.47 -41.787 127.93)"/><use xlink:href="#a" transform="rotate(-81.275 -38.015 121.63)"/><use xlink:href="#a" transform="rotate(218.63 -41.655 128.68)"/><use xlink:href="#a" transform="rotate(48.894 -48.613 144.23)"/><use xlink:href="#a" transform="rotate(15.947 -54.855 181.28)"/><use xlink:href="#a" transform="rotate(61.123 -44.938 140.03)"/><use xlink:href="#a" transform="rotate(26.277 -51.931 158.48)"/><use xlink:href="#a" transform="rotate(60.554 -48.749 133.12)"/><use xlink:href="#a" transform="rotate(45.166 -46.569 139.45)"/><use xlink:href="#a" transform="rotate(-35.466 -35.092 113.19)"/><use xlink:href="#a" transform="rotate(1.278 -243.86 658.7)"/><use xlink:href="#a" transform="rotate(265.72 -41.599 124.25)"/><use xlink:href="#a" transform="rotate(-44.498 -38.628 120.82)"/><use xlink:href="#a" transform="rotate(171.07 -45.597 128.76)"/><use xlink:href="#a" transform="rotate(-44.596 -41.892 119.37)"/><use xlink:href="#a" transform="rotate(-15.637 -31.811 105.51)"/><use xlink:href="#a" transform="rotate(252.23 -43.106 126.34)"/><use xlink:href="#a" transform="rotate(181.54 -43.915 129.9)"/><use xlink:href="#a" transform="rotate(202.06 -43.577 128.31)"/><use xlink:href="#a" transform="rotate(23.787 -49.117 156.51)"/></g><g stroke="#557a27" stroke-linecap="round" stroke-width=".247"><path fill="#79a933" d="M-127.62 169.57c-4.263-2.354.763 20.742 2.481 21.505 1.464-5.663 1.273-25.45-2.481-21.505z" transform="matrix(-.6494 .47191 .47142 .65298 -118.107 17.64)"/><path fill="none" d="M-127.61 169.62c.064 4.9 2.443 19.455 2.443 21.363" transform="matrix(-.6494 .47191 .47142 .65298 -118.107 17.64)"/></g><g stroke="#557a27" stroke-linecap="round"><g stroke-width=".26"><path fill="#557a27" d="M-123.6 149.8c9.963-5.849 23.698-4.2 30.173-6.111 0 0-26.214-2.797-30.173 6.111z" transform="matrix(.49806 0 0 1.1722 71.971 -145.56)"/><path fill="#79a933" d="M-123.59 149.73c7.099-6.291 26.827-4.42 30.963-6.265-12.807-1.424-27.278-.457-30.963 6.265z" transform="matrix(.49806 0 0 1.1722 71.971 -145.56)"/></g><g stroke-width=".358"><path fill="#79a933" d="M-110.06 204.28c-10.123-8.503-19.255 7.828-34.282 7.243 7.243-2.024 24.789-19.975 34.282-7.243z" transform="matrix(-.49791 0 0 .61749 -42.968 -75.322)"/><path fill="none" d="M-114.79 200.47c-7.842-1.288-12.288 6.997-29.467 11.005" transform="matrix(-.49791 0 0 .61749 -42.968 -75.322)"/></g><g stroke-width=".247"><path fill="#79a933" d="M-127.62 169.57c-2.68-1.576-8.033 11.236-8.49 12.453 3.55-2.2 12.302-14.676 8.49-12.453z" transform="matrix(.74438 .30052 -.29918 .74773 157.127 -38.168)"/><path fill="none" d="M-127.61 169.62c-3.053 4.888-7.655 11.346-8.43 12.268" transform="matrix(.74438 .30052 -.29918 .74773 157.127 -38.168)"/></g><path fill="#79a933" d="M12.385 47.637c3.345-3.54.667 2.008-.737 3.258-3.117-4.948-4.039-5.873.737-3.258z"/><path fill="none" d="M12.347 47.649c.016 1.213.101 1.568-.65 3.152"/><path fill="#79a933" d="M7.964 26.366c-4.503-1.854.217 2.105 2.01 2.668.047-4.647-.51-5.614-2.01-2.668z"/><path fill="none" d="M8.004 26.361c.484 1.113.552 1.472 1.887 2.608"/><path fill="#79a933" d="M13.38 71.102c-1.497-2.083.905-5.993 9.27-10.783-1 7.056-8.673 13.518-9.27 10.783z"/><path fill="none" d="M13.366 71.075c.578-2.819 9.142-9.671 9.238-10.705"/><path fill="#79a933" d="M15.466 86.468c.44-2.527-3.427-5-13.043-5.666 3.974 5.916 13.697 8.388 13.043 5.666z"/><path fill="none" d="M15.466 86.438c-1.75-2.285-12.443-4.722-12.98-5.61"/><path fill="#79a933" d="M15.532 86.742c-1.496-2.083.906-5.993 9.27-10.783-.999 7.056-8.672 13.518-9.27 10.783z"/><path fill="none" d="M15.52 86.715c.577-2.819 9.14-9.671 9.237-10.705"/><path fill="#79a933" d="M9.964 21.57c-1.5.478 5.466 82.533 7.237 84.333l.897.07C11.545 60.741 11.25 21.744 9.964 21.57z"/><g fill="#79a933" stroke-width=".227"><path d="M-16.911 85.907c-3.945-2.354-14.634 4.136-19.915 17.115 6.68-1.209 20.551-15.015 19.915-17.115z" transform="matrix(.75197 0 0 1.0154 28.214 -.143)"/><path d="M-16.972 85.955c-3.96.18-18.761 16.601-19.75 16.916" transform="matrix(.75197 0 0 1.0154 28.213 -.143)"/></g><g stroke-width=".221"><path fill="#79a933" d="M-115.52 195.8c-10.123-8.503-19.255 7.828-34.282 7.243 7.243-2.024 24.789-19.975 34.282-7.243z" transform="rotate(9.8 685.151 -309.832)scale(-.80293 1)"/><path fill="none" d="M-120.11 192.06c-7.842-1.288-12.263 6.987-29.442 10.995" transform="rotate(9.8 685.151 -309.832)scale(-.80293 1)"/></g><g stroke-width=".237"><path fill="#557a27" d="M-125.89 147.59c6.658-7.963 23.806-2.74 27.316-4.35 0 0-23.357-4.558-27.316 4.35z" transform="matrix(.69981 0 0 1 102.008 -75.184)"/><path fill="#79a933" d="M-125.9 147.69c6.172-10.053 23.287-2.64 27.422-4.485 0 0-14.99-4.525-22.841-.541-1.44.73-1.972.827-4.581 5.026z" transform="matrix(.69981 0 0 1 102.008 -75.184)"/></g><g stroke-width=".221"><path fill="#79a933" d="M-115.52 195.8c-5.457-2.228-13.395 4.163-17.55-1.699 7.243-2.024 12.223-3.752 17.55 1.699z" transform="rotate(26.603 222.003 359.376)scale(.80293 1)"/><path fill="none" d="M-115.99 195.38c-6.568-3.224-14.163.983-17.039-1.312" transform="rotate(26.603 222.003 359.376)scale(.80293 1)"/></g><path fill="#79a933" d="M13.253 71.514c-2.355-1.018-5.663 2.163-8.558 11.357 6.68-2.482 11.357-11.357 8.558-11.357z"/><path fill="none" d="M13.223 71.507c-2.63 1.166-7.499 10.994-8.488 11.309"/><g stroke-width=".247"><path fill="#79a933" d="M-127.62 169.57c-4.263-2.354.763 20.742 2.481 21.505 1.464-5.663 1.273-25.45-2.481-21.505z" transform="matrix(-.74438 .30052 .29918 .74773 -133.663 -37.95)"/><path fill="none" d="M-127.61 169.62c.064 4.9 2.443 19.455 2.443 21.363" transform="matrix(-.74438 .30052 .29918 .74773 -133.663 -37.95)"/></g><path fill="#79a933" d="M10.666 29.8c-3.329.023 3.966 6.437 5.758 7.005.825-5.79-4.378-10.444-5.758-7.006z"/><path fill="none" d="M10.635 29.793c.638.128 5.54 5.078 5.752 6.975"/><g stroke-width=".156"><path fill="#79a933" d="M-127.62 169.57c-3.09-1.456 1.1 5.843 2.818 6.606 1.464-5.662-.17-9.104-2.818-6.606z" transform="matrix(-1.1855 -.29764 -.90618 1.1405 12.207 -201.91)"/><path fill="none" d="M-127.65 169.56c.62.199 2.816 4.672 2.816 6.58" transform="matrix(-1.1855 -.29764 -.90618 1.1405 12.207 -201.91)"/></g></g><g fill="#79a933" stroke="#557a27" stroke-linecap="round"><path d="M7.942 15.009c-.79 5.983 1.26 5.672 2.159 6.752 0 0-4.263.08-2.159-6.752z"/><path d="M6.418 16.649c.886 6.054 2.85 4.07 3.75 5.15 0 0-4.141 1.111-3.75-5.15z"/><path d="M14.867 17.757c-1.787 5.604-3.975 2.968-4.875 4.047 0 0 5.04 1.675 4.875-4.047z"/></g><g transform="translate(46.95 -119.64)"><path fill="#f58aaf" stroke="#690526" stroke-linecap="round" d="M-39.602 127.17c-1.26 0-2.383.687-2.801 1.714a2 2 0 0 0-.123-.004c-1.193 0-2.16 1.077-2.16 2.407q0 .162.02.323c-.775.247-1.28.83-1.28 1.476 0 .882.927 1.597 2.07 1.597.493 0 .97-.135 1.344-.383q-.04.18-.04.36c0 1.032.947 1.868 2.115 1.868.458 0 .904-.132 1.27-.375.496.158 1.038.24 1.587.24 1.364 0 2.618-.504 3.266-1.311a2.8 2.8 0 0 0 1.323.321c1.23 0 2.227-.735 2.227-1.642 0-.568-.398-1.095-1.052-1.395.359-.413.557-.95.557-1.507 0-1.242-.967-2.25-2.16-2.25-.296 0-.589.064-.86.187a2.19 2.19 0 0 0-2.74-.357c-.534-.786-1.509-1.269-2.563-1.269z"/><use xlink:href="#a" transform="rotate(-48.699 -43.419 119.16)"/><use xlink:href="#a" transform="rotate(-13.365 -41.295 87.676)"/><use xlink:href="#a" transform="rotate(73.134 -44.285 135.44)"/><use xlink:href="#a" transform="rotate(-51.371 -40.624 115.07)"/><use xlink:href="#a" transform="rotate(264.21 -40.547 122.23)"/><use xlink:href="#a" transform="rotate(116.63 -41.474 133.28)"/><use xlink:href="#a" transform="rotate(63.151 -43.152 142.39)"/><use xlink:href="#a" transform="rotate(-72.759 -37.359 118.97)"/><use xlink:href="#a" transform="rotate(52.075 -46.659 147.84)"/><use xlink:href="#a" transform="rotate(256.8 -38.062 124.74)"/><use xlink:href="#a" transform="rotate(233.95 -39.95 127.28)"/><use xlink:href="#a" transform="rotate(-77.53 -37.486 123.5)"/><use xlink:href="#a" transform="rotate(5.806 -122.22 238.96)"/><use xlink:href="#a" transform="rotate(-51.229 -35.766 121.85)"/><use xlink:href="#a" transform="rotate(108.47 -47.718 134.01)"/><use xlink:href="#a" transform="rotate(268.08 -42.164 127.42)"/><use xlink:href="#a" transform="rotate(-10.684 -11.983 104.41)"/><use xlink:href="#a" transform="rotate(24.691 -60.088 138.35)"/><use xlink:href="#a" transform="rotate(256.73 -44.51 127.88)"/><use xlink:href="#a" transform="rotate(-1.784 117.89 -63.104)"/><use xlink:href="#a" transform="rotate(214.5 -43.466 129.29)"/><use xlink:href="#a" transform="rotate(238.47 -41.787 127.93)"/><use xlink:href="#a" transform="rotate(-81.275 -38.015 121.63)"/><use xlink:href="#a" transform="rotate(218.63 -41.655 128.68)"/><use xlink:href="#a" transform="rotate(48.894 -48.613 144.23)"/><use xlink:href="#a" transform="rotate(15.947 -54.855 181.28)"/><use xlink:href="#a" transform="rotate(61.123 -44.938 140.03)"/><use xlink:href="#a" transform="rotate(26.277 -51.931 158.48)"/><use xlink:href="#a" transform="rotate(60.554 -48.749 133.12)"/><use xlink:href="#a" transform="rotate(45.166 -46.569 139.45)"/><use xlink:href="#a" transform="rotate(-35.466 -35.092 113.19)"/><use xlink:href="#a" transform="rotate(1.278 -243.86 658.7)"/><use xlink:href="#a" transform="rotate(265.72 -41.599 124.25)"/><use xlink:href="#a" transform="rotate(-44.498 -38.628 120.82)"/><use xlink:href="#a" transform="rotate(171.07 -45.597 128.76)"/><use xlink:href="#a" transform="rotate(-44.596 -41.892 119.37)"/><use xlink:href="#a" transform="rotate(-15.637 -31.811 105.51)"/><use xlink:href="#a" transform="rotate(252.23 -43.106 126.34)"/><use xlink:href="#a" transform="rotate(181.54 -43.915 129.9)"/><use xlink:href="#a" transform="rotate(202.06 -43.577 128.31)"/><use xlink:href="#a" transform="rotate(23.787 -49.117 156.51)"/></g><g transform="rotate(166.608 -24.002 -55.834)scale(1 -1)"><path fill="#f58aaf" stroke="#690526" stroke-linecap="round" d="M-39.602 127.17c-1.26 0-2.383.687-2.801 1.714a2 2 0 0 0-.123-.004c-1.193 0-2.16 1.077-2.16 2.407q0 .162.02.323c-.775.247-1.28.83-1.28 1.476 0 .882.927 1.597 2.07 1.597.493 0 .97-.135 1.344-.383q-.04.18-.04.36c0 1.032.947 1.868 2.115 1.868.458 0 .904-.132 1.27-.375.496.158 1.038.24 1.587.24 1.364 0 2.618-.504 3.266-1.311a2.8 2.8 0 0 0 1.323.321c1.23 0 2.227-.735 2.227-1.642 0-.568-.398-1.095-1.052-1.395.359-.413.557-.95.557-1.507 0-1.242-.967-2.25-2.16-2.25-.296 0-.589.064-.86.187a2.19 2.19 0 0 0-2.74-.357c-.534-.786-1.509-1.269-2.563-1.269z"/><use xlink:href="#a" transform="rotate(-48.699 -43.419 119.16)"/><use xlink:href="#a" transform="rotate(-13.365 -41.295 87.676)"/><use xlink:href="#a" transform="rotate(73.134 -44.285 135.44)"/><use xlink:href="#a" transform="rotate(-51.371 -40.624 115.07)"/><use xlink:href="#a" transform="rotate(264.21 -40.547 122.23)"/><use xlink:href="#a" transform="rotate(116.63 -41.474 133.28)"/><use xlink:href="#a" transform="rotate(63.151 -43.152 142.39)"/><use xlink:href="#a" transform="rotate(-72.759 -37.359 118.97)"/><use xlink:href="#a" transform="rotate(52.075 -46.659 147.84)"/><use xlink:href="#a" transform="rotate(256.8 -38.062 124.74)"/><use xlink:href="#a" transform="rotate(233.95 -39.95 127.28)"/><use xlink:href="#a" transform="rotate(-77.53 -37.486 123.5)"/><use xlink:href="#a" transform="rotate(5.806 -122.22 238.96)"/><use xlink:href="#a" transform="rotate(-51.229 -35.766 121.85)"/><use xlink:href="#a" transform="rotate(108.47 -47.718 134.01)"/><use xlink:href="#a" transform="rotate(268.08 -42.164 127.42)"/><use xlink:href="#a" transform="rotate(-10.684 -11.983 104.41)"/><use xlink:href="#a" transform="rotate(24.691 -60.088 138.35)"/><use xlink:href="#a" transform="rotate(256.73 -44.51 127.88)"/><use xlink:href="#a" transform="rotate(-1.784 117.89 -63.104)"/><use xlink:href="#a" transform="rotate(214.5 -43.466 129.29)"/><use xlink:href="#a" transform="rotate(238.47 -41.787 127.93)"/><use xlink:href="#a" transform="rotate(-81.275 -38.015 121.63)"/><use xlink:href="#a" transform="rotate(218.63 -41.655 128.68)"/><use xlink:href="#a" transform="rotate(48.894 -48.613 144.23)"/><use xlink:href="#a" transform="rotate(15.947 -54.855 181.28)"/><use xlink:href="#a" transform="rotate(61.123 -44.938 140.03)"/><use xlink:href="#a" transform="rotate(26.277 -51.931 158.48)"/><use xlink:href="#a" transform="rotate(60.554 -48.749 133.12)"/><use xlink:href="#a" transform="rotate(45.166 -46.569 139.45)"/><use xlink:href="#a" transform="rotate(-35.466 -35.092 113.19)"/><use xlink:href="#a" transform="rotate(1.278 -243.86 658.7)"/><use xlink:href="#a" transform="rotate(265.72 -41.599 124.25)"/><use xlink:href="#a" transform="rotate(-44.498 -38.628 120.82)"/><use xlink:href="#a" transform="rotate(171.07 -45.597 128.76)"/><use xlink:href="#a" transform="rotate(-44.596 -41.892 119.37)"/><use xlink:href="#a" transform="rotate(-15.637 -31.811 105.51)"/><use xlink:href="#a" transform="rotate(252.23 -43.106 126.34)"/><use xlink:href="#a" transform="rotate(181.54 -43.915 129.9)"/><use xlink:href="#a" transform="rotate(202.06 -43.577 128.31)"/><use xlink:href="#a" transform="rotate(23.787 -49.117 156.51)"/></g><g transform="translate(52.73 -116.13)"><path fill="#f58aaf" stroke="#690526" stroke-linecap="round" d="M-39.602 127.17c-1.26 0-2.383.687-2.801 1.714a2 2 0 0 0-.123-.004c-1.193 0-2.16 1.077-2.16 2.407q0 .162.02.323c-.775.247-1.28.83-1.28 1.476 0 .882.927 1.597 2.07 1.597.493 0 .97-.135 1.344-.383q-.04.18-.04.36c0 1.032.947 1.868 2.115 1.868.458 0 .904-.132 1.27-.375.496.158 1.038.24 1.587.24 1.364 0 2.618-.504 3.266-1.311a2.8 2.8 0 0 0 1.323.321c1.23 0 2.227-.735 2.227-1.642 0-.568-.398-1.095-1.052-1.395.359-.413.557-.95.557-1.507 0-1.242-.967-2.25-2.16-2.25-.296 0-.589.064-.86.187a2.19 2.19 0 0 0-2.74-.357c-.534-.786-1.509-1.269-2.563-1.269z"/><use xlink:href="#a" transform="rotate(-48.699 -43.419 119.16)"/><use xlink:href="#a" transform="rotate(-13.365 -41.295 87.676)"/><use xlink:href="#a" transform="rotate(73.134 -44.285 135.44)"/><use xlink:href="#a" transform="rotate(-51.371 -40.624 115.07)"/><use xlink:href="#a" transform="rotate(264.21 -40.547 122.23)"/><use xlink:href="#a" transform="rotate(116.63 -41.474 133.28)"/><use xlink:href="#a" transform="rotate(63.151 -43.152 142.39)"/><use xlink:href="#a" transform="rotate(-72.759 -37.359 118.97)"/><use xlink:href="#a" transform="rotate(52.075 -46.659 147.84)"/><use xlink:href="#a" transform="rotate(256.8 -38.062 124.74)"/><use xlink:href="#a" transform="rotate(233.95 -39.95 127.28)"/><use xlink:href="#a" transform="rotate(-77.53 -37.486 123.5)"/><use xlink:href="#a" transform="rotate(5.806 -122.22 238.96)"/><use xlink:href="#a" transform="rotate(-51.229 -35.766 121.85)"/><use xlink:href="#a" transform="rotate(108.47 -47.718 134.01)"/><use xlink:href="#a" transform="rotate(268.08 -42.164 127.42)"/><use xlink:href="#a" transform="rotate(-10.684 -11.983 104.41)"/><use xlink:href="#a" transform="rotate(24.691 -60.088 138.35)"/><use xlink:href="#a" transform="rotate(256.73 -44.51 127.88)"/><use xlink:href="#a" transform="rotate(-1.784 117.89 -63.104)"/><use xlink:href="#a" transform="rotate(214.5 -43.466 129.29)"/><use xlink:href="#a" transform="rotate(238.47 -41.787 127.93)"/><use xlink:href="#a" transform="rotate(-81.275 -38.015 121.63)"/><use xlink:href="#a" transform="rotate(218.63 -41.655 128.68)"/><use xlink:href="#a" transform="rotate(48.894 -48.613 144.23)"/><use xlink:href="#a" transform="rotate(15.947 -54.855 181.28)"/><use xlink:href="#a" transform="rotate(61.123 -44.938 140.03)"/><use xlink:href="#a" transform="rotate(26.277 -51.931 158.48)"/><use xlink:href="#a" transform="rotate(60.554 -48.749 133.12)"/><use xlink:href="#a" transform="rotate(45.166 -46.569 139.45)"/><use xlink:href="#a" transform="rotate(-35.466 -35.092 113.19)"/><use xlink:href="#a" transform="rotate(1.278 -243.86 658.7)"/><use xlink:href="#a" transform="rotate(265.72 -41.599 124.25)"/><use xlink:href="#a" transform="rotate(-44.498 -38.628 120.82)"/><use xlink:href="#a" transform="rotate(171.07 -45.597 128.76)"/><use xlink:href="#a" transform="rotate(-44.596 -41.892 119.37)"/><use xlink:href="#a" transform="rotate(-15.637 -31.811 105.51)"/><use xlink:href="#a" transform="rotate(252.23 -43.106 126.34)"/><use xlink:href="#a" transform="rotate(181.54 -43.915 129.9)"/><use xlink:href="#a" transform="rotate(202.06 -43.577 128.31)"/><use xlink:href="#a" transform="rotate(23.787 -49.117 156.51)"/></g><g stroke="#557a27" stroke-linecap="round"><path fill="#79a933" d="M27.723 62.718c-3.345-3.54-.668 2.008.737 3.258 3.117-4.949 4.039-5.874-.737-3.258z"/><path fill="none" d="M27.76 62.73c-.015 1.213-.1 1.568.65 3.152"/><path fill="#79a933" d="M27.572 83.34c1.497-2.082-.905-5.993-9.269-10.783.999 7.056 8.672 13.519 9.27 10.784z"/><path fill="none" d="M27.586 83.314c-.578-2.82-9.141-9.672-9.238-10.707"/><path fill="#79a933" d="M25.477 6.268c-.473 10.055 3.104 7.963 4.004 9.043 0 0-6.299 1.035-4.004-9.043zM33.576 6.126c.473 10.055-3.104 7.963-4.004 9.043 0 0 6.299 1.035 4.004-9.043zM28.483 47.8c1.497-2.083-.905-5.994-9.27-10.784 1 7.056 8.673 13.519 9.27 10.784z"/><path fill="none" d="M28.496 47.773c-.578-2.82-9.14-9.672-9.237-10.707"/><path fill="#79a933" d="M28.875 26.684c-1.496-2.083.906-5.993 9.27-10.783-.999 7.056-8.672 13.518-9.27 10.783z"/><path fill="none" d="M28.862 26.657c.578-2.819 9.142-9.671 9.238-10.705"/><path fill="#557a27" d="M27.956 49.11C21.298 41.147 4.15 46.37.64 44.76c0 0 23.357-4.558 27.316 4.35z"/><path fill="#79a933" d="M27.967 49.21C21.795 39.157 4.68 46.57.545 44.724c0 0 14.99-4.525 22.84-.54 1.44.73 1.973.826 4.582 5.026z"/><path fill="#79a933" d="M29.509 15.27c-1.544.332-3.593 88.358-2.033 90.499l.883.183c-1.488-49.245 2.408-90.341 1.15-90.682z"/><g stroke-width=".221"><path fill="#79a933" d="M-110.06 204.28c-10.123-8.503-19.255 7.828-34.282 7.243 7.243-2.024 24.789-19.975 34.282-7.243z" transform="matrix(.80293 0 0 1 116.186 -139.31)"/><path fill="none" d="M-114.79 200.47c-7.842-1.288-12.288 6.997-29.467 11.005" transform="matrix(.80293 0 0 1 116.186 -139.31)"/></g><g stroke-width=".225"><path fill="#79a933" d="M-108.89 204.46c5.669-9.448 21.235 6.569 37.341 9.943-12.552 2.024-29.09-7.84-30.953-9.043s-2.97-3.24-6.389-.9z" transform="matrix(.77485 0 0 1 111.936 -139.95)"/><path fill="none" d="M-108.82 204.34c4.383-4.031 7.638 1.92 19.178 7.282" transform="matrix(.77485 0 0 1 111.936 -139.95)"/></g><g stroke-width=".221"><path fill="#79a933" d="M-110.06 204.28c-10.123-8.503-19.255 7.828-34.282 7.243 7.243-2.024 24.789-19.975 34.282-7.243z" transform="matrix(-.80293 0 0 1 -59.65 -175.92)"/><path fill="none" d="M-114.79 200.47c-7.842-1.288-12.288 6.997-29.467 11.005" transform="matrix(-.80293 0 0 1 -59.65 -175.92)"/></g><g stroke-width=".225"><path fill="#79a933" d="M-108.89 204.46c5.669-9.448 21.235 6.569 37.341 9.943-12.552 2.024-29.09-7.84-30.953-9.043s-2.97-3.24-6.389-.9z" transform="matrix(-.77485 0 0 1 -55.398 -176.57)"/><path fill="none" d="M-108.82 204.34c4.383-4.031 7.638 1.92 19.178 7.282" transform="matrix(-.77485 0 0 1 -55.398 -176.57)"/></g><g stroke-width=".221"><path fill="#79a933" d="M-115.52 195.8c-10.123-8.503-19.255 7.828-34.282 7.243 7.243-2.024 24.789-19.975 34.282-7.243z" transform="rotate(153.397 -61.279 -59.186)scale(.80293 -1)"/><path fill="none" d="M-120.11 192.06c-7.842-1.288-12.263 6.987-29.442 10.995" transform="rotate(153.397 -61.279 -59.186)scale(.80293 -1)"/></g><path fill="#79a933" d="M28.607 48.217c2.354-1.018 5.663 2.163 8.558 11.357-6.68-2.482-11.357-11.357-8.558-11.357z"/><path fill="none" d="M28.636 48.21c2.631 1.166 7.5 10.994 8.49 11.309"/><path fill="#79a933" d="M27.499 100.626c-1.703-2.995-14.135-3.936-26.217 1.047 6.04 2.176 25.446.395 26.217-1.047z"/><path fill="none" d="M27.469 100.617c-3.254-2.263-25.126 1.387-26.102 1.036"/><g stroke-width=".26"><path fill="#557a27" d="M-123.6 149.8c9.963-5.849 40.816.143 47.291-1.769 0 0-43.332-7.139-47.291 1.769z" transform="matrix(.49806 0 0 1.1722 89.317 -74.065)"/><path fill="#79a933" d="M-123.59 149.73c7.099-6.291 43.817-.023 47.953-1.868-12.807-1.425-44.013-6.808-47.953 1.868z" transform="matrix(.49806 0 0 1.1722 89.317 -74.065)"/></g><path fill="#79a933" d="M27.536 99.9c-4.262-2.354.669 5.218 2.386 5.981 1.464-5.662 1.368-9.925-2.386-5.98z"/><path fill="none" d="M27.506 99.89c.62.2 2.383 4.042 2.383 5.95"/><path fill="#79a933" d="M28.847 27.3c4.262-2.355-.669 5.217-2.386 5.98-1.464-5.662-1.368-9.925 2.386-5.98z"/><path fill="none" d="M28.877 27.29c-.62.198-2.383 4.041-2.383 5.95"/><g stroke-width=".221"><path fill="#79a933" d="M-110.06 204.28c-10.123-8.503-19.255 7.828-34.282 7.243 7.243-2.024 24.789-19.975 34.282-7.243z" transform="matrix(-.80293 0 0 1 -61.198 -119.36)"/><path fill="none" d="M-114.79 200.47c-7.842-1.288-12.288 6.997-29.467 11.005" transform="matrix(-.80293 0 0 1 -61.198 -119.36)"/></g><g stroke-width=".234"><path fill="#79a933" d="M-108.89 204.46c5.669-9.448 21.235 6.569 37.341 9.943-12.552 2.024-29.09-7.84-30.953-9.043s-2.97-3.24-6.389-.9z" transform="matrix(-.71933 0 0 1 -50.901 -120)"/><path fill="none" d="M-108.82 204.34c4.383-4.031 7.638 1.92 19.178 7.282" transform="matrix(-.71933 0 0 1 -50.901 -120)"/></g><path fill="#79a933" d="M27.596 83.955c-4.262-2.354.669 5.217 2.386 5.98 1.464-5.662 1.368-9.925-2.386-5.98z"/><path fill="none" d="M27.566 83.945c.62.198 2.383 4.041 2.383 5.95"/></g><g transform="matrix(1 0 0 -1 62.968 136.62)"><path fill="#f58aaf" stroke="#690526" stroke-linecap="round" d="M-39.602 127.17c-1.26 0-2.383.687-2.801 1.714a2 2 0 0 0-.123-.004c-1.193 0-2.16 1.077-2.16 2.407q0 .162.02.323c-.775.247-1.28.83-1.28 1.476 0 .882.927 1.597 2.07 1.597.493 0 .97-.135 1.344-.383q-.04.18-.04.36c0 1.032.947 1.868 2.115 1.868.458 0 .904-.132 1.27-.375.496.158 1.038.24 1.587.24 1.364 0 2.618-.504 3.266-1.311a2.8 2.8 0 0 0 1.323.321c1.23 0 2.227-.735 2.227-1.642 0-.568-.398-1.095-1.052-1.395.359-.413.557-.95.557-1.507 0-1.242-.967-2.25-2.16-2.25-.296 0-.589.064-.86.187a2.19 2.19 0 0 0-2.74-.357c-.534-.786-1.509-1.269-2.563-1.269z"/><use xlink:href="#a" transform="rotate(-48.699 -43.419 119.16)"/><use xlink:href="#a" transform="rotate(-13.365 -41.295 87.676)"/><use xlink:href="#a" transform="rotate(73.134 -44.285 135.44)"/><use xlink:href="#a" transform="rotate(-51.371 -40.624 115.07)"/><use xlink:href="#a" transform="rotate(264.21 -40.547 122.23)"/><use xlink:href="#a" transform="rotate(116.63 -41.474 133.28)"/><use xlink:href="#a" transform="rotate(63.151 -43.152 142.39)"/><use xlink:href="#a" transform="rotate(-72.759 -37.359 118.97)"/><use xlink:href="#a" transform="rotate(52.075 -46.659 147.84)"/><use xlink:href="#a" transform="rotate(256.8 -38.062 124.74)"/><use xlink:href="#a" transform="rotate(233.95 -39.95 127.28)"/><use xlink:href="#a" transform="rotate(-77.53 -37.486 123.5)"/><use xlink:href="#a" transform="rotate(5.806 -122.22 238.96)"/><use xlink:href="#a" transform="rotate(-51.229 -35.766 121.85)"/><use xlink:href="#a" transform="rotate(108.47 -47.718 134.01)"/><use xlink:href="#a" transform="rotate(268.08 -42.164 127.42)"/><use xlink:href="#a" transform="rotate(-10.684 -11.983 104.41)"/><use xlink:href="#a" transform="rotate(24.691 -60.088 138.35)"/><use xlink:href="#a" transform="rotate(256.73 -44.51 127.88)"/><use xlink:href="#a" transform="rotate(-1.784 117.89 -63.104)"/><use xlink:href="#a" transform="rotate(214.5 -43.466 129.29)"/><use xlink:href="#a" transform="rotate(238.47 -41.787 127.93)"/><use xlink:href="#a" transform="rotate(-81.275 -38.015 121.63)"/><use xlink:href="#a" transform="rotate(218.63 -41.655 128.68)"/><use xlink:href="#a" transform="rotate(48.894 -48.613 144.23)"/><use xlink:href="#a" transform="rotate(15.947 -54.855 181.28)"/><use xlink:href="#a" transform="rotate(61.123 -44.938 140.03)"/><use xlink:href="#a" transform="rotate(26.277 -51.931 158.48)"/><use xlink:href="#a" transform="rotate(60.554 -48.749 133.12)"/><use xlink:href="#a" transform="rotate(45.166 -46.569 139.45)"/><use xlink:href="#a" transform="rotate(-35.466 -35.092 113.19)"/><use xlink:href="#a" transform="rotate(1.278 -243.86 658.7)"/><use xlink:href="#a" transform="rotate(265.72 -41.599 124.25)"/><use xlink:href="#a" transform="rotate(-44.498 -38.628 120.82)"/><use xlink:href="#a" transform="rotate(171.07 -45.597 128.76)"/><use xlink:href="#a" transform="rotate(-44.596 -41.892 119.37)"/><use xlink:href="#a" transform="rotate(-15.637 -31.811 105.51)"/><use xlink:href="#a" transform="rotate(252.23 -43.106 126.34)"/><use xlink:href="#a" transform="rotate(181.54 -43.915 129.9)"/><use xlink:href="#a" transform="rotate(202.06 -43.577 128.31)"/><use xlink:href="#a" transform="rotate(23.787 -49.117 156.51)"/></g><g transform="translate(73.648 -126.92)"><path fill="#f58aaf" stroke="#690526" stroke-linecap="round" d="M-39.602 127.17c-1.26 0-2.383.687-2.801 1.714a2 2 0 0 0-.123-.004c-1.193 0-2.16 1.077-2.16 2.407q0 .162.02.323c-.775.247-1.28.83-1.28 1.476 0 .882.927 1.597 2.07 1.597.493 0 .97-.135 1.344-.383q-.04.18-.04.36c0 1.032.947 1.868 2.115 1.868.458 0 .904-.132 1.27-.375.496.158 1.038.24 1.587.24 1.364 0 2.618-.504 3.266-1.311a2.8 2.8 0 0 0 1.323.321c1.23 0 2.227-.735 2.227-1.642 0-.568-.398-1.095-1.052-1.395.359-.413.557-.95.557-1.507 0-1.242-.967-2.25-2.16-2.25-.296 0-.589.064-.86.187a2.19 2.19 0 0 0-2.74-.357c-.534-.786-1.509-1.269-2.563-1.269z"/><use xlink:href="#a" transform="rotate(-48.699 -43.419 119.16)"/><use xlink:href="#a" transform="rotate(-13.365 -41.295 87.676)"/><use xlink:href="#a" transform="rotate(73.134 -44.285 135.44)"/><use xlink:href="#a" transform="rotate(-51.371 -40.624 115.07)"/><use xlink:href="#a" transform="rotate(264.21 -40.547 122.23)"/><use xlink:href="#a" transform="rotate(116.63 -41.474 133.28)"/><use xlink:href="#a" transform="rotate(63.151 -43.152 142.39)"/><use xlink:href="#a" transform="rotate(-72.759 -37.359 118.97)"/><use xlink:href="#a" transform="rotate(52.075 -46.659 147.84)"/><use xlink:href="#a" transform="rotate(256.8 -38.062 124.74)"/><use xlink:href="#a" transform="rotate(233.95 -39.95 127.28)"/><use xlink:href="#a" transform="rotate(-77.53 -37.486 123.5)"/><use xlink:href="#a" transform="rotate(5.806 -122.22 238.96)"/><use xlink:href="#a" transform="rotate(-51.229 -35.766 121.85)"/><use xlink:href="#a" transform="rotate(108.47 -47.718 134.01)"/><use xlink:href="#a" transform="rotate(268.08 -42.164 127.42)"/><use xlink:href="#a" transform="rotate(-10.684 -11.983 104.41)"/><use xlink:href="#a" transform="rotate(24.691 -60.088 138.35)"/><use xlink:href="#a" transform="rotate(256.73 -44.51 127.88)"/><use xlink:href="#a" transform="rotate(-1.784 117.89 -63.104)"/><use xlink:href="#a" transform="rotate(214.5 -43.466 129.29)"/><use xlink:href="#a" transform="rotate(238.47 -41.787 127.93)"/><use xlink:href="#a" transform="rotate(-81.275 -38.015 121.63)"/><use xlink:href="#a" transform="rotate(218.63 -41.655 128.68)"/><use xlink:href="#a" transform="rotate(48.894 -48.613 144.23)"/><use xlink:href="#a" transform="rotate(15.947 -54.855 181.28)"/><use xlink:href="#a" transform="rotate(61.123 -44.938 140.03)"/><use xlink:href="#a" transform="rotate(26.277 -51.931 158.48)"/><use xlink:href="#a" transform="rotate(60.554 -48.749 133.12)"/><use xlink:href="#a" transform="rotate(45.166 -46.569 139.45)"/><use xlink:href="#a" transform="rotate(-35.466 -35.092 113.19)"/><use xlink:href="#a" transform="rotate(1.278 -243.86 658.7)"/><use xlink:href="#a" transform="rotate(265.72 -41.599 124.25)"/><use xlink:href="#a" transform="rotate(-44.498 -38.628 120.82)"/><use xlink:href="#a" transform="rotate(171.07 -45.597 128.76)"/><use xlink:href="#a" transform="rotate(-44.596 -41.892 119.37)"/><use xlink:href="#a" transform="rotate(-15.637 -31.811 105.51)"/><use xlink:href="#a" transform="rotate(252.23 -43.106 126.34)"/><use xlink:href="#a" transform="rotate(181.54 -43.915 129.9)"/><use xlink:href="#a" transform="rotate(202.06 -43.577 128.31)"/><use xlink:href="#a" transform="rotate(23.787 -49.117 156.51)"/></g><path fill="#79a933" stroke="#557a27" stroke-linecap="round" d="M22.064 11.818c1.786 5.604 6.584 2.45 7.484 3.53 0 0-7.65 2.192-7.484-3.53z"/><path fill="#79a933" stroke="#557a27" stroke-linecap="round" d="M34.247 11.306c-1.787 5.604-3.976 2.968-4.875 4.048 0 0 5.04 1.674 4.874-4.048z"/><g transform="translate(60.566 -121.35)"><path fill="#f58aaf" stroke="#690526" stroke-linecap="round" d="M-39.602 127.17c-1.26 0-2.383.687-2.801 1.714a2 2 0 0 0-.123-.004c-1.193 0-2.16 1.077-2.16 2.407q0 .162.02.323c-.775.247-1.28.83-1.28 1.476 0 .882.927 1.597 2.07 1.597.493 0 .97-.135 1.344-.383q-.04.18-.04.36c0 1.032.947 1.868 2.115 1.868.458 0 .904-.132 1.27-.375.496.158 1.038.24 1.587.24 1.364 0 2.618-.504 3.266-1.311a2.8 2.8 0 0 0 1.323.321c1.23 0 2.227-.735 2.227-1.642 0-.568-.398-1.095-1.052-1.395.359-.413.557-.95.557-1.507 0-1.242-.967-2.25-2.16-2.25-.296 0-.589.064-.86.187a2.19 2.19 0 0 0-2.74-.357c-.534-.786-1.509-1.269-2.563-1.269z"/><use xlink:href="#a" transform="rotate(-48.699 -43.419 119.16)"/><use xlink:href="#a" transform="rotate(-13.365 -41.295 87.676)"/><use xlink:href="#a" transform="rotate(73.134 -44.285 135.44)"/><use xlink:href="#a" transform="rotate(-51.371 -40.624 115.07)"/><use xlink:href="#a" transform="rotate(264.21 -40.547 122.23)"/><use xlink:href="#a" transform="rotate(116.63 -41.474 133.28)"/><use xlink:href="#a" transform="rotate(63.151 -43.152 142.39)"/><use xlink:href="#a" transform="rotate(-72.759 -37.359 118.97)"/><use xlink:href="#a" transform="rotate(52.075 -46.659 147.84)"/><use xlink:href="#a" transform="rotate(256.8 -38.062 124.74)"/><use xlink:href="#a" transform="rotate(233.95 -39.95 127.28)"/><use xlink:href="#a" transform="rotate(-77.53 -37.486 123.5)"/><use xlink:href="#a" transform="rotate(5.806 -122.22 238.96)"/><use xlink:href="#a" transform="rotate(-51.229 -35.766 121.85)"/><use xlink:href="#a" transform="rotate(108.47 -47.718 134.01)"/><use xlink:href="#a" transform="rotate(268.08 -42.164 127.42)"/><use xlink:href="#a" transform="rotate(-10.684 -11.983 104.41)"/><use xlink:href="#a" transform="rotate(24.691 -60.088 138.35)"/><use xlink:href="#a" transform="rotate(256.73 -44.51 127.88)"/><use xlink:href="#a" transform="rotate(-1.784 117.89 -63.104)"/><use xlink:href="#a" transform="rotate(214.5 -43.466 129.29)"/><use xlink:href="#a" transform="rotate(238.47 -41.787 127.93)"/><use xlink:href="#a" transform="rotate(-81.275 -38.015 121.63)"/><use xlink:href="#a" transform="rotate(218.63 -41.655 128.68)"/><use xlink:href="#a" transform="rotate(48.894 -48.613 144.23)"/><use xlink:href="#a" transform="rotate(15.947 -54.855 181.28)"/><use xlink:href="#a" transform="rotate(61.123 -44.938 140.03)"/><use xlink:href="#a" transform="rotate(26.277 -51.931 158.48)"/><use xlink:href="#a" transform="rotate(60.554 -48.749 133.12)"/><use xlink:href="#a" transform="rotate(45.166 -46.569 139.45)"/><use xlink:href="#a" transform="rotate(-35.466 -35.092 113.19)"/><use xlink:href="#a" transform="rotate(1.278 -243.86 658.7)"/><use xlink:href="#a" transform="rotate(265.72 -41.599 124.25)"/><use xlink:href="#a" transform="rotate(-44.498 -38.628 120.82)"/><use xlink:href="#a" transform="rotate(171.07 -45.597 128.76)"/><use xlink:href="#a" transform="rotate(-44.596 -41.892 119.37)"/><use xlink:href="#a" transform="rotate(-15.637 -31.811 105.51)"/><use xlink:href="#a" transform="rotate(252.23 -43.106 126.34)"/><use xlink:href="#a" transform="rotate(181.54 -43.915 129.9)"/><use xlink:href="#a" transform="rotate(202.06 -43.577 128.31)"/><use xlink:href="#a" transform="rotate(23.787 -49.117 156.51)"/></g><g transform="rotate(8.532 -953.095 420.9)scale(1 -1)"><path fill="#f58aaf" stroke="#690526" stroke-linecap="round" d="M-39.602 127.17c-1.26 0-2.383.687-2.801 1.714a2 2 0 0 0-.123-.004c-1.193 0-2.16 1.077-2.16 2.407q0 .162.02.323c-.775.247-1.28.83-1.28 1.476 0 .882.927 1.597 2.07 1.597.493 0 .97-.135 1.344-.383q-.04.18-.04.36c0 1.032.947 1.868 2.115 1.868.458 0 .904-.132 1.27-.375.496.158 1.038.24 1.587.24 1.364 0 2.618-.504 3.266-1.311a2.8 2.8 0 0 0 1.323.321c1.23 0 2.227-.735 2.227-1.642 0-.568-.398-1.095-1.052-1.395.359-.413.557-.95.557-1.507 0-1.242-.967-2.25-2.16-2.25-.296 0-.589.064-.86.187a2.19 2.19 0 0 0-2.74-.357c-.534-.786-1.509-1.269-2.563-1.269z"/><use xlink:href="#a" transform="rotate(-48.699 -43.419 119.16)"/><use xlink:href="#a" transform="rotate(-13.365 -41.295 87.676)"/><use xlink:href="#a" transform="rotate(73.134 -44.285 135.44)"/><use xlink:href="#a" transform="rotate(-51.371 -40.624 115.07)"/><use xlink:href="#a" transform="rotate(264.21 -40.547 122.23)"/><use xlink:href="#a" transform="rotate(116.63 -41.474 133.28)"/><use xlink:href="#a" transform="rotate(63.151 -43.152 142.39)"/><use xlink:href="#a" transform="rotate(-72.759 -37.359 118.97)"/><use xlink:href="#a" transform="rotate(52.075 -46.659 147.84)"/><use xlink:href="#a" transform="rotate(256.8 -38.062 124.74)"/><use xlink:href="#a" transform="rotate(233.95 -39.95 127.28)"/><use xlink:href="#a" transform="rotate(-77.53 -37.486 123.5)"/><use xlink:href="#a" transform="rotate(5.806 -122.22 238.96)"/><use xlink:href="#a" transform="rotate(-51.229 -35.766 121.85)"/><use xlink:href="#a" transform="rotate(108.47 -47.718 134.01)"/><use xlink:href="#a" transform="rotate(268.08 -42.164 127.42)"/><use xlink:href="#a" transform="rotate(-10.684 -11.983 104.41)"/><use xlink:href="#a" transform="rotate(24.691 -60.088 138.35)"/><use xlink:href="#a" transform="rotate(256.73 -44.51 127.88)"/><use xlink:href="#a" transform="rotate(-1.784 117.89 -63.104)"/><use xlink:href="#a" transform="rotate(214.5 -43.466 129.29)"/><use xlink:href="#a" transform="rotate(238.47 -41.787 127.93)"/><use xlink:href="#a" transform="rotate(-81.275 -38.015 121.63)"/><use xlink:href="#a" transform="rotate(218.63 -41.655 128.68)"/><use xlink:href="#a" transform="rotate(48.894 -48.613 144.23)"/><use xlink:href="#a" transform="rotate(15.947 -54.855 181.28)"/><use xlink:href="#a" transform="rotate(61.123 -44.938 140.03)"/><use xlink:href="#a" transform="rotate(26.277 -51.931 158.48)"/><use xlink:href="#a" transform="rotate(60.554 -48.749 133.12)"/><use xlink:href="#a" transform="rotate(45.166 -46.569 139.45)"/><use xlink:href="#a" transform="rotate(-35.466 -35.092 113.19)"/><use xlink:href="#a" transform="rotate(1.278 -243.86 658.7)"/><use xlink:href="#a" transform="rotate(265.72 -41.599 124.25)"/><use xlink:href="#a" transform="rotate(-44.498 -38.628 120.82)"/><use xlink:href="#a" transform="rotate(171.07 -45.597 128.76)"/><use xlink:href="#a" transform="rotate(-44.596 -41.892 119.37)"/><use xlink:href="#a" transform="rotate(-15.637 -31.811 105.51)"/><use xlink:href="#a" transform="rotate(252.23 -43.106 126.34)"/><use xlink:href="#a" transform="rotate(181.54 -43.915 129.9)"/><use xlink:href="#a" transform="rotate(202.06 -43.577 128.31)"/><use xlink:href="#a" transform="rotate(23.787 -49.117 156.51)"/></g><g stroke="#557a27" stroke-linecap="round"><path fill="#79a933" d="M27.342 64.201c-3.078-3.774-7.027 19.53-5.717 20.88 3.469-4.709 10.671-23.14 5.717-20.88z"/><path fill="none" d="M27.332 64.252c-1.768 4.569-4.988 18.962-5.7 20.732"/></g></g></svg>