<svg xmlns="http://www.w3.org/2000/svg" xml:space="preserve" width="151.114" height="300.086" viewBox="0 0 39.982 79.399"><defs><clipPath id="v"><path fill="#307712" stroke="#22540f" stroke-linecap="round" stroke-width=".2" d="M32.04-10.689h38.07v118.5H32.04z" transform="matrix(-.99676 -.0804 -.23879 .97107 0 0)"/></clipPath><clipPath id="u"><path fill="#307712" stroke="#22540f" stroke-linecap="round" stroke-width=".2" d="M-63.705-1.192h38.07v109.01h-38.07z" transform="matrix(.99676 .0804 -.23879 .97107 0 0)"/></clipPath><clipPath id="t"><path fill="#307712" stroke="#22540f" stroke-linecap="round" stroke-width=".2" d="M32.04-10.689h38.07v118.5H32.04z" transform="matrix(-.99676 -.0804 -.23879 .97107 0 0)"/></clipPath><clipPath id="s"><path fill="#307712" stroke="#22540f" stroke-linecap="round" stroke-width=".198" d="m-90.077 25.288 47.425 7.209-11.945 78.588-47.425-7.209z"/></clipPath><clipPath id="r"><path fill="#307712" stroke="#22540f" stroke-linecap="round" stroke-width=".198" d="M-46.962-49.25-1.175-34.94l-45.338 145.08L-92.3 95.833z"/></clipPath><clipPath id="q"><path fill="#307712" stroke="#22540f" stroke-linecap="round" stroke-width=".198" d="M-11.919-4.925h47.97v79.491h-47.97z"/></clipPath><clipPath id="p"><path fill="#307712" stroke="#22540f" stroke-linecap="round" stroke-width=".198" d="M-29.398 34.3-73.69 15.88l-30.525 73.396 44.292 18.421z"/></clipPath><clipPath id="o"><path fill="#307712" stroke="#22540f" stroke-linecap="round" stroke-width=".198" d="M-11.919-4.925h47.97v79.491h-47.97z"/></clipPath><clipPath id="n"><path fill="#307712" stroke="#22540f" stroke-linecap="round" stroke-width=".198" d="M-11.919-4.925h47.97v79.491h-47.97z"/></clipPath><clipPath id="m"><path fill="#307712" stroke="#22540f" stroke-linecap="round" stroke-width=".198" d="M-11.919-4.925h47.97v79.491h-47.97z"/></clipPath><clipPath id="l"><path fill="#307712" stroke="#22540f" stroke-linecap="round" stroke-width=".198" d="M-11.919-4.925h47.97v79.491h-47.97z"/></clipPath><clipPath id="k"><path fill="#307712" stroke="#22540f" stroke-linecap="round" stroke-width=".198" d="M-11.919-4.925h47.97v79.491h-47.97z"/></clipPath><clipPath id="j"><path fill="#307712" stroke="#22540f" stroke-linecap="round" stroke-width=".198" d="M-11.919-4.925h47.97v79.491h-47.97z"/></clipPath><clipPath id="i"><path fill="#307712" stroke="#22540f" stroke-linecap="round" stroke-width=".198" d="M-11.919-4.925h47.97v79.491h-47.97z"/></clipPath><clipPath id="h"><path fill="#307712" stroke="#22540f" stroke-linecap="round" stroke-width=".198" d="M-11.919-4.925h47.97v79.491h-47.97z"/></clipPath><clipPath id="g"><path fill="#307712" stroke="#22540f" stroke-linecap="round" stroke-width=".198" d="M-11.919-4.925h47.97v79.491h-47.97z"/></clipPath><clipPath id="f"><path fill="#307712" stroke="#22540f" stroke-linecap="round" stroke-width=".198" d="M-11.919-4.925h47.97v79.491h-47.97z"/></clipPath><clipPath id="e"><path fill="#307712" stroke="#22540f" stroke-linecap="round" stroke-width=".198" d="M-11.919-4.925h47.97v79.491h-47.97z"/></clipPath><clipPath id="d"><path fill="#307712" stroke="#22540f" stroke-linecap="round" stroke-width=".198" d="m-79.726 38.628 44.945 18.693-30.525 73.396-44.945-18.692z"/></clipPath><clipPath id="c"><path fill="#307712" stroke="#22540f" stroke-linecap="round" stroke-width=".198" d="M-11.919-4.925h47.97v79.491h-47.97z"/></clipPath><clipPath id="b"><path fill="#307712" stroke="#22540f" stroke-linecap="round" stroke-width=".198" d="M-11.919-4.925h47.97v79.491h-47.97z"/></clipPath><clipPath id="a"><path fill="#307712" stroke="#22540f" stroke-linecap="round" stroke-width=".198" d="M-11.919-4.925h47.97v79.491h-47.97z"/></clipPath></defs><path fill="#307712" stroke="#22540f" stroke-linecap="round" stroke-width=".198" d="M10.154 79.266 8.085 63.063l2.955 4.481.32-4.235 1.49 4.137 2.715-3.683 10.307.806.94 4.373 1.028 1.099s1.558-6.199 2.811-6.791c.871.418 1.419.453 1.419.453L30.352 79.28z"/><path fill="#307712" stroke="#22540f" stroke-linecap="round" stroke-width=".198" d="M23.123 1.153c-1.036 1.763-1.728 11.702-2.19 23.917C15.678 5.544 5.29 6.251 4.493 6.75c8.394.709 13.09 8.909 15.659 19.174a3.2 3.2 0 0 0-1.316.71l-.053.02a2 2 0 0 0-.188.227c-1.49-4.313-3.383-7.159-5.253-9.022-.353-3.508-.774-5.926-1.275-6.672.212.907.41 3.048.593 6.035-3.31-2.905-6.383-2.878-6.824-2.658 2.755.5 5.024 1.786 6.884 3.664.172 3.04.33 6.822.476 11.001-1.432-1.486-2.852-2.575-4.198-3.366-.568-3.15-1.13-5.152-1.654-5.36.248.62.562 2.39.915 4.95C4.058 23.27.733 23.936.334 24.216c3.008-.126 5.672.614 8.028 1.999.422 3.169.896 7.37 1.38 12.028l-.203-.273c-1.022-4.975-2.063-8.68-2.981-9.383.456.92 1.12 3.98 1.862 8.085-1.31-1.306-2.273-1.498-2.598-1.13 1.014.509 1.96 1.37 2.84 2.495.299 1.7.608 3.542.918 5.461-.87.938-1.918 2.364-3.156 4.51-2.92-3.25-5.771-1.858-6.048-1.533 2.36-.685 4.26.169 5.792 1.983a69 69 0 0 0-2.082 4.034C2.38 50.104.898 49.585.426 49.948c1.271.658 2.365 1.81 3.307 3.291q-.426.909-.874 1.915.528-.882 1.017-1.685c1.012 1.652 1.844 3.684 2.53 5.878q-.7.686-1.434 1.45C2.93 58.244 1.021 57.722.47 58.034c1.437.934 2.659 2.178 3.697 3.616a80 80 0 0 0-1.383 1.529q.752-.73 1.475-1.4c3.704 5.227 5.024 12.917 5.422 17.481 0 0 .9.065.988-.028l-.03-.326.009.001c-.279-4.357-.74-8.047-1.302-11.252.978 4.978 2.358 11.699 2.358 11.699l.816-.358c0 .024.012.23.013.249 0 0 .347-.149.395-.152-.22-10.301-1.186-17.469-2.494-22.431q.525-.378 1.025-.72a2849 2849 0 0 1 2.056 23.488l.746-.71.004.342.915.097s-.005-2.66-.04-6.93c.425 3.971.699 6.803.699 6.803l.842-.34s-.632-8.3-1.648-16.346c-.037-2.67-.083-5.534-.14-8.492l.232-.12c.315 1.21.608 2.414.879 3.589-.068 5.525.115 11.73.609 18.7.047-.013.253-.013.44-.01q-.024 1.463-.032 2.98l.021-.002c.13-.007.642.05.644.05 0-.873-.034-5.352.365-11.44q.027 1 .062 2.023c.039-.01.178-.007.328 0q.023.116.045.215l.243-.079q.09.915.177 1.758c-.52 3.94-.994 6.648-1.114 7.342.002 0 .69.043.78.078q.36-2.15.672-4.208c.277 2.561.464 4.107.464 4.107l.302-.083v.124l.914-.111s.084-7.66.247-18.184c.687 2.259 1.24 4.201 1.595 5.425-.104 1.887-.203 3.158-.236 3.605 0 0 .135-.005.294-.007q-.055.912-.1 1.856c-.712 4.228-1.457 7.433-1.457 7.433l.668.095s.265-1.146.633-2.97q-.031 1.49-.04 3.046c.066-.013.538.039.54.04 0-.565-.018-2.984.138-6.44.22-1.229.445-2.57.653-3.963l.01.083c-.11 6.017-.122 10.33-.122 10.33l.915-.067s.027-1.506.08-3.98q.309 2.03.664 4.149c.09-.036.777-.078.779-.078-.032-.187-.09-.518-.167-.979l.236.054v.062l.303-.027-.06.548.803.695s2.693-22.227 4.946-37.325c.41-.956.849-1.84 1.32-2.632a117 117 0 0 1 3.402 5.615c-2.555 3.214-6.151 11.735-7.447 30.706-.333 1.959-.527 3.208-.527 3.208l.82.359.093-.516c.176.037.324.071.325.071.077-.66.172-1.883.309-3.492 1.347-7.164 4.206-21.729 5.444-23.152-1.292.235-2.806 5.476-4.095 11.256 1.024-6.718 2.686-13.871 5.462-17.763q.738 1.309 1.507 2.737a162 162 0 0 0-1.377-2.915h0c.635-.858 1.328-1.545 2.084-2.02-.354-.33-1.273-.06-2.429 1.314a114 114 0 0 0-3.179-6.037c.781-1.187 1.645-2.131 2.601-2.763-.44-.42-1.618-.014-3.061 1.963q-.248-.428-.494-.836l.052-.317c1.64-1.695 3.548-2.909 5.77-3.452-.296-.219-2.717-.182-5.608 2.463.632-3.792 1.178-6.49 1.546-7.234-.7.22-1.533 3.15-2.396 7.495-1.394-2.243-2.677-4.025-3.852-5.434q.06-1.102.122-2.106c2.31-2.91 5.11-4.996 8.497-5.822-.363-.269-3.324-.225-6.867 2.983-.506.459-1.024.982-1.548 1.578.198-2.886.414-4.96.647-5.79-.563.699-1.025 3.162-1.404 6.697q-.375.473-.75 1a20 20 0 0 0-1.225-1.176c2.141-6.983 5.894-12.174 12.154-13.312-.727-.364-8.59-.2-12.89 12.703-.894-.691-1.694-1.134-2.403-1.4.701-2.43 1.518-4.738 2.47-6.85 2.559-3.498 5.861-5.78 10.113-6.138-.484-.303-4.494-.682-8.748 3.422 2.963-5.282 7.011-8.829 12.533-9.092-.69-.468-8.903-1.375-14.915 11.882a28 28 0 0 0-2.354 4.002c.32-11.04.714-19.965 1.175-22.22zm-9.67 17.871c2.015 2.342 3.501 5.434 4.575 8.982-.514 1.41-.83 3.585-.998 6.257a31 31 0 0 0-2.853-3.952c-.2-4.258-.438-8.138-.724-11.287zm8.762 5.866a61 61 0 0 0-.303.99l-.036-.006.006-.178q.163-.408.333-.806zm-2.373 1.687q.219.002.479.038l.089.378a49 49 0 0 0-.936 2.797 42 42 0 0 0-.585-2.019c.166-.465.351-.86.556-1.177q.178-.02.397-.017zm-10.696.13c1.487.993 2.847 2.246 4.09 3.701.125 3.745.239 7.774.342 11.853a2.5 2.5 0 0 0-.57-.285c-.144-.09-.506-.28-1.115-.123a31 31 0 0 0-.98-1.81c-.571-5.141-1.171-9.835-1.767-13.335zm13.362.665c.677.357 1.446.861 2.309 1.566-.663 2.265-1.22 4.884-1.624 7.912l-.08.196a92 92 0 0 0-1.148-7.523q.258-1.088.543-2.15zm-1.715 1.362.008.04-.05 1.588a85 85 0 0 0-.55 2.626q-.128-.66-.266-1.288.396-1.519.858-2.966zm-2.36.703q.283 1.07.522 2.183a68 68 0 0 0-.985 4.26q-.105-.194-.214-.383c.118-2.37.334-4.44.678-6.06zm7.144.153q.43.386.89.839a34 34 0 0 0-1.767 3.094c.248-1.353.539-2.669.877-3.933zm2.242.19-.018.185-.064-.07q.041-.059.082-.115zm-.805 1.203q.315.326.64.684c-.348 4.305-.61 9.57-.806 14.99a54 54 0 0 0-1.415 4.694c.358-9.18.836-17.52 1.427-19.263-1.37 1.409-2.138 11.46-2.568 21.91a8 8 0 0 0-.088-.298q-.133-.61-.27-1.202a159 159 0 0 0-.303-9.516c.124-2.25.325-4.474.62-6.627.815-1.93 1.732-3.74 2.763-5.371zm-12.776.673a34.4 34.4 0 0 1 2.71 4.239c-.08 2.05-.087 4.331-.04 6.741q-.207 1.705-.37 3.542c-.626-1.183-1.26-2.19-1.891-2.93a736 736 0 0 0-.41-11.592zm14.188.882c1.096 1.275 2.288 2.814 3.58 4.67-1.346 1.533-2.74 3.66-4.03 6.594.134-4.035.284-7.904.45-11.264zm-6.747 1.21c.263 1.775.48 3.57.659 5.361q-.425 1.202-.83 2.523c.054-2.633.11-5.276.171-7.884zm-2.282.172q.163.952.299 1.925-.21 1.29-.397 2.656a47 47 0 0 0-.584-1.204q.309-1.715.682-3.377zm-1.71 3.388.01.019-.012.067q0-.044.003-.086zM32 38.156a216 216 0 0 0-.678 3.89c-1.28 2.925-2.586 7.097-3.671 12.907.079-3.076.167-6.237.266-9.332 1.095-2.843 2.437-5.41 4.083-7.465zm.823.252.231.346q-.188.291-.382.618zm-14.379.482q.32.701.623 1.419a146 146 0 0 0-.823 9.542q-.192-.461-.387-.909a223 223 0 0 1-.158-4.479c.202-1.867.448-3.733.745-5.573zm1.69.813q.037.42.07.844l-.138-.328zm2.385 1.374q.068.817.128 1.63a100 100 0 0 0-.153 4.32q-.436-1.457-.896-2.796.428-1.602.921-3.154zm-2.692 1.12q.295.77.573 1.552l.008.182-.037 1.866A93 93 0 0 0 19.2 51.4l-.14.023c.163-2.937.408-6.057.767-9.226zm-7.592.165c.438-.022.895.204 1.363.629l.07 2.911a48 48 0 0 0-1.505-3.503zm-.762.521c.834 1.841 1.587 3.89 2.264 6.016.034 1.54.067 3.067.098 4.572l-.15.088c-.606-3.104-1.276-5.4-1.983-5.975-.15-1.512-.303-3.017-.46-4.498q.122-.11.23-.203zm3.203 1.399c.583.851 1.173 1.943 1.755 3.188q-.181 2.314-.29 4.836l-.322.14q-.507-1.8-1.024-3.371c-.036-1.59-.076-3.193-.119-4.793zm-4.9.418a911 911 0 0 1 1.591 10.393q-.55.401-1.126.856c-.98-3.473-2.134-5.79-3.299-7.314 1.17-1.756 2.094-3.02 2.833-3.934zm11.714 2.356a91 91 0 0 1 1.008 3.566q.008.487.02.983a5 5 0 0 0-1.056-.254q.052-2.235.028-4.295zm9.024.139c-1.295 8.63-2.492 18.378-3.236 24.738.037-2.008.084-4.403.14-7.044.609-5.7 1.557-12.222 3.096-17.694zm-18.761.907c.35 1.094.748 3.249 1.155 5.935q-.276.176-.558.366c-.19-2.08-.39-4.196-.597-6.301zm15.016.88c-.16 4.873-.27 9.782-.346 14.151a157 157 0 0 0-.255 2.302c-.294-2.38-.625-4.624-.99-6.742.04-1.295.084-2.602.13-3.908.408-1.967.89-3.922 1.46-5.804zm-20.12.094c1.316 1.822 2.336 4.38 3.128 7.245q-.779.634-1.606 1.375c-.891-3.08-1.81-5.28-2.636-5.431.465.535 1.16 2.928 1.917 6.087l-.338.316c-.916-2.609-1.896-4.518-2.82-5.878a145 145 0 0 1 2.356-3.714zm13.65.745-.024 1.475a8 8 0 0 0-.262.013q.138-.744.287-1.488zm-3.1.5q.041.775.087 1.552l-.182.062q.043-.803.095-1.614zm.764.775q.098.25.194.506v.014l-.163.043zm4.236.608q.175.141.33.32c.07 2.608.222 5.395.467 8.375a204 204 0 0 1-.114 3.274 174 174 0 0 0-1.67-5.574l.024-1.482q.154-2.556.217-4.91c.29-.016.54-.014.746-.003zm-1.932.148q-.027 1.647-.049 3.244-.283-.822-.58-1.643.126-.764.263-1.529.189-.04.366-.072zm-2.145.575q-.018.438-.033.881-.027-.425-.05-.852zm-.785.292c.166 2.72.365 5.437.577 8.035l-.034.342a131 131 0 0 0-.962-4.401c.032-1.26.077-2.552.14-3.863zm-2.462.066.027.102-.025.012zm1.229.468-.008.198-.046-.173zm-2.25 1.18.001.025-.004-.023zm-.815.486c.325 2.22.653 4.74.964 7.294.032 1.757.06 3.432.087 4.995a706 706 0 0 0-1.63-11.925q.294-.187.58-.363zm6.35.11c.275.807.542 1.613.798 2.405l-.019 1.456a193 193 0 0 1-.878 9.546 495 495 0 0 1-.53-5.888c0-.926.005-1.921.02-2.976.174-1.485.375-3.005.608-4.543zm4.515 1.704.027.135q.053.76.065 1.581-.082.522-.16 1.057.043-1.41.068-2.773zm-13.942.276c2.336 8.992 2.531 20.38 2.558 21.953-.009-.058-1.993-12.834-4.188-20.7q.84-.67 1.63-1.253zm-2.386 1.865c.725 3.074.897 4.402 1.576 7.816-.557-2.94-1.188-5.514-1.88-7.564zm-1.044.878c.691 2.283 1.23 4.726 1.654 7.086-.938-2.595-2.013-4.492-3.061-5.849q.718-.648 1.407-1.237zm10.327 1.51c.262 1.28.494 2.48.697 3.564-.176 2.35-.312 4.829-.403 7.445a203 203 0 0 1-.294-11.008zm8.18 1.97c.343 2.28.594 4.334.775 6.033a205 205 0 0 0-.359 5.288 203 203 0 0 1-.597-4.437c.05-2.084.111-4.42.182-6.885zm-4.972 5.612a2162 2162 0 0 0-.043 6.713c-.11-.991-.239-2.192-.38-3.557q.227-1.608.423-3.156zm-5.899 3.27c.035 2.26.06 4.07.077 5.276-.083-1.123-.22-2.945-.4-5.262z"/><g fill="#67921f" stroke="#4f7118" stroke-linecap="round" stroke-width=".198"><path d="M3.116 74.614C3.875 72.32 16.35 36.54-8.572 29.651c1.429-.366 25.89 3.831 12.573 45.037-.102-.026-.885-.074-.885-.074z" clip-path="url(#a)" transform="translate(9.02 4.553)"/><path d="M5.35 70.681c.6-2.24 10.47-37.14-10.445-44.885 1.187-.308 21.676 4.758 11.186 44.991-.086-.03-.74-.107-.74-.107z" clip-path="url(#b)" transform="translate(9.02 4.553)"/><path d="M20.333 73.599c-.996-3.656-17.18-60.646 7.43-72.595C26.277.467 1.87 8.078 19.443 73.75c.1-.045.89-.151.89-.151z" clip-path="url(#c)" transform="translate(9.02 4.553)"/></g><g stroke="#4f7118" stroke-linecap="round"><g stroke-width=".2" clip-path="url(#d)" transform="matrix(.90992 -.38401 .37843 .92333 55.029 -66.654)"><path fill="#67921f" d="M-75.443 73.478c4.772 2.609-.924 27.254-.924 27.254l-.669-.095s5.561-23.934.812-27.28c.764.057.012-.023.781.122z"/><path fill="#74a423" d="M-95.519 84.921c13.934-13.52 20.201-11.357 20.201-11.357s-6.426-4.263-20.201 11.357z"/></g><path fill="#67921f" stroke-width=".198" d="M8.73 74.3c.522-3.23 9.294-53.662-16.628-60.739 1.404-.641 26.572 2.776 17.532 60.756-.106-.026-.903-.017-.903-.017z" clip-path="url(#e)" transform="translate(9.02 4.553)"/><path fill="#67921f" stroke-width=".198" d="M17.758 74.461c-.146-2.096-2.806-34.94 12.916-34.388-.8-.664-15.891-3.335-13.452 34.227.064.004.536.161.536.161z" clip-path="url(#f)" transform="translate(9.02 4.553)"/></g><g fill="#e9fc95" stroke="#b1d47a" stroke-linecap="round" stroke-width=".485"><path d="M-35.939 25.126c.261-.343-.156 4.908.257 4.784s-2.832-4.274-2.425-4.132-4.716 1.369-4.47 1.723c.245.354 3.189-4.014 3.18-3.583-.01.43-2.76-4.062-3.02-3.72-.261.344 4.803 1.793 4.39 1.918-.413.124 3.01-3.88 2.604-4.022-.407-.142-.22 5.122-.466 4.768s4.619 1.665 4.629 1.234c.009-.43-4.94 1.373-4.679 1.03z" transform="rotate(-46.676 21.025 -23.38)scale(.40937 .40914)"/><path d="M-35.939 25.126c.261-.343-.156 4.908.257 4.784s-2.832-4.274-2.425-4.132-4.716 1.369-4.47 1.723c.245.354 3.189-4.014 3.18-3.583-.01.43-2.76-4.062-3.02-3.72-.261.344 4.803 1.793 4.39 1.918-.413.124 3.01-3.88 2.604-4.022-.407-.142-.22 5.122-.466 4.768s4.619 1.665 4.629 1.234c.009-.43-4.94 1.373-4.679 1.03z" transform="matrix(.40132 -.08039 .08016 .40129 33.355 13.147)"/></g><g fill="#67921f" stroke="#4f7118" stroke-linecap="round" stroke-width=".198"><path d="M13.005 74.22c-.77-2.294-13.43-38.074 11.86-44.963-1.45-.366-26.272 3.831-12.759 45.037.104-.026.898-.074.898-.074z" clip-path="url(#g)" transform="translate(9.02 4.553)"/><path d="M12.234 74.578c.481-3.66 9.276-60.915-20.932-66.591.976-.64 29.963.96 21.542 66.671-.07-.036-.61-.08-.61-.08z" clip-path="url(#h)" transform="translate(9.02 4.553)"/><path d="M8.908 74.606C8.198 70.518-3.51 6.73 21.955-4.255c-1.44-.714-26.364 5.537-13.947 78.95.104-.04.9-.09.9-.09z" clip-path="url(#i)" transform="matrix(1 0 0 1.0019 9.02 4.413)"/></g><path fill="#74a423" stroke="#4f7118" stroke-linecap="round" stroke-width=".198" d="M24.874 6.312c-3.201 4.297-6.612 68.319-6.612 68.319l.918-.047s3.955-62.213 5.694-68.272z" clip-path="url(#j)" transform="translate(9.02 4.553)"/><g fill="#e9fc95" stroke="#b1d47a" stroke-linecap="round" stroke-width=".485"><path d="M-35.939 25.126c.261-.343-.156 4.908.257 4.784s-2.832-4.274-2.425-4.132-4.716 1.369-4.47 1.723c.245.354 3.189-4.014 3.18-3.583-.01.43-2.76-4.062-3.02-3.72-.261.344 4.803 1.793 4.39 1.918-.413.124 3.01-3.88 2.604-4.022-.407-.142-.22 5.122-.466 4.768s4.619 1.665 4.629 1.234c.009-.43-4.94 1.373-4.679 1.03z" transform="rotate(-8.776 290.235 -118.01)scale(.40937 .40914)"/><path d="M-35.939 25.126c.261-.343-.156 4.908.257 4.784s-2.832-4.274-2.425-4.132-4.716 1.369-4.47 1.723c.245.354 3.189-4.014 3.18-3.583-.01.43-2.76-4.062-3.02-3.72-.261.344 4.803 1.793 4.39 1.918-.413.124 3.01-3.88 2.604-4.022-.407-.142-.22 5.122-.466 4.768s4.619 1.665 4.629 1.234c.009-.43-4.94 1.373-4.679 1.03z" transform="matrix(.36606 .1831 -.18325 .3659 25.904 52.98)"/></g><path fill="#67921f" stroke="#4f7118" stroke-linecap="round" stroke-width=".198" d="M15.476 74.466c.296-3.45 5.443-57.33-16.316-64.68 1.136-.695 22.115 2.756 17.064 64.691-.089-.026-.748-.011-.748-.011z" clip-path="url(#k)" transform="translate(9.02 4.553)"/><g fill="#e9fc95" stroke="#b1d47a" stroke-linecap="round" stroke-width=".485"><path d="M-35.939 25.126c.261-.343-.156 4.908.257 4.784s-2.832-4.274-2.425-4.132-4.716 1.369-4.47 1.723c.245.354 3.189-4.014 3.18-3.583-.01.43-2.76-4.062-3.02-3.72-.261.344 4.803 1.793 4.39 1.918-.413.124 3.01-3.88 2.604-4.022-.407-.142-.22 5.122-.466 4.768s4.619 1.665 4.629 1.234c.009-.43-4.94 1.373-4.679 1.03z" transform="rotate(94.5 -9.931 50.083)scale(.40937 .40914)"/><path d="M-35.939 25.126c.261-.343-.156 4.908.257 4.784s-2.832-4.274-2.425-4.132-4.716 1.369-4.47 1.723c.245.354 3.189-4.014 3.18-3.583-.01.43-2.76-4.062-3.02-3.72-.261.344 4.803 1.793 4.39 1.918-.413.124 3.01-3.88 2.604-4.022-.407-.142-.22 5.122-.466 4.768s4.619 1.665 4.629 1.234c.009-.43-4.94 1.373-4.679 1.03z" transform="matrix(-.26226 .31423 -.31403 -.26238 28.37 65.98)"/></g><g stroke="#4f7118" stroke-linecap="round" stroke-width=".198"><path fill="#74a423" d="M-3.1 46.49c3.202 1.773 6.612 28.19 6.612 28.19l-.918-.02S-1.361 48.99-3.1 46.49z" clip-path="url(#l)" transform="translate(9.02 4.553)"/><path fill="#67921f" d="M14.723 74.536c-.287-2.37-5.278-39.374 15.824-44.422-1.102-.478-21.449 1.893-16.549 44.43.086-.018.725-.008.725-.008z" clip-path="url(#m)" transform="translate(9.02 4.553)"/><path fill="#74a423" d="M25.94 32.969c-3.201 2.623-6.612 41.703-6.612 41.703l.918-.029s3.955-37.976 5.694-41.674z" clip-path="url(#n)" transform="translate(9.02 4.553)"/><path fill="#74a423" d="M7.39 33.286c3.202 2.61 6.612 41.489 6.612 41.489l-.918-.028S9.13 36.966 7.391 33.287z" clip-path="url(#o)" transform="translate(9.02 4.553)"/></g><g stroke="#4f7118" stroke-linecap="round" stroke-width=".198" clip-path="url(#p)" transform="rotate(22.582 100.081 -63.914)scale(-1 1)"><path fill="#67921f" d="M-75.443 73.478c4.772 2.609-.924 27.254-.924 27.254l-.669-.095s5.561-23.934.812-27.28c.764.057.012-.023.781.122z"/><path fill="#74a423" d="M-95.519 84.921c13.934-13.52 20.201-11.357 20.201-11.357s-6.426-4.263-20.201 11.357z"/></g><path fill="#67921f" stroke="#4f7118" stroke-linecap="round" stroke-width=".198" d="M4.81 74.799c.234-1.308 4.278-21.72-12.501-24.873.877-.246 17.06 1.41 13.079 24.889-.069-.012-.577-.016-.577-.016z" clip-path="url(#q)" transform="translate(9.02 4.553)"/><g stroke-width=".274" clip-path="url(#r)" transform="matrix(.95448 -.15599 .29828 .49917 56.617 16.886)"><path fill="#67921f" stroke="#4f7118" stroke-linecap="round" d="m-76.368 100.73-.668-.095s5.56-23.934.812-27.28c5.657.426.652 23.813-.144 27.376z"/></g><g stroke="#4f7118" stroke-linecap="round" stroke-width=".198" clip-path="url(#s)" transform="rotate(-8.643 -216.276 -564.382)"><path fill="#67921f" d="M-75.443 73.478c4.772 2.609-.924 27.254-.924 27.254l-.669-.095s5.561-23.934.812-27.28c.764.057.012-.023.781.122z"/><path fill="#74a423" d="M-95.519 84.921c13.934-13.52 20.201-11.357 20.201-11.357s-6.426-4.263-20.201 11.357z"/></g><g fill="#67921f" stroke="#4f7118" stroke-linecap="round" stroke-width=".214" clip-path="url(#t)" transform="matrix(-1.2396 -.05464 -.30481 .67734 -43.27 6.797)"><path d="m-76.368 100.73-.668-.095s5.56-23.934.812-27.28c5.657.426.652 23.813-.144 27.376zM-75.537 100.65l.69.009s6.915-26.806 13.181-29.625c-5.641-.489-12.81 25.632-13.87 29.616z"/></g><g stroke-width=".206" clip-path="url(#u)" transform="matrix(1.2396 -.0594 .30481 .73635 77.374 .497)"><path fill="#67921f" stroke="#4f7118" stroke-linecap="round" d="m-76.368 100.73-.668-.095s5.56-23.934.812-27.28c5.657.426.652 23.813-.144 27.376z"/></g><g fill="#e9fc95" stroke="#b1d47a" stroke-linecap="round" stroke-width=".485"><path d="M-35.939 25.126c.261-.343-.156 4.908.257 4.784s-2.832-4.274-2.425-4.132-4.716 1.369-4.47 1.723c.245.354 3.189-4.014 3.18-3.583-.01.43-2.76-4.062-3.02-3.72-.261.344 4.803 1.793 4.39 1.918-.413.124 3.01-3.88 2.604-4.022-.407-.142-.22 5.122-.466 4.768s4.619 1.665 4.629 1.234c.009-.43-4.94 1.373-4.679 1.03z" transform="rotate(-52.799 39.406 -.588)scale(.40937 .40914)"/><path d="M-35.939 25.126c.261-.343-.156 4.908.257 4.784s-2.832-4.274-2.425-4.132-4.716 1.369-4.47 1.723c.245.354 3.189-4.014 3.18-3.583-.01.43-2.76-4.062-3.02-3.72-.261.344 4.803 1.793 4.39 1.918-.413.124 3.01-3.88 2.604-4.022-.407-.142-.22 5.122-.466 4.768s4.619 1.665 4.629 1.234c.009-.43-4.94 1.373-4.679 1.03z" transform="matrix(.39046 -.12274 .1225 .39045 26.294 35.276)"/></g><g fill="#e9fc95" stroke="#b1d47a" stroke-linecap="round" stroke-width=".485"><path d="M-35.939 25.126c.261-.343-.156 4.908.257 4.784s-2.832-4.274-2.425-4.132-4.716 1.369-4.47 1.723c.245.354 3.189-4.014 3.18-3.583-.01.43-2.76-4.062-3.02-3.72-.261.344 4.803 1.793 4.39 1.918-.413.124 3.01-3.88 2.604-4.022-.407-.142-.22 5.122-.466 4.768s4.619 1.665 4.629 1.234c.009-.43-4.94 1.373-4.679 1.03z" transform="rotate(227.97 10.58 15.911)scale(.40937 .40914)"/><path d="M-35.939 25.126c.261-.343-.156 4.908.257 4.784s-2.832-4.274-2.425-4.132-4.716 1.369-4.47 1.723c.245.354 3.189-4.014 3.18-3.583-.01.43-2.76-4.062-3.02-3.72-.261.344 4.803 1.793 4.39 1.918-.413.124 3.01-3.88 2.604-4.022-.407-.142-.22 5.122-.466 4.768s4.619 1.665 4.629 1.234c.009-.43-4.94 1.373-4.679 1.03z" transform="matrix(-.04762 -.40652 .40646 -.0474 11.809 25.129)"/></g><g fill="#e9fc95" stroke="#b1d47a" stroke-linecap="round" stroke-width=".485"><path d="M-35.939 25.126c.261-.343-.156 4.908.257 4.784s-2.832-4.274-2.425-4.132-4.716 1.369-4.47 1.723c.245.354 3.189-4.014 3.18-3.583-.01.43-2.76-4.062-3.02-3.72-.261.344 4.803 1.793 4.39 1.918-.413.124 3.01-3.88 2.604-4.022-.407-.142-.22 5.122-.466 4.768s4.619 1.665 4.629 1.234c.009-.43-4.94 1.373-4.679 1.03z" transform="matrix(.18116 .3671 -.3669 .18105 46.21 40.692)"/><path d="M-35.939 25.126c.261-.343-.156 4.908.257 4.784s-2.832-4.274-2.425-4.132-4.716 1.369-4.47 1.723c.245.354 3.189-4.014 3.18-3.583-.01.43-2.76-4.062-3.02-3.72-.261.344 4.803 1.793 4.39 1.918-.413.124 3.01-3.88 2.604-4.022-.407-.142-.22 5.122-.466 4.768s4.619 1.665 4.629 1.234c.009-.43-4.94 1.373-4.679 1.03z" transform="matrix(-.06462 .40416 -.40405 -.06482 37.947 48.017)"/></g><g fill="#e9fc95" stroke="#b1d47a" stroke-linecap="round" stroke-width=".485"><path d="M-35.939 25.126c.261-.343-.156 4.908.257 4.784s-2.832-4.274-2.425-4.132-4.716 1.369-4.47 1.723c.245.354 3.189-4.014 3.18-3.583-.01.43-2.76-4.062-3.02-3.72-.261.344 4.803 1.793 4.39 1.918-.413.124 3.01-3.88 2.604-4.022-.407-.142-.22 5.122-.466 4.768s4.619 1.665 4.629 1.234c.009-.43-4.94 1.373-4.679 1.03z" transform="matrix(.37117 -.17268 .17258 .37096 22.83 11.29)"/><path d="M-35.939 25.126c.261-.343-.156 4.908.257 4.784s-2.832-4.274-2.425-4.132-4.716 1.369-4.47 1.723c.245.354 3.189-4.014 3.18-3.583-.01.43-2.76-4.062-3.02-3.72-.261.344 4.803 1.793 4.39 1.918-.413.124 3.01-3.88 2.604-4.022-.407-.142-.22 5.122-.466 4.768s4.619 1.665 4.629 1.234c.009-.43-4.94 1.373-4.679 1.03z" transform="matrix(.40257 .07389 -.07408 .40245 29.963 19.719)"/></g><g fill="#e9fc95" stroke="#b1d47a" stroke-linecap="round" stroke-width=".485"><path d="M-35.939 25.126c.261-.343-.156 4.908.257 4.784s-2.832-4.274-2.425-4.132-4.716 1.369-4.47 1.723c.245.354 3.189-4.014 3.18-3.583-.01.43-2.76-4.062-3.02-3.72-.261.344 4.803 1.793 4.39 1.918-.413.124 3.01-3.88 2.604-4.022-.407-.142-.22 5.122-.466 4.768s4.619 1.665 4.629 1.234c.009-.43-4.94 1.373-4.679 1.03z" transform="rotate(-42.52 18.48 -36.841)scale(.40937 .40914)"/><path d="M-35.939 25.126c.261-.343-.156 4.908.257 4.784s-2.832-4.274-2.425-4.132-4.716 1.369-4.47 1.723c.245.354 3.189-4.014 3.18-3.583-.01.43-2.76-4.062-3.02-3.72-.261.344 4.803 1.793 4.39 1.918-.413.124 3.01-3.88 2.604-4.022-.407-.142-.22 5.122-.466 4.768s4.619 1.665 4.629 1.234c.009-.43-4.94 1.373-4.679 1.03z" transform="matrix(.4061 -.0511 .05087 .40604 39.104 8.685)"/></g><g fill="#e9fc95" stroke="#b1d47a" stroke-linecap="round" stroke-width=".485"><path d="M-35.939 25.126c.261-.343-.156 4.908.257 4.784s-2.832-4.274-2.425-4.132-4.716 1.369-4.47 1.723c.245.354 3.189-4.014 3.18-3.583-.01.43-2.76-4.062-3.02-3.72-.261.344 4.803 1.793 4.39 1.918-.413.124 3.01-3.88 2.604-4.022-.407-.142-.22 5.122-.466 4.768s4.619 1.665 4.629 1.234c.009-.43-4.94 1.373-4.679 1.03z" transform="rotate(-5.43 294.26 -223.473)scale(.40937 .40914)"/><path d="M-35.939 25.126c.261-.343-.156 4.908.257 4.784s-2.832-4.274-2.425-4.132-4.716 1.369-4.47 1.723c.245.354 3.189-4.014 3.18-3.583-.01.43-2.76-4.062-3.02-3.72-.261.344 4.803 1.793 4.39 1.918-.413.124 3.01-3.88 2.604-4.022-.407-.142-.22 5.122-.466 4.768s4.619 1.665 4.629 1.234c.009-.43-4.94 1.373-4.679 1.03z" transform="matrix(.35475 .20414 -.20429 .35458 26.379 37.176)"/></g><g fill="#67921f" stroke="#4f7118" stroke-linecap="round" stroke-width=".214" clip-path="url(#v)" transform="matrix(-1.2396 -.05464 -.30481 .67734 -43.27 6.797)"><path d="m-76.368 100.73-.668-.095s5.56-23.934.812-27.28c5.657.426.652 23.813-.144 27.376zM-75.537 100.65l.69.009s6.915-26.806 13.181-29.625c-5.641-.489-12.81 25.632-13.87 29.616zM-80.076 100.5l-.672-.079s3.14-14.09-1.903-16.239c5.654.439 3.01 14.22 2.575 16.318z"/></g></svg>