<svg xmlns="http://www.w3.org/2000/svg" xml:space="preserve" width="175.094" height="400.339" viewBox="0 0 46.327 105.92"><g stroke-linecap="round"><g stroke-width="1.023"><path fill="#89a155" stroke="#63753e" stroke-width=".203" d="M-20.136 1.409s.252 12.465 2.66 12.661c-1.904-.784-2.324-12.549-2.66-12.661z" transform="matrix(-.99715 .07212 .07542 .95355 -9.841 19.144)"/><path fill="#89a155" stroke="#63753e" stroke-width=".203" d="M-17.354-4.552c.425 4.366.753 96.704.753 96.704h-.63S-17.96.435-17.354-4.552z" transform="matrix(-.99715 .07212 .07542 .95355 -9.841 19.144)"/><g stroke-width=".445"><g fill="#f6b0fb" stroke="#ef73f8"><path d="M90.38 196.15c-.273 1.642-5.5 3.815-7.54 2.958.272-1.83 5.908-4.09 7.54-2.958zM93.088 196.14c1.087-1.291 6.762-.683 8.095 1.03-1.184 1.455-7.26.728-8.095-1.03z" transform="matrix(-.45568 -.03232 -.03319 .43488 59.176 -63.95)"/><path d="M90.24 196.34c.506 1.582-3.118 6.045-5.308 6.281-.592-1.748 3.353-6.486 5.308-6.281zM93.244 196.18c1.568-.548 6.125 2.956 6.42 5.139-1.732.639-6.573-3.179-6.42-5.139z" transform="matrix(-.45568 -.03232 -.03319 .43488 59.176 -63.95)"/><path d="M92.883 196.53c1.655.137 4.394 5.191 3.776 7.305-1.842-.12-4.713-5.576-3.776-7.305zM90.853 196.86c1.053 1.284-.672 6.768-2.62 7.795-1.195-1.407.727-7.265 2.62-7.795z" transform="matrix(-.45568 -.03232 -.03319 .43488 59.176 -63.95)"/><path d="M91.877 196.64c1.483.748 2.125 6.46.759 8.188-1.662-.802-2.276-6.937-.759-8.188z" transform="matrix(-.45568 -.03232 -.03319 .43488 59.176 -63.95)"/></g><path fill="#c06218" stroke="#824210" d="M91.481 192.46c2.56-.273 4.891 4.838.456 5.29s-3.017-5.017-.456-5.29z" transform="matrix(-.45568 -.03232 -.03319 .43488 59.176 -63.95)"/></g><g stroke="#264826"><path fill="#396d39" stroke-width=".232" d="M-63.137 168.62c5.316 5.754-4.75 4.085-12.634 10.198 8.371-8.708 4.211-14.309 12.634-10.198z" transform="matrix(-.87233 .0631 .06602 .83469 -53.386 -49.035)"/><path fill="none" stroke-width=".155" d="M-63.124 168.65c-1.71.467-12.023 9.496-12.293 9.882" transform="matrix(-.87233 .0631 .06602 .83469 -53.386 -49.035)"/></g><g stroke="#264826"><path fill="#396d39" stroke-width=".232" d="M-63.137 168.62c5.316 5.754-4.75 4.085-12.634 10.198 8.371-8.708 4.211-14.309 12.634-10.198z" transform="matrix(-.87233 .0631 .06602 .83469 -54.342 -57.9)"/><path fill="none" stroke-width=".155" d="M-63.124 168.65c-1.71.467-12.023 9.496-12.293 9.882" transform="matrix(-.87233 .0631 .06602 .83469 -54.342 -57.9)"/></g><g stroke="#264826"><path fill="#396d39" stroke-width=".271" d="M-63.137 168.62c5.316 5.754-4.75 4.085-12.634 10.198 8.371-8.708 4.211-14.309 12.634-10.198z" transform="matrix(.74613 -.05397 .05644 .71362 48.462 -62.662)"/><path fill="none" stroke-width=".181" d="M-63.124 168.65c-1.71.467-12.023 9.496-12.293 9.882" transform="matrix(.74613 -.05397 .05644 .71362 48.462 -62.662)"/></g><g stroke="#264826"><path fill="#396d39" stroke-width=".459" d="M-63.137 168.62c5.316 5.754-4.75 4.085-12.634 10.198 8.371-8.708 4.211-14.309 12.634-10.198z" transform="matrix(-.44158 .03194 .03333 .42142 -25.016 -34.375)"/><path fill="none" stroke-width=".306" d="M-63.124 168.65c-1.71.467-12.023 9.496-12.293 9.882" transform="matrix(-.44158 .03194 .03333 .42142 -25.016 -34.375)"/></g><g stroke="#264826"><path fill="#396d39" stroke-width=".335" d="M-63.137 168.62c5.316 5.754-4.75 4.085-12.634 10.198 8.371-8.708 4.211-14.309 12.634-10.198z" transform="matrix(-.58931 -.13331 -.1391 .5632 -3.472 -47.12)"/><path fill="none" stroke-width=".223" d="M-63.124 168.65c-1.71.467-12.023 9.496-12.293 9.882" transform="matrix(-.58931 -.13331 -.1391 .5632 -3.472 -47.12)"/></g><g stroke="#264826"><path fill="#396d39" stroke-width=".231" d="M-152.7 139.17c8.098 2.97.45 11.607-1.98 16.871 3.555-8.953-4.588-17.636 1.98-16.871z" transform="matrix(.15409 -.82886 .8664 .14775 -83.415 -46.422)"/><path fill="none" stroke-width=".154" d="M-152.59 139.24c2.295 4.791.023 12.17-1.71 15.926" transform="matrix(.15409 -.82886 .8664 .14775 -83.415 -46.422)"/></g><g stroke="#264826"><path fill="#396d39" stroke-width=".281" d="M-109.55 126.47c11.134 2.195 10.275 19.183 9.544 21.887-.51-11.389-11.071-16.861-9.894-21.41-.374-.374-.652-.589.35-.477z" transform="matrix(-.64845 -.24254 -.23108 .68161 -30.428 -38.682)"/><path fill="none" stroke-width=".187" d="M-109.18 127.19c5.601 3.712 9.178 13.677 9.245 20.65" transform="matrix(-.64845 -.24254 -.23108 .68161 -30.428 -38.682)"/></g><g stroke="#264826"><path fill="#396d39" stroke-width=".231" d="M-152.7 139.17c8.098 2.97.45 11.607-1.98 16.871 3.555-8.953-4.588-17.636 1.98-16.871z" transform="matrix(.62118 -.59631 .62325 .59443 19.42 -104.555)"/><path fill="none" stroke-width=".154" d="M-152.59 139.24c2.295 4.791.023 12.17-1.71 15.926" transform="matrix(.62118 -.59631 .62325 .59443 19.42 -104.555)"/></g><g stroke="#264826"><path fill="#396d39" stroke-width=".32" d="M-152.7 139.17c8.098 2.97.45 11.607-1.98 16.871 3.555-8.953-4.588-17.636 1.98-16.871z" transform="matrix(.4466 -.4293 .44819 .42804 15.692 -80.08)"/><path fill="none" stroke-width=".214" d="M-152.59 139.24c2.295 4.791.023 12.17-1.71 15.926" transform="matrix(.4466 -.4293 .44819 .42804 15.692 -80.08)"/></g><g stroke="#264826"><path fill="#396d39" stroke-width=".295" d="M-152.7 139.17c8.098 2.97.45 11.607-1.98 16.871 3.555-8.953-4.588-17.636 1.98-16.871z" transform="matrix(-.44627 -.49997 -.5221 .42752 14.613 -84.155)"/><path fill="none" stroke-width=".197" d="M-152.59 139.24c2.295 4.791.023 12.17-1.71 15.926" transform="matrix(-.44627 -.49997 -.5221 .42752 14.613 -84.155)"/></g><g stroke="#264826"><path fill="#396d39" stroke-width=".25" d="M-152.7 139.17c8.098 2.97.45 11.607-1.98 16.871 3.555-8.953-4.588-17.636 1.98-16.871z" transform="matrix(-.52748 -.59102 -.61709 .50538 18.11 -75.925)"/><path fill="none" stroke-width=".167" d="M-152.59 139.24c2.295 4.791.023 12.17-1.71 15.926" transform="matrix(-.52748 -.59102 -.61709 .50538 18.11 -75.925)"/></g><g stroke="#264826"><path fill="#396d39" stroke-width=".34" d="M-109.55 126.47c11.134 2.195 10.275 19.183 9.544 21.887-.51-11.389-11.071-16.861-9.894-21.41-.374-.374-.652-.589.35-.477z" transform="matrix(-.5774 -.14266 -.14957 .55444 -35.451 -45.456)"/><path fill="none" stroke-width=".226" d="M-109.18 127.19c5.601 3.712 9.178 13.677 9.245 20.65" transform="matrix(-.5774 -.14266 -.14957 .55444 -35.451 -45.456)"/></g><path fill="#89a155" stroke="#63753e" stroke-width=".203" d="M-14.691-.923s-.252 12.465-2.66 12.66c1.904-.783 2.324-12.548 2.66-12.66z" transform="matrix(-.99715 .07212 .07542 .95355 -9.841 19.144)"/><g stroke-width=".14"><g fill="#f6b0fb" stroke="#ef73f8"><path d="M2.52 38.251c.491-.19 2.249.433 2.49.924-.54.218-2.414-.465-2.49-.924zM1.052 37.991c-.444-.281-2.291-.008-2.624.427.486.318 2.459.008 2.624-.427z" transform="matrix(1.44002 -.10873 .09508 1.39145 1.043 -39)"/><path d="M2.46 38.197c.497-.017 1.755 1.105 1.764 1.628-.552.027-1.885-1.187-1.765-1.628zM1.092 37.963c-.474-.152-1.996.584-2.15 1.085.523.176 2.143-.629 2.15-1.085z" transform="matrix(1.44002 -.10873 .09508 1.39145 1.043 -39)"/><path d="M2.231 38.442c.464-.04 1.044.903.786 1.37-.518.05-1.12-.97-.786-1.37zM1.148 38.287c-.402-.233-1.335.372-1.306.903.445.266 1.433-.4 1.306-.903z" transform="matrix(1.44002 -.10873 .09508 1.39145 1.043 -39)"/><path d="M1.949 38.437c.35.157.339 1.129-.057 1.39-.394-.17-.363-1.212.057-1.39z" transform="matrix(1.44002 -.10873 .09508 1.39145 1.043 -39)"/><path d="M1.553 38.329c.263.278-.126 1.17-.593 1.262-.298-.307.136-1.257.593-1.262z" transform="matrix(1.44002 -.10873 .09508 1.39145 1.043 -39)"/></g><path fill="#c06218" stroke="#824210" d="M2.037 36.864c.827.179 1.023 1.992-.409 1.676s-.42-1.855.409-1.676z" transform="matrix(1.44002 -.10873 .09508 1.39145 1.043 -39)"/></g><g stroke-width=".152"><g fill="#f6b0fb" stroke="#ef73f8"><path d="M2.52 38.251c.491-.19 2.249.433 2.49.924-.54.218-2.414-.465-2.49-.924zM1.052 37.991c-.444-.281-2.291-.008-2.624.427.486.318 2.459.008 2.624-.427z" transform="matrix(-1.32571 .09589 .10094 1.27614 3.125 -31.971)"/><path d="M1.092 37.963c-.474-.152-1.996.584-2.15 1.085.523.176 2.143-.629 2.15-1.085zM2.46 38.197c.497-.017 1.755 1.105 1.764 1.628-.552.027-1.885-1.187-1.765-1.628z" transform="matrix(-1.32571 .09589 .10094 1.27614 3.125 -31.971)"/><path d="M1.148 38.287c-.402-.233-1.335.372-1.306.903.445.266 1.433-.4 1.306-.903zM2.231 38.442c.464-.04 1.044.903.786 1.37-.518.05-1.12-.97-.786-1.37z" transform="matrix(-1.32571 .09589 .10094 1.27614 3.125 -31.971)"/><path d="M1.553 38.329c.263.278-.126 1.17-.593 1.262-.298-.307.136-1.257.593-1.262z" transform="matrix(-1.32571 .09589 .10094 1.27614 3.125 -31.971)"/><path d="M1.949 38.437c.35.157.339 1.129-.057 1.39-.394-.17-.363-1.212.057-1.39z" transform="matrix(-1.32571 .09589 .10094 1.27614 3.125 -31.971)"/></g><path fill="#c06218" stroke="#824210" d="M2.037 36.864c.827.179 1.023 1.992-.409 1.676s-.42-1.855.409-1.676z" transform="matrix(-1.32571 .09589 .10094 1.27614 3.125 -31.971)"/></g></g><g stroke-width="1.035"><path fill="#89a155" stroke="#63753e" stroke-width=".205" d="M-20.136 1.409s.252 12.465 2.66 12.661c-1.904-.784-2.324-12.549-2.66-12.661z" transform="matrix(-.99812 -.05906 -.06095 .93125 12.969 18.864)"/><path fill="#89a155" stroke="#63753e" stroke-width=".205" d="M-17.533-1.625c.425 4.366.931 93.778.931 93.778h-.63s-.906-88.79-.301-93.778z" transform="matrix(-.99812 -.05906 -.06095 .93125 12.969 18.864)"/><g stroke="#264826"><path fill="#396d39" stroke-width=".235" d="M-63.137 168.62c5.316 5.754-4.75 4.085-12.634 10.198 8.371-8.708 4.211-14.309 12.634-10.198z" transform="matrix(-.87318 -.05166 -.05335 .81517 -20.47 -52.647)"/><path fill="none" stroke-width=".157" d="M-63.124 168.65c-1.71.467-12.023 9.496-12.293 9.882" transform="matrix(-.87318 -.05166 -.05335 .81517 -20.47 -52.647)"/></g><g stroke="#264826"><path fill="#396d39" stroke-width=".235" d="M-63.137 168.62c5.316 5.754-4.75 4.085-12.634 10.198 8.371-8.708 4.211-14.309 12.634-10.198z" transform="matrix(-.87318 -.05166 -.05335 .81517 -20.156 -61.337)"/><path fill="none" stroke-width=".157" d="M-63.124 168.65c-1.71.467-12.023 9.496-12.293 9.882" transform="matrix(-.87318 -.05166 -.05335 .81517 -20.156 -61.337)"/></g><g stroke="#264826"><path fill="#396d39" stroke-width=".275" d="M-63.137 168.62c5.316 5.754-4.75 4.085-12.634 10.198 8.371-8.708 4.211-14.309 12.634-10.198z" transform="matrix(.74685 .04419 -.04561 .69693 82.368 -52.665)"/><path fill="none" stroke-width=".183" d="M-63.124 168.65c-1.71.467-12.023 9.496-12.293 9.882" transform="matrix(.74685 .04419 -.04561 .69693 82.368 -52.665)"/></g><g stroke="#264826"><path fill="#396d39" stroke-width=".464" d="M-63.137 168.62c5.316 5.754-4.75 4.085-12.634 10.198 8.371-8.708 4.211-14.309 12.634-10.198z" transform="matrix(-.442 -.02615 -.02694 .41157 5.55 -34.816)"/><path fill="none" stroke-width=".31" d="M-63.124 168.65c-1.71.467-12.023 9.496-12.293 9.882" transform="matrix(-.442 -.02615 -.02694 .41157 5.55 -34.816)"/></g><g stroke="#264826"><path fill="#396d39" stroke-width=".339" d="M-63.137 168.62c5.316 5.754-4.75 4.085-12.634 10.198 8.371-8.708 4.211-14.309 12.634-10.198z" transform="matrix(-.56485 -.20493 -.21794 .52631 28.706 -44.351)"/><path fill="none" stroke-width=".226" d="M-63.124 168.65c-1.71.467-12.023 9.496-12.293 9.882" transform="matrix(-.56485 -.20493 -.21794 .52631 28.706 -44.351)"/></g><g stroke="#264826"><path fill="#396d39" stroke-width=".233" d="M-152.7 139.17c8.098 2.97.45 11.607-1.98 16.871 3.555-8.953-4.588-17.636 1.98-16.871z" transform="matrix(.16426 -.81017 .86375 .141 -70.708 -41.724)"/><path fill="none" stroke-width=".156" d="M-152.59 139.24c2.295 4.791.023 12.17-1.71 15.926" transform="matrix(.16426 -.81017 .86375 .141 -70.708 -41.724)"/></g><g stroke="#264826"><path fill="#396d39" stroke-width=".263" d="M-109.55 126.47c11.134 2.195 10.275 19.183 9.544 21.887-.51-11.389-11.071-16.861-9.894-21.41-.374-.374-.652-.589.35-.477z" transform="matrix(-.79996 -.28806 -.36507 .58151 -16.88 -10.254)"/><path fill="none" stroke-width=".175" d="M-109.18 127.19c5.601 3.712 9.178 13.677 9.245 20.65" transform="matrix(-.79996 -.28806 -.36507 .58151 -16.88 -10.254)"/></g><g stroke="#264826"><path fill="#396d39" stroke-width=".272" d="M-109.55 126.47c11.134 2.195 10.275 19.183 9.544 21.887-.51-11.389-11.071-16.861-9.894-21.41-.374-.374-.652-.589.35-.477z" transform="matrix(-.73845 -.15132 -.16035 .68959 -34.894 -28.656)"/><path fill="none" stroke-width=".181" d="M-109.18 127.19c5.601 3.712 9.178 13.677 9.245 20.65" transform="matrix(-.73845 -.15132 -.16035 .68959 -34.894 -28.656)"/></g><g stroke="#264826"><path fill="#396d39" stroke-width=".233" d="M-152.7 139.17c8.098 2.97.45 11.607-1.98 16.871 3.555-8.953-4.588-17.636 1.98-16.871z" transform="matrix(.70023 -.49606 .53287 .65494 59.558 -96.9)"/><path fill="none" stroke-width=".156" d="M-152.59 139.24c2.295 4.791.023 12.17-1.71 15.926" transform="matrix(.70023 -.49606 .53287 .65494 59.558 -96.9)"/></g><g stroke="#264826"><path fill="#396d39" stroke-width=".324" d="M-152.7 139.17c8.098 2.97.45 11.607-1.98 16.871 3.555-8.953-4.588-17.636 1.98-16.871z" transform="matrix(.50352 -.35721 .3831 .47153 52.381 -73.73)"/><path fill="none" stroke-width=".216" d="M-152.59 139.24c2.295 4.791.023 12.17-1.71 15.926" transform="matrix(.50352 -.35721 .3831 .47153 52.381 -73.73)"/></g><g stroke="#264826"><path fill="#396d39" stroke-width=".299" d="M-152.7 139.17c8.098 2.97.45 11.607-1.98 16.871 3.555-8.953-4.588-17.636 1.98-16.871z" transform="matrix(-.37098 -.5408 -.57807 .34574 51.892 -77.806)"/><path fill="none" stroke-width=".199" d="M-152.59 139.24c2.295 4.791.023 12.17-1.71 15.926" transform="matrix(-.37098 -.5408 -.57807 .34574 51.892 -77.806)"/></g><g stroke="#264826"><path fill="#396d39" stroke-width=".253" d="M-152.7 139.17c8.098 2.97.45 11.607-1.98 16.871 3.555-8.953-4.588-17.636 1.98-16.871z" transform="matrix(-.43847 -.63927 -.68324 .40872 54.186 -69.402)"/><path fill="none" stroke-width=".169" d="M-152.59 139.24c2.295 4.791.023 12.17-1.71 15.926" transform="matrix(-.43847 -.63927 -.68324 .40872 54.186 -69.402)"/></g><g stroke="#264826"><path fill="#396d39" stroke-width=".344" d="M-109.55 126.47c11.134 2.195 10.275 19.183 9.544 21.887-.51-11.389-11.071-16.861-9.894-21.41-.374-.374-.652-.589.35-.477z" transform="matrix(-.55172 -.21243 -.22706 .5165 -3.211 -46.873)"/><path fill="none" stroke-width=".229" d="M-109.18 127.19c5.601 3.712 9.178 13.677 9.245 20.65" transform="matrix(-.55172 -.21243 -.22706 .5165 -3.211 -46.873)"/></g><g stroke-width=".544"><path fill="#c06218" stroke="#824210" d="M80.247 161.48c2.818-.36 6.994 4.76.918 5.676s-3.736-5.316-.918-5.676z" transform="matrix(.36692 0 0 .36255 .782 -41.118)"/><g fill="#f6b0fb" stroke="#ef73f8"><path d="M77.575 165.62c-2.483 2.205-5.574 6.212-7.488 6.435.657-2.266 5.615-8.91 7.488-6.435zM84.051 164.89c2.483 2.205 5.929 5.724 7.947 5.455-.657-2.265-6.075-7.93-7.947-5.455z" transform="matrix(.36692 0 0 .36255 .782 -41.118)"/><path d="M78.315 166.01c1.852.871-2.645 7.161-4.678 7.507-.772-2.14 3.032-9.654 4.678-7.507z" transform="matrix(.36692 0 0 .36255 .782 -41.118)"/><path d="M79.646 166.76c1.929-1.325 1.676 6.644-.26 8.215-2.001-1.32-1.793-9.887.26-8.215zM83.576 165.36c-1.836.92 3.749 7.105 5.893 7.494.588-2.292-4.398-9.786-5.893-7.494z" transform="matrix(.36692 0 0 .36255 .782 -41.118)"/><path d="M82.571 166.43c1.072-2.195 3.475 6.37 2.091 8.458-2.184-.711-4.695-9.72-2.091-8.458z" transform="matrix(.36692 0 0 .36255 .782 -41.118)"/></g></g><g stroke-width=".154"><g fill="#f6b0fb" stroke="#ef73f8"><path d="M2.52 38.251c.491-.19 2.249.433 2.49.924-.54.218-2.414-.465-2.49-.924zM1.052 37.991c-.444-.281-2.291-.008-2.624.427.486.318 2.459.008 2.624-.427z" transform="matrix(-1.20712 -.55681 -.5302 1.13075 55.643 -20.767)"/><path d="M1.092 37.963c-.474-.152-1.996.584-2.15 1.085.523.176 2.143-.629 2.15-1.085zM2.46 38.197c.497-.017 1.755 1.105 1.764 1.628-.552.027-1.885-1.187-1.765-1.628z" transform="matrix(-1.20712 -.55681 -.5302 1.13075 55.643 -20.767)"/><path d="M2.231 38.442c.464-.04 1.044.903.786 1.37-.518.05-1.12-.97-.786-1.37zM1.148 38.287c-.402-.233-1.335.372-1.306.903.445.266 1.433-.4 1.306-.903z" transform="matrix(-1.20712 -.55681 -.5302 1.13075 55.643 -20.767)"/><path d="M1.949 38.437c.35.157.339 1.129-.057 1.39-.394-.17-.363-1.212.057-1.39z" transform="matrix(-1.20712 -.55681 -.5302 1.13075 55.643 -20.767)"/><path d="M1.553 38.329c.263.278-.126 1.17-.593 1.262-.298-.307.136-1.257.593-1.262z" transform="matrix(-1.20712 -.55681 -.5302 1.13075 55.643 -20.767)"/></g><path fill="#c06218" stroke="#824210" d="M2.037 36.864c.827.179 1.023 1.992-.409 1.676s-.42-1.855.409-1.676z" transform="matrix(-1.20712 -.55681 -.5302 1.13075 55.643 -20.767)"/></g></g></g><g stroke-linecap="round"><path fill="#89a155" stroke="#63753e" stroke-width=".198" d="M40.629 10.383s-1.065 14.118-3.81 14.19c2.21-.77 3.422-14.085 3.81-14.19z"/><path fill="#89a155" stroke="#63753e" stroke-width=".198" d="M38.198 2.602c-.739 4.63-6.54 103.086-6.54 103.086l.714.04S38.592 7.96 38.198 2.602z"/><g stroke-width=".383"><g fill="#f6b0fb" stroke="#ef73f8"><path d="M90.524 196.19c-.22 1.646-5.402 4.124-7.482 3.398.212-1.833 5.803-4.422 7.482-3.398zM93.02 196.3c1.054-1.285 6.766-.671 8.153 1.038-1.147 1.449-7.265.715-8.153-1.038z" transform="matrix(-.50844 -.10546 -.10467 .50719 108.489 -80.113)"/><path d="M90.24 196.34c.506 1.582-3.118 6.045-5.308 6.281-.592-1.748 3.353-6.486 5.308-6.281zM93.244 196.18c1.568-.548 6.125 2.956 6.42 5.139-1.732.639-6.573-3.179-6.42-5.139z" transform="matrix(-.50844 -.10546 -.10467 .50719 108.489 -80.113)"/><path d="M92.883 196.53c1.655.137 4.394 5.191 3.776 7.305-1.842-.12-4.713-5.576-3.776-7.305zM90.853 196.86c1.053 1.284-.672 6.768-2.62 7.795-1.195-1.407.727-7.265 2.62-7.795z" transform="matrix(-.50844 -.10546 -.10467 .50719 108.489 -80.113)"/><path d="M91.877 196.64c1.483.748 2.125 6.46.759 8.188-1.662-.802-2.276-6.937-.759-8.188z" transform="matrix(-.50844 -.10546 -.10467 .50719 108.489 -80.113)"/></g><path fill="#c06218" stroke="#824210" d="M91.481 192.46c2.56-.273 4.891 4.838.456 5.29s-3.017-5.017-.456-5.29z" transform="matrix(-.50844 -.10546 -.10467 .50719 108.489 -80.113)"/></g><g stroke="#346435"><path fill="#468747" stroke-width=".2" d="M-63.137 168.62c5.316 5.754-4.75 4.085-12.634 10.198 8.371-8.708 4.211-14.309 12.634-10.198z" transform="rotate(3.156 1292.213 1858.138)scale(.99419 .99417)"/><path fill="none" stroke-width=".133" d="M-63.124 168.65c-1.71.467-12.023 9.496-12.293 9.882" transform="rotate(3.156 1292.213 1858.138)scale(.99419 .99417)"/></g><g stroke="#346435"><path fill="#468747" stroke-width=".2" d="M-63.137 168.62c5.316 5.754-4.75 4.085-12.634 10.198 8.371-8.708 4.211-14.309 12.634-10.198z" transform="rotate(3.156 1740.074 -396.216)scale(-.99419 .99417)"/><path fill="none" stroke-width=".133" d="M-63.124 168.65c-1.71.467-12.023 9.496-12.293 9.882" transform="rotate(3.156 1740.074 -396.216)scale(-.99419 .99417)"/></g><g stroke="#346435"><path fill="#468747" stroke-width=".233" d="M-63.137 168.62c5.316 5.754-4.75 4.085-12.634 10.198 8.371-8.708 4.211-14.309 12.634-10.198z" transform="rotate(3.156 1637.51 1715.313)scale(.85036 .84996)"/><path fill="none" stroke-width=".156" d="M-63.124 168.65c-1.71.467-12.023 9.496-12.293 9.882" transform="rotate(3.156 1637.51 1715.313)scale(.85036 .84996)"/></g><g stroke="#346435"><path fill="#468747" stroke-width=".395" d="M-63.137 168.62c5.316 5.754-4.75 4.085-12.634 10.198 8.371-8.708 4.211-14.309 12.634-10.198z" transform="rotate(3.156 1133.66 149.663)scale(-.50326 .50194)"/><path fill="none" stroke-width=".263" d="M-63.124 168.65c-1.71.467-12.023 9.496-12.293 9.882" transform="rotate(3.156 1133.66 149.663)scale(-.50326 .50194)"/></g><g stroke="#346435"><path fill="#468747" stroke-width="1.04" d="M-63.137 168.62c5.316 5.754-4.75 4.085-12.634 10.198 8.371-8.708 4.211-14.309 12.634-10.198z" transform="matrix(-.19123 -.01049 -.01052 .18965 27.408 -18.89)"/><path fill="none" stroke-width=".694" d="M-63.124 168.65c-1.71.467-12.023 9.496-12.293 9.882" transform="matrix(-.19123 -.01049 -.01052 .18965 27.408 -18.89)"/></g><g stroke="#346435"><path fill="#468747" stroke-width=".289" d="M-63.137 168.62c5.316 5.754-4.75 4.085-12.634 10.198 8.371-8.708 4.211-14.309 12.634-10.198z" transform="rotate(20.781 227.814 59.723)scale(-.68816 .68733)"/><path fill="none" stroke-width=".192" d="M-63.124 168.65c-1.71.467-12.023 9.496-12.293 9.882" transform="rotate(20.781 227.814 59.723)scale(-.68816 .68733)"/></g><g stroke="#346435"><path fill="#468747" stroke-width=".198" d="M32.977 93.586c6.908-5.164 9.97 5.96 13.055 10.868-5.561-7.865-17.282-5.782-13.055-10.868z"/><path fill="none" stroke-width=".132" d="M33.096 93.532c5.267.693 10.209 6.625 12.41 10.126"/></g><g stroke="#346435"><path fill="#468747" stroke-width=".19799802000000002" d="M32.778 82.7c-11.308-.963-15.17 15.602-15.213 18.403 3.632-10.806 15.294-13.151 15.417-17.848.463-.257.79-.386-.204-.556z"/><path fill="none" stroke-width=".13199868" d="M32.223 83.29c-6.408 2.021-12.595 10.613-14.585 17.296"/></g><g stroke="#346435"><path fill="#468747" stroke-width=".231" d="M-109.55 126.47c11.134 2.195 10.275 19.183 9.544 21.887-.51-11.389-11.071-16.861-9.894-21.41-.374-.374-.652-.589.35-.477z" transform="matrix(.85468 -.08383 .08372 .8552 118.518 -58.706)"/><path fill="none" stroke-width=".154" d="M-109.18 127.19c5.601 3.712 9.178 13.677 9.245 20.65" transform="matrix(.85468 -.08383 .08372 .8552 118.518 -58.706)"/></g><g stroke="#346435"><path fill="#468747" stroke-width=".334" d="M-109.55 126.47c11.134 2.195 10.275 19.183 9.544 21.887-.51-11.389-11.071-16.861-9.894-21.41-.374-.374-.652-.589.35-.477z" transform="matrix(-.59055 -.05807 -.05785 .59238 -21.65 -42.197)"/><path fill="none" stroke-width=".223" d="M-109.18 127.19c5.601 3.712 9.178 13.677 9.245 20.65" transform="matrix(-.59055 -.05807 -.05785 .59238 -21.65 -42.197)"/></g><g stroke="#346435"><path fill="#468747" stroke-width=".198" d="M34.136 66.413c-7.893-3.48-8.376 8.048-10.278 13.525 3.65-8.915 15.54-9.52 10.278-13.525z"/><path fill="none" stroke-width=".132" d="M34.008 66.387c-4.977 1.86-8.459 8.75-9.817 12.657"/></g><g stroke="#346435"><path fill="#468747" stroke-width=".276" d="M-152.7 139.17c8.098 2.97.45 11.607-1.98 16.871 3.555-8.953-4.588-17.636 1.98-16.871z" transform="matrix(.56963 -.43946 .43878 .57035 62.701 -112.911)"/><path fill="none" stroke-width=".184" d="M-152.59 139.24c2.295 4.791.023 12.17-1.71 15.926" transform="matrix(.56963 -.43946 .43878 .57035 62.701 -112.911)"/></g><g stroke="#346435"><path fill="#468747" stroke-width=".347" d="M-152.7 139.17c8.098 2.97.45 11.607-1.98 16.871 3.555-8.953-4.588-17.636 1.98-16.871z" transform="matrix(-.45207 -.34934 -.34822 .45338 16.203 -87.93)"/><path fill="none" stroke-width=".231" d="M-152.59 139.24c2.295 4.791.023 12.17-1.71 15.926" transform="matrix(-.45207 -.34934 -.34822 .45338 16.203 -87.93)"/></g><g stroke-width=".149"><g fill="#f6b0fb" stroke="#ef73f8"><path d="M2.52 38.251c.491-.19 2.249.433 2.49.924-.54.218-2.414-.465-2.49-.924zM1.052 37.991c-.444-.281-2.291-.008-2.624.427.486.318 2.459.008 2.624-.427z" transform="matrix(1.25627 -.4353 .43816 1.26454 19.27 -44.458)"/><path d="M2.403 38.261c.496-.052 1.83.979 1.876 1.5-.548.066-1.964-1.052-1.876-1.5z" transform="matrix(1.25627 -.4353 .43816 1.26454 19.27 -44.458)"/><path d="M2.231 38.442c.464-.04 1.044.903.786 1.37-.518.05-1.12-.97-.786-1.37zM1.136 38.059c-.459-.193-2.04.409-2.237.894.505.22 2.19-.44 2.237-.894z" transform="matrix(1.25627 -.4353 .43816 1.26454 19.27 -44.458)"/><path d="M1.148 38.287c-.402-.233-1.335.372-1.306.903.445.266 1.433-.4 1.306-.903z" transform="matrix(1.25627 -.4353 .43816 1.26454 19.27 -44.458)"/><path d="M1.553 38.329c.263.278-.126 1.17-.593 1.262-.298-.307.136-1.257.593-1.262z" transform="matrix(1.25627 -.4353 .43816 1.26454 19.27 -44.458)"/><path d="M1.949 38.437c.35.157.339 1.129-.057 1.39-.394-.17-.363-1.212.057-1.39z" transform="matrix(1.25627 -.4353 .43816 1.26454 19.27 -44.458)"/></g><path fill="#c06218" stroke="#824210" d="M2.037 36.864c.827.179 1.023 1.992-.409 1.676s-.42-1.855.409-1.676z" transform="matrix(1.25627 -.4353 .43816 1.26454 19.27 -44.458)"/></g><path fill="#89a155" stroke="#63753e" stroke-width=".198" d="M23.71 14.966s.253 12.465 2.66 12.661c-1.903-.784-2.323-12.549-2.66-12.66z"/><path fill="#89a155" stroke="#63753e" stroke-width=".198" d="M26.493 9.006c.425 4.365.752 96.703.752 96.703h-.63s-.727-91.717-.122-96.703z"/><g stroke-width=".424"><g fill="#f6b0fb" stroke="#ef73f8"><path d="M90.47 196.26c-.362 1.62-5.743 3.635-7.752 2.731.37-1.807 6.167-3.898 7.752-2.731zM93.101 195.88c1.129-1.22 6.794-.261 8.075 1.53-1.23 1.376-7.293.274-8.075-1.53z" transform="matrix(-.4503 .13086 .13134 .44911 42.173 -91.643)"/><path d="M90.24 196.34c.506 1.582-3.118 6.045-5.308 6.281-.592-1.748 3.353-6.486 5.308-6.281zM93.244 196.18c1.568-.548 6.125 2.956 6.42 5.139-1.732.639-6.573-3.179-6.42-5.139z" transform="matrix(-.4503 .13086 .13134 .44911 42.173 -91.643)"/><path d="M90.853 196.86c1.053 1.284-.672 6.768-2.62 7.795-1.195-1.407.727-7.265 2.62-7.795zM92.883 196.53c1.655.137 4.394 5.191 3.776 7.305-1.842-.12-4.713-5.576-3.776-7.305z" transform="matrix(-.4503 .13086 .13134 .44911 42.173 -91.643)"/><path d="M91.877 196.64c1.483.748 2.125 6.46.759 8.188-1.662-.802-2.276-6.937-.759-8.188z" transform="matrix(-.4503 .13086 .13134 .44911 42.173 -91.643)"/></g><path fill="#c06218" stroke="#824210" d="M91.481 192.46c2.56-.273 4.891 4.838.456 5.29s-3.017-5.017-.456-5.29z" transform="matrix(-.4503 .13086 .13134 .44911 42.173 -91.643)"/></g><g stroke="#346435"><path fill="#468747" stroke-width=".227" d="M-63.137 168.62c5.316 5.754-4.75 4.085-12.634 10.198 8.371-8.708 4.211-14.309 12.634-10.198z" transform="matrix(.87482 0 0 .87535 81.89 -60.82)"/><path fill="none" stroke-width=".151" d="M-63.124 168.65c-1.71.467-12.023 9.496-12.293 9.882" transform="matrix(.87482 0 0 .87535 81.89 -60.82)"/></g><g stroke="#346435"><path fill="#468747" stroke-width=".227" d="M-63.137 168.62c5.316 5.754-4.75 4.085-12.634 10.198 8.371-8.708 4.211-14.309 12.634-10.198z" transform="matrix(.87482 0 0 .87535 82.145 -70.136)"/><path fill="none" stroke-width=".151" d="M-63.124 168.65c-1.71.467-12.023 9.496-12.293 9.882" transform="matrix(.87482 0 0 .87535 82.145 -70.136)"/></g><g stroke="#346435"><path fill="#468747" stroke-width=".265" d="M-63.137 168.62c5.316 5.754-4.75 4.085-12.634 10.198 8.371-8.708 4.211-14.309 12.634-10.198z" transform="matrix(-.74826 0 0 .74838 -20.742 -67.348)"/><path fill="none" stroke-width=".177" d="M-63.124 168.65c-1.71.467-12.023 9.496-12.293 9.882" transform="matrix(-.74826 0 0 .74838 -20.742 -67.348)"/></g><g stroke="#346435"><path fill="#468747" stroke-width=".449" d="M-63.137 168.62c5.316 5.754-4.75 4.085-12.634 10.198 8.371-8.708 4.211-14.309 12.634-10.198z" transform="matrix(.44284 0 0 .44195 54.758 -43.394)"/><path fill="none" stroke-width=".299" d="M-63.124 168.65c-1.71.467-12.023 9.496-12.293 9.882" transform="matrix(.44284 0 0 .44195 54.758 -43.394)"/></g><g stroke="#346435"><path fill="#468747" stroke-width=".328" d="M-63.137 168.62c5.316 5.754-4.75 4.085-12.634 10.198 8.371-8.708 4.211-14.309 12.634-10.198z" transform="matrix(.57712 -.18346 .18313 .57678 32.27 -55.059)"/><path fill="none" stroke-width=".219" d="M-63.124 168.65c-1.71.467-12.023 9.496-12.293 9.882" transform="matrix(.57712 -.18346 .18313 .57678 32.27 -55.059)"/></g><g stroke="#346435"><path fill="#468747" stroke-width=".225" d="M-152.7 139.17c8.098 2.97.45 11.607-1.98 16.871 3.555-8.953-4.588-17.636 1.98-16.871z" transform="matrix(-.21902 -.85267 -.85229 .21941 112.04 -60.36)"/><path fill="none" stroke-width=".15" d="M-152.59 139.24c2.295 4.791.023 12.17-1.71 15.926" transform="matrix(-.21902 -.85267 -.85229 .21941 112.04 -60.36)"/></g><g stroke="#346435"><path fill="#468747" stroke-width=".254" d="M-109.55 126.47c11.134 2.195 10.275 19.183 9.544 21.887-.51-11.389-11.071-16.861-9.894-21.41-.374-.374-.652-.589.35-.477z" transform="matrix(.81719 -.2575 .32636 .64514 75.538 -15.7)"/><path fill="none" stroke-width=".169" d="M-109.18 127.19c5.601 3.712 9.178 13.677 9.245 20.65" transform="matrix(.81719 -.2575 .32636 .64514 75.538 -15.7)"/></g><g stroke="#346435"><path fill="#468747" stroke-width=".262" d="M-109.55 126.47c11.134 2.195 10.275 19.183 9.544 21.887-.51-11.389-11.071-16.861-9.894-21.41-.374-.374-.652-.589.35-.477z" transform="matrix(.74687 -.11513 .11499 .74779 94.719 -34.245)"/><path fill="none" stroke-width=".175" d="M-109.18 127.19c5.601 3.712 9.178 13.677 9.245 20.65" transform="matrix(.74687 -.11513 .11499 .74779 94.719 -34.245)"/></g><g stroke="#346435"><path fill="#468747" stroke-width=".225" d="M-152.7 139.17c8.098 2.97.45 11.607-1.98 16.871 3.555-8.953-4.588-17.636 1.98-16.871z" transform="matrix(-.66644 -.57495 -.57459 .66685 4.912 -113.223)"/><path fill="none" stroke-width=".15" d="M-152.59 139.24c2.295 4.791.023 12.17-1.71 15.926" transform="matrix(-.66644 -.57495 -.57459 .66685 4.912 -113.223)"/></g><g stroke="#346435"><path fill="#468747" stroke-width=".313" d="M-152.7 139.17c8.098 2.97.45 11.607-1.98 16.871 3.555-8.953-4.588-17.636 1.98-16.871z" transform="matrix(-.47919 -.41397 -.41315 .48014 10.56 -87.983)"/><path fill="none" stroke-width=".209" d="M-152.59 139.24c2.295 4.791.023 12.17-1.71 15.926" transform="matrix(-.47919 -.41397 -.41315 .48014 10.56 -87.983)"/></g><g stroke="#346435"><path fill="#468747" stroke-width=".289" d="M-152.7 139.17c8.098 2.97.45 11.607-1.98 16.871 3.555-8.953-4.588-17.636 1.98-16.871z" transform="matrix(.40557 -.555 .55434 .40642 11.315 -92.313)"/><path fill="none" stroke-width=".192" d="M-152.59 139.24c2.295 4.791.023 12.17-1.71 15.926" transform="matrix(.40557 -.555 .55434 .40642 11.315 -92.313)"/></g><g stroke="#346435"><path fill="#468747" stroke-width=".244" d="M-152.7 139.17c8.098 2.97.45 11.607-1.98 16.871 3.555-8.953-4.588-17.636 1.98-16.871z" transform="matrix(.47936 -.65607 .65519 .48044 8.477 -83.468)"/><path fill="none" stroke-width=".163" d="M-152.59 139.24c2.295 4.791.023 12.17-1.71 15.926" transform="matrix(.47936 -.65607 .65519 .48044 8.477 -83.468)"/></g><g stroke="#346435"><path fill="#468747" stroke-width=".332" d="M-109.55 126.47c11.134 2.195 10.275 19.183 9.544 21.887-.51-11.389-11.071-16.861-9.894-21.41-.374-.374-.652-.589.35-.477z" transform="matrix(.5645 -.19231 .19287 .56686 64.289 -55.736)"/><path fill="none" stroke-width=".221" d="M-109.18 127.19c5.601 3.712 9.178 13.677 9.245 20.65" transform="matrix(.5645 -.19231 .19287 .56686 64.289 -55.736)"/></g><path fill="#89a155" stroke="#63753e" stroke-width=".198" d="M29.156 12.634s-.252 12.465-2.66 12.661c1.904-.784 2.324-12.549 2.66-12.66z"/><g stroke-width=".149"><g fill="#f6b0fb" stroke="#ef73f8"><path d="M1.949 38.437c.35.157.339 1.129-.057 1.39-.394-.17-.363-1.212.057-1.39z" transform="matrix(1.3295 0 0 1.3383 26.886 -38.765)"/><path d="M1.553 38.329c.263.278-.126 1.17-.593 1.262-.298-.307.136-1.257.593-1.262zM2.231 38.442c.464-.04 1.044.903.786 1.37-.518.05-1.12-.97-.786-1.37z" transform="matrix(1.3295 0 0 1.3383 26.886 -38.765)"/><path d="M1.148 38.287c-.402-.233-1.335.372-1.306.903.445.266 1.433-.4 1.306-.903zM2.46 38.197c.497-.017 1.755 1.105 1.764 1.628-.552.027-1.885-1.187-1.765-1.628z" transform="matrix(1.3295 0 0 1.3383 26.886 -38.765)"/><path d="M1.092 37.963c-.474-.152-1.996.584-2.15 1.085.523.176 2.143-.629 2.15-1.085zM2.52 38.251c.491-.19 2.249.433 2.49.924-.54.218-2.414-.465-2.49-.924z" transform="matrix(1.3295 0 0 1.3383 26.886 -38.765)"/><path d="M1.052 37.991c-.444-.281-2.291-.008-2.624.427.486.318 2.459.008 2.624-.427z" transform="matrix(1.3295 0 0 1.3383 26.886 -38.765)"/></g><path fill="#c06218" stroke="#824210" d="M2.037 36.864c.827.179 1.023 1.992-.409 1.676s-.42-1.855.409-1.676z" transform="matrix(1.3295 0 0 1.3383 26.886 -38.765)"/></g><g stroke-width=".435"><g fill="#f6b0fb" stroke="#ef73f8"><path d="M90.137 196.01c-.033 1.66-4.905 4.708-7.053 4.222.005-1.846 5.27-5.05 7.053-4.222zM92.815 196.04c1.204-1.145 6.798.173 7.964 2.04-1.316 1.296-7.298-.19-7.964-2.04z" transform="matrix(.45183 -.06807 .0674 .45097 -31.527 -67.884)"/><path d="M93.244 196.18c1.568-.548 6.125 2.956 6.42 5.139-1.732.639-6.573-3.179-6.42-5.139zM90.24 196.34c.506 1.582-3.118 6.045-5.308 6.281-.592-1.748 3.353-6.486 5.308-6.281z" transform="matrix(.45183 -.06807 .0674 .45097 -31.527 -67.884)"/><path d="M92.883 196.53c1.655.137 4.394 5.191 3.776 7.305-1.842-.12-4.713-5.576-3.776-7.305zM90.853 196.86c1.053 1.284-.672 6.768-2.62 7.795-1.195-1.407.727-7.265 2.62-7.795z" transform="matrix(.45183 -.06807 .0674 .45097 -31.527 -67.884)"/><path d="M91.877 196.64c1.483.748 2.125 6.46.759 8.188-1.662-.802-2.276-6.937-.759-8.188z" transform="matrix(.45183 -.06807 .0674 .45097 -31.527 -67.884)"/></g><path fill="#c06218" stroke="#824210" d="M91.481 192.46c2.56-.273 4.891 4.838.456 5.29s-3.017-5.017-.456-5.29z" transform="matrix(.45183 -.06807 .0674 .45097 -31.527 -67.884)"/></g><path fill="#89a155" stroke="#63753e" stroke-width=".198" d="M20.543 10.013s-.286 14.156-3.022 14.379c2.163-.89 2.64-14.252 3.022-14.379z"/><path fill="#89a155" stroke="#63753e" stroke-width=".198" d="M17.688 2.378c-.483 4.663-.856 103.29-.856 103.29h.716s.827-97.96.14-103.29z"/><g stroke-width=".37"><g fill="#f6b0fb" stroke="#ef73f8"><path d="M90.316 195.27c.052 1.66-4.656 4.954-6.826 4.58-.09-1.844 5.002-5.315 6.826-4.58zM93.209 195.31c1.34-.98 6.721 1.042 7.639 3.044-1.47 1.115-7.215-1.125-7.639-3.044z" transform="matrix(.53735 .01854 -.01903 .53581 -27.804 -104.72)"/><path d="M93.394 195.4c1.568-.548 6.125 2.956 6.42 5.139-1.732.639-6.573-3.179-6.42-5.139zM89.862 195.7c.506 1.582-3.118 6.045-5.308 6.281-.592-1.748 3.353-6.486 5.308-6.281z" transform="matrix(.53735 .01854 -.01903 .53581 -27.804 -104.72)"/><path d="M92.883 196.53c1.655.137 4.394 5.191 3.776 7.305-1.842-.12-4.713-5.576-3.776-7.305zM90.481 196.4c1.053 1.284-.672 6.768-2.62 7.795-1.195-1.407.727-7.265 2.62-7.795z" transform="matrix(.53735 .01854 -.01903 .53581 -27.804 -104.72)"/><path d="M91.877 196.64c1.483.748 2.125 6.46.759 8.188-1.662-.802-2.276-6.937-.759-8.188z" transform="matrix(.53735 .01854 -.01903 .53581 -27.804 -104.72)"/></g><path fill="#c06218" stroke="#824210" d="M91.481 192.46c2.56-.273 4.891 4.838.456 5.29s-3.017-5.017-.456-5.29z" transform="matrix(.53735 .01854 -.01903 .53581 -27.804 -104.72)"/></g><g stroke-width=".383"><g fill="#f6b0fb" stroke="#ef73f8"><path d="M90.333 195.67c-.033 1.66-4.904 4.708-7.052 4.222.004-1.846 5.268-5.05 7.052-4.222zM93.066 195.75c1.183-1.167 6.8.045 8 1.89-1.292 1.32-7.3-.053-8-1.89z" transform="matrix(-.51348 -.0773 -.07659 .51218 83.317 -84.082)"/><path d="M93.244 196.18c1.568-.548 6.125 2.956 6.42 5.139-1.732.639-6.573-3.179-6.42-5.139zM90.24 196.34c.506 1.582-3.118 6.045-5.308 6.281-.592-1.748 3.353-6.486 5.308-6.281z" transform="matrix(-.51348 -.0773 -.07659 .51218 83.317 -84.082)"/><path d="M92.883 196.53c1.655.137 4.394 5.191 3.776 7.305-1.842-.12-4.713-5.576-3.776-7.305zM90.853 196.86c1.053 1.284-.672 6.768-2.62 7.795-1.195-1.407.727-7.265 2.62-7.795z" transform="matrix(-.51348 -.0773 -.07659 .51218 83.317 -84.082)"/><path d="M91.877 196.64c1.483.748 2.125 6.46.759 8.188-1.662-.802-2.276-6.937-.759-8.188z" transform="matrix(-.51348 -.0773 -.07659 .51218 83.317 -84.082)"/></g><path fill="#c06218" stroke="#824210" d="M91.481 192.46c2.56-.273 4.891 4.838.456 5.29s-3.017-5.017-.456-5.29z" transform="matrix(-.51348 -.0773 -.07659 .51218 83.317 -84.082)"/></g><g stroke="#346435"><path fill="#468747" stroke-width=".2" d="M-63.137 168.62c5.316 5.754-4.75 4.085-12.634 10.198 8.371-8.708 4.211-14.309 12.634-10.198z" transform="matrix(.99419 0 0 .99417 79.756 -72.087)"/><path fill="none" stroke-width=".133" d="M-63.124 168.65c-1.71.467-12.023 9.496-12.293 9.882" transform="matrix(.99419 0 0 .99417 79.756 -72.087)"/></g><g stroke="#346435"><path fill="#468747" stroke-width=".2" d="M-63.137 168.62c5.316 5.754-4.75 4.085-12.634 10.198 8.371-8.708 4.211-14.309 12.634-10.198z" transform="matrix(-.99419 0 0 .99417 -45.052 -93.327)"/><path fill="none" stroke-width=".133" d="M-63.124 168.65c-1.71.467-12.023 9.496-12.293 9.882" transform="matrix(-.99419 0 0 .99417 -45.052 -93.327)"/></g><g stroke="#346435"><path fill="#468747" stroke-width=".233" d="M-63.137 168.62c5.316 5.754-4.75 4.085-12.634 10.198 8.371-8.708 4.211-14.309 12.634-10.198z" transform="matrix(.85036 0 0 .84996 71.368 -90.883)"/><path fill="none" stroke-width=".156" d="M-63.124 168.65c-1.71.467-12.023 9.496-12.293 9.882" transform="matrix(.85036 0 0 .84996 71.368 -90.883)"/></g><g stroke="#346435"><path fill="#468747" stroke-width=".395" d="M-63.137 168.62c5.316 5.754-4.75 4.085-12.634 10.198 8.371-8.708 4.211-14.309 12.634-10.198z" transform="rotate(8.415 422.647 -39.738)scale(-.50326 .50194)"/><path fill="none" stroke-width=".263" d="M-63.124 168.65c-1.71.467-12.023 9.496-12.293 9.882" transform="rotate(8.415 422.647 -39.738)scale(-.50326 .50194)"/></g><g stroke="#346435"><path fill="#468747" stroke-width=".289" d="M-63.137 168.62c5.316 5.754-4.75 4.085-12.634 10.198 8.371-8.708 4.211-14.309 12.634-10.198z" transform="rotate(17.625 253.663 -2.588)scale(-.68816 .68733)"/><path fill="none" stroke-width=".192" d="M-63.124 168.65c-1.71.467-12.023 9.496-12.293 9.882" transform="rotate(17.625 253.663 -2.588)scale(-.68816 .68733)"/></g><g stroke="#346435"><path fill="#468747" stroke-width=".198" d="M17.484 93.512c6.613-5.537 10.284 5.4 13.634 10.132-5.986-7.547-17.574-4.822-13.634-10.132z"/><path fill="none" stroke-width=".132" d="M17.6 93.451c5.297.402 10.558 6.052 12.949 9.427"/></g><g stroke="#346435"><path fill="#468747" stroke-width=".19799802000000002" d="M16.685 82.652C5.342 82.314 2.398 99.067 2.51 101.865c3.031-10.99 14.547-13.973 14.411-18.67.448-.28.767-.428-.235-.543z"/><path fill="none" stroke-width=".13199868" d="M16.164 83.272c-6.286 2.371-11.992 11.29-13.61 18.073"/></g><g stroke="#346435"><path fill="#468747" stroke-width=".231" d="M-109.55 126.47c11.134 2.195 10.275 19.183 9.544 21.887-.51-11.389-11.071-16.861-9.894-21.41-.374-.374-.652-.589.35-.477z" transform="matrix(.84877 -.13076 .13068 .84929 94.51 -63.26)"/><path fill="none" stroke-width=".154" d="M-109.18 127.19c5.601 3.712 9.178 13.677 9.245 20.65" transform="matrix(.84877 -.13076 .13068 .84929 94.51 -63.26)"/></g><g stroke="#346435"><path fill="#468747" stroke-width=".198" d="M17.145 66.316c-8.073-3.04-7.92 8.497-9.518 14.07 3.155-9.102 14.992-10.36 9.518-14.07z"/><path fill="none" stroke-width=".132" d="M17.016 66.297c-4.867 2.13-7.964 9.202-9.105 13.178"/></g><g stroke="#346435"><path fill="#468747" stroke-width=".276" d="M-152.7 139.17c8.098 2.97.45 11.607-1.98 16.871 3.555-8.953-4.588-17.636 1.98-16.871z" transform="matrix(.54457 -.47016 .46952 .54532 35.793 -114.31)"/><path fill="none" stroke-width=".184" d="M-152.59 139.24c2.295 4.791.023 12.17-1.71 15.926" transform="matrix(.54457 -.47016 .46952 .54532 35.793 -114.31)"/></g><g stroke="#346435"><path fill="#468747" stroke-width=".254" d="M-152.7 139.17c8.098 2.97.45 11.607-1.98 16.871 3.555-8.953-4.588-17.636 1.98-16.871z" transform="matrix(-.46091 -.63033 -.62997 .46159 34.936 -119.24)"/><path fill="none" stroke-width=".169" d="M-152.59 139.24c2.295 4.791.023 12.17-1.71 15.926" transform="matrix(-.46091 -.63033 -.62997 .46159 34.936 -119.24)"/></g><g stroke="#346435"><path fill="#468747" stroke-width=".292" d="M-109.55 126.47c11.134 2.195 10.275 19.183 9.544 21.887-.51-11.389-11.071-16.861-9.894-21.41-.374-.374-.652-.589.35-.477z" transform="rotate(18.802 216.568 -114.247)scale(-.67768 .68009)"/><path fill="none" stroke-width=".195" d="M-109.18 127.19c5.601 3.712 9.178 13.677 9.245 20.65" transform="rotate(18.802 216.568 -114.247)scale(-.67768 .68009)"/></g><path fill="#89a155" stroke="#63753e" stroke-width=".198" d="M14.61 8.693s.286 14.156 3.022 14.379c-2.163-.89-2.64-14.252-3.022-14.38z"/><g stroke-width=".412"><path fill="#c06218" stroke="#824210" d="M80.247 161.48c2.818-.36 6.994 4.76.918 5.676s-3.736-5.316-.918-5.676z" transform="matrix(.48307 0 0 .47949 -24.461 -70.52)"/><g fill="#f6b0fb" stroke="#ef73f8"><path d="M77.575 165.62c-2.483 2.205-5.574 6.212-7.488 6.435.657-2.266 5.615-8.91 7.488-6.435zM84.051 164.89c2.483 2.205 5.929 5.724 7.947 5.455-.657-2.265-6.075-7.93-7.947-5.455z" transform="matrix(.48307 0 0 .47949 -24.461 -70.52)"/><path d="M78.315 166.01c1.852.871-2.645 7.161-4.678 7.507-.772-2.14 3.032-9.654 4.678-7.507z" transform="matrix(.48307 0 0 .47949 -24.461 -70.52)"/><path d="M79.646 166.76c1.929-1.325 1.676 6.644-.26 8.215-2.001-1.32-1.793-9.887.26-8.215zM83.576 165.36c-1.836.92 3.749 7.105 5.893 7.494.588-2.292-4.398-9.786-5.893-7.494z" transform="matrix(.48307 0 0 .47949 -24.461 -70.52)"/><path d="M82.571 166.43c1.072-2.195 3.475 6.37 2.091 8.458-2.184-.711-4.695-9.72-2.091-8.458z" transform="matrix(.48307 0 0 .47949 -24.461 -70.52)"/></g></g></g></svg>