<svg xmlns="http://www.w3.org/2000/svg" xml:space="preserve" width="128" height="128" viewBox="0 0 33.867 33.867"><g transform="translate(-150.57 -169.246)"><rect width="29.878" height="33.867" x="154.559" y="169.246" rx="8.215" ry="4.641" style="fill:#000;stroke-width:.264583"/><ellipse cx="155.798" cy="174.971" rx="4.638" ry="2.425" style="fill:none;stroke:#000;stroke-width:1.18001;stroke-dasharray:none;stroke-opacity:1"/><ellipse cx="155.798" cy="179.578" rx="4.638" ry="2.425" style="fill:none;stroke:#000;stroke-width:1.18001;stroke-dasharray:none;stroke-opacity:1"/><ellipse cx="155.798" cy="188.79" rx="4.638" ry="2.425" style="fill:none;stroke:#000;stroke-width:1.18001;stroke-dasharray:none;stroke-opacity:1"/><ellipse cx="155.798" cy="184.184" rx="4.638" ry="2.425" style="fill:none;stroke:#000;stroke-width:1.18001;stroke-dasharray:none;stroke-opacity:1"/><ellipse cx="155.798" cy="193.397" rx="4.638" ry="2.425" style="fill:none;stroke:#000;stroke-width:1.18001;stroke-dasharray:none;stroke-opacity:1"/><ellipse cx="155.798" cy="198.003" rx="4.638" ry="2.425" style="fill:none;stroke:#000;stroke-width:1.18001;stroke-dasharray:none;stroke-opacity:1"/><path d="M158.918 189.629c-.64-2.004 7.015-1.337 7.027-3.444s-7.65-1.417-6.988-3.422 6.43 3.038 7.678 1.331-5.324-5.65-3.613-6.892 3.39 6.252 5.397 5.598c2.007-.655-.965-7.727 1.141-7.73 2.107-.003-.945 7.078 1.055 7.726 2 .649 3.763-6.851 5.46-5.615s-4.919 5.2-3.69 6.904 7.053-3.359 7.693-1.356-7.015 1.337-7.026 3.445 7.65 1.416 6.988 3.421-6.43-3.038-7.679-1.33c-1.247 1.706 5.325 5.65 3.614 6.891-1.711 1.242-3.39-6.252-5.398-5.598-2.007.655.966 7.727-1.14 7.73-2.107.003.944-7.078-1.056-7.726s-3.762 6.851-5.46 5.615 4.92-5.2 3.691-6.904-7.054 3.36-7.694 1.356" style="fill:none;stroke:#fecd01;stroke-width:2.52921;stroke-linecap:round;stroke-linejoin:round;stroke-dasharray:none"/></g></svg>