<svg xmlns="http://www.w3.org/2000/svg" xml:space="preserve" width="53.657" height="49.749" viewBox="0 0 14.197 13.163"><g stroke-linecap="round"><g stroke="#405831"><g stroke-width="2.085"><path fill="#64884b" stroke-width=".413" d="M12.496 43.508c-2.084-.43-2.253-1.728-2.253-1.728s.53.134.562.023c-.477-.493-.405-1.62-.405-1.62s.355.148.45.18c-.381-.716-.247-2.182-.247-2.182s.242.132.337.18c-.143-.62.203-1.732.203-1.732s.284.196.36.225c-.096-.398.073-1.065.073-1.065s.28.287.36.383c.143-.525.133-.914.133-.914s.445.195.54.45c.127-.207.203-.293.203-.293.35.35.382.945.382.945l.135-.315c.27.605.135 1.462.135 1.462l.202-.18c.27.589.09 1.867.09 1.867l.248-.157c.207.509-.315 1.462-.315 1.462l.39-.225c.096 1.336-1.583 3.234-1.583 3.234z" transform="matrix(-.14818 .45607 .4567 .14682 -6.126 -3.385)"/><path fill="none" stroke-width=".276" d="M12.484 43.501c-1.686-1.972-.21-6.439-.286-7.962" transform="matrix(-.14818 .45607 .4567 .14682 -6.126 -3.385)"/><path fill="#64884b" stroke-width=".414" d="M12.743 43.508c.017-.077.152-1.02.395-1.786.128-.402.266-.482.458-.3.15-.283.34-.716.483-.667.924.287 2.855 2.685 2.174 3.133-.54.082-.912-.075-.974-.077.048.224-.077.349-.274.338-.416.033-1.408-.183-2.262-.641z" transform="matrix(.4536 -.15492 .1534 .45477 -.445 -9.126)"/><path fill="none" stroke-width=".276" d="M12.786 43.453c1.588-.837 1.497-.954 2.914-1.39" transform="matrix(.4536 -.15492 .1534 .45477 -.445 -9.126)"/><path fill="#64884b" stroke-width=".414" d="M-.079 51.043s.653 1.237.383 3.206H0s-.034.674-.191.888l-.281-.022s-.113.764-.327.9l-.292-.124s-.169.832-.405 1.023l-.247-.157s-.203.663-.428.787l-.157-.169s-.486.634-.709.506c.084-.633-.588-.527-.123-1.342l-.518-.09c-.09-.236.225-.686.225-.686l-.382-.123c-.045-.192.46-.664.46-.664l-.415-.135c-.012-.236.55-.574.55-.574l-.483-.067c.034-.337.754-.754.754-.754l-.259-.18c.776-1.45 3.15-2.223 3.15-2.223z" transform="matrix(-.47234 .07989 .07858 .47374 7.901 -15.377)"/><path fill="none" stroke-width=".276" d="M-.112 51.077c-.44.349-3.089 4.695-2.925 6.783" transform="matrix(-.47234 .07989 .07858 .47374 7.901 -15.377)"/></g><path fill="#64884b" stroke-width=".166" d="M10.093 5.009c-1.11-1.658 1.228-3.912 1.228-3.912S8.715 2.95 9.904 5.019c.195-.006.072-.024.189-.01z" transform="matrix(.98984 .6656 -.66943 .99333 1.446 .147)"/></g><g stroke="#405831"><g stroke-width="1.723"><path fill="#64884b" stroke-width=".341" d="M12.496 43.508c-2.084-.43-2.253-1.728-2.253-1.728s.53.134.562.023c-.477-.493-.405-1.62-.405-1.62s.355.148.45.18c-.381-.716-.247-2.182-.247-2.182s.242.132.337.18c-.143-.62.203-1.732.203-1.732s.284.196.36.225c-.096-.398.073-1.065.073-1.065s.28.287.36.383c.143-.525.133-.914.133-.914s.445.195.54.45c.127-.207.203-.293.203-.293.35.35.382.945.382.945l.135-.315c.27.605.135 1.462.135 1.462l.202-.18c.27.589.09 1.867.09 1.867l.248-.157c.207.509-.315 1.462-.315 1.462l.39-.225c.096 1.336-1.583 3.234-1.583 3.234z" transform="matrix(-.05958 .62283 -.53405 -.07093 31.37 1.936)"/><path fill="none" stroke-width=".228" d="M12.484 43.501c-1.686-1.972-.21-6.439-.286-7.962" transform="matrix(-.05958 .62283 -.53405 -.07093 31.37 1.936)"/><path fill="#64884b" stroke-width=".342" d="M12.743 43.508c.017-.077.152-1.02.395-1.786.128-.402.266-.482.458-.3.15-.283.34-.716.483-.667.924.287 2.855 2.685 2.174 3.133-.54.082-.912-.075-.974-.077.048.224-.077.349-.274.338-.416.033-1.408-.183-2.262-.641z" transform="matrix(-.39139 -.42857 -.36683 .459 28.224 -7.957)"/><path fill="none" stroke-width=".228" d="M12.786 43.453c1.588-.837 1.497-.954 2.914-1.39" transform="matrix(-.39139 -.42857 -.36683 .459 28.224 -7.957)"/><path fill="#64884b" stroke-width=".342" d="M-.079 51.043s.653 1.237.383 3.206H0s-.034.674-.191.888l-.281-.022s-.113.764-.327.9l-.292-.124s-.169.832-.405 1.023l-.247-.157s-.203.663-.428.787l-.157-.169s-.486.634-.709.506c.084-.633-.588-.527-.123-1.342l-.518-.09c-.09-.236.225-.686.225-.686l-.382-.123c-.045-.192.46-.664.46-.664l-.415-.135c-.012-.236.55-.574.55-.574l-.483-.067c.034-.337.754-.754.754-.754l-.259-.18c.776-1.45 3.15-2.223 3.15-2.223z" transform="matrix(.44522 .3493 -.29923 .52185 22.594 -19.894)"/><path fill="none" stroke-width=".228" d="M-.112 51.077c-.44.349-3.089 4.695-2.925 6.783" transform="matrix(.44522 .3493 -.29923 .52185 22.594 -19.894)"/></g><path fill="#64884b" stroke-width=".137" d="M-.657 1.513c-.42-1.74-.178-3.26-.178-3.26s-.532 1.293-.011 3.27c.195-.006.071-.024.189-.01z" transform="matrix(-1.3181 .25994 .22411 1.5431 6.62 9.617)"/></g><path fill="#8fab44" stroke="#6b8033" stroke-width=".198" d="M7.963 11.735c.146.548.592.937.73 1.321-1.108.011-1.387 0-1.387 0 .167-.466.561-.916.657-1.321z"/></g><g stroke-linecap="round"><path fill="#8fab44" stroke="#6b8033" stroke-width=".198" d="M10.446 4.563c-1.84 1.274-2.12 6.787-2 8.21-.614-.594-.075-7.572 2-8.21z"/><g stroke="#46722c" stroke-width="3.052"><path fill="#68a73f" stroke-width=".606" d="M75.536 75.632c-2.386.127-4.167-7.126-4.104-7.412h.446s-.923-.923-.923-1.273l.604.064s-.954-.668-.986-.986h.573s-.954-.478-1.082-1.05l.732.127s-.795-.477-.89-.986h.381s-.255-.445-.16-.827l.574.127.254-.318.573-.255.35.35.477-.731.382.636.381-1.273c.668.35 1.368 1.623 1.368 1.623l.286-.414c.732.255.987 1.718.987 1.718l.509-.35c.7 1.05.731 2.545.731 2.545l.764-.668s1.718 8.94-2.227 9.353z" transform="matrix(-.31786 .0741 .07454 .32035 28.446 -25.07)"/><path fill="none" stroke-width=".404" d="M71.886 63.201s4.072 9.842 3.658 12.419" transform="matrix(-.31786 .0741 .07454 .32035 28.446 -25.07)"/><path fill="#68a73f" stroke-width=".606" d="M42.144 89.712c-.45-4.769-3.6-7.626-3.6-7.626l-.157.428s-.405-.9-1.034-1.462l-.315.54s-.788-.945-1.305-.968l-.023.697s-1.237-.787-1.62-.674l.113.877s-1.372-.877-2.024-.652l.202.54s-1.173-.45-1.623-.337l.296 1.101-.382-.112c-1.325-.336-1.405-.636-.885.368-1.906-.139-1.42 1.507-1.42 1.507.045.315.46.802.46.802l-.34.422c.495.315 1.871.478 1.871.478l-.271.472c.363.274 1.664.09 1.664.09l-.404.36c.16.622 2.069.63 2.069.63l-.247.224c.337.405 1.8.743 1.8.743l-.18.27c.337.27 1.551.405 1.551.405l-.157.337c.225.225 1.62.225 1.62.225l-.068.292c2.857.765 4.409.023 4.409.023z" transform="matrix(-.31786 .0741 .07454 .32035 16.755 -27.128)"/><path fill="none" stroke-width=".404" d="M28.501 83.232c4.528 1.023 11.393 5.715 13.552 6.457" transform="matrix(-.31786 .0741 .07454 .32035 16.755 -27.128)"/><path fill="#68a73f" stroke-width=".606" d="M42.547 90.456s-1.718-1.654-2.354 0l.636.255s-.604.254-.7.795l.637.19s-.287.796-.032 1.146l.54-.096s-.318.637-.095 1.05l.54-.127s-.349.636-.095.89h.319s-.128.382.143.637l.334.048s-.191.493.111.81c0 0 .207-.03.652.128 0 0-.35.318-.127 1.114l.414-.223s0 .604.35.795l.54-.286s.16.859.541.986c.54-.19.445-1.082.445-1.082l.891.446c.477-.318.414-1.527.414-1.527l.604.095c.382-.381.223-1.559.223-1.559l.859-.254c.032-.923-.732-1.718-.732-1.718l.764-.413c-.096-.891-1.177-.86-1.177-.86l.731-.477c.032-.572-.922-.572-.922-.572l.54-.382c.223-.636-.731-.604-.731-.604l.604-.987c-.159-.509-1.081 0-1.081 0l.286-.636c-1.845-.668-4.072 2.418-4.072 2.418z" transform="matrix(-.31786 .0741 .07454 .32035 16.89 -27.374)"/><path fill="none" stroke-width=".404" d="M42.52 90.449c.461.589 2.349 5.161 2.38 8.056" transform="matrix(-.31786 .0741 .07454 .32035 16.89 -27.374)"/></g><path fill="#8fab44" stroke="#6b8033" stroke-width=".198" d="M4.849 6.928c1.903.186 3.022 5.257 2.662 6.045.752-.666-.424-6.216-2.662-6.045z"/><g stroke="#46722c" stroke-width="4.357"><path fill="#68a73f" stroke-width=".865" d="M-58.677 62.741c2.252-1.168.047-5.91 6.182-8.157 3.81-1.396 11.455.036 12.856 1.417-.978.429-1.545.945-1.545.945l.998.756c-1.125.315-2.42.453-2.42.453l.8.447c-1.214.36-2.879.63-2.879.63l1.44.855c-1.08.315-3.014.18-3.014.18l.72.63c-1.62 1.35-13.138 1.844-13.138 1.844z" transform="matrix(-.22889 0 0 .23013 -8.626 -7.419)"/><path fill="none" stroke-width=".576" d="M-58.453 62.628c1.365-1.101 7.034-8.147 18.357-6.76" transform="matrix(-.22889 0 0 .23013 -8.626 -7.419)"/><path fill="#68a73f" stroke-width=".865" d="M-59.352 62.403c2.25-6.119-4.724-14.599-4.724-14.599l-.292.495s-.608-1.26-1.283-1.485l-.045.315c.008.008-1.055-.97-2.024-1.125l-.045.765s-1.327-1.62-2.744-1.89v.406s-.788-.563-1.395-.495v.36s-.945-.45-1.53-.18l.225.36s-.607-.27-.81-.225l.315.54-.72.18c0 .472 1.17 1.08 1.17 1.08l-.54.18c.293.539 1.17.899 1.17.899l-.855-.045c.36 1.012 1.62 1.485 1.62 1.485l-.765.36c7.243 6.883 7.378 4.678 13.272 12.62z" transform="matrix(-.22889 0 0 .23013 -8.74 -7.419)"/><path fill="none" stroke-width=".576" d="M-59.397 62.223c-3.937-7.513-11.978-14.745-14.993-16.342" transform="matrix(-.22889 0 0 .23013 -8.74 -7.419)"/><path fill="#68a73f" stroke-width=".865" d="M-59.105 63.101c3.892-1.62 7.04 3.914 7.04 3.914l-.652.023s.585.944.293 2.07l-1.282-1.148s.247 1.664-.068 2.924l-.945-.54s.428 2.092.135 2.835l-.674-.765s.27 2.16-.293 3.374l-.877-.967s.157 2.25-.518 3.194l-.854-1.035s-.383 1.552-1.26 2.25c0 0-.697-.248-.765-.473-.135.293-.787.405-.787.405-.653-.27-.743-1.214-.967-1.62-.203.203-1.08.023-1.08.023-.563-.337-.315-1.89-.315-1.89l-1.012-.09c-.315-1.304.112-2.204.112-2.204l-.765.315c-.405-1.597-.247-2.97-.247-2.97s1.395-8.637 5.78-7.625z" transform="matrix(-.22889 0 0 .23013 -8.74 -7.419)"/><path fill="none" stroke-width=".576" d="M-59.099 63.095c-1.5 1.625-1.13 14.717-.748 15.639" transform="matrix(-.22889 0 0 .23013 -8.74 -7.419)"/></g><path fill="#8fab44" stroke="#6b8033" stroke-width=".198" d="M3.089 3.47c.954.094 1.296.283 1.518.377.105.044 2.516 1.174 3.598 8.155.055-3.62-1.543-6.886-3.18-8.235.145-.184.39-.134 1.322-1.598-1.031 1.152-1.194 1.13-1.414 1.343-.148-.51-.44-1.595-.596-1.595.27 1.421.227 1.22.346 1.645-.336-.035-1.337-.338-1.594-.092z"/><path fill="#edecfe" stroke="#acacac" stroke-width=".3" d="M50.847 40.538c-.866-.739.856-1.888.991-.38 1.096-1.272 1.513.195.303.657 2.045.082.031 1.344-.543.647.198.595-2.264.061-.626-.093-2.201-.226-1.137-1.97-.125-.831z" transform="matrix(.66314 0 0 .65942 -29.795 -25.29)"/><path fill="#f6e286" stroke="#e4bd5f" stroke-width=".2" d="M51.117 41.246c-.054-.135-.372.123-.397-.02-.024-.142.362-.001.369-.146.006-.144-.392-.036-.355-.176s.332.143.397.013-.342-.19-.251-.303.244.264.357.172-.234-.31-.104-.378c.13-.067.114.339.255.3s-.085-.378.061-.387-.036.355.11.376c.145.021.077-.379.215-.328s-.18.31-.055.387c.124.077.227-.315.332-.214s-.292.211-.21.332c.081.12.338-.197.392-.063.054.135-.348.075-.33.219.033.244-.723.434-.786.216z" transform="matrix(.66314 0 0 .65942 -29.795 -25.29)"/><path fill="#edecfe" stroke="#acacac" stroke-width=".836" d="M56.739 52.603c1.53-4.814-5.331-2.047-1.147.967-5.061-2.654-1.687 4.207.18 1.17-3.42 3.532 3.936 5.399 1.282.225 2.114 4.769 6.816-.81 1.192-1.485 4.657-.697-.45-6.928-1.507-.877z" transform="matrix(-.21823 .09372 -.09408 -.21775 20.723 9.599)"/><path fill="#f6e286" stroke="#e4bd5f" stroke-width=".812" d="M-95.479 39.481c-.3.309-.648-.786-1.018-.566s.428 1.047.014 1.165c-.415.117-.168-1.005-.599-1-.43.007-.153 1.122-.57 1.016-.418-.105.357-.954-.02-1.164s-.692.894-1.001.594c-.31-.3.786-.648.566-1.018s-1.048.428-1.165.014c-.117-.415 1.005-.168.999-.6-.006-.43-1.121-.152-1.015-.57.105-.417.954.358 1.164-.019s-.895-.692-.594-1.001c.3-.31.648.786 1.018.566s-.429-1.048-.014-1.165.168 1.005.599.999.152-1.121.57-1.016c.418.106-.357.955.02 1.165.376.21.692-.895 1.001-.594.309.3-.786.648-.566 1.018s1.047-.429 1.165-.014c.117.415-1.005.168-1 .599.007.43 1.122.152 1.016.57-.105.418-.954-.357-1.164.02-.21.375.894.692.594 1.001z" transform="matrix(-.14974 .0643 -.06455 -.14941 -8.85 15.07)"/><path fill="#edecfe" stroke="#acacac" stroke-width=".875" d="M56.739 52.603c1.53-4.814-5.331-2.047-1.147.967-5.061-2.654-1.687 4.207.18 1.17-3.42 3.532 3.936 5.399 1.282.225 2.114 4.769 6.816-.81 1.192-1.485 4.657-.697-.45-6.928-1.507-.877z" transform="matrix(.2258 .02334 .02353 -.22527 -8.088 13.26)"/><path fill="#f6e286" stroke="#e4bd5f" stroke-width=".85" d="M-95.479 39.481c-.3.309-.648-.786-1.018-.566s.428 1.047.014 1.165c-.415.117-.168-1.005-.599-1-.43.007-.153 1.122-.57 1.016-.418-.105.357-.954-.02-1.164s-.692.894-1.001.594c-.31-.3.786-.648.566-1.018s-1.048.428-1.165.014c-.117-.415 1.005-.168.999-.6-.006-.43-1.121-.152-1.015-.57.105-.417.954.358 1.164-.019s-.895-.692-.594-1.001c.3-.31.648.786 1.018.566s-.429-1.048-.014-1.165.168 1.005.599.999.152-1.121.57-1.016c.418.106-.357.955.02 1.165.376.21.692-.895 1.001-.594.309.3-.786.648-.566 1.018s1.047-.429 1.165-.014c.117.415-1.005.168-1 .599.007.43 1.122.152 1.016.57-.105.418-.954-.357-1.164.02-.21.375.894.692.594 1.001z" transform="matrix(.15494 .01602 .01614 -.15457 20.443 9.834)"/><path fill="#8fab44" stroke="#6b8033" stroke-width=".198" d="M8.073 12.638c-.152-.887-.287-.992-.477-1.106-1.141-.688-3.3 1.712-5.55 1.5l.047-.143c2.693-.134 3.93-2.158 5.495-1.622.157.054.588.473.485 1.37z"/><g stroke="#405831" stroke-width="3.652"><path fill="#64884b" stroke-width=".723" d="M12.496 43.508c-2.084-.43-3.104-3.307-3.104-3.307s.53.134.562.023c-.477-.493-.405-1.62-.405-1.62s.355.148.45.18c-.382-.716-.247-2.182-.247-2.182s.242.132.337.18c-.143-.62.202-1.732.202-1.732s.284.196.36.225c-.095-.398.293-1.215.293-1.215s.28.287.36.383c.143-.525.652-.99.652-.99s.445.195.54.45c.127-.207.202-.293.202-.293.35.35.383.945.383.945l.135-.315c.27.605.135 1.462.135 1.462l.202-.18c.27.589.09 1.868.09 1.868l.248-.158c.206.51-.315 1.462-.315 1.462l.39-.225c.096 1.336-1.47 5.04-1.47 5.04z" transform="matrix(-.22465 .15511 .15523 .22664 -2.208 1.223)"/><path fill="none" stroke-width=".483" d="M12.484 43.501c-1.686-1.972-.668-8.68-.509-10.053" transform="matrix(-.22465 .15511 .15523 .22664 -2.208 1.223)"/><path fill="#64884b" stroke-width=".725" d="M12.743 43.508s.72-2.26 1.743-3.78c.102.17.236.383.236.383s.44-.978 1.08-1.282l.169.259s.619-.653 1.26-.799l.236.473s.888-.574 1.372-.462l.068.484s.753-.472 1.822-.27l-.135.383s1 .022 1.428.618c-.101.596-.844 1.035-.844 1.035l.304.112c-.36.507-1.54.732-1.54.732l.337.224c-.169.35-1.148.473-1.148.473l.237.079c-.203.36-1.181.46-1.181.46l.18.158c-.293.416-1.451.326-1.451.326l.28.17c-1.439 1.113-4.453.224-4.453.224z" transform="matrix(.12299 -.24372 .2457 .12284 -10.342 10.783)"/><path fill="none" stroke-width=".483" d="M12.786 43.453c3.102-2.386 6.394-3.404 9.226-3.929" transform="matrix(.12299 -.24372 .2457 .12284 -10.342 10.783)"/><path fill="#64884b" stroke-width=".725" d="M.301 50.685s.653 1.237.383 3.206H.38s-.034.674-.191.888l-.281-.022s-.113.764-.327.9l-.292-.124s-.169.832-.405 1.023l-.247-.157s-.203.663-.428.787l-.157-.169s-.486.634-.709.506c-.238-.142-.413-.43-.225-.798l-.416-.068c-.18-.247.236-.73.236-.73l-.517-.09c-.09-.237.225-.687.225-.687l-.383-.124c-.045-.19.462-.663.462-.663l-.417-.135c-.01-.236.552-.574.552-.574l-.484-.067c.034-.338.754-.754.754-.754l-.26-.18c.777-1.45 3.431-1.968 3.431-1.968z" transform="matrix(.0832 .26023 .26099 -.08503 -11.413 17.277)"/><path fill="none" stroke-width=".483" d="M-.112 51.077c-.44.349-3.089 4.695-2.925 6.783" transform="matrix(.0832 .26023 .26099 -.08503 -11.413 17.277)"/></g></g></svg>