<svg xmlns="http://www.w3.org/2000/svg" xml:space="preserve" width="57.611" height="57.695" viewBox="0 0 15.243 15.265"><g fill="#44803d" stroke-width=".466"><path d="M9.415 12.387c.27.354.21 1.038.331.998.067-.025.176-.324.176-.324-.026.14.069.396.195.525.25-.104.098-.55.176-.643 0 0 .274.685.494.824.113-.094.023-.365.06-.372 0 0 .19.364.319.304l.027-.122s.144.065.179.034c.031-.168-.261-.369-.261-.369s.214.06.229.026c.018-.314-.539-.399-.606-.48.038-.076.509.08.508-.026.02-.1-.433-.318-.433-.318s.162-.126.041-.2c-.228.08-.955-.391-1.436.143M10.716 11.109c.791.23 1.103 1.258 1.417 1.14.135.027.086-.316.086-.316s.286.285.487.22c.073-.07-.132-.37-.132-.37s.563.257.778.179c.14-.098-.087-.318-.087-.318s.457.198.553.174c.064-.198-.414-.436-.414-.436.318-.064.42-.377-.445-.185 0 0 .368-.125.373-.166-.004-.131-.365-.105-.365-.105-.054-.042.087-.165-.015-.19-.343.31-.93-.265-1.9.048zM11.847 9.931c1.435-.05 1.944.534 2.005.516.04-.033-.095-.32-.095-.32s.332.287.519.267l-.027-.164s.154-.009.187-.057c.024-.064-.196-.357-.196-.357s.457.013.459-.134c.027-.046-.05-.159-.05-.159s.246-.139.235-.21c-.023-.057-.395-.114-.395-.114s.223-.134.19-.2c-.064-.062-.346.007-.346.007s.005-.187-.068-.22c-.114-.01.069.334-2.002.582 0 0-.432.508-.416.563M9.368 12.308c-.223.089-.456.016-.558.01-.266-.017-.488.01-.511-.027.007-.06.09-.11.09-.11s-.27-.065-.267-.149c.158-.056.318-.269.71-.174-.23-.04-.818-.209-.811-.27.025-.063.222-.088.222-.088s-.13-.29-.057-.333.38.097.38.097-.054-.143-.011-.159c.08-.041.434.254.434.254s-.083-.224-.043-.245c.064-.028.092.078.127.08.018.011.068-.11.131-.098.063 0 .09.214.09.214s.11-.145.184-.138c.084.065-.188.947.03 1zM10.431 11.197c-.141.111-.316-.264-.473-.368-.276-.183-.501-.218-.618-.323-.009-.091.38-.15.38-.15s-.38-.123-.43-.219c.025-.064.225-.045.225-.045s-.144-.206-.12-.27c.354-.08.76.342.76.342.066-.047-.566-.758-.284-1.087.167-.035.326.214.326.214s-.044-.32.064-.433c.038-.013.094.072.094.072s.069-.225.15-.254c.086.07.067.442.067.442s.142-.194.168-.131c.105.093-.082.608-.082.608s.316-.239.38-.201c.04.055-.086.342-.086.342s.187-.045.213.018c.031.073-.366.269-.361.56.006.337-.26.622-.195.697zM11.484 10.117c.022-.405-.613-1.197-.612-1.293.02-.048.273 0 .273 0s-.253-.271-.28-.372c.026-.05.19-.014.19-.014s-.081-.295-.013-.35c.191-.072.449.418.449.418.05-.025-.295-.636-.018-1.013.086-.006.169.18.169.18s.116-.282.176-.287c.096-.011.098.19.098.19s.103-.109.161-.07c.105.08-.1.51-.1.51s.282-.266.354-.213c.119.046-.05.324-.05.324l.187-.02c.046.053-.325.39-.445 1.054-.026.143-.316.734-.316.734z"/><path d="M11.85 9.911c1.726.01 1.87.636 1.975.57.093-.03-.024-.306-.024-.306s.362.246.447.19c.038-.013-.011-.147-.011-.147s.169-.004.204-.022c.047-.094-.208-.344-.208-.344s.472-.033.494-.14c.027-.07-.136-.215-.136-.215s.227-.015.231-.12c.019-.174-.35-.175-.35-.175s.248-.121.238-.192c-.081-.151-1.588.145-2.137.232.07-.15.69-.295 1.118-.34.612-.065.954.026 1.076.009.035-.036-.01-.142-.01-.142s.317-.061.353-.13c.014-.043-.1-.17-.1-.17s.213-.061.227-.104c.015-.049-.077-.113-.077-.113s.092-.03.082-.074c-.016-.06-.188-.12-.188-.12s.09-.05.082-.1c-.058-.113-1.093.11-1.093.11-.058-.095.946-.403 1.027-.647 0 0 .113-.26.106-.302-.033-.046-.326.06-.326.06s.195-.468.139-.524c-.06-.055-.209.089-.209.089s0-.214-.02-.253c-.097.014-.441.601-.472.594 0 0 .235-.574.103-.605-.077.017-.26.235-.26.235s-.027-.136-.08-.118c-.061-.005-.358.682-1.064 1.829-.073-.116.573-1.35.443-1.638-.04-.02-.15.065-.15.065s-.054-.258-.11-.287c-.044.009-.132.125-.132.125s-.063-.152-.108-.16c-.17.122-.179.605-.179.605s-.162-.302-.228-.308c-.149.13-.07.57-.07.57s-.072-.186-.125-.159c-.218.076.133.464-.062 1.925l-.437.535s.504-1.4.46-1.494l-.103.034s.201-.274.143-.353c-.085-.078-.332.158-.332.158s.188-.503.06-.577c-.034.004-.093.08-.093.08s-.074-.17-.146-.186c-.08-.009-.179.282-.179.282s-.112-.173-.146-.16c-.32.434.005.607.001 1.054 0 0-.308-.482-.44-.486-.08.046-.03.352-.03.352s-.118.001-.113.039c-.054.041.178.334.178.334s-.165-.03-.179.022c-.081.114.337.442.536 1.27z"/></g><path fill="#7a4e48" stroke="#44803d" stroke-width=".19769368" d="M12.727 8.706c-.083.263-3.975 4.297-3.975 4.297l.034.068s3.746-3.767 3.94-4.365z"/><g fill="#44803d" stroke-width=".198"><path d="M6.925 10.284c.66-.932 1.37-1.237 1.385-1.277-.006-.028-.298.047-.298.047s.388-.202.464-.324l-.143.01s.068-.1.046-.123c-.038-.019-.378.111-.378.111s.234-.296.119-.303c-.023-.02-.15.025-.15.025s.01-.165-.05-.161c-.058.012-.284.251-.284.251s.003-.15-.065-.131c-.08.038-.164.224-.164.224s-.145-.011-.206.035c-.065.073.297-.03-.518 1.322 0 0 .19.302.242.294M6.894 10.527c-.309-.031-1.245.347-1.32.341-.028-.014.133-.177.133-.177s-.337.153-.43.165c-.027-.018.082-.123.082-.123s-.273.04-.283-.006c.036-.127.55-.273.55-.273.004-.034-.647.163-.81-.032.038-.056.225-.102.225-.102s-.166-.087-.14-.127c.037-.062.198-.055.198-.055s-.037-.071.023-.107c.114-.065.353.087.353.087s-.072-.195.005-.239c.095-.075.231.046.231.046l.076-.122c.064-.027.15.228.615.334.101.023.426.236.426.236z"/><path d="M6.91 10.282c.85-1.119 1.415-1.185 1.413-1.256.023-.062-.253.002-.253.002s.372-.224.369-.281c.008-.026-.122 0-.122 0s.08-.11.083-.133c-.052-.034-.374.12-.374.12s.205-.307.131-.326c-.043-.02-.237.08-.237.08s.1-.149.02-.156c-.13-.02-.31.22-.31.22s.025-.167-.036-.163c-.159.046-.66 1.036-.86 1.395-.083-.052.105-.46.278-.74.247-.399.486-.617.532-.696-.012-.025-.117 0-.117 0s.106-.208.07-.234c-.027-.011-.184.057-.184.057s.056-.14.029-.151c-.03-.012-.127.045-.127.045s.022-.06-.018-.057c-.055.009-.187.117-.187.117s.005-.06-.038-.057c-.118.032-.447.713-.447.713-.104.034.143-.63-.01-.694 0 0-.15-.084-.187-.081-.052.02-.112.213-.112.213s-.274-.146-.346-.112c-.072.036-.031.14-.031.14s-.169-.01-.21.002c-.036.063.26.311.24.33 0 0-.34-.176-.429-.092-.024.05.059.18.059.18s-.12.01-.132.046c-.034.04.363.26.925.768-.127.042-.786-.43-1.077-.358-.036.026-.023.1-.023.1s-.229.024-.28.059c-.014.03.034.091.034.091s-.15.035-.18.063c.015.116.392.142.392.142s-.317.092-.355.135c.03.102.416.07.416.07s-.182.038-.186.074c-.047.144.431-.066 1.49.122l.21.307s-.86-.387-.956-.363l-.023.069s-.118-.142-.21-.108c-.103.052-.037.222-.037.222s-.306-.143-.426-.064c-.014.022.017.064.017.064s-.17.04-.218.086c-.046.052.136.129.136.129s-.192.065-.198.087c.186.227.482.023.833.045 0 0-.53.179-.599.264-.003.054.264.034.264.034s-.057.078-.025.076c.007.037.351-.101.351-.101s-.104.106-.07.117c.05.057.513-.2 1.264-.293z"/></g><path fill="#7a4e48" stroke="#44803d" stroke-width=".198" d="M6.383 9.655c.13-.012.572.956.572.956l.066-.027s-.346-.952-.638-.93z"/><g fill="#44803d" stroke-width=".198"><path d="M9.01 9.644c1.139-.097 1.83.248 1.87.234.016-.023-.23-.197-.23-.197s.406.166.548.145l-.1-.102s.12-.013.124-.045c-.01-.041-.329-.217-.329-.217s.377-.012.308-.105c0-.03-.116-.098-.116-.098s.133-.099.09-.143c-.046-.035-.374-.054-.374-.054s.117-.095.059-.134c-.082-.037-.278.02-.278.02s-.085-.12-.16-.136c-.097-.002.215.207-1.344.458 0 0-.108.34-.068.374M8.805 9.778c-.176-.256-1.069-.727-1.113-.788-.007-.031.22-.013.22-.013s-.333-.159-.403-.221c-.004-.033.147-.018.147-.018s-.207-.182-.177-.22c.12-.054.563.244.563.244.028-.019-.543-.389-.498-.64.066-.007.222.107.222.107s-.04-.183.006-.19c.073-.01.17.117.17.117s.031-.074.098-.052c.123.046.161.326.161.326s.102-.18.185-.15c.12.023.114.206.114.206l.143-.02c.062.03-.077.26.142.684.048.092.094.478.094.478z"/><path d="M9.002 9.632c1.404-.073 1.818.315 1.871.268.062-.022-.164-.191-.164-.191s.41.139.452.1c.025-.01-.079-.093-.079-.093s.135-.01.155-.023c-.007-.062-.333-.208-.333-.208s.367-.042.334-.11c-.012-.046-.213-.13-.213-.13s.177-.02.13-.086c-.068-.11-.367-.095-.367-.095s.143-.087.101-.132c-.137-.091-1.217.165-1.62.244-.015-.097.419-.217.744-.265.464-.07.785-.027.875-.044.011-.024-.075-.089-.075-.089s.227-.053.224-.098c-.01-.027-.163-.103-.163-.103s.143-.048.134-.076c-.01-.03-.116-.067-.116-.067s.06-.023.031-.05c-.041-.037-.209-.068-.209-.068s.05-.035.02-.066c-.102-.07-.834.119-.834.119-.093-.058.573-.298.523-.455 0 0-.033-.17-.058-.196-.049-.027-.236.052-.236.052s-.065-.303-.137-.336c-.075-.032-.127.066-.127.066s-.102-.135-.137-.159c-.072.013-.07.4-.099.396 0 0-.083-.373-.205-.386-.054.014-.1.16-.1.16s-.085-.085-.12-.07c-.051-.001.036.445.01 1.201-.113-.07-.178-.877-.421-1.053-.043-.01-.092.048-.092.048s-.166-.16-.225-.177c-.032.008-.048.086-.048.086s-.123-.094-.164-.097c-.079.086.145.39.145.39s-.275-.183-.332-.184c-.059.09.215.363.215.363s-.147-.114-.177-.094c-.14.057.329.286.868 1.217l-.099.358s-.259-.906-.34-.964l-.067.026s.032-.182-.052-.229c-.107-.046-.194.115-.194.115s-.088-.326-.227-.367c-.026.004-.037.054-.037.054s-.14-.103-.207-.11c-.07-.002-.01.186-.01.186s-.174-.104-.195-.094c-.053.288.294.382.503.665 0 0-.479-.29-.588-.287-.043.032.144.223.144.223s-.095.007-.073.03c-.025.029.304.203.304.203s-.149-.011-.135.022c-.012.075.483.263 1.04.776z"/></g><path fill="#7a4e48" stroke="#44803d" stroke-width=".198" d="M9.141 8.825c.093.092-.361 1.053-.361 1.053l.063.034s.504-.88.298-1.087z"/><g stroke-width="1.234"><g fill="#44803d"><path d="M5.612 10.57c-.147.31.012.817-.088.807-.054-.008-.185-.216-.185-.216.043.102.012.31-.062.428-.206-.038-.164-.398-.238-.456 0 0-.096.561-.24.702-.1-.053-.077-.272-.107-.27 0 0-.083.305-.19.28l-.04-.087s-.1.073-.131.055c-.051-.122.137-.321.137-.321s-.152.08-.169.057c-.065-.234.342-.389.38-.46-.041-.052-.372.143-.389.062-.032-.072.275-.31.275-.31s-.143-.069-.063-.145c.186.024.659-.45 1.11-.126M4.417 9.818c-.561.303-.628 1.13-.886 1.093-.097.041-.116-.226-.116-.226s-.17.262-.333.246c-.066-.04.04-.3.04-.3s-.385.285-.56.261c-.122-.05.014-.253.014-.253s-.314.223-.39.221c-.081-.139.241-.396.241-.396-.251.004-.379-.216.306-.212 0 0-.299-.035-.309-.064-.018-.1.26-.14.26-.14.033-.04-.093-.11-.02-.144.31.177.66-.353 1.446-.275z"/><g stroke-width=".466"><path d="M3.795 10.7c-1.414.256-1.787.934-1.85.93-.047-.025.024-.334.024-.334s-.263.352-.45.372l-.009-.166s-.152.024-.194-.017c-.038-.057.116-.39.116-.39s-.445.11-.477-.034c-.036-.039.015-.165.015-.165s-.27-.084-.275-.155c.01-.062.363-.196.363-.196S.81 10.46.83 10.39c.049-.074.34-.067.34-.067s-.046-.182.02-.229c.108-.035.002.34 2.079.145 0 0 .53.404.526.462M6.72 12.499c.238.04.45-.08.548-.109.257-.073.48-.093.494-.134-.02-.058-.11-.089-.11-.089s.248-.12.229-.202c-.167-.022-.368-.196-.732-.02.217-.088.756-.377.736-.435-.037-.057-.235-.04-.235-.04s.065-.31-.015-.337c-.081-.027-.351.176-.351.176s.022-.152-.023-.158c-.087-.023-.371.34-.371.34s.034-.237-.01-.249c-.068-.013-.073.096-.107.106-.015.014-.09-.094-.149-.069-.062.013-.043.229-.043.229s-.138-.119-.208-.097c-.069.081.384.887.182.985zM5.446 11.638c.162.079.254-.325.385-.46.231-.237.443-.32.536-.447-.011-.09-.404-.066-.404-.066s.346-.2.374-.304c-.038-.057-.23.003-.23.003s.098-.232.06-.289c-.362-.002-.67.495-.67.495-.073-.032.393-.86.048-1.123-.17.002-.273.279-.273.279s-.026-.323-.154-.41c-.04-.005-.077.09-.077.09s-.115-.205-.2-.216c-.07.086.027.446.027.446s-.18-.16-.191-.092c-.083.112.209.576.209.576s-.36-.166-.414-.116c-.028.063.156.316.156.316s-.192-.004-.204.063c-.015.078.414.186.47.47.066.332.386.554.34.64zM4.188 10.806c-.106-.391.347-1.3.325-1.394-.03-.043-.267.058-.267.058s.19-.318.195-.422c-.035-.045-.189.026-.189.026s.017-.306-.06-.344c-.203-.03-.35.503-.35.503-.055-.014.152-.684-.198-.994-.085.012-.127.212-.127.212s-.173-.251-.233-.244c-.096.01-.055.208-.055.208s-.124-.086-.173-.035c-.085.1.207.477.207.477s-.333-.2-.392-.134c-.106.071.118.306.118.306l-.187.02c-.034.062.4.314.657.937.056.134.465.65.465.65z"/></g><path d="M3.797 10.682c-1.666.375-1.673 1.017-1.789.974-.096-.008-.041-.304-.041-.304s-.298.318-.392.28c-.04-.004-.02-.145-.02-.145s-.164.032-.202.022c-.065-.082.13-.38.13-.38s-.464.067-.507-.032c-.04-.064.086-.24.086-.24s-.222.033-.248-.067c-.054-.167.302-.246.302-.246s-.266-.066-.27-.137c.046-.165 1.564-.194 2.112-.227-.099-.13-.729-.14-1.151-.095-.604.066-.916.228-1.037.237-.042-.028-.021-.14-.021-.14s-.318.006-.368-.053c-.022-.039.061-.188.061-.188s-.218-.014-.24-.053c-.025-.044.05-.127.05-.127s-.094-.01-.095-.055c.004-.061.157-.157.157-.157s-.097-.029-.1-.08c.032-.123 1.079-.124 1.079-.124.036-.106-.998-.194-1.128-.415 0 0-.164-.231-.165-.273.022-.052.327-.011.327-.011S.04 8.231.083 8.164c.046-.066.22.043.22.043S.26 7.998.272 7.956c.095-.008.551.493.58.48 0 0-.348-.511-.226-.57.077 0 .3.175.3.175s-.003-.139.053-.132c.057-.018.487.59 1.41 1.562.045-.128-.837-1.198-.772-1.507.036-.027.16.032.16.032s-.003-.263.045-.304c.045 0 .154.094.154.094s.03-.162.07-.18c.191.085.3.555.3.555s.093-.33.156-.35c.17.096.187.542.187.542s.03-.197.088-.181c.225.027-.032.481.462 1.868l.534.43s-.78-1.26-.757-1.362l.107.011s-.252-.225-.212-.315c.065-.095.353.084.353.084s-.286-.452-.178-.551c.033-.004.106.058.106.058s.037-.18.102-.213c.076-.025.232.239.232.239s.072-.193.108-.188c.4.356.122.595.22 1.03 0 0 .196-.536.323-.568.086.028.101.338.101.338s.116-.024.118.014c.062.03-.102.365-.102.365s.154-.065.178-.017c.102.094-.233.503-.252 1.354z"/></g><path fill="#7a4e48" stroke="#44803d" stroke-width=".1978017" d="M2.675 9.69c.137.24 4.794 3.357 4.794 3.357l-.018.074S2.992 10.233 2.675 9.69z"/></g><g fill="#44803d" stroke-width=".41"><path d="M8.697 10.634c-.09-.499.327-1.16.182-1.182-.08-.01-.345.236-.345.236.1-.129.135-.436.075-.632-.307-.024-.385.505-.512.56 0 0 .077-.836-.073-1.092-.162.038-.212.359-.254.346 0 0-.003-.466-.164-.473l-.09.11s-.113-.141-.164-.128c-.12.154.072.509.072.509s-.186-.171-.218-.145c-.182.309.338.683.364.8-.078.057-.473-.346-.527-.237-.073.091.272.546.272.546s-.229.043-.145.182c.273.036.764.89 1.527.6M6.717 11.252c-.682-.643-.463-1.845-.842-1.89-.122-.097-.251.276-.251.276s-.141-.437-.38-.476c-.109.033-.057.444-.057.444s-.437-.553-.694-.585c-.193.026-.078.366-.078.366s-.36-.437-.469-.462c-.167.167.193.655.193.655-.356-.1-.62.164.354.418 0 0-.438-.064-.463-.026-.065.135.315.296.315.296.032.07-.174.122-.084.2.508-.136.804.752 1.948.938zM4.962 11.856c-1.479-.694-1.69-1.549-1.762-1.562-.057.013-.07.373-.07.373s-.187-.463-.386-.54l-.058.18s-.16-.07-.218-.038c-.058.051.012.462.012.462s-.456-.25-.533-.102c-.052.032-.032.186-.032.186s-.322.013-.347.09c-.007.07.34.321.34.321s-.295.02-.295.103c.032.097.353.174.353.174s-.103.186-.045.257c.11.07.103-.373 2.327.45 0 0 .701-.29.714-.354M8.703 10.738c.272.025.47.22.57.279.26.155.5.242.504.293-.039.058-.148.064-.148.064s.238.206.193.29c-.19-.025-.462.107-.81-.194.212.161.72.637.681.695-.058.051-.27-.026-.27-.026s-.02.36-.116.366-.334-.295-.334-.295-.02.173-.07.167c-.104 0-.31-.482-.31-.482s-.031.27-.083.27c-.078-.005-.052-.127-.086-.148-.013-.02-.126.077-.184.032-.064-.032.02-.264.02-.264s-.187.09-.258.045c-.051-.109.682-.861.489-1.028zM7.051 11.31c.2-.04.183.432.288.618.185.328.393.481.458.648-.039.097-.463-.045-.463-.045s.321.322.321.444c-.058.051-.25-.071-.25-.071s.038.283-.02.334c-.398-.103-.591-.739-.591-.739-.09.013.18 1.06-.276 1.247-.187-.051-.219-.386-.219-.386s-.122.348-.29.405c-.044-.006-.057-.122-.057-.122s-.187.193-.283.18c-.051-.115.16-.482.16-.482s-.244.122-.237.045c-.058-.148.398-.572.398-.572s-.443.077-.488.006c-.013-.077.263-.302.263-.302s-.212-.051-.205-.128c.006-.09.51-.083.655-.38.17-.344.585-.495.56-.604zM5.425 11.856c-.232.399 0 1.53-.052 1.627-.045.038-.276-.142-.276-.142s.116.405.09.521c-.051.039-.2-.084-.2-.084s-.07.341-.166.36c-.232-.025-.238-.655-.238-.655-.065 0-.032.797-.508 1.035-.09-.039-.077-.27-.077-.27s-.264.225-.328.2c-.103-.04 0-.245 0-.245s-.16.058-.2-.013c-.064-.135.367-.463.367-.463s-.424.122-.47.032c-.096-.11.22-.302.22-.302l-.2-.077c-.02-.077.531-.227.996-.836.101-.132.701-.578.701-.578z"/><path d="M4.949 11.875c-1.742-.906-1.562-1.613-1.704-1.6-.109-.02-.135.321-.135.321s-.238-.437-.353-.424c-.045-.007-.065.154-.065.154s-.173-.084-.218-.084c-.097.071.032.457.032.457s-.495-.212-.572-.116c-.064.058.026.29.026.29s-.238-.103-.296 0c-.11.167.263.36.263.36s-.315-.007-.34.07c.003.195 1.682.677 2.282.874-.148.114-.852-.06-1.308-.236-.652-.252-.952-.522-1.084-.567-.054.018-.064.148-.064.148s-.351-.102-.424-.052c-.036.037.013.225.013.225s-.247-.049-.283-.013c-.041.041.02.155.02.155s-.11-.018-.123.032c-.014.068.129.218.129.218s-.117.004-.135.058c0 .146 1.163.457 1.163.457.01.127-1.166-.083-1.375.122 0 0-.25.205-.264.25.009.064.36.11.36.11s-.44.37-.412.457c.032.087.258.018.258.018s-.11.217-.11.267c.104.036.757-.38.785-.357 0 0-.536.46-.418.56.086.023.386-.103.386-.103s-.045.152.019.16c.059.037.715-.503 2.025-1.298.013.155-1.28 1.068-1.299 1.427.032.041.187.013.187.013s-.08.288-.039.347c.05.014.2-.058.2-.058s-.016.187.025.219c.236-.036.495-.52.495-.52s.007.389.07.43c.219-.055.367-.54.367-.54s-.023.225.045.225c.26.036.106-.538 1.06-1.916l.72-.315s-1.235 1.155-1.24 1.273l.122.02s-.345.172-.328.282c.046.124.418.013.418.013s-.45.412-.36.553c.037.014.135-.032.135-.032s-.012.209.052.263c.077.05.328-.192.328-.192s.023.233.064.237c.55-.272.31-.617.546-1.067 0 0 .061.648.193.72.105-.004.212-.34.212-.34s.122.06.135.019c.078-.014-.006-.43-.006-.43s.152.115.193.07c.14-.073-.112-.621.115-1.562zM6.617 10.052c.09-.499-.326-1.16-.182-1.182.08-.01.346.236.346.236-.1-.129-.136-.436-.075-.632.306-.024.384.505.511.56 0 0-.077-.836.073-1.092.162.038.212.359.254.346 0 0 .003-.466.164-.473l.09.11s.113-.141.164-.128c.12.154-.072.509-.072.509s.186-.171.218-.145c.182.309-.338.683-.364.8.078.057.473-.346.528-.237.072.091-.273.546-.273.546s.229.043.145.182c-.272.036-.763.89-1.527.6M8.597 10.67c.682-.643.463-1.845.842-1.89.123-.097.251.276.251.276s.142-.437.38-.476c.109.033.057.444.057.444s.437-.553.695-.585c.192.026.077.366.077.366s.36-.437.469-.462c.167.167-.193.655-.193.655.356-.1.62.164-.353.418 0 0 .437-.064.462-.026.065.135-.315.296-.315.296-.032.07.174.122.084.2-.508-.136-.804.752-1.948.938zM10.352 11.274c1.479-.694 1.691-1.549 1.762-1.562.058.013.07.373.07.373s.187-.463.386-.54l.058.18s.16-.07.219-.038c.057.051-.013.462-.013.462s.456-.25.533-.102c.052.032.032.186.032.186s.322.013.348.09c.006.07-.341.321-.341.321s.296.02.296.103c-.033.097-.354.174-.354.174s.103.186.045.257c-.11.07-.103-.373-2.327.45 0 0-.7-.29-.714-.354M6.611 10.156c-.272.025-.47.22-.57.279-.26.155-.5.242-.503.293.038.058.147.064.147.064s-.237.206-.192.29c.19-.025.462.107.81-.194-.213.161-.72.637-.682.695.058.051.27-.026.27-.026s.02.36.116.366.334-.295.334-.295.02.173.07.167c.104 0 .31-.482.31-.482s.032.27.083.27c.078-.005.052-.127.086-.148.013-.02.126.077.184.032.064-.032-.02-.264-.02-.264s.187.09.258.045c.051-.109-.682-.861-.489-1.028zM8.263 10.728c-.2-.04-.183.432-.287.618-.185.328-.394.481-.459.648.039.097.463-.045.463-.045s-.321.322-.321.444c.058.051.25-.071.25-.071s-.038.283.02.334c.398-.103.591-.739.591-.739.09.013-.18 1.06.277 1.247.186-.051.218-.386.218-.386s.122.348.29.405c.045-.006.057-.122.057-.122s.187.193.283.18c.052-.115-.16-.482-.16-.482s.244.122.237.045c.058-.148-.398-.572-.398-.572s.443.077.488.006c.013-.077-.263-.302-.263-.302s.212-.051.206-.128c-.007-.09-.51-.083-.656-.38-.17-.344-.585-.495-.56-.604zM9.89 11.274c.23.399 0 1.53.05 1.627.046.038.277-.142.277-.142s-.115.405-.09.521c.052.039.2-.084.2-.084s.07.341.167.36c.231-.025.238-.655.238-.655.064 0 .032.797.507 1.035.09-.039.078-.27.078-.27s.263.225.327.2c.103-.04 0-.245 0-.245s.161.058.2-.013c.064-.135-.367-.463-.367-.463s.425.122.47.032c.096-.11-.219-.302-.219-.302l.2-.077c.019-.077-.532-.227-.997-.836-.1-.132-.7-.578-.7-.578z"/><path d="M10.365 11.293c1.743-.906 1.563-1.613 1.704-1.6.11-.02.135.321.135.321s.238-.437.354-.424c.045-.007.064.154.064.154s.173-.084.218-.084c.097.071-.032.457-.032.457s.495-.212.572-.116c.065.058-.025.29-.025.29s.237-.103.295 0c.11.167-.263.36-.263.36s.315-.007.34.07c-.003.195-1.682.677-2.282.874.148.114.852-.06 1.308-.236.652-.252.952-.522 1.084-.567.054.018.064.148.064.148s.352-.102.424-.052c.037.037-.013.225-.013.225s.247-.049.283-.013c.041.041-.019.155-.019.155s.109-.018.122.032c.014.068-.128.218-.128.218s.116.004.135.058c0 .146-1.164.457-1.164.457-.01.127 1.167-.083 1.376.122 0 0 .25.205.263.25-.009.064-.36.11-.36.11s.44.37.412.457c-.032.087-.257.018-.257.018s.11.217.11.267c-.105.036-.758-.38-.785-.357 0 0 .536.46.417.56-.086.023-.385-.103-.385-.103s.044.152-.02.16c-.059.037-.715-.503-2.025-1.298-.013.155 1.28 1.068 1.299 1.427-.032.041-.186.013-.186.013s.079.288.038.347c-.05.014-.2-.058-.2-.058s.016.187-.025.219c-.236-.036-.495-.52-.495-.52s-.007.389-.07.43c-.219-.055-.367-.54-.367-.54s.023.225-.045.225c-.26.036-.106-.538-1.06-1.916l-.72-.315s1.235 1.155 1.24 1.273l-.122.02s.346.172.328.282c-.045.124-.418.013-.418.013s.45.412.36.553c-.036.014-.135-.032-.135-.032s.012.209-.052.263c-.077.05-.327-.192-.327-.192s-.024.233-.065.237c-.55-.272-.31-.617-.546-1.067 0 0-.061.648-.193.72-.105-.004-.212-.34-.212-.34s-.121.06-.135.019c-.077-.014.006-.43.006-.43s-.152.115-.193.07c-.14-.073.112-.621-.115-1.562zM2.253 11.508c-.137.487-.8.9-.68.984.069.044.415-.062.415-.062-.146.072-.313.333-.343.536.264.156.565-.287.704-.28 0 0-.434.718-.41 1.013.162.037.347-.23.38-.2 0 0-.201.421-.06.497l.13-.059s.04.176.092.186c.174-.087.156-.49.156-.49s.093.236.133.226c.298-.198-.006-.762.022-.878.095-.018.274.517.371.443.105-.05-.008-.61-.008-.61s.225.06.21-.1c-.23-.152-.298-1.135-1.112-1.206M4.304 11.815c.333.875-.387 1.862-.066 2.068.068.14.346-.14.346-.14s-.063.455.134.594c.113.018.246-.374.246-.374s.152.688.37.829c.184.06.229-.296.229-.296s.133.55.22.62c.224-.077.113-.673.113-.673.276.245.63.122-.136-.53 0 0 .365.248.405.224.117-.093-.155-.403-.155-.403.002-.078.21-.034.162-.143-.515-.1-.395-1.027-1.343-1.694zM6.147 12.036c1.028 1.269.847 2.131.905 2.173.057.014.226-.304.226-.304s-.034.497.112.654l.13-.137s.114.134.18.13c.074-.021.19-.422.19-.422s.302.424.436.325c.06-.006.11-.154.11-.154s.295.129.351.07c.037-.06-.166-.437-.166-.437s.274.111.31.036c.014-.1-.242-.31-.242-.31s.174-.123.153-.212c-.068-.111-.255.29-1.898-1.42 0 0-.757-.045-.797.008M2.293 11.412c-.234-.142-.327-.403-.391-.5-.167-.254-.345-.437-.326-.483.06-.036.161.006.161.006s-.124-.289-.047-.344c.16.105.462.105.645.526-.121-.237-.371-.886-.311-.921.074-.021.232.14.232.14s.174-.315.264-.279.172.412.172.412.093-.148.136-.12c.093.045.068.569.068.569s.146-.23.192-.207c.069.039-.008.137.014.17.002.024.147-.014.179.052.044.057-.132.229-.132.229s.207 0 .25.072c0 .12-.988.478-.887.712zM4.029 11.617c-.197-.053.024-.469.01-.682-.023-.376-.144-.605-.13-.783.078-.07.398.242.398.242s-.15-.43-.096-.54c.074-.02.195.174.195.174s.088-.272.163-.293c.314.267.21.924.21.924.086.027.3-1.033.792-1.002.146.127.029.442.029.442s.261-.259.437-.238c.037.025-.001.135-.001.135s.251-.092.333-.039c-.005.127-.355.364-.355.364s.273-.003.233.063c-.012.159-.608.341-.608.341s.433.124.443.208c-.022.075-.37.157-.37.157s.17.138.13.205c-.045.078-.495-.148-.756.055-.302.237-.742.19-.766.3zM5.73 11.834c.383-.258.668-1.377.756-1.441.057-.016.187.247.187.247s.073-.415.146-.508c.063-.012.143.163.143.163s.212-.276.308-.252c.197.124-.072.694-.072.694.058.028.376-.703.908-.71.064.074-.048.277-.048.277s.335-.088.382-.037c.075.08-.107.22-.107.22s.17.018.174.099c-.001.15-.532.257-.532.257s.435.075.437.175c.039.14-.329.177-.329.177l.146.156c-.016.078-.577-.027-1.261.318-.148.075-.883.215-.883.215z"/><path d="M6.167 12.024c1.173 1.576.703 2.133.836 2.184.09.065.261-.23.261-.23s.024.496.134.535c.037.026.125-.11.125-.11s.12.15.16.17c.118-.022.17-.425.17-.425s.353.407.464.354c.084-.024.103-.272.103-.272s.17.196.267.129c.17-.103-.08-.439-.08-.439s.28.143.337.085c.081-.177-1.22-1.342-1.673-1.782.183-.038.74.426 1.074.783.477.511.63.885.728.983.057.007.122-.105.122-.105s.272.245.36.231c.048-.017.086-.208.086-.208s.2.152.25.135c.054-.019.049-.147.049-.147s.09.063.124.024c.042-.055-.02-.253-.02-.253s.106.048.146.007c.064-.13-.848-.918-.848-.918.047-.118 1.014.583 1.291.49 0 0 .315-.076.347-.11.02-.062-.276-.256-.276-.256s.556-.143.57-.232c.009-.092-.224-.129-.224-.129s.193-.146.215-.191c-.078-.079-.847.01-.862-.022 0 0 .683-.18.62-.321-.068-.059-.392-.076-.392-.076s.106-.117.053-.153c-.038-.059-.864.142-2.389.286.055-.145 1.618-.403 1.791-.718-.01-.051-.162-.093-.162-.093s.197-.225.186-.296c-.04-.034-.205-.035-.205-.035s.095-.161.072-.208c-.228-.07-.672.253-.672.253s.164-.354.124-.418c-.22-.046-.565.326-.565.326s.119-.192.057-.222c-.217-.146-.33.438-1.79 1.261l-.785-.03s1.616-.5 1.672-.605l-.102-.07s.387-.005.419-.112c.013-.13-.37-.194-.37-.194s.585-.174.564-.34c-.026-.028-.135-.03-.135-.03s.102-.183.068-.26c-.047-.078-.379.03-.379.03s.081-.22.046-.241c-.614.006-.548.42-.957.722 0 0 .227-.61.14-.732-.096-.042-.339.214-.339.214s-.083-.107-.113-.076c-.075-.022-.182.39-.182.39s-.086-.17-.143-.147c-.158.004-.17.607-.785 1.355z"/></g><g stroke-width="1.078"><path fill="#7a4e48" d="M6.574 5.198c-.575.618.91 7.76.506 8.765l.195-.039c.534-.354-.73-7.974-.701-8.726"/><path fill="#7a4e48" d="M6.088 3.01c.291-.392.569 2.699.403 2.794-.11-1.343-.22-2.448-.403-2.794"/><path fill="#e65879" stroke="#e02953" stroke-width=".19755962999999999" d="M5.913 3.366c-.334-.04-.454.027-.454.027s.014-.109.344-.11a.5.5 0 0 1-.079-.119c-.15-.015-.27.02-.27.02s.088-.083.242-.093a.6.6 0 0 1-.022-.24.6.6 0 0 1 .272-.065c-.092-.164-.051-.31-.051-.31s.033.17.15.319a.5.5 0 0 1 .08.022c-.134-.3-.034-.38-.034-.38s.018.244.17.471c.137.195-.08.582-.348.458z"/><path fill="#7a4e48" d="M9.19 5.4C8.706 4.36 6.016 2.762 6.62 6.591c.07-3.3 1.16-2.239 2.57-1.193"/><path fill="#e65879" stroke="#e02953" stroke-width=".19755962999999999" d="M8.803 4.89a1 1 0 0 0-.07.07c-.203.226-.193.45-.064.613.202.54.14.767.14.767s.175-.068.044-.617a.8.8 0 0 0 .23.082c.085.245.078.459.078.459s.1-.182.055-.442c.129.007.268-.011.406-.061.038-.17.033-.334-.002-.48.31.087.535-.04.535-.04s-.293.013-.59-.122a1 1 0 0 0-.069-.123c.553.101.646-.099.646-.099s-.414.07-.853-.09c-.146-.073-.32-.06-.486.084z"/><path fill="#7a4e48" d="M4.915 6.251c.265-1.115 1.832-3.406 1.562.355-.12-3.067-.745-1.751-1.562-.355"/><path fill="#e65879" stroke="#e02953" stroke-width=".19755962999999999" d="M5.171 5.52q.037.015.076.038c.224.13.276.311.214.476-.02.487.09.654.09.654s-.16-.01-.198-.486a.7.7 0 0 1-.164.126c-.005.219.058.39.058.39s-.13-.121-.162-.342a.9.9 0 0 1-.346.056.9.9 0 0 1-.126-.386c-.229.15-.445.106-.445.106s.242-.065.446-.25a1 1 0 0 1 .024-.117c-.421.224-.55.088-.55.088s.354-.051.668-.294c.099-.097.242-.131.415-.059z"/><path fill="#7a4e48" d="M5.19 3.927c.743.4 1.634 7.641 2.341 8.462l-.197.026c-.62-.164-1.875-7.785-2.144-8.488"/><path fill="#7a4e48" d="M2.648 4.887c-.154-1.135 1.24-3.937 2.807-.39-1.848-2.736-2.188-1.254-2.807.39"/><path fill="#e65879" stroke="#e02953" stroke-width=".1975575" d="M2.698 4.25a1 1 0 0 1 .097.02c.293.08.406.273.385.48.123.564.298.721.298.721s-.184.038-.37-.495a.8.8 0 0 1-.149.193c.06.253.183.429.183.429s-.184-.099-.286-.342a1 1 0 0 1-.375.169 1.1 1.1 0 0 1-.258-.404c-.214.24-.471.255-.471.255s.254-.147.43-.421a1 1 0 0 1-.009-.14c-.41.383-.597.266-.597.266s.387-.165.67-.538c.082-.141.234-.224.452-.193z"/><path fill="#7a4e48" d="M4.005 5.167c-.152-1.135.487-3.836 1.585-.228-1.213-2.82-1.324-1.368-1.585.228"/><path fill="#e65879" stroke="#e02953" stroke-width=".1975575" d="M4.051 4.913q.04 0 .084.008c.256.04.37.191.37.367.157.461.32.577.32.577s-.153.049-.36-.381a.7.7 0 0 1-.108.176c.074.206.193.343.193.343s-.164-.066-.273-.261a.9.9 0 0 1-.303.177.9.9 0 0 1-.256-.315c-.16.221-.377.258-.377.258s.202-.147.327-.394a1 1 0 0 1-.02-.117c-.313.36-.483.28-.483.28s.313-.176.52-.514c.056-.126.178-.21.366-.204z"/><path fill="#7a4e48" d="M8.757 1.17c-.684.495-.617 11.747-1.21 12.653h.2c.592-.244.835-11.92 1.01-12.653"/><path fill="#7a4e48" d="M5.992 1.084C6.562.09 9.375-1.28 8.455 2.486 8.658-.81 7.485.158 5.992 1.084"/><path fill="#e65879" stroke="#e02953" stroke-width=".1975575" d="M6.42.61a1 1 0 0 1 .065.075c.183.242.155.464.012.615-.246.522-.203.754-.203.754s-.169-.083.008-.62a.8.8 0 0 1-.235.064c-.106.237-.117.45-.117.45s-.085-.19-.018-.445a1 1 0 0 1-.4-.094A1.1 1.1 0 0 1 5.573.93c-.316.06-.53-.085-.53-.085s.292.038.599-.072A1 1 0 0 1 5.72.658c-.56.054-.636-.153-.636-.153s.407.105.858-.018c.152-.062.323-.035.477.123z"/><path fill="#7a4e48" d="M10.06 2.14C10.06.994 9.071-1.6 8.457 2.12 9.29-.833 9.59.591 10.059 2.14"/><path fill="#e65879" stroke="#e02953" stroke-width=".1975575" d="M9.98 1.37a1 1 0 0 0-.083.019c-.247.073-.34.238-.318.413-.094.477-.24.614-.24.614s.157.028.306-.426a.7.7 0 0 0 .13.16c-.046.215-.147.366-.147.366s.155-.087.237-.294c.091.062.2.11.324.135a.9.9 0 0 0 .212-.346c.187.199.408.206.408.206s-.22-.12-.376-.347a1 1 0 0 0 .005-.119c.357.316.514.214.514.214s-.333-.133-.581-.441c-.074-.118-.206-.185-.39-.155z"/><path fill="#7a4e48" d="M6.985 1.95c.453-1.052 2.39-3.04 1.478.619C8.87-.473 8.03.715 6.985 1.95"/><path fill="#e65879" stroke="#e02953" stroke-width=".1975575" d="M7.217 1.564a1 1 0 0 1 .078.034c.23.116.293.295.24.463.007.487.127.647.127.647s-.16 0-.226-.473a.7.7 0 0 1-.157.134c.008.22.08.386.08.386s-.137-.113-.181-.332a.9.9 0 0 1-.342.076.9.9 0 0 1-.148-.379c-.22.162-.437.13-.437.13s.237-.078.431-.274a1 1 0 0 1 .017-.118c-.408.247-.545.118-.545.118s.352-.07.651-.33c.093-.102.235-.145.412-.082z"/></g><g stroke-width="1.257"><path fill="#7a4e48" d="M4.33 8.21c.665.287.802 4.273 1.467 4.923l-.166.037c-.542-.095-1.018-4.38-1.3-4.96"/><path fill="#7a4e48" d="M3.42 9.263c-.214-.96.133-3.315 1.338-.312-1.245-2.32-1.233-1.072-1.338.312"/><path fill="#e65879" stroke="#e02953" stroke-width=".19812929999999998" d="M3.343 8.603a1 1 0 0 1 .073 0c.221.016.33.137.344.288.167.382.315.47.315.47s-.127.052-.336-.3a.6.6 0 0 1-.08.158c.08.171.191.279.191.279s-.145-.044-.253-.203a.8.8 0 0 1-.245.174.8.8 0 0 1-.242-.25.55.55 0 0 1-.304.248s.162-.14.25-.36a1 1 0 0 1-.025-.1c-.241.331-.392.275-.392.275s.255-.173.406-.477c.04-.112.137-.193.298-.202z"/><path fill="#7a4e48" d="M5.96 8.534c-.575-.797-2.566-2.104-1.123.792-.907-2.472.019-1.633 1.122-.792"/><path fill="#e65879" stroke="#e02953" stroke-width=".19812929999999998" d="M5.694 8.254a1 1 0 0 0-.06.043c-.171.14-.19.301-.115.432.085.41.014.566.014.566s.134-.03.102-.439a.6.6 0 0 0 .156.084c.034.185.005.337.005.337s.093-.12.09-.31q.14.029.3-.001a.8.8 0 0 0 .053-.344c.215.095.391.028.391.028s-.213-.022-.412-.15a1 1 0 0 0-.036-.096c.388.131.478-.002.478-.002s-.307.006-.606-.156c-.097-.068-.224-.078-.36.008z"/></g><g fill="#44803d" stroke="#34642f" stroke-width=".198"><path d="M8.78 12.987c-.915.93-1.443.926-1.45.992-.028.054.234.027.234.027s-.369.163-.373.217c-.01.022.113.013.113.013s-.086.092-.092.113c.044.038.359-.068.359-.068s-.225.26-.159.285c.037.024.228-.045.228-.045s-.109.125-.036.14c.117.033.312-.166.312-.166s-.043.15.014.153c.152-.024.73-.876.955-1.183.071.057-.15.411-.342.648-.274.338-.52.511-.571.58.007.023.107.013.107.013s-.121.178-.091.207c.024.013.177-.032.177-.032s-.068.123-.045.136c.027.015.123-.027.123-.027s-.027.054.01.054c.051-.001.185-.086.185-.086s-.011.055.03.058c.112-.017.494-.605.494-.605.1-.019-.204.563-.07.64 0 0 .129.094.163.095.05-.011.128-.183.128-.183s.236.166.306.143c.071-.025.045-.124.045-.124s.155.027.194.022c.041-.054-.203-.317-.182-.332 0 0 .292.201.384.134.029-.044-.033-.171-.033-.171s.113.003.127-.028c.036-.032-.306-.282-.765-.812.121-.024.676.485.953.452.036-.02.032-.09.032-.09s.215.005.266-.021c.016-.025-.021-.088-.021-.088s.143-.014.173-.037c0-.108-.346-.175-.346-.175s.304-.049.344-.083c-.016-.098-.376-.112-.376-.112s.172-.015.18-.048c.06-.127-.405.012-1.361-.283l-.158-.306s.748.454.84.443l.03-.06s.092.144.18.123c.102-.036.06-.2.06-.2s.266.167.387.108c.015-.02-.009-.06-.009-.06s.161-.019.211-.055c.049-.043-.11-.134-.11-.134s.184-.038.193-.058c-.146-.23-.443-.076-.764-.137 0 0 .51-.103.583-.174.009-.049-.24-.061-.24-.061s.062-.065.032-.067c-.002-.035-.336.053-.336.053s.109-.086.078-.1c-.04-.058-.496.124-1.2.124z"/><path d="M6.933 12.911c-1.193.533-1.683.337-1.714.396-.046.04.208.11.208.11s-.403.018-.427.066c-.017.017.1.053.1.053s-.114.054-.127.072c.027.05.36.068.36.068s-.305.16-.253.207c.026.036.229.04.229.04s-.147.077-.085.118c.097.073.351-.041.351-.041s-.095.124-.043.148c.15.033 1-.55 1.323-.754.045.079-.29.328-.556.479-.38.215-.672.286-.744.33-.002.026.094.053.094.053s-.178.122-.16.16c.017.02.176.034.176.034s-.109.09-.091.11c.02.024.123.02.123.02s-.044.04-.01.054c.048.017.204-.013.204-.013s-.03.047.006.064c.111.026.683-.382.683-.382.1.019-.398.45-.3.569 0 0 .085.135.116.149.051.007.187-.124.187-.124s.158.24.232.244c.075.003.088-.099.088-.099s.134.082.172.09c.058-.034-.073-.368-.048-.374 0 0 .198.294.309.264.042-.03.032-.171.032-.171s.103.044.128.02c.045-.017-.181-.373-.414-1.034.122.022.451.698.72.768.041-.005.064-.072.064-.072s.198.083.255.077c.025-.018.013-.09.013-.09s.138.04.175.028c.04-.1-.257-.288-.257-.288s.3.066.35.048c.02-.097-.309-.241-.309-.241s.166.048.185.021c.102-.096-.382-.137-1.163-.76l-.035-.342s.53.696.62.719l.05-.046s.032.168.122.18c.108.004.13-.163.13-.163s.186.252.32.24c.02-.012.014-.059.014-.059s.156.042.216.026c.06-.022-.053-.164-.053-.164s.185.031.2.016c-.051-.267-.384-.232-.66-.406 0 0 .513.09.606.05.027-.042-.2-.144-.2-.144s.08-.038.053-.05c.012-.033-.331-.074-.331-.074s.132-.04.109-.064c-.015-.069-.508-.065-1.163-.321z"/><path d="M4.8 12.919c1.104.7 1.617.576 1.639.638.04.046-.222.08-.222.08s.397.075.413.126c.015.019-.107.038-.107.038s.105.07.115.09c-.033.046-.365.015-.365.015s.278.201.22.241c-.03.032-.232.008-.232.008s.134.096.067.128c-.107.058-.342-.091-.342-.091s.076.136.021.152c-.153.011-.91-.688-1.2-.936-.056.072.24.367.48.554.345.267.624.38.69.435-.002.024-.102.037-.102.037s.16.146.137.181c-.02.018-.18.01-.18.01s.095.103.074.121c-.022.02-.125.002-.125.002s.039.046.003.055c-.05.01-.2-.042-.2-.042s.023.051-.016.063c-.114.009-.62-.477-.62-.477-.102.004.328.502.215.606 0 0-.104.122-.137.13-.052.001-.167-.149-.167-.149s-.191.215-.265.209c-.075-.009-.073-.111-.073-.111s-.144.062-.183.065c-.052-.043.125-.354.101-.364 0 0-.238.262-.343.217-.038-.036-.007-.174-.007-.174s-.109.029-.13.002c-.042-.024.233-.344.56-.964-.124.004-.548.625-.825.656-.04-.01-.052-.08-.052-.08s-.208.053-.263.039c-.022-.02 0-.09 0-.09s-.143.018-.177.003c-.025-.106.296-.25.296-.25s-.307.023-.354-.002c-.006-.099.34-.194.34-.194s-.17.024-.186-.005c-.087-.11.398-.081 1.262-.585l.084-.333s-.626.612-.717.621l-.043-.052s-.057.162-.147.161c-.108-.012-.105-.18-.105-.18s-.22.222-.352.191c-.019-.015-.005-.06-.005-.06s-.161.018-.218-.006c-.057-.03.077-.155.077-.155s-.188.005-.2-.012c.089-.257.413-.175.712-.307 0 0-.521.015-.608-.037-.02-.046.22-.115.22-.115s-.075-.048-.046-.057c-.007-.035.338-.025.338-.025s-.125-.059-.099-.08c.026-.065.512.01 1.198-.15z"/></g><g stroke="#34642f"><path fill="#7a4e48" stroke-width=".599" d="M-113.92 67.886c.547.347 6.81 11.908 7.962 11.385 0 0 .057-.124.348-.575-.903 1.814-7.07-10.005-8.31-10.81z" transform="matrix(.26295 .20075 .20262 -.26133 19.27 53.292)"/><g fill="#44803d" stroke-width=".6"><path d="M-107.57 77.647c.968-.399 2.485.155 2.468-.147-.016-.167-.628-.595-.628-.595.303.145.94.084 1.31-.124-.084-.63-1.188-.556-1.353-.79 0 0 1.721-.208 2.173-.622-.147-.312-.817-.274-.81-.364 0 0 .942-.209.885-.536l-.26-.136s.234-.288.186-.387c-.364-.173-.998.37-.998.37s.265-.451.2-.505c-.704-.233-1.235.98-1.459 1.083-.15-.133.492-1.106.248-1.169-.215-.107-.984.789-.984.789s-.187-.444-.43-.215c.045.567-1.468 1.931-.548 3.348zM-109.68 73.914c1.003-1.657 3.527-1.738 3.453-2.524.142-.29-.668-.387-.668-.387s.822-.476.796-.973c-.112-.207-.921.076-.921.076s.927-1.124.88-1.658c-.136-.379-.774.004-.774.004s.726-.918.73-1.15c-.41-.265-1.24.675-1.24.675.048-.763-.602-1.182-.69.896 0 0-.061-.911-.15-.946-.301-.071-.46.765-.46.765-.13.096-.323-.297-.44-.082.494.968-1.17 1.951-1.049 4.345zM-111.67 70.63c.76-3.29 2.395-4.091 2.39-4.24-.051-.11-.784.02-.784.02s.854-.578.923-1.015l-.389-.038s.073-.356-.017-.459c-.129-.094-.93.228-.93.228s.308-1.032-.024-1.123c-.087-.09-.39.016-.39.016s-.167-.644-.334-.663c-.145.018-.501.829-.501.829s-.168-.59-.337-.553c-.18.107-.196.79-.196.79s-.422-.127-.54.021c-.095.252.799.046.104 4.899 0 0 .89 1.29 1.025 1.288zM-107.78 77.704c.066.561-.24 1.045-.317 1.273-.2.595-.272 1.116-.372 1.146-.134-.053-.194-.271-.194-.271s-.312.57-.5.515c-.034-.394-.42-.886.036-1.72-.232.498-.972 1.732-1.106 1.679-.13-.095-.066-.557-.066-.557s-.736.118-.79-.074c-.056-.192.451-.805.451-.805s-.359.037-.368-.07c-.045-.208.84-.833.84-.833s-.56.052-.582-.052c-.024-.16.233-.16.26-.238.036-.035-.21-.221-.144-.358.037-.143.541-.075.541-.075s-.263-.338-.203-.5c.199-.152 2.038 1.002 2.292.54zM-109.66 74.615c.166.388-.793.558-1.123.85-.584.517-.802 1.006-1.112 1.208-.211-.036-.11-.955-.11-.955s-.51.79-.757.843c-.129-.095.034-.538.034-.538s-.555.202-.684.107c.035-.85 1.237-1.517 1.237-1.517-.065-.176-2.065.825-2.64-.016.022-.399.683-.61.683-.61s-.754-.095-.944-.408c-.007-.093.222-.17.222-.17s-.471-.293-.487-.493c.211-.154 1.044.115 1.044.115s-.353-.44-.194-.461c.273-.181 1.33.556 1.33.556s-.35-.863-.226-.984c.15-.06.725.4.725.4s.012-.45.17-.47c.185-.027.389.994 1.052 1.16.77.19 1.255.966 1.465.866zM-111.47 71.566c-.906-.294-3.092.666-3.31.604-.097-.074.166-.62.166-.62s-.768.41-1.013.408c-.1-.087.082-.439.082-.439s-.719.006-.8-.18c-.049-.48 1.222-.767 1.222-.767-.028-.13-1.625.282-2.313-.576.039-.198.512-.273.512-.273s-.57-.435-.545-.576c.033-.225.493-.106.493-.106s-.187-.3-.06-.409c.244-.188 1.094.54 1.094.54s-.431-.805-.269-.935c.179-.242.706.31.706.31l.069-.436c.147-.073.69.974 2.123 1.65.31.146 1.474 1.164 1.474 1.164z" transform="matrix(.26295 .20075 .20262 -.26133 19.27 53.292)"/><path d="M-111.71 70.613c1.074-3.915 2.58-3.86 2.493-4.14-.009-.229-.708-.132-.708-.132s.78-.671.704-.9c-.007-.093-.34-.062-.34-.062s.093-.388.074-.478c-.185-.165-.909.263-.909.263s.213-1.093-.015-1.206c-.145-.105-.573.177-.573.177s.104-.525-.13-.597c-.385-.148-.612.69-.612.69s-.124-.64-.291-.659c-.392.092-.635 3.695-.774 4.993-.295-.249-.247-1.747-.09-2.746.224-1.428.639-2.15.673-2.437-.06-.102-.326-.065-.326-.065s.052-.755-.081-.88c-.09-.058-.45.124-.45.124s-.007-.52-.096-.577c-.1-.065-.304.106-.304.106s-.01-.227-.118-.233c-.144.002-.386.355-.386.355s-.057-.235-.175-.248c-.294.064-.416 2.55-.416 2.55-.254.074-.342-2.393-.846-2.727 0 0-.523-.415-.621-.423-.125.046-.064.775-.064.775s-.942-.726-1.104-.633c-.161.102.075.528.075.528s-.485-.129-.586-.107c-.028.227 1.096 1.367 1.062 1.432 0 0-1.162-.883-1.312-.6-.008.184.375.734.375.734s-.325-.024-.316.109c-.048.135 1.33 1.225 3.506 3.527-.307.095-2.716-2.123-3.45-2.003-.068.082.056.382.056.382s-.617-.035-.719.073c-.006.107.204.378.204.378s-.384.05-.43.147c.176.462 1.267.774 1.267.774s-.784.184-.84.33c.206.417 1.251.505 1.251.505s-.464.052-.435.19c.04.539 1.134-.02 4.333 1.309l.95 1.318s-2.871-1.996-3.112-1.953l.014.255s-.5-.624-.714-.54c-.23.146.156.85.156.85s-1.029-.731-1.274-.486c-.012.079.124.258.124.258s-.428.067-.51.22c-.068.177.532.578.532.578s-.462.148-.453.233c.79.993 1.382.358 2.394.64 0 0-1.281.405-1.37.703.054.21.78.28.78.28s-.069.272.02.282c.061.15.868-.2.868-.2s-.169.357-.06.42c.209.253 1.207-.496 3.208-.446z" transform="matrix(.26295 .20075 .20262 -.26133 19.27 53.292)"/></g></g><g stroke-width="1.078"><path fill="#7a4e48" d="M10.972 4.793c-.684.494-.616 7.79-1.209 8.696h.199c.592-.244.835-7.964 1.01-8.696"/><path fill="#7a4e48" d="M13.617 5.41c.004-1.145-1.747-3.74-2.834-.018 1.473-2.955 2.005-1.53 2.834.018"/><path fill="#e65879" stroke="#e02953" stroke-width=".1975575" d="M13.484 4.785a1 1 0 0 0-.094.033c-.279.118-.366.324-.318.527-.048.575-.2.754-.2.754s.187.013.302-.54a.8.8 0 0 0 .172.172c-.027.258-.124.449-.124.449s.168-.122.238-.377c.113.062.247.105.394.118.106-.137.172-.288.202-.434.244.21.501.192.501.192s-.27-.113-.481-.362a1 1 0 0 0-.01-.14c.456.326.627.186.627.186s-.405-.114-.734-.446c-.1-.129-.263-.191-.475-.132z"/><path fill="#7a4e48" d="M12.31 5.867c.001-1.146-.988-3.74-1.602-.019.832-2.954 1.133-1.53 1.601.019"/><path fill="#e65879" stroke="#e02953" stroke-width=".1975575" d="M12.23 5.62a1 1 0 0 0-.082.02c-.248.072-.341.237-.32.412-.093.478-.24.614-.24.614s.158.028.307-.425a.7.7 0 0 0 .13.16c-.046.214-.147.365-.147.365s.155-.086.237-.294c.091.062.2.11.324.135a.9.9 0 0 0 .212-.346c.187.2.408.207.408.207s-.22-.12-.376-.348a1 1 0 0 0 .005-.118c.357.315.514.213.514.213s-.333-.132-.581-.44c-.074-.118-.205-.185-.39-.155z"/></g><g stroke="#34642f"><path fill="#7a4e48" stroke-width=".55" d="M-113.92 67.886c.547.347 7.34 11.638 7.34 11.638l.175-.034s-6.275-10.799-7.515-11.604z" transform="matrix(-.28439 .22028 -.22189 -.28304 -4.82 57.59)"/><g fill="#44803d" stroke-width=".552"><path d="M-107.57 77.647c.968-.399 2.485.155 2.468-.147-.016-.167-.628-.595-.628-.595.303.145.94.084 1.31-.124-.084-.63-1.188-.556-1.353-.79 0 0 1.721-.208 2.173-.622-.147-.312-.817-.274-.81-.364 0 0 .942-.209.885-.536l-.26-.136s.234-.288.186-.387c-.364-.173-.998.37-.998.37s.265-.451.2-.505c-.704-.233-1.235.98-1.459 1.083-.15-.133.492-1.106.248-1.169-.215-.107-.984.789-.984.789s-.187-.444-.43-.215c.045.567-1.468 1.931-.548 3.348zM-109.68 73.914c1.003-1.657 3.527-1.738 3.453-2.524.142-.29-.668-.387-.668-.387s.822-.476.796-.973c-.112-.207-.921.076-.921.076s.927-1.124.88-1.658c-.136-.379-.774.004-.774.004s.726-.918.73-1.15c-.41-.265-1.24.675-1.24.675.048-.763-.602-1.182-.69.896 0 0-.061-.911-.15-.946-.301-.071-.46.765-.46.765-.13.096-.323-.297-.44-.082.494.968-1.17 1.951-1.049 4.345zM-111.67 70.63c.76-3.29 2.395-4.091 2.39-4.24-.051-.11-.784.02-.784.02s.854-.578.923-1.015l-.389-.038s.073-.356-.017-.459c-.129-.094-.93.228-.93.228s.308-1.032-.024-1.123c-.087-.09-.39.016-.39.016s-.167-.644-.334-.663c-.145.018-.501.829-.501.829s-.168-.59-.337-.553c-.18.107-.196.79-.196.79s-.422-.127-.54.021c-.095.252.799.046.104 4.899 0 0 .89 1.29 1.025 1.288zM-107.78 77.704c.066.561-.24 1.045-.317 1.273-.2.595-.272 1.116-.372 1.146-.134-.053-.194-.271-.194-.271s-.312.57-.5.515c-.034-.394-.42-.886.036-1.72-.232.498-.972 1.732-1.106 1.679-.13-.095-.066-.557-.066-.557s-.736.118-.79-.074c-.056-.192.451-.805.451-.805s-.359.037-.368-.07c-.045-.208.84-.833.84-.833s-.56.052-.582-.052c-.024-.16.233-.16.26-.238.036-.035-.21-.221-.144-.358.037-.143.541-.075.541-.075s-.263-.338-.203-.5c.199-.152 2.038 1.002 2.292.54zM-109.66 74.615c.166.388-.793.558-1.123.85-.584.517-.802 1.006-1.112 1.208-.211-.036-.11-.955-.11-.955s-.51.79-.757.843c-.129-.095.034-.538.034-.538s-.555.202-.684.107c.035-.85 1.237-1.517 1.237-1.517-.065-.176-2.065.825-2.64-.016.022-.399.683-.61.683-.61s-.754-.095-.944-.408c-.007-.093.222-.17.222-.17s-.471-.293-.487-.493c.211-.154 1.044.115 1.044.115s-.353-.44-.194-.461c.273-.181 1.33.556 1.33.556s-.35-.863-.226-.984c.15-.06.725.4.725.4s.012-.45.17-.47c.185-.027.389.994 1.052 1.16.77.19 1.255.966 1.465.866zM-111.47 71.566c-.906-.294-3.092.666-3.31.604-.097-.074.166-.62.166-.62s-.768.41-1.013.408c-.1-.087.082-.439.082-.439s-.719.006-.8-.18c-.049-.48 1.222-.767 1.222-.767-.028-.13-1.625.282-2.313-.576.039-.198.512-.273.512-.273s-.57-.435-.545-.576c.033-.225.493-.106.493-.106s-.187-.3-.06-.409c.244-.188 1.094.54 1.094.54s-.431-.805-.269-.935c.179-.242.706.31.706.31l.069-.436c.147-.073.69.974 2.123 1.65.31.146 1.474 1.164 1.474 1.164z" transform="matrix(-.28439 .22028 -.22189 -.28304 -4.82 57.59)"/><path d="M-111.71 70.613c1.074-3.915 2.58-3.86 2.493-4.14-.009-.229-.708-.132-.708-.132s.78-.671.704-.9c-.007-.093-.34-.062-.34-.062s.093-.388.074-.478c-.185-.165-.909.263-.909.263s.213-1.093-.015-1.206c-.145-.105-.573.177-.573.177s.104-.525-.13-.597c-.385-.148-.612.69-.612.69s-.124-.64-.291-.659c-.392.092-.635 3.695-.774 4.993-.295-.249-.247-1.747-.09-2.746.224-1.428.639-2.15.673-2.437-.06-.102-.326-.065-.326-.065s.052-.755-.081-.88c-.09-.058-.45.124-.45.124s-.007-.52-.096-.577c-.1-.065-.304.106-.304.106s-.01-.227-.118-.233c-.144.002-.386.355-.386.355s-.057-.235-.175-.248c-.294.064-.416 2.55-.416 2.55-.254.074-.342-2.393-.846-2.727 0 0-.523-.415-.621-.423-.125.046-.064.775-.064.775s-.942-.726-1.104-.633c-.161.102.075.528.075.528s-.485-.129-.586-.107c-.028.227 1.096 1.367 1.062 1.432 0 0-1.162-.883-1.312-.6-.008.184.375.734.375.734s-.325-.024-.316.109c-.048.135 1.33 1.225 3.506 3.527-.307.095-2.716-2.123-3.45-2.003-.068.082.056.382.056.382s-.617-.035-.719.073c-.006.107.204.378.204.378s-.384.05-.43.147c.176.462 1.267.774 1.267.774s-.784.184-.84.33c.206.417 1.251.505 1.251.505s-.464.052-.435.19c.04.539 1.134-.02 4.333 1.309l.95 1.318s-2.871-1.996-3.112-1.953l.014.255s-.5-.624-.714-.54c-.23.146.156.85.156.85s-1.029-.731-1.274-.486c-.012.079.124.258.124.258s-.428.067-.51.22c-.068.177.532.578.532.578s-.462.148-.453.233c.79.993 1.382.358 2.394.64 0 0-1.281.405-1.37.703.054.21.78.28.78.28s-.069.272.02.282c.061.15.868-.2.868-.2s-.169.357-.06.42c.209.253 1.207-.496 3.208-.446z" transform="matrix(-.28439 .22028 -.22189 -.28304 -4.82 57.59)"/></g></g><path fill="#44803d" stroke="#34642f" stroke-width=".198" d="M7.68 11.306c.145-.046.17.303.264.43.164.228.332.323.393.44-.02.075-.347.006-.347.006s.265.21.275.3c-.038.043-.191-.031-.191-.031s.052.205.013.248c-.304-.043-.5-.496-.5-.496-.065.017.222.767-.1.942-.143-.022-.195-.266-.195-.266s-.061.266-.18.323c-.034 0-.053-.085-.053-.085s-.123.158-.195.156c-.048-.08.079-.369.079-.369s-.17.11-.173.053c-.055-.104.248-.454.248-.454s-.322.094-.361.045c-.016-.056.17-.244.17-.244s-.161-.02-.163-.078c-.003-.067.371-.103.454-.334.097-.268.393-.414.364-.492z"/></svg>