<svg xmlns="http://www.w3.org/2000/svg" xml:space="preserve" width="149.885" height="400.397" viewBox="0 0 39.658 105.94"><path fill="#425b40" d="M9.575 24.629c.72 1.44 4.167 22.067 4.222 27.938.232 25.235 1.54 53.37 1.54 53.37l.921.057s-.502-28.79-1.584-53.916c-.34-7.891-3.66-26.28-5.099-27.45z"/><path fill="#425b40" d="M17.023 27.23s-2.423 1.766-3.375 4.366c-1.409 3.846-.737 7.223-.737 7.223l-.533.183s-.548-3.637.891-7.466c1.048-2.788 3.754-4.305 3.754-4.305"/><g stroke-linecap="round" stroke-linejoin="round" stroke-miterlimit="2" stroke-width=".602" transform="matrix(-.32793 -.0352 -.03504 .32756 1.907 -17.076)"><path fill="#fbeb19" stroke="#ada103" d="M-61.535 132.61c-1.8 1.618-4.014 2.717-5.739 4.423-.856.607-.574 2.1.585 2.018 1.239-.098 2.07-1.191 2.878-2.015.61-.69 1.199-1.395 1.797-2.094-1.065 1.477-2.366 2.822-3.101 4.508-.514.897.422 2.093 1.409 1.646 1.128-.533 1.588-1.82 2.136-2.857.694-1.328 1.078-2.832 2.027-4.016-.568 2.334-2.11 4.33-2.503 6.716-.24 1.024 1.079 1.82 1.853 1.084.875-.86.96-2.185 1.196-3.324.278-1.38.265-2.836.839-4.142-.064 2.306-.81 4.58-.52 6.892.041 1.054 1.525 1.583 2.1.621.592-1.093.316-2.403.23-3.585-.12-1.392-.46-2.767-.42-4.17.745 2.26.66 4.753 1.737 6.907.373.942 1.902 1.105 2.218.036.242-1.142-.414-2.23-.827-3.255-.536-1.28-1.3-2.465-1.705-3.797.34.335.923 1.57 1.354 2.256.784 1.271 1.482 2.704 2.76 3.551.81.595 2.132-.141 1.84-1.169-.442-1.371-1.592-2.347-2.513-3.405-.306-.337-.933-.986-.285-.353 1.046.934 2.06 2.088 3.476 2.425.95.269 1.936-.894 1.247-1.714-1.027-1.159-2.514-1.746-3.827-2.515-.894-.53-1.894-.97-2.613-1.737-.737-1.034-1.668-2.277-3.063-2.287-1.423.11-2.45 1.269-3.43 2.183-.384.384-.76.776-1.136 1.169z"/><circle cx="-64.202" cy="126.12" r="4.664" fill="#bea204" stroke="#877303" transform="rotate(-2.908)"/></g><g stroke-linecap="round" stroke-linejoin="round" stroke-miterlimit="2" stroke-width=".602" transform="matrix(.32575 -.05163 .05146 .32538 21.526 -20.785)"><path fill="#fbeb19" stroke="#ada103" d="M-61.535 132.61c-1.8 1.618-4.014 2.717-5.739 4.423-.856.607-.574 2.1.585 2.018 1.239-.098 2.07-1.191 2.878-2.015.61-.69 1.199-1.395 1.797-2.094-1.065 1.477-2.366 2.822-3.101 4.508-.514.897.422 2.093 1.409 1.646 1.128-.533 1.588-1.82 2.136-2.857.694-1.328 1.078-2.832 2.027-4.016-.568 2.334-2.11 4.33-2.503 6.716-.24 1.024 1.079 1.82 1.853 1.084.875-.86.96-2.185 1.196-3.324.278-1.38.265-2.836.839-4.142-.064 2.306-.81 4.58-.52 6.892.041 1.054 1.525 1.583 2.1.621.592-1.093.316-2.403.23-3.585-.12-1.392-.46-2.767-.42-4.17.745 2.26.66 4.753 1.737 6.907.373.942 1.902 1.105 2.218.036.242-1.142-.414-2.23-.827-3.255-.536-1.28-1.3-2.465-1.705-3.797.34.335.923 1.57 1.354 2.256.784 1.271 1.482 2.704 2.76 3.551.81.595 2.132-.141 1.84-1.169-.442-1.371-1.592-2.347-2.513-3.405-.306-.337-.933-.986-.285-.353 1.046.934 2.06 2.088 3.476 2.425.95.269 1.936-.894 1.247-1.714-1.027-1.159-2.514-1.746-3.827-2.515-.894-.53-1.894-.97-2.613-1.737-.737-1.034-1.668-2.277-3.063-2.287-1.423.11-2.45 1.269-3.43 2.183-.384.384-.76.776-1.136 1.169z"/><circle cx="-64.202" cy="126.12" r="4.664" fill="#bea204" stroke="#877303" transform="rotate(-2.908)"/></g><path fill="#425b40" d="M15.656 105.1c5.959-1.386 12.106 3.8 12.439 3.773.897-2.073-5.763-8.932-12.44-3.773"/><path fill="none" d="M15.656 105.1c7.466-3.356 12.458 3.055 12.439 3.773"/><path fill="#425b40" d="M15.42 97.32c5.81-1.35 11.802 3.702 12.127 3.676.874-2.02-5.618-8.703-12.127-3.676"/><path fill="none" d="M15.42 97.32c7.279-3.27 12.145 2.977 12.127 3.676"/><path fill="#425b40" d="M15.224 88.527c5.934-.6 11.234 5.176 11.559 5.191 1.125-1.891-4.463-9.348-11.56-5.191"/><path fill="none" d="M15.224 88.527c7.636-2.316 11.666 4.5 11.559 5.191"/><path fill="#425b40" d="M14.967 78.706c5.963.102 10.549 6.459 10.87 6.513 1.339-1.747-3.335-9.808-10.87-6.513"/><path fill="none" d="M14.967 78.706c7.855-1.403 11.058 5.839 10.87 6.513"/><path fill="#425b40" d="M15.009 72.464c-4.592.09-8.124 5.782-8.372 5.83-1.03-1.563 2.57-8.78 8.372-5.83"/><path fill="none" d="M15.009 72.464c-6.05-1.256-8.516 5.227-8.372 5.83"/><path fill="#425b40" d="M14.879 64.028c-4.592.09-8.124 5.782-8.372 5.83-1.03-1.563 2.57-8.78 8.372-5.83"/><path fill="none" d="M14.879 64.028c-6.05-1.256-8.516 5.227-8.372 5.83"/><path fill="#425b40" d="M14.28 54.455c-4.526.788-7.15 6.95-7.388 7.036-1.257-1.389 1.203-9.07 7.387-7.036"/><path fill="none" d="M14.28 54.455c-6.171-.322-7.623 6.462-7.388 7.036"/><path fill="#425b40" d="M12.332 38.787c3.96-.282 7.784 5.052 8.003 5.08.67-1.628-3.425-8.462-8.003-5.08"/><path fill="none" d="M12.332 38.787c5.025-1.73 8.043 4.472 8.003 5.08"/><path fill="#425b40" d="M11.776 33.778c-3.31-.247-6.523 4.206-6.707 4.228-.555-1.363 2.888-7.07 6.707-4.228"/><path fill="none" d="M11.776 33.778c-4.197-1.461-6.739 3.72-6.707 4.228"/><path fill="#425b40" d="M13.004 42.995c-3.464-.258-6.828 4.404-7.02 4.428-.58-1.428 3.023-7.404 7.02-4.428"/><path fill="none" d="M13.004 42.995c-4.393-1.53-7.054 3.896-7.02 4.428"/><path fill="#425b40" d="M14.478 68.315c4.935.09 8.73 5.782 8.995 5.83 1.109-1.563-2.76-8.78-8.995-5.83"/><path fill="none" d="M14.478 68.315c6.5-1.257 9.15 5.227 8.995 5.83"/><path fill="#425b40" d="M14.32 60.084c4.936.09 8.73 5.782 8.996 5.83 1.109-1.564-2.76-8.78-8.995-5.83"/><path fill="none" d="M14.32 60.084c6.501-1.257 9.152 5.227 8.996 5.83"/><path fill="#425b40" d="M15.83 92.775c-5.526.364-9.512 6.752-9.807 6.818-1.316-1.64 2.68-9.688 9.807-6.818"/><path fill="none" d="M15.83 92.775c-7.344-1.016-10.01 6.17-9.807 6.818"/><path fill="#425b40" d="M15.73 100.348c-5.146-.338-9.549 4.808-9.83 4.831-1.03-1.599 3.57-8.205 9.83-4.831"/><path fill="none" d="M15.73 100.348c-6.67-1.768-9.943 4.238-9.83 4.831"/><path fill="#425b40" d="M8.379 84.227c-.98 1.602-.641 3.742-1.395 4.874.09-.965-1.257-3.038-.214-4.232.35-.442 1.56-1.107 1.609-.642"/><path fill="#425b40" d="M15.372 85.595c-2.964-1.187-6.22-2.251-8.603-.726.525-.875 2.325-1.797 3.072-2.152 1.249-.269 3.02.405 5.53 2.878z"/><path fill="none" d="M15.372 85.595c-4.12-3.022-6.68-2.279-6.68-2.279"/><path fill="#425b40" d="M20.869 51.021c.254 1.86-.917 3.684-.683 5.024.306-.92 2.374-2.277 1.898-3.789-.143-.545-.983-1.64-1.215-1.235"/><path fill="#425b40" d="M13.916 49.462c3.191.105 6.6.44 8.169 2.794-.129-1.012-1.406-2.58-1.947-3.205-1.036-.748-2.928-.844-6.221.411z"/><path fill="none" d="M13.916 49.462c4.988-1.11 7.033.6 7.033.6"/><path fill="#425b40" d="M27.01 23.766c.557 1.51 1.705 22.393 1.11 28.234-2.556 25.106-4.364 53.214-4.364 53.214l.908.158s2.682-28.669 4.382-53.76c.534-7.882-.734-26.524-2.035-27.846z"/><path fill="#425b40" d="M34.126 27.175s-2.604 1.487-3.837 3.966c-1.825 3.666-1.53 7.097-1.53 7.097l-.55.123s-.144-3.675 1.71-7.321c1.35-2.655 4.207-3.865 4.207-3.865"/><g stroke-linecap="round" stroke-linejoin="round" stroke-miterlimit="2" stroke-width=".602" transform="matrix(-.32203 -.0712 -.071 .32168 23.997 -18.53)"><path fill="#fbeb19" stroke="#ada103" d="M-61.535 132.61c-1.8 1.618-4.014 2.717-5.739 4.423-.856.607-.574 2.1.585 2.018 1.239-.098 2.07-1.191 2.878-2.015.61-.69 1.199-1.395 1.797-2.094-1.065 1.477-2.366 2.822-3.101 4.508-.514.897.422 2.093 1.409 1.646 1.128-.533 1.588-1.82 2.136-2.857.694-1.328 1.078-2.832 2.027-4.016-.568 2.334-2.11 4.33-2.503 6.716-.24 1.024 1.079 1.82 1.853 1.084.875-.86.96-2.185 1.196-3.324.278-1.38.265-2.836.839-4.142-.064 2.306-.81 4.58-.52 6.892.041 1.054 1.525 1.583 2.1.621.592-1.093.316-2.403.23-3.585-.12-1.392-.46-2.767-.42-4.17.745 2.26.66 4.753 1.737 6.907.373.942 1.902 1.105 2.218.036.242-1.142-.414-2.23-.827-3.255-.536-1.28-1.3-2.465-1.705-3.797.34.335.923 1.57 1.354 2.256.784 1.271 1.482 2.704 2.76 3.551.81.595 2.132-.141 1.84-1.169-.442-1.371-1.592-2.347-2.513-3.405-.306-.337-.933-.986-.285-.353 1.046.934 2.06 2.088 3.476 2.425.95.269 1.936-.894 1.247-1.714-1.027-1.159-2.514-1.746-3.827-2.515-.894-.53-1.894-.97-2.613-1.737-.737-1.034-1.668-2.277-3.063-2.287-1.423.11-2.45 1.269-3.43 2.183-.384.384-.76.776-1.136 1.169z"/><circle cx="-64.202" cy="126.12" r="4.664" fill="#bea204" stroke="#877303" transform="rotate(-2.908)"/></g><g stroke-linecap="round" stroke-linejoin="round" stroke-miterlimit="2" stroke-width=".602" transform="matrix(.32946 -.01533 .0152 .32907 43.906 -20.05)"><path fill="#fbeb19" stroke="#ada103" d="M-61.535 132.61c-1.8 1.618-4.014 2.717-5.739 4.423-.856.607-.574 2.1.585 2.018 1.239-.098 2.07-1.191 2.878-2.015.61-.69 1.199-1.395 1.797-2.094-1.065 1.477-2.366 2.822-3.101 4.508-.514.897.422 2.093 1.409 1.646 1.128-.533 1.588-1.82 2.136-2.857.694-1.328 1.078-2.832 2.027-4.016-.568 2.334-2.11 4.33-2.503 6.716-.24 1.024 1.079 1.82 1.853 1.084.875-.86.96-2.185 1.196-3.324.278-1.38.265-2.836.839-4.142-.064 2.306-.81 4.58-.52 6.892.041 1.054 1.525 1.583 2.1.621.592-1.093.316-2.403.23-3.585-.12-1.392-.46-2.767-.42-4.17.745 2.26.66 4.753 1.737 6.907.373.942 1.902 1.105 2.218.036.242-1.142-.414-2.23-.827-3.255-.536-1.28-1.3-2.465-1.705-3.797.34.335.923 1.57 1.354 2.256.784 1.271 1.482 2.704 2.76 3.551.81.595 2.132-.141 1.84-1.169-.442-1.371-1.592-2.347-2.513-3.405-.306-.337-.933-.986-.285-.353 1.046.934 2.06 2.088 3.476 2.425.95.269 1.936-.894 1.247-1.714-1.027-1.159-2.514-1.746-3.827-2.515-.894-.53-1.894-.97-2.613-1.737-.737-1.034-1.668-2.277-3.063-2.287-1.423.11-2.45 1.269-3.43 2.183-.384.384-.76.776-1.136 1.169z"/><circle cx="-64.202" cy="126.12" r="4.664" fill="#bea204" stroke="#877303" transform="rotate(-2.908)"/></g><path fill="#425b40" d="M24.164 104.417c6.076-.72 11.613 5.113 11.946 5.124 1.12-1.961-4.74-9.514-11.946-5.124"/><path fill="none" d="M24.164 104.417c7.791-2.51 12.044 4.412 11.946 5.124"/><path fill="#425b40" d="M24.79 96.658c5.922-.7 11.32 4.984 11.645 4.994 1.093-1.91-4.621-9.27-11.645-4.994"/><path fill="none" d="M24.79 96.658c7.595-2.445 11.741 4.301 11.645 4.994"/><path fill="#425b40" d="M25.566 87.897c5.963.06 10.593 6.386 10.915 6.437 1.326-1.756-3.403-9.784-10.915-6.437"/><path fill="none" d="M25.566 87.897c7.845-1.457 11.098 5.762 10.915 6.437"/><path fill="#425b40" d="M26.395 78.109c5.916.76 9.771 7.584 10.084 7.673 1.524-1.588-2.231-10.116-10.084-7.673"/><path fill="none" d="M26.395 78.109c7.962-.527 10.346 7.024 10.084 7.673"/><path fill="#425b40" d="M27.127 71.91c-4.575-.418-8.714 4.849-8.965 4.87-.852-1.669 3.523-8.444 8.965-4.87"/><path fill="none" d="M27.127 71.91c-5.874-1.918-9.042 4.254-8.965 4.87"/><path fill="#425b40" d="M27.93 63.51c-4.575-.416-8.714 4.85-8.965 4.87-.852-1.668 3.523-8.442 8.965-4.87"/><path fill="none" d="M27.93 63.51c-5.874-1.917-9.042 4.255-8.965 4.87"/><path fill="#425b40" d="M28.391 53.93c-4.585.284-7.874 6.118-8.12 6.177-1.095-1.52 2.198-8.881 8.12-6.177"/><path fill="none" d="M28.391 53.93c-6.097-1.001-8.29 5.58-8.12 6.177"/><path fill="#425b40" d="M28.187 38.143c3.966.157 7.178 5.88 7.392 5.932.846-1.543-2.468-8.788-7.392-5.932"/><path fill="none" d="M28.187 38.143c5.185-1.164 7.5 5.333 7.392 5.932"/><path fill="#425b40" d="M28.188 33.102c-3.263-.61-6.949 3.46-7.133 3.462-.402-1.416 3.651-6.708 7.133-3.462"/><path fill="none" d="M28.188 33.102c-4.01-1.915-7.11 2.954-7.133 3.462"/><path fill="#425b40" d="M28.39 42.399c-3.415-.64-7.273 3.623-7.466 3.625-.42-1.483 3.822-7.024 7.466-3.625"/><path fill="none" d="M28.39 42.399c-4.197-2.006-7.441 3.093-7.466 3.625"/><path fill="#425b40" d="M27.057 67.727c4.895.635 8.038 6.711 8.297 6.789 1.274-1.432-1.774-9.032-8.297-6.789"/><path fill="none" d="M27.057 67.727c6.6-.53 8.518 6.206 8.297 6.789"/><path fill="#425b40" d="M27.81 59.529c4.895.635 8.038 6.711 8.297 6.788 1.274-1.432-1.773-9.031-8.296-6.788"/><path fill="none" d="M27.81 59.529c6.6-.53 8.518 6.206 8.297 6.788"/><path fill="#425b40" d="M25.7 92.186c-5.534-.248-10.2 5.66-10.501 5.694-1.127-1.775 3.733-9.333 10.5-5.694"/><path fill="none" d="M25.7 92.186c-7.188-1.82-10.631 5.028-10.501 5.694"/><path fill="#425b40" d="M24.763 99.702c-5.078-.904-10.021 3.724-10.303 3.716-.847-1.703 4.453-7.76 10.303-3.716"/><path fill="none" d="M24.763 99.702c-6.434-2.494-10.35 3.114-10.303 3.716"/><path fill="#425b40" d="M19.238 82.868c-1.152 1.483-1.051 3.648-1.925 4.69.196-.949-.914-3.159.255-4.23.397-.4 1.672-.928 1.67-.46"/><path fill="#425b40" d="M26.037 85c-2.815-1.507-5.934-2.925-8.47-1.672.618-.811 2.509-1.529 3.29-1.8 1.271-.129 2.957.736 5.18 3.471z"/><path fill="none" d="M26.037 85c-3.761-3.459-6.388-3.003-6.388-3.003"/><path fill="#425b40" d="M35.32 51.245c.047 1.877-1.319 3.56-1.234 4.918.406-.88 2.61-2 2.305-3.556-.082-.558-.796-1.74-1.071-1.362"/><path fill="#425b40" d="M28.582 48.927c3.16.457 6.512 1.167 7.81 3.68-.016-1.02-1.113-2.72-1.581-3.401-.947-.858-2.817-1.162-6.229-.279z"/><path fill="none" d="M28.582 48.927c5.08-.552 6.923 1.374 6.923 1.374"/><g stroke="#425b40" stroke-linecap="round" stroke-linejoin="round" stroke-miterlimit="2" stroke-width=".221"><path fill="#425b40" d="M-18.825 54.73c1.417 1.822 1.168 4.42 2.248 5.702-.203-1.147 1.363-3.764-.1-5.092-.494-.494-2.126-1.172-2.148-.61" transform="matrix(.80101 -.09001 .0724 .99594 39.088 1.937)"/><path fill="#658b62" d="M-27.789 57.058c3.745-1.714 7.881-3.31 11.113-1.718-.76-.996-3.181-1.923-4.183-2.276-1.647-.198-3.888.784-6.93 3.994z" transform="matrix(.80101 -.09001 .0724 .99594 39.088 1.937)"/><path fill="none" d="M-27.789 57.058c5.084-4.027 8.477-3.388 8.477-3.388" transform="matrix(.80101 -.09001 .0724 .99594 39.088 1.937)"/></g><g stroke="#425b40" stroke-linecap="round" stroke-linejoin="round" stroke-miterlimit="2" stroke-width=".19"><path fill="#425b40" d="M-18.825 54.73c1.417 1.822 1.168 4.42 2.248 5.702-.203-1.147 1.363-3.764-.1-5.092-.494-.494-2.126-1.172-2.148-.61" transform="matrix(-.91191 .21727 .31391 1.1193 -21.92 24.188)"/><path fill="#658b62" d="M-27.789 57.058c3.745-1.714 7.881-3.31 11.113-1.718-.76-.996-3.181-1.923-4.183-2.276-1.647-.198-3.888.784-6.93 3.994z" transform="matrix(-.91191 .21727 .31391 1.1193 -21.92 24.188)"/><path fill="none" d="M-27.789 57.058c5.084-4.027 8.477-3.388 8.477-3.388" transform="matrix(-.91191 .21727 .31391 1.1193 -21.92 24.188)"/></g><g fill="#425b40"><path d="M17.475 2.521c2.457 4.228 2.626 12.644 2.7 13.116s.386 19.945.437 33.271c.054 26.926-.066 56.968-.066 56.968l.918.09s.136-30.717.04-57.549c-.07-19.494-.657-32.165-.777-32.613s-.42-11.217-3.252-13.282z"/><path d="M13.544 11.539s3.021 1.454 4.593 4.122c2.324 3.945 2.265 7.794 2.265 7.794l.624.095s-.13-4.11-2.485-8.031c-1.715-2.856-4.997-3.98-4.997-3.98z"/><path d="M27.407 10.461s-2.973 1.247-4.46 3.435c-2.196 3.234-2.016 6.33-2.016 6.33l-.493.124s-.128-3.342 2.101-6.558c1.623-2.342 4.868-3.33 4.868-3.33M24.212 4.147s-1.731.839-2.632 2.377c-1.332 2.276-1.298 4.496-1.298 4.496l-.357.054s.074-2.37 1.423-4.632c.983-1.646 2.864-2.295 2.864-2.295"/></g><g stroke-linecap="round" stroke-linejoin="round" stroke-miterlimit="2" stroke-width=".538" transform="matrix(.35372 -.10474 .10453 .35319 21.25 -40.234)"><path fill="#fbeb19" stroke="#ada103" d="M-61.535 132.61c-1.8 1.618-4.014 2.717-5.739 4.423-.856.607-.574 2.1.585 2.018 1.239-.098 2.07-1.191 2.878-2.015.61-.69 1.199-1.395 1.797-2.094-1.065 1.477-2.366 2.822-3.101 4.508-.514.897.422 2.093 1.409 1.646 1.128-.533 1.588-1.82 2.136-2.857.694-1.328 1.078-2.832 2.027-4.016-.568 2.334-2.11 4.33-2.503 6.716-.24 1.024 1.079 1.82 1.853 1.084.875-.86.96-2.185 1.196-3.324.278-1.38.265-2.836.839-4.142-.064 2.306-.81 4.58-.52 6.892.041 1.054 1.525 1.583 2.1.621.592-1.093.316-2.403.23-3.585-.12-1.392-.46-2.767-.42-4.17.745 2.26.66 4.753 1.737 6.907.373.942 1.902 1.105 2.218.036.242-1.142-.414-2.23-.827-3.255-.536-1.28-1.3-2.465-1.705-3.797.34.335.923 1.57 1.354 2.256.784 1.271 1.482 2.704 2.76 3.551.81.595 2.132-.141 1.84-1.169-.442-1.371-1.592-2.347-2.513-3.405-.306-.337-.933-.986-.285-.353 1.046.934 2.06 2.088 3.476 2.425.95.269 1.936-.894 1.247-1.714-1.027-1.159-2.514-1.746-3.827-2.515-.894-.53-1.894-.97-2.613-1.737-.737-1.034-1.668-2.277-3.063-2.287-1.423.11-2.45 1.269-3.43 2.183-.384.384-.76.776-1.136 1.169z"/><circle cx="-64.202" cy="126.12" r="4.664" fill="#bea204" stroke="#877303" transform="rotate(-2.908)"/></g><path fill="#425b40" d="M25.545 18.284s-1.113 3-1.995 6.914c-1.304 5.786-2.447 7.597-2.224 8.456l-.72-.136s1.073-2.557 2.436-8.328c.992-4.202 2.503-6.906 2.503-6.906"/><path fill="#425b40" d="M30.608 19.667s-2.885.814-4.681 2.922c-2.656 3.116-3.359 6.373-3.359 6.373l-.23-.013s.575-3.457 3.255-6.548c1.95-2.25 5.015-2.734 5.015-2.734"/><g stroke-linecap="round" stroke-linejoin="round" stroke-miterlimit="2" stroke-width=".602" transform="matrix(-.29529 -.14691 -.14663 .29499 31.823 -27.132)"><path fill="#fbeb19" stroke="#ada103" d="M-61.535 132.61c-1.8 1.618-4.014 2.717-5.739 4.423-.856.607-.574 2.1.585 2.018 1.239-.098 2.07-1.191 2.878-2.015.61-.69 1.199-1.395 1.797-2.094-1.065 1.477-2.366 2.822-3.101 4.508-.514.897.422 2.093 1.409 1.646 1.128-.533 1.588-1.82 2.136-2.857.694-1.328 1.078-2.832 2.027-4.016-.568 2.334-2.11 4.33-2.503 6.716-.24 1.024 1.079 1.82 1.853 1.084.875-.86.96-2.185 1.196-3.324.278-1.38.265-2.836.839-4.142-.064 2.306-.81 4.58-.52 6.892.041 1.054 1.525 1.583 2.1.621.592-1.093.316-2.403.23-3.585-.12-1.392-.46-2.767-.42-4.17.745 2.26.66 4.753 1.737 6.907.373.942 1.902 1.105 2.218.036.242-1.142-.414-2.23-.827-3.255-.536-1.28-1.3-2.465-1.705-3.797.34.335.923 1.57 1.354 2.256.784 1.271 1.482 2.704 2.76 3.551.81.595 2.132-.141 1.84-1.169-.442-1.371-1.592-2.347-2.513-3.405-.306-.337-.933-.986-.285-.353 1.046.934 2.06 2.088 3.476 2.425.95.269 1.936-.894 1.247-1.714-1.027-1.159-2.514-1.746-3.827-2.515-.894-.53-1.894-.97-2.613-1.737-.737-1.034-1.668-2.277-3.063-2.287-1.423.11-2.45 1.269-3.43 2.183-.384.384-.76.776-1.136 1.169z"/><circle cx="-64.202" cy="126.12" r="4.664" fill="#bea204" stroke="#877303" transform="rotate(-2.908)"/></g><g stroke-linecap="round" stroke-linejoin="round" stroke-miterlimit="2" stroke-width=".602" transform="matrix(.3249 .05675 -.0568 .32449 51.483 -21.108)"><path fill="#fbeb19" stroke="#ada103" d="M-61.535 132.61c-1.8 1.618-4.014 2.717-5.739 4.423-.856.607-.574 2.1.585 2.018 1.239-.098 2.07-1.191 2.878-2.015.61-.69 1.199-1.395 1.797-2.094-1.065 1.477-2.366 2.822-3.101 4.508-.514.897.422 2.093 1.409 1.646 1.128-.533 1.588-1.82 2.136-2.857.694-1.328 1.078-2.832 2.027-4.016-.568 2.334-2.11 4.33-2.503 6.716-.24 1.024 1.079 1.82 1.853 1.084.875-.86.96-2.185 1.196-3.324.278-1.38.265-2.836.839-4.142-.064 2.306-.81 4.58-.52 6.892.041 1.054 1.525 1.583 2.1.621.592-1.093.316-2.403.23-3.585-.12-1.392-.46-2.767-.42-4.17.745 2.26.66 4.753 1.737 6.907.373.942 1.902 1.105 2.218.036.242-1.142-.414-2.23-.827-3.255-.536-1.28-1.3-2.465-1.705-3.797.34.335.923 1.57 1.354 2.256.784 1.271 1.482 2.704 2.76 3.551.81.595 2.132-.141 1.84-1.169-.442-1.371-1.592-2.347-2.513-3.405-.306-.337-.933-.986-.285-.353 1.046.934 2.06 2.088 3.476 2.425.95.269 1.936-.894 1.247-1.714-1.027-1.159-2.514-1.746-3.827-2.515-.894-.53-1.894-.97-2.613-1.737-.737-1.034-1.668-2.277-3.063-2.287-1.423.11-2.45 1.269-3.43 2.183-.384.384-.76.776-1.136 1.169z"/><circle cx="-64.202" cy="126.12" r="4.664" fill="#bea204" stroke="#877303" transform="rotate(-2.908)"/></g><path fill="#425b40" d="M15.158 21.405s2.312 4.466 3.287 8.793c1.442 6.397 2.4 8.624 2.4 8.624l.223-.629s-.666-1.655-2.173-8.036c-1.097-4.646-3.737-8.752-3.737-8.752"/><path fill="#425b40" d="M12.882 26.78s3.167.822 5.308 3.01c.593.607.903 2.75.903 2.75l.253-.026s-.542-2.705-.796-2.946a10.64 10.64 0 0 0-5.668-2.789"/><g stroke-linecap="round" stroke-linejoin="round" stroke-miterlimit="2" stroke-width=".544" transform="matrix(.27018 -.24501 .24464 .26986 -3.898 -23.085)"><path fill="#fbeb19" stroke="#ada103" d="M-61.535 132.61c-1.8 1.618-4.014 2.717-5.739 4.423-.856.607-.574 2.1.585 2.018 1.239-.098 2.07-1.191 2.878-2.015.61-.69 1.199-1.395 1.797-2.094-1.065 1.477-2.366 2.822-3.101 4.508-.514.897.422 2.093 1.409 1.646 1.128-.533 1.588-1.82 2.136-2.857.694-1.328 1.078-2.832 2.027-4.016-.568 2.334-2.11 4.33-2.503 6.716-.24 1.024 1.079 1.82 1.853 1.084.875-.86.96-2.185 1.196-3.324.278-1.38.265-2.836.839-4.142-.064 2.306-.81 4.58-.52 6.892.041 1.054 1.525 1.583 2.1.621.592-1.093.316-2.403.23-3.585-.12-1.392-.46-2.767-.42-4.17.745 2.26.66 4.753 1.737 6.907.373.942 1.902 1.105 2.218.036.242-1.142-.414-2.23-.827-3.255-.536-1.28-1.3-2.465-1.705-3.797.34.335.923 1.57 1.354 2.256.784 1.271 1.482 2.704 2.76 3.551.81.595 2.132-.141 1.84-1.169-.442-1.371-1.592-2.347-2.513-3.405-.306-.337-.933-.986-.285-.353 1.046.934 2.06 2.088 3.476 2.425.95.269 1.936-.894 1.247-1.714-1.027-1.159-2.514-1.746-3.827-2.515-.894-.53-1.894-.97-2.613-1.737-.737-1.034-1.668-2.277-3.063-2.287-1.423.11-2.45 1.269-3.43 2.183-.384.384-.76.776-1.136 1.169z"/><circle cx="-64.202" cy="126.12" r="4.664" fill="#bea204" stroke="#877303" transform="rotate(-2.908)"/></g><g stroke-linecap="round" stroke-linejoin="round" stroke-miterlimit="2" stroke-width=".544" transform="matrix(-.36344 .03082 .03091 .36291 -9.505 -24.797)"><path fill="#fbeb19" stroke="#ada103" d="M-61.535 132.61c-1.8 1.618-4.014 2.717-5.739 4.423-.856.607-.574 2.1.585 2.018 1.239-.098 2.07-1.191 2.878-2.015.61-.69 1.199-1.395 1.797-2.094-1.065 1.477-2.366 2.822-3.101 4.508-.514.897.422 2.093 1.409 1.646 1.128-.533 1.588-1.82 2.136-2.857.694-1.328 1.078-2.832 2.027-4.016-.568 2.334-2.11 4.33-2.503 6.716-.24 1.024 1.079 1.82 1.853 1.084.875-.86.96-2.185 1.196-3.324.278-1.38.265-2.836.839-4.142-.064 2.306-.81 4.58-.52 6.892.041 1.054 1.525 1.583 2.1.621.592-1.093.316-2.403.23-3.585-.12-1.392-.46-2.767-.42-4.17.745 2.26.66 4.753 1.737 6.907.373.942 1.902 1.105 2.218.036.242-1.142-.414-2.23-.827-3.255-.536-1.28-1.3-2.465-1.705-3.797.34.335.923 1.57 1.354 2.256.784 1.271 1.482 2.704 2.76 3.551.81.595 2.132-.141 1.84-1.169-.442-1.371-1.592-2.347-2.513-3.405-.306-.337-.933-.986-.285-.353 1.046.934 2.06 2.088 3.476 2.425.95.269 1.936-.894 1.247-1.714-1.027-1.159-2.514-1.746-3.827-2.515-.894-.53-1.894-.97-2.613-1.737-.737-1.034-1.668-2.277-3.063-2.287-1.423.11-2.45 1.269-3.43 2.183-.384.384-.76.776-1.136 1.169z"/><circle cx="-64.202" cy="126.12" r="4.664" fill="#bea204" stroke="#877303" transform="rotate(-2.908)"/></g><g stroke-linecap="round" stroke-linejoin="round" stroke-miterlimit="2" stroke-width=".538" transform="matrix(-.35363 .10503 .10492 .35307 -16.676 -37.742)"><path fill="#fbeb19" stroke="#ada103" d="M-61.535 132.61c-1.8 1.618-4.014 2.717-5.739 4.423-.856.607-.574 2.1.585 2.018 1.239-.098 2.07-1.191 2.878-2.015.61-.69 1.199-1.395 1.797-2.094-1.065 1.477-2.366 2.822-3.101 4.508-.514.897.422 2.093 1.409 1.646 1.128-.533 1.588-1.82 2.136-2.857.694-1.328 1.078-2.832 2.027-4.016-.568 2.334-2.11 4.33-2.503 6.716-.24 1.024 1.079 1.82 1.853 1.084.875-.86.96-2.185 1.196-3.324.278-1.38.265-2.836.839-4.142-.064 2.306-.81 4.58-.52 6.892.041 1.054 1.525 1.583 2.1.621.592-1.093.316-2.403.23-3.585-.12-1.392-.46-2.767-.42-4.17.745 2.26.66 4.753 1.737 6.907.373.942 1.902 1.105 2.218.036.242-1.142-.414-2.23-.827-3.255-.536-1.28-1.3-2.465-1.705-3.797.34.335.923 1.57 1.354 2.256.784 1.271 1.482 2.704 2.76 3.551.81.595 2.132-.141 1.84-1.169-.442-1.371-1.592-2.347-2.513-3.405-.306-.337-.933-.986-.285-.353 1.046.934 2.06 2.088 3.476 2.425.95.269 1.936-.894 1.247-1.714-1.027-1.159-2.514-1.746-3.827-2.515-.894-.53-1.894-.97-2.613-1.737-.737-1.034-1.668-2.277-3.063-2.287-1.423.11-2.45 1.269-3.43 2.183-.384.384-.76.776-1.136 1.169z"/><circle cx="-64.202" cy="126.12" r="4.664" fill="#bea204" stroke="#877303" transform="rotate(-2.908)"/></g><g stroke-linecap="round" stroke-linejoin="round" stroke-miterlimit="2" stroke-width=".599" transform="matrix(-.32473 -.06655 -.0664 .32412 13.186 -41.763)"><path fill="#fbeb19" stroke="#ada103" d="M-61.535 132.61c-1.8 1.618-4.014 2.717-5.739 4.423-.856.607-.574 2.1.585 2.018 1.239-.098 2.07-1.191 2.878-2.015.61-.69 1.199-1.395 1.797-2.094-1.065 1.477-2.366 2.822-3.101 4.508-.514.897.422 2.093 1.409 1.646 1.128-.533 1.588-1.82 2.136-2.857.694-1.328 1.078-2.832 2.027-4.016-.568 2.334-2.11 4.33-2.503 6.716-.24 1.024 1.079 1.82 1.853 1.084.875-.86.96-2.185 1.196-3.324.278-1.38.265-2.836.839-4.142-.064 2.306-.81 4.58-.52 6.892.041 1.054 1.525 1.583 2.1.621.592-1.093.316-2.403.23-3.585-.12-1.392-.46-2.767-.42-4.17.745 2.26.66 4.753 1.737 6.907.373.942 1.902 1.105 2.218.036.242-1.142-.414-2.23-.827-3.255-.536-1.28-1.3-2.465-1.705-3.797.34.335.923 1.57 1.354 2.256.784 1.271 1.482 2.704 2.76 3.551.81.595 2.132-.141 1.84-1.169-.442-1.371-1.592-2.347-2.513-3.405-.306-.337-.933-.986-.285-.353 1.046.934 2.06 2.088 3.476 2.425.95.269 1.936-.894 1.247-1.714-1.027-1.159-2.514-1.746-3.827-2.515-.894-.53-1.894-.97-2.613-1.737-.737-1.034-1.668-2.277-3.063-2.287-1.423.11-2.45 1.269-3.43 2.183-.384.384-.76.776-1.136 1.169z"/><circle cx="-64.202" cy="126.12" r="4.664" fill="#bea204" stroke="#877303" transform="rotate(-2.908)"/></g><g stroke-linecap="round" stroke-linejoin="round" stroke-miterlimit="2" stroke-width=".599" transform="matrix(.29874 .14363 -.14338 .29817 62.564 -20.569)"><path fill="#fbeb19" stroke="#ada103" d="M-61.535 132.61c-1.8 1.618-4.014 2.717-5.739 4.423-.856.607-.574 2.1.585 2.018 1.239-.098 2.07-1.191 2.878-2.015.61-.69 1.199-1.395 1.797-2.094-1.065 1.477-2.366 2.822-3.101 4.508-.514.897.422 2.093 1.409 1.646 1.128-.533 1.588-1.82 2.136-2.857.694-1.328 1.078-2.832 2.027-4.016-.568 2.334-2.11 4.33-2.503 6.716-.24 1.024 1.079 1.82 1.853 1.084.875-.86.96-2.185 1.196-3.324.278-1.38.265-2.836.839-4.142-.064 2.306-.81 4.58-.52 6.892.041 1.054 1.525 1.583 2.1.621.592-1.093.316-2.403.23-3.585-.12-1.392-.46-2.767-.42-4.17.745 2.26.66 4.753 1.737 6.907.373.942 1.902 1.105 2.218.036.242-1.142-.414-2.23-.827-3.255-.536-1.28-1.3-2.465-1.705-3.797.34.335.923 1.57 1.354 2.256.784 1.271 1.482 2.704 2.76 3.551.81.595 2.132-.141 1.84-1.169-.442-1.371-1.592-2.347-2.513-3.405-.306-.337-.933-.986-.285-.353 1.046.934 2.06 2.088 3.476 2.425.95.269 1.936-.894 1.247-1.714-1.027-1.159-2.514-1.746-3.827-2.515-.894-.53-1.894-.97-2.613-1.737-.737-1.034-1.668-2.277-3.063-2.287-1.423.11-2.45 1.269-3.43 2.183-.384.384-.76.776-1.136 1.169z"/><circle cx="-64.202" cy="126.12" r="4.664" fill="#bea204" stroke="#877303" transform="rotate(-2.908)"/></g><g stroke="#425b40" stroke-linecap="round" stroke-linejoin="round" stroke-miterlimit="2" stroke-width=".217"><path fill="#658b62" d="M-35.28 86.116c-7.253 1.273-11.612 9.925-11.993 10.053-1.972-1.877 2.163-12.629 11.993-10.053" transform="matrix(.91344 0 0 .91318 53.232 22.64)"/><path fill="none" d="M-35.28 86.116c-9.853-.202-12.353 9.265-11.993 10.053" transform="matrix(.91344 0 0 .91318 53.232 22.64)"/><path fill="#658b62" d="M-35.28 86.116c-7.253 1.273-11.612 9.925-11.993 10.053-1.972-1.877 2.163-12.629 11.993-10.053" transform="matrix(-.91344 0 0 .91318 -11.699 18.813)"/><path fill="none" d="M-35.28 86.116c-9.853-.202-12.353 9.265-11.993 10.053" transform="matrix(-.91344 0 0 .91318 -11.699 18.813)"/><path fill="#658b62" d="M-35.28 86.116c-7.253 1.273-11.612 9.925-11.993 10.053-1.972-1.877 2.163-12.629 11.993-10.053" transform="matrix(.91344 0 0 .91318 53.568 12.596)"/><path fill="none" d="M-35.28 86.116c-9.853-.202-12.353 9.265-11.993 10.053" transform="matrix(.91344 0 0 .91318 53.568 12.596)"/><path fill="#658b62" d="M-35.28 86.116c-7.253 1.273-11.612 9.925-11.993 10.053-1.972-1.877 2.163-12.629 11.993-10.053" transform="matrix(-.91344 0 0 .91318 -11.452 6.52)"/><path fill="none" d="M-35.28 86.116c-9.853-.202-12.353 9.265-11.993 10.053" transform="matrix(-.91344 0 0 .91318 -11.452 6.52)"/><path fill="#658b62" d="M-35.28 86.116c-7.253 1.273-11.612 9.925-11.993 10.053-1.972-1.877 2.163-12.629 11.993-10.053" transform="matrix(-.91344 0 0 .91318 -11.143 -2.952)"/><path fill="none" d="M-35.28 86.116c-9.853-.202-12.353 9.265-11.993 10.053" transform="matrix(-.91344 0 0 .91318 -11.143 -2.952)"/></g><g stroke="#425b40" stroke-linecap="round" stroke-linejoin="round" stroke-miterlimit="2" stroke-width=".232"><path fill="#658b62" d="M-35.28 86.116c-7.253 1.273-11.612 9.925-11.993 10.053-1.972-1.877 2.163-12.629 11.993-10.053" transform="matrix(-.79804 0 0 .91318 -7.246 -11.81)"/><path fill="none" d="M-35.28 86.116c-9.853-.202-12.353 9.265-11.993 10.053" transform="matrix(-.79804 0 0 .91318 -7.246 -11.81)"/></g><g stroke="#425b40" stroke-linecap="round" stroke-linejoin="round" stroke-miterlimit="2" stroke-width=".278"><path fill="#658b62" d="M-35.28 86.116c-7.253 1.273-11.612 9.925-11.993 10.053-1.972-1.877 2.163-12.629 11.993-10.053" transform="matrix(-.66327 .06463 .074 .7584 -8.81 -14.027)"/><path fill="none" d="M-35.28 86.116c-9.853-.202-12.353 9.265-11.993 10.053" transform="matrix(-.66327 .06463 .074 .7584 -8.81 -14.027)"/></g><g stroke="#425b40" stroke-linecap="round" stroke-linejoin="round" stroke-miterlimit="2" stroke-width=".301"><path fill="#658b62" d="M-35.28 86.116c-7.253 1.273-11.612 9.925-11.993 10.053-1.972-1.877 2.163-12.629 11.993-10.053" transform="matrix(-.56855 .06463 .06344 .7584 -4.657 -21.766)"/><path fill="none" d="M-35.28 86.116c-9.853-.202-12.353 9.265-11.993 10.053" transform="matrix(-.56855 .06463 .06344 .7584 -4.657 -21.766)"/></g><g stroke="#425b40" stroke-linecap="round" stroke-linejoin="round" stroke-miterlimit="2" stroke-width=".247"><path fill="#658b62" d="M-35.28 86.116c-7.253 1.273-11.612 9.925-11.993 10.053-1.972-1.877 2.163-12.629 11.993-10.053" transform="matrix(.75024 0 0 .85845 47.57 -19.13)"/><path fill="none" d="M-35.28 86.116c-9.853-.202-12.353 9.265-11.993 10.053" transform="matrix(.75024 0 0 .85845 47.57 -19.13)"/></g><g stroke="#425b40" stroke-linecap="round" stroke-linejoin="round" stroke-miterlimit="2" stroke-width=".272"><path fill="#658b62" d="M-35.28 86.116c-7.253 1.273-11.612 9.925-11.993 10.053-1.972-1.877 2.163-12.629 11.993-10.053" transform="matrix(.68122 0 0 .7794 45.13 -21.084)"/><path fill="none" d="M-35.28 86.116c-9.853-.202-12.353 9.265-11.993 10.053" transform="matrix(.68122 0 0 .7794 45.13 -21.084)"/></g><g stroke="#425b40" stroke-linecap="round" stroke-linejoin="round" stroke-miterlimit="2" stroke-width=".335"><path fill="#658b62" d="M-35.28 86.116c-7.253 1.273-11.612 9.925-11.993 10.053-1.972-1.877 2.163-12.629 11.993-10.053" transform="matrix(.5538 0 0 .63348 40.653 -16.033)"/><path fill="none" d="M-35.28 86.116c-9.853-.202-12.353 9.265-11.993 10.053" transform="matrix(.5538 0 0 .63348 40.653 -16.033)"/></g><g stroke="#425b40" stroke-linecap="round" stroke-linejoin="round" stroke-miterlimit="2" stroke-width=".217"><path fill="#658b62" d="M-35.28 86.116c-7.253 1.273-11.612 9.925-11.993 10.053-1.972-1.877 2.163-12.629 11.993-10.053" transform="matrix(.91344 -.00312 .00312 .91317 53.038 -8.67)"/><path fill="none" d="M-35.28 86.116c-9.853-.202-12.353 9.265-11.993 10.053" transform="matrix(.91344 -.00312 .00312 .91317 53.038 -8.67)"/></g><g stroke="#425b40" stroke-linecap="round" stroke-linejoin="round" stroke-miterlimit="2" stroke-width=".217"><path fill="#658b62" d="M-32.984 91.571c-6.845 1.2-10.958 9.365-11.319 9.486-1.861-1.772 2.042-11.918 11.319-9.486" transform="matrix(.91344 -.00312 .00312 .91317 51 -20.763)"/><path fill="none" d="M-32.984 91.571c-9.299-.191-11.658 8.743-11.319 9.486" transform="matrix(.91344 -.00312 .00312 .91317 51 -20.763)"/></g><g stroke="#425b40" stroke-linecap="round" stroke-linejoin="round" stroke-miterlimit="2" stroke-width=".221"><path fill="#425b40" d="M-18.825 54.73c1.417 1.822 1.168 4.42 2.248 5.702-.203-1.147 1.363-3.764-.1-5.092-.494-.494-2.126-1.172-2.148-.61" transform="matrix(-.80438 -.05192 -.02508 .99825 -8.352 6.675)"/><path fill="#658b62" d="M-27.789 57.058c3.745-1.714 7.881-3.31 11.113-1.718-.76-.996-3.181-1.923-4.183-2.276-1.647-.198-3.888.784-6.93 3.994z" transform="matrix(-.80438 -.05192 -.02508 .99825 -8.352 6.675)"/><path fill="none" d="M-27.789 57.058c5.084-4.027 8.477-3.388 8.477-3.388" transform="matrix(-.80438 -.05192 -.02508 .99825 -8.352 6.675)"/></g><g stroke="#425b40" stroke-linecap="round" stroke-linejoin="round" stroke-miterlimit="2" stroke-width=".19"><path fill="#425b40" d="M-18.825 54.73c1.417 1.822 1.168 4.42 2.248 5.702-.203-1.147 1.363-3.764-.1-5.092-.494-.494-2.126-1.172-2.148-.61" transform="matrix(.92119 .17378 -.26047 1.1329 53.643 26.008)"/><path fill="#658b62" d="M-27.789 57.058c3.745-1.714 7.881-3.31 11.113-1.718-.76-.996-3.181-1.923-4.183-2.276-1.647-.198-3.888.784-6.93 3.994z" transform="matrix(.92119 .17378 -.26047 1.1329 53.643 26.008)"/><path fill="none" d="M-27.789 57.058c5.084-4.027 8.477-3.388 8.477-3.388" transform="matrix(.92119 .17378 -.26047 1.1329 53.643 26.008)"/></g><g fill="#425b40"><path d="M13.264 6.232c-2.254 4.34-2.023 12.754-2.074 13.23-.052.475.56 19.94 1.141 33.253 1.223 26.898 2.768 56.9 2.768 56.9l-.913.134s-1.592-30.676-2.769-57.483c-.855-19.475-.87-32.16-.77-32.613.098-.453-.113-11.224 2.617-13.421z"/><path d="M17.62 15.055s-2.95 1.595-4.392 4.335c-2.135 4.05-1.894 7.893-1.894 7.893l-.618.124s-.066-4.112 2.1-8.14c1.578-2.933 4.804-4.212 4.804-4.212"/><path d="M3.72 14.636s3.03 1.104 4.617 3.219c2.348 3.126 2.315 6.227 2.315 6.227l.498.1s-.03-3.344-2.41-6.45c-1.732-2.262-5.02-3.096-5.02-3.096M6.612 8.177s1.77.755 2.742 2.25c1.438 2.21 1.51 4.428 1.51 4.428l.36.038s-.187-2.364-1.643-4.56c-1.06-1.598-2.97-2.156-2.97-2.156z"/></g><g stroke-linecap="round" stroke-linejoin="round" stroke-miterlimit="2" stroke-width=".538" transform="matrix(-.35829 -.08784 -.08766 .35775 7.466 -36.294)"><path fill="#fbeb19" stroke="#ada103" d="M-61.535 132.61c-1.8 1.618-4.014 2.717-5.739 4.423-.856.607-.574 2.1.585 2.018 1.239-.098 2.07-1.191 2.878-2.015.61-.69 1.199-1.395 1.797-2.094-1.065 1.477-2.366 2.822-3.101 4.508-.514.897.422 2.093 1.409 1.646 1.128-.533 1.588-1.82 2.136-2.857.694-1.328 1.078-2.832 2.027-4.016-.568 2.334-2.11 4.33-2.503 6.716-.24 1.024 1.079 1.82 1.853 1.084.875-.86.96-2.185 1.196-3.324.278-1.38.265-2.836.839-4.142-.064 2.306-.81 4.58-.52 6.892.041 1.054 1.525 1.583 2.1.621.592-1.093.316-2.403.23-3.585-.12-1.392-.46-2.767-.42-4.17.745 2.26.66 4.753 1.737 6.907.373.942 1.902 1.105 2.218.036.242-1.142-.414-2.23-.827-3.255-.536-1.28-1.3-2.465-1.705-3.797.34.335.923 1.57 1.354 2.256.784 1.271 1.482 2.704 2.76 3.551.81.595 2.132-.141 1.84-1.169-.442-1.371-1.592-2.347-2.513-3.405-.306-.337-.933-.986-.285-.353 1.046.934 2.06 2.088 3.476 2.425.95.269 1.936-.894 1.247-1.714-1.027-1.159-2.514-1.746-3.827-2.515-.894-.53-1.894-.97-2.613-1.737-.737-1.034-1.668-2.277-3.063-2.287-1.423.11-2.45 1.269-3.43 2.183-.384.384-.76.776-1.136 1.169z"/><circle cx="-64.202" cy="126.12" r="4.664" fill="#bea204" stroke="#877303" transform="rotate(-2.908)"/></g><path fill="#425b40" d="M5.952 22.362s1.255 2.944 2.321 6.81c1.577 5.719 2.804 7.474 2.623 8.342l.712-.17S10.415 34.84 8.78 29.14c-1.19-4.15-2.828-6.78-2.828-6.78"/><path fill="#425b40" d="M.96 23.983s2.92.676 4.815 2.696c2.8 2.987 3.657 6.207 3.657 6.207l.229-.024s-.738-3.426-3.561-6.386C4.044 24.32.96 23.983.96 23.983"/><g stroke-linecap="round" stroke-linejoin="round" stroke-miterlimit="2" stroke-width=".602" transform="matrix(.28799 -.16075 .16046 .28771 -2.474 -22.706)"><path fill="#fbeb19" stroke="#ada103" d="M-61.535 132.61c-1.8 1.618-4.014 2.717-5.739 4.423-.856.607-.574 2.1.585 2.018 1.239-.098 2.07-1.191 2.878-2.015.61-.69 1.199-1.395 1.797-2.094-1.065 1.477-2.366 2.822-3.101 4.508-.514.897.422 2.093 1.409 1.646 1.128-.533 1.588-1.82 2.136-2.857.694-1.328 1.078-2.832 2.027-4.016-.568 2.334-2.11 4.33-2.503 6.716-.24 1.024 1.079 1.82 1.853 1.084.875-.86.96-2.185 1.196-3.324.278-1.38.265-2.836.839-4.142-.064 2.306-.81 4.58-.52 6.892.041 1.054 1.525 1.583 2.1.621.592-1.093.316-2.403.23-3.585-.12-1.392-.46-2.767-.42-4.17.745 2.26.66 4.753 1.737 6.907.373.942 1.902 1.105 2.218.036.242-1.142-.414-2.23-.827-3.255-.536-1.28-1.3-2.465-1.705-3.797.34.335.923 1.57 1.354 2.256.784 1.271 1.482 2.704 2.76 3.551.81.595 2.132-.141 1.84-1.169-.442-1.371-1.592-2.347-2.513-3.405-.306-.337-.933-.986-.285-.353 1.046.934 2.06 2.088 3.476 2.425.95.269 1.936-.894 1.247-1.714-1.027-1.159-2.514-1.746-3.827-2.515-.894-.53-1.894-.97-2.613-1.737-.737-1.034-1.668-2.277-3.063-2.287-1.423.11-2.45 1.269-3.43 2.183-.384.384-.76.776-1.136 1.169z"/><circle cx="-64.202" cy="126.12" r="4.664" fill="#bea204" stroke="#877303" transform="rotate(-2.908)"/></g><g stroke-linecap="round" stroke-linejoin="round" stroke-miterlimit="2" stroke-width=".602" transform="matrix(-.32184 .0721 .07213 .32143 -21.826 -15.756)"><path fill="#fbeb19" stroke="#ada103" d="M-61.535 132.61c-1.8 1.618-4.014 2.717-5.739 4.423-.856.607-.574 2.1.585 2.018 1.239-.098 2.07-1.191 2.878-2.015.61-.69 1.199-1.395 1.797-2.094-1.065 1.477-2.366 2.822-3.101 4.508-.514.897.422 2.093 1.409 1.646 1.128-.533 1.588-1.82 2.136-2.857.694-1.328 1.078-2.832 2.027-4.016-.568 2.334-2.11 4.33-2.503 6.716-.24 1.024 1.079 1.82 1.853 1.084.875-.86.96-2.185 1.196-3.324.278-1.38.265-2.836.839-4.142-.064 2.306-.81 4.58-.52 6.892.041 1.054 1.525 1.583 2.1.621.592-1.093.316-2.403.23-3.585-.12-1.392-.46-2.767-.42-4.17.745 2.26.66 4.753 1.737 6.907.373.942 1.902 1.105 2.218.036.242-1.142-.414-2.23-.827-3.255-.536-1.28-1.3-2.465-1.705-3.797.34.335.923 1.57 1.354 2.256.784 1.271 1.482 2.704 2.76 3.551.81.595 2.132-.141 1.84-1.169-.442-1.371-1.592-2.347-2.513-3.405-.306-.337-.933-.986-.285-.353 1.046.934 2.06 2.088 3.476 2.425.95.269 1.936-.894 1.247-1.714-1.027-1.159-2.514-1.746-3.827-2.515-.894-.53-1.894-.97-2.613-1.737-.737-1.034-1.668-2.277-3.063-2.287-1.423.11-2.45 1.269-3.43 2.183-.384.384-.76.776-1.136 1.169z"/><circle cx="-64.202" cy="126.12" r="4.664" fill="#bea204" stroke="#877303" transform="rotate(-2.908)"/></g><path fill="#425b40" d="M16.475 24.986s-2.097 4.57-2.866 8.938c-1.137 6.459-1.988 8.729-1.988 8.729l-.252-.618s.586-1.685 1.789-8.13c.875-4.693 3.317-8.92 3.317-8.92z"/><path fill="#425b40" d="M19.003 30.246s-3.124.971-5.159 3.26c-.564.633-.772 2.788-.772 2.788l-.253-.013s.412-2.728.654-2.98a10.64 10.64 0 0 1 5.53-3.055"/><g stroke-linecap="round" stroke-linejoin="round" stroke-miterlimit="2" stroke-width=".544" transform="matrix(-.2815 -.23192 -.23156 .28116 33.399 -20.357)"><path fill="#fbeb19" stroke="#ada103" d="M-61.535 132.61c-1.8 1.618-4.014 2.717-5.739 4.423-.856.607-.574 2.1.585 2.018 1.239-.098 2.07-1.191 2.878-2.015.61-.69 1.199-1.395 1.797-2.094-1.065 1.477-2.366 2.822-3.101 4.508-.514.897.422 2.093 1.409 1.646 1.128-.533 1.588-1.82 2.136-2.857.694-1.328 1.078-2.832 2.027-4.016-.568 2.334-2.11 4.33-2.503 6.716-.24 1.024 1.079 1.82 1.853 1.084.875-.86.96-2.185 1.196-3.324.278-1.38.265-2.836.839-4.142-.064 2.306-.81 4.58-.52 6.892.041 1.054 1.525 1.583 2.1.621.592-1.093.316-2.403.23-3.585-.12-1.392-.46-2.767-.42-4.17.745 2.26.66 4.753 1.737 6.907.373.942 1.902 1.105 2.218.036.242-1.142-.414-2.23-.827-3.255-.536-1.28-1.3-2.465-1.705-3.797.34.335.923 1.57 1.354 2.256.784 1.271 1.482 2.704 2.76 3.551.81.595 2.132-.141 1.84-1.169-.442-1.371-1.592-2.347-2.513-3.405-.306-.337-.933-.986-.285-.353 1.046.934 2.06 2.088 3.476 2.425.95.269 1.936-.894 1.247-1.714-1.027-1.159-2.514-1.746-3.827-2.515-.894-.53-1.894-.97-2.613-1.737-.737-1.034-1.668-2.277-3.063-2.287-1.423.11-2.45 1.269-3.43 2.183-.384.384-.76.776-1.136 1.169z"/><circle cx="-64.202" cy="126.12" r="4.664" fill="#bea204" stroke="#877303" transform="rotate(-2.908)"/></g><g stroke-linecap="round" stroke-linejoin="round" stroke-miterlimit="2" stroke-width=".544" transform="matrix(.36449 .01354 -.01367 .36397 38.919 -22.333)"><path fill="#fbeb19" stroke="#ada103" d="M-61.535 132.61c-1.8 1.618-4.014 2.717-5.739 4.423-.856.607-.574 2.1.585 2.018 1.239-.098 2.07-1.191 2.878-2.015.61-.69 1.199-1.395 1.797-2.094-1.065 1.477-2.366 2.822-3.101 4.508-.514.897.422 2.093 1.409 1.646 1.128-.533 1.588-1.82 2.136-2.857.694-1.328 1.078-2.832 2.027-4.016-.568 2.334-2.11 4.33-2.503 6.716-.24 1.024 1.079 1.82 1.853 1.084.875-.86.96-2.185 1.196-3.324.278-1.38.265-2.836.839-4.142-.064 2.306-.81 4.58-.52 6.892.041 1.054 1.525 1.583 2.1.621.592-1.093.316-2.403.23-3.585-.12-1.392-.46-2.767-.42-4.17.745 2.26.66 4.753 1.737 6.907.373.942 1.902 1.105 2.218.036.242-1.142-.414-2.23-.827-3.255-.536-1.28-1.3-2.465-1.705-3.797.34.335.923 1.57 1.354 2.256.784 1.271 1.482 2.704 2.76 3.551.81.595 2.132-.141 1.84-1.169-.442-1.371-1.592-2.347-2.513-3.405-.306-.337-.933-.986-.285-.353 1.046.934 2.06 2.088 3.476 2.425.95.269 1.936-.894 1.247-1.714-1.027-1.159-2.514-1.746-3.827-2.515-.894-.53-1.894-.97-2.613-1.737-.737-1.034-1.668-2.277-3.063-2.287-1.423.11-2.45 1.269-3.43 2.183-.384.384-.76.776-1.136 1.169z"/><circle cx="-64.202" cy="126.12" r="4.664" fill="#bea204" stroke="#877303" transform="rotate(-2.908)"/></g><g stroke-linecap="round" stroke-linejoin="round" stroke-miterlimit="2" stroke-width=".538" transform="matrix(.35821 .08814 -.08805 .35765 45.468 -35.604)"><path fill="#fbeb19" stroke="#ada103" d="M-61.535 132.61c-1.8 1.618-4.014 2.717-5.739 4.423-.856.607-.574 2.1.585 2.018 1.239-.098 2.07-1.191 2.878-2.015.61-.69 1.199-1.395 1.797-2.094-1.065 1.477-2.366 2.822-3.101 4.508-.514.897.422 2.093 1.409 1.646 1.128-.533 1.588-1.82 2.136-2.857.694-1.328 1.078-2.832 2.027-4.016-.568 2.334-2.11 4.33-2.503 6.716-.24 1.024 1.079 1.82 1.853 1.084.875-.86.96-2.185 1.196-3.324.278-1.38.265-2.836.839-4.142-.064 2.306-.81 4.58-.52 6.892.041 1.054 1.525 1.583 2.1.621.592-1.093.316-2.403.23-3.585-.12-1.392-.46-2.767-.42-4.17.745 2.26.66 4.753 1.737 6.907.373.942 1.902 1.105 2.218.036.242-1.142-.414-2.23-.827-3.255-.536-1.28-1.3-2.465-1.705-3.797.34.335.923 1.57 1.354 2.256.784 1.271 1.482 2.704 2.76 3.551.81.595 2.132-.141 1.84-1.169-.442-1.371-1.592-2.347-2.513-3.405-.306-.337-.933-.986-.285-.353 1.046.934 2.06 2.088 3.476 2.425.95.269 1.936-.894 1.247-1.714-1.027-1.159-2.514-1.746-3.827-2.515-.894-.53-1.894-.97-2.613-1.737-.737-1.034-1.668-2.277-3.063-2.287-1.423.11-2.45 1.269-3.43 2.183-.384.384-.76.776-1.136 1.169z"/><circle cx="-64.202" cy="126.12" r="4.664" fill="#bea204" stroke="#877303" transform="rotate(-2.908)"/></g><g stroke-linecap="round" stroke-linejoin="round" stroke-miterlimit="2" stroke-width=".599" transform="matrix(.32121 -.08188 .0817 .3206 15.449 -38.204)"><path fill="#fbeb19" stroke="#ada103" d="M-61.535 132.61c-1.8 1.618-4.014 2.717-5.739 4.423-.856.607-.574 2.1.585 2.018 1.239-.098 2.07-1.191 2.878-2.015.61-.69 1.199-1.395 1.797-2.094-1.065 1.477-2.366 2.822-3.101 4.508-.514.897.422 2.093 1.409 1.646 1.128-.533 1.588-1.82 2.136-2.857.694-1.328 1.078-2.832 2.027-4.016-.568 2.334-2.11 4.33-2.503 6.716-.24 1.024 1.079 1.82 1.853 1.084.875-.86.96-2.185 1.196-3.324.278-1.38.265-2.836.839-4.142-.064 2.306-.81 4.58-.52 6.892.041 1.054 1.525 1.583 2.1.621.592-1.093.316-2.403.23-3.585-.12-1.392-.46-2.767-.42-4.17.745 2.26.66 4.753 1.737 6.907.373.942 1.902 1.105 2.218.036.242-1.142-.414-2.23-.827-3.255-.536-1.28-1.3-2.465-1.705-3.797.34.335.923 1.57 1.354 2.256.784 1.271 1.482 2.704 2.76 3.551.81.595 2.132-.141 1.84-1.169-.442-1.371-1.592-2.347-2.513-3.405-.306-.337-.933-.986-.285-.353 1.046.934 2.06 2.088 3.476 2.425.95.269 1.936-.894 1.247-1.714-1.027-1.159-2.514-1.746-3.827-2.515-.894-.53-1.894-.97-2.613-1.737-.737-1.034-1.668-2.277-3.063-2.287-1.423.11-2.45 1.269-3.43 2.183-.384.384-.76.776-1.136 1.169z"/><circle cx="-64.202" cy="126.12" r="4.664" fill="#bea204" stroke="#877303" transform="rotate(-2.908)"/></g><g stroke-linecap="round" stroke-linejoin="round" stroke-miterlimit="2" stroke-width=".599" transform="matrix(-.29159 .15764 .15736 .29103 -32.87 -14.692)"><path fill="#fbeb19" stroke="#ada103" d="M-61.535 132.61c-1.8 1.618-4.014 2.717-5.739 4.423-.856.607-.574 2.1.585 2.018 1.239-.098 2.07-1.191 2.878-2.015.61-.69 1.199-1.395 1.797-2.094-1.065 1.477-2.366 2.822-3.101 4.508-.514.897.422 2.093 1.409 1.646 1.128-.533 1.588-1.82 2.136-2.857.694-1.328 1.078-2.832 2.027-4.016-.568 2.334-2.11 4.33-2.503 6.716-.24 1.024 1.079 1.82 1.853 1.084.875-.86.96-2.185 1.196-3.324.278-1.38.265-2.836.839-4.142-.064 2.306-.81 4.58-.52 6.892.041 1.054 1.525 1.583 2.1.621.592-1.093.316-2.403.23-3.585-.12-1.392-.46-2.767-.42-4.17.745 2.26.66 4.753 1.737 6.907.373.942 1.902 1.105 2.218.036.242-1.142-.414-2.23-.827-3.255-.536-1.28-1.3-2.465-1.705-3.797.34.335.923 1.57 1.354 2.256.784 1.271 1.482 2.704 2.76 3.551.81.595 2.132-.141 1.84-1.169-.442-1.371-1.592-2.347-2.513-3.405-.306-.337-.933-.986-.285-.353 1.046.934 2.06 2.088 3.476 2.425.95.269 1.936-.894 1.247-1.714-1.027-1.159-2.514-1.746-3.827-2.515-.894-.53-1.894-.97-2.613-1.737-.737-1.034-1.668-2.277-3.063-2.287-1.423.11-2.45 1.269-3.43 2.183-.384.384-.76.776-1.136 1.169z"/><circle cx="-64.202" cy="126.12" r="4.664" fill="#bea204" stroke="#877303" transform="rotate(-2.908)"/></g><g stroke="#425b40" stroke-linecap="round" stroke-linejoin="round" stroke-miterlimit="2" stroke-width=".217"><path fill="#658b62" d="M-35.28 86.116c-7.253 1.273-11.612 9.925-11.993 10.053-1.972-1.877 2.163-12.629 11.993-10.053" transform="rotate(177.281 -11.082 13.757)scale(.91345 -.91318)"/><path fill="none" d="M-35.28 86.116c-9.853-.202-12.353 9.265-11.993 10.053" transform="rotate(177.281 -11.082 13.757)scale(.91345 -.91318)"/><path fill="#658b62" d="M-35.28 86.116c-7.253 1.273-11.612 9.925-11.993 10.053-1.972-1.877 2.163-12.629 11.993-10.053" transform="rotate(-2.719 466.69 -899.273)scale(.91345 .91318)"/><path fill="none" d="M-35.28 86.116c-9.853-.202-12.353 9.265-11.993 10.053" transform="rotate(-2.719 466.69 -899.273)scale(.91345 .91318)"/><path fill="#658b62" d="M-35.28 86.116c-7.253 1.273-11.612 9.925-11.993 10.053-1.972-1.877 2.163-12.629 11.993-10.053" transform="rotate(177.281 -11.369 8.74)scale(.91345 -.91318)"/><path fill="none" d="M-35.28 86.116c-9.853-.202-12.353 9.265-11.993 10.053" transform="rotate(177.281 -11.369 8.74)scale(.91345 -.91318)"/><path fill="#658b62" d="M-35.28 86.116c-7.253 1.273-11.612 9.925-11.993 10.053-1.972-1.877 2.163-12.629 11.993-10.053" transform="matrix(.91242 -.04333 .04331 .91215 42.349 8.855)"/><path fill="none" d="M-35.28 86.116c-9.853-.202-12.353 9.265-11.993 10.053" transform="matrix(.91242 -.04333 .04331 .91215 42.349 8.855)"/><path fill="#658b62" d="M-35.28 86.116c-7.253 1.273-11.612 9.925-11.993 10.053-1.972-1.877 2.163-12.629 11.993-10.053" transform="matrix(.91242 -.04333 .04331 .91215 41.59 -.591)"/><path fill="none" d="M-35.28 86.116c-9.853-.202-12.353 9.265-11.993 10.053" transform="matrix(.91242 -.04333 .04331 .91215 41.59 -.591)"/></g><g stroke="#425b40" stroke-linecap="round" stroke-linejoin="round" stroke-miterlimit="2" stroke-width=".232"><path fill="#658b62" d="M-35.28 86.116c-7.253 1.273-11.612 9.925-11.993 10.053-1.972-1.877 2.163-12.629 11.993-10.053" transform="matrix(.79714 -.03785 .04331 .91215 37.278 -9.254)"/><path fill="none" d="M-35.28 86.116c-9.853-.202-12.353 9.265-11.993 10.053" transform="matrix(.79714 -.03785 .04331 .91215 37.278 -9.254)"/></g><g stroke="#425b40" stroke-linecap="round" stroke-linejoin="round" stroke-miterlimit="2" stroke-width=".278"><path fill="#658b62" d="M-35.28 86.116c-7.253 1.273-11.612 9.925-11.993 10.053-1.972-1.877 2.163-12.629 11.993-10.053" transform="matrix(.66559 .0331 -.03795 .76106 38.736 -11.542)"/><path fill="none" d="M-35.28 86.116c-9.853-.202-12.353 9.265-11.993 10.053" transform="matrix(.66559 .0331 -.03795 .76106 38.736 -11.542)"/></g><g stroke="#425b40" stroke-linecap="round" stroke-linejoin="round" stroke-miterlimit="2" stroke-width=".301"><path fill="#658b62" d="M-35.28 86.116c-7.253 1.273-11.612 9.925-11.993 10.053-1.972-1.877 2.163-12.629 11.993-10.053" transform="matrix(.57097 .03759 -.0274 .76056 34.219 -19.076)"/><path fill="none" d="M-35.28 86.116c-9.853-.202-12.353 9.265-11.993 10.053" transform="matrix(.57097 .03759 -.0274 .76056 34.219 -19.076)"/></g><g stroke="#425b40" stroke-linecap="round" stroke-linejoin="round" stroke-miterlimit="2" stroke-width=".247"><path fill="#658b62" d="M-35.28 86.116c-7.253 1.273-11.612 9.925-11.993 10.053-1.972-1.877 2.163-12.629 11.993-10.053" transform="rotate(177.281 -8.746 -7.194)scale(.75024 -.85845)"/><path fill="none" d="M-35.28 86.116c-9.853-.202-12.353 9.265-11.993 10.053" transform="rotate(177.281 -8.746 -7.194)scale(.75024 -.85845)"/></g><g stroke="#425b40" stroke-linecap="round" stroke-linejoin="round" stroke-miterlimit="2" stroke-width=".272"><path fill="#658b62" d="M-35.28 86.116c-7.253 1.273-11.612 9.925-11.993 10.053-1.972-1.877 2.163-12.629 11.993-10.053" transform="rotate(177.281 -7.55 -8.2)scale(.68122 -.7794)"/><path fill="none" d="M-35.28 86.116c-9.853-.202-12.353 9.265-11.993 10.053" transform="rotate(177.281 -7.55 -8.2)scale(.68122 -.7794)"/></g><g stroke="#425b40" stroke-linecap="round" stroke-linejoin="round" stroke-miterlimit="2" stroke-width=".335"><path fill="#658b62" d="M-35.28 86.116c-7.253 1.273-11.612 9.925-11.993 10.053-1.972-1.877 2.163-12.629 11.993-10.053" transform="rotate(177.281 -5.25 -5.728)scale(.5538 -.63347)"/><path fill="none" d="M-35.28 86.116c-9.853-.202-12.353 9.265-11.993 10.053" transform="rotate(177.281 -5.25 -5.728)scale(.5538 -.63347)"/></g><g stroke="#425b40" stroke-linecap="round" stroke-linejoin="round" stroke-miterlimit="2" stroke-width=".217"><path fill="#658b62" d="M-35.28 86.116c-7.253 1.273-11.612 9.925-11.993 10.053-1.972-1.877 2.163-12.629 11.993-10.053" transform="matrix(-.91256 .04021 .0402 .91229 -22.79 -3.26)"/><path fill="none" d="M-35.28 86.116c-9.853-.202-12.353 9.265-11.993 10.053" transform="matrix(-.91256 .04021 .0402 .91229 -22.79 -3.26)"/></g><g stroke="#425b40" stroke-linecap="round" stroke-linejoin="round" stroke-miterlimit="2" stroke-width=".217"><path fill="#658b62" d="M-32.984 91.571c-6.845 1.2-10.958 9.365-11.319 9.486-1.861-1.772 2.042-11.918 11.319-9.486" transform="rotate(177.477 -10.494 -7.952)scale(.91345 -.91318)"/><path fill="none" d="M-32.984 91.571c-9.299-.191-11.658 8.743-11.319 9.486" transform="rotate(177.477 -10.494 -7.952)scale(.91345 -.91318)"/></g><g stroke="#425b40" stroke-linecap="round" stroke-linejoin="round" stroke-miterlimit="2" stroke-width=".284"><path fill="#425b40" d="M-39.85 69.857c1.417 1.822 1.168 4.42 2.248 5.702-.203-1.147 1.363-3.764-.1-5.092-.494-.494-2.126-1.172-2.148-.61" transform="matrix(-.62544 .31397 .31327 .62344 -41.494 8.263)"/><path fill="#658b62" d="M-48.814 72.185c3.745-1.714 7.881-3.31 11.113-1.718-.76-.996-3.181-1.923-4.183-2.275-1.647-.2-3.888.783-6.93 3.993z" transform="matrix(-.62544 .31397 .31327 .62344 -41.494 8.263)"/><path fill="none" d="M-48.814 72.185c5.084-4.027 8.477-3.388 8.477-3.388" transform="matrix(-.62544 .31397 .31327 .62344 -41.494 8.263)"/></g><path fill="#425b40" d="M36.293 10.139c-1.878 3.842-3.318 11.406-3.406 11.846-.087.44-.948 18.674-1.375 31.156-.814 25.223-1.541 53.37-1.541 53.37l-.92.057s.73-28.78 1.583-53.916c.62-18.26 1.564-30.114 1.697-30.53s2.05-10.613 3.962-11.985z"/><path fill="#425b40" d="M27.969 12.865s2.423 1.766 3.375 4.366c1.408 3.845.737 7.222.737 7.222l.533.184s.548-3.637-.891-7.466c-1.048-2.788-3.754-4.306-3.754-4.306"/><g stroke-linecap="round" stroke-linejoin="round" stroke-miterlimit="2" stroke-width=".602" transform="matrix(.32793 -.0352 .03504 .32756 43.085 -31.442)"><path fill="#fbeb19" stroke="#ada103" d="M-61.535 132.61c-1.8 1.618-4.014 2.717-5.739 4.423-.856.607-.574 2.1.585 2.018 1.239-.098 2.07-1.191 2.878-2.015.61-.69 1.199-1.395 1.797-2.094-1.065 1.477-2.366 2.822-3.101 4.508-.514.897.422 2.093 1.409 1.646 1.128-.533 1.588-1.82 2.136-2.857.694-1.328 1.078-2.832 2.027-4.016-.568 2.334-2.11 4.33-2.503 6.716-.24 1.024 1.079 1.82 1.853 1.084.875-.86.96-2.185 1.196-3.324.278-1.38.265-2.836.839-4.142-.064 2.306-.81 4.58-.52 6.892.041 1.054 1.525 1.583 2.1.621.592-1.093.316-2.403.23-3.585-.12-1.392-.46-2.767-.42-4.17.745 2.26.66 4.753 1.737 6.907.373.942 1.902 1.105 2.218.036.242-1.142-.414-2.23-.827-3.255-.536-1.28-1.3-2.465-1.705-3.797.34.335.923 1.57 1.354 2.256.784 1.271 1.482 2.704 2.76 3.551.81.595 2.132-.141 1.84-1.169-.442-1.371-1.592-2.347-2.513-3.405-.306-.337-.933-.986-.285-.353 1.046.934 2.06 2.088 3.476 2.425.95.269 1.936-.894 1.247-1.714-1.027-1.159-2.514-1.746-3.827-2.515-.894-.53-1.894-.97-2.613-1.737-.737-1.034-1.668-2.277-3.063-2.287-1.423.11-2.45 1.269-3.43 2.183-.384.384-.76.776-1.136 1.169z"/><circle cx="-64.202" cy="126.12" r="4.664" fill="#bea204" stroke="#877303" transform="rotate(-2.908)"/></g><g stroke-linecap="round" stroke-linejoin="round" stroke-miterlimit="2" stroke-width=".602" transform="matrix(-.32575 -.05163 -.05146 .32538 24.546 -35.736)"><path fill="#fbeb19" stroke="#ada103" d="M-61.535 132.61c-1.8 1.618-4.014 2.717-5.739 4.423-.856.607-.574 2.1.585 2.018 1.239-.098 2.07-1.191 2.878-2.015.61-.69 1.199-1.395 1.797-2.094-1.065 1.477-2.366 2.822-3.101 4.508-.514.897.422 2.093 1.409 1.646 1.128-.533 1.588-1.82 2.136-2.857.694-1.328 1.078-2.832 2.027-4.016-.568 2.334-2.11 4.33-2.503 6.716-.24 1.024 1.079 1.82 1.853 1.084.875-.86.96-2.185 1.196-3.324.278-1.38.265-2.836.839-4.142-.064 2.306-.81 4.58-.52 6.892.041 1.054 1.525 1.583 2.1.621.592-1.093.316-2.403.23-3.585-.12-1.392-.46-2.767-.42-4.17.745 2.26.66 4.753 1.737 6.907.373.942 1.902 1.105 2.218.036.242-1.142-.414-2.23-.827-3.255-.536-1.28-1.3-2.465-1.705-3.797.34.335.923 1.57 1.354 2.256.784 1.271 1.482 2.704 2.76 3.551.81.595 2.132-.141 1.84-1.169-.442-1.371-1.592-2.347-2.513-3.405-.306-.337-.933-.986-.285-.353 1.046.934 2.06 2.088 3.476 2.425.95.269 1.936-.894 1.247-1.714-1.027-1.159-2.514-1.746-3.827-2.515-.894-.53-1.894-.97-2.613-1.737-.737-1.034-1.668-2.277-3.063-2.287-1.423.11-2.45 1.269-3.43 2.183-.384.384-.76.776-1.136 1.169z"/><circle cx="-64.202" cy="126.12" r="4.664" fill="#bea204" stroke="#877303" transform="rotate(-2.908)"/></g><path fill="#425b40" d="M25.747 24.934s2.53 1.21 3.848 3.44c1.951 3.296 1.91 6.517 1.91 6.517l.521.078s-.116-3.439-2.093-6.715c-1.44-2.385-4.186-3.32-4.186-3.32"/><g stroke-linecap="round" stroke-linejoin="round" stroke-miterlimit="2" stroke-width=".644" transform="matrix(.29556 -.08832 .08808 .29529 32.09 -18.397)"><path fill="#fbeb19" stroke="#ada103" d="M-61.535 132.61c-1.8 1.618-4.014 2.717-5.739 4.423-.856.607-.574 2.1.585 2.018 1.239-.098 2.07-1.191 2.878-2.015.61-.69 1.199-1.395 1.797-2.094-1.065 1.477-2.366 2.822-3.101 4.508-.514.897.422 2.093 1.409 1.646 1.128-.533 1.588-1.82 2.136-2.857.694-1.328 1.078-2.832 2.027-4.016-.568 2.334-2.11 4.33-2.503 6.716-.24 1.024 1.079 1.82 1.853 1.084.875-.86.96-2.185 1.196-3.324.278-1.38.265-2.836.839-4.142-.064 2.306-.81 4.58-.52 6.892.041 1.054 1.525 1.583 2.1.621.592-1.093.316-2.403.23-3.585-.12-1.392-.46-2.767-.42-4.17.745 2.26.66 4.753 1.737 6.907.373.942 1.902 1.105 2.218.036.242-1.142-.414-2.23-.827-3.255-.536-1.28-1.3-2.465-1.705-3.797.34.335.923 1.57 1.354 2.256.784 1.271 1.482 2.704 2.76 3.551.81.595 2.132-.141 1.84-1.169-.442-1.371-1.592-2.347-2.513-3.405-.306-.337-.933-.986-.285-.353 1.046.934 2.06 2.088 3.476 2.425.95.269 1.936-.894 1.247-1.714-1.027-1.159-2.514-1.746-3.827-2.515-.894-.53-1.894-.97-2.613-1.737-.737-1.034-1.668-2.277-3.063-2.287-1.423.11-2.45 1.269-3.43 2.183-.384.384-.76.776-1.136 1.169z"/><circle cx="-64.202" cy="126.12" r="4.664" fill="#bea204" stroke="#877303" transform="rotate(-2.908)"/></g><path fill="#425b40" d="M37.717 20.657s-2.311 4.466-3.287 8.793c-1.442 6.397-2.4 8.624-2.4 8.624l-.222-.629s.665-1.655 2.172-8.036c1.097-4.646 3.737-8.752 3.737-8.752"/><path fill="#425b40" d="M31.353 22.712s2.19 2.034 2.964 4.724c.214.744-.464 2.602-.464 2.602l.214.09s.736-2.411.636-2.715a9.7 9.7 0 0 0-3.35-4.7"/><g stroke-linecap="round" stroke-linejoin="round" stroke-miterlimit="2" stroke-width=".596" transform="matrix(.32337 -.08003 .07985 .32315 39.454 -24.679)"><path fill="#fbeb19" stroke="#ada103" d="M-61.535 132.61c-1.8 1.618-4.014 2.717-5.739 4.423-.856.607-.574 2.1.585 2.018 1.239-.098 2.07-1.191 2.878-2.015.61-.69 1.199-1.395 1.797-2.094-1.065 1.477-2.366 2.822-3.101 4.508-.514.897.422 2.093 1.409 1.646 1.128-.533 1.588-1.82 2.136-2.857.694-1.328 1.078-2.832 2.027-4.016-.568 2.334-2.11 4.33-2.503 6.716-.24 1.024 1.079 1.82 1.853 1.084.875-.86.96-2.185 1.196-3.324.278-1.38.265-2.836.839-4.142-.064 2.306-.81 4.58-.52 6.892.041 1.054 1.525 1.583 2.1.621.592-1.093.316-2.403.23-3.585-.12-1.392-.46-2.767-.42-4.17.745 2.26.66 4.753 1.737 6.907.373.942 1.902 1.105 2.218.036.242-1.142-.414-2.23-.827-3.255-.536-1.28-1.3-2.465-1.705-3.797.34.335.923 1.57 1.354 2.256.784 1.271 1.482 2.704 2.76 3.551.81.595 2.132-.141 1.84-1.169-.442-1.371-1.592-2.347-2.513-3.405-.306-.337-.933-.986-.285-.353 1.046.934 2.06 2.088 3.476 2.425.95.269 1.936-.894 1.247-1.714-1.027-1.159-2.514-1.746-3.827-2.515-.894-.53-1.894-.97-2.613-1.737-.737-1.034-1.668-2.277-3.063-2.287-1.423.11-2.45 1.269-3.43 2.183-.384.384-.76.776-1.136 1.169z"/><circle cx="-64.202" cy="126.12" r="4.664" fill="#bea204" stroke="#877303" transform="rotate(-2.908)"/></g><g stroke-linecap="round" stroke-linejoin="round" stroke-miterlimit="2" stroke-width=".647" transform="matrix(.2964 .07928 -.07934 .29576 64.346 -13.239)"><path fill="#fbeb19" stroke="#ada103" d="M-61.535 132.61c-1.8 1.618-4.014 2.717-5.739 4.423-.856.607-.574 2.1.585 2.018 1.239-.098 2.07-1.191 2.878-2.015.61-.69 1.199-1.395 1.797-2.094-1.065 1.477-2.366 2.822-3.101 4.508-.514.897.422 2.093 1.409 1.646 1.128-.533 1.588-1.82 2.136-2.857.694-1.328 1.078-2.832 2.027-4.016-.568 2.334-2.11 4.33-2.503 6.716-.24 1.024 1.079 1.82 1.853 1.084.875-.86.96-2.185 1.196-3.324.278-1.38.265-2.836.839-4.142-.064 2.306-.81 4.58-.52 6.892.041 1.054 1.525 1.583 2.1.621.592-1.093.316-2.403.23-3.585-.12-1.392-.46-2.767-.42-4.17.745 2.26.66 4.753 1.737 6.907.373.942 1.902 1.105 2.218.036.242-1.142-.414-2.23-.827-3.255-.536-1.28-1.3-2.465-1.705-3.797.34.335.923 1.57 1.354 2.256.784 1.271 1.482 2.704 2.76 3.551.81.595 2.132-.141 1.84-1.169-.442-1.371-1.592-2.347-2.513-3.405-.306-.337-.933-.986-.285-.353 1.046.934 2.06 2.088 3.476 2.425.95.269 1.936-.894 1.247-1.714-1.027-1.159-2.514-1.746-3.827-2.515-.894-.53-1.894-.97-2.613-1.737-.737-1.034-1.668-2.277-3.063-2.287-1.423.11-2.45 1.269-3.43 2.183-.384.384-.76.776-1.136 1.169z"/><circle cx="-64.202" cy="126.12" r="4.664" fill="#bea204" stroke="#877303" transform="rotate(-2.908)"/></g><path fill="#425b40" d="M25.918 31.244s1.817 4.339 3.555 8.419c2.569 6.034 2.012 9.037 2.012 9.037l-.548-.38s.653-2.37-1.854-8.427c-1.825-4.41-3.165-8.649-3.165-8.649"/><path fill="#425b40" d="M23.494 38.075s2.98.217 5.267 1.831c.633.447 1.266 2.321 1.266 2.321l.223-.064s-.934-2.341-1.202-2.516a9.7 9.7 0 0 0-5.554-1.572"/><g stroke-linecap="round" stroke-linejoin="round" stroke-miterlimit="2" stroke-width=".647" transform="matrix(.28683 -.10893 .10851 .28635 27.71 -11.824)"><path fill="#fbeb19" stroke="#ada103" d="M-61.535 132.61c-1.8 1.618-4.014 2.717-5.739 4.423-.856.607-.574 2.1.585 2.018 1.239-.098 2.07-1.191 2.878-2.015.61-.69 1.199-1.395 1.797-2.094-1.065 1.477-2.366 2.822-3.101 4.508-.514.897.422 2.093 1.409 1.646 1.128-.533 1.588-1.82 2.136-2.857.694-1.328 1.078-2.832 2.027-4.016-.568 2.334-2.11 4.33-2.503 6.716-.24 1.024 1.079 1.82 1.853 1.084.875-.86.96-2.185 1.196-3.324.278-1.38.265-2.836.839-4.142-.064 2.306-.81 4.58-.52 6.892.041 1.054 1.525 1.583 2.1.621.592-1.093.316-2.403.23-3.585-.12-1.392-.46-2.767-.42-4.17.745 2.26.66 4.753 1.737 6.907.373.942 1.902 1.105 2.218.036.242-1.142-.414-2.23-.827-3.255-.536-1.28-1.3-2.465-1.705-3.797.34.335.923 1.57 1.354 2.256.784 1.271 1.482 2.704 2.76 3.551.81.595 2.132-.141 1.84-1.169-.442-1.371-1.592-2.347-2.513-3.405-.306-.337-.933-.986-.285-.353 1.046.934 2.06 2.088 3.476 2.425.95.269 1.936-.894 1.247-1.714-1.027-1.159-2.514-1.746-3.827-2.515-.894-.53-1.894-.97-2.613-1.737-.737-1.034-1.668-2.277-3.063-2.287-1.423.11-2.45 1.269-3.43 2.183-.384.384-.76.776-1.136 1.169z"/><circle cx="-64.202" cy="126.12" r="4.664" fill="#bea204" stroke="#877303" transform="rotate(-2.908)"/></g><g stroke="#425b40" stroke-linecap="round" stroke-linejoin="round" stroke-miterlimit="2" stroke-width=".239"><path fill="#658b62" d="M-35.28 86.116c-7.253 1.273-11.612 9.925-11.993 10.053-1.972-1.877 2.163-12.629 11.993-10.053" transform="matrix(.76446 .3249 -.32536 .76293 84.642 51.436)"/><path fill="none" d="M-35.28 86.116c-9.853-.202-12.353 9.265-11.993 10.053" transform="matrix(.76446 .3249 -.32536 .76293 84.642 51.436)"/></g><g stroke="#425b40" stroke-linecap="round" stroke-linejoin="round" stroke-miterlimit="2" stroke-width=".245"><path fill="#658b62" d="M-35.28 86.116c-7.253 1.273-11.612 9.925-11.993 10.053-1.972-1.877 2.163-12.629 11.993-10.053" transform="matrix(.74524 .31657 -.31718 .74338 83.495 45.045)"/><path fill="none" d="M-35.28 86.116c-9.853-.202-12.353 9.265-11.993 10.053" transform="matrix(.74524 .31657 -.31718 .74338 83.495 45.045)"/><path fill="#658b62" d="M-35.28 86.116c-7.253 1.273-11.612 9.925-11.993 10.053-1.972-1.877 2.163-12.629 11.993-10.053" transform="matrix(.7795 .21904 -.21988 .77774 76.52 29.853)"/><path fill="none" d="M-35.28 86.116c-9.853-.202-12.353 9.265-11.993 10.053" transform="matrix(.7795 .21904 -.21988 .77774 76.52 29.853)"/><path fill="#658b62" d="M-35.28 86.116c-7.253 1.273-11.612 9.925-11.993 10.053-1.972-1.877 2.163-12.629 11.993-10.053" transform="matrix(.79982 .12606 -.1271 .79816 69.505 14.994)"/><path fill="none" d="M-35.28 86.116c-9.853-.202-12.353 9.265-11.993 10.053" transform="matrix(.79982 .12606 -.1271 .79816 69.505 14.994)"/></g><g stroke="#425b40" stroke-linecap="round" stroke-linejoin="round" stroke-miterlimit="2" stroke-width=".295"><path fill="#658b62" d="M-35.28 86.116c-7.253 1.273-11.612 9.925-11.993 10.053-1.972-1.877 2.163-12.629 11.993-10.053" transform="matrix(-.61599 .11286 .09789 .7146 .14 15.482)"/><path fill="none" d="M-35.28 86.116c-9.853-.202-12.353 9.265-11.993 10.053" transform="matrix(-.61599 .11286 .09789 .7146 .14 15.482)"/><path fill="#658b62" d="M-35.28 86.116c-7.253 1.273-11.612 9.925-11.993 10.053-1.972-1.877 2.163-12.629 11.993-10.053" transform="matrix(-.61599 .11286 .09789 .7146 .263 7.046)"/><path fill="none" d="M-35.28 86.116c-9.853-.202-12.353 9.265-11.993 10.053" transform="matrix(-.61599 .11286 .09789 .7146 .263 7.046)"/><path fill="#658b62" d="M-35.28 86.116c-7.253 1.273-11.612 9.925-11.993 10.053-1.972-1.877 2.163-12.629 11.993-10.053" transform="matrix(-.62599 .01784 -.01196 .72117 9.976 -6.446)"/><path fill="none" d="M-35.28 86.116c-9.853-.202-12.353 9.265-11.993 10.053" transform="matrix(-.62599 .01784 -.01196 .72117 9.976 -6.446)"/></g><g stroke="#425b40" stroke-linecap="round" stroke-linejoin="round" stroke-miterlimit="2" stroke-width=".319"><path fill="#658b62" d="M-35.28 86.116c-7.253 1.273-11.612 9.925-11.993 10.053-1.972-1.877 2.163-12.629 11.993-10.053" transform="matrix(-.53815 .01784 -.01028 .72117 13.098 -16.959)"/><path fill="none" d="M-35.28 86.116c-9.853-.202-12.353 9.265-11.993 10.053" transform="matrix(-.53815 .01784 -.01028 .72117 13.098 -16.959)"/></g><g stroke="#425b40" stroke-linecap="round" stroke-linejoin="round" stroke-miterlimit="2" stroke-width=".381"><path fill="#658b62" d="M-35.28 86.116c-7.253 1.273-11.612 9.925-11.993 10.053-1.972-1.877 2.163-12.629 11.993-10.053" transform="matrix(-.42915 .13627 .15519 .58322 3.23 -7.51)"/><path fill="none" d="M-35.28 86.116c-9.853-.202-12.353 9.265-11.993 10.053" transform="matrix(-.42915 .13627 .15519 .58322 3.23 -7.51)"/></g><g stroke="#425b40" stroke-linecap="round" stroke-linejoin="round" stroke-miterlimit="2" stroke-width=".285"><path fill="#658b62" d="M-35.28 86.116c-7.253 1.273-11.612 9.925-11.993 10.053-1.972-1.877 2.163-12.629 11.993-10.053" transform="matrix(.66191 .11286 -.10518 .7146 63.24 11.333)"/><path fill="none" d="M-35.28 86.116c-9.853-.202-12.353 9.265-11.993 10.053" transform="matrix(.66191 .11286 -.10518 .7146 63.24 11.333)"/></g><g stroke="#425b40" stroke-linecap="round" stroke-linejoin="round" stroke-miterlimit="2" stroke-width=".285"><path fill="#658b62" d="M-35.28 86.116c-7.253 1.273-11.612 9.925-11.993 10.053-1.972-1.877 2.163-12.629 11.993-10.053" transform="matrix(.66191 .11286 -.10518 .7146 63.398 3.101)"/><path fill="none" d="M-35.28 86.116c-9.853-.202-12.353 9.265-11.993 10.053" transform="matrix(.66191 .11286 -.10518 .7146 63.398 3.101)"/></g><g stroke="#425b40" stroke-linecap="round" stroke-linejoin="round" stroke-miterlimit="2" stroke-width=".258"><path fill="#658b62" d="M-35.28 86.116c-7.253 1.273-11.612 9.925-11.993 10.053-1.972-1.877 2.163-12.629 11.993-10.053" transform="matrix(-.74717 .087 .0842 .78205 -4.133 29.071)"/><path fill="none" d="M-35.28 86.116c-9.853-.202-12.353 9.265-11.993 10.053" transform="matrix(-.74717 .087 .0842 .78205 -4.133 29.071)"/></g><g stroke="#425b40" stroke-linecap="round" stroke-linejoin="round" stroke-miterlimit="2" stroke-width=".284"><path fill="#658b62" d="M-35.28 86.116c-7.253 1.273-11.612 9.925-11.993 10.053-1.972-1.877 2.163-12.629 11.993-10.053" transform="matrix(-.68047 .16548 .16598 .67803 -8.72 48.37)"/><path fill="none" d="M-35.28 86.116c-9.853-.202-12.353 9.265-11.993 10.053" transform="matrix(-.68047 .16548 .16598 .67803 -8.72 48.37)"/></g><g stroke="#425b40" stroke-linecap="round" stroke-linejoin="round" stroke-miterlimit="2" stroke-width=".248"><path fill="#425b40" d="M-39.85 69.857c1.417 1.822 1.168 4.42 2.248 5.702-.203-1.147 1.363-3.764-.1-5.092-.494-.494-2.126-1.172-2.148-.61" transform="matrix(.76526 .063 -.05707 .82992 71.412 29.336)"/><path fill="#658b62" d="M-48.814 72.185c3.745-1.714 7.881-3.31 11.113-1.718-.76-.996-3.181-1.923-4.183-2.275-1.647-.2-3.888.783-6.93 3.993z" transform="matrix(.76526 .063 -.05707 .82992 71.412 29.336)"/><path fill="none" d="M-48.814 72.185c5.084-4.027 8.477-3.388 8.477-3.388" transform="matrix(.76526 .063 -.05707 .82992 71.412 29.336)"/></g><g stroke="#425b40" stroke-linecap="round" stroke-linejoin="round" stroke-miterlimit="2" stroke-width=".248"><path fill="#425b40" d="M-39.85 69.857c1.417 1.822 1.168 4.42 2.248 5.702-.203-1.147 1.363-3.764-.1-5.092-.494-.494-2.126-1.172-2.148-.61" transform="matrix(-.67537 .36534 .38591 .73695 -29.432 14.673)"/><path fill="#658b62" d="M-48.814 72.185c3.745-1.714 7.881-3.31 11.113-1.718-.76-.996-3.181-1.923-4.183-2.275-1.647-.2-3.888.783-6.93 3.993z" transform="matrix(-.67537 .36534 .38591 .73695 -29.432 14.673)"/><path fill="none" d="M-48.814 72.185c5.084-4.027 8.477-3.388 8.477-3.388" transform="matrix(-.67537 .36534 .38591 .73695 -29.432 14.673)"/></g><g stroke-linecap="round" stroke-linejoin="round" stroke-miterlimit="2" stroke-width=".596" transform="matrix(.29845 -.148 .14778 .29827 22.804 -10.483)"><path fill="#fbeb19" stroke="#ada103" d="M-61.535 132.61c-1.8 1.618-4.014 2.717-5.739 4.423-.856.607-.574 2.1.585 2.018 1.239-.098 2.07-1.191 2.878-2.015.61-.69 1.199-1.395 1.797-2.094-1.065 1.477-2.366 2.822-3.101 4.508-.514.897.422 2.093 1.409 1.646 1.128-.533 1.588-1.82 2.136-2.857.694-1.328 1.078-2.832 2.027-4.016-.568 2.334-2.11 4.33-2.503 6.716-.24 1.024 1.079 1.82 1.853 1.084.875-.86.96-2.185 1.196-3.324.278-1.38.265-2.836.839-4.142-.064 2.306-.81 4.58-.52 6.892.041 1.054 1.525 1.583 2.1.621.592-1.093.316-2.403.23-3.585-.12-1.392-.46-2.767-.42-4.17.745 2.26.66 4.753 1.737 6.907.373.942 1.902 1.105 2.218.036.242-1.142-.414-2.23-.827-3.255-.536-1.28-1.3-2.465-1.705-3.797.34.335.923 1.57 1.354 2.256.784 1.271 1.482 2.704 2.76 3.551.81.595 2.132-.141 1.84-1.169-.442-1.371-1.592-2.347-2.513-3.405-.306-.337-.933-.986-.285-.353 1.046.934 2.06 2.088 3.476 2.425.95.269 1.936-.894 1.247-1.714-1.027-1.159-2.514-1.746-3.827-2.515-.894-.53-1.894-.97-2.613-1.737-.737-1.034-1.668-2.277-3.063-2.287-1.423.11-2.45 1.269-3.43 2.183-.384.384-.76.776-1.136 1.169z"/><circle cx="-64.202" cy="126.12" r="4.664" fill="#bea204" stroke="#877303" transform="rotate(-2.908)"/></g></svg>