<svg xmlns="http://www.w3.org/2000/svg" xmlns:xlink="http://www.w3.org/1999/xlink" xml:space="preserve" width="1.583in" height="225.043" viewBox="0 0 40.209 59.542"><g stroke-width="1.131" transform="matrix(.8853 0 0 .88234 -297.443 -158.428)"><path id="b" fill="#b3ca3b" stroke="#96aa2e" stroke-width=".173" d="M45.882 207.36c-.12.15-.143-.205-.33-.154-.185.05-.025.368-.205.3s.15-.2.045-.361c-.106-.161-.358.09-.349-.103.01-.192.237.082.357-.069.12-.15-.196-.313-.01-.363.186-.051-.004.25.176.318s.237-.283.343-.122c.105.161-.24.073-.249.266-.01.192.343.138.222.288z" transform="matrix(.86566 0 0 .86735 14.139 28.407)"/></g><g stroke-width="2.433" transform="matrix(.41159 0 0 .41055 -253.315 -80.576)"><ellipse id="a" cx="-33.615" cy="274.6" fill="#d2cb7b" stroke="#b1963d" stroke-linecap="round" stroke-linejoin="round" stroke-miterlimit="5" stroke-width=".322" rx=".573" ry="1.448" transform="rotate(2.265 -58.919 681.957)"/></g><path fill="#345322" stroke="#263b18" stroke-linecap="round" stroke-width=".198" d="M27.844 50.525s2.292 2.617 4.194 2.135c-2.014-2.583-3.923-2.04-3.923-2.04 4.899-2.29 5.044-4.877 6.327-6.599-1.748.78-4.075 2.943-4.394 3.534-.306.568-1.512 3.296-2.113 2.833 1.73-2.063-1.442-6.183-1.442-6.183-.387 4.801 1.351 6.32 1.351 6.32z"/><g fill="#345322" stroke="#263b18" stroke-width=".198"><path d="M27.598 26.375c.307-.158 3.846 3.104 6.492 3.293-2.23-.998-4.035-5.002-6.492-3.293z"/><path d="M27.464 26.93c.348-1.79 5.907-5.12 6-7.304-1.062.89-5.344 2.706-6 7.303zM26.58 33.391c-1.12-.763-2.73-.667-5.334-1.765a20 20 0 0 1-3.053-1.635c1.642.723 7.99.68 8.387 3.4z"/><path d="M26.424 33.623c-.044-1.822-4.97-6.033-4.698-8.203.899 1.056 4.819 3.56 4.698 8.203z"/></g><g stroke-width=".856"><path fill="#345322" stroke="#263b18" d="M-184.42-151.49c18.85-8.105 33.525 3.132 41.323-.184-5.772.491-26.034-16.763-41.323.184z" transform="rotate(4.8 -836.62 -216.7)scale(-.23759 .22621)"/><path fill="none" stroke="#335021" d="M-184.29-151.65s5.614-5.525 20.319-2.475" transform="rotate(4.8 -836.62 -216.7)scale(-.23759 .22621)"/></g><path fill="#345322" stroke="#263b18" stroke-width=".198" d="M25.637 38.944c.297-1.536 5.028-4.398 5.11-6.274-.905.766-4.55 2.327-5.11 6.274z"/><path fill="#345322" stroke="#263b18" stroke-linecap="round" stroke-width=".198" d="M23.546 45.018s1.289-3.232-.004-4.707c-1.386 2.97-.034 4.422-.034 4.422-4.268-3.321-6.637-2.275-8.754-2.635 1.49 1.203 4.473 2.292 5.146 2.307.644.015 3.622-.152 3.482.594-2.624-.603-4.85 4.095-4.85 4.095 4.452-1.837 5.014-4.076 5.014-4.076z"/><path fill="#374920" stroke="#2a3818" stroke-linecap="round" stroke-linejoin="round" stroke-miterlimit="5" stroke-width=".198" d="M29.36 16.58C25.77 26.888 26.424 50.735 17.49 51.476l.011.54c9.343.455 9.442-27.243 11.858-35.437z"/><g fill="#345322" stroke="#263b18" stroke-linecap="round" stroke-width=".198"><path d="M21.297 50.076s2.71-2.969 4.338-2.52C23.859 49.885 21.54 50 21.54 50c4.54 1.277 5.268 4.48 6.092 6.055-4.777-2.03-3.81-5.444-6.278-5.854 1.148 1.893-2.132 5.46-2.132 5.46.388-4.289 2.076-5.585 2.076-5.585z"/><path d="M21.245 50.028s1.875-2.93.883-4.623c-1.92 2.654-.867 4.336-.867 4.336-3.564-4.067-6.088-3.486-8.1-4.239 1.237 1.462 3.961 3.095 4.619 3.236.63.136 3.586.535 3.308 1.24-2.463-1.086-5.536 3.107-5.536 3.107 4.719-.965 5.693-3.057 5.693-3.057zM24.004 45.123s-.112-3.963 1.504-5.329c.378 2.802-1.32 5.154-1.32 5.154 4.638-.858 6.29 6.406 7.724 7.456-1.547-.077-5.36-4.658-5.759-5.06-.382-.387-1.633-3.125-2.044-2.134 1.866 1.193.496 5.84.496 5.84-1.544-4.019-.601-5.927-.601-5.927z"/></g><g stroke-width=".856"><path fill="#345322" stroke="#263b18" d="M-184.42-151.49c18.85-8.105 33.525 3.132 41.323-.184-5.772.491-26.034-16.763-41.323.184z" transform="rotate(4.8 -881.057 829.379)scale(.23759 .22621)"/><path fill="none" stroke="#335021" d="M-184.29-151.65s5.614-5.525 20.319-2.475" transform="rotate(4.8 -881.057 829.379)scale(.23759 .22621)"/></g><g fill="#345322" stroke="#263b18" stroke-width=".198"><path d="M18.406 42.896c1.563-.061 5.107-4.305 6.974-4.102-.894.778-2.988 4.145-6.974 4.102zM26.567 32.877c.882.618 3.454-2.018 7.512-4.638-2.92.69-7.829 2.512-7.512 4.638z"/><path d="M26.36 33.128c.307-.158 3.845 3.104 6.491 3.293-2.23-.998-4.034-5.002-6.492-3.293z"/></g><g stroke-width=".962"><path fill="#d5c9d9" stroke="#968191" stroke-linecap="round" stroke-linejoin="round" stroke-miterlimit="5" stroke-width=".191" d="M46.813 214.76c.358.178 1.902.913 1.655 3.248-2.28-1.281-2.454-2.351-2.427-2.776-.014.356-.245 2.105-2.202 3.145-.147-2.78 1.286-3.08 1.332-3.325-.23.026-1.184 1.103-3.037 1.114.831-1.943 2.808-1.76 2.808-1.76s-.661.232-2.704-.673c1.354-.97 2.971.077 2.971.077s-.548-1.356-.25-1.48c.308-.07 1.06 1.038 1.06 1.038s.379-.885 1.914-.744c-.344.787-.573.904-1.14 1.303 1.831.1 2.13.55 2.865 1.44-1.195.075-2.164-.215-2.845-.607z" transform="matrix(-1.02112 -.19556 -.1955 1.02082 117.499 -191)"/><path fill="#785725" stroke="#64491f" stroke-linecap="round" stroke-linejoin="round" stroke-miterlimit="5" stroke-width=".368" d="M-20.829 275.77c.508 1.546 5.462 1.782 6.494.022.369-4.8-6.786-4.616-6.494-.022" transform="rotate(10.842 697.84 185.272)scale(-.53761 .53695)"/><g stroke-width="1.861" transform="rotate(10.842 697.84 185.272)scale(-.53761 .53695)"><ellipse cx="-33.615" cy="274.6" fill="#d2cb7b" stroke="#b1963d" stroke-linecap="round" stroke-linejoin="round" stroke-miterlimit="5" stroke-width=".246" rx=".573" ry="1.448" transform="rotate(2.265 -58.919 681.957)"/><use xlink:href="#a" transform="rotate(201.87 -18.196 275.92)"/><use xlink:href="#a" transform="rotate(220.74 -18.931 276.02)"/><use xlink:href="#a" transform="rotate(130.3 -16.048 276.17)"/><use xlink:href="#a" transform="rotate(158.48 -16.848 276)"/><use xlink:href="#a" transform="rotate(-32.183 -19.024 272)"/><use xlink:href="#a" transform="rotate(26.076 -15.391 271.6)"/><use xlink:href="#a" transform="rotate(-10.937 -22.682 272.04)"/><use xlink:href="#a" transform="rotate(12.225 -12.961 272.98)"/><use xlink:href="#a" transform="rotate(110.12 -15.433 275.76)"/><use xlink:href="#a" transform="rotate(233.97 -19.319 275.55)"/></g><path fill="#d5c9d9" stroke="#968191" stroke-linecap="round" stroke-linejoin="round" stroke-miterlimit="5" stroke-width=".191" d="M44.762 211.68c-.358.178-1.902.913-1.655 3.248 2.28-1.281 2.454-2.351 2.427-2.776.014.356.245 2.105 2.202 3.146.147-2.78-1.286-3.081-1.332-3.326.23.026 1.184 1.103 3.037 1.114-.831-1.943-2.808-1.76-2.808-1.76s.661.232 2.704-.673c-1.354-.97-2.971.077-2.971.077s.548-1.356.25-1.48c-.308-.07-1.06 1.038-1.06 1.038s-.379-.885-1.914-.744c.344.787.573.904 1.14 1.303-1.831.1-2.13.55-2.865 1.44 1.195.075 2.164-.215 2.845-.607z" transform="matrix(-1.02112 -.19556 -.1955 1.02082 117.499 -191)"/><path fill="#785725" stroke="#64491f" stroke-linecap="round" stroke-linejoin="round" stroke-miterlimit="5" stroke-width=".368" d="M-20.829 275.77c.508 1.546 5.462 1.782 6.494.022.369-4.8-6.786-4.616-6.494-.022" transform="rotate(10.842 705.24 286.756)scale(.53761 .53695)"/><g stroke-width="1.861" transform="rotate(10.842 705.24 286.756)scale(.53761 .53695)"><ellipse cx="-33.615" cy="274.6" fill="#d2cb7b" stroke="#b1963d" stroke-linecap="round" stroke-linejoin="round" stroke-miterlimit="5" stroke-width=".246" rx=".573" ry="1.448" transform="rotate(2.265 -58.919 681.957)"/><use xlink:href="#a" transform="rotate(201.87 -18.196 275.92)"/><use xlink:href="#a" transform="rotate(220.74 -18.931 276.02)"/><use xlink:href="#a" transform="rotate(130.3 -16.048 276.17)"/><use xlink:href="#a" transform="rotate(158.48 -16.848 276)"/><use xlink:href="#a" transform="rotate(-32.183 -19.024 272)"/><use xlink:href="#a" transform="rotate(26.076 -15.391 271.6)"/><use xlink:href="#a" transform="rotate(-10.937 -22.682 272.04)"/><use xlink:href="#a" transform="rotate(12.225 -12.961 272.98)"/><use xlink:href="#a" transform="rotate(110.12 -15.433 275.76)"/><use xlink:href="#a" transform="rotate(233.97 -19.319 275.55)"/></g><path fill="#d5c9d9" stroke="#968191" stroke-linecap="round" stroke-linejoin="round" stroke-miterlimit="5" stroke-width=".191" d="M46.087 209.3c.518 1.035-.289 2.859-.306 3.635-1.417-2.76-.546-3.46-.387-3.7-.74.96-.99 1.73-2.464 2.464.221-2.607 2.261-2.658 2.261-2.658-.483-.093-2.323.474-2.949.536.944-1.663 2.817-1.053 2.817-1.053-.624-.196-1.455-.437-1.744-1.113 1.238-.213 2.016.569 2.016.569s.175-.774.4-.749c.213.075.463.786.463.786s.843-.806 1.656-.582c-.513.762-1.05.888-1.418 1.09.728-.199 2.049-.096 2.784.938-1.45.32-2.802-.451-2.86-.437 0 0 1.603.298 1.726 2.56-1.464-.853-1.995-2.286-1.995-2.286" transform="matrix(-1.02112 -.19556 -.1955 1.02082 117.499 -191)"/><path fill="#785725" stroke="#64491f" stroke-linecap="round" stroke-linejoin="round" stroke-miterlimit="5" stroke-width=".463" d="M-20.829 275.77c.508 1.546 5.462 1.782 6.494.022.369-4.8-6.786-4.616-6.494-.022" transform="rotate(10.842 569.22 183.945)scale(-.42792 .42671)"/><g stroke-width="2.34" transform="rotate(10.842 569.22 183.945)scale(-.42792 .42671)"><ellipse cx="-33.615" cy="274.6" fill="#d2cb7b" stroke="#b1963d" stroke-linecap="round" stroke-linejoin="round" stroke-miterlimit="5" stroke-width=".31" rx=".573" ry="1.448" transform="rotate(2.265 -58.919 681.957)"/><use xlink:href="#a" transform="rotate(201.87 -18.196 275.92)"/><use xlink:href="#a" transform="rotate(220.74 -18.931 276.02)"/><use xlink:href="#a" transform="rotate(130.3 -16.048 276.17)"/><use xlink:href="#a" transform="rotate(158.48 -16.848 276)"/><use xlink:href="#a" transform="rotate(-32.183 -19.024 272)"/><use xlink:href="#a" transform="rotate(26.076 -15.391 271.6)"/><use xlink:href="#a" transform="rotate(-10.937 -22.682 272.04)"/><use xlink:href="#a" transform="rotate(12.225 -12.961 272.98)"/><use xlink:href="#a" transform="rotate(110.12 -15.433 275.76)"/><use xlink:href="#a" transform="rotate(233.97 -19.319 275.55)"/></g><path fill="#d5c9d9" stroke="#968191" stroke-linecap="round" stroke-linejoin="round" stroke-miterlimit="5" stroke-width=".191" d="M46.496 206.72c.285.142 1.514.725 1.317 2.581-1.815-1.018-1.953-1.868-1.931-2.206-.011.283-.196 1.673-1.753 2.5-.117-2.21 1.023-2.448 1.06-2.643-.182.02-.943.877-2.417.885.662-1.544 2.235-1.398 2.235-1.398s-.526.184-2.153-.535c1.078-.772 2.366.061 2.366.061s-.437-1.078-.2-1.176c.246-.056.845.825.845.825s.3-.704 1.523-.591c-.274.625-.457.718-.908 1.035 1.458.08 1.696.437 2.28 1.145-.95.06-1.722-.171-2.264-.483z" transform="matrix(-1.02112 -.19556 -.1955 1.02082 117.499 -191)"/><path fill="#785725" stroke="#64491f" stroke-linecap="round" stroke-linejoin="round" stroke-miterlimit="5" stroke-width=".215" d="M53.237 208.25c.161.485 1.732.56 2.06.007.116-1.507-2.153-1.45-2.06-.007" transform="rotate(10.842 938.57 524.195)scale(-.92042 .91708)"/><path fill="#b3ca3b" stroke="#96aa2e" stroke-width=".166" d="M45.882 207.36c-.12.15-.143-.205-.33-.154-.185.05-.025.368-.205.3s.15-.2.045-.361c-.106-.161-.358.09-.349-.103.01-.192.237.082.357-.069.12-.15-.196-.313-.01-.363.186-.051-.004.25.176.318s.237-.283.343-.122c.105.161-.24.073-.249.266-.01.192.343.138.222.288z" transform="rotate(-169.158 42 -76.656)scale(.79677 -.79543)"/><g stroke-width="1.088" transform="rotate(10.842 938.57 524.195)scale(-.92042 .91708)"><use xlink:href="#b" transform="translate(.31 -.54)"/><use xlink:href="#b" transform="matrix(-.78548 .62097 -.61682 -.78548 224.91 337.52)"/><use xlink:href="#b" transform="matrix(.5916 .80894 -.80354 .5916 190.49 41.383)"/><use xlink:href="#b" transform="matrix(-.88879 -.45985 .45678 -.88879 7.478 417.57)"/><use xlink:href="#b" transform="matrix(-.52803 .85208 -.84639 -.52803 258.78 272.37)"/><use xlink:href="#b" transform="rotate(89.97 53.396 207.882)scale(1.0034 .99666)"/></g><path fill="#aaab68" stroke="#79863f" stroke-linecap="round" stroke-linejoin="round" stroke-miterlimit="5" stroke-width=".19" d="M45.72 205.12c-.147.013-.037.829-.037.829.036.033.204.027.258-.002 0 0-.037-.803-.221-.827z" transform="matrix(-1.02112 -.19556 -.1955 1.02082 117.499 -191)"/><g stroke-linecap="round" stroke-linejoin="round" stroke-miterlimit="5" stroke-width="1.077"><path fill="#c5d791" stroke="#a4c024" d="M-20.628 95.543c.567 1.598.77 2.825 3.443 8.424l2.247-.379s2.183-3.996 4.298-10.565c-2.61 3.015-4.32 6.434-4.32 6.434.077-2.826-1.46-3.892-1.988-5.468-.288 1.728-1.292 2.508-1.041 5.324-.636-1.082-1.272-2.943-2.639-3.77z" transform="rotate(10.842 66.28 159.827)scale(-.184 .18373)"/><path fill="#aec767" stroke="#859c1d" d="M-23.237 96.398c4.724 4.994 4.584 6.6 5.415 7.302.996 1.353 2.09 1.707 3.312.127 1.915-2.479 1.35-5.314 2.7-7.564-2.294 1.8-1.98 4.724-1.844 5.444-.09-2.565-.99-3.51-.99-3.51-1.71 1.125-2.834 4.95-2.834 4.95s-.135-3.555-5.759-6.75z" transform="rotate(10.842 66.28 159.827)scale(-.184 .18373)"/></g></g><path fill="#345322" stroke="#263b18" stroke-width=".198" d="M27.356 25.934c-1.122-.763-2.73-.667-5.335-1.765a20 20 0 0 1-3.053-1.635c1.642.723 7.99.68 8.387 3.4z"/><path fill="#345322" stroke="#263b18" stroke-width=".198" d="M27.544 26.04c.404 1.189-3.405 3.19-7.685 6.86 1.738-3.035 5.4-7.917 7.685-6.86z"/><g fill="#345322" stroke="#263b18" stroke-width=".198"><path d="M11.304 25.047c-.294-.184-4.093 2.77-6.745 2.739 2.306-.81 4.439-4.648 6.745-2.74z"/><path d="M11.39 25.61c-.196-1.811-5.457-5.595-5.368-7.78.984.977 5.1 3.144 5.368 7.78zM11.73 32.124c1.181-.666 2.777-.437 5.464-1.313.922-.3 1.972-.732 3.179-1.374-1.697.583-8.02.009-8.643 2.687z"/><path d="M11.866 32.368c.197-1.812 5.458-5.596 5.369-7.78-.984.976-5.1 3.143-5.368 7.78z"/></g><g stroke-width=".856"><path fill="#345322" stroke="#263b18" d="M-184.42-151.49c18.85-8.105 33.525 3.132 41.323-.184-5.772.491-26.034-16.763-41.323.184z" transform="matrix(.23759 0 0 .22621 56.213 71.853)"/><path fill="none" stroke="#335021" d="M-184.29-151.65s5.614-5.525 20.319-2.475" transform="matrix(.23759 0 0 .22621 56.213 71.853)"/></g><path fill="#345322" stroke="#263b18" stroke-width=".198" d="M12.206 37.736c-.168-1.556-4.643-4.804-4.567-6.68.837.84 4.339 2.7 4.567 6.68z"/><path fill="#345322" stroke="#263b18" stroke-linecap="round" stroke-width=".198" d="M13.78 43.964s-1.013-3.328.4-4.69c1.131 3.074-.337 4.41-.337 4.41 4.53-2.954 6.803-1.713 8.943-1.894-1.585 1.073-4.65 1.91-5.32 1.868-.644-.04-3.598-.454-3.52.3 2.665-.38 4.49 4.487 4.49 4.487-4.282-2.204-4.655-4.481-4.655-4.481z"/><path fill="#374920" stroke="#2a3818" stroke-linecap="round" stroke-linejoin="round" stroke-miterlimit="5" stroke-width=".198" d="M10.368 15.139c2.713 10.572.067 34.28 8.906 35.767l-.056.536c-9.348-.327-7.128-27.937-8.85-36.304z"/><g fill="#345322" stroke="#263b18" stroke-linecap="round" stroke-width=".198"><path d="M15.598 49.192s-2.452-3.185-4.111-2.875c1.574 2.471 3.876 2.779 3.876 2.779-4.632.892-5.625 4.023-6.577 5.524 4.93-1.623 4.252-5.106 6.745-5.308-1.302 1.79 1.668 5.619 1.668 5.619-.028-4.306-1.6-5.74-1.6-5.74z"/><path d="M15.654 49.149s-1.623-3.078-.493-4.681c1.692 2.806.502 4.394.502 4.394 3.892-3.755 6.358-2.965 8.425-3.547-1.354 1.354-4.205 2.753-4.872 2.839-.64.082-3.619.232-3.4.958 2.545-.877 5.256 3.56 5.256 3.56-4.622-1.357-5.418-3.523-5.418-3.523zM13.316 44.03s.443-3.94-1.053-5.436c-.611 2.76.885 5.246.885 5.246-4.551-1.243-6.805 5.857-8.322 6.784 1.548.053 5.73-4.193 6.162-4.561.414-.353 1.889-2.977 2.215-1.955-1.959 1.032-.982 5.779-.982 5.779 1.875-3.877 1.095-5.857 1.095-5.857z"/></g><g stroke-width=".856"><path fill="#345322" stroke="#263b18" d="M-184.42-151.49c18.85-8.105 33.525 3.132 41.323-.184-5.772.491-26.034-16.763-41.323.184z" transform="matrix(-.23759 0 0 .22621 -31.491 71.902)"/><path fill="none" stroke="#335021" d="M-184.29-151.65s5.614-5.525 20.319-2.475" transform="matrix(-.23759 0 0 .22621 -31.491 71.902)"/></g><g fill="#345322" stroke="#263b18" stroke-width=".198"><path d="M19.08 42.28c-1.552-.192-4.729-4.718-6.605-4.672.825.85 2.63 4.38 6.606 4.672zM11.786 31.613c-.93.542-3.272-2.3-7.097-5.25 2.853.932 7.591 3.157 7.097 5.25z"/><path d="M11.973 31.88c-.294-.184-4.093 2.77-6.745 2.739 2.306-.81 4.439-4.648 6.745-2.74z"/></g><g stroke-width=".962"><path fill="#d5c9d9" stroke="#968191" stroke-linecap="round" stroke-linejoin="round" stroke-miterlimit="5" stroke-width=".191" d="M46.813 214.76c.358.178 1.902.913 1.655 3.248-2.28-1.281-2.454-2.351-2.427-2.776-.014.356-.245 2.105-2.202 3.145-.147-2.78 1.286-3.08 1.332-3.325-.23.026-1.184 1.103-3.037 1.114.831-1.943 2.808-1.76 2.808-1.76s-.661.232-2.704-.673c1.354-.97 2.971.077 2.971.077s-.548-1.356-.25-1.48c.308-.07 1.06 1.038 1.06 1.038s.379-.885 1.914-.744c-.344.787-.573.904-1.14 1.303 1.831.1 2.13.55 2.865 1.44-1.195.075-2.164-.215-2.845-.607z" transform="matrix(1.0339 -.10941 .10938 1.0336 -60.09 -199.09)"/><path fill="#785725" stroke="#64491f" stroke-linecap="round" stroke-linejoin="round" stroke-miterlimit="5" stroke-width=".368" d="M-20.829 275.77c.508 1.546 5.462 1.782 6.494.022.369-4.8-6.786-4.616-6.494-.022" transform="matrix(.53463 -.05658 .0565 .53397 4.582 -130.389)"/><g stroke-width="1.861" transform="matrix(.53463 -.05658 .0565 .53397 4.582 -130.389)"><ellipse cx="-33.615" cy="274.6" fill="#d2cb7b" stroke="#b1963d" stroke-linecap="round" stroke-linejoin="round" stroke-miterlimit="5" stroke-width=".246" rx=".573" ry="1.448" transform="rotate(2.265 -58.919 681.957)"/><use xlink:href="#a" transform="rotate(201.87 -18.196 275.92)"/><use xlink:href="#a" transform="rotate(220.74 -18.931 276.02)"/><use xlink:href="#a" transform="rotate(130.3 -16.048 276.17)"/><use xlink:href="#a" transform="rotate(158.48 -16.848 276)"/><use xlink:href="#a" transform="rotate(-32.183 -19.024 272)"/><use xlink:href="#a" transform="rotate(26.076 -15.391 271.6)"/><use xlink:href="#a" transform="rotate(-10.937 -22.682 272.04)"/><use xlink:href="#a" transform="rotate(12.225 -12.961 272.98)"/><use xlink:href="#a" transform="rotate(110.12 -15.433 275.76)"/><use xlink:href="#a" transform="rotate(233.97 -19.319 275.55)"/></g><path fill="#d5c9d9" stroke="#968191" stroke-linecap="round" stroke-linejoin="round" stroke-miterlimit="5" stroke-width=".191" d="M44.762 211.68c-.358.178-1.902.913-1.655 3.248 2.28-1.281 2.454-2.351 2.427-2.776.014.356.245 2.105 2.202 3.146.147-2.78-1.286-3.081-1.332-3.326.23.026 1.184 1.103 3.037 1.114-.831-1.943-2.808-1.76-2.808-1.76s.661.232 2.704-.673c-1.354-.97-2.971.077-2.971.077s.548-1.356.25-1.48c-.308-.07-1.06 1.038-1.06 1.038s-.379-.885-1.914-.744c.344.787.573.904 1.14 1.303-1.831.1-2.13.55-2.865 1.44 1.195.075 2.164-.215 2.845-.607z" transform="matrix(1.0339 -.10941 .10938 1.0336 -60.09 -199.09)"/><path fill="#785725" stroke="#64491f" stroke-linecap="round" stroke-linejoin="round" stroke-miterlimit="5" stroke-width=".368" d="M-20.829 275.77c.508 1.546 5.462 1.782 6.494.022.369-4.8-6.786-4.616-6.494-.022" transform="rotate(-6.04 -1254.15 72.62)scale(-.53761 .53695)"/><g stroke-width="1.861" transform="rotate(-6.04 -1254.15 72.62)scale(-.53761 .53695)"><ellipse cx="-33.615" cy="274.6" fill="#d2cb7b" stroke="#b1963d" stroke-linecap="round" stroke-linejoin="round" stroke-miterlimit="5" stroke-width=".246" rx=".573" ry="1.448" transform="rotate(2.265 -58.919 681.957)"/><use xlink:href="#a" transform="rotate(201.87 -18.196 275.92)"/><use xlink:href="#a" transform="rotate(220.74 -18.931 276.02)"/><use xlink:href="#a" transform="rotate(130.3 -16.048 276.17)"/><use xlink:href="#a" transform="rotate(158.48 -16.848 276)"/><use xlink:href="#a" transform="rotate(-32.183 -19.024 272)"/><use xlink:href="#a" transform="rotate(26.076 -15.391 271.6)"/><use xlink:href="#a" transform="rotate(-10.937 -22.682 272.04)"/><use xlink:href="#a" transform="rotate(12.225 -12.961 272.98)"/><use xlink:href="#a" transform="rotate(110.12 -15.433 275.76)"/><use xlink:href="#a" transform="rotate(233.97 -19.319 275.55)"/></g><path fill="#d5c9d9" stroke="#968191" stroke-linecap="round" stroke-linejoin="round" stroke-miterlimit="5" stroke-width=".191" d="M46.087 209.3c.518 1.035-.289 2.859-.306 3.635-1.417-2.76-.546-3.46-.387-3.7-.74.96-.99 1.73-2.464 2.464.221-2.607 2.261-2.658 2.261-2.658-.483-.093-2.323.474-2.949.536.944-1.663 2.817-1.053 2.817-1.053-.624-.196-1.455-.437-1.744-1.113 1.238-.213 2.016.569 2.016.569s.175-.774.4-.749c.213.075.463.786.463.786s.843-.806 1.656-.582c-.513.762-1.05.888-1.418 1.09.728-.199 2.049-.096 2.784.938-1.45.32-2.802-.451-2.86-.437 0 0 1.603.298 1.726 2.56-1.464-.853-1.995-2.286-1.995-2.286" transform="matrix(1.0339 -.10941 .10938 1.0336 -60.09 -199.09)"/><path fill="#785725" stroke="#64491f" stroke-linecap="round" stroke-linejoin="round" stroke-miterlimit="5" stroke-width=".463" d="M-20.829 275.77c.508 1.546 5.462 1.782 6.494.022.369-4.8-6.786-4.616-6.494-.022" transform="matrix(.42554 -.04503 .0449 .42434 5.096 -106.092)"/><g stroke-width="2.34" transform="matrix(.42554 -.04503 .0449 .42434 5.096 -106.092)"><ellipse cx="-33.615" cy="274.6" fill="#d2cb7b" stroke="#b1963d" stroke-linecap="round" stroke-linejoin="round" stroke-miterlimit="5" stroke-width=".31" rx=".573" ry="1.448" transform="rotate(2.265 -58.919 681.957)"/><use xlink:href="#a" transform="rotate(201.87 -18.196 275.92)"/><use xlink:href="#a" transform="rotate(220.74 -18.931 276.02)"/><use xlink:href="#a" transform="rotate(130.3 -16.048 276.17)"/><use xlink:href="#a" transform="rotate(158.48 -16.848 276)"/><use xlink:href="#a" transform="rotate(-32.183 -19.024 272)"/><use xlink:href="#a" transform="rotate(26.076 -15.391 271.6)"/><use xlink:href="#a" transform="rotate(-10.937 -22.682 272.04)"/><use xlink:href="#a" transform="rotate(12.225 -12.961 272.98)"/><use xlink:href="#a" transform="rotate(110.12 -15.433 275.76)"/><use xlink:href="#a" transform="rotate(233.97 -19.319 275.55)"/></g><path fill="#d5c9d9" stroke="#968191" stroke-linecap="round" stroke-linejoin="round" stroke-miterlimit="5" stroke-width=".191" d="M46.496 206.72c.285.142 1.514.725 1.317 2.581-1.815-1.018-1.953-1.868-1.931-2.206-.011.283-.196 1.673-1.753 2.5-.117-2.21 1.023-2.448 1.06-2.643-.182.02-.943.877-2.417.885.662-1.544 2.235-1.398 2.235-1.398s-.526.184-2.153-.535c1.078-.772 2.366.061 2.366.061s-.437-1.078-.2-1.176c.246-.056.845.825.845.825s.3-.704 1.523-.591c-.274.625-.457.718-.908 1.035 1.458.08 1.696.437 2.28 1.145-.95.06-1.722-.171-2.264-.483z" transform="matrix(1.0339 -.10941 .10938 1.0336 -60.09 -199.09)"/><path fill="#785725" stroke="#64491f" stroke-linecap="round" stroke-linejoin="round" stroke-miterlimit="5" stroke-width=".215" d="M53.237 208.25c.161.485 1.732.56 2.06.007.116-1.507-2.153-1.45-2.06-.007" transform="rotate(-6.04 -1689.972 480.435)scale(.92042 .91708)"/><path fill="#b3ca3b" stroke="#96aa2e" stroke-width=".166" d="M45.882 207.36c-.12.15-.143-.205-.33-.154-.185.05-.025.368-.205.3s.15-.2.045-.361c-.106-.161-.358.09-.349-.103.01-.192.237.082.357-.069.12-.15-.196-.313-.01-.363.186-.051-.004.25.176.318s.237-.283.343-.122c.105.161-.24.073-.249.266-.01.192.343.138.222.288z" transform="rotate(-6.04 -1449.589 344.08)scale(.79677 .79543)"/><g stroke-width="1.088" transform="rotate(-6.04 -1689.972 480.435)scale(.92042 .91708)"><use xlink:href="#b" transform="translate(.31 -.54)"/><use xlink:href="#b" transform="matrix(-.78548 .62097 -.61682 -.78548 224.91 337.52)"/><use xlink:href="#b" transform="matrix(.5916 .80894 -.80354 .5916 190.49 41.383)"/><use xlink:href="#b" transform="matrix(-.88879 -.45985 .45678 -.88879 7.478 417.57)"/><use xlink:href="#b" transform="matrix(-.52803 .85208 -.84639 -.52803 258.78 272.37)"/><use xlink:href="#b" transform="rotate(89.97 53.396 207.882)scale(1.0034 .99666)"/></g><path fill="#aaab68" stroke="#79863f" stroke-linecap="round" stroke-linejoin="round" stroke-miterlimit="5" stroke-width=".19" d="M45.72 205.12c-.147.013-.037.829-.037.829.036.033.204.027.258-.002 0 0-.037-.803-.221-.827z" transform="matrix(1.0339 -.10941 .10938 1.0336 -60.09 -199.09)"/><g stroke-linecap="round" stroke-linejoin="round" stroke-miterlimit="5" stroke-width="1.077"><path fill="#c5d791" stroke="#a4c024" d="M-20.628 95.543c.567 1.598.77 2.825 3.443 8.424l2.247-.379s2.183-3.996 4.298-10.565c-2.61 3.015-4.32 6.434-4.32 6.434.077-2.826-1.46-3.892-1.988-5.468-.288 1.728-1.292 2.508-1.041 5.324-.636-1.082-1.272-2.943-2.639-3.77z" transform="rotate(-6.04 -100.044 -106.77)scale(.184 .18373)"/><path fill="#aec767" stroke="#859c1d" d="M-23.237 96.398c4.724 4.994 4.584 6.6 5.415 7.302.996 1.353 2.09 1.707 3.312.127 1.915-2.479 1.35-5.314 2.7-7.564-2.294 1.8-1.98 4.724-1.844 5.444-.09-2.565-.99-3.51-.99-3.51-1.71 1.125-2.834 4.95-2.834 4.95s-.135-3.555-5.759-6.75z" transform="rotate(-6.04 -100.044 -106.77)scale(.184 .18373)"/></g></g><path fill="#345322" stroke="#263b18" stroke-width=".198" d="M11.582 24.628c1.181-.666 2.776-.437 5.463-1.313.922-.3 1.973-.732 3.18-1.374-1.697.583-8.02.009-8.643 2.687z"/><path fill="#345322" stroke="#263b18" stroke-width=".198" d="M11.385 24.717c-.502 1.151 3.126 3.465 7.084 7.48-1.478-3.17-4.72-8.341-7.084-7.48z"/><g fill="#345322" stroke="#263b18" stroke-linecap="round" stroke-width=".198"><path d="M24.028 54.01s-.04 3.48 1.698 4.39c.224-3.268-1.56-4.138-1.56-4.138 5.177 1.564 7.01-.264 9.116-.69-1.823-.586-4.999-.53-5.631-.302-.607.219-3.326 1.446-3.463.7 2.665-.382 3.052-5.567 3.052-5.567-3.492 3.317-3.212 5.608-3.212 5.608zM15.298 54.19s2.851 2.755 2.652 4.86c-2.23-1.737-2.661-4.606-2.661-4.606-2.715 3.858-8.977-.176-10.737.077 1.16-1.028 7.09-.422 7.656-.413.544.008 3.353 1.09 2.953.094-2.168.454-4.44-3.826-4.44-3.826 3.915 1.792 4.577 3.815 4.577 3.815z"/><path d="M20.834 58.533s-2.866-1.972-2.61-3.917c2.8 1.7 2.484 3.659 2.484 3.659 1.704-5.133 4.255-5.578 5.816-7.053-.571 1.827-2.447 4.39-2.998 4.776-.528.37-3.097 1.886-2.566 2.428 1.847-1.959 6.308.712 6.308.712-4.723.944-6.434-.605-6.434-.605z"/><path d="M17.123 58.479s3.891-.76 4.869-2.637c-2.816.246-4.739 2.419-4.739 2.419-.18-4.714-7.629-4.733-8.969-5.902.415 1.493 5.72 4.208 6.2 4.51.462.288 3.407.907 2.53 1.525-1.572-1.559-5.807.798-5.807.798 4.26.625 5.916-.713 5.916-.713z"/></g><path fill="#374920" stroke="#2a3818" stroke-linecap="round" stroke-linejoin="round" stroke-miterlimit="5" stroke-width=".198" d="M23.009 28.518c-.24 13.128-2.106 14.796-3.378 19.403l-.423-.28c3.35-9.285 3.063-11.618 3.801-19.123z"/><g stroke="#335021"><g fill="#466f2d" stroke-width=".198"><path d="M32.317 29.017c.895.6 3.41-2.091 7.412-4.796-2.906.752-7.774 2.677-7.412 4.796z"/><path d="M31.92 28.921c.304-.164 3.911 3.022 6.56 3.155-2.25-.95-4.14-4.915-6.56-3.155zM30.867 34.708c-.963.483-3.123-2.5-6.756-5.684 2.789 1.11 7.379 3.626 6.756 5.684z"/><path d="M31.023 35.034c-.345-.113-3.7 3.634-6.485 4.201 2.244-1.311 3.668-5.545 6.485-4.2zM30.27 40.71c-.035-.297 4.082-1.389 5.165-3.238-1.657 1.174-5.833.657-5.166 3.238z"/></g><g stroke-width=".856"><path fill="#466f2d" d="M-184.42-151.49c18.85-8.105 33.525 3.132 41.323-.184-5.772.491-26.034-16.763-41.323.184z" transform="rotate(-176.417 -6.85 36.372)scale(.23759 -.22621)"/><path fill="none" d="M-184.29-151.65s5.614-5.525 20.319-2.475" transform="rotate(-176.417 -6.85 36.372)scale(.23759 -.22621)"/></g><g fill="#466f2d" stroke-linecap="round" stroke-width=".198"><path d="M28.539 46.637s1.532-3.124.355-4.693c-1.609 2.854-.372 4.406-.372 4.406-4.001-3.638-6.443-2.776-8.527-3.297 1.394 1.313 4.285 2.628 4.954 2.694.642.064 3.624.126 3.428.858-2.57-.801-5.15 3.713-5.15 3.713 4.58-1.492 5.311-3.681 5.311-3.681z"/><path d="M26.68 51.571s2.726-2.878 2.433-4.973c-2.15 1.835-2.454 4.72-2.454 4.72-2.883-3.733-8.96.576-10.729.403 1.204.974 7.1.105 7.667.07.542-.032 3.3-1.238 2.945-.225-2.186-.357-4.265 4.02-4.265 4.02 3.832-1.964 4.402-4.015 4.402-4.015z"/><path d="M23.757 55.987s1.85-3.568.867-4.94c-1.574 2.47-.88 4.687-.88 4.687-2.766-3.82-6.023-3.398-7.786-3.626 3.555 3.781 6.425 1.695 7.662 3.87-2.174-.424-4.42 2.666-4.42 2.666 3.388-1.184 4.376-1.853 4.557-2.657z"/></g></g><path fill="#374920" stroke="#2a3818" stroke-linecap="round" stroke-linejoin="round" stroke-miterlimit="5" stroke-width=".198" d="M34.39 15.737C31.023 26.12 30.16 56.403 20.099 58.31l.022.539c10.42-.618 12.029-34.87 14.271-43.111z"/><g stroke="#335021"><g fill="#466f2d" stroke-width=".198"><g stroke-linecap="round"><path d="M23.86 56.18s2.103-2.773 4.034-2.426c-1.828 2.719-3.77 2.311-3.77 2.311 2.74.704 4.38 1.218 6.645 3.3-4.872.483-5.317-2.856-6.808-3.055.745 1.988-.492 2.762-.492 2.762-.699-1.483.391-2.893.391-2.893z"/><path d="M26.857 51.785s1.03-3.323 2.963-3.657c-.79 3.18-2.754 3.46-2.754 3.46 5.406.1 6.59 2.404 8.463 3.455-1.915-.002-4.92-1.03-5.452-1.442-.51-.394-2.721-2.396-3.081-1.728 2.42 1.181 1.196 6.234 1.196 6.234-2.306-4.228-1.336-6.322-1.336-6.322z"/><path d="M28.538 46.635s-.007-3.965 1.644-5.287c.304 2.81-1.456 5.117-1.456 5.117 4.66-.736 6.12 6.569 7.526 7.657-1.545-.118-5.236-4.798-5.624-5.21-.372-.397-1.55-3.167-1.987-2.187 1.834 1.241.342 5.851.342 5.851-1.438-4.059-.445-5.941-.445-5.941z"/></g><path d="M30.069 41.05c-.225-.198-3.472 2.559-5.607 2.393 1.909-.691 3.867-4.415 5.607-2.394z"/></g><g stroke-width=".856"><path fill="#466f2d" d="M-184.42-151.49c18.85-8.105 33.525 3.132 41.323-.184-5.772.491-26.034-16.763-41.323.184z" transform="matrix(.23713 .01485 -.01414 .22577 71.273 78.163)"/><path fill="none" d="M-184.29-151.65s5.614-5.525 20.319-2.475" transform="matrix(.23713 .01485 -.01414 .22577 71.273 78.163)"/></g><path fill="#466f2d" stroke-width=".198" d="M31.093 34.88c.31-1.797 5.797-5.244 5.844-7.43-1.043.913-5.286 2.819-5.844 7.43zM31.259 35.088c.453-1.171 3.713-.617 8.317-1.151-3.141 1.236-7.003 2.918-8.317 1.151z"/></g><path fill="#d5c9d9" stroke="#968191" stroke-linecap="round" stroke-linejoin="round" stroke-miterlimit="5" stroke-width=".198" d="M33.922 22.081c.074 1.588-1.956 3.428-2.41 4.393-.24-4.254 1.242-4.648 1.577-4.86-1.465.792-2.207 1.62-4.468 1.72 1.731-3.15 4.32-2.077 4.32-2.077-.555-.387-3.18-.7-4-.97 2.111-1.563 4.123.246 4.123.246-.674-.593-1.583-1.359-1.57-2.368 1.673.422 2.215 1.837 2.215 1.837s.651-.874.92-.717c.225.212.142 1.245.142 1.245s1.509-.543 2.404.192c-1.068.67-1.813.53-2.389.579 1.026.155 2.627 1.02 2.973 2.728-1.998-.408-3.266-2.128-3.346-2.142 0 0 1.846 1.267.74 4.177-1.364-1.888-1.231-3.983-1.231-3.983"/><path fill="#785725" stroke="#64491f" stroke-linecap="round" stroke-linejoin="round" stroke-miterlimit="5" stroke-width=".35" d="M-20.829 275.77c.508 1.546 5.462 1.782 6.494.022.369-4.8-6.786-4.616-6.494-.022" transform="matrix(.54664 .14431 -.14406 .54522 82.893 -126.52)"/><g stroke-width="1.771"><ellipse cx="-33.615" cy="274.6" fill="#d2cb7b" stroke="#b1963d" stroke-linecap="round" stroke-linejoin="round" stroke-miterlimit="5" stroke-width=".234" rx=".573" ry="1.448" transform="matrix(.54052 .16574 -.16555 .53909 97.187 -121.078)"/><ellipse cx="-33.615" cy="274.6" fill="#d2cb7b" stroke="#b1963d" stroke-linecap="round" stroke-linejoin="round" stroke-miterlimit="5" stroke-width=".234" rx=".573" ry="1.448" transform="matrix(-.44 -.35456 .35492 -.4386 -79.355 129.592)"/><ellipse cx="-33.615" cy="274.6" fill="#d2cb7b" stroke="#b1963d" stroke-linecap="round" stroke-linejoin="round" stroke-miterlimit="5" stroke-width=".234" rx=".573" ry="1.448" transform="matrix(-.30149 -.47741 .4782 -.30028 -109.162 87.031)"/><ellipse cx="-33.615" cy="274.6" fill="#d2cb7b" stroke="#b1963d" stroke-linecap="round" stroke-linejoin="round" stroke-miterlimit="5" stroke-width=".234" rx=".573" ry="1.448" transform="rotate(147.434 27.785 96.051)scale(.56465)skewX(.147)"/><ellipse cx="-33.615" cy="274.6" fill="#d2cb7b" stroke="#b1963d" stroke-linecap="round" stroke-linejoin="round" stroke-miterlimit="5" stroke-width=".234" rx=".573" ry="1.448" transform="matrix(-.56357 .04355 -.04425 -.5623 27.521 177.402)"/><ellipse cx="-33.615" cy="274.6" fill="#d2cb7b" stroke="#b1963d" stroke-linecap="round" stroke-linejoin="round" stroke-miterlimit="5" stroke-width=".234" rx=".573" ry="1.448" transform="matrix(.54565 -.14685 .14778 .54454 12.535 -133.574)"/><ellipse cx="-33.615" cy="274.6" fill="#d2cb7b" stroke="#b1963d" stroke-linecap="round" stroke-linejoin="round" stroke-miterlimit="5" stroke-width=".234" rx=".573" ry="1.448" transform="matrix(.41273 .38584 -.3863 .41136 152.789 -79.602)"/><ellipse cx="-33.615" cy="274.6" fill="#d2cb7b" stroke="#b1963d" stroke-linecap="round" stroke-linejoin="round" stroke-miterlimit="5" stroke-width=".234" rx=".573" ry="1.448" transform="matrix(.56211 .06045 -.06 .56074 69.428 -131.042)"/><ellipse cx="-33.615" cy="274.6" fill="#d2cb7b" stroke="#b1963d" stroke-linecap="round" stroke-linejoin="round" stroke-miterlimit="5" stroke-width=".234" rx=".573" ry="1.448" transform="matrix(.4932 .27614 -.27626 .49177 125.862 -105.012)"/><ellipse cx="-33.615" cy="274.6" fill="#d2cb7b" stroke="#b1963d" stroke-linecap="round" stroke-linejoin="round" stroke-miterlimit="5" stroke-width=".234" rx=".573" ry="1.448" transform="matrix(-.3414 .44917 -.45058 -.34108 147.587 129.329)"/><ellipse cx="-33.615" cy="274.6" fill="#d2cb7b" stroke="#b1963d" stroke-linecap="round" stroke-linejoin="round" stroke-miterlimit="5" stroke-width=".234" rx=".573" ry="1.448" transform="matrix(-.18405 -.53346 .5345 -.18305 -120.495 52.244)"/></g><path fill="#d5c9d9" stroke="#968191" stroke-linecap="round" stroke-linejoin="round" stroke-miterlimit="5" stroke-width=".198" d="M34.927 18.075c.074 1.588-1.955 3.428-2.41 4.393-.24-4.254 1.243-4.648 1.577-4.86-1.465.792-2.206 1.62-4.467 1.72 1.73-3.15 4.32-2.077 4.32-2.077-.555-.387-3.182-.7-4.001-.97 2.112-1.563 4.123.246 4.123.246-.673-.593-1.583-1.359-1.57-2.368 1.674.422 2.215 1.837 2.215 1.837s.651-.874.92-.717c.225.212.143 1.245.143 1.245s1.508-.543 2.403.192c-1.068.67-1.812.53-2.388.579 1.025.155 2.626 1.02 2.972 2.728-1.998-.408-3.266-2.128-3.346-2.142 0 0 1.846 1.267.74 4.176-1.364-1.887-1.23-3.982-1.23-3.982"/><path fill="#785725" stroke="#64491f" stroke-linecap="round" stroke-linejoin="round" stroke-miterlimit="5" stroke-width=".35" d="M-20.829 275.77c.508 1.546 5.462 1.782 6.494.022.369-4.8-6.786-4.616-6.494-.022" transform="matrix(.54664 .14431 -.14406 .54522 83.897 -130.52)"/><g stroke-width="1.771"><ellipse cx="-33.615" cy="274.6" fill="#d2cb7b" stroke="#b1963d" stroke-linecap="round" stroke-linejoin="round" stroke-miterlimit="5" stroke-width=".234" rx=".573" ry="1.448" transform="matrix(.54052 .16574 -.16555 .53909 98.191 -125.079)"/><ellipse cx="-33.615" cy="274.6" fill="#d2cb7b" stroke="#b1963d" stroke-linecap="round" stroke-linejoin="round" stroke-miterlimit="5" stroke-width=".234" rx=".573" ry="1.448" transform="matrix(-.44 -.35456 .35492 -.4386 -78.35 125.592)"/><ellipse cx="-33.615" cy="274.6" fill="#d2cb7b" stroke="#b1963d" stroke-linecap="round" stroke-linejoin="round" stroke-miterlimit="5" stroke-width=".234" rx=".573" ry="1.448" transform="matrix(-.30149 -.47741 .4782 -.30028 -108.158 83.03)"/><ellipse cx="-33.615" cy="274.6" fill="#d2cb7b" stroke="#b1963d" stroke-linecap="round" stroke-linejoin="round" stroke-miterlimit="5" stroke-width=".234" rx=".573" ry="1.448" transform="rotate(147.287 28.761 94.27)scale(.56465)skewY(.147)"/><ellipse cx="-33.615" cy="274.6" fill="#d2cb7b" stroke="#b1963d" stroke-linecap="round" stroke-linejoin="round" stroke-miterlimit="5" stroke-width=".234" rx=".573" ry="1.448" transform="matrix(-.56357 .04355 -.04425 -.5623 28.525 173.401)"/><ellipse cx="-33.615" cy="274.6" fill="#d2cb7b" stroke="#b1963d" stroke-linecap="round" stroke-linejoin="round" stroke-miterlimit="5" stroke-width=".234" rx=".573" ry="1.448" transform="matrix(.54565 -.14685 .14778 .54454 13.54 -137.575)"/><ellipse cx="-33.615" cy="274.6" fill="#d2cb7b" stroke="#b1963d" stroke-linecap="round" stroke-linejoin="round" stroke-miterlimit="5" stroke-width=".234" rx=".573" ry="1.448" transform="matrix(.41273 .38584 -.3863 .41136 153.793 -83.602)"/><ellipse cx="-33.615" cy="274.6" fill="#d2cb7b" stroke="#b1963d" stroke-linecap="round" stroke-linejoin="round" stroke-miterlimit="5" stroke-width=".234" rx=".573" ry="1.448" transform="matrix(.56211 .06045 -.06 .56074 70.432 -135.042)"/><ellipse cx="-33.615" cy="274.6" fill="#d2cb7b" stroke="#b1963d" stroke-linecap="round" stroke-linejoin="round" stroke-miterlimit="5" stroke-width=".234" rx=".573" ry="1.448" transform="matrix(.4932 .27614 -.27626 .49177 126.865 -109.013)"/><ellipse cx="-33.615" cy="274.6" fill="#d2cb7b" stroke="#b1963d" stroke-linecap="round" stroke-linejoin="round" stroke-miterlimit="5" stroke-width=".234" rx=".573" ry="1.448" transform="matrix(-.3414 .44917 -.45058 -.34108 148.59 125.328)"/><ellipse cx="-33.615" cy="274.6" fill="#d2cb7b" stroke="#b1963d" stroke-linecap="round" stroke-linejoin="round" stroke-miterlimit="5" stroke-width=".234" rx=".573" ry="1.448" transform="matrix(-.18405 -.53346 .5345 -.18305 -119.491 48.243)"/></g><path fill="#d5c9d9" stroke="#968191" stroke-linecap="round" stroke-linejoin="round" stroke-miterlimit="5" stroke-width=".198" d="M34.652 14.248c-.85 1.344.007 3.946-.075 5.01 2.31-3.581 1.216-4.656 1.03-5.006.882 1.413 1.119 2.498 3.035 3.702.05-3.593-2.731-3.94-2.731-3.94.674-.061 3.112.963 3.959 1.133-1.065-2.402-3.708-1.822-3.708-1.822.88-.183 2.048-.4 2.535-1.284-1.663-.459-2.833.504-2.833.504s-.135-1.081-.446-1.077c-.3.073-.739 1.012-.739 1.012s-1.043-1.217-2.185-1.02c.598 1.11 1.315 1.356 1.792 1.683-.97-.371-2.789-.41-3.933.905 1.939.631 3.89-.238 3.967-.21 0 0-2.23.19-2.706 3.266 2.118-.969 3.038-2.856 3.038-2.856z"/><path fill="#785725" stroke="#64491f" stroke-linecap="round" stroke-linejoin="round" stroke-miterlimit="5" stroke-width=".35" d="M-20.829 275.77c.508 1.546 5.462 1.782 6.494.022.369-4.8-6.786-4.616-6.494-.022" transform="matrix(-.54664 -.14431 -.14406 .54522 65.476 -139.145)"/><g stroke-width="1.771"><ellipse cx="-33.615" cy="274.6" fill="#d2cb7b" stroke="#b1963d" stroke-linecap="round" stroke-linejoin="round" stroke-miterlimit="5" stroke-width=".234" rx=".573" ry="1.448" transform="matrix(-.5519 -.12265 -.12235 .5505 50.357 -141.467)"/><ellipse cx="-33.615" cy="274.6" fill="#d2cb7b" stroke="#b1963d" stroke-linecap="round" stroke-linejoin="round" stroke-miterlimit="5" stroke-width=".234" rx=".573" ry="1.448" transform="matrix(.55778 -.09115 -.09196 -.55658 80.044 163.646)"/><ellipse cx="-33.615" cy="274.6" fill="#d2cb7b" stroke="#b1963d" stroke-linecap="round" stroke-linejoin="round" stroke-miterlimit="5" stroke-width=".234" rx=".573" ry="1.448" transform="matrix(.49801 -.26635 -.2675 -.49714 126.99 141.347)"/><ellipse cx="-33.615" cy="274.6" fill="#d2cb7b" stroke="#b1963d" stroke-linecap="round" stroke-linejoin="round" stroke-miterlimit="5" stroke-width=".234" rx=".573" ry="1.448" transform="matrix(.26367 .49917 .50005 -.26252 -94.477 101.912)"/><ellipse cx="-33.615" cy="274.6" fill="#d2cb7b" stroke="#b1963d" stroke-linecap="round" stroke-linejoin="round" stroke-miterlimit="5" stroke-width=".234" rx=".573" ry="1.448" transform="matrix(.46856 .31603 .31627 -.46713 -36.512 152.471)"/><ellipse cx="-33.615" cy="274.6" fill="#d2cb7b" stroke="#b1963d" stroke-linecap="round" stroke-linejoin="round" stroke-miterlimit="5" stroke-width=".234" rx=".573" ry="1.448" transform="matrix(-.40194 -.39701 -.39751 .40059 130.142 -110.553)"/><ellipse cx="-33.615" cy="274.6" fill="#d2cb7b" stroke="#b1963d" stroke-linecap="round" stroke-linejoin="round" stroke-miterlimit="5" stroke-width=".234" rx=".573" ry="1.448" transform="matrix(-.54951 .13181 .1327 .54837 -18.482 -132.843)"/><ellipse cx="-33.615" cy="274.6" fill="#d2cb7b" stroke="#b1963d" stroke-linecap="round" stroke-linejoin="round" stroke-miterlimit="5" stroke-width=".234" rx=".573" ry="1.448" transform="matrix(-.51867 -.22487 -.22484 .51723 79.418 -136.43)"/><ellipse cx="-33.615" cy="274.6" fill="#d2cb7b" stroke="#b1963d" stroke-linecap="round" stroke-linejoin="round" stroke-miterlimit="5" stroke-width=".234" rx=".573" ry="1.448" transform="matrix(-.5653 -.0033 -.0027 .56398 17.486 -141.649)"/><ellipse cx="-33.615" cy="274.6" fill="#d2cb7b" stroke="#b1963d" stroke-linecap="round" stroke-linejoin="round" stroke-miterlimit="5" stroke-width=".234" rx=".573" ry="1.448" transform="matrix(.07498 .55909 .56031 -.0742 -117.171 51.408)"/><ellipse cx="-33.615" cy="274.6" fill="#d2cb7b" stroke="#b1963d" stroke-linecap="round" stroke-linejoin="round" stroke-miterlimit="5" stroke-width=".234" rx=".573" ry="1.448" transform="matrix(.42357 -.37305 -.37437 -.42299 154.03 116.69)"/></g><path fill="#d5c9d9" stroke="#968191" stroke-linecap="round" stroke-linejoin="round" stroke-miterlimit="5" stroke-width=".198" d="M36.283 10.945c.06 1.27-1.565 2.742-1.929 3.514-.193-3.404.994-3.718 1.262-3.889-1.173.634-1.767 1.296-3.577 1.376 1.385-2.519 3.459-1.66 3.459-1.66-.445-.31-2.548-.56-3.204-.777 1.69-1.25 3.301.197 3.301.197-.539-.474-1.267-1.087-1.257-1.894 1.34.338 1.774 1.47 1.774 1.47s.521-.7.736-.574c.18.17.115.996.115.996s1.207-.434 1.924.154c-.855.536-1.45.423-1.912.463.821.124 2.103.817 2.38 2.183-1.6-.327-2.615-1.703-2.679-1.714 0 0 1.478 1.013.593 3.34-1.092-1.51-.986-3.185-.986-3.185z"/><path fill="#785725" stroke="#64491f" stroke-linecap="round" stroke-linejoin="round" stroke-miterlimit="5" stroke-width=".438" d="M-20.829 275.77c.508 1.546 5.462 1.782 6.494.022.369-4.8-6.786-4.616-6.494-.022" transform="matrix(.4377 .11555 -.11524 .43613 75.463 -107.921)"/><g stroke-width="2.213"><ellipse cx="-33.615" cy="274.6" fill="#d2cb7b" stroke="#b1963d" stroke-linecap="round" stroke-linejoin="round" stroke-miterlimit="5" stroke-width=".293" rx=".573" ry="1.448" transform="matrix(.4328 .1327 -.13245 .43122 86.954 -103.454)"/><ellipse cx="-33.615" cy="274.6" fill="#d2cb7b" stroke="#b1963d" stroke-linecap="round" stroke-linejoin="round" stroke-miterlimit="5" stroke-width=".293" rx=".573" ry="1.448" transform="rotate(219 -9.99 58.14)scale(.4524 .4514)skewY(-.16)"/><ellipse cx="-33.615" cy="274.6" fill="#d2cb7b" stroke="#b1963d" stroke-linecap="round" stroke-linejoin="round" stroke-miterlimit="5" stroke-width=".293" rx=".573" ry="1.448" transform="matrix(-.24148 -.38197 .38282 -.24012 -78.22 62.986)"/><ellipse cx="-33.615" cy="274.6" fill="#d2cb7b" stroke="#b1963d" stroke-linecap="round" stroke-linejoin="round" stroke-miterlimit="5" stroke-width=".293" rx=".573" ry="1.448" transform="matrix(-.38095 .24305 -.24442 -.38012 91.587 123.04)"/><ellipse cx="-33.615" cy="274.6" fill="#d2cb7b" stroke="#b1963d" stroke-linecap="round" stroke-linejoin="round" stroke-miterlimit="5" stroke-width=".293" rx=".573" ry="1.448" transform="matrix(-.45122 .03473 -.03554 -.44984 31.234 135.311)"/><ellipse cx="-33.615" cy="274.6" fill="#d2cb7b" stroke="#b1963d" stroke-linecap="round" stroke-linejoin="round" stroke-miterlimit="5" stroke-width=".293" rx=".573" ry="1.448" transform="matrix(.43685 -.11737 .11843 .43565 19.174 -113.467)"/><ellipse cx="-33.615" cy="274.6" fill="#d2cb7b" stroke="#b1963d" stroke-linecap="round" stroke-linejoin="round" stroke-miterlimit="5" stroke-width=".293" rx=".573" ry="1.448" transform="matrix(.33053 .30874 -.30921 .329 131.481 -70.263)"/><ellipse cx="-33.615" cy="274.6" fill="#d2cb7b" stroke="#b1963d" stroke-linecap="round" stroke-linejoin="round" stroke-miterlimit="5" stroke-width=".293" rx=".573" ry="1.448" transform="matrix(.45008 .04847 -.04792 .44857 64.727 -111.43)"/><ellipse cx="-33.615" cy="274.6" fill="#d2cb7b" stroke="#b1963d" stroke-linecap="round" stroke-linejoin="round" stroke-miterlimit="5" stroke-width=".293" rx=".573" ry="1.448" transform="matrix(.39495 .221 -.2211 .39335 109.916 -90.596)"/><ellipse cx="-33.615" cy="274.6" fill="#d2cb7b" stroke="#b1963d" stroke-linecap="round" stroke-linejoin="round" stroke-miterlimit="5" stroke-width=".293" rx=".573" ry="1.448" transform="matrix(-.27325 .35926 -.36083 -.27294 127.358 96.878)"/><ellipse cx="-33.615" cy="274.6" fill="#d2cb7b" stroke="#b1963d" stroke-linecap="round" stroke-linejoin="round" stroke-miterlimit="5" stroke-width=".293" rx=".573" ry="1.448" transform="matrix(-.14746 -.4268 .42793 -.14633 -87.302 35.156)"/></g><path fill="#d5c9d9" stroke="#968191" stroke-linecap="round" stroke-linejoin="round" stroke-miterlimit="5" stroke-width=".198" d="M36.029 7.485c-.346.047-1.833.219-2.285 2.22 2.25-.418 2.696-1.253 2.792-1.612-.089.298-.388 1.81.941 3.22.904-2.256-.2-2.909-.169-3.124.182.086.672 1.245 2.204 1.776-.143-1.84-1.833-2.246-1.833-2.246s.483.378 2.431.206c-.849-1.184-2.485-.774-2.485-.774s.836-.967.624-1.153c-.236-.145-1.171.56-1.171.56s-.065-.839-1.377-1.154c.064.747.221.909.579 1.398-1.546-.433-1.92-.145-2.78.384.97.398 1.854.431 2.529.299"/><path fill="#785725" stroke="#64491f" stroke-linecap="round" stroke-linejoin="round" stroke-miterlimit="5" stroke-width=".204" d="M53.237 208.25c.161.485 1.732.56 2.06.007.116-1.507-2.153-1.45-2.06-.007" transform="matrix(.94147 .24854 -.24767 .93732 37.291 -201.048)"/><path fill="#b3ca3b" stroke="#96aa2e" stroke-width=".157" d="M45.882 207.36c-.12.15-.143-.205-.33-.154-.185.05-.025.368-.205.3s.15-.2.045-.361c-.106-.161-.358.09-.349-.103.01-.192.237.082.357-.069.12-.15-.196-.313-.01-.363.186-.051-.004.25.176.318s.237-.283.343-.122c.105.161-.24.073-.249.266-.01.192.343.138.222.288z" transform="matrix(.81499 .21515 -.21482 .81299 43.567 -170.907)"/><g stroke-width="1.029" transform="matrix(.94147 .24854 -.24767 .93732 37.291 -201.048)"><use xlink:href="#b" transform="translate(.31 -.54)"/><use xlink:href="#b" transform="matrix(-.78548 .62097 -.61682 -.78548 224.91 337.52)"/><use xlink:href="#b" transform="matrix(.5916 .80894 -.80354 .5916 190.49 41.383)"/><use xlink:href="#b" transform="matrix(-.88879 -.45985 .45678 -.88879 7.478 417.57)"/><use xlink:href="#b" transform="matrix(-.52803 .85208 -.84639 -.52803 258.78 272.37)"/><use xlink:href="#b" transform="rotate(89.97 53.396 207.882)scale(1.0034 .99666)"/></g><path fill="#466f2d" stroke="#335021" stroke-width=".198" d="M32.05 29.035c-.083-1.82-5.097-5.926-4.871-8.1.921 1.036 4.893 3.456 4.871 8.1z"/><path fill="#466f2d" stroke="#335021" stroke-width=".198" d="M32.004 28.83c-1.137-.738-2.744-.608-5.37-1.65a20 20 0 0 1-3.088-1.57c1.657.687 8.004.509 8.458 3.22z"/><g fill="#466f2d" stroke="#335021" stroke-width=".198"><path d="M7.835 43.054c-1.105-.786-2.716-.725-5.296-1.878-.886-.395-1.147-.695-2.28-1.46 1.627.758 7.237.61 7.576 3.338zM7.922 44.052c.386-1.782 6.014-4.994 6.154-7.176-1.081.869-5.401 2.593-6.153 7.176z"/><path stroke-linecap="round" d="M14.42 55.694s-2.355-2.562-1.67-4.4c2.35 2.281 1.604 4.12 1.604 4.12 2.806-4.622 5.393-4.487 7.244-5.577-.965 1.654-3.366 3.734-3.989 3.987-.597.243-3.44 1.147-3.044 1.794 2.238-1.497 5.99 2.102 5.99 2.102-4.814-.134-6.136-2.026-6.136-2.026z"/></g><path fill="#374920" stroke="#2a3818" stroke-linecap="round" stroke-linejoin="round" stroke-miterlimit="5" stroke-width=".198" d="M4.224 23.056c2.713 10.572 3.243 32.746 15.43 35.416l-.057.536C6.775 57.248 5.945 31.421 4.223 23.055z"/><g fill="#466f2d" stroke="#335021" stroke-width=".198"><g stroke-linecap="round"><path d="M14.212 55.762c-1.55-1.62-3.03-1.78-6.704-2.254 2.152 1.988 6.452 2.22 6.452 2.22-2.947 1.891-2.34 2.994-2.392 3.53 1.466-.343 1.97-3.008 2.61-3.363-.804 2.063 1.938 3.445 1.938 3.445-1.212-3.353-1.069-2.439-1.904-3.578z"/><path d="M10.358 50.327s-1.575-3.709-3.618-3.758c.842 2.806 3.384 3.611 3.384 3.611-5.714-.112-7.35 7.478-9.047 8.77 1.887-.329 6.305-5.565 6.771-6.036.447-.452 1.83-3.414 2.385-2.482-2.217 1.505-.297 5.968-.297 5.968 1.675-4.303.422-6.073.422-6.073z"/><path d="M10.682 50s-2.005-3.457-.946-5.465c1.734 2.295 1.057 5.219 1.057 5.219 4.76-1.886 6.63-.335 8.646-.113-1.673.697-4.671.907-5.285.748-.589-.154-3.246-1.07-3.319-.364 2.542.134 3.306 4.93 3.306 4.93C10.593 52.156 10.68 50 10.68 50z"/></g><path d="M8.068 43.5c.31-.152 3.78 3.184 6.42 3.43-2.208-1.046-3.927-5.087-6.42-3.43zM7.913 43.27c.378 1.198-3.472 3.12-7.828 6.698 1.801-2.998 5.566-7.801 7.828-6.697z"/></g><path fill="#d5c9d9" stroke="#968191" stroke-linecap="round" stroke-linejoin="round" stroke-miterlimit="5" stroke-width=".198" d="M5.856 30.651c.528 1.5-.888 3.846-1.045 4.9-1.454-4.005-.147-4.808.113-5.108-1.176 1.18-1.648 2.186-3.785 2.932.753-3.514 3.542-3.231 3.542-3.231-.644-.211-3.25.244-4.112.221 1.574-2.104 4.02-.95 4.02-.95-.815-.374-1.906-.846-2.184-1.817 1.724-.076 2.65 1.124 2.65 1.124s.372-1.025.674-.952c.277.139.495 1.152.495 1.152s1.289-.954 2.357-.507c-.83.949-1.584 1.028-2.121 1.24 1.027-.145 2.809.223 3.631 1.759-2.03.184-3.74-1.099-3.82-1.09 0 0 2.131.683 1.908 3.788-1.848-1.416-2.323-3.46-2.323-3.46"/><path fill="#785725" stroke="#64491f" stroke-linecap="round" stroke-linejoin="round" stroke-miterlimit="5" stroke-width=".35" d="M-20.829 275.77c.508 1.546 5.462 1.782 6.494.022.369-4.8-6.786-4.616-6.494-.022" transform="matrix(.56505 -.0189 .01872 .56362 10.05 -125.75)"/><g stroke-width="1.771"><ellipse cx="-33.615" cy="274.6" fill="#d2cb7b" stroke="#b1963d" stroke-linecap="round" stroke-linejoin="round" stroke-miterlimit="5" stroke-width=".234" rx=".573" ry="1.448" transform="matrix(.56535 .0034 -.00362 .56393 25.305 -124.645)"/><ellipse cx="-33.615" cy="274.6" fill="#d2cb7b" stroke="#b1963d" stroke-linecap="round" stroke-linejoin="round" stroke-miterlimit="5" stroke-width=".234" rx=".573" ry="1.448" transform="matrix(-.52335 -.21313 .21388 -.52211 -71.74 166.19)"/><ellipse cx="-33.615" cy="274.6" fill="#d2cb7b" stroke="#b1963d" stroke-linecap="round" stroke-linejoin="round" stroke-miterlimit="5" stroke-width=".234" rx=".573" ry="1.448" transform="matrix(-.42598 -.37061 .37172 -.42505 -112.523 133.991)"/><ellipse cx="-33.615" cy="274.6" fill="#d2cb7b" stroke="#b1963d" stroke-linecap="round" stroke-linejoin="round" stroke-miterlimit="5" stroke-width=".234" rx=".573" ry="1.448" transform="rotate(130.73 22.857 98.16)scale(.56465)skewX(.147)"/><ellipse cx="-33.615" cy="274.6" fill="#d2cb7b" stroke="#b1963d" stroke-linecap="round" stroke-linejoin="round" stroke-miterlimit="5" stroke-width=".234" rx=".573" ry="1.448" transform="matrix(-.52727 .2037 -.204 -.52586 44.368 181.264)"/><ellipse cx="-33.615" cy="274.6" fill="#d2cb7b" stroke="#b1963d" stroke-linecap="round" stroke-linejoin="round" stroke-miterlimit="5" stroke-width=".234" rx=".573" ry="1.448" transform="matrix(.48042 -.29749 .29805 .47909 -59.366 -112.284)"/><ellipse cx="-33.615" cy="274.6" fill="#d2cb7b" stroke="#b1963d" stroke-linecap="round" stroke-linejoin="round" stroke-miterlimit="5" stroke-width=".234" rx=".573" ry="1.448" transform="matrix(.50621 .25093 -.25176 .50503 90.482 -100.9)"/><ellipse cx="-33.615" cy="274.6" fill="#d2cb7b" stroke="#b1963d" stroke-linecap="round" stroke-linejoin="round" stroke-miterlimit="5" stroke-width=".234" rx=".573" ry="1.448" transform="matrix(.55577 -.10366 .1037 .55433 -4.146 -126.21)"/><ellipse cx="-33.615" cy="274.6" fill="#d2cb7b" stroke="#b1963d" stroke-linecap="round" stroke-linejoin="round" stroke-miterlimit="5" stroke-width=".234" rx=".573" ry="1.448" transform="matrix(.55177 .12273 -.12326 .55042 57.387 -117.499)"/><ellipse cx="-33.615" cy="274.6" fill="#d2cb7b" stroke="#b1963d" stroke-linecap="round" stroke-linejoin="round" stroke-miterlimit="5" stroke-width=".234" rx=".573" ry="1.448" transform="matrix(-.19789 .52834 -.5296 -.19718 145.55 100.71)"/><ellipse cx="-33.615" cy="274.6" fill="#d2cb7b" stroke="#b1963d" stroke-linecap="round" stroke-linejoin="round" stroke-miterlimit="5" stroke-width=".234" rx=".573" ry="1.448" transform="matrix(-.3296 -.45805 .45934 -.32895 -133.376 103.93)"/></g><path fill="#d5c9d9" stroke="#968191" stroke-linecap="round" stroke-linejoin="round" stroke-miterlimit="5" stroke-width=".198" d="M4.492 27.065c-.427 1.531 1.141 3.777 1.368 4.82 1.185-4.094-.173-4.809-.452-5.09 1.251 1.099 1.79 2.07 3.971 2.673-.984-3.457-3.748-2.988-3.748-2.988.628-.254 3.258.027 4.117-.054-1.71-1.994-4.074-.679-4.074-.679.789-.428 1.846-.972 2.059-1.959-1.726.039-2.57 1.298-2.57 1.298s-.439-.997-.736-.904c-.267.156-.417 1.181-.417 1.181s-1.349-.865-2.385-.348c.891.891 1.648.92 2.199 1.097-1.035-.077-2.789.41-3.507 1.997 2.039.048 3.658-1.347 3.74-1.342 0 0-2.082.823-1.653 3.906 1.75-1.536 2.088-3.608 2.088-3.608z"/><path fill="#785725" stroke="#64491f" stroke-linecap="round" stroke-linejoin="round" stroke-miterlimit="5" stroke-width=".35" d="M-20.829 275.77c.508 1.546 5.462 1.782 6.494.022.369-4.8-6.786-4.616-6.494-.022" transform="matrix(-.56505 .0189 .01872 .56362 -10.072 -128.715)"/><g stroke-width="1.771"><ellipse cx="-33.615" cy="274.6" fill="#d2cb7b" stroke="#b1963d" stroke-linecap="round" stroke-linejoin="round" stroke-miterlimit="5" stroke-width=".234" rx=".573" ry="1.448" transform="matrix(-.56387 .04115 .04104 .56243 -25.22 -126.594)"/><ellipse cx="-33.615" cy="274.6" fill="#d2cb7b" stroke="#b1963d" stroke-linecap="round" stroke-linejoin="round" stroke-miterlimit="5" stroke-width=".234" rx=".573" ry="1.448" transform="matrix(.50804 -.24762 -.24805 -.50666 90.909 157.113)"/><ellipse cx="-33.615" cy="274.6" fill="#d2cb7b" stroke="#b1963d" stroke-linecap="round" stroke-linejoin="round" stroke-miterlimit="5" stroke-width=".234" rx=".573" ry="1.448" transform="matrix(.40045 -.39825 -.3991 -.39928 129.465 122.262)"/><ellipse cx="-33.615" cy="274.6" fill="#d2cb7b" stroke="#b1963d" stroke-linecap="round" stroke-linejoin="round" stroke-miterlimit="5" stroke-width=".234" rx=".573" ry="1.448" transform="matrix(.39601 .40232 .4035 -.39517 -93.991 148.144)"/><ellipse cx="-33.615" cy="274.6" fill="#d2cb7b" stroke="#b1963d" stroke-linecap="round" stroke-linejoin="round" stroke-miterlimit="5" stroke-width=".234" rx=".573" ry="1.448" transform="matrix(.53962 .16802 .16866 -.53832 -23.94 179.91)"/><ellipse cx="-33.615" cy="274.6" fill="#d2cb7b" stroke="#b1963d" stroke-linecap="round" stroke-linejoin="round" stroke-miterlimit="5" stroke-width=".234" rx=".573" ry="1.448" transform="matrix(-.4991 -.26474 -.2656 .49793 60.084 -119.916)"/><ellipse cx="-33.615" cy="274.6" fill="#d2cb7b" stroke="#b1963d" stroke-linecap="round" stroke-linejoin="round" stroke-miterlimit="5" stroke-width=".234" rx=".573" ry="1.448" transform="matrix(-.48844 .28419 .28472 .4871 -88.677 -98.547)"/><ellipse cx="-33.615" cy="274.6" fill="#d2cb7b" stroke="#b1963d" stroke-linecap="round" stroke-linejoin="round" stroke-miterlimit="5" stroke-width=".234" rx=".573" ry="1.448" transform="matrix(-.56142 -.0663 -.0667 .56002 4.062 -130.123)"/><ellipse cx="-33.615" cy="274.6" fill="#d2cb7b" stroke="#b1963d" stroke-linecap="round" stroke-linejoin="round" stroke-miterlimit="5" stroke-width=".234" rx=".573" ry="1.448" transform="matrix(-.5424 .15932 .1595 .54096 -56.757 -117.32)"/><ellipse cx="-33.615" cy="274.6" fill="#d2cb7b" stroke="#b1963d" stroke-linecap="round" stroke-linejoin="round" stroke-miterlimit="5" stroke-width=".234" rx=".573" ry="1.448" transform="matrix(.2325 .51395 .51534 -.23212 -130.244 106.294)"/><ellipse cx="-33.615" cy="274.6" fill="#d2cb7b" stroke="#b1963d" stroke-linecap="round" stroke-linejoin="round" stroke-miterlimit="5" stroke-width=".234" rx=".573" ry="1.448" transform="matrix(.29848 -.47906 -.48015 -.29754 148.277 90.873)"/></g><path fill="#d5c9d9" stroke="#968191" stroke-linecap="round" stroke-linejoin="round" stroke-miterlimit="5" stroke-width=".198" d="M5.105 23.432c.422 1.2-.71 3.076-.837 3.92-1.164-3.204-.117-3.846.09-4.087-.94.945-1.319 1.75-3.03 2.346.603-2.81 2.836-2.585 2.836-2.585-.515-.168-2.601.196-3.292.178 1.26-1.684 3.219-.76 3.219-.76-.653-.3-1.527-.678-1.749-1.454 1.38-.061 2.121.899 2.121.899s.299-.82.54-.761c.222.11.397.92.397.92s1.032-.762 1.887-.405c-.665.76-1.268.822-1.698.993.822-.117 2.25.178 2.907 1.406-1.626.147-2.994-.879-3.059-.871 0 0 1.707.546 1.528 3.03-1.48-1.133-1.86-2.769-1.86-2.769"/><path fill="#785725" stroke="#64491f" stroke-linecap="round" stroke-linejoin="round" stroke-miterlimit="5" stroke-width=".438" d="M-20.829 275.77c.508 1.546 5.462 1.782 6.494.022.369-4.8-6.786-4.616-6.494-.022" transform="matrix(.45245 -.01513 .01498 .45085 8.468 -101.68)"/><g stroke-width="2.213"><ellipse cx="-33.615" cy="274.6" fill="#d2cb7b" stroke="#b1963d" stroke-linecap="round" stroke-linejoin="round" stroke-miterlimit="5" stroke-width=".293" rx=".573" ry="1.448" transform="matrix(.45269 .0027 -.00292 .4511 20.758 -100.703)"/><ellipse cx="-33.615" cy="274.6" fill="#d2cb7b" stroke="#b1963d" stroke-linecap="round" stroke-linejoin="round" stroke-miterlimit="5" stroke-width=".293" rx=".573" ry="1.448" transform="matrix(-.41905 -.17047 .17127 -.41765 -56.954 131.939)"/><ellipse cx="-33.615" cy="274.6" fill="#d2cb7b" stroke="#b1963d" stroke-linecap="round" stroke-linejoin="round" stroke-miterlimit="5" stroke-width=".293" rx=".573" ry="1.448" transform="matrix(-.34108 -.29645 .29765 -.34002 -89.61 106.188)"/><ellipse cx="-33.615" cy="274.6" fill="#d2cb7b" stroke="#b1963d" stroke-linecap="round" stroke-linejoin="round" stroke-miterlimit="5" stroke-width=".293" rx=".573" ry="1.448" transform="matrix(-.29502 .34229 -.34336 -.29383 90.294 114.902)"/><ellipse cx="-33.615" cy="274.6" fill="#d2cb7b" stroke="#b1963d" stroke-linecap="round" stroke-linejoin="round" stroke-miterlimit="5" stroke-width=".293" rx=".573" ry="1.448" transform="matrix(-.4222 .16295 -.16334 -.42064 36.014 144.002)"/><ellipse cx="-33.615" cy="274.6" fill="#d2cb7b" stroke="#b1963d" stroke-linecap="round" stroke-linejoin="round" stroke-miterlimit="5" stroke-width=".293" rx=".573" ry="1.448" transform="matrix(.38468 -.23798 .23864 .38322 -47.04 -90.813)"/><ellipse cx="-33.615" cy="274.6" fill="#d2cb7b" stroke="#b1963d" stroke-linecap="round" stroke-linejoin="round" stroke-miterlimit="5" stroke-width=".293" rx=".573" ry="1.448" transform="matrix(.40533 .20071 -.2016 .404 72.946 -81.71)"/><ellipse cx="-33.615" cy="274.6" fill="#d2cb7b" stroke="#b1963d" stroke-linecap="round" stroke-linejoin="round" stroke-miterlimit="5" stroke-width=".293" rx=".573" ry="1.448" transform="matrix(.44502 -.08294 .08303 .44342 -2.824 -101.954)"/><ellipse cx="-33.615" cy="274.6" fill="#d2cb7b" stroke="#b1963d" stroke-linecap="round" stroke-linejoin="round" stroke-miterlimit="5" stroke-width=".293" rx=".573" ry="1.448" transform="matrix(.4418 .09816 -.0987 .4403 46.446 -94.988)"/><ellipse cx="-33.615" cy="274.6" fill="#d2cb7b" stroke="#b1963d" stroke-linecap="round" stroke-linejoin="round" stroke-miterlimit="5" stroke-width=".293" rx=".573" ry="1.448" transform="matrix(-.15846 .42264 -.42405 -.15771 117.036 79.563)"/><ellipse cx="-33.615" cy="274.6" fill="#d2cb7b" stroke="#b1963d" stroke-linecap="round" stroke-linejoin="round" stroke-miterlimit="5" stroke-width=".293" rx=".573" ry="1.448" transform="matrix(-.2639 -.3664 .36781 -.26315 -106.306 82.143)"/></g><path fill="#d5c9d9" stroke="#968191" stroke-linecap="round" stroke-linejoin="round" stroke-miterlimit="5" stroke-width=".198" d="M3.868 20.192c-.319.144-1.693.736-1.551 2.782 2.035-1.047 2.222-1.975 2.211-2.346 0 .311.148 1.845 1.827 2.814.217-2.421-1.027-2.729-1.06-2.944.2.03 1.001 1 2.622 1.067-.666-1.721-2.401-1.624-2.401-1.624s.57.224 2.387-.501c-1.154-.89-2.602-.027-2.602-.027s.522-1.166.266-1.284c-.268-.07-.962.873-.962.873s-.302-.784-1.65-.71c.276.698.473.807.957 1.174-1.606.029-1.881.412-2.553 1.166 1.043.103 1.9-.12 2.509-.44"/><path fill="#785725" stroke="#64491f" stroke-linecap="round" stroke-linejoin="round" stroke-miterlimit="5" stroke-width=".204" d="M53.237 208.25c.161.485 1.732.56 2.06.007.116-1.507-2.153-1.45-2.06-.007" transform="matrix(.97318 -.03254 .03219 .96896 -54.86 -179.905)"/><path fill="#b3ca3b" stroke="#96aa2e" stroke-width=".157" d="M45.882 207.36c-.12.15-.143-.205-.33-.154-.185.05-.025.368-.205.3s.15-.2.045-.361c-.106-.161-.358.09-.349-.103.01-.192.237.082.357-.069.12-.15-.196-.313-.01-.363.186-.051-.004.25.176.318s.237-.283.343-.122c.105.161-.24.073-.249.266-.01.192.343.138.222.288z" transform="matrix(.84244 -.02817 .02792 .84042 -40.186 -152.84)"/><g stroke-width="1.029" transform="matrix(.97318 -.03254 .03219 .96896 -54.86 -179.905)"><use xlink:href="#b" transform="translate(.31 -.54)"/><use xlink:href="#b" transform="matrix(-.78548 .62097 -.61682 -.78548 224.91 337.52)"/><use xlink:href="#b" transform="matrix(.5916 .80894 -.80354 .5916 190.49 41.383)"/><use xlink:href="#b" transform="matrix(-.88879 -.45985 .45678 -.88879 7.478 417.57)"/><use xlink:href="#b" transform="matrix(-.52803 .85208 -.84639 -.52803 258.78 272.37)"/><use xlink:href="#b" transform="rotate(89.97 53.396 207.882)scale(1.0034 .99666)"/></g><g fill="#466f2d" stroke="#335021" stroke-width=".198"><path d="M7.15 38.167c1.062.182 2.261-3.3 4.813-7.402-2.346 1.872-6.007 5.614-4.813 7.402zM6.91 38.283C6.21 36.824.848 35.298.265 33.437c1.083.511 5.04 1.04 6.645 4.846z"/><path d="M6.75 38.24c.21-.274 4.802 1.165 7.276.207-2.443.05-5.784-2.8-7.276-.206z"/><path d="M6.982 38.014c-1.002-.211-2.06.562-4.172.68-.725.042-1.574.005-2.587-.174 1.341-.047 5.622-2.797 6.76-.506z"/></g><g fill="#466f2d" stroke="#335021" stroke-width=".198"><path stroke-linecap="round" d="M19.143 52.78s.955-3.88-.625-5.51c-1.02 2.69.45 5.306.45 5.306-5.098-.475-6.458 1.538-8.332 2.316 1.802.2 4.739-.439 5.283-.764.522-.312 2.816-1.938 3.084-1.28-2.403.842-1.79 5.66-1.79 5.66 2.62-3.682 1.93-5.727 1.93-5.727z"/><path d="M19.403 20.949c.93.542 3.273-2.3 7.098-5.25-2.853.932-7.592 3.157-7.098 5.25zM18.874 28.809c-.931.542-3.273-2.3-7.098-5.25 2.853.932 7.591 3.157 7.098 5.25z"/><path stroke-linecap="round" d="M19.345 47.103s-1.623-3.078-.493-4.681c1.691 2.806.501 4.394.501 4.394 3.892-3.755 6.359-2.965 8.426-3.547-1.355 1.354-4.206 2.753-4.873 2.839-.64.082-3.618.232-3.4.958 2.545-.877 5.256 3.56 5.256 3.56-4.621-1.357-5.417-3.523-5.417-3.523z"/><path d="M19.166 21.106c-.197-1.812-5.458-5.596-5.368-7.78.984.976 5.1 3.143 5.368 7.78zM18.92 35.442c.198-1.812 5.459-5.596 5.37-7.78-.985.976-5.1 3.143-5.37 7.78zM19.009 40.502c1.18-.666 2.776-.437 5.463-1.313.922-.3 1.973-.732 3.18-1.374-1.697.583-8.02.009-8.643 2.687zM18.826 40.784c-.197-1.812-5.458-5.596-5.368-7.78.984.976 5.1 3.143 5.368 7.78z"/><path d="M18.73 34.46c-1.182-.666-2.777-.437-5.464-1.313-.922-.3-1.973-.732-3.18-1.374 1.698.583 8.02.009 8.643 2.687z"/></g><path fill="#374920" stroke="#2a3818" stroke-linecap="round" stroke-linejoin="round" stroke-miterlimit="5" stroke-width=".198" d="M19.98 8.323c-2.288 13.051-1.129 48.046-.231 51.111l.708-.145C18.4 49.52 19.26 17.874 19.98 8.323"/><g fill="#466f2d" stroke="#335021" stroke-width=".198"><path d="M18.906 40.913c-.294-.184-4.093 2.77-6.745 2.739 2.306-.81 4.439-4.648 6.745-2.74zM19.146 40.62c-.55 1.17 3.422 3.522 7.754 7.601-1.618-3.221-5.165-8.476-7.754-7.601zM19.008 34.878c.293-.184 4.092 2.77 6.745 2.738-2.307-.808-4.44-4.647-6.745-2.738z"/></g><g stroke-width=".876"><path fill="#d5c9d9" stroke="#968191" stroke-linecap="round" stroke-linejoin="round" stroke-miterlimit="5" stroke-width=".174" d="M44.979 217.43c-.358.178-1.902.913-1.655 3.248 2.28-1.281 2.454-2.351 2.427-2.776.014.356.245 2.105 2.202 3.146.147-2.78-1.286-3.081-1.332-3.326.23.026 1.184 1.103 3.037 1.114-.831-1.943-2.808-1.76-2.808-1.76s.661.232 2.704-.673c-1.354-.97-2.971.077-2.971.077s.548-1.356.25-1.48c-.308-.07-1.06 1.038-1.06 1.038s-.379-.885-1.914-.744c.344.787.573.904 1.14 1.303-1.831.1-2.13.55-2.865 1.44 1.195.075 2.164-.215 2.845-.607z" transform="rotate(4.508 2985.372 -287.7)scale(1.14274 1.14103)"/><path fill="#785725" stroke="#64491f" stroke-linecap="round" stroke-linejoin="round" stroke-miterlimit="5" stroke-width=".335" d="M-20.829 275.77c.508 1.546 5.462 1.782 6.494.022.369-4.8-6.786-4.616-6.494-.022" transform="rotate(-175.492 8.07 -73.914)scale(.5909 -.58947)"/><g stroke-width="1.694" transform="rotate(-175.492 8.07 -73.914)scale(.5909 -.58947)"><ellipse cx="-33.615" cy="274.6" fill="#d2cb7b" stroke="#b1963d" stroke-linecap="round" stroke-linejoin="round" stroke-miterlimit="5" stroke-width=".224" rx=".573" ry="1.448" transform="rotate(2.265 -58.919 681.957)"/><use xlink:href="#a" transform="rotate(201.87 -18.196 275.92)"/><use xlink:href="#a" transform="rotate(220.74 -18.931 276.02)"/><use xlink:href="#a" transform="rotate(130.3 -16.048 276.17)"/><use xlink:href="#a" transform="rotate(158.48 -16.848 276)"/><use xlink:href="#a" transform="rotate(-32.183 -19.024 272)"/><use xlink:href="#a" transform="rotate(26.076 -15.391 271.6)"/><use xlink:href="#a" transform="rotate(-10.937 -22.682 272.04)"/><use xlink:href="#a" transform="rotate(12.225 -12.961 272.98)"/><use xlink:href="#a" transform="rotate(110.12 -15.433 275.76)"/><use xlink:href="#a" transform="rotate(233.97 -19.319 275.55)"/></g><path fill="#d5c9d9" stroke="#968191" stroke-linecap="round" stroke-linejoin="round" stroke-miterlimit="5" stroke-width=".174" d="M46.813 214.76c.358.178 1.902.913 1.655 3.248-2.28-1.281-2.454-2.351-2.427-2.776-.014.356-.245 2.105-2.202 3.145-.147-2.78 1.286-3.08 1.332-3.325-.23.026-1.184 1.103-3.037 1.114.831-1.943 2.808-1.76 2.808-1.76s-.661.232-2.704-.673c1.354-.97 2.971.077 2.971.077s-.548-1.356-.25-1.48c.308-.07 1.06 1.038 1.06 1.038s.379-.885 1.914-.744c-.344.787-.573.904-1.14 1.303 1.831.1 2.13.55 2.865 1.44-1.195.075-2.164-.215-2.845-.607z" transform="rotate(4.508 2985.372 -287.7)scale(1.14274 1.14103)"/><path fill="#785725" stroke="#64491f" stroke-linecap="round" stroke-linejoin="round" stroke-miterlimit="5" stroke-width=".335" d="M-20.829 275.77c.508 1.546 5.462 1.782 6.494.022.369-4.8-6.786-4.616-6.494-.022" transform="rotate(4.508 1906.283 468.1)scale(.5909 .58947)"/><g stroke-width="1.694" transform="rotate(4.508 1906.283 468.1)scale(.5909 .58947)"><ellipse cx="-33.615" cy="274.6" fill="#d2cb7b" stroke="#b1963d" stroke-linecap="round" stroke-linejoin="round" stroke-miterlimit="5" stroke-width=".224" rx=".573" ry="1.448" transform="rotate(2.265 -58.919 681.957)"/><use xlink:href="#a" transform="rotate(201.87 -18.196 275.92)"/><use xlink:href="#a" transform="rotate(220.74 -18.931 276.02)"/><use xlink:href="#a" transform="rotate(130.3 -16.048 276.17)"/><use xlink:href="#a" transform="rotate(158.48 -16.848 276)"/><use xlink:href="#a" transform="rotate(-32.183 -19.024 272)"/><use xlink:href="#a" transform="rotate(26.076 -15.391 271.6)"/><use xlink:href="#a" transform="rotate(-10.937 -22.682 272.04)"/><use xlink:href="#a" transform="rotate(12.225 -12.961 272.98)"/><use xlink:href="#a" transform="rotate(110.12 -15.433 275.76)"/><use xlink:href="#a" transform="rotate(233.97 -19.319 275.55)"/></g><path fill="#d5c9d9" stroke="#968191" stroke-linecap="round" stroke-linejoin="round" stroke-miterlimit="5" stroke-width=".174" d="M44.762 211.68c-.358.178-1.902.913-1.655 3.248 2.28-1.281 2.454-2.351 2.427-2.776.014.356.245 2.105 2.202 3.146.147-2.78-1.286-3.081-1.332-3.326.23.026 1.184 1.103 3.037 1.114-.831-1.943-2.808-1.76-2.808-1.76s.661.232 2.704-.673c-1.354-.97-2.971.077-2.971.077s.548-1.356.25-1.48c-.308-.07-1.06 1.038-1.06 1.038s-.379-.885-1.914-.744c.344.787.573.904 1.14 1.303-1.831.1-2.13.55-2.865 1.44 1.195.075 2.164-.215 2.845-.607z" transform="rotate(4.508 2985.372 -287.7)scale(1.14274 1.14103)"/><path fill="#785725" stroke="#64491f" stroke-linecap="round" stroke-linejoin="round" stroke-miterlimit="5" stroke-width=".335" d="M-20.829 275.77c.508 1.546 5.462 1.782 6.494.022.369-4.8-6.786-4.616-6.494-.022" transform="rotate(-175.492 8.075 -77.197)scale(.5909 -.58947)"/><g stroke-width="1.694" transform="rotate(-175.492 8.075 -77.197)scale(.5909 -.58947)"><ellipse cx="-33.615" cy="274.6" fill="#d2cb7b" stroke="#b1963d" stroke-linecap="round" stroke-linejoin="round" stroke-miterlimit="5" stroke-width=".224" rx=".573" ry="1.448" transform="rotate(2.265 -58.919 681.957)"/><use xlink:href="#a" transform="rotate(201.87 -18.196 275.92)"/><use xlink:href="#a" transform="rotate(220.74 -18.931 276.02)"/><use xlink:href="#a" transform="rotate(130.3 -16.048 276.17)"/><use xlink:href="#a" transform="rotate(158.48 -16.848 276)"/><use xlink:href="#a" transform="rotate(-32.183 -19.024 272)"/><use xlink:href="#a" transform="rotate(26.076 -15.391 271.6)"/><use xlink:href="#a" transform="rotate(-10.937 -22.682 272.04)"/><use xlink:href="#a" transform="rotate(12.225 -12.961 272.98)"/><use xlink:href="#a" transform="rotate(110.12 -15.433 275.76)"/><use xlink:href="#a" transform="rotate(233.97 -19.319 275.55)"/></g><path fill="#d5c9d9" stroke="#968191" stroke-linecap="round" stroke-linejoin="round" stroke-miterlimit="5" stroke-width=".174" d="M46.087 209.3c.518 1.035-.289 2.859-.306 3.635-1.417-2.76-.546-3.46-.387-3.7-.74.96-.99 1.73-2.464 2.464.221-2.607 2.261-2.658 2.261-2.658-.483-.093-2.323.474-2.949.536.944-1.663 2.817-1.053 2.817-1.053-.624-.196-1.455-.437-1.744-1.113 1.238-.213 2.016.569 2.016.569s.175-.774.4-.749c.213.075.463.786.463.786s.843-.806 1.656-.582c-.513.762-1.05.888-1.418 1.09.728-.199 2.049-.096 2.784.938-1.45.32-2.802-.451-2.86-.437 0 0 1.603.298 1.726 2.56-1.464-.853-1.995-2.286-1.995-2.286" transform="rotate(4.508 2985.372 -287.7)scale(1.14274 1.14103)"/><path fill="#785725" stroke="#64491f" stroke-linecap="round" stroke-linejoin="round" stroke-miterlimit="5" stroke-width=".422" d="M-20.829 275.77c.508 1.546 5.462 1.782 6.494.022.369-4.8-6.786-4.616-6.494-.022" transform="rotate(4.508 1569.666 426.233)scale(.47034 .46845)"/><g stroke-width="2.13" transform="rotate(4.508 1569.666 426.233)scale(.47034 .46845)"><ellipse cx="-33.615" cy="274.6" fill="#d2cb7b" stroke="#b1963d" stroke-linecap="round" stroke-linejoin="round" stroke-miterlimit="5" stroke-width=".282" rx=".573" ry="1.448" transform="rotate(2.265 -58.919 681.957)"/><use xlink:href="#a" transform="rotate(201.87 -18.196 275.92)"/><use xlink:href="#a" transform="rotate(220.74 -18.931 276.02)"/><use xlink:href="#a" transform="rotate(130.3 -16.048 276.17)"/><use xlink:href="#a" transform="rotate(158.48 -16.848 276)"/><use xlink:href="#a" transform="rotate(-32.183 -19.024 272)"/><use xlink:href="#a" transform="rotate(26.076 -15.391 271.6)"/><use xlink:href="#a" transform="rotate(-10.937 -22.682 272.04)"/><use xlink:href="#a" transform="rotate(12.225 -12.961 272.98)"/><use xlink:href="#a" transform="rotate(110.12 -15.433 275.76)"/><use xlink:href="#a" transform="rotate(233.97 -19.319 275.55)"/></g><path fill="#d5c9d9" stroke="#968191" stroke-linecap="round" stroke-linejoin="round" stroke-miterlimit="5" stroke-width=".174" d="M46.496 206.72c.285.142 1.514.725 1.317 2.581-1.815-1.018-1.953-1.868-1.931-2.206-.011.283-.196 1.673-1.753 2.5-.117-2.21 1.023-2.448 1.06-2.643-.182.02-.943.877-2.417.885.662-1.544 2.235-1.398 2.235-1.398s-.526.184-2.153-.535c1.078-.772 2.366.061 2.366.061s-.437-1.078-.2-1.176c.246-.056.845.825.845.825s.3-.704 1.523-.591c-.274.625-.457.718-.908 1.035 1.458.08 1.696.437 2.28 1.145-.95.06-1.722-.171-2.264-.483z" transform="rotate(4.508 2985.372 -287.7)scale(1.14274 1.14103)"/><path fill="#785725" stroke="#64491f" stroke-linecap="round" stroke-linejoin="round" stroke-miterlimit="5" stroke-width=".196" d="M53.237 208.25c.161.485 1.732.56 2.06.007.116-1.507-2.153-1.45-2.06-.007" transform="rotate(4.508 2654.777 -333.859)scale(1.01166 1.00678)"/><path fill="#b3ca3b" stroke="#96aa2e" stroke-width=".151" d="M45.882 207.36c-.12.15-.143-.205-.33-.154-.185.05-.025.368-.205.3s.15-.2.045-.361c-.106-.161-.358.09-.349-.103.01-.192.237.082.357-.069.12-.15-.196-.313-.01-.363.186-.051-.004.25.176.318s.237-.283.343-.122c.105.161-.24.073-.249.266-.01.192.343.138.222.288z" transform="rotate(4.508 2284.31 -166.448)scale(.87576 .87323)"/><g stroke-width=".991" transform="rotate(4.508 2654.777 -333.859)scale(1.01166 1.00678)"><use xlink:href="#b" transform="translate(.31 -.54)"/><use xlink:href="#b" transform="matrix(-.78548 .62097 -.61682 -.78548 224.91 337.52)"/><use xlink:href="#b" transform="matrix(.5916 .80894 -.80354 .5916 190.49 41.383)"/><use xlink:href="#b" transform="matrix(-.88879 -.45985 .45678 -.88879 7.478 417.57)"/><use xlink:href="#b" transform="matrix(-.52803 .85208 -.84639 -.52803 258.78 272.37)"/><use xlink:href="#b" transform="rotate(89.97 53.396 207.882)scale(1.0034 .99666)"/></g><path fill="#aaab68" stroke="#79863f" stroke-linecap="round" stroke-linejoin="round" stroke-miterlimit="5" stroke-width=".173" d="M45.72 205.12c-.147.013-.037.829-.037.829.036.033.204.027.258-.002 0 0-.037-.803-.221-.827z" transform="rotate(4.508 2985.372 -287.7)scale(1.14274 1.14103)"/><g stroke-linecap="round" stroke-linejoin="round" stroke-miterlimit="5" stroke-width=".98"><path fill="#c5d791" stroke="#a4c024" d="M-20.628 95.543c.567 1.598.77 2.825 3.443 8.424l2.247-.379s2.183-3.996 4.298-10.565c-2.61 3.015-4.32 6.434-4.32 6.434.077-2.826-1.46-3.892-1.988-5.468-.288 1.728-1.292 2.508-1.041 5.324-.636-1.082-1.272-2.943-2.639-3.77z" transform="rotate(4.508 246.804 312.07)scale(.20224 .2017)"/><path fill="#aec767" stroke="#859c1d" d="M-23.237 96.398c4.724 4.994 4.584 6.6 5.415 7.302.996 1.353 2.09 1.707 3.312.127 1.915-2.479 1.35-5.314 2.7-7.564-2.294 1.8-1.98 4.724-1.844 5.444-.09-2.565-.99-3.51-.99-3.51-1.71 1.125-2.834 4.95-2.834 4.95s-.135-3.555-5.759-6.75z" transform="rotate(4.508 246.804 312.07)scale(.20224 .2017)"/></g></g><g fill="#466f2d" stroke="#335021" stroke-width=".198"><path d="M19.138 28.843c.197-1.812 5.458-5.596 5.368-7.78-.984.976-5.1 3.143-5.368 7.78z"/><path d="M19.275 28.738c-.293-.184-4.092 2.77-6.745 2.739 2.306-.81 4.439-4.648 6.745-2.74z"/><path d="M19.002 28.598c1.18-.666 2.776-.437 5.463-1.313.922-.3 1.973-.732 3.18-1.374-1.697.583-8.02.009-8.643 2.687zM19.226 21.265c.352-.091 3.466 3.857 6.21 4.598-2.158-1.45-3.314-5.764-6.21-4.598zM18.926 34.548c.502 1.151-3.126 3.465-7.083 7.48 1.477-3.17 4.718-8.341 7.083-7.48z"/><path stroke-linecap="round" d="M19.694 53.185s.472-4.001 2.42-4.622c-.022 2.93-2.237 4.416-2.237 4.416 5.454-1.71 9.153 5.116 11.144 5.88-1.904.214-7.613-3.574-8.193-3.895-.555-.308-2.714-2.763-2.985-1.713 2.55.823 1.959 5.645 1.959 5.645-2.814-3.66-2.108-5.711-2.108-5.711z"/><path d="M18.988 21.304c-.38-1.198-4.634-.556-10.255-.978 3.197 1.417 9.04 3.182 10.255.978z"/><path stroke-linecap="round" d="M19.127 47.116s-2.452-3.185-4.111-2.875c1.574 2.471 3.876 2.779 3.876 2.779-4.632.892-5.625 4.023-6.577 5.524 4.929-1.623 4.252-5.106 6.745-5.308-1.303 1.79 1.668 5.619 1.668 5.619-.028-4.306-1.601-5.74-1.601-5.74z"/></g><path fill="#d5c9d9" stroke="#968191" stroke-linecap="round" stroke-linejoin="round" stroke-miterlimit="5" stroke-width=".198" d="M23.468 32.637c.434 1.38-.923 3.471-1.098 4.426-1.2-3.688.013-4.379.257-4.644-1.103 1.038-1.563 1.939-3.527 2.553.79-3.174 3.315-2.832 3.315-2.832-.578-.211-2.959.124-3.742.076 1.493-1.866 3.681-.741 3.681-.741-.73-.366-1.706-.828-1.93-1.72 1.57-.016 2.374 1.103 2.374 1.103s.37-.92.642-.845c.247.135.415 1.062.415 1.062s1.2-.828 2.157-.39c-.783.839-1.47.888-1.965 1.065.938-.101 2.546.288 3.247 1.71-1.851.106-3.365-1.113-3.44-1.107 0 0 1.918.686 1.621 3.503-1.637-1.344-2.006-3.219-2.006-3.219z"/><path fill="#785725" stroke="#64491f" stroke-linecap="round" stroke-linejoin="round" stroke-miterlimit="5" stroke-width=".385" d="M-20.829 275.77c.508 1.546 5.462 1.782 6.494.022.369-4.8-6.786-4.616-6.494-.022" transform="matrix(.51403 0 0 .51324 32.008 -109.5)"/><g stroke-width="1.947"><ellipse cx="-33.615" cy="274.6" fill="#d2cb7b" stroke="#b1963d" stroke-linecap="round" stroke-linejoin="round" stroke-miterlimit="5" stroke-width=".258" rx=".573" ry="1.448" transform="matrix(.51363 .02028 -.02031 .51284 45.837 -108.031)"/><ellipse cx="-33.615" cy="274.6" fill="#d2cb7b" stroke="#b1963d" stroke-linecap="round" stroke-linejoin="round" stroke-miterlimit="5" stroke-width=".258" rx=".573" ry="1.448" transform="matrix(-.46913 -.20978 .2101 -.4684 -51.125 153.561)"/><ellipse cx="-33.615" cy="274.6" fill="#d2cb7b" stroke="#b1963d" stroke-linecap="round" stroke-linejoin="round" stroke-miterlimit="5" stroke-width=".258" rx=".573" ry="1.448" transform="matrix(-.3759 -.35007 .3506 -.37532 -87.212 123.033)"/><ellipse cx="-33.615" cy="274.6" fill="#d2cb7b" stroke="#b1963d" stroke-linecap="round" stroke-linejoin="round" stroke-miterlimit="5" stroke-width=".258" rx=".573" ry="1.448" transform="matrix(-.3477 .378 -.37858 -.34717 116.621 139.78)"/><ellipse cx="-33.615" cy="274.6" fill="#d2cb7b" stroke="#b1963d" stroke-linecap="round" stroke-linejoin="round" stroke-miterlimit="5" stroke-width=".258" rx=".573" ry="1.448" transform="matrix(-.48528 .16925 -.1695 -.48453 53.926 170.805)"/><ellipse cx="-33.615" cy="274.6" fill="#d2cb7b" stroke="#b1963d" stroke-linecap="round" stroke-linejoin="round" stroke-miterlimit="5" stroke-width=".258" rx=".573" ry="1.448" transform="matrix(.44553 -.25598 .25638 .44485 -31.476 -99.362)"/><ellipse cx="-33.615" cy="274.6" fill="#d2cb7b" stroke="#b1963d" stroke-linecap="round" stroke-linejoin="round" stroke-miterlimit="5" stroke-width=".258" rx=".573" ry="1.448" transform="matrix(.45242 .24364 -.24402 .45172 104.346 -84.45)"/><ellipse cx="-33.615" cy="274.6" fill="#d2cb7b" stroke="#b1963d" stroke-linecap="round" stroke-linejoin="round" stroke-miterlimit="5" stroke-width=".258" rx=".573" ry="1.448" transform="matrix(.50815 -.07739 .0775 .50737 19.123 -110.35)"/><ellipse cx="-33.615" cy="274.6" fill="#d2cb7b" stroke="#b1963d" stroke-linecap="round" stroke-linejoin="round" stroke-miterlimit="5" stroke-width=".258" rx=".573" ry="1.448" transform="matrix(.49768 .12842 -.12862 .49691 74.774 -100.555)"/><ellipse cx="-33.615" cy="274.6" fill="#d2cb7b" stroke="#b1963d" stroke-linecap="round" stroke-linejoin="round" stroke-miterlimit="5" stroke-width=".258" rx=".573" ry="1.448" transform="matrix(-.19576 .47456 -.4753 -.19546 148.3 100.61)"/><ellipse cx="-33.615" cy="274.6" fill="#d2cb7b" stroke="#b1963d" stroke-linecap="round" stroke-linejoin="round" stroke-miterlimit="5" stroke-width=".258" rx=".573" ry="1.448" transform="matrix(-.28568 -.42667 .42733 -.28525 -105.254 95.055)"/></g><path fill="#d5c9d9" stroke="#968191" stroke-linecap="round" stroke-linejoin="round" stroke-miterlimit="5" stroke-width=".198" d="M22.628 31.497c-.434 1.38.923 3.471 1.098 4.426 1.2-3.688-.012-4.379-.257-4.644 1.104 1.038 1.564 1.939 3.528 2.553C26.207 30.658 23.68 31 23.68 31c.578-.211 2.96.124 3.743.076-1.493-1.866-3.682-.741-3.682-.741.73-.366 1.707-.828 1.93-1.72-1.569-.016-2.374 1.103-2.374 1.103s-.369-.92-.642-.845c-.247.135-.414 1.062-.414 1.062s-1.2-.828-2.157-.39c.783.839 1.47.888 1.965 1.065-.938-.101-2.546.288-3.247 1.71 1.85.106 3.365-1.113 3.439-1.107 0 0-1.917.686-1.62 3.503 1.636-1.344 2.006-3.219 2.006-3.219z"/><path fill="#785725" stroke="#64491f" stroke-linecap="round" stroke-linejoin="round" stroke-miterlimit="5" stroke-width=".385" d="M-20.829 275.77c.508 1.546 5.462 1.782 6.494.022.369-4.8-6.786-4.616-6.494-.022" transform="matrix(-.51403 0 0 .51324 14.098 -110.636)"/><g stroke-width="1.947"><ellipse cx="-33.615" cy="274.6" fill="#d2cb7b" stroke="#b1963d" stroke-linecap="round" stroke-linejoin="round" stroke-miterlimit="5" stroke-width=".258" rx=".573" ry="1.448" transform="matrix(-.51363 .02028 .02031 .51284 .27 -109.167)"/><ellipse cx="-33.615" cy="274.6" fill="#d2cb7b" stroke="#b1963d" stroke-linecap="round" stroke-linejoin="round" stroke-miterlimit="5" stroke-width=".258" rx=".573" ry="1.448" transform="matrix(.46913 -.20978 -.2101 -.4684 97.232 152.425)"/><ellipse cx="-33.615" cy="274.6" fill="#d2cb7b" stroke="#b1963d" stroke-linecap="round" stroke-linejoin="round" stroke-miterlimit="5" stroke-width=".258" rx=".573" ry="1.448" transform="matrix(.3759 -.35007 -.3506 -.37532 133.319 121.897)"/><ellipse cx="-33.615" cy="274.6" fill="#d2cb7b" stroke="#b1963d" stroke-linecap="round" stroke-linejoin="round" stroke-miterlimit="5" stroke-width=".258" rx=".573" ry="1.448" transform="matrix(.3477 .378 .37858 -.34717 -70.515 138.643)"/><ellipse cx="-33.615" cy="274.6" fill="#d2cb7b" stroke="#b1963d" stroke-linecap="round" stroke-linejoin="round" stroke-miterlimit="5" stroke-width=".258" rx=".573" ry="1.448" transform="matrix(.48528 .16925 .1695 -.48453 -7.82 169.669)"/><ellipse cx="-33.615" cy="274.6" fill="#d2cb7b" stroke="#b1963d" stroke-linecap="round" stroke-linejoin="round" stroke-miterlimit="5" stroke-width=".258" rx=".573" ry="1.448" transform="matrix(-.44553 -.25598 -.25638 .44485 77.582 -100.498)"/><ellipse cx="-33.615" cy="274.6" fill="#d2cb7b" stroke="#b1963d" stroke-linecap="round" stroke-linejoin="round" stroke-miterlimit="5" stroke-width=".258" rx=".573" ry="1.448" transform="matrix(-.45242 .24364 .24402 .45172 -58.24 -85.586)"/><ellipse cx="-33.615" cy="274.6" fill="#d2cb7b" stroke="#b1963d" stroke-linecap="round" stroke-linejoin="round" stroke-miterlimit="5" stroke-width=".258" rx=".573" ry="1.448" transform="matrix(-.50815 -.07739 -.0775 .50737 26.984 -111.486)"/><ellipse cx="-33.615" cy="274.6" fill="#d2cb7b" stroke="#b1963d" stroke-linecap="round" stroke-linejoin="round" stroke-miterlimit="5" stroke-width=".258" rx=".573" ry="1.448" transform="matrix(-.49768 .12842 .12862 .49691 -28.668 -101.691)"/><ellipse cx="-33.615" cy="274.6" fill="#d2cb7b" stroke="#b1963d" stroke-linecap="round" stroke-linejoin="round" stroke-miterlimit="5" stroke-width=".258" rx=".573" ry="1.448" transform="matrix(.19576 .47456 .4753 -.19546 -102.194 99.474)"/><ellipse cx="-33.615" cy="274.6" fill="#d2cb7b" stroke="#b1963d" stroke-linecap="round" stroke-linejoin="round" stroke-miterlimit="5" stroke-width=".258" rx=".573" ry="1.448" transform="matrix(.28568 -.42667 -.42733 -.28525 151.36 93.919)"/></g><path fill="#d5c9d9" stroke="#968191" stroke-linecap="round" stroke-linejoin="round" stroke-miterlimit="5" stroke-width=".198" d="M23.438 30.217c.348 1.104-.739 2.777-.879 3.54-.96-2.95.01-3.502.206-3.714-.884.83-1.252 1.55-2.825 2.042.633-2.539 2.655-2.265 2.655-2.265-.463-.17-2.37.098-2.997.06 1.196-1.492 2.948-.592 2.948-.592-.584-.293-1.366-.663-1.545-1.376 1.256-.013 1.9.882 1.9.882s.296-.736.515-.676c.198.108.332.85.332.85s.96-.663 1.727-.312c-.627.67-1.177.71-1.573.852.75-.081 2.038.23 2.6 1.367-1.483.085-2.695-.89-2.754-.885 0 0 1.535.548 1.297 2.802-1.31-1.075-1.607-2.575-1.607-2.575z"/><path fill="#785725" stroke="#64491f" stroke-linecap="round" stroke-linejoin="round" stroke-miterlimit="5" stroke-width=".481" d="M-20.829 275.77c.508 1.546 5.462 1.782 6.494.022.369-4.8-6.786-4.616-6.494-.022" transform="matrix(.41159 0 0 .41055 30.268 -83.483)"/><g stroke-width="2.433"><ellipse cx="-33.615" cy="274.6" fill="#d2cb7b" stroke="#b1963d" stroke-linecap="round" stroke-linejoin="round" stroke-miterlimit="5" stroke-width=".322" rx=".573" ry="1.448" transform="matrix(.41127 .01622 -.01627 .41023 41.407 -82.221)"/><ellipse cx="-33.615" cy="274.6" fill="#d2cb7b" stroke="#b1963d" stroke-linecap="round" stroke-linejoin="round" stroke-miterlimit="5" stroke-width=".322" rx=".573" ry="1.448" transform="matrix(-.37564 -.1678 .16823 -.37469 -36.231 127.027)"/><ellipse cx="-33.615" cy="274.6" fill="#d2cb7b" stroke="#b1963d" stroke-linecap="round" stroke-linejoin="round" stroke-miterlimit="5" stroke-width=".322" rx=".573" ry="1.448" transform="matrix(-.30099 -.28003 .28073 -.30023 -65.127 102.61)"/><ellipse cx="-33.615" cy="274.6" fill="#d2cb7b" stroke="#b1963d" stroke-linecap="round" stroke-linejoin="round" stroke-miterlimit="5" stroke-width=".322" rx=".573" ry="1.448" transform="matrix(-.27842 .30237 -.30314 -.27771 98.085 116.008)"/><ellipse cx="-33.615" cy="274.6" fill="#d2cb7b" stroke="#b1963d" stroke-linecap="round" stroke-linejoin="round" stroke-miterlimit="5" stroke-width=".322" rx=".573" ry="1.448" transform="matrix(-.38857 .13538 -.13573 -.38759 47.884 140.827)"/><ellipse cx="-33.615" cy="274.6" fill="#d2cb7b" stroke="#b1963d" stroke-linecap="round" stroke-linejoin="round" stroke-miterlimit="5" stroke-width=".322" rx=".573" ry="1.448" transform="matrix(.35674 -.20477 .20529 .35584 -20.499 -75.287)"/><ellipse cx="-33.615" cy="274.6" fill="#d2cb7b" stroke="#b1963d" stroke-linecap="round" stroke-linejoin="round" stroke-miterlimit="5" stroke-width=".322" rx=".573" ry="1.448" transform="matrix(.36226 .1949 -.19539 .36134 88.256 -63.358)"/><ellipse cx="-33.615" cy="274.6" fill="#d2cb7b" stroke="#b1963d" stroke-linecap="round" stroke-linejoin="round" stroke-miterlimit="5" stroke-width=".322" rx=".573" ry="1.448" transform="matrix(.40688 -.0619 .06206 .40586 20.016 -84.076)"/><ellipse cx="-33.615" cy="274.6" fill="#d2cb7b" stroke="#b1963d" stroke-linecap="round" stroke-linejoin="round" stroke-miterlimit="5" stroke-width=".322" rx=".573" ry="1.448" transform="matrix(.3985 .10272 -.10298 .3975 64.577 -76.241)"/><ellipse cx="-33.615" cy="274.6" fill="#d2cb7b" stroke="#b1963d" stroke-linecap="round" stroke-linejoin="round" stroke-miterlimit="5" stroke-width=".322" rx=".573" ry="1.448" transform="matrix(-.15675 .37961 -.38057 -.15636 123.452 84.677)"/><ellipse cx="-33.615" cy="274.6" fill="#d2cb7b" stroke="#b1963d" stroke-linecap="round" stroke-linejoin="round" stroke-miterlimit="5" stroke-width=".322" rx=".573" ry="1.448" transform="matrix(-.22875 -.3413 .34217 -.22817 -79.574 80.23)"/></g><path fill="#d5c9d9" stroke="#968191" stroke-linecap="round" stroke-linejoin="round" stroke-miterlimit="5" stroke-width=".198" d="M22.278 28.557c-.284.142-1.514.726-1.317 2.582 1.815-1.019 1.954-1.869 1.932-2.206.01.283.195 1.673 1.753 2.5.117-2.21-1.024-2.45-1.06-2.644.182.021.942.877 2.417.885-.662-1.544-2.236-1.398-2.236-1.398s.527.184 2.153-.535c-1.078-.771-2.365.061-2.365.061s.436-1.077.199-1.176c-.246-.056-.844.825-.844.825s-.301-.703-1.523-.591c.273.625.456.718.907 1.036-1.457.079-1.695.437-2.28 1.144.95.06 1.722-.171 2.264-.483z"/><g stroke-width="1.131" transform="matrix(.8853 0 0 .88234 -25.002 -155.295)"><path fill="#785725" stroke="#64491f" stroke-linecap="round" stroke-linejoin="round" stroke-miterlimit="5" stroke-width=".224" d="M53.237 208.25c.161.485 1.732.56 2.06.007.116-1.507-2.153-1.45-2.06-.007"/><path fill="#b3ca3b" stroke="#96aa2e" stroke-width=".173" d="M45.882 207.36c-.12.15-.143-.205-.33-.154-.185.05-.025.368-.205.3s.15-.2.045-.361c-.106-.161-.358.09-.349-.103.01-.192.237.082.357-.069.12-.15-.196-.313-.01-.363.186-.051-.004.25.176.318s.237-.283.343-.122c.105.161-.24.073-.249.266-.01.192.343.138.222.288z" transform="matrix(.86566 0 0 .86735 14.139 28.407)"/><use xlink:href="#b" transform="translate(.31 -.54)"/><use xlink:href="#b" transform="matrix(-.78548 .62097 -.61682 -.78548 224.91 337.52)"/><use xlink:href="#b" transform="matrix(.5916 .80894 -.80354 .5916 190.49 41.383)"/><use xlink:href="#b" transform="matrix(-.88879 -.45985 .45678 -.88879 7.478 417.57)"/><use xlink:href="#b" transform="matrix(-.52803 .85208 -.84639 -.52803 258.78 272.37)"/><use xlink:href="#b" transform="rotate(89.97 53.396 207.882)scale(1.0034 .99666)"/></g></svg>