<svg xmlns="http://www.w3.org/2000/svg" xml:space="preserve" width="99.715" height="149.741" viewBox="0 0 26.383 39.618"><g stroke-width="1.13"><g fill="#345d1f"><path d="M18.288 22.379c1.861.054 3.34-2.452 4.395-3.806-.378.364-4.598 1.118-4.395 3.806M15.45 38.73c-2.132.267-2.494-2.131-3.369-2.976-2.212-2.137-1.767-2.828-2.74-4.504.514.703 7.206 3.137 6.11 7.479M18.106 25.83s.771-1.395 2.193-1.967c.471-.19 1.48.163 3.807-.229-.442-.717-1.512-1.528-2.884-1.467-.521.023-3.079 1.635-3.116 3.664M11.828 24.978c.437.071 2.096-.678 3.293.49 2.068-.12 1.862 1.522 2.8 2.698-2.115-.017-4.065-2.604-6.093-3.188M16.583 35.337c-1.81.272-1.382-1.175-1.837-1.646-1.152-1.194-.583-1.638-.868-2.613.205.403 4.902 1.552 2.705 4.26M22.336 31.133c2.699.484-1.568 1.344-2.451.243-.764-.607-2.322 1.369-2.593 1.306-.734-.845 1.592-5.674 5.044-1.55"/></g><g fill="#29281c"><path d="M18.822 6.039c-.08 2.036-.534 31.65-4.33 33.52 3.762 1.5 4.983-32.913 4.33-33.52"/><path d="M18.81 7.555s.694-2.425-.905-1.508c1.372-.648.702 1.216.904 1.508"/><path d="M18.792 8.042s-.347-2.45 1.048-1.412c-1.149-.752-.89 1.313-1.048 1.412"/></g><path fill="#9078c0" d="M16.554 6.352s.914-.422 1.1-.268c1.212-.569.64.12.192.315-.11.311-1.096.72-1.13.722a.44.44 0 0 1-.162-.77"/><path fill="#d2d2d8" d="M16.087 6.469c-.138.199-.538-.012-.576.204-.047.26.325.301.325.301s-.064.139-.002.203c.42-.037.713.248.883-.033z"/><path fill="#ebe6b1" d="M16.172 6.552s.102.064.117.147c-.064.045-.488.053-.117-.147"/><path fill="#d2d2d8" d="M16.718 7.202c-.12-.258-.748-.688-.73-.854.007-.062.316-.376.386-.012.373-.1.066.27.116.399.063.161.228.467.228.467"/><path fill="#29281c" d="M18.78 10.117s.159-2.469 1.313-1.168c-.971-.97-1.138 1.104-1.313 1.168"/><path fill="#9078c0" d="M21.23 9.62s-.725-.66-.943-.571c-.958-.884-.629-.075-.27.238.01.323.806.992.837 1.004.241.034.6-.272.376-.671"/><path fill="#d2d2d8" d="M21.63 9.865c.069.226.502.145.474.359-.033.256-.39.186-.39.186s.02.148-.058.19c-.378-.157-.734.024-.81-.288z"/><path fill="#ebe6b1" d="M21.526 9.918s-.113.03-.152.103c.046.06.437.19.152-.103"/><path fill="#d2d2d8" d="M20.848 10.37c.187-.206.896-.424.928-.585.012-.06-.183-.443-.355-.124-.317-.201-.14.233-.225.34-.105.132-.348.369-.348.369"/><path fill="#29281c" d="M18.696 14.302s-.157-2.469 1.154-1.326c-1.088-.839-.988 1.24-1.154 1.326"/><path fill="#9078c0" d="M21.441 13.67s-.983-.69-1.235-.547c-1.302-.927-.775.007-.29.332.063.392 1.135 1.082 1.175 1.092.297.004.686-.425.35-.876"/><path fill="#d2d2d8" d="M21.966 13.907c.12.264.633.099.633.363 0 .317-.445.288-.445.288s.046.177-.04.24c-.485-.131-.89.145-1.03-.224z"/><path fill="#ebe6b1" d="M21.848 13.988s-.133.054-.168.15c.065.066.56.164.168-.15"/><path fill="#d2d2d8" d="M21.179 14.607c.195-.28 1.022-.657 1.036-.858.005-.074-.292-.51-.45-.095-.418-.196-.135.305-.221.448-.107.178-.366.505-.366.505"/><path fill="#9078c0" d="M20.644 6.285c-.603-.219-.863.121-1.157.163.283.194.617.484.93.584.619.2 1.159-.097 1.227.12.06-.065.06-.167-.068-.217.08-.086.16-.343-.046-.377.099.41-.448-.114-.886-.273"/><path fill="#29281c" d="M18.661 15.108s-.112-2.47-1.29-1.193c.99-.952 1.116 1.126 1.29 1.193"/><path fill="#9078c0" d="M16.243 13.729c.701-.424 1.11-.045 1.488-.059-.306.317-.653.77-1.02.974-.724.402-1.473.144-1.505.44-.092-.069-.117-.201.032-.296-.12-.092-.284-.407-.036-.5-.022.554.533-.252 1.042-.56"/><path fill="#29281c" d="M18.705 11.936s.818-2.334 1.579-.77c-.674-1.197-1.393.756-1.58.77"/><path fill="#9078c0" d="M21.285 11.267c-.5-.551-.953-.329-1.28-.44.184.356.368.84.633 1.112.526.54 1.244.512 1.195.777.097-.036.154-.144.049-.265.13-.05.354-.28.162-.425-.126.487-.398-.358-.76-.759"/><path fill="#29281c" d="M18.47 16.733s.354-2.448 1.401-1.059c-.891-1.045-1.222 1.01-1.402 1.06"/><path fill="#9078c0" d="M21.076 15.612c-.683-.513-1.145-.16-1.536-.214.285.36.598.868.957 1.117.71.492 1.513.302 1.516.613.102-.062.142-.198-.003-.31.134-.085.336-.395.088-.517-.034.578-.527-.317-1.022-.689"/><path fill="#29281c" d="M18.696 12.085s.261-2.46-1.097-1.373c1.122-.792.935 1.28 1.097 1.373"/><path fill="#9078c0" d="M15.968 11.374s1.012-.649 1.258-.495c1.34-.871.774.04.277.345-.08.389-1.18 1.033-1.221 1.041-.298-.009-.668-.454-.314-.891"/><path fill="#d2d2d8" d="M15.434 11.588c-.13.259-.637.071-.648.335-.013.318.433.308.433.308s-.054.175.03.242c.49-.111.882.182 1.038-.18z"/><path fill="#ebe6b1" d="M15.549 11.673s.13.06.161.157c-.068.064-.568.14-.161-.157"/><path fill="#d2d2d8" d="M16.265 12.34c-.184-.29-.995-.702-1-.903-.002-.075.314-.498.455-.076.425-.178.121.311.2.458.1.182.345.52.345.52"/><path fill="#9078c0" d="M19.61 14.233s-.15-1.395-.556-1.44c-.17-1.104-.582-.668-.36.061-.395.312-.105 1.257-.097 1.689z"/><path fill="#d2d2d8" d="M19.71 14.658c.164.155.14.831.048.802-.075.015-.251-.395-.249-.443.134.759-.522.396-.424.021-.186.218-.11.475-.182.49-.207.026-.387-.608-.323-.982l.637-.124z"/><path fill="#ebe6b1" d="M19.502 14.531s-.252.01-.362.006c-.034.563.38.933.362-.006"/><path fill="#d2d2d8" d="M19.363 14.257c-.349-.187-.784.29-.784.29.021.158.494.035.724 0 0 0 .522.238.653.132.141-.276-.431-.58-.593-.422"/><path fill="#9078c0" d="M18.029 9.317s.219-1.06.53-1.064c.21-.835.49-.47.267.074.275.27-.016.974-.054 1.305z"/><path fill="#d2d2d8" d="M17.921 9.636c-.136.107-.169.628-.097.613.056.017.22-.285.222-.322-.159.573.365.344.319.048.125.182.047.374.1.39.156.036.339-.437.319-.73l-.472-.143z"/><path fill="#ebe6b1" d="M18.088 9.555s.19.026.273.031c-.017.435-.358.689-.273-.031"/><path fill="#d2d2d8" d="M18.213 9.354c.279-.117.572.283.572.283-.028.12-.377-.01-.548-.055 0 0-.413.143-.503.051-.087-.222.37-.412.48-.279"/><path fill="#345d1f" stroke-width="2.45" d="M14.848 39.463c.547-.296 1.782-2.189 4.09-2.263 2.212-1.745 3.342-.339 5.366-.199-2.38 1.678-6.704 1.282-9.456 2.462"/><g fill="#345d1f"><path d="M16.704 35.172c-1.745.001-1.823 1.412-.103 2.019.817.288 1.612.898 2.028 1.539 1.694-2.7-.563-6.488-1.926-3.558M17.189 33.223s-.923-1.533-2.548-2.125c-.54-.197-1.665.231-4.307-.129.473-.816 1.651-1.757 3.202-1.734.59.008 3.536 1.723 3.653 3.988M16.875 27.968c1.643.6 1.945-.628 1.945-.628.836.97.406 1.792 1.263 4.2-.653-1.316-3.536-2.302-3.208-3.572M17.922 25.861c-1.5.501-2.108-1.176-2.86-1.659-1.906-1.222-1.684-1.785-2.628-2.853.473.433 5.654 1.222 5.488 4.512M18.251 22.549c-1.853-.185-3-2.86-3.872-4.336.327.409 4.417 1.697 3.872 4.336"/></g><path fill="#9078c0" d="M17.231 17.461s.504-1.309.907-1.248c.447-1.023.734-.496.332.152.302.403-.221 1.241-.34 1.657z"/><path fill="#d2d2d8" d="M17.025 17.847c-.198.107-.348.767-.252.763.07.033.344-.318.355-.365-.325.7.402.517.404.13.124.258-.016.487.05.52.194.079.53-.488.564-.865l-.584-.284z"/><path fill="#ebe6b1" d="M17.26 17.778s.24.074.348.098c-.113.553-.608.805-.349-.098"/><path fill="#d2d2d8" d="M17.463 17.548c.386-.09.684.483.684.483-.06.147-.487-.094-.7-.187 0 0-.565.095-.664-.04-.066-.304.565-.45.68-.256"/><g fill="#345d1f"><path d="M15.77 19.773c1.86-.072 3.166-2.672 4.127-4.094-.352.389-4.512 1.427-4.127 4.094M14.044 36.278c-2.11.412-2.633-1.957-3.562-2.74-2.352-1.983-1.955-2.703-3.039-4.31.56.667 7.402 2.643 6.6 7.05M15.821 23.23s.676-1.445 2.055-2.112c.458-.222 1.488.062 3.783-.486-.49-.685-1.612-1.422-2.976-1.268-.519.058-2.962 1.839-2.862 3.866M9.5 22.804c.441.04 2.046-.819 3.32.266 2.054-.26 1.96 1.392 2.974 2.502-2.11.126-4.231-2.323-6.293-2.768M14.945 32.817c-1.788.393-1.459-1.079-1.945-1.518-1.23-1.113-.692-1.595-1.042-2.548.232.388 4.996 1.216 2.987 4.066M20.4 28.233c2.726.301-1.473 1.448-2.429.409-.803-.554-2.224 1.522-2.499 1.478-.789-.793 1.206-5.769 4.928-1.887"/></g><g fill="#29281c"><path d="M15.197 3.435c.058 2.037 1.608 31.613-2.052 33.736 3.854 1.241 2.745-33.175 2.052-33.736"/><path d="M15.287 4.948s.53-2.467-1.004-1.443c1.325-.74.783 1.166 1.004 1.443"/><path d="M15.303 5.435s-.511-2.42.95-1.479c-1.197-.673-.798 1.37-.95 1.479"/></g><path fill="#9078c0" d="M12.956 3.9s.883-.482 1.08-.342c1.17-.649.646.076.212.301-.088.319-1.045.793-1.08.798a.44.44 0 0 1-.212-.757"/><path fill="#d2d2d8" d="M12.497 4.049c-.123.207-.536.024-.56.242-.029.263.345.279.345.279s-.055.142.011.202c.416-.065.728.2.88-.093z"/><path fill="#ebe6b1" d="M12.588 4.126s.106.056.127.138c-.06.05-.483.086-.127-.138"/><path fill="#d2d2d8" d="M13.177 4.737c-.137-.25-.793-.635-.786-.803.002-.061.29-.396.384-.038.366-.124.085.265.143.39.074.157.26.451.26.451"/><path fill="#29281c" d="M15.431 7.506s-.008-2.474 1.232-1.254c-1.035-.903-1.061 1.178-1.232 1.254"/><path fill="#9078c0" d="M17.842 6.844s-.768-.609-.98-.505c-1.015-.817-.632-.032-.253.256.032.321.872.934.904.944.242.018.58-.312.329-.695"/><path fill="#d2d2d8" d="M18.257 7.062c.085.22.512.111.498.326-.016.258-.376.212-.376.212s.029.147-.045.193c-.388-.13-.732.074-.828-.232z"/><path fill="#ebe6b1" d="M18.158 7.122s-.111.037-.145.113c.05.057.45.161.145-.113"/><path fill="#d2d2d8" d="M17.511 7.619c.173-.218.866-.484.887-.647.008-.06-.213-.43-.362-.099-.33-.18-.125.242-.202.353-.096.14-.323.393-.323.393"/><path fill="#29281c" d="M15.63 11.687s-.323-2.452 1.062-1.4c-1.142-.764-.902 1.303-1.061 1.4"/><path fill="#9078c0" d="M18.327 10.872s-1.028-.623-1.27-.463c-1.362-.837-.772.06-.267.351.09.387 1.206 1.003 1.246 1.01.297-.016.656-.47.29-.898"/><path fill="#d2d2d8" d="M18.866 11.072c.137.256.638.056.656.32.021.316-.424.317-.424.317s.058.174-.024.242c-.493-.098-.878.205-1.043-.154z"/><path fill="#ebe6b1" d="M18.754 11.16s-.129.064-.158.161c.07.062.571.126.158-.16"/><path fill="#d2d2d8" d="M18.128 11.823c.176-.292.976-.724.976-.926 0-.074-.326-.49-.456-.064-.43-.167-.114.314-.19.462-.094.185-.33.528-.33.528"/><path fill="#9078c0" d="M17.032 3.557c-.617-.177-.853.18-1.143.241.295.174.648.44.967.52.63.157 1.15-.175 1.233.036.056-.068.049-.17-.083-.211.073-.091.136-.353-.071-.374.125.402-.456-.083-.903-.212"/><path fill="#29281c" d="M15.65 12.494s-.278-2.458-1.368-1.103c.923-1.017 1.19 1.048 1.368 1.103"/><path fill="#9078c0" d="M13.145 11.281c.67-.47 1.103-.12 1.48-.159-.284.337-.6.813-.951 1.04-.696.45-1.46.244-1.473.542-.096-.063-.13-.194.013-.298-.127-.084-.311-.387-.07-.496.015.554.515-.288 1.001-.629"/><path fill="#29281c" d="M15.48 9.326s.658-2.384 1.523-.874c-.753-1.15-1.34.847-1.524.874"/><path fill="#9078c0" d="M18.008 8.485c-.535-.517-.973-.264-1.306-.353.208.342.423.813.707 1.067.56.502 1.275.426 1.244.694.095-.042.144-.155.031-.268.126-.058.334-.303.133-.435-.092.494-.421-.33-.809-.705"/><path fill="#29281c" d="M15.569 14.128s.188-2.466 1.327-1.151c-.96-.983-1.151 1.09-1.327 1.151"/><path fill="#9078c0" d="M18.094 12.833c-.716-.465-1.154-.083-1.548-.11.31.341.656.826 1.03 1.05.743.444 1.53.2 1.555.51.098-.07.128-.207-.024-.31.128-.093.309-.416.053-.521.006.579-.547-.28-1.066-.619"/><path fill="#29281c" d="M15.48 9.476s.095-2.472-1.186-1.297c1.066-.866 1.019 1.215 1.187 1.297"/><path fill="#9078c0" d="M12.711 8.95s.966-.715 1.222-.579c1.278-.96.775-.012.299.326-.054.394-1.108 1.11-1.148 1.122-.297.01-.697-.409-.373-.869"/><path fill="#d2d2d8" d="M12.193 9.2c-.113.267-.631.114-.624.379.008.317.452.277.452.277s-.042.178.047.24c.48-.144.892.122 1.023-.251z"/><path fill="#ebe6b1" d="M12.313 9.278s.134.05.172.145c-.064.068-.558.178-.172-.145"/><path fill="#d2d2d8" d="M13.072 9.893c-.202-.275-1.04-.631-1.058-.832-.007-.074.28-.519.448-.107.412-.206.142.303.232.443.112.176.378.496.378.496"/><path fill="#9078c0" d="M16.538 11.556s-.245-1.381-.653-1.399c-.243-1.089-.625-.627-.355.086-.372.338-.019 1.26.018 1.691z"/><path fill="#d2d2d8" d="M16.666 11.974c.175.144.196.82.103.797-.075.02-.278-.378-.279-.426.185.749-.494.431-.422.05-.17.23-.077.482-.148.501-.205.04-.427-.58-.388-.957l.627-.167z"/><path fill="#ebe6b1" d="M16.45 11.862s-.25.027-.36.03c.004.563.442.905.36-.03"/><path fill="#d2d2d8" d="M16.293 11.597c-.36-.163-.763.343-.763.343.032.156.496.002.723-.05 0 0 .537.203.66.088.122-.285-.47-.55-.62-.381"/><path fill="#9078c0" d="M14.628 6.759s.147-1.073.456-1.098c.154-.847.458-.5.272.057.293.25.05.972.034 1.305z"/><path fill="#d2d2d8" d="M14.542 7.085c-.128.115-.126.638-.055.617.056.013.2-.299.2-.336-.12.583.387.319.32.027.137.173.073.37.127.382.158.026.309-.459.269-.749l-.481-.111z"/><path fill="#ebe6b1" d="M14.703 6.992s.191.014.275.013c.012.435-.31.711-.275-.013"/><path fill="#d2d2d8" d="M14.815 6.783c.27-.135.589.244.589.244-.02.12-.377.015-.55-.018 0 0-.403.17-.5.086-.1-.217.342-.437.46-.312"/><path fill="#345d1f" stroke-width="2.45" d="M13.492 37.05c.526-.331 1.63-2.303 3.928-2.534 2.09-1.89 3.312-.563 5.34-.56-2.26 1.834-6.602 1.731-9.268 3.094"/><g fill="#345d1f"><path d="M15.054 32.644c-1.74.12-1.723 1.532.034 2.021.835.232 1.67.787 2.127 1.398 1.508-2.808-1-6.434-2.161-3.419M15.406 30.667s-1.024-1.468-2.686-1.948c-.55-.16-1.645.343-4.305.163.417-.846 1.529-1.865 3.077-1.947.589-.032 3.644 1.48 3.914 3.732M14.738 25.445c1.68.487 1.898-.758 1.898-.758.9.911.526 1.76 1.544 4.106-.74-1.27-3.683-2.058-3.442-3.348M15.64 23.272c-1.464.602-2.183-1.03-2.966-1.462-1.983-1.09-1.8-1.666-2.814-2.668.5.4 5.723.837 5.78 4.13M15.744 19.945c-1.86-.059-3.186-2.65-4.156-4.064.354.386 4.522 1.394 4.156 4.064"/></g><path fill="#9078c0" d="M14.383 14.938s.414-1.34.82-1.306c.377-1.05.699-.545.342.129.328.381-.137 1.253-.227 1.676z"/><path fill="#d2d2d8" d="M14.203 15.337c-.19.12-.296.789-.2.778.071.029.322-.34.33-.388-.277.72.436.49.412.103.141.249.017.487.084.515.2.066.496-.522.505-.901l-.602-.244z"/><path fill="#ebe6b1" d="M14.432 15.252s.245.058.354.075c-.074.559-.551.843-.354-.075"/><path fill="#d2d2d8" d="M14.62 15.01c.379-.117.715.435.715.435-.05.15-.492-.06-.71-.14 0 0-.559.134-.667.005-.086-.298.534-.487.662-.3"/><g fill="#345d1f"><path d="M7.297 22.08c-1.862.011-3.283-2.527-4.307-3.904.369.372 4.572 1.222 4.307 3.904M7.4 25.535s-.739-1.413-2.147-2.017c-.467-.2-1.483.13-3.801-.315.459-.707 1.547-1.493 2.916-1.401.521.035 3.041 1.704 3.033 3.733M13.697 24.825c-.438.061-2.08-.725-3.304.415-2.064-.167-1.895 1.48-2.859 2.634 2.114.03 4.123-2.511 6.163-3.05M8.708 35.074c1.804.313 1.41-1.143 1.875-1.604 1.178-1.167.62-1.625.926-2.592-.214.398-4.936 1.44-2.8 4.196M3.052 30.74c-2.709.423 1.537 1.38 2.445.298.778-.59 2.29 1.421 2.563 1.364.753-.827-1.464-5.708-5.008-1.663"/></g><g fill="#29281c"><path d="M7.134 5.732c.034 2.038-.183 31.654 3.569 33.61-3.794 1.413-4.236-33.019-3.569-33.61"/><path d="M7.113 7.249s-.64-2.44.938-1.488c-1.357-.679-.73 1.2-.938 1.488"/><path d="M7.118 7.736S7.52 5.295 6.102 6.3c1.166-.726.86 1.333 1.016 1.435"/></g><path fill="#9078c0" d="M9.394 6.096S8.49 5.654 8.3 5.803c-1.199-.596-.642.105-.199.31.103.315 1.08.745 1.114.748a.44.44 0 0 0 .179-.765"/><path fill="#d2d2d8" d="M9.859 6.224c.133.201.537 0 .57.217.041.261-.331.294-.331.294s.061.14-.003.202c-.418-.046-.718.232-.882-.053z"/><path fill="#ebe6b1" d="M9.771 6.305s-.103.061-.12.144c.063.047.486.064.12-.144"/><path fill="#d2d2d8" d="M9.21 6.942c.127-.255.765-.67.75-.837-.005-.062-.308-.383-.386-.02-.37-.109-.072.267-.125.396-.066.16-.238.461-.238.461"/><path fill="#29281c" d="M7.083 9.81S6.98 7.339 5.797 8.613c.993-.949 1.113 1.13 1.286 1.197"/><path fill="#9078c0" d="M4.646 9.258s.74-.643.956-.55c.978-.861.63-.06.265.245-.018.323-.83.973-.861.984-.241.029-.594-.285-.36-.68"/><path fill="#d2d2d8" d="M4.24 9.494c-.074.224-.505.134-.482.348.027.257.386.195.386.195s-.023.148.053.191c.382-.148.734.041.817-.27z"/><path fill="#ebe6b1" d="M4.343 9.55s.113.032.15.106c-.048.06-.442.18-.15-.107"/><path fill="#d2d2d8" d="M5.011 10.017c-.183-.21-.887-.445-.915-.606-.01-.06.193-.439.358-.116.321-.194.135.236.217.344.102.135.34.378.34.378"/><path fill="#29281c" d="M7.073 13.996s.212-2.465-1.124-1.352c1.106-.814.96 1.262 1.124 1.352"/><path fill="#9078c0" d="M4.342 13.302s1-.668 1.248-.52c1.323-.897.774.025.283.34-.072.39-1.16 1.055-1.2 1.064-.297-.003-.677-.44-.33-.884"/><path fill="#d2d2d8" d="M3.813 13.527c-.126.261-.635.084-.641.348-.007.317.438.298.438.298s-.05.177.035.241c.487-.12.886.165 1.034-.2z"/><path fill="#ebe6b1" d="M3.929 13.61s.132.057.165.153c-.068.065-.565.152-.165-.153"/><path fill="#d2d2d8" d="M4.584 14.244c-.189-.285-1.008-.68-1.017-.881-.003-.074.304-.504.453-.085.421-.187.127.308.21.453.103.18.354.513.354.513"/><path fill="#9078c0" d="M5.306 5.938c.609-.205.86.14 1.154.189-.288.187-.628.47-.943.563-.623.185-1.157-.123-1.23.091-.059-.065-.057-.168.073-.214-.077-.088-.152-.347.055-.377-.108.407.45-.104.891-.252"/><path fill="#29281c" d="M7.09 14.802s.167-2.468 1.317-1.163c-.968-.974-1.142 1.1-1.317 1.163"/><path fill="#9078c0" d="M9.537 13.479c-.69-.44-1.107-.07-1.485-.093.299.324.635.785.997.997.715.418 1.47.178 1.495.474.093-.066.121-.199-.026-.296.123-.09.293-.4.047-.5.01.555-.527-.263-1.028-.582"/><path fill="#29281c" d="M7.118 11.63s-.765-2.351-1.562-.804c.701-1.182 1.376.786 1.562.805"/><path fill="#9078c0" d="M4.554 10.904c.51-.54.96-.308 1.288-.411-.192.35-.386.831-.658 1.097-.537.527-1.254.484-1.212.75-.096-.038-.15-.148-.043-.266-.128-.052-.347-.288-.152-.429.115.49.406-.35.777-.741"/><path fill="#29281c" d="M7.244 16.432s-.299-2.455-1.377-1.09c.915-1.026 1.199 1.036 1.377 1.09"/><path fill="#9078c0" d="M4.663 15.251c.695-.497 1.15-.135 1.541-.18-.293.355-.617.855-.982 1.096-.721.476-1.52.268-1.53.579-.1-.065-.137-.201.01-.311-.132-.087-.327-.401-.076-.518.02.579.534-.305 1.038-.666"/><path fill="#29281c" d="M7.123 11.78s-.206-2.465 1.127-1.348c-1.104-.817-.964 1.26-1.127 1.348"/><path fill="#9078c0" d="M9.866 11.131s-.997-.671-1.246-.523c-1.321-.902-.775.023-.285.338.072.391 1.157 1.06 1.197 1.07.298-.003.679-.44.334-.885"/><path fill="#d2d2d8" d="M10.395 11.357c.125.262.635.086.64.35.006.318-.44.298-.44.298s.05.176-.035.24c-.487-.12-.886.163-1.034-.203z"/><path fill="#ebe6b1" d="M10.279 11.44s-.132.057-.166.153c.067.065.565.153.166-.153"/><path fill="#d2d2d8" d="M9.548 12.09c.19-.285 1.01-.679 1.02-.88.003-.074-.303-.505-.453-.086-.421-.188-.129.308-.212.453-.103.18-.355.512-.355.512"/><path fill="#9078c0" d="M6.16 13.906s.182-1.39.589-1.427c.194-1.099.597-.655.358.07.388.32.076 1.258.059 1.69z"/><path fill="#d2d2d8" d="M6.05 14.33c-.167.15-.159.827-.066.8.075.016.26-.39.26-.438-.152.756.512.408.422.031.182.222.1.478.171.494.207.031.4-.599.345-.974l-.634-.138z"/><path fill="#ebe6b1" d="M6.261 14.207s.252.016.362.014c.02.563-.401.925-.362-.014"/><path fill="#d2d2d8" d="M6.406 13.936c.353-.18.778.308.778.308-.025.157-.496.024-.724-.017 0 0-.528.226-.656.117-.135-.279.444-.57.602-.408"/><path fill="#9078c0" d="M7.852 9.028s-.195-1.064-.505-1.075c-.192-.84-.48-.48-.269.068-.28.263-.006.973.025 1.306z"/><path fill="#d2d2d8" d="M7.953 9.35c.133.11.154.632.083.615-.056.015-.214-.29-.215-.327.146.576-.372.336-.32.041-.128.179-.055.372-.109.388-.156.032-.328-.445-.302-.737l.476-.133z"/><path fill="#ebe6b1" d="M7.788 9.265s-.19.022-.274.025c.007.435.342.696.274-.025"/><path fill="#d2d2d8" d="M7.667 9.061c-.275-.123-.578.27-.578.27.025.12.377-.002.549-.043 0 0 .41.153.502.064.092-.221-.36-.422-.473-.29"/><g fill="#345d1f"><path d="M8.592 34.906c1.744.041 1.79 1.454.057 2.021-.823.27-1.632.862-2.062 1.492-1.633-2.738.71-6.472 2.005-3.513M8.151 32.945s.957-1.512 2.596-2.067c.543-.184 1.659.27 4.308-.031-.454-.826-1.611-1.794-3.161-1.807-.59-.004-3.574 1.643-3.743 3.905M8.584 27.7c-1.657.563-1.93-.672-1.93-.672-.858.951-.447 1.783-1.358 4.171.683-1.3 3.587-2.221 3.287-3.499M7.585 25.57c1.49.534 2.134-1.129 2.897-1.595 1.933-1.178 1.723-1.746 2.691-2.792-.481.422-5.68 1.093-5.588 4.386M7.33 22.25c1.857-.142 3.064-2.79 3.97-4.247-.337.402-4.455 1.597-3.97 4.248"/></g><path fill="#9078c0" d="M8.465 17.187s-.474-1.32-.879-1.269c-.423-1.032-.722-.512-.335.145-.31.395.193 1.246.302 1.664z"/><path fill="#d2d2d8" d="M8.662 17.577c.196.112.331.775.235.768-.07.032-.337-.325-.346-.373.308.707-.414.509-.407.121-.13.256.004.488-.062.519-.195.074-.519-.5-.544-.878l.59-.27z"/><path fill="#ebe6b1" d="M8.43 17.503s-.242.069-.35.09c.1.555.588.818.35-.09"/><path fill="#d2d2d8" d="M8.231 17.268c-.383-.1-.694.467-.694.467.057.149.489-.082.703-.17 0 0 .564.108.666-.026.073-.302-.555-.462-.675-.271"/></g><g stroke-width=".963"><g stroke="#31581e" stroke-width=".317"><path fill="#417427" d="M-70.223 88.75c-3.874 1.154-5.283-3.185-7.165-4.482-4.762-3.285-4.148-4.705-6.47-7.515 1.17 1.146 14.337 3.601 13.635 11.997z" transform="matrix(.60523 .15369 -.15354 .60471 71.33 -4.628)"/><path fill="none" d="M-70.223 88.75c-1.24-3.508-12.558-10.547-13.213-11.67" transform="matrix(.60523 .15369 -.15354 .60471 71.33 -4.628)"/></g><g stroke="#31581e" stroke-width=".453"><path fill="#417427" d="M-60.611 104.75s2.684-3.34 6.68-4.176c1.326-.278 3.802 1.148 10.088 1.23-.82-2.121-3.24-4.794-6.862-5.294-1.377-.19-8.845 2.861-9.906 8.24z" transform="matrix(-.42572 -.11494 -.11316 .41916 5.282 -27.145)"/><path fill="none" d="M-60.303 103.66c3.976-8.933 16.156-2.191 16.46-1.864" transform="matrix(-.42572 -.11494 -.11316 .41916 5.282 -27.145)"/></g><g stroke="#31581e" stroke-width=".507"><path fill="#417427" d="M-132.01 99.891c-1.488-.43-5.292-4.233-11.146-3.34-6.218-3.01-8.566.76-13.626 2.017 6.615 2.778 17.396-.132 24.772 1.323z" transform="matrix(.28979 -.14867 .20131 .42211 44.405 -38.065)"/><path fill="none" d="M-132.01 99.891c-10.319-4.928-20.77-.86-24.772-1.323" transform="matrix(.28979 -.14867 .20131 .42211 44.405 -38.065)"/></g><g stroke="#31581e" stroke-width=".458"><path fill="#417427" d="M-70.223 88.75c-3.874 1.154-5.283-3.185-7.165-4.482-4.762-3.285-4.148-4.705-6.47-7.515 1.17 1.146 14.337 3.601 13.635 11.997z" transform="matrix(.46468 .07068 -.29933 .3571 76.062 7.664)"/><path fill="none" d="M-70.223 88.75c-1.24-3.508-12.558-10.547-13.213-11.67" transform="matrix(.46468 .07068 -.29933 .3571 76.062 7.664)"/></g><g stroke="#31581e" stroke-width=".35"><path fill="#417427" d="M-68.581 96.054c4.73-3.175-.397 4.266-3.307 3.903-2.018.198-1.489 5.39-1.985 5.688-2.315-.198-5.82-10.749 5.292-9.591z" transform="matrix(-.4993 .26482 .26512 .4999 -47.327 -1.877)"/><path fill="none" d="M-68.581 96.054c-6.714 3.671-6.581 6.35-5.292 9.591" transform="matrix(-.4993 .26482 .26512 .4999 -47.327 -1.877)"/></g><g fill="#29281c"><path d="M22.384.356C22.089 2.73 18.628 37.312 14 39.124 18.254 41.248 23.089 1.13 22.384.356"/><path d="M22.219 2.128S23.273-.64 21.31.275c1.67-.623.702 1.492.909 1.853"/><path d="M22.15 2.695s-.163-2.898 1.367-1.546c-1.27-.994-1.171 1.447-1.366 1.546"/></g><g stroke-width="2.332"><path fill="#b8a9d7" stroke="#9680c4" stroke-width=".461" d="M-38.847 53.933s1.836-2.033 2.466-1.836c2.424-2.72 1.724-.365.813.602.056.912-1.976 2.986-2.06 3.028-.658.155-1.737-.616-1.219-1.794z" transform="matrix(.38491 .19711 -.19887 .37608 45.378 -12.128)"/><path fill="#dedee2" stroke="#d0d0d7" stroke-width=".461" d="M-39.892 54.721c-.132.651-1.356.532-1.222 1.125.16.712 1.132.428 1.132.428s-.014.42.21.519c1.01-.533 2.046-.112 2.172-1.01z" transform="matrix(.38491 .19711 -.19887 .37608 45.378 -12.128)"/><path fill="#ebe6b1" d="M19.232.694s.113.085.123.184c-.08.046-.576.013-.123-.184"/><path fill="#efeff1" stroke="#d0d0d7" stroke-width=".461" d="M-37.6 55.783c-.575-.533-2.6-.971-2.732-1.416-.049-.164.392-1.29.952-.434.827-.645.453.619.715.897.327.346 1.065.953 1.065.953z" transform="matrix(.38491 .19711 -.19887 .37608 45.378 -12.128)"/></g><path fill="#29281c" d="M21.931 5.12s.43-2.87 1.653-1.235c-1.041-1.232-1.441 1.178-1.653 1.235"/><g stroke-width="2.389"><path fill="#b8a9d7" stroke="#9680c4" stroke-width=".473" d="M-38.847 53.933s1.836-2.033 2.466-1.836c2.424-2.72 1.724-.365.813.602.056.912-1.976 2.986-2.06 3.028-.658.155-1.737-.616-1.219-1.794z" transform="matrix(-.42131 .00122 .00453 .41587 8.237 -17.6)"/><path fill="#dedee2" stroke="#d0d0d7" stroke-width=".473" d="M-39.892 54.721c-.132.651-1.356.532-1.222 1.125.16.712 1.132.428 1.132.428s-.014.42.21.519c1.01-.533 2.046-.112 2.172-1.01z" transform="matrix(-.42131 .00122 .00453 .41587 8.237 -17.6)"/><path fill="#ebe6b1" d="M25.165 5.16s-.136.024-.188.105c.048.076.493.267.188-.105"/><path fill="#efeff1" stroke="#d0d0d7" stroke-width=".473" d="M-37.6 55.783c-.575-.533-2.6-.971-2.732-1.416-.049-.164.392-1.29.952-.434.827-.645.453.619.715.897.327.346 1.065.953 1.065.953z" transform="matrix(-.42131 .00122 .00453 .41587 8.237 -17.6)"/></g><path fill="#29281c" d="M21.419 10.006s.06-2.902 1.481-1.436c-1.19-1.09-1.279 1.352-1.481 1.436"/><g stroke-width="1.948"><path fill="#b8a9d7" stroke="#9680c4" stroke-width=".385" d="M-38.847 53.933s1.836-2.033 2.466-1.836c2.424-2.72 1.724-.365.813.602.056.912-1.976 2.986-2.06 3.028-.658.155-1.737-.616-1.219-1.794z" transform="matrix(-.51163 .0674 .07061 .50599 1.01 -15.133)"/><path fill="#dedee2" stroke="#d0d0d7" stroke-width=".385" d="M-39.892 54.721c-.132.651-1.356.532-1.222 1.125.16.712 1.132.428 1.132.428s-.014.42.21.519c1.01-.533 2.046-.112 2.172-1.01z" transform="matrix(-.51163 .0674 .07061 .50599 1.01 -15.133)"/><path fill="#ebe6b1" d="M25.138 9.95s-.16.05-.211.157c.07.085.64.248.211-.157"/><path fill="#efeff1" stroke="#d0d0d7" stroke-width=".385" d="M-37.6 55.783c-.575-.533-2.6-.971-2.732-1.416-.049-.164.392-1.29.952-.434.827-.645.453.619.715.897.327.346 1.065.953 1.065.953z" transform="matrix(-.51163 .0674 .07061 .50599 1.01 -15.133)"/></g><path fill="#b8a9d7" stroke="#9680c4" stroke-width=".191" d="M11.161-1.254c-.72-.205-1.005.178-1.348.24.343.195.752.491 1.125.584.737.183 1.353-.168 1.447.063.067-.073.06-.184-.093-.23.088-.099.167-.382-.076-.409.14.44-.533-.1-1.055-.248z" transform="rotate(7.668 1.578 99.202)scale(1 1.07925)"/><path fill="#29281c" d="M21.298 10.945s.114-2.9-1.392-1.522c1.253-1.016 1.196 1.426 1.392 1.522"/><path fill="#b8a9d7" stroke="#9680c4" stroke-width=".191" d="M6.43 7.067c.797-.499 1.298-.109 1.741-.144-.34.36-.721.872-1.14 1.112-.826.476-1.719.236-1.74.56-.111-.07-.148-.213.021-.324-.147-.094-.357-.427-.07-.54.005.602.61-.303 1.188-.664z" transform="rotate(7.668 1.578 99.202)scale(1 1.07925)"/><path fill="#29281c" d="M21.663 7.24s1.19-2.648 1.925-.743c-.67-1.467-1.706.745-1.925.743"/><path fill="#b8a9d7" stroke="#9680c4" stroke-width=".191" d="M12.201 4.122c-.617-.572-1.137-.306-1.525-.41.235.377.478.893.806 1.175.648.557 1.488.488 1.447.78.112-.045.172-.166.041-.292.15-.06.4-.322.166-.47-.12.536-.488-.368-.935-.783z" transform="rotate(7.668 1.578 99.202)scale(1 1.07925)"/><path fill="#29281c" d="M20.913 12.827s.658-2.828 1.746-1.1c-.94-1.31-1.53 1.06-1.746 1.1"/><path fill="#b8a9d7" stroke="#9680c4" stroke-width=".191" d="M12.208 8.851c-.831-.52-1.353-.113-1.815-.15.356.377.752.91 1.188 1.162.862.497 1.792.247 1.814.584.116-.073.155-.222-.022-.337.153-.099.372-.446.074-.565-.006.63-.636-.316-1.239-.694z" transform="rotate(7.668 1.578 99.202)scale(1 1.07925)"/><path fill="#29281c" d="M21.638 7.414s.55-2.85-1.147-1.715c1.391-.815.967 1.59 1.147 1.715"/><g stroke-width="1.946"><path fill="#b8a9d7" stroke="#9680c4" stroke-width=".385" d="M-38.847 53.933s1.836-2.033 2.466-1.836c2.424-2.72 1.724-.365.813.602.056.912-1.976 2.986-2.06 3.028-.658.155-1.737-.616-1.219-1.794z" transform="matrix(.4863 .17345 -.17518 .48035 46.872 -12.897)"/><path fill="#dedee2" stroke="#d0d0d7" stroke-width=".385" d="M-39.892 54.721c-.132.651-1.356.532-1.222 1.125.16.712 1.132.428 1.132.428s-.014.42.21.519c1.01-.533 2.046-.112 2.172-1.01z" transform="matrix(.4863 .17345 -.17518 .48035 46.872 -12.897)"/><path fill="#ebe6b1" d="M18.011 6.58s.147.084.174.2c-.086.068-.678.108-.174-.2"/><path fill="#efeff1" stroke="#d0d0d7" stroke-width=".385" d="M-37.6 55.783c-.575-.533-2.6-.971-2.732-1.416-.049-.164.392-1.29.952-.434.827-.645.453.619.715.897.327.346 1.065.953 1.065.953z" transform="matrix(.4863 .17345 -.17518 .48035 46.872 -12.897)"/></g><g stroke-width="2.137"><path fill="#b8a9d7" stroke="#9680c4" stroke-width=".423" d="M-119.38 138.8s.271-3.458 1.3-3.602c.341-2.739 1.427-1.696.921.124 1.03.74.368 3.097.383 4.165z" transform="rotate(-176.984 -15.28 -28.955)scale(.46116 -.47467)"/><path fill="#dedee2" stroke="#d0d0d7" stroke-width=".423" d="M-119.6 139.86c-.405.395-.29 2.065-.058 1.986.193.03.608-.998.599-1.117-.28 1.887 1.36.939 1.08.02.493.524.32 1.166.503 1.195.53.05.936-1.53.743-2.45l-1.631-.256z" transform="rotate(-176.984 -15.28 -28.955)scale(.46116 -.47467)"/><path fill="#ebe6b1" d="M22.339 10.354s-.296-.013-.424-.03c-.095.656.352 1.13.424.03"/><path fill="#efeff1" stroke="#d0d0d7" stroke-width=".423" d="M-118.75 138.84c.874-.489 2.02.657 2.02.657-.04.39-1.255.125-1.842.055 0 0-1.31.63-1.652.378-.382-.67 1.05-1.467 1.474-1.09z" transform="rotate(-176.984 -15.28 -28.955)scale(.46116 -.47467)"/></g><g stroke-width="2.79"><path fill="#b8a9d7" stroke="#9680c4" stroke-width=".552" d="M-119.38 138.8s.271-3.458 1.3-3.602c.341-2.739 1.427-1.696.921.124 1.03.74.368 3.097.383 4.165z" transform="matrix(.34236 .07525 -.07769 .35806 72.785 -36.605)"/><path fill="#dedee2" stroke="#d0d0d7" stroke-width=".552" d="M-119.6 139.86c-.405.395-.29 2.065-.058 1.986.193.03.608-.998.599-1.117-.28 1.887 1.36.939 1.08.02.493.524.32 1.166.503 1.195.53.05.936-1.53.743-2.45l-1.631-.256z" transform="matrix(.34236 .07525 -.07769 .35806 72.785 -36.605)"/><path fill="#ebe6b1" d="M21.177 4.395s.22.05.317.064c-.064.507-.488.77-.317-.064"/><path fill="#efeff1" stroke="#d0d0d7" stroke-width=".552" d="M-118.75 138.84c.874-.489 2.02.657 2.02.657-.04.39-1.255.125-1.842.055 0 0-1.31.63-1.652.378-.382-.67 1.05-1.467 1.474-1.09z" transform="matrix(.34236 .07525 -.07769 .35806 72.785 -36.605)"/></g><g stroke="#31581e" stroke-width=".413"><path fill="#417427" d="M-132.01 99.891c-1.488-.43-5.292-4.233-11.146-3.34-6.218-3.01-8.566.76-13.626 2.017 6.615 2.778 17.396-.132 24.772 1.323z" transform="matrix(-.45812 .0518 .02875 .49802 -48.921 -3.865)"/><path fill="none" d="M-132.01 99.891c-10.319-4.928-20.77-.86-24.772-1.323" transform="matrix(-.45812 .0518 .02875 .49802 -48.921 -3.865)"/></g><g stroke="#31581e" stroke-width=".356"><path fill="#417427" d="M-85.301 127.84c-3.69.185-3.708 3.165-.006 4.263 1.758.522 3.504 1.724 4.45 3.03 3.303-5.865-1.867-13.606-4.444-7.293z" transform="rotate(7.668 260.316 532.585)scale(.55451 .5564)"/><path fill="none" d="M-85.301 127.84c2.24.47 4.809 4.879 4.445 7.293" transform="rotate(7.668 260.316 532.585)scale(.55451 .5564)"/></g><g stroke="#31581e" stroke-width=".403"><path fill="#417427" d="M-60.611 104.75s2.684-3.34 6.68-4.176c1.326-.278 3.802 1.148 10.088 1.23-.82-2.121-3.24-4.794-6.862-5.294-1.377-.19-8.845 2.861-9.906 8.24z" transform="rotate(7.667 133.877 397.35)scale(.49818 .48504)"/><path fill="none" d="M-60.303 103.66c3.976-8.933 16.156-2.191 16.46-1.864" transform="rotate(7.667 133.877 397.35)scale(.49818 .48504)"/></g><g fill="#417427" stroke="#31581e" stroke-width=".353"><path d="M-92.261 90.697c3.638.397 3.638-2.249 3.638-2.249 2.183 1.554 1.72 3.44 4.663 7.904-1.984-2.348-8.334-2.91-8.301-5.655z" transform="matrix(-.5544 .08757 .0875 .55398 -39.027 -15.44)"/><path d="M-89.913 90.333c0 .595 5.226 4.763 5.556 5.424" transform="matrix(-.5544 .08757 .0875 .55398 -39.027 -15.44)"/></g><g stroke="#31581e" stroke-width=".431"><path fill="#417427" d="M-70.223 88.75c-3.874 1.154-5.283-3.185-7.165-4.482-4.762-3.285-4.148-4.705-6.47-7.515 1.17 1.146 14.337 3.601 13.635 11.997z" transform="rotate(-173.273 -4.52 -9.99)scale(.45963 -.45884)"/><path fill="none" d="M-70.223 88.75c-1.24-3.508-12.558-10.547-13.213-11.67" transform="rotate(-173.273 -4.52 -9.99)scale(.45963 -.45884)"/></g><g stroke="#31581e" stroke-width=".527"><path fill="#417427" d="M-70.223 88.75c-5.816.126-10.374-7.742-13.634-11.997 1.17 1.146 14.336 3.602 13.634 11.997z" transform="matrix(.36808 .07657 -.0763 .36754 52.703 -7.638)"/><path fill="none" d="M-70.223 88.75c-1.24-3.508-12.558-10.547-13.213-11.67" transform="matrix(.36808 .07657 -.0763 .36754 52.703 -7.638)"/></g><g stroke-width="2.137"><path fill="#b8a9d7" stroke="#9680c4" stroke-width=".423" d="M-119.38 138.8s.271-3.458 1.3-3.602c.341-2.739 1.427-1.696.921.124 1.03.74.368 3.097.383 4.165z" transform="matrix(.42891 .16948 -.17426 .4415 94.784 -27.494)"/><path fill="#dedee2" stroke="#d0d0d7" stroke-width=".423" d="M-119.6 139.86c-.405.395-.29 2.065-.058 1.986.193.03.608-.998.599-1.117-.28 1.887 1.36.939 1.08.02.493.524.32 1.166.503 1.195.53.05.936-1.53.743-2.45l-1.631-.256z" transform="matrix(.42891 .16948 -.17426 .4415 94.784 -27.494)"/><path fill="#ebe6b1" d="M19.394 13.927s.275.111.398.15c-.186.635-.79.88-.398-.15"/><path fill="#efeff1" stroke="#d0d0d7" stroke-width=".423" d="M-118.75 138.84c.874-.489 2.02.657 2.02.657-.04.39-1.255.125-1.842.055 0 0-1.31.63-1.652.378-.382-.67 1.05-1.467 1.474-1.09z" transform="matrix(.42891 .16948 -.17426 .4415 94.784 -27.494)"/></g><g stroke="#31581e" stroke-width=".525"><path fill="#417427" d="M-132.01 99.891c-1.488-.43-5.292-4.233-11.146-3.34-6.218-3.01-8.566.76-13.626 2.017 6.615 2.778 17.396-.132 24.772 1.323z" transform="matrix(.30192 .11331 -.13117 .421 62.89 8.007)"/><path fill="none" d="M-132.01 99.891c-10.319-4.928-20.77-.86-24.772-1.323" transform="matrix(.30192 .11331 -.13117 .421 62.89 8.007)"/></g><g stroke="#31581e" stroke-width=".453"><path fill="#417427" d="M-60.611 104.75s2.684-3.34 6.68-4.176c1.326-.278 3.802 1.148 10.088 1.23-.82-2.121-3.24-4.794-6.862-5.294-1.377-.19-8.845 2.861-9.906 8.24z" transform="matrix(.4236 -.12252 .12063 .41705 21.073 -23.352)"/><path fill="none" d="M-60.303 103.66c3.976-8.933 16.156-2.191 16.46-1.864" transform="matrix(.4236 -.12252 .12063 .41705 21.073 -23.352)"/></g><g stroke="#31581e" stroke-width=".375"><path fill="#417427" d="M-70.223 88.75c-3.874 1.154-5.283-3.185-7.165-4.482-4.762-3.285-4.148-4.705-6.47-7.515 1.17 1.146 14.337 3.601 13.635 11.997z" transform="matrix(.47941 -.32481 .18252 .45651 29.037 -24.683)"/><path fill="none" d="M-70.223 88.75c-1.24-3.508-12.558-10.547-13.213-11.67" transform="matrix(.47941 -.32481 .18252 .45651 29.037 -24.683)"/></g><g stroke="#31581e" stroke-width=".507"><path fill="#417427" d="M-132.01 99.891c-1.488-.43-5.292-4.233-11.146-3.34-6.218-3.01-8.566.76-13.626 2.017 6.615 2.778 17.396-.132 24.772 1.323z" transform="matrix(.23618 -.22427 .31205 .3483 15.006 -38.017)"/><path fill="none" d="M-132.01 99.891c-10.319-4.928-20.77-.86-24.772-1.323" transform="matrix(.23618 -.22427 .31205 .3483 15.006 -38.017)"/></g><path fill="#29281c" d="M4.262 5.33c.337 2.366 4.233 32.234 8.402 34.002C8.779 41.28 3.925 6.462 4.262 5.329"/><g stroke="#31581e" stroke-width=".372"><path fill="#417427" d="M-68.581 96.054c4.73-3.175-.397 4.266-3.307 3.903-2.018.198-1.489 5.39-1.985 5.688-2.315-.198-5.82-10.749 5.292-9.591z" transform="matrix(-.26456 .46193 .46312 .26414 -60.609 33.96)"/><path fill="none" d="M-68.581 96.054c-6.714 3.671-6.581 6.35-5.292 9.591" transform="matrix(-.26456 .46193 .46312 .26414 -60.609 33.96)"/></g><path fill="#29281c" d="M4.41 6.457s-.98-2.753.88-1.881c-1.508-.599-.72 1.73-.88 1.88"/><path fill="#29281c" d="M4.488 7.026S4.6 4.107 3.086 5.495C4.346 4.473 4.29 6.93 4.488 7.026"/><g stroke-width="2.317"><path fill="#b8a9d7" stroke="#9680c4" stroke-width=".459" d="M-38.847 53.933s1.836-2.033 2.466-1.836c2.424-2.72 1.724-.365.813.602.056.912-1.976 2.986-2.06 3.028-.658.155-1.737-.616-1.219-1.794z" transform="matrix(-.38377 .20526 .20688 .37481 -19.151 -7.47)"/><path fill="#dedee2" stroke="#d0d0d7" stroke-width=".459" d="M-39.892 54.721c-.132.651-1.356.532-1.222 1.125.16.712 1.132.428 1.132.428s-.014.42.21.519c1.01-.533 2.046-.112 2.172-1.01z" transform="matrix(-.38377 .20526 .20688 .37481 -19.151 -7.47)"/><path fill="#ebe6b1" d="M7.389 4.96s-.113.087-.12.186c.08.046.58.003.12-.186"/><path fill="#efeff1" stroke="#d0d0d7" stroke-width=".459" d="M-37.6 55.783c-.575-.533-2.6-.971-2.732-1.416-.049-.164.392-1.29.952-.434.827-.645.453.619.715.897.327.346 1.065.953 1.065.953z" transform="matrix(-.38377 .20526 .20688 .37481 -19.151 -7.47)"/></g><path fill="#29281c" d="M4.752 9.462s-.484-2.88-1.685-1.213C4.093 6.991 4.54 9.41 4.752 9.462"/><g stroke-width="2.374"><path fill="#b8a9d7" stroke="#9680c4" stroke-width=".47" d="M-38.847 53.933s1.836-2.033 2.466-1.836c2.424-2.72 1.724-.365.813.602.056.912-1.976 2.986-2.06 3.028-.658.155-1.737-.616-1.219-1.794z" transform="matrix(.42396 -.00635 .00293 .41852 18.124 -13.644)"/><path fill="#dedee2" stroke="#d0d0d7" stroke-width=".47" d="M-39.892 54.721c-.132.651-1.356.532-1.222 1.125.16.712 1.132.428 1.132.428s-.014.42.21.519c1.01-.533 2.046-.112 2.172-1.01z" transform="matrix(.42396 -.00635 .00293 .41852 18.124 -13.644)"/><path fill="#ebe6b1" d="M1.5 9.56s.137.022.19.103c-.046.077-.49.278-.19-.102"/><path fill="#efeff1" stroke="#d0d0d7" stroke-width=".47" d="M-37.6 55.783c-.575-.533-2.6-.971-2.732-1.416-.049-.164.392-1.29.952-.434.827-.645.453.619.715.897.327.346 1.065.953 1.065.953z" transform="matrix(.42396 -.00635 .00293 .41852 18.124 -13.644)"/></g><path fill="#29281c" d="M5.356 14.369s-.114-2.919-1.517-1.419c1.178-1.116 1.312 1.338 1.517 1.419"/><g stroke-width="1.935"><path fill="#b8a9d7" stroke="#9680c4" stroke-width=".383" d="M-38.847 53.933s1.836-2.033 2.466-1.836c2.424-2.72 1.724-.365.813.602.056.912-1.976 2.986-2.06 3.028-.658.155-1.737-.616-1.219-1.794z" transform="matrix(.51604 .0586 -.06195 .51037 25.44 -11.292)"/><path fill="#dedee2" stroke="#d0d0d7" stroke-width=".383" d="M-39.892 54.721c-.132.651-1.356.532-1.222 1.125.16.712 1.132.428 1.132.428s-.014.42.21.519c1.01-.533 2.046-.112 2.172-1.01z" transform="matrix(.51604 .0586 -.06195 .51037 25.44 -11.292)"/><path fill="#ebe6b1" d="M1.612 14.38s.162.047.215.155c-.069.086-.64.26-.215-.156"/><path fill="#efeff1" stroke="#d0d0d7" stroke-width=".383" d="M-37.6 55.783c-.575-.533-2.6-.971-2.732-1.416-.049-.164.392-1.29.952-.434.827-.645.453.619.715.897.327.346 1.065.953 1.065.953z" transform="matrix(.51604 .0586 -.06195 .51037 25.44 -11.292)"/></g><path fill="#b8a9d7" stroke="#9680c4" stroke-width=".191" d="M-13.86 1.22c-.725-.206-1.012.18-1.357.242.346.196.757.495 1.132.588.742.184 1.363-.169 1.456.063.068-.073.062-.185-.093-.232.089-.098.168-.384-.076-.41.14.442-.536-.1-1.062-.25z" transform="rotate(171.308 -6.128 2.54)scale(1 -1.0792)"/><path fill="#29281c" d="M5.494 15.312s-.167-2.917 1.374-1.557c-1.28-1-1.178 1.457-1.374 1.557"/><path fill="#b8a9d7" stroke="#9680c4" stroke-width=".191" d="M-18.621 9.594c.803-.502 1.307-.109 1.753-.145-.344.364-.727.878-1.147 1.12-.833.478-1.73.238-1.752.563-.112-.07-.15-.214.021-.325-.148-.095-.36-.43-.071-.545.006.607.614-.304 1.196-.668z" transform="rotate(171.308 -6.128 2.54)scale(1 -1.0792)"/><path fill="#29281c" d="M5.06 11.59s-1.243-2.643-1.95-.713c.649-1.488 1.73.72 1.95.713"/><path fill="#b8a9d7" stroke="#9680c4" stroke-width=".191" d="M-12.813 6.631c-.621-.576-1.144-.308-1.535-.412.237.379.482.898.811 1.181.652.56 1.498.492 1.456.785.113-.045.174-.167.042-.293.15-.06.402-.324.167-.473-.12.539-.49-.37-.94-.788z" transform="rotate(171.308 -6.128 2.54)scale(1 -1.0792)"/><path fill="#29281c" d="M5.916 17.197s-.713-2.833-1.777-1.075c.923-1.336 1.56 1.038 1.777 1.075"/><path fill="#b8a9d7" stroke="#9680c4" stroke-width=".191" d="M-12.806 11.39c-.836-.524-1.362-.114-1.827-.151.358.38.757.916 1.196 1.169.867.5 1.803.249 1.826.588.116-.073.155-.224-.023-.34.154-.099.375-.448.075-.568-.006.633-.64-.318-1.247-.698z" transform="rotate(171.308 -6.128 2.54)scale(1 -1.0792)"/><path fill="#29281c" d="M5.088 11.765s-.604-2.858 1.124-1.746c-1.415-.795-.945 1.618-1.124 1.746"/><g stroke-width="1.934"><path fill="#b8a9d7" stroke="#9680c4" stroke-width=".383" d="M-38.847 53.933s1.836-2.033 2.466-1.836c2.424-2.72 1.724-.365.813.602.056.912-1.976 2.986-2.06 3.028-.658.155-1.737-.616-1.219-1.794z" transform="matrix(-.48623 .18327 .18492 .48016 -20.669 -8.217)"/><path fill="#dedee2" stroke="#d0d0d7" stroke-width=".383" d="M-39.892 54.721c-.132.651-1.356.532-1.222 1.125.16.712 1.132.428 1.132.428s-.014.42.21.519c1.01-.533 2.046-.112 2.172-1.01z" transform="matrix(-.48623 .18327 .18492 .48016 -20.669 -8.217)"/><path fill="#ebe6b1" d="M8.723 10.862s-.147.086-.172.203c.088.067.685.097.172-.203"/><path fill="#efeff1" stroke="#d0d0d7" stroke-width=".383" d="M-37.6 55.783c-.575-.533-2.6-.971-2.732-1.416-.049-.164.392-1.29.952-.434.827-.645.453.619.715.897.327.346 1.065.953 1.065.953z" transform="matrix(-.48623 .18327 .18492 .48016 -20.669 -8.217)"/></g><g stroke-width="2.124"><path fill="#b8a9d7" stroke="#9680c4" stroke-width=".42" d="M-119.38 138.8s.271-3.458 1.3-3.602c.341-2.739 1.427-1.696.921.124 1.03.74.368 3.097.383 4.165z" transform="matrix(.46297 -.0327 .03366 .47648 54.87 -55.642)"/><path fill="#dedee2" stroke="#d0d0d7" stroke-width=".42" d="M-119.6 139.86c-.405.395-.29 2.065-.058 1.986.193.03.608-.998.599-1.117-.28 1.887 1.36.939 1.08.02.493.524.32 1.166.503 1.195.53.05.936-1.53.743-2.45l-1.631-.256z" transform="matrix(.46297 -.0327 .03366 .47648 54.87 -55.642)"/><path fill="#ebe6b1" d="M4.436 14.736s.297-.019.426-.037c.107.657-.334 1.142-.426.037"/><path fill="#efeff1" stroke="#d0d0d7" stroke-width=".42" d="M-118.75 138.84c.874-.489 2.02.657 2.02.657-.04.39-1.255.125-1.842.055 0 0-1.31.63-1.652.378-.382-.67 1.05-1.467 1.474-1.09z" transform="matrix(.46297 -.0327 .03366 .47648 54.87 -55.642)"/></g><g stroke-width="2.124"><path fill="#b8a9d7" stroke="#9680c4" stroke-width=".42" d="M-119.38 138.8s.271-3.458 1.3-3.602c.341-2.739 1.427-1.696.921.124 1.03.74.368 3.097.383 4.165z" transform="matrix(-.42855 .17824 .1833 .44107 -69.143 -22.041)"/><path fill="#dedee2" stroke="#d0d0d7" stroke-width=".42" d="M-119.6 139.86c-.405.395-.29 2.065-.058 1.986.193.03.608-.998.599-1.117-.28 1.887 1.36.939 1.08.02.493.524.32 1.166.503 1.195.53.05.936-1.53.743-2.45l-1.631-.256z" transform="matrix(-.42855 .17824 .1833 .44107 -69.143 -22.041)"/><path fill="#ebe6b1" d="M7.464 18.277s-.275.117-.398.158c.198.636.81.871.398-.158"/><path fill="#efeff1" stroke="#d0d0d7" stroke-width=".42" d="M-118.75 138.84c.874-.489 2.02.657 2.02.657-.04.39-1.255.125-1.842.055 0 0-1.31.63-1.652.378-.382-.67 1.05-1.467 1.474-1.09z" transform="matrix(-.42855 .17824 .1833 .44107 -69.143 -22.041)"/></g><g stroke-width="2.773"><path fill="#b8a9d7" stroke="#9680c4" stroke-width=".549" d="M-119.38 138.8s.271-3.458 1.3-3.602c.341-2.739 1.427-1.696.921.124 1.03.74.368 3.097.383 4.165z" transform="matrix(-.34315 .08188 .08461 .35886 -47.17 -31.604)"/><path fill="#dedee2" stroke="#d0d0d7" stroke-width=".549" d="M-119.6 139.86c-.405.395-.29 2.065-.058 1.986.193.03.608-.998.599-1.117-.28 1.887 1.36.939 1.08.02.493.524.32 1.166.503 1.195.53.05.936-1.53.743-2.45l-1.631-.256z" transform="matrix(-.34315 .08188 .08461 .35886 -47.17 -31.604)"/><path fill="#ebe6b1" d="M5.498 8.719s-.22.054-.317.07c.072.509.504.765.317-.07"/><path fill="#efeff1" stroke="#d0d0d7" stroke-width=".549" d="M-118.75 138.84c.874-.489 2.02.657 2.02.657-.04.39-1.255.125-1.842.055 0 0-1.31.63-1.652.378-.382-.67 1.05-1.467 1.474-1.09z" transform="matrix(-.34315 .08188 .08461 .35886 -47.17 -31.604)"/></g><g stroke="#31581e" stroke-width=".379"><path fill="#417427" d="M-70.223 88.75c-3.874 1.154-5.283-3.185-7.165-4.482-4.762-3.285-4.148-4.705-6.47-7.515 1.17 1.146 14.337 3.601 13.635 11.997z" transform="matrix(-.52043 -.04722 -.04725 .52013 -20.885 -11.076)"/><path fill="none" d="M-70.223 88.75c-1.24-3.508-12.558-10.547-13.213-11.67" transform="matrix(-.52043 -.04722 -.04725 .52013 -20.885 -11.076)"/></g><g stroke="#31581e" stroke-width=".424"><path fill="#417427" d="M-85.301 127.84c-3.69.185-3.708 3.165-.006 4.263 1.758.522 3.504 1.724 4.45 3.03 3.303-5.865-1.867-13.606-4.444-7.293z" transform="matrix(.39028 -.25421 .25518 .39123 10.69 -36.93)"/><path fill="none" d="M-85.301 127.84c2.24.47 4.809 4.879 4.445 7.293" transform="matrix(.39028 -.25421 .25518 .39123 10.69 -36.93)"/></g><g stroke="#31581e" stroke-width=".438"><path fill="#417427" d="M-60.611 104.75s2.684-3.34 6.68-4.176c1.326-.278 3.802 1.148 10.088 1.23-.82-2.121-3.24-4.794-6.862-5.294-1.377-.19-8.845 2.861-9.906 8.24z" transform="rotate(171.308 -11.475 -8.167)scale(.42191 -.48501)"/><path fill="none" d="M-60.303 103.66c3.976-8.933 16.156-2.191 16.46-1.864" transform="rotate(171.308 -11.475 -8.167)scale(.42191 -.48501)"/></g><g stroke="#31581e" stroke-width=".431"><path fill="#417427" d="M-70.223 88.75c-3.874 1.154-5.283-3.185-7.165-4.482-4.762-3.285-4.148-4.705-6.47-7.515 1.17 1.146 14.337 3.601 13.635 11.997z" transform="matrix(.45543 -.06199 .06188 .45462 33.51 -21.48)"/><path fill="none" d="M-70.223 88.75c-1.24-3.508-12.558-10.547-13.213-11.67" transform="matrix(.45543 -.06199 .06188 .45462 33.51 -21.48)"/></g><g fill="#417427" stroke="#31581e" stroke-width=".353"><path d="M-92.261 90.697c3.638.397 3.638-2.249 3.638-2.249 2.183 1.554 1.72 3.44 4.663 7.904-1.984-2.348-8.334-2.91-8.301-5.655z" transform="rotate(7.952 179.797 451.696)scale(.56128 .56082)"/><path d="M-89.913 90.333c0 .595 5.226 4.763 5.556 5.424" transform="rotate(7.952 179.797 451.696)scale(.56128 .56082)"/></g><g stroke="#31581e" stroke-width=".379"><path fill="#417427" d="M-70.223 88.75c-3.874 1.154-5.283-3.185-7.165-4.482-4.762-3.285-4.148-4.705-6.47-7.515 1.17 1.146 14.337 3.601 13.635 11.997z" transform="matrix(-.50731 -.12533 -.12531 .50702 -11.726 -14.966)"/><path fill="none" d="M-70.223 88.75c-1.24-3.508-12.558-10.547-13.213-11.67" transform="matrix(-.50731 -.12533 -.12531 .50702 -11.726 -14.966)"/></g><g stroke="#31581e" stroke-width=".478"><path fill="#417427" d="M-70.223 88.75c-3.874 1.154-5.283-3.185-7.165-4.482-4.762-3.285-4.148-4.705-6.47-7.515 1.17 1.146 14.337 3.601 13.635 11.997z" transform="rotate(.94 858.346 2502.187)scale(.41434 .4135)"/><path fill="none" d="M-70.223 88.75c-1.24-3.508-12.558-10.547-13.213-11.67" transform="rotate(.94 858.346 2502.187)scale(.41434 .4135)"/></g><g stroke="#31581e" stroke-width=".525"><path fill="#417427" d="M-132.01 99.891c-1.488-.43-5.292-4.233-11.146-3.34-6.218-3.01-8.566.76-13.626 2.017 6.615 2.778 17.396-.132 24.772 1.323z" transform="matrix(.28133 .15764 -.19328 .39634 68.603 16.359)"/><path fill="none" d="M-132.01 99.891c-10.319-4.928-20.77-.86-24.772-1.323" transform="matrix(.28133 .15764 -.19328 .39634 68.603 16.359)"/></g><g stroke="#31581e" stroke-width=".453"><path fill="#417427" d="M-60.611 104.75s2.684-3.34 6.68-4.176c1.326-.278 3.802 1.148 10.088 1.23-.82-2.121-3.24-4.794-6.862-5.294-1.377-.19-8.845 2.861-9.906 8.24z" transform="rotate(155.62 -15.282 -5.207)scale(.44096 -.43416)"/><path fill="none" d="M-60.303 103.66c3.976-8.933 16.156-2.191 16.46-1.864" transform="rotate(155.62 -15.282 -5.207)scale(.44096 -.43416)"/></g><g stroke="#31581e" stroke-width=".507"><path fill="#417427" d="M-132.01 99.891c-1.488-.43-5.292-4.233-11.146-3.34-6.218-3.01-8.566.76-13.626 2.017 6.615 2.778 17.396-.132 24.772 1.323z" transform="matrix(.26736 -.186 .25583 .39146 28.386 -36.87)"/><path fill="none" d="M-132.01 99.891c-10.319-4.928-20.77-.86-24.772-1.323" transform="matrix(.26736 -.186 .25583 .39146 28.386 -36.87)"/></g><path fill="#29281c" d="M12.042 4.72c-.025 2.39-1.118 32.24 1.347 34.881-2.944.877-1.852-33.812-1.347-34.881"/><g stroke="#31581e" stroke-width=".372"><path fill="#417427" d="M-68.581 96.054c4.73-3.175-.397 4.266-3.307 3.903-2.018.198-1.489 5.39-1.985 5.688-2.315-.198-5.82-10.749 5.292-9.591z" transform="matrix(.50121 .17932 -.1805 .50167 67.983 -13.131)"/><path fill="none" d="M-68.581 96.054c-6.714 3.671-6.581 6.35-5.292 9.591" transform="matrix(.50121 .17932 -.1805 .50167 67.983 -13.131)"/></g><path fill="#29281c" d="M11.999 3.771s-.59-3.433 1.232-2.065C11.737.724 12.192 3.62 12 3.77"/><path fill="#29281c" d="M11.99 4.46s.589-3.434-1.233-2.066c1.494-.982 1.04 1.916 1.233 2.066"/><g stroke-width="2.05"><path fill="#b8a9d7" stroke="#9680c4" stroke-width=".406" d="M-38.847 53.933s1.836-2.033 2.466-1.836c2.424-2.72 1.724-.365.813.602.056.912-1.976 2.986-2.06 3.028-.658.155-1.737-.616-1.219-1.794z" transform="matrix(-.43795 .17342 .15781 .48091 -10.61 -16.969)"/><path fill="#dedee2" stroke="#d0d0d7" stroke-width=".406" d="M-39.892 54.721c-.132.651-1.356.532-1.222 1.125.16.712 1.132.428 1.132.428s-.014.42.21.519c1.01-.533 2.046-.112 2.172-1.01z" transform="matrix(-.43795 .17342 .15781 .48091 -10.61 -16.969)"/><path fill="#ebe6b1" d="M15.383 2.54s-.132.084-.157.2c.078.068.612.108.157-.2"/><path fill="#efeff1" stroke="#d0d0d7" stroke-width=".406" d="M-37.6 55.783c-.575-.533-2.6-.971-2.732-1.416-.049-.164.392-1.29.952-.434.827-.645.453.619.715.897.327.346 1.065.953 1.065.953z" transform="matrix(-.43795 .17342 .15781 .48091 -10.61 -16.969)"/></g><g stroke-width="2.318"><path fill="#b8a9d7" stroke="#9680c4" stroke-width=".459" d="M-38.847 53.933s1.836-2.033 2.466-1.836c2.424-2.72 1.724-.365.813.602.056.912-1.976 2.986-2.06 3.028-.658.155-1.737-.616-1.219-1.794z" transform="matrix(.38813 .15299 -.13986 .42424 31.99 -14.125)"/><path fill="#dedee2" stroke="#d0d0d7" stroke-width=".459" d="M-39.892 54.721c-.132.651-1.356.532-1.222 1.125.16.712 1.132.428 1.132.428s-.014.42.21.519c1.01-.533 2.046-.112 2.172-1.01z" transform="matrix(.38813 .15299 -.13986 .42424 31.99 -14.125)"/><path fill="#ebe6b1" d="M8.953 3.085s.117.073.139.176c-.07.06-.542.096-.139-.176"/><path fill="#efeff1" stroke="#d0d0d7" stroke-width=".459" d="M-37.6 55.783c-.575-.533-2.6-.971-2.732-1.416-.049-.164.392-1.29.952-.434.827-.645.453.619.715.897.327.346 1.065.953 1.065.953z" transform="matrix(.38813 .15299 -.13986 .42424 31.99 -14.125)"/></g><path fill="#29281c" d="M11.876 7.39s-.047-3.496-1.582-1.74c1.284-1.303 1.365 1.637 1.582 1.74"/><g stroke-width="2.1"><path fill="#b8a9d7" stroke="#9680c4" stroke-width=".416" d="M-38.847 53.933s1.836-2.033 2.466-1.836c2.424-2.72 1.724-.365.813.602.056.912-1.976 2.986-2.06 3.028-.658.155-1.737-.616-1.219-1.794z" transform="matrix(.44828 .0692 -.0644 .4957 29.708 -17.53)"/><path fill="#dedee2" stroke="#d0d0d7" stroke-width=".416" d="M-39.892 54.721c-.132.651-1.356.532-1.222 1.125.16.712 1.132.428 1.132.428s-.014.42.21.519c1.01-.533 2.046-.112 2.172-1.01z" transform="matrix(.44828 .0692 -.0644 .4957 29.708 -17.53)"/><path fill="#ebe6b1" d="M8.429 6.917s.14.05.184.156c-.062.083-.563.24-.184-.156"/><path fill="#efeff1" stroke="#d0d0d7" stroke-width=".416" d="M-37.6 55.783c-.575-.533-2.6-.971-2.732-1.416-.049-.164.392-1.29.952-.434.827-.645.453.619.715.897.327.346 1.065.953 1.065.953z" transform="matrix(.44828 .0692 -.0644 .4957 29.708 -17.53)"/></g><path fill="#29281c" d="M11.722 13.304s.35-3.474-1.372-1.953c1.423-1.108 1.168 1.82 1.372 1.953"/><g stroke-width="1.712"><path fill="#b8a9d7" stroke="#9680c4" stroke-width=".339" d="M-38.847 53.933s1.836-2.033 2.466-1.836c2.424-2.72 1.724-.365.813.602.056.912-1.976 2.986-2.06 3.028-.658.155-1.737-.616-1.219-1.794z" transform="matrix(.53495 .16269 -.14765 .59265 37.047 -13.423)"/><path fill="#dedee2" stroke="#d0d0d7" stroke-width=".339" d="M-39.892 54.721c-.132.651-1.356.532-1.222 1.125.16.712 1.132.428 1.132.428s-.014.42.21.519c1.01-.533 2.046-.112 2.172-1.01z" transform="matrix(.53495 .16269 -.14765 .59265 37.047 -13.423)"/><path fill="#ebe6b1" d="M7.77 12.64s.164.086.203.223c-.087.09-.718.193-.203-.223"/><path fill="#efeff1" stroke="#d0d0d7" stroke-width=".339" d="M-37.6 55.783c-.575-.533-2.6-.971-2.732-1.416-.049-.164.392-1.29.952-.434.827-.645.453.619.715.897.327.346 1.065.953 1.065.953z" transform="matrix(.53495 .16269 -.14765 .59265 37.047 -13.423)"/></g><path fill="#29281c" d="M11.716 14.445s.294-3.481 1.7-1.594c-1.188-1.413-1.477 1.511-1.7 1.594"/><path fill="#b8a9d7" stroke="#9680c4" stroke-width=".191" d="M-48.965-1.404c.857-.6 1.394-.13 1.87-.173-.366.435-.775 1.05-1.224 1.34-.888.573-1.847.285-1.87.674-.119-.084-.159-.256.023-.39-.157-.113-.383-.513-.076-.651.006.726.656-.364 1.277-.8z" transform="matrix(-1 0 0 1.0792 -34.117 14.181)"/><path fill="#29281c" d="M11.857 9.477s.701-3.406 1.873-1.327c-1.012-1.577-1.642 1.278-1.873 1.327"/><path fill="#b8a9d7" stroke="#9680c4" stroke-width=".191" d="M-49.115-5.603c.702-.646 1.24-.29 1.664-.388-.28.436-.576 1.04-.947 1.356-.734.626-1.63.486-1.606.839-.117-.061-.173-.21-.025-.353-.155-.082-.404-.414-.144-.576.09.652.549-.41 1.058-.878z" transform="matrix(-1 0 0 1.0792 -34.117 14.181)"/><path fill="#29281c" d="M11.856 16.752s-.295-3.48-1.7-1.593c1.187-1.413 1.476 1.51 1.7 1.593"/><path fill="#b8a9d7" stroke="#9680c4" stroke-width=".191" d="M-42.759.746c-.893-.627-1.453-.136-1.95-.18.382.453.808 1.096 1.276 1.398.926.599 1.925.298 1.95.704.123-.088.165-.267-.025-.406.165-.119.4-.537.08-.68-.007.757-.684-.381-1.331-.836z" transform="matrix(-1 0 0 1.0792 -34.117 14.181)"/><path fill="#29281c" d="M11.866 9.689s-.015-3.497-1.566-1.76c1.296-1.287 1.35 1.655 1.566 1.76"/><g stroke-width="1.711"><path fill="#b8a9d7" stroke="#9680c4" stroke-width=".339" d="M-38.847 53.933s1.836-2.033 2.466-1.836c2.424-2.72 1.724-.365.813.602.056.912-1.976 2.986-2.06 3.028-.658.155-1.737-.616-1.219-1.794z" transform="matrix(.54851 .09139 -.08464 .60853 34.23 -20.205)"/><path fill="#dedee2" stroke="#d0d0d7" stroke-width=".339" d="M-39.892 54.721c-.132.651-1.356.532-1.222 1.125.16.712 1.132.428 1.132.428s-.014.42.21.519c1.01-.533 2.046-.112 2.172-1.01z" transform="matrix(.54851 .09139 -.08464 .60853 34.23 -20.205)"/><path fill="#ebe6b1" d="M7.872 9.55s.172.064.224.195c-.077.101-.692.286-.224-.194"/><path fill="#efeff1" stroke="#d0d0d7" stroke-width=".339" d="M-37.6 55.783c-.575-.533-2.6-.971-2.732-1.416-.049-.164.392-1.29.952-.434.827-.645.453.619.715.897.327.346 1.065.953 1.065.953z" transform="matrix(.54851 .09139 -.08464 .60853 34.23 -20.205)"/></g><g stroke-width="1.879"><path fill="#b8a9d7" stroke="#9680c4" stroke-width=".372" d="M-119.38 138.8s.271-3.458 1.3-3.602c.341-2.739 1.427-1.696.921.124 1.03.74.368 3.097.383 4.165z" transform="matrix(.49368 .04507 -.04132 .56986 75.243 -60.574)"/><path fill="#dedee2" stroke="#d0d0d7" stroke-width=".372" d="M-119.6 139.86c-.405.395-.29 2.065-.058 1.986.193.03.608-.998.599-1.117-.28 1.887 1.36.939 1.08.02.493.524.32 1.166.503 1.195.53.05.936-1.53.743-2.45l-1.631-.256z" transform="matrix(.49368 .04507 -.04132 .56986 75.243 -60.574)"/><path fill="#ebe6b1" d="M10.69 13.572s.317.032.456.033c.007.797-.537 1.291-.456-.033"/><path fill="#efeff1" stroke="#d0d0d7" stroke-width=".372" d="M-118.75 138.84c.874-.489 2.02.657 2.02.657-.04.39-1.255.125-1.842.055 0 0-1.31.63-1.652.378-.382-.67 1.05-1.467 1.474-1.09z" transform="matrix(.49368 .04507 -.04132 .56986 75.243 -60.574)"/></g><g stroke-width="2.453"><path fill="#b8a9d7" stroke="#9680c4" stroke-width=".486" d="M-119.38 138.8s.271-3.458 1.3-3.602c.341-2.739 1.427-1.696.921.124 1.03.74.368 3.097.383 4.165z" transform="matrix(-.3417 .17736 .1642 .40102 -50.033 -28.455)"/><path fill="#dedee2" stroke="#d0d0d7" stroke-width=".486" d="M-119.6 139.86c-.405.395-.29 2.065-.058 1.986.193.03.608-.998.599-1.117-.28 1.887 1.36.939 1.08.02.493.524.32 1.166.503 1.195.53.05.936-1.53.743-2.45l-1.631-.256z" transform="matrix(-.3417 .17736 .1642 .40102 -50.033 -28.455)"/><path fill="#ebe6b1" d="M13.567 6.38s-.218.116-.317.158c.183.58.688.778.317-.158"/><path fill="#efeff1" stroke="#d0d0d7" stroke-width=".486" d="M-118.75 138.84c.874-.489 2.02.657 2.02.657-.04.39-1.255.125-1.842.055 0 0-1.31.63-1.652.378-.382-.67 1.05-1.467 1.474-1.09z" transform="matrix(-.3417 .17736 .1642 .40102 -50.033 -28.455)"/></g><g stroke="#31581e" stroke-width=".438"><path fill="#417427" d="M-60.611 104.75s2.684-3.34 6.68-4.176c1.326-.278 3.802 1.148 10.088 1.23-.82-2.121-3.24-4.794-6.862-5.294-1.377-.19-8.845 2.861-9.906 8.24z" transform="matrix(-.42191 0 0 .48501 -13.776 -19.53)"/><path fill="none" d="M-60.303 103.66c3.976-8.933 16.156-2.191 16.46-1.864" transform="matrix(-.42191 0 0 .48501 -13.776 -19.53)"/></g><g stroke="#31581e" stroke-width=".527"><path fill="#417427" d="M-70.223 88.75c-5.816.126-10.374-7.742-13.634-11.997 1.17 1.146 14.336 3.602 13.634 11.997z" transform="matrix(-.3682 .07594 .07569 .36765 -20.836 -4.883)"/><path fill="none" d="M-70.223 88.75c-1.24-3.508-12.558-10.547-13.213-11.67" transform="matrix(-.3682 .07594 .07569 .36765 -20.836 -4.883)"/></g><g stroke="#31581e" stroke-width=".38"><path fill="#417427" d="M-70.223 88.75c-5.816.126-10.374-7.742-13.634-11.997 1.17 1.146 14.336 3.602 13.634 11.997z" transform="matrix(.49542 -.15766 .1562 .49903 33.756 -16.361)"/><path fill="none" d="M-70.223 88.75c-1.24-3.508-12.558-10.547-13.213-11.67" transform="matrix(.49542 -.15766 .1562 .49903 33.756 -16.361)"/></g><g stroke-width="1.879"><path fill="#b8a9d7" stroke="#9680c4" stroke-width=".372" d="M-119.38 138.8s.271-3.458 1.3-3.602c.341-2.739 1.427-1.696.921.124 1.03.74.368 3.097.383 4.165z" transform="matrix(-.48084 .13336 .12225 .55504 -61 -43.255)"/><path fill="#dedee2" stroke="#d0d0d7" stroke-width=".372" d="M-119.6 139.86c-.405.395-.29 2.065-.058 1.986.193.03.608-.998.599-1.117-.28 1.887 1.36.939 1.08.02.493.524.32 1.166.503 1.195.53.05.936-1.53.743-2.45l-1.631-.256z" transform="matrix(-.48084 .13336 .12225 .55504 -61 -43.255)"/><path fill="#ebe6b1" d="M13.317 18.31s-.308.089-.445.115c.107.788.714 1.178.445-.115"/><path fill="#efeff1" stroke="#d0d0d7" stroke-width=".372" d="M-118.75 138.84c.874-.489 2.02.657 2.02.657-.04.39-1.255.125-1.842.055 0 0-1.31.63-1.652.378-.382-.67 1.05-1.467 1.474-1.09z" transform="matrix(-.48084 .13336 .12225 .55504 -61 -43.255)"/></g></g></svg>