<svg xmlns="http://www.w3.org/2000/svg" xml:space="preserve" width="244.973" height="302.794" viewBox="0 0 64.815 80.114"><g fill="#537d73" stroke="#537d73" stroke-linecap="round" stroke-linejoin="round" stroke-miterlimit="5"><path stroke-width=".198" d="M42.241 79.791c.882-1.193 2.198-4.713 3.421-9.262 1.271-4.726 2.312-10.03 3.111-15.673 1.552-10.954 1.949-21.317 1.949-21.317.955-7.885.932-13.417.932-13.417-.307 2.192-.613 4.426-.914 6.618l.099-1.055s-.124 1.015-.334 2.763a880 880 0 0 1-2.063 12.698c1.188-10.84 1.988-21.682 3.312-32.523 0 0-1.514 10.583-3.673 28.815.372-6.323.654-12.646 1.012-18.969 0 0-.569 6.217-1.318 14.691-.8-3.35-.55-2.488-.552-8.072-.673 5.93-.995 7.772-1.195 8.387-.195.6-.254-.071-.396.76.276-6.241.058-2.749.244-8.08l.528-5.39a1597 1597 0 0 0-.476 3.903c.29-8.336.564-14.223.564-14.223-.439 6.124-.756 12.382-1.08 18.505.326-1.497-1.554 7.144-1.229 5.646.248-3.795.58-9.282.828-13.078-.78 5.562-1.525 11.123-2.316 16.685 1.21-16.25 1.89-25.633 1.89-25.633-.729 7.786-1.293 15.571-1.94 23.357.126-5.035.239-11.358.364-16.393 0 0-.537 10.17-2.205 14.666.785-18.076 1.466-25.979 1.466-25.979-.952 9.361-1.78 20.622-2.575 29.983q.089-2.599.169-5.199c.51-8.8.627-9.137.627-9.137-.158 2.054-.458 6.03-.616 8.083l.135-4.53-.54 9.76c.357-6.799.588-11.993.946-18.792-.464 5.099-1.223 14.193-1.687 19.291.343-8.88.59-17.76 1.003-26.64 0 0-.778 10.286-1.607 27.164a1386 1386 0 0 0-.269-5.847c.262-7.09.418-12.083.418-12.083-.142 2.474-.28 4.98-.415 7.455 0 3.929.006-11.064.005-7.135.11 6.221-.207 11.554-1.36 17.61q.048-2.102.09-4.203c.5-8.1 1.018-17.063 1.632-25.163 0 0-.797 9.17-1.612 20.914.364-18.774-.217 11.236.147-7.538 0 0-.25 5.734-.563 13.567-.16 2.335-.287.458-.29.34.171-13.7-.018-19.512-.018-19.512-.156 5.886-.279 11.773-.42 17.659-.2-6.28-.563-15.66-.625-17.272l.049-2.2-.07 1.625-.05-1.275.026 1.808c-.12 2.823-.234 5.676-.345 8.499v-.024l-.002.069-.201 5.149-.087-5.164s-.033 3.659-.066 9.056c.01-.132-.232 2.734-.22 2.602.057-19.425-.26-32.94-.26-32.94-.329 10.835-.503 22.626-.725 33.461l-.28-3.55-.026-1.017c-.037-6.384-.09-10.796-.09-10.796l-.065 5.013-.702-8.854c.058 12.74.249 13.894-.795 18.308.109-11.71.18-24.017.378-35.727-.532 11.393-1.045 26.528-1.45 37.92l.027 1.68c.105-14.321.063-27.115.063-27.115-.118 5.87-.233 12.258-.34 18.127-.062-1.976-.778-23.875-.84-25.851 0 0 .27 17.832.654 35.996l-.204-2.838c-.366-6.96-.883-16.32-1.278-23.28l.239 21.575c-.285-4.28-.611-9.089-.907-13.369-.075-6.676-.158-13.793-.25-20.47 0 0-.044 6.508-.079 15.726l-.306-4.32s.113 2.27.3 5.964c-.02 5.856-.034 12.785-.017 19.647-.61-11.477-1.216-21.001-1.216-21.001 0 12.607-.002 6.92-.002 19.528L24.91 28.49c-.394-9.379-.745-16.26-.745-16.26.306 10.023.545 20.045.829 30.067-.651-10.152-1.336-20.283-1.93-28.067-.588-7.726-1.081-12.928-1.081-12.928.866 11.302 1.702 26.353 2.371 37.655h-.158c-.49-4.641-1.17-11.091-1.67-15.732-.143-1.934-.23-3.055-.23-3.055 0 .014.06 1.15.062 1.164-.16-1.786-.323-3.587-.489-5.374a665 665 0 0 0-.138-2.367l.056 1.482-.1-1.068.124 1.721c.223 6.166.557 17.063.78 23.228h-.032c-.582-6.898-1.141-13.796-1.74-20.694 0 0 .415 6.892 1.276 20.694h-.168c-1.122-14.849-2.094-23.128-2.094-23.128.322 6.207.8 16.921 1.122 23.128l-.554-2.013c-.667-10.431-1.374-22.898-2.247-33.33 0 0 .595 10.228 1.222 23.194-.401-3.978-.823-8.123-1.253-12.101 0 0 .674 8.21 1.585 18.81q.179 3.507.38 7.087c-1.244-11.442-2.313-20.934-2.313-20.934.633 5.856 1.411 13.43 2.044 19.286h-.02c-1.097-7.292-2.742-18.528-3.907-25.82l-.065-.596.031.36-.02-.147.03.25c.844 9.848 1.515 19.696 2.339 29.543-1.417-11.722-2.013-17.126-3.028-25.006-.8-6.216-1.369-9.919-1.369-9.919 1.65 12.248 2.881 24.497 4.385 36.745-1.349-7.84-2.171-12.93-3.473-20.77-.24-1.928-.382-3.043-.382-3.043l.119 1.161c-.34-2.422-.688-4.874-1.044-7.297l1.823 14.997c.792 7.862 1.283 18.34 2.456 27.906 1.184 9.649 3.021 18.144 5.235 22.445 2.207.032 5.894.03 9.507.023 3.6-.006 7.504-.017 9.805-.001q0 0 0 0zM15.962 13.807c.446 3.775 1.674 11.492 3.342 25.252q.019 1.497.04 2.994c-.684-4.632-1.262-8.646-1.928-13.277-.723-7.816-1.114-11.737-1.454-14.97zm18.857 4.366c.198 6.524.42 13.048.6 19.57 0 0-.745-13.031-.6-19.57m-12.803.404c.265 3.716.48 6.79.745 10.505-.082-2.552.409 12.43.326 9.879-.502-11.014-.715-13.881-1.071-20.384zm5.313 9.75c.249 4.822.007 10.634.007 10.634zm17.869 4.637c-.328 1.752-.655 3.487-.99 5.24.464-4.158.632-1.737.99-5.24"/><g stroke-width=".212"><path d="M-14.038 37.229s.993 13.453 3.335 27.173c1.17 6.86 2.619 13.733 4.03 18.982 1.41 5.238 2.715 8.809 4.073 9.07-2.249-2.33-5.687-16.742-7.98-29.635-2.343-13.182-3.458-25.59-3.458-25.59zM-21.17 54.479s2.86 9.532 6.689 19.216c1.867 4.723 3.998 9.706 5.766 13.204 1.812 3.587 3.366 5.953 4.745 5.945-2.428-1.331-6.845-11.207-10.56-20.3-3.793-9.289-6.64-18.065-6.64-18.065z" transform="matrix(.99125 -.11572 .13203 .8688 14.907 -1.473)"/><path d="M-20.432 41.296s2.43 12.631 6.24 25.527c1.873 6.336 4.059 12.932 5.895 17.69 1.868 4.839 3.432 8.074 4.812 8.172-1.334-1.123-3.004-4.962-4.88-9.972-1.867-4.986-4.016-11.394-5.87-17.488-3.756-12.347-6.197-23.929-6.197-23.929zM-10.605 35.14s.396 13.913 2.066 28.1c.839 7.126 1.947 14.198 3.125 19.688 1.17 5.452 2.325 9.2 3.66 9.545-2.168-2.566-4.928-17.488-6.591-30.856-1.698-13.64-2.26-26.477-2.26-26.477z" transform="matrix(.99125 -.11572 .13203 .8688 14.907 -1.473)"/><path d="M-16.45 43.692s1.71 11.967 4.649 24.154c1.453 6.029 3.172 12.212 4.722 16.764 1.565 4.596 2.96 7.687 4.326 7.815-2.298-1.886-6.137-14.57-8.995-26.005-2.925-11.7-4.702-22.729-4.702-22.729z" transform="matrix(.99125 -.11572 .13203 .8688 14.907 -1.473)"/><path d="M-12.869 30.873s.673 14.968 2.758 30.208c1.049 7.669 2.393 15.238 3.758 21.131 1.352 5.839 2.618 9.831 3.97 10.147-1.2-1.353-2.507-5.986-3.83-11.985-1.351-6.123-2.667-13.499-3.727-20.92-2.098-14.689-2.929-28.581-2.929-28.581" transform="matrix(.99125 -.11572 .13203 .8688 14.907 -1.473)"/></g><g stroke-width=".19"><path d="M-13.997 37.199s.855 13.461 3 27.1C-9.912 71.208-8.55 77.9-7.113 83.221c1.414 5.233 2.76 8.826 4.107 9.12-2.34-2.481-5.735-16.707-7.853-29.619-2.15-13.11-3.14-25.522-3.14-25.522zM-21.04 54.471s2.512 9.474 6.189 19.071c1.816 4.742 3.892 9.597 5.708 13.15 1.833 3.589 3.42 5.982 4.786 6.005-2.44-1.395-6.968-11.285-10.527-20.299C-18.52 63.19-21.04 54.47-21.04 54.47z" transform="matrix(1.0836 -.06159 .05794 .99832 23.437 -13.179)"/><path d="M-20.119 41.313s2.1 12.624 5.651 25.399c1.779 6.397 3.847 12.76 5.734 17.614 1.88 4.834 3.487 8.095 4.856 8.225-1.328-1.147-3.053-5.022-4.926-10.016-1.905-5.081-3.923-11.253-5.683-17.412-3.497-12.238-5.632-23.81-5.632-23.81zM-10.687 35.096s.328 13.92 1.835 28.047c1.507 14.134 4.037 28.48 6.686 29.237-2.256-2.73-4.96-17.442-6.479-30.855-1.54-13.586-2.042-26.429-2.042-26.429" transform="matrix(1.0836 -.06159 .05794 .99832 23.437 -13.179)"/><path d="M-16.34 43.671s1.468 11.957 4.217 24.056c1.38 6.07 3.022 12.086 4.607 16.709 1.575 4.595 3.005 7.71 4.36 7.871-2.353-1.99-6.213-14.598-8.896-25.999-2.736-11.622-4.288-22.637-4.288-22.637z" transform="matrix(1.0836 -.06159 .05794 .99832 23.437 -13.179)"/><path d="M-12.892 30.838s.193 3.746.582 9.385c.396 5.752.979 13.063 1.932 20.766.957 7.73 2.199 15.095 3.583 21.067C-5.443 87.888-4.13 91.9-2.79 92.249c-2.308-2.658-5.526-18.441-7.4-32.882-.962-7.406-1.596-14.362-2.037-19.752a618 618 0 0 1-.664-8.777z" transform="matrix(1.0836 -.06159 .05794 .99832 23.437 -13.179)"/></g><g stroke-width=".198"><path d="M60.744 25.92s-.614 3.316-1.752 8.29c-1.173 5.128-2.795 11.466-5.094 18.27-4.494 13.304-11.122 26.66-14.07 26.862 3.246-2.28 9.818-15.708 14.171-28.448 2.225-6.512 3.832-12.509 4.994-17.278 1.132-4.645 1.752-7.696 1.752-7.696zM64.39 46.523s-3.644 8.458-8.922 16.939c-5.244 8.426-11.43 16.767-14.312 16.427 3.039-1.093 9.51-9.596 14.565-17.563 5.133-8.09 8.67-15.803 8.67-15.803"/><path d="M64.716 38.427S61.254 48.76 55.803 59.15c-5.427 10.345-12.184 20.657-15.114 20.525 3.236-1.847 10.262-12.413 15.429-22.104 5.252-9.851 8.597-19.143 8.597-19.143zM57.517 23.428s-.513 3.444-1.455 8.619c-.963 5.296-2.314 11.964-4.273 19.017-1.974 7.107-4.325 13.714-6.8 19.158-2.395 5.269-4.578 8.852-6.042 9.038 1.554-1.237 3.882-5.442 6.24-10.877 2.452-5.654 4.71-12.112 6.635-18.953 1.901-6.75 3.256-13.07 4.221-17.996a306 306 0 0 0 1.474-8.006z"/><path d="M62.484 32.627s-2.933 11.688-7.942 23.401c-5 11.693-11.646 23.369-14.548 23.303 3.09-1.731 9.89-13.6 14.71-24.723 4.868-11.234 7.78-21.981 7.78-21.981z"/><path d="M60.32 19.468s-.625 3.699-1.713 9.25c-1.113 5.675-2.648 12.842-4.853 20.395-2.23 7.638-4.862 14.672-7.617 20.51-2.658 5.631-5.031 9.443-6.51 9.598 1.583-1.202 4.124-5.645 6.739-11.437 2.732-6.05 5.259-12.934 7.436-20.307 2.14-7.245 3.679-14.071 4.791-19.373 1.093-5.21 1.726-8.636 1.726-8.636"/></g><g stroke-width=".19"><path d="M-13.786 37.174s.233 3.365.735 8.431c.51 5.143 1.285 11.761 2.58 18.65 1.315 6.992 3.024 13.485 5.016 18.898 1.925 5.233 3.845 8.842 5.311 9.163-1.482-1.339-3.47-5.538-5.34-10.936-1.943-5.608-3.58-11.973-4.874-18.702-1.27-6.6-2.081-12.874-2.625-17.665-.537-4.738-.803-7.84-.803-7.84zM-21.088 54.452s2.504 9.457 6.77 19.017c4.25 9.524 9.824 19.078 12.773 19.178-3.004-1.544-8.712-11.248-12.843-20.318-4.178-9.173-6.7-17.877-6.7-17.877z" transform="matrix(-1.0854 -.00732 -.00794 .99997 39.78 -12.905)"/><path d="M-20.046 41.295s.502 3.162 1.48 7.91c1.007 4.895 2.428 10.945 4.485 17.454 4.021 12.724 10.067 25.537 13.032 25.85-3.202-2.397-9.18-15.27-13.082-27.437-3.91-12.19-5.915-23.777-5.915-23.777zM-10.433 35.073s.118 3.479.42 8.721c.303 5.278.796 12.216 1.758 19.311.985 7.26 2.365 13.974 4.108 19.625 1.68 5.45 3.452 9.237 4.893 9.643-1.422-1.452-3.231-5.841-4.848-11.461-1.681-5.848-2.997-12.436-3.975-19.421-.951-6.8-1.498-13.385-1.848-18.301a420 420 0 0 1-.508-8.116z" transform="matrix(-1.0854 -.00732 -.00794 .99997 39.78 -12.905)"/><path d="M-16.177 43.646s1.378 11.968 4.606 24.029c1.647 6.155 3.651 11.968 5.778 16.688 2.072 4.597 4.024 7.732 5.484 7.919C-3.364 90.02-8.367 77.85-11.533 66.26c-3.165-11.587-4.644-22.613-4.644-22.613z" transform="matrix(-1.0854 -.00732 -.00794 .99997 39.78 -12.905)"/><path d="M-12.691 30.816s.216 3.744.632 9.381c.417 5.645 1.046 13.165 2.169 20.754 1.157 7.82 2.73 14.977 4.687 21.045 1.88 5.831 3.812 9.86 5.274 10.234-1.458-1.419-3.444-6.06-5.256-12.057-1.893-6.265-3.394-13.297-4.54-20.84-1.109-7.289-1.793-14.466-2.252-19.742-.462-5.3-.714-8.774-.714-8.774z" transform="matrix(-1.0854 -.00732 -.00794 .99997 39.78 -12.905)"/></g></g><g fill="#76ad9f" stroke="#537d73" stroke-linecap="round" stroke-linejoin="round" stroke-miterlimit="5"><g stroke-width=".198"><path d="M5.916 57.514c2.899-1.035 6.316.483 9.245 3.667 2.966 3.224 5.358 8.023 6.67 13.754-.15-3.542-2.15-8.84-5.143-12.8-2.98-3.943-6.958-6.55-10.772-4.62zM63.882 58.294s-5.623 3.2-10.651 7.373c-5.163 4.285-9.438 9.301-9.77 13.44 1.478-4.474 5.856-9.425 10.784-13.667 4.773-4.109 9.636-7.146 9.636-7.146z"/><path d="M61.793 62.412c-2.716-1.953-6.282-1.255-9.482 1.376-3.254 2.675-6.072 7.224-7.972 13.198.56-3.94 3.116-9.023 6.534-12.444 3.37-3.374 7.647-5.115 10.92-2.13z"/></g><g stroke-width=".198"><path d="M63.415 65.516s-4.74 1.22-9.096 3.14c-4.469 1.97-8.431 4.566-9.329 7.522 1.755-2.885 5.794-5.462 10.08-7.461 4.174-1.948 8.345-3.2 8.345-3.2z"/><path d="M55.257 71.172s-2.949.884-5.789 2.33c-2.9 1.478-5.586 3.46-6.272 5.793 1.241-2.253 3.968-4.226 6.74-5.73 2.714-1.47 5.321-2.393 5.321-2.393M5.339 67.045s4.504 1.22 8.632 3.14c4.236 1.97 7.971 4.565 8.758 7.522-1.604-2.885-5.413-5.462-9.471-7.461-3.953-1.948-7.92-3.2-7.92-3.2M14.784 13.138s.608 4.013 1.455 10.07c.835 5.978 1.952 14.24 3.128 22.343 2.374 16.366 5.318 33.052 5.102 34.33-5.46-29.978-5.667-36.766-9.685-66.744z"/><path d="M13.65 15.423s.639 3.877 1.553 9.73c.942 6.023 2.09 13.515 3.418 21.593 2.602 15.817 5.747 31.945 5.544 33.19-5.698-28.624-6.297-35.889-10.515-64.513zM11.918 21.233s.561 3.545 1.438 8.89c.904 5.514 2.054 12.327 3.481 19.704 2.79 14.42 6.38 29.08 7.06 30.051-5.963-25.619-7.355-33.026-11.98-58.645z"/><path d="M12.83 18.802s.588 3.663 1.453 9.192c.897 5.731 1.985 12.725 3.283 20.398 2.528 14.943 5.664 30.18 5.455 31.36-5.194-24.535-6.688-36.414-10.192-60.95zM9.08 13.534s.665 4.007 1.643 10.048c.99 6.105 2.275 14.061 3.828 22.272 3.081 16.3 7.335 32.875 8.073 33.984C15.126 49.49 14.692 43.882 9.08 13.533zM35.663 2.805s-.761 18.443-1.342 37.235-1.152 37.936-.776 39.333c.914-25.523 1.32-51.046 2.118-76.569"/><path d="M34.267.682s-.491 19.05-.808 38.456-.61 39.174-.219 40.608c.582-26.355.64-52.71 1.027-79.064M37.975 9.445s-.695 16.865-1.568 34.032c-.874 17.171-2.108 34.651-2.612 35.888 1.469-23.307 2.696-46.613 4.18-69.92"/><path d="M41.447 5.37s-.471 4.45-1.108 11.164c-.636 6.715-1.44 15.694-2.318 24.754a1467 1467 0 0 1-2.655 25.234c-.805 7.035-1.413 11.964-1.69 12.604.437-4.517 7.227-69.239 7.771-73.756M43.175 3.673s-.583 4.588-1.357 11.511C40.79 24.39 40.061 31.5 39.032 40.705a1459 1459 0 0 1-3.144 26.013c-.945 7.251-1.643 12.331-1.93 12.988.535-4.813 8.54-71.219 9.217-76.032z"/><path d="M36.857 11.86s-.638 16.318-1.2 32.946-1.257 33.566-.892 34.806c1.267-25.544 1.398-42.208 2.092-67.752M46.072 12.667s-.412 4.037-.997 10.128c-.574 5.97-1.362 14.358-2.255 22.455-1.811 16.438-4.412 33.164-5.022 34.32 4.94-33.021 4.344-33.882 8.274-66.904z"/><path d="M47.779 10.465s-.49 4.164-1.172 10.447c-.656 6.05-1.584 14.917-2.585 23.161-2.059 16.952-5.002 34.202-5.638 35.392 5.98-36.305 4.527-32.695 9.395-69M42.92 18.332s-1.272 14.762-2.629 29.812-3.05 30.388-2.752 31.54c2.832-23.906 3.582-37.447 5.381-61.352zM41.689 14.64s-1.365 15.628-2.73 31.56-2.954 32.166-2.65 33.382c3.001-28.89 3.139-36.052 5.38-64.941"/><path d="M40.386 12.694s-1.147 16.155-2.264 32.62-2.466 33.246-2.148 34.493c2.518-28.65 2.644-38.464 4.412-67.114zM43.778 20.376s-1.235 14.293-2.855 28.83C39.3 63.746 37.158 78.542 36.585 79.56c2.687-19.728 4.97-39.456 7.192-59.184M18.95 5.788s.546 4.445 1.242 11.156c.697 6.71 1.544 15.687 2.44 24.75 1.792 18.126 4.04 36.597 3.78 37.98-3.175-24.628-4.857-49.257-7.462-73.885z"/><path d="M20.148 3.282s.51 4.596 1.135 11.532c.711 7.877 1.287 15.275 2.141 25.583 1.554 18.735 3.564 37.824 3.29 39.244-2.905-25.453-4.176-50.905-6.566-76.358z"/><path d="M21.134 15.09s.418 3.903 1.033 9.792c.627 5.996 1.424 13.656 2.353 21.708 1.834 15.888 4.01 32.054 4.576 33.164a19141 19141 0 0 0-7.962-64.663z"/><path d="M19.437 13.161s.512 4.023 1.253 10.091c.753 6.163 1.71 14.091 2.808 22.372 2.172 16.374 4.713 33.032 5.301 34.17-3.054-22.21-6.156-44.422-9.362-66.634z"/></g><g stroke-width=".198"><path d="M33.007 9.379s-.019 17-.186 34.316-.503 34.95-.94 36.22c.155-13.11.886-57.426 1.126-70.536"/><path d="M34.496 7.121s-.316 17.55-.77 35.423c-.453 17.874-1.092 36.074-1.55 37.376.256-9.582 1.97-63.216 2.32-72.798zM30.42 15.41s.015 15.541.2 31.373c.184 15.831.57 31.953 1.013 33.113-.014-.786-1.197-63.7-1.213-64.486M28.832 11.6s.035 16.452.272 33.21c.237 16.76.847 33.825 1.31 35.054-.921-29.039-.942-39.225-1.582-68.265"/><path d="M27.341 9.415s.33 16.985.851 34.281c.522 17.3 1.44 34.913 1.925 36.173-1.104-23.485-1.824-46.97-2.776-70.454M31.428 17.436s-.002 15.041-.112 30.362c-.11 15.322-.232 30.924-.654 32.047-.032-18.36.447-44.048.766-62.409"/><path d="M25.042 12.102s1.601 16.13 3.067 32.575c.741 8.315 1.442 16.432 1.914 22.927.465 6.403.685 10.908.518 11.538a5953 5953 0 0 0-5.499-67.04M23.059 18.08s1.453 14.75 3.141 29.753c1.689 15.008 3.548 30.277 4.09 31.322-.315-2.946-6.872-58.13-7.231-61.077z"/><path d="M24.285 20.375s1.388 14.272 2.736 28.824 2.65 29.384 2.321 30.505a7788 7788 0 0 1-5.057-59.329"/></g><g stroke-width=".145"><path d="M24.809 4.217s-.04 17-.216 34.316c-.175 17.317-.565 34.951-1.008 36.22.119-7.788 1.062-62.748 1.224-70.536" transform="matrix(1.7169 0 0 1.0945 -8.221 -2.066)"/><path d="M26.332 1.96s-.114 4.387-.264 11.009c-.133 5.875-.35 16.223-.561 24.414-.46 17.874-1.162 36.074-1.625 37.376.22-7.222 2.15-65.576 2.45-72.798zM22.184 10.249s.02 15.542.191 31.373c.17 15.831.523 31.953.963 33.113-.148-10.455-.942-54.031-1.154-64.486M20.571 6.438s.06 16.454.277 33.21c.218 16.76.804 33.826 1.267 35.055-.685-22.755-.99-45.51-1.544-68.265" transform="matrix(1.7169 0 0 1.0945 -8.221 -2.066)"/><path d="M19.052 4.253s.124 4.246.281 10.654c.139 5.637.367 15.75.595 23.628.501 17.299 1.403 34.912 1.888 36.172C20.79 52.28 20.078 26.68 19.052 4.253M23.202 12.275s-.002 15.041-.126 30.362c-.125 15.322-.286 30.924-.712 32.047.006-17.323.529-45.086.838-62.409" transform="matrix(1.7169 0 0 1.0945 -8.221 -2.066)"/><path d="M16.73 6.94s.449 4.034 1.044 10.122c.6 6.147 1.334 14.172 2.068 22.454.733 8.275 1.436 16.47 1.9 22.927.46 6.403.67 10.908.502 11.538-.33-4.427-5.102-62.614-5.514-67.04zM14.739 12.917s.394 3.687.971 9.25c.592 5.71 1.326 12.852 2.184 20.504.86 7.677 1.739 14.9 2.512 20.897.752 5.824 1.314 9.903 1.586 10.425-.4-3.773-6.779-57.303-7.253-61.077z" transform="matrix(1.7169 0 0 1.0945 -8.221 -2.066)"/><path d="M15.987 15.213s.37 3.568.887 8.955a5671 5671 0 0 1 1.854 19.869c.666 7.237 1.342 14.66 1.789 20.289.45 5.667.684 9.655.518 10.216-1.77-19.776-3.38-39.553-5.048-59.33z" transform="matrix(1.7169 0 0 1.0945 -8.221 -2.066)"/></g><g stroke-width=".198"><path d="M41.651 17.563s-.58 14.916-1.274 30.115-1.949 30.682-1.619 31.817c2.046-21.274 2.279-40.658 2.893-61.932M43.988 22.952s-.525 13.64-1.542 27.522c-1.017 13.885-2.86 28.02-3.43 29.017 2.646-20.35 3.616-36.188 4.972-56.538zM45.728 19.667s-.55 14.442-1.635 29.135c-.566 7.659-1.243 14.457-2.035 20.476-.75 5.71-1.47 9.716-1.77 10.244 3.1-21.489 3.98-38.365 5.44-59.854z"/><path d="m47.304 17.805-.633 9.342c-.378 5.575-.9 13.175-1.589 20.713-1.385 15.162-3.857 30.595-4.482 31.68 3.707-22.905 4.708-38.832 6.704-61.735zM42.897 24.692s-.504 13.2-1.212 26.646c-.707 13.45-1.989 27.15-1.653 28.156 2.018-18.534 2.404-36.268 2.865-54.8z"/><path d="M53.441 24.402s-.232 3.365-.723 8.43c-.499 5.141-1.25 11.762-2.446 18.645-1.211 6.96-2.765 13.507-4.563 18.887-1.747 5.228-3.514 8.835-4.995 9.159 1.458-1.345 3.27-5.533 4.971-10.93 1.758-5.578 3.259-11.991 4.461-18.69 2.348-13.082 3.295-25.501 3.295-25.501z"/><path d="M58.835 33.765s-2.217 11.47-6.06 22.992c-3.84 11.512-9.002 23.056-11.93 23.183 2.942-1.876 8.232-13.595 11.971-24.56 3.772-11.06 6.019-21.615 6.019-21.615z"/><path d="M58.932 21.805s-.577 3.587-1.602 8.973c-1.052 5.528-2.494 12.438-4.49 19.788-3.914 14.42-9.557 28.92-12.497 29.237 3-2.35 8.692-17.009 12.512-30.82 1.953-7.06 3.4-13.628 4.456-18.798 1.033-5.056 1.62-8.378 1.62-8.378zM48.519 22.391s-.112 3.478-.4 8.72c-.292 5.286-.761 12.206-1.615 19.307-.867 7.218-2.06 14.007-3.548 19.613-1.446 5.447-2.99 9.231-4.421 9.64 1.358-1.456 2.917-5.838 4.31-11.457 1.441-5.807 2.593-12.464 3.468-19.41 1.707-13.57 2.206-26.413 2.206-26.413z"/><path d="M51.907 30.59s-.822 12.02-3.121 24.171c-2.3 12.156-6.144 24.451-9.047 25.01 2.873-2.436 6.63-14.728 8.921-26.417 2.289-11.683 3.247-22.765 3.247-22.765"/><path d="M50.779 18.315s-.207 3.743-.616 9.38c-.411 5.663-1.03 13.147-2.056 20.75-1.05 7.775-2.436 15.013-4.121 21.034-1.63 5.826-3.314 9.851-4.76 10.229 1.389-1.423 3.105-6.056 4.68-12.051 1.637-6.223 2.977-13.327 4.029-20.83 1.024-7.31 1.695-14.438 2.148-19.738s.696-8.774.696-8.774zM9.227 29.867s1.586 12.263 4.714 24.615 7.673 24.794 10.605 25.151c-2.904-2.23-7.497-14.8-10.567-26.604-3.087-11.867-4.751-23.162-4.751-23.162z"/><path d="M6.4 37.466s2.046 10.526 5.625 21.112C15.599 69.15 20.39 79.754 23.344 79.88c-2.92-1.735-7.834-12.49-11.33-22.566C8.49 47.152 6.4 37.465 6.4 37.465z"/><path d="M2.104 61.81s5.578 2.331 10.563 5.63c5.138 3.398 9.421 7.572 10.07 11.692-1.678-4.204-6.076-8.34-10.997-11.742-4.764-3.294-9.635-5.581-9.635-5.581zM4.037 70.57s4.704.501 9.056 1.672c4.468 1.201 8.506 3.035 9.7 5.823-1.96-2.538-6.077-4.362-10.376-5.632-4.194-1.239-8.38-1.863-8.38-1.863z"/><path d="M6.544 26.491s1.935 13.17 5.551 26.407c3.618 13.241 8.802 26.558 11.76 26.858-2.951-2.162-8.2-15.633-11.742-28.312-3.562-12.75-5.568-24.953-5.568-24.953zM15.996 6.026s.561 4.446 1.303 11.152c.662 5.978 1.751 16.406 2.738 24.726 2.148 18.098 5.213 36.514 5.858 37.785-3.928-24.554-6.444-49.109-9.899-73.663"/><path d="M14.203 3.81s.68 4.582 1.561 11.495c.882 6.914 1.963 16.16 3.205 25.487 2.483 18.655 5.95 37.635 6.623 38.94-4.43-25.308-7.292-50.615-11.39-75.923z"/></g><g stroke-width=".166"><path d="M24.837 4.218s.005 16.999-.103 34.316c-.109 17.317-.2 34.95-.618 36.22-.1-20.117.423-50.42.721-70.536" transform="matrix(1.4347 0 0 1 -4.675 5.161)"/><path d="M26.317 1.96s-.286 17.55-.682 35.423-.785 36.074-1.222 37.376c.177-17.918 1.32-54.88 1.904-72.798zM22.266 10.249s.025 15.542.271 31.373.865 31.953 1.33 33.113c-.88-25.765-1.03-38.72-1.601-64.486M20.664 6.438s.046 16.454.339 33.211c.151 8.705.381 16.51.714 23.351.317 6.515.672 11.09.917 11.703-1.23-25.309-1.343-42.955-1.97-68.265" transform="matrix(1.4347 0 0 1 -4.675 5.161)"/><path d="M19.163 4.253s.116 4.246.273 10.654c.15 6.072.365 15.315.641 23.628.3 9.01.667 17.017 1.126 24.1.435 6.724.872 11.442 1.129 12.072-1.907-29.78-1.88-40.673-3.169-70.454M23.28 12.275s.008 15.041-.04 30.362c-.046 15.322.054 30.924-.355 32.047-.354-19.407.102-43.003.395-62.409" transform="matrix(1.4347 0 0 1 -4.675 5.161)"/><path d="M16.857 6.941s.43 4.033 1.022 10.121c.588 6.053 1.353 14.267 2.115 22.454.749 8.032 1.56 16.715 2.08 22.927.538 6.403.835 10.908.676 11.538-2.083-22.347-3.901-44.693-5.893-67.04M14.853 12.918s.38 3.687.958 9.25c.596 5.727 1.346 12.835 2.248 20.504 1.766 15.008 3.87 30.277 4.438 31.322-2.538-20.359-5.151-40.718-7.644-61.077z" transform="matrix(1.4347 0 0 1 -4.675 5.161)"/><path d="M16.095 15.214s1.385 14.272 2.808 28.824 2.954 29.384 2.636 30.505c-2.778-25.908-3.307-33.421-5.444-59.329" transform="matrix(1.4347 0 0 1 -4.675 5.161)"/></g><g stroke-width=".151"><path d="M24.919 4.222s.036 4.252.043 10.667c.008 6.906-.014 14.505-.04 23.656-.048 17.321.043 34.973-.366 36.25-.377-26.278.152-44.323.363-70.573" transform="matrix(-1.7181 -.04633 -.0543 .99976 82.928 6.336)"/><path d="M26.384 1.963s-.22 17.55-.56 35.429c-.338 17.878-.541 36.094-.969 37.405.014-24.345.94-48.515 1.529-72.833zM22.367 10.259l.078 9.752c.047 5.828.114 13.748.27 21.63.313 15.84 1.109 31.984 1.59 33.14-1.279-29.186-1.189-35.362-1.938-64.522zM20.739 6.448s.05 4.115.107 10.325c.055 6.016.126 14.707.299 22.898.184 8.739.471 16.495.87 23.375.38 6.525.786 11.107 1.04 11.72-1.67-28.505-1.499-39.852-2.316-68.318" transform="matrix(-1.7181 -.04633 -.0543 .99976 82.928 6.336)"/><path d="M19.218 4.263s.132 4.249.296 10.659c.157 6.158.37 15.234.68 23.636.334 9.04.761 17.005 1.292 24.127.502 6.734.995 11.462 1.262 12.09-2.435-32.73-1.994-37.824-3.53-70.512M23.395 12.285s.02 15.042.037 30.371c.018 15.329.283 30.957-.121 32.089-.603-21.656-.175-40.843.084-62.459z" transform="matrix(-1.7181 -.04633 -.0543 .99976 82.928 6.336)"/><path d="M16.891 6.953s.434 4.036 1.035 10.125c.768 7.795 1.419 14.667 2.188 22.462.739 7.495 1.73 17.268 2.262 22.946.601 6.407.947 10.925.792 11.555-2.325-22.373-4.26-44.73-6.277-67.088M14.829 12.932s.373 3.69.958 9.252c.61 5.79 1.37 12.78 2.338 20.517.965 7.71 1.98 14.89 2.906 20.923.894 5.832 1.586 9.914 1.88 10.435-2.772-20.38-5.6-40.76-8.082-61.126z" transform="matrix(-1.7181 -.04633 -.0543 .99976 82.928 6.336)"/><path d="M16.098 15.229s1.38 14.286 2.904 28.837c.763 7.282 1.574 14.639 2.157 20.315.583 5.672.934 9.678.777 10.238-3.014-25.384-3.756-34.05-5.838-59.391z" transform="matrix(-1.7181 -.04633 -.0543 .99976 82.928 6.336)"/></g><path stroke-width=".198" d="M7.937 67.891c5.392-2.665 12.946 1.89 15.75 9.5-.285-2.568-2.389-5.955-5.434-8.222-3.007-2.238-6.984-3.367-10.316-1.278"/></g><g fill="#b1d1c8" stroke="#76ad9f" stroke-linecap="round" stroke-linejoin="round" stroke-miterlimit="5" stroke-width=".198"><path d="M40.063 78.626c1.431-.706 3.458-2.08 5.427-5.875 2.013-3.879 3.9-10.09 4.253-20.886.105 2.298.036 8.506-1.52 14.54-1.54 5.97-4.555 11.535-8.16 12.22zM23.18 78.076c-.952-1.808-1.717-1.889-2.669-3.697-1.368-2.603-4.205-9.187-6.978-21.025.162 2.35 1.383 7.99 3.351 13.596 1.918 5.463 4.41 10.565 6.296 11.126zM33.133 78.303c.921-3.859 1.557-10.412 2.03-19.443.468-8.934.657-20.055 1.701-32.565-.094 2.768-.385 15.213-.963 27.245s-1.833 23.651-2.768 24.763M29.264 78.271c-.818-3.343-1.4-8.562-2.032-15.499-.54-5.927-1.403-16.63-2.436-25.893.137 2.083.804 12.294 1.67 21.734.88 9.582 1.899 18.818 2.798 19.657zM36.55 78.284c3.033-5.633 4.559-11.135 5.56-18.794.979-7.496 1.242-16.659 2.972-28.8-.353 2.547-.535 13.035-1.667 23.592-.578 5.39-1.42 10.463-2.656 14.902-1.202 4.317-2.698 7.702-4.209 9.1zM26.687 78.221c-2.235-4.206-3.783-9.77-4.916-17.523-1.126-7.712-1.699-17.492-2.935-29.925.328 2.547.637 13 1.768 23.52 1.134 10.542 3.297 21.086 6.083 23.928"/></g></svg>