<?xml version="1.0" encoding="UTF-8" standalone="no"?>
<!-- Created with Inkscape (http://www.inkscape.org/) -->

<svg
   width="23.724245mm"
   height="24.747957mm"
   viewBox="0 0 23.724245 24.747957"
   version="1.1"
   id="svg1"
   xml:space="preserve"
   xmlns="http://www.w3.org/2000/svg"
   xmlns:svg="http://www.w3.org/2000/svg"><defs
     id="defs1" /><g
     id="layer4"
     transform="translate(-86.79315,-167.20358)"><path
       id="path4-6-8-0"
       style="fill:none;stroke:#000000;stroke-width:2.52921;stroke-linecap:round;stroke-linejoin:round;stroke-dasharray:none;stroke-opacity:1"
       d="m 88.075376,183.02723 c -0.63978,-2.00344 7.01478,-1.33641 7.02656,-3.44404 0.0118,-2.10766 -7.65034,-1.41642 -6.98816,-3.42194 0.6622,-2.0055 6.43067,3.03834 7.67847,1.33126 1.24779,-1.70705 -5.32481,-5.65079 -3.61359,-6.89232 1.71125,-1.24152 3.3903,6.25257 5.39748,5.5981 2.00717,-0.65447 -0.96539,-7.72677 1.14126,-7.7301 2.106664,-0.003 -0.94509,7.07851 1.05482,7.72664 1.999904,0.64813 3.762804,-6.8514 5.460194,-5.61524 1.69738,1.23614 -4.91951,5.20066 -3.69075,6.90387 1.2287,1.70315 7.05373,-3.35902 7.69351,-1.35557 0.63977,2.00346 -7.01477,1.33643 -7.02658,3.44407 -0.0118,2.10762 7.65037,1.4164 6.98818,3.42191 -0.66221,2.00549 -6.43068,-3.03834 -7.67847,-1.33126 -1.24779,1.70706 5.32481,5.65079 3.61358,6.89232 -1.71124,1.24152 -3.39029,-6.25256 -5.397494,-5.59809 -2.00716,0.65445 0.965394,7.72678 -1.14125,7.7301 -2.10665,0.003 0.94509,-7.07851 -1.05482,-7.72665 -1.99989,-0.64811 -3.76279,6.8514 -5.46018,5.61524 -1.6974,-1.23614 4.9195,-5.20065 3.69072,-6.90388 -1.22871,-1.70313 -7.0537,3.35903 -7.6935,1.35557 z" /></g></svg>
