<?xml version="1.0" encoding="UTF-8" standalone="no"?>
<!-- Created with Inkscape (http://www.inkscape.org/) -->

<svg
   width="100"
   height="100"
   viewBox="0 0 26.458333 26.458333"
   version="1.1"
   id="svg1"
   xml:space="preserve"
   xmlns="http://www.w3.org/2000/svg"
   xmlns:svg="http://www.w3.org/2000/svg"
   xmlns:rdf="http://www.w3.org/1999/02/22-rdf-syntax-ns#"
   xmlns:cc="http://creativecommons.org/ns#"
   xmlns:dc="http://purl.org/dc/elements/1.1/"><defs
     id="defs1" /><g
     id="layer2"><g
       id="g147-0"
       style="display:inline;stroke-width:1.33656"
       transform="matrix(0.11457807,0,0,0.11455164,71.30411,-25.308471)"><g
         id="g148-4"
         style="stroke-width:1.33656"><g
           id="g144-8"
           style="display:inline;stroke-width:1.33656"><path
             style="display:inline;fill:#000000;fill-opacity:1;stroke:#000000;stroke-width:0.265223;stroke-linecap:round;stroke-linejoin:round;stroke-miterlimit:2;stroke-dasharray:none;stroke-opacity:1"
             d="m -509.60818,315.95115 c 0,0 -53.004,34.79312 -52.55983,39.97507 5.33001,41.8998 45.32519,31.03313 48.56232,21.91227 4.32838,-12.19553 3.99751,-61.88734 3.99751,-61.88734 z"
             id="path103-7" /><path
             style="display:inline;fill:#ffffff;fill-opacity:1;stroke:none;stroke-width:0.265223;stroke-linecap:round;stroke-linejoin:round;stroke-miterlimit:2;stroke-dasharray:none;stroke-opacity:1"
             d="m -542.92074,343.48952 -10.05864,6.49344 c -9.32752,31.09173 35.77776,31.87707 40.51555,18.47802 l -0.40157,-4.31765 c -12.28864,0.37014 -40.71536,4.14555 -30.05534,-20.65381 z"
             id="path145-1" /><path
             style="display:inline;fill:#b66614;fill-opacity:1;stroke:none;stroke-width:0.265223;stroke-linecap:round;stroke-linejoin:round;stroke-miterlimit:2;stroke-dasharray:none;stroke-opacity:1"
             d="m -560.25805,355.02829 7.27867,-5.04533 c -5.12987,25.75405 27.21976,32.40196 40.51555,18.47802 0,0 -0.63189,6.51086 -1.62644,7.74343 -10.06019,12.46788 -42.71604,13.5275 -46.16778,-21.17612 z"
             id="path144-7" /><path
             style="display:inline;fill:#000000;fill-opacity:1;stroke:none;stroke-width:0.265223;stroke-linecap:round;stroke-linejoin:round;stroke-miterlimit:2;stroke-dasharray:none;stroke-opacity:1"
             d="m -526.291,355.42386 5.18884,26.91925 3.42419,-0.5431 -4.79944,-26.67217 z"
             id="path146-27" /><path
             style="display:inline;fill:#000000;fill-opacity:1;stroke:none;stroke-width:0.265223;stroke-linecap:round;stroke-linejoin:round;stroke-miterlimit:2;stroke-dasharray:none;stroke-opacity:1"
             d="m -532.43622,358.30214 -1.71165,26.94868 3.13895,-0.0376 1.84279,-26.98926 z"
             id="path146-3-22" /><path
             style="display:inline;fill:#000000;fill-opacity:1;stroke:none;stroke-width:0.265223;stroke-linecap:round;stroke-linejoin:round;stroke-miterlimit:2;stroke-dasharray:none;stroke-opacity:1"
             d="m -537.61611,355.12552 -11.21773,25.77824 2.77761,0.74365 10.95224,-25.40691 z"
             id="path146-3-4-8-6" /><path
             style="display:inline;fill:#000000;fill-opacity:1;stroke:none;stroke-width:0.265224;stroke-linecap:round;stroke-linejoin:round;stroke-miterlimit:2;stroke-dasharray:none;stroke-opacity:1"
             d="m -538.36853,343.18547 -20.29744,25.36856 1.75647,2.69016 20.91488,-25.76689 z"
             id="path146-3-4-8-4-1" /><path
             style="display:inline;fill:#000000;fill-opacity:1;stroke:none;stroke-width:0.265223;stroke-linecap:round;stroke-linejoin:round;stroke-miterlimit:2;stroke-dasharray:none;stroke-opacity:1"
             d="m -555.13536,352.96512 2.07279,-0.37014 c -1.48056,17.02642 22.06032,31.75795 41.08549,14.73153 l -0.14806,2.14683 c -6.3664,10.43794 -41.97383,16.13809 -43.01022,-16.50822 z"
             id="path147-06" /><path
             style="display:inline;fill:#000000;fill-opacity:1;stroke:none;stroke-width:0.265223;stroke-linecap:round;stroke-linejoin:round;stroke-miterlimit:2;stroke-dasharray:none;stroke-opacity:1"
             d="m -549.55344,347.90109 2.07279,-0.37014 c -4.21959,19.02517 20.87587,28.42669 38.64257,12.51069 l -0.14806,2.14683 c -7.10668,11.77044 -44.71286,15.17573 -40.5673,-14.28738 z"
             id="path147-3-1" /></g><g
           id="g140-5"
           style="display:inline;stroke-width:1.33656"><path
             style="display:inline;fill:#000000;fill-opacity:1;stroke:#000000;stroke-width:0.265223;stroke-linecap:round;stroke-linejoin:round;stroke-miterlimit:2;stroke-dasharray:none;stroke-opacity:1"
             d="m -506.49902,314.91477 c -16.28615,-15.24975 -90.88686,-11.61543 -95.496,-4.88587 -11.73736,17.13708 22.20838,50.48707 41.15953,46.78567 7.10668,1.3325 54.33647,-41.8998 54.33647,-41.8998 z"
             id="path97-9" /><path
             style="display:inline;fill:#b66614;fill-opacity:1;stroke:none;stroke-width:0.265223;stroke-linecap:round;stroke-linejoin:round;stroke-miterlimit:2;stroke-dasharray:none;stroke-opacity:1"
             d="m -592.99685,308.05257 c -3.49461,0.57508 -6.21002,1.53944 -7.76312,3.15395 -9.79517,17.06318 24.41924,47.1846 39.40531,43.90632 0,0 3.66418,-1.2563 4.18764,-2.5126 -9.00345,-0.62815 -45.82938,-25.62267 -35.82983,-44.54767 z"
             id="path140-49" /><path
             style="display:inline;fill:#ffffff;fill-opacity:1;stroke:none;stroke-width:0.265223;stroke-linecap:round;stroke-linejoin:round;stroke-miterlimit:2;stroke-dasharray:none;stroke-opacity:1"
             d="m -570.50616,305.79581 c -3.33262,-0.12163 -17.65168,1.29781 -22.49067,2.25676 -14.65678,18.32097 28.7108,46.6415 35.82981,44.54767 l 10.15448,-10.64446 c -10.25975,-4.08296 -34.97629,-26.32951 -23.49362,-36.15997 z"
             id="path141-0" /><path
             style="display:inline;fill:#000000;fill-opacity:1;stroke:none;stroke-width:0.265223;stroke-linecap:round;stroke-linejoin:round;stroke-miterlimit:2;stroke-dasharray:none;stroke-opacity:1"
             d="m -574.73773,353.42229 2.9719,1.43265 23.00966,-20.31743 -2.16717,-2.68792 z"
             id="path142-9" /><path
             style="display:inline;fill:#000000;fill-opacity:1;stroke:none;stroke-width:0.265223;stroke-linecap:round;stroke-linejoin:round;stroke-miterlimit:2;stroke-dasharray:none;stroke-opacity:1"
             d="m -584.1949,347.30142 2.90804,1.5582 24.46673,-20.53935 -2.9856,-1.90573 z"
             id="path142-8-17" /><path
             style="display:inline;fill:#000000;fill-opacity:1;stroke:none;stroke-width:0.265223;stroke-linecap:round;stroke-linejoin:round;stroke-miterlimit:2;stroke-dasharray:none;stroke-opacity:1"
             d="m -592.4362,339.46621 2.83108,2.26314 27.24305,-20.39609 -1.08899,-2.6519 z"
             id="path142-8-1-71" /><path
             style="display:inline;fill:#000000;fill-opacity:1;stroke:none;stroke-width:0.265223;stroke-linecap:round;stroke-linejoin:round;stroke-miterlimit:2;stroke-dasharray:none;stroke-opacity:1"
             d="m -600.5873,329.549 2.42451,2.69427 31.66981,-15.95635 -0.71121,-2.47242 z"
             id="path142-8-1-8-15" /><path
             style="display:inline;fill:#000000;fill-opacity:1;stroke:none;stroke-width:0.265223;stroke-linecap:round;stroke-linejoin:round;stroke-miterlimit:2;stroke-dasharray:none;stroke-opacity:1"
             d="m -604.28508,318.63483 1.71002,3.18318 35.74627,-11.83049 -1.75531,-2.22279 z"
             id="path142-8-1-8-0-4-9" /><path
             style="display:inline;fill:#000000;fill-opacity:1;stroke:none;stroke-width:0.265223;stroke-linecap:round;stroke-linejoin:round;stroke-miterlimit:2;stroke-dasharray:none;stroke-opacity:1"
             d="m -592.44017,307.32952 2.13513,-0.4363 c -15.21412,17.92051 20.17639,42.93516 34.58598,45.42279 l -0.37866,1.09326 c -5.77418,6.51446 -54.80171,-27.65669 -36.34245,-46.07975 z"
             id="path143-7" /><path
             style="display:inline;fill:#000000;fill-opacity:1;stroke:none;stroke-width:0.265223;stroke-linecap:round;stroke-linejoin:round;stroke-miterlimit:2;stroke-dasharray:none;stroke-opacity:1"
             d="m -585.7101,306.13306 3.09749,-0.51033 c -15.21412,17.92051 20.10237,40.71432 34.51196,43.20195 l -0.37866,1.09326 c -5.77418,6.51446 -55.69005,-25.36182 -37.23079,-43.78488 z"
             id="path143-4-7" /><path
             style="display:inline;fill:#000000;fill-opacity:1;stroke:none;stroke-width:0.265223;stroke-linecap:round;stroke-linejoin:round;stroke-miterlimit:2;stroke-dasharray:none;stroke-opacity:1"
             d="m -579.19339,305.30773 3.39361,-0.28825 c -7.78104,16.55952 17.37776,37.17632 31.78735,39.66395 l -0.37866,1.09326 c -4.36765,5.33001 -45.82848,-19.11454 -34.8023,-40.46896 z"
             id="path143-4-5-6" /><ellipse
             style="display:inline;fill:#b66614;fill-opacity:1;stroke:none;stroke-width:0.265223;stroke-linecap:round;stroke-linejoin:round;stroke-miterlimit:2;stroke-dasharray:none;stroke-opacity:1"
             id="path148-73"
             cx="-557.07953"
             cy="315.53949"
             rx="3.5422764"
             ry="3.4548125" /><ellipse
             style="display:inline;fill:#b66614;fill-opacity:1;stroke:none;stroke-width:0.265223;stroke-linecap:round;stroke-linejoin:round;stroke-miterlimit:2;stroke-dasharray:none;stroke-opacity:1"
             id="path148-4-6"
             cx="-542.61102"
             cy="316.92133"
             rx="3.5422764"
             ry="3.4548125" /></g></g><g
         id="g148-3-5"
         style="display:inline;stroke-width:1.33656"
         transform="matrix(-1,0,0,1,-1013.7183,-0.07762473)"><g
           id="g144-5-6"
           style="display:inline;stroke-width:1.33656"><path
             style="display:inline;fill:#000000;fill-opacity:1;stroke:#000000;stroke-width:0.265223;stroke-linecap:round;stroke-linejoin:round;stroke-miterlimit:2;stroke-dasharray:none;stroke-opacity:1"
             d="m -509.60818,315.95115 c 0,0 -53.004,34.79312 -52.55983,39.97507 5.33001,41.8998 45.32519,31.03313 48.56232,21.91227 4.32838,-12.19553 3.99751,-61.88734 3.99751,-61.88734 z"
             id="path103-6-3" /><path
             style="display:inline;fill:#ffffff;fill-opacity:1;stroke:none;stroke-width:0.265223;stroke-linecap:round;stroke-linejoin:round;stroke-miterlimit:2;stroke-dasharray:none;stroke-opacity:1"
             d="m -542.92074,343.48952 -10.05864,6.49344 c -9.32752,31.09173 35.77776,31.87707 40.51555,18.47802 l -0.40157,-4.31765 c -12.28864,0.37014 -40.71536,4.14555 -30.05534,-20.65381 z"
             id="path145-2-9" /><path
             style="display:inline;fill:#b66614;fill-opacity:1;stroke:none;stroke-width:0.265223;stroke-linecap:round;stroke-linejoin:round;stroke-miterlimit:2;stroke-dasharray:none;stroke-opacity:1"
             d="m -560.25805,355.02829 7.27867,-5.04533 c -5.12987,25.75405 27.21976,32.40196 40.51555,18.47802 0,0 -0.63189,6.51086 -1.62644,7.74343 -10.06019,12.46788 -42.71604,13.5275 -46.16778,-21.17612 z"
             id="path144-9-48" /><path
             style="display:inline;fill:#000000;fill-opacity:1;stroke:none;stroke-width:0.265223;stroke-linecap:round;stroke-linejoin:round;stroke-miterlimit:2;stroke-dasharray:none;stroke-opacity:1"
             d="m -526.291,355.42386 5.18884,26.91925 3.42419,-0.5431 -4.79944,-26.67217 z"
             id="path146-1-1" /><path
             style="display:inline;fill:#000000;fill-opacity:1;stroke:none;stroke-width:0.265223;stroke-linecap:round;stroke-linejoin:round;stroke-miterlimit:2;stroke-dasharray:none;stroke-opacity:1"
             d="m -532.43622,358.30214 -1.71165,26.94868 3.13895,-0.0376 1.84279,-26.98926 z"
             id="path146-3-2-2" /><path
             style="display:inline;fill:#000000;fill-opacity:1;stroke:none;stroke-width:0.265223;stroke-linecap:round;stroke-linejoin:round;stroke-miterlimit:2;stroke-dasharray:none;stroke-opacity:1"
             d="m -537.61611,355.12552 -11.21773,25.77824 2.77761,0.74365 10.95224,-25.40691 z"
             id="path146-3-4-8-7-9" /><path
             style="display:inline;fill:#000000;fill-opacity:1;stroke:none;stroke-width:0.265224;stroke-linecap:round;stroke-linejoin:round;stroke-miterlimit:2;stroke-dasharray:none;stroke-opacity:1"
             d="m -538.36853,343.18547 -20.29744,25.36856 1.75647,2.69016 20.91488,-25.76689 z"
             id="path146-3-4-8-4-0-3" /><path
             style="display:inline;fill:#000000;fill-opacity:1;stroke:none;stroke-width:0.265223;stroke-linecap:round;stroke-linejoin:round;stroke-miterlimit:2;stroke-dasharray:none;stroke-opacity:1"
             d="m -555.13536,352.96512 2.07279,-0.37014 c -1.48056,17.02642 22.06032,31.75795 41.08549,14.73153 l -0.14806,2.14683 c -6.3664,10.43794 -41.97383,16.13809 -43.01022,-16.50822 z"
             id="path147-9-9" /><path
             style="display:inline;fill:#000000;fill-opacity:1;stroke:none;stroke-width:0.265223;stroke-linecap:round;stroke-linejoin:round;stroke-miterlimit:2;stroke-dasharray:none;stroke-opacity:1"
             d="m -549.55344,347.90109 2.07279,-0.37014 c -4.21959,19.02517 20.87587,28.42669 38.64257,12.51069 l -0.14806,2.14683 c -7.10668,11.77044 -44.71286,15.17573 -40.5673,-14.28738 z"
             id="path147-3-3-0" /></g><g
           id="g140-6-8"
           style="display:inline;stroke-width:1.33656"><path
             style="display:inline;fill:#000000;fill-opacity:1;stroke:#000000;stroke-width:0.265223;stroke-linecap:round;stroke-linejoin:round;stroke-miterlimit:2;stroke-dasharray:none;stroke-opacity:1"
             d="m -506.49902,314.91477 c -16.28615,-15.24975 -90.88686,-11.61543 -95.496,-4.88587 -11.73736,17.13708 22.20838,50.48707 41.15953,46.78567 7.10668,1.3325 54.33647,-41.8998 54.33647,-41.8998 z"
             id="path97-0-8" /><path
             style="display:inline;fill:#b66614;fill-opacity:1;stroke:none;stroke-width:0.265223;stroke-linecap:round;stroke-linejoin:round;stroke-miterlimit:2;stroke-dasharray:none;stroke-opacity:1"
             d="m -592.99685,308.05257 c -3.49461,0.57508 -6.21002,1.53944 -7.76312,3.15395 -9.79517,17.06318 24.41924,47.1846 39.40531,43.90632 0,0 3.66418,-1.2563 4.18764,-2.5126 -9.00345,-0.62815 -45.82938,-25.62267 -35.82983,-44.54767 z"
             id="path140-6-5" /><path
             style="display:inline;fill:#ffffff;fill-opacity:1;stroke:none;stroke-width:0.265223;stroke-linecap:round;stroke-linejoin:round;stroke-miterlimit:2;stroke-dasharray:none;stroke-opacity:1"
             d="m -570.50616,305.79581 c -3.33262,-0.12163 -17.65168,1.29781 -22.49067,2.25676 -14.65678,18.32097 28.7108,46.6415 35.82981,44.54767 l 10.15448,-10.64446 c -10.25975,-4.08296 -34.97629,-26.32951 -23.49362,-36.15997 z"
             id="path141-2-0" /><path
             style="display:inline;fill:#000000;fill-opacity:1;stroke:none;stroke-width:0.265223;stroke-linecap:round;stroke-linejoin:round;stroke-miterlimit:2;stroke-dasharray:none;stroke-opacity:1"
             d="m -574.73773,353.42229 2.9719,1.43265 23.00966,-20.31743 -2.16717,-2.68792 z"
             id="path142-61-9" /><path
             style="display:inline;fill:#000000;fill-opacity:1;stroke:none;stroke-width:0.265223;stroke-linecap:round;stroke-linejoin:round;stroke-miterlimit:2;stroke-dasharray:none;stroke-opacity:1"
             d="m -584.1949,347.30142 2.90804,1.5582 24.46673,-20.53935 -2.9856,-1.90573 z"
             id="path142-8-8-6" /><path
             style="display:inline;fill:#000000;fill-opacity:1;stroke:none;stroke-width:0.265223;stroke-linecap:round;stroke-linejoin:round;stroke-miterlimit:2;stroke-dasharray:none;stroke-opacity:1"
             d="m -592.4362,339.46621 2.83108,2.26314 27.24305,-20.39609 -1.08899,-2.6519 z"
             id="path142-8-1-7-3" /><path
             style="display:inline;fill:#000000;fill-opacity:1;stroke:none;stroke-width:0.265223;stroke-linecap:round;stroke-linejoin:round;stroke-miterlimit:2;stroke-dasharray:none;stroke-opacity:1"
             d="m -600.5873,329.549 2.42451,2.69427 31.66981,-15.95635 -0.71121,-2.47242 z"
             id="path142-8-1-8-9-8" /><path
             style="display:inline;fill:#000000;fill-opacity:1;stroke:none;stroke-width:0.265223;stroke-linecap:round;stroke-linejoin:round;stroke-miterlimit:2;stroke-dasharray:none;stroke-opacity:1"
             d="m -604.28508,318.63483 1.71002,3.18318 35.74627,-11.83049 -1.75531,-2.22279 z"
             id="path142-8-1-8-0-4-2-5" /><path
             style="display:inline;fill:#000000;fill-opacity:1;stroke:none;stroke-width:0.265223;stroke-linecap:round;stroke-linejoin:round;stroke-miterlimit:2;stroke-dasharray:none;stroke-opacity:1"
             d="m -592.44017,307.32952 2.13513,-0.4363 c -15.21412,17.92051 20.17639,42.93516 34.58598,45.42279 l -0.37866,1.09326 c -5.77418,6.51446 -54.80171,-27.65669 -36.34245,-46.07975 z"
             id="path143-0-6" /><path
             style="display:inline;fill:#000000;fill-opacity:1;stroke:none;stroke-width:0.265223;stroke-linecap:round;stroke-linejoin:round;stroke-miterlimit:2;stroke-dasharray:none;stroke-opacity:1"
             d="m -585.7101,306.13306 3.09749,-0.51033 c -15.21412,17.92051 20.10237,40.71432 34.51196,43.20195 l -0.37866,1.09326 c -5.77418,6.51446 -55.69005,-25.36182 -37.23079,-43.78488 z"
             id="path143-4-2-1" /><path
             style="display:inline;fill:#000000;fill-opacity:1;stroke:none;stroke-width:0.265223;stroke-linecap:round;stroke-linejoin:round;stroke-miterlimit:2;stroke-dasharray:none;stroke-opacity:1"
             d="m -579.19339,305.30773 3.39361,-0.28825 c -7.78104,16.55952 17.37776,37.17632 31.78735,39.66395 l -0.37866,1.09326 c -4.36765,5.33001 -45.82848,-19.11454 -34.8023,-40.46896 z"
             id="path143-4-5-3-1" /><ellipse
             style="display:inline;fill:#b66614;fill-opacity:1;stroke:none;stroke-width:0.265223;stroke-linecap:round;stroke-linejoin:round;stroke-miterlimit:2;stroke-dasharray:none;stroke-opacity:1"
             id="path148-7-5"
             cx="-557.07953"
             cy="315.53949"
             rx="3.5422764"
             ry="3.4548125" /><ellipse
             style="display:inline;fill:#b66614;fill-opacity:1;stroke:none;stroke-width:0.265223;stroke-linecap:round;stroke-linejoin:round;stroke-miterlimit:2;stroke-dasharray:none;stroke-opacity:1"
             id="path148-4-5-9"
             cx="-542.61102"
             cy="316.92133"
             rx="3.5422764"
             ry="3.4548125" /></g></g><g
         id="g72-8-8-3-0-8"
         style="display:inline;stroke-width:0.774207"
         transform="matrix(2.0651471,0.00421388,-0.00458282,1.8988908,-454.26175,47.121032)"><ellipse
           style="fill:#000000;fill-opacity:1;stroke:none;stroke-width:1.34131;stroke-linecap:round;stroke-linejoin:round;stroke-miterlimit:2;stroke-dasharray:none;stroke-opacity:1"
           id="path70-3-4-8-6-4"
           cx="-25.235962"
           cy="137.9411"
           rx="2.5619996"
           ry="2.4879715" /><circle
           style="fill:#000000;fill-opacity:1;stroke:none;stroke-width:1.34131;stroke-linecap:round;stroke-linejoin:round;stroke-miterlimit:2;stroke-dasharray:none;stroke-opacity:1"
           id="path71-1-8-3-7-8"
           cx="-25.235962"
           cy="142.96062"
           r="4.5897312" /><path
           style="fill:#000000;fill-opacity:1;stroke:none;stroke-width:1.34131;stroke-linecap:round;stroke-linejoin:round;stroke-miterlimit:2;stroke-dasharray:none;stroke-opacity:1"
           d="m -24.843981,144.81131 c 3.03514,-2.59098 3.07493,27.53839 -0.22209,27.53839 -3.29702,0 -4.29362,-32.64632 0.22209,-27.53839 z"
           id="path72-8-1-3-6-1" /></g><g
         id="g95-9-4-3-1-0"
         transform="matrix(1.6280127,0,0,1.6280127,-465.96097,85.316333)"
         style="display:inline;stroke-width:0.774207"><path
           style="fill:none;fill-opacity:1;stroke:#000000;stroke-width:0.91114;stroke-linecap:round;stroke-linejoin:round;stroke-miterlimit:2;stroke-dasharray:none;stroke-opacity:1"
           d="m -25.72913,134.86884 -8.107775,-10.23631"
           id="path92-6-4-8-3-3" /><circle
           style="fill:#000000;fill-opacity:1;stroke:none;stroke-width:1.56196;stroke-linecap:round;stroke-linejoin:round;stroke-miterlimit:2;stroke-dasharray:none;stroke-opacity:1"
           id="path93-4-4-0-0-0"
           cx="-34.052841"
           cy="124.44093"
           r="0.88833499" /></g><g
         id="g94-3-7-4-4-4"
         transform="matrix(1.6280127,0,0,1.6280127,-465.96097,85.316333)"
         style="display:inline;stroke-width:0.774207"><path
           style="fill:none;fill-opacity:1;stroke:#000000;stroke-width:0.91114;stroke-linecap:round;stroke-linejoin:round;stroke-miterlimit:2;stroke-dasharray:none;stroke-opacity:1"
           d="m -24.700118,134.86884 8.107775,-10.23631"
           id="path94-3-6-7-1-44" /><circle
           style="fill:#000000;fill-opacity:1;stroke:none;stroke-width:1.56196;stroke-linecap:round;stroke-linejoin:round;stroke-miterlimit:2;stroke-dasharray:none;stroke-opacity:1"
           id="circle94-3-3-6-3-4"
           cx="16.376408"
           cy="124.44094"
           r="0.88833499"
           transform="scale(-1,1)" /></g></g></g><metadata
     id="metadata1"><rdf:RDF><cc:Work
         rdf:about=""><dc:creator><cc:Agent><dc:title>Erica Schroeder</dc:title></cc:Agent></dc:creator><dc:rights><cc:Agent><dc:title>© 2026 Erica Schroeder. All rights reserved.</dc:title></cc:Agent></dc:rights></cc:Work></rdf:RDF></metadata></svg>
