<?xml version="1.0" encoding="UTF-8"?>
<!-- Created with Inkscape (http://www.inkscape.org/) -->
<svg width="2.3649in" height="4.1765in" version="1.1" viewBox="0 0 60.068 106.08" xml:space="preserve" xmlns="http://www.w3.org/2000/svg" xmlns:cc="http://creativecommons.org/ns#" xmlns:dc="http://purl.org/dc/elements/1.1/" xmlns:rdf="http://www.w3.org/1999/02/22-rdf-syntax-ns#" xmlns:xlink="http://www.w3.org/1999/xlink"><g transform="translate(-37.581 -29.688)"><path id="path92" transform="matrix(.62146 0 0 .6212 -18.702 48.549)" d="m-47.205 127.95c-0.23442 0.21807-0.49908-0.32396-0.8169-0.28533-0.31782 0.0386-0.44494 0.62827-0.72477 0.47271-0.27983-0.15556 0.15388-0.57476 0.01893-0.86509-0.13495-0.29033-0.73502-0.22901-0.67354-0.54322 0.06147-0.3142 0.59418-0.0313 0.8286-0.24932 0.23442-0.21806-0.0093-0.76981 0.30849-0.80844 0.31782-0.0386 0.21334 0.55544 0.49317 0.711 0.27983 0.15556 0.72925-0.24676 0.8642 0.0436 0.13495 0.29033-0.46233 0.37455-0.5238 0.68875-0.06147 0.31421 0.46003 0.61731 0.22561 0.83537z" fill="#fbb9d0" stroke="#690526" stroke-linecap="round" stroke-width=".21292"/></g><g transform="translate(9.1965 4.6196)" stroke="#3e581d" stroke-linecap="round"><g transform="matrix(-.9997 -.029065 -.024627 1.1798 129.67 -28.934)"><g transform="matrix(.37639 .93131 .92643 -.36453 43.057 99.94)" stroke-width=".18266"><path transform="translate(1.1667e-6)" d="m-16.911 85.907c-2.3541-1.018-5.6626 2.1632-8.5575 11.357 6.6806-2.4814 11.357-11.357 8.5575-11.357z" fill="#587b25"/><path d="m-16.94 85.9c-2.6309 1.1661-7.499 10.994-8.4888 11.309" fill="none"/></g><g transform="matrix(.7686 .24205 -.28917 .95359 262.48 -82.881)" stroke-width=".20385"><path d="m-115.52 195.8c-10.123-8.503-19.255 7.8282-34.282 7.2433 7.2433-2.0245 24.789-19.975 34.282-7.2433z" fill="#587b25"/><path d="m-120.11 192.06c-7.8417-1.2884-12.263 6.9867-29.442 10.995" fill="none"/></g><g stroke-width=".18266"><g transform="matrix(-.044009 .99849 -.99901 -.056825 201.75 115.11)"><path transform="translate(1.1667e-6)" d="m-16.911 85.907c-2.3541-1.018-5.6626 2.1632-8.5575 11.357 6.6806-2.4814 11.357-11.357 8.5575-11.357z" fill="#587b25"/><path d="m-16.94 85.9c-2.6309 1.1661-7.499 10.994-8.4888 11.309" fill="none"/></g><g transform="matrix(.37639 .93131 .92643 -.36453 43.231 121.95)"><path transform="translate(1.1667e-6)" d="m-16.911 85.907c-2.3541-1.018-5.6626 2.1632-8.5575 11.357 6.6806-2.4814 11.357-11.357 8.5575-11.357z" fill="#587b25"/><path d="m-16.94 85.9c-2.6309 1.1661-7.499 10.994-8.4888 11.309" fill="none"/></g><path d="m116.61 53.181c1.5295 0.33013 0.21646 58.082-1.4225 59.771l-0.8895 0.11587c3.3364-40.169 0.97917-59.647 2.2493-59.877z" fill="#587b25"/><g transform="matrix(.0051439 1.0001 .99996 .0076817 29.586 121.35)"><path transform="translate(1.1667e-6)" d="m-16.911 85.907c-2.3541-1.018-5.6626 2.1632-8.5575 11.357 6.6806-2.4814 11.357-11.357 8.5575-11.357z" fill="#587b25"/><path d="m-16.94 85.9c-2.6309 1.1661-7.499 10.994-8.4888 11.309" fill="none"/></g></g><g transform="matrix(.68444 .15454 -.20828 .97542 232.55 -18.014)" stroke-width=".21835"><path transform="translate(1.1667e-6)" d="m-125.89 147.59c6.6584-7.9631 23.806-2.7399 27.316-4.3495 0 0-23.357-4.5584-27.316 4.3495z" fill="#557a27"/><path d="m-125.9 147.69c6.1716-10.053 23.287-2.6404 27.422-4.4855 0 0-14.99-4.5249-22.841-0.54081-1.4396 0.73048-1.9724 0.82713-4.581 5.0264z" fill="#587b25"/></g><g transform="matrix(.62727 .50926 -.62421 .77326 310.29 13.667)" stroke-width=".20385"><path d="m-115.52 195.8c-5.4566-2.2281-13.395 4.1632-17.55-1.6989 7.2433-2.0245 12.223-3.752 17.55 1.6989z" fill="#587b25"/><path d="m-115.99 195.38c-6.5676-3.2239-14.163 0.9826-17.039-1.3121" fill="none"/></g><g transform="matrix(.951 .18244 -.19841 .78763 148.34 40.828)" stroke-width=".20613"><path transform="translate(1.1667e-6)" d="m-16.911 85.907c-2.3541-1.018-5.6626 2.1632-8.5575 11.357 6.6806-2.4814 11.357-11.357 8.5575-11.357z" fill="#587b25"/><path d="m-16.94 85.9c-2.6309 1.1661-7.499 10.994-8.4888 11.309" fill="none"/></g><g transform="matrix(.7912 -.12644 .17011 .98763 169.44 -120.7)" stroke-width=".20385"><path d="m-110.06 204.28c-10.123-8.503-19.255 7.8282-34.282 7.2433 7.2433-2.0245 24.789-19.975 34.282-7.2433z" fill="#587b25"/><path d="m-114.79 200.47c-7.8417-1.2884-12.288 6.9968-29.467 11.005" fill="none"/></g><g transform="matrix(.4947 -.079057 .13173 .76479 143.6 -71.09)" stroke-width=".29296"><path d="m-108.89 204.46c5.6687-9.4478 21.235 6.5685 37.341 9.9427-12.552 2.0245-29.09-7.8394-30.953-9.0429s-2.9693-3.2392-6.3885-0.89978z" fill="#587b25"/><path d="m-108.82 204.34c4.3826-4.0312 7.6384 1.9195 19.178 7.2818" fill="none"/></g><g transform="matrix(.9854 -.15748 .17011 .98763 213.71 -93.622)" stroke-width=".18266"><path d="m-127.62 169.57c-4.2628-2.3541 0.66805 5.2172 2.3859 5.9807 1.4634-5.6626 1.3679-9.9255-2.3859-5.9807z" fill="#587b25"/><path d="m-127.65 169.56c0.62032 0.19882 2.383 4.0416 2.383 5.9503" fill="none"/></g><g transform="matrix(-1.2267 .32427 .39224 1.0411 62.356 -9.1018)" stroke-width=".15414"><path transform="translate(1.1667e-6)" d="m-16.911 85.907c-2.3541-1.018-5.6626 2.1632-8.5575 11.357 6.6806-2.4814 11.357-11.357 8.5575-11.357z" fill="#587b25"/><path d="m-16.94 85.9c-2.6309 1.1661-7.499 10.994-8.4888 11.309" fill="none"/></g><g transform="matrix(.9854 -.15748 .17011 .98763 118.45 -12.194)" stroke-width=".18266"><path transform="translate(1.1667e-6)" d="m-16.911 85.907c-2.3541-1.018-5.6626 2.1632-8.5575 11.357 6.6806-2.4814 11.357-11.357 8.5575-11.357z" fill="#587b25"/><path d="m-16.94 85.9c-2.6309 1.1661-7.499 10.994-8.4888 11.309" fill="none"/></g><g transform="matrix(-.55785 -.28702 -.33956 .67255 124.44 -115.67)" stroke-width=".2657"><path d="m-110.06 204.28c-10.123-8.503-15.783 8.4786-30.81 7.8938 7.2433-2.0245 21.317-20.626 30.81-7.8938z" fill="#587b25"/><path d="m-114.79 200.47c-8.2158-0.94156-13.992 9.1026-25.72 11.623" fill="none"/></g><g transform="matrix(-.76354 .12202 .17011 .98763 -1.3399 -134.59)" stroke-width=".20751"><path d="m-108.89 204.46c5.6687-9.4478 21.235 6.5685 37.341 9.9427-12.552 2.0245-29.09-7.8394-30.953-9.0429s-2.9693-3.2392-6.3885-0.89978z" fill="#587b25"/><path d="m-108.82 204.34c4.3826-4.0312 7.6384 1.9195 19.178 7.2818" fill="none"/></g><g transform="matrix(-.9854 .15748 .17011 .98763 -38.243 -93.889)" stroke-width=".18266"><path d="m-127.62 169.57c-4.2628-2.3541 0.66805 5.2172 2.3859 5.9807 1.4634-5.6626 1.3679-9.9255-2.3859-5.9807z" fill="#587b25"/><path d="m-127.65 169.56c0.62032 0.19882 2.383 4.0416 2.383 5.9503" fill="none"/></g></g><g transform="translate(75.839 1.9322)"><g transform="matrix(-.49658 .038263 .090056 1.1688 -115.56 -147.54)" stroke-width=".2597"><path d="m-123.6 149.8c9.9631-5.8486 23.698-4.1993 30.173-6.1111 0 0-26.214-2.7968-30.173 6.1111z" fill="#557a27"/><path d="m-123.59 149.73c7.0988-6.291 26.827-4.4194 30.963-6.2646-12.807-1.4243-27.278-0.45731-30.963 6.2646z" fill="#587b25"/></g><g transform="matrix(.49644 -.038252 .047439 .61567 4.4332 -86.337)" stroke-width=".35788"><path d="m-110.06 204.28c-10.123-8.503-19.255 7.8282-34.282 7.2433 7.2433-2.0245 24.789-19.975 34.282-7.2433z" fill="#587b25"/><path d="m-114.79 200.47c-7.8417-1.2884-12.288 6.9968-29.467 11.005" fill="none"/></g><g transform="matrix(-.71909 .35682 .35574 .72254 -192.22 -33.921)" stroke-width=".24679"><path d="m-127.62 169.57c-2.6809-1.576-8.0332 11.236-8.4904 12.453 3.5503-2.1994 12.302-14.676 8.4904-12.453z" fill="#587b25"/><path d="m-127.61 169.62c-3.0533 4.8883-7.6553 11.346-8.4299 12.268" fill="none"/></g><g stroke-width=".19844"><g transform="rotate(13.311 468.56 474.86)"><path d="m-127.62 169.57c-4.2628-2.3541-0.0242 2.1162 1.6937 2.8797 1.4634-5.6626 2.0602-6.8244-1.6937-2.8797z" fill="#587b25"/><path d="m-127.58 169.57c0.35445 1.1599 0.38107 1.5243 1.5784 2.8051" fill="none"/></g><g transform="matrix(-.99931 -.037039 -.037039 .99931 -159.79 -155.21)"><path d="m-127.62 169.57c-4.2628-2.3541-0.0242 2.1162 1.6937 2.8797 0.57461-4.6116 0.13106-5.6363-1.6937-2.8797z" fill="#587b25"/><path d="m-127.58 169.57c0.35445 1.1599 0.38107 1.5243 1.5784 2.8051" fill="none"/></g><g transform="rotate(97.911 -19.159 64.675)"><path transform="translate(1.1667e-6)" d="m-16.911 85.907c-2.3541-1.018-5.6626 2.1632-8.5575 11.357 6.6806-2.4814 11.357-11.357 8.5575-11.357z" fill="#587b25"/><path d="m-16.94 85.9c-2.6309 1.1661-7.499 10.994-8.4888 11.309" fill="none"/></g><g transform="matrix(-.15835 .98738 .98738 .15835 -128.9 82.558)"><path transform="translate(1.1667e-6)" d="m-16.911 85.907c-2.3541-1.018-5.6626 2.1632-8.5575 11.357 6.6806-2.4814 11.357-11.357 8.5575-11.357z" fill="#587b25"/><path d="m-16.94 85.9c-2.6309 1.1661-7.499 10.994-8.4888 11.309" fill="none"/></g><g transform="rotate(97.911 -26.494 72.146)"><path transform="translate(1.1667e-6)" d="m-16.911 85.907c-2.3541-1.018-5.6626 2.1632-8.5575 11.357 6.6806-2.4814 11.357-11.357 8.5575-11.357z" fill="#587b25"/><path d="m-16.94 85.9c-2.6309 1.1661-7.499 10.994-8.4888 11.309" fill="none"/></g><path d="m-40.717 21.362c1.5321 0.36057 0.71015 75.682-0.91752 77.614l-0.8889 0.1396c3.0593-45.602 0.53756-77.481 1.8064-77.753z" fill="#587b25"/></g><g transform="matrix(-.74974 .05777 .078005 1.0124 -60.762 -5.9111)" fill="#587b25" stroke-width=".2271"><path transform="translate(1.1667e-6)" d="m-16.911 85.907c-3.9447-2.3541-14.634 4.1356-19.915 17.115 6.6806-1.2089 20.551-15.015 19.915-17.115z"/><path d="m-16.972 85.955c-3.9591 0.17996-18.761 16.601-19.75 16.916"/></g><g transform="matrix(.77837 -.19704 .24541 .96942 .68605 -132)" stroke-width=".22146"><path d="m-115.52 195.8c-10.123-8.503-19.255 7.8282-34.282 7.2433 7.2433-2.0245 24.789-19.975 34.282-7.2433z" fill="#587b25"/><path d="m-120.11 192.06c-7.8417-1.2884-12.263 6.9867-29.442 10.995" fill="none"/></g><g transform="matrix(-.69774 .053763 .076825 .99704 -140.1 -75.061)" stroke-width=".23721"><path transform="translate(1.1667e-6)" d="m-125.89 147.59c6.6584-7.9631 23.806-2.7399 27.316-4.3495 0 0-23.357-4.5584-27.316 4.3495z" fill="#557a27"/><path d="m-125.9 147.69c6.1716-10.053 23.287-2.6404 27.422-4.4855 0 0-14.99-4.5249-22.841-0.54081-1.4396 0.73048-1.9724 0.82713-4.581 5.0264z" fill="#587b25"/></g><g transform="matrix(-.68818 .41365 .51518 .85708 -221.22 -54.953)" stroke-width=".22146"><path d="m-115.52 195.8c-5.4566-2.2281-13.395 4.1632-17.55-1.6989 7.2433-2.0245 12.223-3.752 17.55 1.6989z" fill="#587b25"/><path d="m-115.99 195.38c-6.5676-3.2239-14.163 0.9826-17.039-1.3121" fill="none"/></g><g transform="matrix(-.99704 .076825 .076825 .99704 -63.801 -19.969)" stroke-width=".19844"><path transform="translate(1.1667e-6)" d="m-16.911 85.907c-2.3541-1.018-5.6626 2.1632-8.5575 11.357 6.6806-2.4814 11.357-11.357 8.5575-11.357z" fill="#587b25"/><path d="m-16.94 85.9c-2.6309 1.1661-7.499 10.994-8.4888 11.309" fill="none"/></g><g transform="matrix(.76527 .24245 -.24085 .76851 97.735 -56.042)" stroke-width=".24679"><path d="m-127.62 169.57c-4.2628-2.3541 0.76349 20.742 2.4814 21.505 1.4634-5.6626 1.2725-25.45-2.4814-21.505z" fill="#587b25"/><path d="m-127.61 169.62c0.0636 4.8991 2.4426 19.455 2.4426 21.363" fill="none"/></g><g transform="matrix(-.9994 -.034543 -.034543 .9994 -162.66 -151.29)" stroke-width=".19844"><path d="m-127.62 169.57c-3.3105-0.34618 3.2254 6.8389 4.9433 7.6024 1.4634-5.6626-3.1897-10.866-4.9433-7.6024z" fill="#587b25"/><path d="m-127.65 169.56c0.62032 0.19882 4.9403 5.6632 4.9403 7.572" fill="none"/></g><g transform="matrix(-1.1855 -.29764 -.90618 1.1405 3.0106 -206.53)" stroke-width=".15582"><path d="m-97.449 175.12c3.7325 0.66181-8.2163 2.9504-10.232 2.5548 6.4487-4.1148 11.878-5.3634 10.232-2.5548z" fill="#587b25"/><path d="m-97.407 175.13c-0.62838-0.18886-7.7282 1.3982-10.197 2.5404" fill="none"/></g></g></g><g transform="translate(9.1965 4.6196)" stroke-width=".19844"><g transform="rotate(7.1882 32.665 15.447)"><g transform="matrix(.33389 .94261 .94261 -.33389 -33.506 85.725)" stroke="#557a27" stroke-linecap="round" stroke-width=".19844"><path transform="translate(1.1667e-6)" d="m-16.911 85.907c-2.3541-1.018-5.6626 2.1632-8.5575 11.357 6.6806-2.4814 11.357-11.357 8.5575-11.357z" fill="#79a933"/><path d="m-16.94 85.9c-2.6309 1.1661-7.499 10.994-8.4888 11.309" fill="none"/></g><g transform="matrix(.75727 .2669 -.33241 .94314 194.13 -89.737)" stroke="#557a27" stroke-linecap="round" stroke-width=".22146"><path d="m-115.52 195.8c-10.123-8.503-19.255 7.8282-34.282 7.2433 7.2433-2.0245 24.789-19.975 34.282-7.2433z" fill="#79a933"/><path d="m-120.11 192.06c-7.8417-1.2884-12.263 6.9867-29.442 10.995" fill="none"/></g><g stroke="#557a27" stroke-linecap="round" stroke-width=".19844"><g transform="rotate(95.129 13.729 109.91)"><path transform="translate(1.1667e-6)" d="m-16.911 85.907c-2.3541-1.018-5.6626 2.1632-8.5575 11.357 6.6806-2.4814 11.357-11.357 8.5575-11.357z" fill="#79a933"/><path d="m-16.94 85.9c-2.6309 1.1661-7.499 10.994-8.4888 11.309" fill="none"/></g><g transform="matrix(.33389 .94261 .94261 -.33389 -34.333 107.71)"><path transform="translate(1.1667e-6)" d="m-16.911 85.907c-2.3541-1.018-5.6626 2.1632-8.5575 11.357 6.6806-2.4814 11.357-11.357 8.5575-11.357z" fill="#79a933"/><path d="m-16.94 85.9c-2.6309 1.1661-7.499 10.994-8.4888 11.309" fill="none"/></g><path d="m42.644 26.604c1.5138 0.37973-2.929 72.841-4.6441 74.475l-0.89439 0.0867c5.1614-40.017 4.2584-74.373 5.5385-74.561z" fill="#79a933"/><g transform="matrix(-.04033 .99919 .99919 .04033 -47.945 106.67)"><path transform="translate(1.1667e-6)" d="m-16.911 85.907c-2.3541-1.018-5.6626 2.1632-8.5575 11.357 6.6806-2.4814 11.357-11.357 8.5575-11.357z" fill="#79a933"/><path d="m-16.94 85.9c-2.6309 1.1661-7.499 10.994-8.4888 11.309" fill="none"/></g></g><g transform="matrix(.67713 .17673 -.25254 .96759 161.27 -25.916)" stroke="#557a27" stroke-linecap="round" stroke-width=".23721"><path transform="translate(1.1667e-6)" d="m-125.89 147.59c6.6584-7.9631 23.806-2.7399 27.316-4.3495 0 0-23.357-4.5584-27.316 4.3495z" fill="#557a27"/><path d="m-125.9 147.69c6.1716-10.053 23.287-2.6404 27.422-4.4855 0 0-14.99-4.5249-22.841-0.54081-1.4396 0.73048-1.9724 0.82713-4.581 5.0264z" fill="#79a933"/></g><g transform="matrix(.60384 .52921 -.6591 .75206 237.54 8.2697)" stroke="#557a27" stroke-linecap="round" stroke-width=".22146"><path d="m-115.52 195.8c-5.4566-2.2281-13.395 4.1632-17.55-1.6989 7.2433-2.0245 12.223-3.752 17.55 1.6989z" fill="#79a933"/><path d="m-115.99 195.38c-6.5676-3.2239-14.163 0.9826-17.039-1.3121" fill="none"/></g><g transform="rotate(14.628 -19.299 305.02)" stroke="#557a27" stroke-linecap="round" stroke-width=".19844"><path transform="translate(1.1667e-6)" d="m-16.911 85.907c-2.3541-1.018-5.6626 2.1632-8.5575 11.357 6.6806-2.4814 11.357-11.357 8.5575-11.357z" fill="#79a933"/><path d="m-16.94 85.9c-2.6309 1.1661-7.499 10.994-8.4888 11.309" fill="none"/></g><g transform="matrix(.79662 -.10047 .12513 .99214 102.86 -130.55)" stroke="#557a27" stroke-linecap="round" stroke-width=".22146"><path d="m-110.06 204.28c-10.123-8.503-19.255 7.8282-34.282 7.2433 7.2433-2.0245 24.789-19.975 34.282-7.2433z" fill="#79a933"/><path d="m-114.79 200.47c-7.8417-1.2884-12.288 6.9968-29.467 11.005" fill="none"/></g><g transform="matrix(.49808 -.062818 .096897 .76829 74.771 -81.841)" stroke="#557a27" stroke-linecap="round" stroke-width=".31826"><path d="m-108.89 204.46c5.6687-9.4478 21.235 6.5685 37.341 9.9427-12.552 2.0245-29.09-7.8394-30.953-9.0429s-2.9693-3.2392-6.3885-0.89978z" fill="#79a933"/><path d="m-108.82 204.34c4.3826-4.0312 7.6384 1.9195 19.178 7.2818" fill="none"/></g><g transform="rotate(-7.1882 -739.48 -1212.3)" stroke="#557a27" stroke-linecap="round" stroke-width=".19844"><path d="m-127.62 169.57c-4.2628-2.3541 0.66805 5.2172 2.3859 5.9807 1.4634-5.6626 1.3679-9.9255-2.3859-5.9807z" fill="#79a933"/><path d="m-127.65 169.56c0.62032 0.19882 2.383 4.0416 2.383 5.9503" fill="none"/></g><g transform="rotate(-7.1882 -166.21 -385.67)" stroke="#557a27" stroke-linecap="round" stroke-width=".19844"><path transform="translate(1.1667e-6)" d="m-16.911 85.907c-2.3541-1.018-5.6626 2.1632-8.5575 11.357 6.6806-2.4814 11.357-11.357 8.5575-11.357z" fill="#79a933"/><path d="m-16.94 85.9c-2.6309 1.1661-7.499 10.994-8.4888 11.309" fill="none"/></g><g transform="matrix(-.54456 -.30493 -.36999 .66075 57.642 -127)" stroke="#557a27" stroke-linecap="round" stroke-width=".28864"><path d="m-110.06 204.28c-10.123-8.503-15.783 8.4786-30.81 7.8938 7.2433-2.0245 21.317-20.626 30.81-7.8938z" fill="#79a933"/><path d="m-114.79 200.47c-8.2158-0.94156-13.992 9.1026-25.72 11.623" fill="none"/></g><g transform="matrix(-.76876 .096957 .12513 .99214 -67.221 -150.01)" stroke="#557a27" stroke-linecap="round" stroke-width=".22543"><path d="m-108.89 204.46c5.6687-9.4478 21.235 6.5685 37.341 9.9427-12.552 2.0245-29.09-7.8394-30.953-9.0429s-2.9693-3.2392-6.3885-0.89978z" fill="#79a933"/><path d="m-108.82 204.34c4.3826-4.0312 7.6384 1.9195 19.178 7.2818" fill="none"/></g><g stroke-width=".19844"><g transform="matrix(-.99214 .12513 .12513 .99214 -105.96 -110.55)" stroke="#557a27" stroke-linecap="round"><path d="m-127.62 169.57c-4.2628-2.3541 0.66805 5.2172 2.3859 5.9807 1.4634-5.6626 1.3679-9.9255-2.3859-5.9807z" fill="#79a933"/><path d="m-127.65 169.56c0.62032 0.19882 2.383 4.0416 2.383 5.9503" fill="none"/></g><path d="m46.513 21.724c0.69664 6.782-3.0904 6.058-3.8427 6.9238 0 0 6.0713-0.04018 3.8427-6.9238z" fill="#79a933" stroke="#557a27" stroke-linecap="round"/><path d="m37.457 20.047c1.4675 10.018 4.0763 7.5121 5.1041 8.4708 0 0-4.6844 2.7674-5.1041-8.4708z" fill="#79a933" stroke="#557a27" stroke-linecap="round"/><g transform="matrix(-.99214 .12513 .12513 .99214 -11.295 -109.32)"><path d="m-39.602 127.17c-1.2602-1e-4 -2.3833 0.68685-2.8014 1.7136-0.04095-3e-3 -0.08197-4e-3 -0.12299-4e-3 -1.1927-4e-5 -2.1596 1.0777-2.1596 2.4071 1.2e-5 0.1082 0.0066 0.21627 0.01963 0.32349-0.77423 0.24678-1.2793 0.82942-1.2795 1.4759-1.39e-4 0.88218 0.92653 1.5974 2.0696 1.5973 0.493 3e-5 0.96982-0.13576 1.3446-0.38292-0.02644 0.11864-0.03977 0.23927-0.03979 0.36018-5e-6 1.0312 0.94675 1.8671 2.1146 1.8671 0.45819-7e-5 0.90396-0.13155 1.2702-0.37465 0.49598 0.15783 1.0378 0.23972 1.5865 0.23978 1.364-9e-5 2.6181-0.5035 3.266-1.311 0.38302 0.20869 0.84668 0.32134 1.3229 0.32142 1.2301 1.1e-4 2.2274-0.73521 2.2273-1.6423-1.3e-5 -0.5677-0.39768-1.0951-1.0516-1.3948 0.35814-0.41325 0.55644-0.95016 0.55656-1.5069-1e-6 -1.2424-0.96688-2.2495-2.1596-2.2495-0.29622 2e-5 -0.58927 0.0635-0.86093 0.18655-0.41249-0.43494-0.98839-0.68165-1.5911-0.68161-0.4061 5e-5 -0.80412 0.11227-1.1493 0.32401-0.5327-0.78572-1.5079-1.2686-2.5621-1.2687z" fill="#f58aaf" stroke="#690526" stroke-linecap="round" stroke-width=".19844"/><use transform="rotate(-48.699 -43.419 119.16)" xlink:href="#path92"/><use transform="rotate(-13.365 -41.295 87.676)" xlink:href="#path92"/><use transform="rotate(73.134 -44.285 135.44)" xlink:href="#path92"/><use transform="rotate(-51.371 -40.624 115.07)" xlink:href="#path92"/><use transform="rotate(264.21 -40.547 122.23)" xlink:href="#path92"/><use transform="rotate(116.63 -41.474 133.28)" xlink:href="#path92"/><use transform="rotate(63.151 -43.152 142.39)" xlink:href="#path92"/><use transform="rotate(-72.759 -37.359 118.97)" xlink:href="#path92"/><use transform="rotate(52.075 -46.659 147.84)" xlink:href="#path92"/><use transform="rotate(256.8 -38.062 124.74)" xlink:href="#path92"/><use transform="rotate(233.95 -39.95 127.28)" xlink:href="#path92"/><use transform="rotate(-77.53 -37.486 123.5)" xlink:href="#path92"/><use transform="rotate(5.8057 -122.22 238.96)" xlink:href="#path92"/><use transform="rotate(-51.229 -35.766 121.85)" xlink:href="#path92"/><use transform="rotate(108.47 -47.718 134.01)" xlink:href="#path92"/><use transform="rotate(268.08 -42.164 127.42)" xlink:href="#path92"/><use transform="rotate(-10.684 -11.983 104.41)" xlink:href="#path92"/><use transform="rotate(24.691 -60.088 138.35)" xlink:href="#path92"/><use transform="rotate(256.73 -44.51 127.88)" xlink:href="#path92"/><use transform="rotate(-1.7835 117.89 -63.104)" xlink:href="#path92"/><use transform="rotate(214.5 -43.466 129.29)" xlink:href="#path92"/><use transform="rotate(238.47 -41.787 127.93)" xlink:href="#path92"/><use transform="rotate(-81.275 -38.015 121.63)" xlink:href="#path92"/><use transform="rotate(218.63 -41.655 128.68)" xlink:href="#path92"/><use transform="rotate(48.894 -48.613 144.23)" xlink:href="#path92"/><use transform="rotate(15.947 -54.855 181.28)" xlink:href="#path92"/><use transform="rotate(61.123 -44.938 140.03)" xlink:href="#path92"/><use transform="rotate(26.277 -51.931 158.48)" xlink:href="#path92"/><use transform="rotate(60.554 -48.749 133.12)" xlink:href="#path92"/><use transform="rotate(45.166 -46.569 139.45)" xlink:href="#path92"/><use transform="rotate(-35.466 -35.092 113.19)" xlink:href="#path92"/><use transform="rotate(1.2778 -243.86 658.7)" xlink:href="#path92"/><use transform="rotate(265.72 -41.599 124.25)" xlink:href="#path92"/><use transform="rotate(-44.498 -38.628 120.82)" xlink:href="#path92"/><use transform="rotate(171.07 -45.597 128.76)" xlink:href="#path92"/><use transform="rotate(-44.596 -41.892 119.37)" xlink:href="#path92"/><use transform="rotate(-15.637 -31.811 105.51)" xlink:href="#path92"/><use transform="rotate(252.23 -43.106 126.34)" xlink:href="#path92"/><use transform="rotate(181.54 -43.915 129.9)" xlink:href="#path92"/><use transform="rotate(202.06 -43.577 128.31)" xlink:href="#path92"/><use transform="rotate(23.787 -49.117 156.51)" xlink:href="#path92"/></g><g transform="matrix(-.99214 .12513 .12513 .99214 -18.948 -106.94)"><path d="m-39.602 127.17c-1.2602-1e-4 -2.3833 0.68685-2.8014 1.7136-0.04095-3e-3 -0.08197-4e-3 -0.12299-4e-3 -1.1927-4e-5 -2.1596 1.0777-2.1596 2.4071 1.2e-5 0.1082 0.0066 0.21627 0.01963 0.32349-0.77423 0.24678-1.2793 0.82942-1.2795 1.4759-1.39e-4 0.88218 0.92653 1.5974 2.0696 1.5973 0.493 3e-5 0.96982-0.13576 1.3446-0.38292-0.02644 0.11864-0.03977 0.23927-0.03979 0.36018-5e-6 1.0312 0.94675 1.8671 2.1146 1.8671 0.45819-7e-5 0.90396-0.13155 1.2702-0.37465 0.49598 0.15783 1.0378 0.23972 1.5865 0.23978 1.364-9e-5 2.6181-0.5035 3.266-1.311 0.38302 0.20869 0.84668 0.32134 1.3229 0.32142 1.2301 1.1e-4 2.2274-0.73521 2.2273-1.6423-1.3e-5 -0.5677-0.39768-1.0951-1.0516-1.3948 0.35814-0.41325 0.55644-0.95016 0.55656-1.5069-1e-6 -1.2424-0.96688-2.2495-2.1596-2.2495-0.29622 2e-5 -0.58927 0.0635-0.86093 0.18655-0.41249-0.43494-0.98839-0.68165-1.5911-0.68161-0.4061 5e-5 -0.80412 0.11227-1.1493 0.32401-0.5327-0.78572-1.5079-1.2686-2.5621-1.2687z" fill="#f58aaf" stroke="#690526" stroke-linecap="round" stroke-width=".19844"/><use transform="rotate(-48.699 -43.419 119.16)" xlink:href="#path92"/><use transform="rotate(-13.365 -41.295 87.676)" xlink:href="#path92"/><use transform="rotate(73.134 -44.285 135.44)" xlink:href="#path92"/><use transform="rotate(-51.371 -40.624 115.07)" xlink:href="#path92"/><use transform="rotate(264.21 -40.547 122.23)" xlink:href="#path92"/><use transform="rotate(116.63 -41.474 133.28)" xlink:href="#path92"/><use transform="rotate(63.151 -43.152 142.39)" xlink:href="#path92"/><use transform="rotate(-72.759 -37.359 118.97)" xlink:href="#path92"/><use transform="rotate(52.075 -46.659 147.84)" xlink:href="#path92"/><use transform="rotate(256.8 -38.062 124.74)" xlink:href="#path92"/><use transform="rotate(233.95 -39.95 127.28)" xlink:href="#path92"/><use transform="rotate(-77.53 -37.486 123.5)" xlink:href="#path92"/><use transform="rotate(5.8057 -122.22 238.96)" xlink:href="#path92"/><use transform="rotate(-51.229 -35.766 121.85)" xlink:href="#path92"/><use transform="rotate(108.47 -47.718 134.01)" xlink:href="#path92"/><use transform="rotate(268.08 -42.164 127.42)" xlink:href="#path92"/><use transform="rotate(-10.684 -11.983 104.41)" xlink:href="#path92"/><use transform="rotate(24.691 -60.088 138.35)" xlink:href="#path92"/><use transform="rotate(256.73 -44.51 127.88)" xlink:href="#path92"/><use transform="rotate(-1.7835 117.89 -63.104)" xlink:href="#path92"/><use transform="rotate(214.5 -43.466 129.29)" xlink:href="#path92"/><use transform="rotate(238.47 -41.787 127.93)" xlink:href="#path92"/><use transform="rotate(-81.275 -38.015 121.63)" xlink:href="#path92"/><use transform="rotate(218.63 -41.655 128.68)" xlink:href="#path92"/><use transform="rotate(48.894 -48.613 144.23)" xlink:href="#path92"/><use transform="rotate(15.947 -54.855 181.28)" xlink:href="#path92"/><use transform="rotate(61.123 -44.938 140.03)" xlink:href="#path92"/><use transform="rotate(26.277 -51.931 158.48)" xlink:href="#path92"/><use transform="rotate(60.554 -48.749 133.12)" xlink:href="#path92"/><use transform="rotate(45.166 -46.569 139.45)" xlink:href="#path92"/><use transform="rotate(-35.466 -35.092 113.19)" xlink:href="#path92"/><use transform="rotate(1.2778 -243.86 658.7)" xlink:href="#path92"/><use transform="rotate(265.72 -41.599 124.25)" xlink:href="#path92"/><use transform="rotate(-44.498 -38.628 120.82)" xlink:href="#path92"/><use transform="rotate(171.07 -45.597 128.76)" xlink:href="#path92"/><use transform="rotate(-44.596 -41.892 119.37)" xlink:href="#path92"/><use transform="rotate(-15.637 -31.811 105.51)" xlink:href="#path92"/><use transform="rotate(252.23 -43.106 126.34)" xlink:href="#path92"/><use transform="rotate(181.54 -43.915 129.9)" xlink:href="#path92"/><use transform="rotate(202.06 -43.577 128.31)" xlink:href="#path92"/><use transform="rotate(23.787 -49.117 156.51)" xlink:href="#path92"/></g><path d="m45.292 16.407c1.6519 10.473-1.9261 11.102-2.6837 12.286 0 0 6.0146-1.225 2.6837-12.286z" fill="#79a933" stroke="#557a27" stroke-linecap="round"/><path d="m37.441 25.27c2.4733 5.3365 4.3151 2.4473 5.3429 3.406 0 0-4.7918 2.2918-5.3429-3.406z" fill="#79a933" stroke="#557a27" stroke-linecap="round"/><g transform="rotate(-7.1882 -876.98 -578.03)"><path d="m-39.602 127.17c-1.2602-1e-4 -2.3833 0.68685-2.8014 1.7136-0.04095-3e-3 -0.08197-4e-3 -0.12299-4e-3 -1.1927-4e-5 -2.1596 1.0777-2.1596 2.4071 1.2e-5 0.1082 0.0066 0.21627 0.01963 0.32349-0.77423 0.24678-1.2793 0.82942-1.2795 1.4759-1.39e-4 0.88218 0.92653 1.5974 2.0696 1.5973 0.493 3e-5 0.96982-0.13576 1.3446-0.38292-0.02644 0.11864-0.03977 0.23927-0.03979 0.36018-5e-6 1.0312 0.94675 1.8671 2.1146 1.8671 0.45819-7e-5 0.90396-0.13155 1.2702-0.37465 0.49598 0.15783 1.0378 0.23972 1.5865 0.23978 1.364-9e-5 2.6181-0.5035 3.266-1.311 0.38302 0.20869 0.84668 0.32134 1.3229 0.32142 1.2301 1.1e-4 2.2274-0.73521 2.2273-1.6423-1.3e-5 -0.5677-0.39768-1.0951-1.0516-1.3948 0.35814-0.41325 0.55644-0.95016 0.55656-1.5069-1e-6 -1.2424-0.96688-2.2495-2.1596-2.2495-0.29622 2e-5 -0.58927 0.0635-0.86093 0.18655-0.41249-0.43494-0.98839-0.68165-1.5911-0.68161-0.4061 5e-5 -0.80412 0.11227-1.1493 0.32401-0.5327-0.78572-1.5079-1.2686-2.5621-1.2687z" fill="#f58aaf" stroke="#690526" stroke-linecap="round" stroke-width=".19844"/><use transform="rotate(-48.699 -43.419 119.16)" xlink:href="#path92"/><use transform="rotate(-13.365 -41.295 87.676)" xlink:href="#path92"/><use transform="rotate(73.134 -44.285 135.44)" xlink:href="#path92"/><use transform="rotate(-51.371 -40.624 115.07)" xlink:href="#path92"/><use transform="rotate(264.21 -40.547 122.23)" xlink:href="#path92"/><use transform="rotate(116.63 -41.474 133.28)" xlink:href="#path92"/><use transform="rotate(63.151 -43.152 142.39)" xlink:href="#path92"/><use transform="rotate(-72.759 -37.359 118.97)" xlink:href="#path92"/><use transform="rotate(52.075 -46.659 147.84)" xlink:href="#path92"/><use transform="rotate(256.8 -38.062 124.74)" xlink:href="#path92"/><use transform="rotate(233.95 -39.95 127.28)" xlink:href="#path92"/><use transform="rotate(-77.53 -37.486 123.5)" xlink:href="#path92"/><use transform="rotate(5.8057 -122.22 238.96)" xlink:href="#path92"/><use transform="rotate(-51.229 -35.766 121.85)" xlink:href="#path92"/><use transform="rotate(108.47 -47.718 134.01)" xlink:href="#path92"/><use transform="rotate(268.08 -42.164 127.42)" xlink:href="#path92"/><use transform="rotate(-10.684 -11.983 104.41)" xlink:href="#path92"/><use transform="rotate(24.691 -60.088 138.35)" xlink:href="#path92"/><use transform="rotate(256.73 -44.51 127.88)" xlink:href="#path92"/><use transform="rotate(-1.7835 117.89 -63.104)" xlink:href="#path92"/><use transform="rotate(214.5 -43.466 129.29)" xlink:href="#path92"/><use transform="rotate(238.47 -41.787 127.93)" xlink:href="#path92"/><use transform="rotate(-81.275 -38.015 121.63)" xlink:href="#path92"/><use transform="rotate(218.63 -41.655 128.68)" xlink:href="#path92"/><use transform="rotate(48.894 -48.613 144.23)" xlink:href="#path92"/><use transform="rotate(15.947 -54.855 181.28)" xlink:href="#path92"/><use transform="rotate(61.123 -44.938 140.03)" xlink:href="#path92"/><use transform="rotate(26.277 -51.931 158.48)" xlink:href="#path92"/><use transform="rotate(60.554 -48.749 133.12)" xlink:href="#path92"/><use transform="rotate(45.166 -46.569 139.45)" xlink:href="#path92"/><use transform="rotate(-35.466 -35.092 113.19)" xlink:href="#path92"/><use transform="rotate(1.2778 -243.86 658.7)" xlink:href="#path92"/><use transform="rotate(265.72 -41.599 124.25)" xlink:href="#path92"/><use transform="rotate(-44.498 -38.628 120.82)" xlink:href="#path92"/><use transform="rotate(171.07 -45.597 128.76)" xlink:href="#path92"/><use transform="rotate(-44.596 -41.892 119.37)" xlink:href="#path92"/><use transform="rotate(-15.637 -31.811 105.51)" xlink:href="#path92"/><use transform="rotate(252.23 -43.106 126.34)" xlink:href="#path92"/><use transform="rotate(181.54 -43.915 129.9)" xlink:href="#path92"/><use transform="rotate(202.06 -43.577 128.31)" xlink:href="#path92"/><use transform="rotate(23.787 -49.117 156.51)" xlink:href="#path92"/></g><g transform="rotate(164.28 7.2701 83.129)"><path d="m-39.602 127.17c-1.2602-1e-4 -2.3833 0.68685-2.8014 1.7136-0.04095-3e-3 -0.08197-4e-3 -0.12299-4e-3 -1.1927-4e-5 -2.1596 1.0777-2.1596 2.4071 1.2e-5 0.1082 0.0066 0.21627 0.01963 0.32349-0.77423 0.24678-1.2793 0.82942-1.2795 1.4759-1.39e-4 0.88218 0.92653 1.5974 2.0696 1.5973 0.493 3e-5 0.96982-0.13576 1.3446-0.38292-0.02644 0.11864-0.03977 0.23927-0.03979 0.36018-5e-6 1.0312 0.94675 1.8671 2.1146 1.8671 0.45819-7e-5 0.90396-0.13155 1.2702-0.37465 0.49598 0.15783 1.0378 0.23972 1.5865 0.23978 1.364-9e-5 2.6181-0.5035 3.266-1.311 0.38302 0.20869 0.84668 0.32134 1.3229 0.32142 1.2301 1.1e-4 2.2274-0.73521 2.2273-1.6423-1.3e-5 -0.5677-0.39768-1.0951-1.0516-1.3948 0.35814-0.41325 0.55644-0.95016 0.55656-1.5069-1e-6 -1.2424-0.96688-2.2495-2.1596-2.2495-0.29622 2e-5 -0.58927 0.0635-0.86093 0.18655-0.41249-0.43494-0.98839-0.68165-1.5911-0.68161-0.4061 5e-5 -0.80412 0.11227-1.1493 0.32401-0.5327-0.78572-1.5079-1.2686-2.5621-1.2687z" fill="#f58aaf" stroke="#690526" stroke-linecap="round" stroke-width=".19844"/><use transform="rotate(-48.699 -43.419 119.16)" xlink:href="#path92"/><use transform="rotate(-13.365 -41.295 87.676)" xlink:href="#path92"/><use transform="rotate(73.134 -44.285 135.44)" xlink:href="#path92"/><use transform="rotate(-51.371 -40.624 115.07)" xlink:href="#path92"/><use transform="rotate(264.21 -40.547 122.23)" xlink:href="#path92"/><use transform="rotate(116.63 -41.474 133.28)" xlink:href="#path92"/><use transform="rotate(63.151 -43.152 142.39)" xlink:href="#path92"/><use transform="rotate(-72.759 -37.359 118.97)" xlink:href="#path92"/><use transform="rotate(52.075 -46.659 147.84)" xlink:href="#path92"/><use transform="rotate(256.8 -38.062 124.74)" xlink:href="#path92"/><use transform="rotate(233.95 -39.95 127.28)" xlink:href="#path92"/><use transform="rotate(-77.53 -37.486 123.5)" xlink:href="#path92"/><use transform="rotate(5.8057 -122.22 238.96)" xlink:href="#path92"/><use transform="rotate(-51.229 -35.766 121.85)" xlink:href="#path92"/><use transform="rotate(108.47 -47.718 134.01)" xlink:href="#path92"/><use transform="rotate(268.08 -42.164 127.42)" xlink:href="#path92"/><use transform="rotate(-10.684 -11.983 104.41)" xlink:href="#path92"/><use transform="rotate(24.691 -60.088 138.35)" xlink:href="#path92"/><use transform="rotate(256.73 -44.51 127.88)" xlink:href="#path92"/><use transform="rotate(-1.7835 117.89 -63.104)" xlink:href="#path92"/><use transform="rotate(214.5 -43.466 129.29)" xlink:href="#path92"/><use transform="rotate(238.47 -41.787 127.93)" xlink:href="#path92"/><use transform="rotate(-81.275 -38.015 121.63)" xlink:href="#path92"/><use transform="rotate(218.63 -41.655 128.68)" xlink:href="#path92"/><use transform="rotate(48.894 -48.613 144.23)" xlink:href="#path92"/><use transform="rotate(15.947 -54.855 181.28)" xlink:href="#path92"/><use transform="rotate(61.123 -44.938 140.03)" xlink:href="#path92"/><use transform="rotate(26.277 -51.931 158.48)" xlink:href="#path92"/><use transform="rotate(60.554 -48.749 133.12)" xlink:href="#path92"/><use transform="rotate(45.166 -46.569 139.45)" xlink:href="#path92"/><use transform="rotate(-35.466 -35.092 113.19)" xlink:href="#path92"/><use transform="rotate(1.2778 -243.86 658.7)" xlink:href="#path92"/><use transform="rotate(265.72 -41.599 124.25)" xlink:href="#path92"/><use transform="rotate(-44.498 -38.628 120.82)" xlink:href="#path92"/><use transform="rotate(171.07 -45.597 128.76)" xlink:href="#path92"/><use transform="rotate(-44.596 -41.892 119.37)" xlink:href="#path92"/><use transform="rotate(-15.637 -31.811 105.51)" xlink:href="#path92"/><use transform="rotate(252.23 -43.106 126.34)" xlink:href="#path92"/><use transform="rotate(181.54 -43.915 129.9)" xlink:href="#path92"/><use transform="rotate(202.06 -43.577 128.31)" xlink:href="#path92"/><use transform="rotate(23.787 -49.117 156.51)" xlink:href="#path92"/></g></g><g transform="matrix(-.58525 .54946 .54942 .58886 -126.35 33.057)" stroke="#557a27" stroke-linecap="round" stroke-width=".24679"><path d="m-127.62 169.57c-4.2628-2.3541 0.76349 20.742 2.4814 21.505 1.4634-5.6626 1.2725-25.45-2.4814-21.505z" fill="#79a933"/><path d="m-127.61 169.62c0.0636 4.8991 2.4426 19.455 2.4426 21.363" fill="none"/></g></g><g stroke="#557a27" stroke-linecap="round"><g transform="matrix(.49806 0 0 1.1722 62.775 -150.18)" stroke-width=".2597"><path d="m-123.6 149.8c9.9631-5.8486 23.698-4.1993 30.173-6.1111 0 0-26.214-2.7968-30.173 6.1111z" fill="#557a27"/><path d="m-123.59 149.73c7.0988-6.291 26.827-4.4194 30.963-6.2646-12.807-1.4243-27.278-0.45731-30.963 6.2646z" fill="#79a933"/></g><g transform="matrix(-.49791 0 0 .61749 -52.164 -79.942)" stroke-width=".35788"><path d="m-110.06 204.28c-10.123-8.503-19.255 7.8282-34.282 7.2433 7.2433-2.0245 24.789-19.975 34.282-7.2433z" fill="#79a933"/><path d="m-114.79 200.47c-7.8417-1.2884-12.288 6.9968-29.467 11.005" fill="none"/></g><g transform="matrix(.74438 .30052 -.29918 .74773 147.93 -42.788)" stroke-width=".24679"><path d="m-127.62 169.57c-2.6809-1.576-8.0332 11.236-8.4904 12.453 3.5503-2.1994 12.302-14.676 8.4904-12.453z" fill="#79a933"/><path d="m-127.61 169.62c-3.0533 4.8883-7.6553 11.346-8.4299 12.268" fill="none"/></g><g stroke-width=".19844"><g transform="matrix(-.95257 .30431 .30431 .95257 -169.98 -79.674)"><path d="m-127.62 169.57c-4.2628-2.3541-0.0242 2.1162 1.6937 2.8797 1.4634-5.6626 2.0602-6.8244-1.6937-2.8797z" fill="#79a933"/><path d="m-127.58 169.57c0.35445 1.1599 0.38107 1.5243 1.5784 2.8051" fill="none"/></g><g transform="rotate(-6.5288 -1360.3 -1012.3)"><path d="m-127.62 169.57c-4.2628-2.3541-0.0242 2.1162 1.6937 2.8797 0.57461-4.6116 0.13106-5.6363-1.6937-2.8797z" fill="#79a933"/><path d="m-127.58 169.57c0.35445 1.1599 0.38107 1.5243 1.5784 2.8051" fill="none"/></g><g transform="matrix(.21332 .97698 .97698 -.21332 -76.139 101.33)"><path transform="translate(1.1667e-6)" d="m-16.911 85.907c-2.3541-1.018-5.6626 2.1632-8.5575 11.357 6.6806-2.4814 11.357-11.357 8.5575-11.357z" fill="#79a933"/><path d="m-16.94 85.9c-2.6309 1.1661-7.499 10.994-8.4888 11.309" fill="none"/></g><g transform="rotate(76.483 -2.746 98.584)"><path transform="translate(1.1667e-6)" d="m-16.911 85.907c-2.3541-1.018-5.6626 2.1632-8.5575 11.357 6.6806-2.4814 11.357-11.357 8.5575-11.357z" fill="#79a933"/><path d="m-16.94 85.9c-2.6309 1.1661-7.499 10.994-8.4888 11.309" fill="none"/></g><g transform="matrix(.21332 .97698 .97698 -.21332 -73.986 116.97)"><path transform="translate(1.1667e-6)" d="m-16.911 85.907c-2.3541-1.018-5.6626 2.1632-8.5575 11.357 6.6806-2.4814 11.357-11.357 8.5575-11.357z" fill="#79a933"/><path d="m-16.94 85.9c-2.6309 1.1661-7.499 10.994-8.4888 11.309" fill="none"/></g><path d="m0.76741 16.951c-1.4999 0.47721 5.4662 82.532 7.2374 84.332l0.89699 0.0709c-6.5536-45.232-6.8484-84.229-8.1344-84.403z" fill="#79a933"/></g><g transform="matrix(.75197 0 0 1.0154 19.017 -4.7624)" fill="#79a933" stroke-width=".2271"><path transform="translate(1.1667e-6)" d="m-16.911 85.907c-3.9447-2.3541-14.634 4.1356-19.915 17.115 6.6806-1.2089 20.551-15.015 19.915-17.115z"/><path d="m-16.972 85.955c-3.9591 0.17996-18.761 16.601-19.75 16.916"/></g><g transform="matrix(-.79121 -.13666 -.17021 .98541 -51.935 -125.76)" stroke-width=".22146"><path d="m-115.52 195.8c-10.123-8.503-19.255 7.8282-34.282 7.2433 7.2433-2.0245 24.789-19.975 34.282-7.2433z" fill="#79a933"/><path d="m-120.11 192.06c-7.8417-1.2884-12.263 6.9867-29.442 10.995" fill="none"/></g><g transform="matrix(.69981 0 0 1 92.811 -79.804)" stroke-width=".23721"><path transform="translate(1.1667e-6)" d="m-125.89 147.59c6.6584-7.9631 23.806-2.7399 27.316-4.3495 0 0-23.357-4.5584-27.316 4.3495z" fill="#557a27"/><path d="m-125.9 147.69c6.1716-10.053 23.287-2.6404 27.422-4.4855 0 0-14.99-4.5249-22.841-0.54081-1.4396 0.73048-1.9724 0.82713-4.581 5.0264z" fill="#79a933"/></g><g transform="matrix(.71792 .35956 -.44781 .89413 175.24 -65.987)" stroke-width=".22146"><path d="m-115.52 195.8c-5.4566-2.2281-13.395 4.1632-17.55-1.6989 7.2433-2.0245 12.223-3.752 17.55 1.6989z" fill="#79a933"/><path d="m-115.99 195.38c-6.5676-3.2239-14.163 0.9826-17.039-1.3121" fill="none"/></g><g transform="translate(20.967 -19.013)" stroke-width=".19844"><path transform="translate(1.1667e-6)" d="m-16.911 85.907c-2.3541-1.018-5.6626 2.1632-8.5575 11.357 6.6806-2.4814 11.357-11.357 8.5575-11.357z" fill="#79a933"/><path d="m-16.94 85.9c-2.6309 1.1661-7.499 10.994-8.4888 11.309" fill="none"/></g><g transform="matrix(-.74438 .30052 .29918 .74773 -142.86 -42.569)" stroke-width=".24679"><path d="m-127.62 169.57c-4.2628-2.3541 0.76349 20.742 2.4814 21.505 1.4634-5.6626 1.2725-25.45-2.4814-21.505z" fill="#79a933"/><path d="m-127.61 169.62c0.0636 4.8991 2.4426 19.455 2.4426 21.363" fill="none"/></g><g transform="rotate(-6.3856 -1357.3 -1059.7)" stroke-width=".19844"><path d="m-127.62 169.57c-3.3105-0.34618 3.2254 6.8389 4.9433 7.6024 1.4634-5.6626-3.1897-10.866-4.9433-7.6024z" fill="#79a933"/><path d="m-127.65 169.56c0.62032 0.19882 4.9403 5.6632 4.9403 7.572" fill="none"/></g><g transform="matrix(-1.1855 -.29764 -.90618 1.1405 3.0106 -206.53)" stroke-width=".15582"><path d="m-127.62 169.57c-3.0896-1.4562 1.1006 5.8429 2.8184 6.6064 1.4634-5.6626-0.17069-9.1041-2.8184-6.6064z" fill="#79a933"/><path d="m-127.65 169.56c0.62032 0.19882 2.8162 4.6718 2.8162 6.5806" fill="none"/></g></g><g fill="#79a933" stroke="#557a27" stroke-linecap="round" stroke-width=".19844"><path d="m-1.2544 10.389c-0.79051 5.9832 1.2592 5.6726 2.1589 6.7524 0 0-4.2625 0.08039-2.1589-6.7524z"/><path d="m-2.7784 12.029c0.88634 6.0539 2.8502 4.0703 3.75 5.15 0 0-4.1411 1.1118-3.75-5.15z"/><path d="m5.6701 13.137c-1.7861 5.604-3.975 2.968-4.8748 4.0478 0 0 5.0409 1.6742 4.8748-4.0478z"/></g><g stroke-width=".19844"><g transform="translate(37.753 -124.26)"><path d="m-39.602 127.17c-1.2602-1e-4 -2.3833 0.68685-2.8014 1.7136-0.04095-3e-3 -0.08197-4e-3 -0.12299-4e-3 -1.1927-4e-5 -2.1596 1.0777-2.1596 2.4071 1.2e-5 0.1082 0.0066 0.21627 0.01963 0.32349-0.77423 0.24678-1.2793 0.82942-1.2795 1.4759-1.39e-4 0.88218 0.92653 1.5974 2.0696 1.5973 0.493 3e-5 0.96982-0.13576 1.3446-0.38292-0.02644 0.11864-0.03977 0.23927-0.03979 0.36018-5e-6 1.0312 0.94675 1.8671 2.1146 1.8671 0.45819-7e-5 0.90396-0.13155 1.2702-0.37465 0.49598 0.15783 1.0378 0.23972 1.5865 0.23978 1.364-9e-5 2.6181-0.5035 3.266-1.311 0.38302 0.20869 0.84668 0.32134 1.3229 0.32142 1.2301 1.1e-4 2.2274-0.73521 2.2273-1.6423-1.3e-5 -0.5677-0.39768-1.0951-1.0516-1.3948 0.35814-0.41325 0.55644-0.95016 0.55656-1.5069-1e-6 -1.2424-0.96688-2.2495-2.1596-2.2495-0.29622 2e-5 -0.58927 0.0635-0.86093 0.18655-0.41249-0.43494-0.98839-0.68165-1.5911-0.68161-0.4061 5e-5 -0.80412 0.11227-1.1493 0.32401-0.5327-0.78572-1.5079-1.2686-2.5621-1.2687z" fill="#f58aaf" stroke="#690526" stroke-linecap="round" stroke-width=".19844"/><use transform="rotate(-48.699 -43.419 119.16)" xlink:href="#path92"/><use transform="rotate(-13.365 -41.295 87.676)" xlink:href="#path92"/><use transform="rotate(73.134 -44.285 135.44)" xlink:href="#path92"/><use transform="rotate(-51.371 -40.624 115.07)" xlink:href="#path92"/><use transform="rotate(264.21 -40.547 122.23)" xlink:href="#path92"/><use transform="rotate(116.63 -41.474 133.28)" xlink:href="#path92"/><use transform="rotate(63.151 -43.152 142.39)" xlink:href="#path92"/><use transform="rotate(-72.759 -37.359 118.97)" xlink:href="#path92"/><use transform="rotate(52.075 -46.659 147.84)" xlink:href="#path92"/><use transform="rotate(256.8 -38.062 124.74)" xlink:href="#path92"/><use transform="rotate(233.95 -39.95 127.28)" xlink:href="#path92"/><use transform="rotate(-77.53 -37.486 123.5)" xlink:href="#path92"/><use transform="rotate(5.8057 -122.22 238.96)" xlink:href="#path92"/><use transform="rotate(-51.229 -35.766 121.85)" xlink:href="#path92"/><use transform="rotate(108.47 -47.718 134.01)" xlink:href="#path92"/><use transform="rotate(268.08 -42.164 127.42)" xlink:href="#path92"/><use transform="rotate(-10.684 -11.983 104.41)" xlink:href="#path92"/><use transform="rotate(24.691 -60.088 138.35)" xlink:href="#path92"/><use transform="rotate(256.73 -44.51 127.88)" xlink:href="#path92"/><use transform="rotate(-1.7835 117.89 -63.104)" xlink:href="#path92"/><use transform="rotate(214.5 -43.466 129.29)" xlink:href="#path92"/><use transform="rotate(238.47 -41.787 127.93)" xlink:href="#path92"/><use transform="rotate(-81.275 -38.015 121.63)" xlink:href="#path92"/><use transform="rotate(218.63 -41.655 128.68)" xlink:href="#path92"/><use transform="rotate(48.894 -48.613 144.23)" xlink:href="#path92"/><use transform="rotate(15.947 -54.855 181.28)" xlink:href="#path92"/><use transform="rotate(61.123 -44.938 140.03)" xlink:href="#path92"/><use transform="rotate(26.277 -51.931 158.48)" xlink:href="#path92"/><use transform="rotate(60.554 -48.749 133.12)" xlink:href="#path92"/><use transform="rotate(45.166 -46.569 139.45)" xlink:href="#path92"/><use transform="rotate(-35.466 -35.092 113.19)" xlink:href="#path92"/><use transform="rotate(1.2778 -243.86 658.7)" xlink:href="#path92"/><use transform="rotate(265.72 -41.599 124.25)" xlink:href="#path92"/><use transform="rotate(-44.498 -38.628 120.82)" xlink:href="#path92"/><use transform="rotate(171.07 -45.597 128.76)" xlink:href="#path92"/><use transform="rotate(-44.596 -41.892 119.37)" xlink:href="#path92"/><use transform="rotate(-15.637 -31.811 105.51)" xlink:href="#path92"/><use transform="rotate(252.23 -43.106 126.34)" xlink:href="#path92"/><use transform="rotate(181.54 -43.915 129.9)" xlink:href="#path92"/><use transform="rotate(202.06 -43.577 128.31)" xlink:href="#path92"/><use transform="rotate(23.787 -49.117 156.51)" xlink:href="#path92"/></g><g transform="matrix(-.97281 .23161 .23161 .97281 -69.479 -109.21)"><path d="m-39.602 127.17c-1.2602-1e-4 -2.3833 0.68685-2.8014 1.7136-0.04095-3e-3 -0.08197-4e-3 -0.12299-4e-3 -1.1927-4e-5 -2.1596 1.0777-2.1596 2.4071 1.2e-5 0.1082 0.0066 0.21627 0.01963 0.32349-0.77423 0.24678-1.2793 0.82942-1.2795 1.4759-1.39e-4 0.88218 0.92653 1.5974 2.0696 1.5973 0.493 3e-5 0.96982-0.13576 1.3446-0.38292-0.02644 0.11864-0.03977 0.23927-0.03979 0.36018-5e-6 1.0312 0.94675 1.8671 2.1146 1.8671 0.45819-7e-5 0.90396-0.13155 1.2702-0.37465 0.49598 0.15783 1.0378 0.23972 1.5865 0.23978 1.364-9e-5 2.6181-0.5035 3.266-1.311 0.38302 0.20869 0.84668 0.32134 1.3229 0.32142 1.2301 1.1e-4 2.2274-0.73521 2.2273-1.6423-1.3e-5 -0.5677-0.39768-1.0951-1.0516-1.3948 0.35814-0.41325 0.55644-0.95016 0.55656-1.5069-1e-6 -1.2424-0.96688-2.2495-2.1596-2.2495-0.29622 2e-5 -0.58927 0.0635-0.86093 0.18655-0.41249-0.43494-0.98839-0.68165-1.5911-0.68161-0.4061 5e-5 -0.80412 0.11227-1.1493 0.32401-0.5327-0.78572-1.5079-1.2686-2.5621-1.2687z" fill="#f58aaf" stroke="#690526" stroke-linecap="round" stroke-width=".19844"/><use transform="rotate(-48.699 -43.419 119.16)" xlink:href="#path92"/><use transform="rotate(-13.365 -41.295 87.676)" xlink:href="#path92"/><use transform="rotate(73.134 -44.285 135.44)" xlink:href="#path92"/><use transform="rotate(-51.371 -40.624 115.07)" xlink:href="#path92"/><use transform="rotate(264.21 -40.547 122.23)" xlink:href="#path92"/><use transform="rotate(116.63 -41.474 133.28)" xlink:href="#path92"/><use transform="rotate(63.151 -43.152 142.39)" xlink:href="#path92"/><use transform="rotate(-72.759 -37.359 118.97)" xlink:href="#path92"/><use transform="rotate(52.075 -46.659 147.84)" xlink:href="#path92"/><use transform="rotate(256.8 -38.062 124.74)" xlink:href="#path92"/><use transform="rotate(233.95 -39.95 127.28)" xlink:href="#path92"/><use transform="rotate(-77.53 -37.486 123.5)" xlink:href="#path92"/><use transform="rotate(5.8057 -122.22 238.96)" xlink:href="#path92"/><use transform="rotate(-51.229 -35.766 121.85)" xlink:href="#path92"/><use transform="rotate(108.47 -47.718 134.01)" xlink:href="#path92"/><use transform="rotate(268.08 -42.164 127.42)" xlink:href="#path92"/><use transform="rotate(-10.684 -11.983 104.41)" xlink:href="#path92"/><use transform="rotate(24.691 -60.088 138.35)" xlink:href="#path92"/><use transform="rotate(256.73 -44.51 127.88)" xlink:href="#path92"/><use transform="rotate(-1.7835 117.89 -63.104)" xlink:href="#path92"/><use transform="rotate(214.5 -43.466 129.29)" xlink:href="#path92"/><use transform="rotate(238.47 -41.787 127.93)" xlink:href="#path92"/><use transform="rotate(-81.275 -38.015 121.63)" xlink:href="#path92"/><use transform="rotate(218.63 -41.655 128.68)" xlink:href="#path92"/><use transform="rotate(48.894 -48.613 144.23)" xlink:href="#path92"/><use transform="rotate(15.947 -54.855 181.28)" xlink:href="#path92"/><use transform="rotate(61.123 -44.938 140.03)" xlink:href="#path92"/><use transform="rotate(26.277 -51.931 158.48)" xlink:href="#path92"/><use transform="rotate(60.554 -48.749 133.12)" xlink:href="#path92"/><use transform="rotate(45.166 -46.569 139.45)" xlink:href="#path92"/><use transform="rotate(-35.466 -35.092 113.19)" xlink:href="#path92"/><use transform="rotate(1.2778 -243.86 658.7)" xlink:href="#path92"/><use transform="rotate(265.72 -41.599 124.25)" xlink:href="#path92"/><use transform="rotate(-44.498 -38.628 120.82)" xlink:href="#path92"/><use transform="rotate(171.07 -45.597 128.76)" xlink:href="#path92"/><use transform="rotate(-44.596 -41.892 119.37)" xlink:href="#path92"/><use transform="rotate(-15.637 -31.811 105.51)" xlink:href="#path92"/><use transform="rotate(252.23 -43.106 126.34)" xlink:href="#path92"/><use transform="rotate(181.54 -43.915 129.9)" xlink:href="#path92"/><use transform="rotate(202.06 -43.577 128.31)" xlink:href="#path92"/><use transform="rotate(23.787 -49.117 156.51)" xlink:href="#path92"/></g><g transform="translate(43.533 -120.75)"><path d="m-39.602 127.17c-1.2602-1e-4 -2.3833 0.68685-2.8014 1.7136-0.04095-3e-3 -0.08197-4e-3 -0.12299-4e-3 -1.1927-4e-5 -2.1596 1.0777-2.1596 2.4071 1.2e-5 0.1082 0.0066 0.21627 0.01963 0.32349-0.77423 0.24678-1.2793 0.82942-1.2795 1.4759-1.39e-4 0.88218 0.92653 1.5974 2.0696 1.5973 0.493 3e-5 0.96982-0.13576 1.3446-0.38292-0.02644 0.11864-0.03977 0.23927-0.03979 0.36018-5e-6 1.0312 0.94675 1.8671 2.1146 1.8671 0.45819-7e-5 0.90396-0.13155 1.2702-0.37465 0.49598 0.15783 1.0378 0.23972 1.5865 0.23978 1.364-9e-5 2.6181-0.5035 3.266-1.311 0.38302 0.20869 0.84668 0.32134 1.3229 0.32142 1.2301 1.1e-4 2.2274-0.73521 2.2273-1.6423-1.3e-5 -0.5677-0.39768-1.0951-1.0516-1.3948 0.35814-0.41325 0.55644-0.95016 0.55656-1.5069-1e-6 -1.2424-0.96688-2.2495-2.1596-2.2495-0.29622 2e-5 -0.58927 0.0635-0.86093 0.18655-0.41249-0.43494-0.98839-0.68165-1.5911-0.68161-0.4061 5e-5 -0.80412 0.11227-1.1493 0.32401-0.5327-0.78572-1.5079-1.2686-2.5621-1.2687z" fill="#f58aaf" stroke="#690526" stroke-linecap="round" stroke-width=".19844"/><use transform="rotate(-48.699 -43.419 119.16)" xlink:href="#path92"/><use transform="rotate(-13.365 -41.295 87.676)" xlink:href="#path92"/><use transform="rotate(73.134 -44.285 135.44)" xlink:href="#path92"/><use transform="rotate(-51.371 -40.624 115.07)" xlink:href="#path92"/><use transform="rotate(264.21 -40.547 122.23)" xlink:href="#path92"/><use transform="rotate(116.63 -41.474 133.28)" xlink:href="#path92"/><use transform="rotate(63.151 -43.152 142.39)" xlink:href="#path92"/><use transform="rotate(-72.759 -37.359 118.97)" xlink:href="#path92"/><use transform="rotate(52.075 -46.659 147.84)" xlink:href="#path92"/><use transform="rotate(256.8 -38.062 124.74)" xlink:href="#path92"/><use transform="rotate(233.95 -39.95 127.28)" xlink:href="#path92"/><use transform="rotate(-77.53 -37.486 123.5)" xlink:href="#path92"/><use transform="rotate(5.8057 -122.22 238.96)" xlink:href="#path92"/><use transform="rotate(-51.229 -35.766 121.85)" xlink:href="#path92"/><use transform="rotate(108.47 -47.718 134.01)" xlink:href="#path92"/><use transform="rotate(268.08 -42.164 127.42)" xlink:href="#path92"/><use transform="rotate(-10.684 -11.983 104.41)" xlink:href="#path92"/><use transform="rotate(24.691 -60.088 138.35)" xlink:href="#path92"/><use transform="rotate(256.73 -44.51 127.88)" xlink:href="#path92"/><use transform="rotate(-1.7835 117.89 -63.104)" xlink:href="#path92"/><use transform="rotate(214.5 -43.466 129.29)" xlink:href="#path92"/><use transform="rotate(238.47 -41.787 127.93)" xlink:href="#path92"/><use transform="rotate(-81.275 -38.015 121.63)" xlink:href="#path92"/><use transform="rotate(218.63 -41.655 128.68)" xlink:href="#path92"/><use transform="rotate(48.894 -48.613 144.23)" xlink:href="#path92"/><use transform="rotate(15.947 -54.855 181.28)" xlink:href="#path92"/><use transform="rotate(61.123 -44.938 140.03)" xlink:href="#path92"/><use transform="rotate(26.277 -51.931 158.48)" xlink:href="#path92"/><use transform="rotate(60.554 -48.749 133.12)" xlink:href="#path92"/><use transform="rotate(45.166 -46.569 139.45)" xlink:href="#path92"/><use transform="rotate(-35.466 -35.092 113.19)" xlink:href="#path92"/><use transform="rotate(1.2778 -243.86 658.7)" xlink:href="#path92"/><use transform="rotate(265.72 -41.599 124.25)" xlink:href="#path92"/><use transform="rotate(-44.498 -38.628 120.82)" xlink:href="#path92"/><use transform="rotate(171.07 -45.597 128.76)" xlink:href="#path92"/><use transform="rotate(-44.596 -41.892 119.37)" xlink:href="#path92"/><use transform="rotate(-15.637 -31.811 105.51)" xlink:href="#path92"/><use transform="rotate(252.23 -43.106 126.34)" xlink:href="#path92"/><use transform="rotate(181.54 -43.915 129.9)" xlink:href="#path92"/><use transform="rotate(202.06 -43.577 128.31)" xlink:href="#path92"/><use transform="rotate(23.787 -49.117 156.51)" xlink:href="#path92"/></g></g><g><g stroke="#557a27" stroke-linecap="round"><g stroke-width=".19844"><g transform="rotate(17.717 303.07 582.69)"><path d="m-127.62 169.57c-4.2628-2.3541-0.0242 2.1162 1.6937 2.8797 1.4634-5.6626 2.0602-6.8244-1.6937-2.8797z" fill="#79a933"/><path d="m-127.58 169.57c0.35445 1.1599 0.38107 1.5243 1.5784 2.8051" fill="none"/></g><g transform="rotate(102.32 3.6255 96.52)"><path transform="translate(1.1667e-6)" d="m-16.911 85.907c-2.3541-1.018-5.6626 2.1632-8.5575 11.357 6.6806-2.4814 11.357-11.357 8.5575-11.357z" fill="#79a933"/><path d="m-16.94 85.9c-2.6309 1.1661-7.499 10.994-8.4888 11.309" fill="none"/></g><path d="m16.28 1.6486c-0.47239 10.055 3.1043 7.9631 4.0041 9.0429 0 0-6.2985 1.0348-4.0041-9.0429z" fill="#79a933"/><path d="m24.38 1.5067c0.47239 10.055-3.1043 7.9631-4.0041 9.0429 0 0 6.2985 1.0348 4.0041-9.0429z" fill="#79a933"/><g transform="rotate(102.32 18.389 79.116)"><path transform="translate(1.1667e-6)" d="m-16.911 85.907c-2.3541-1.018-5.6626 2.1632-8.5575 11.357 6.6806-2.4814 11.357-11.357 8.5575-11.357z" fill="#79a933"/><path d="m-16.94 85.9c-2.6309 1.1661-7.499 10.994-8.4888 11.309" fill="none"/></g><g transform="matrix(.21332 .97698 .97698 -.21332 -60.643 56.912)"><path transform="translate(1.1667e-6)" d="m-16.911 85.907c-2.3541-1.018-5.6626 2.1632-8.5575 11.357 6.6806-2.4814 11.357-11.357 8.5575-11.357z" fill="#79a933"/><path d="m-16.94 85.9c-2.6309 1.1661-7.499 10.994-8.4888 11.309" fill="none"/></g><g transform="matrix(-1 0 0 1 -107.13 -103.1)"><path transform="translate(1.1667e-6)" d="m-125.89 147.59c6.6584-7.9631 23.806-2.7399 27.316-4.3495 0 0-23.357-4.5584-27.316 4.3495z" fill="#557a27"/><path d="m-125.9 147.69c6.1716-10.053 23.287-2.6404 27.422-4.4855 0 0-14.99-4.5249-22.841-0.54081-1.4396 0.73048-1.9724 0.82713-4.581 5.0264z" fill="#79a933"/></g><path d="m20.312 10.651c-1.5436 0.33165-3.5929 88.357-2.0327 90.498l0.88356 0.18337c-1.4885-49.245 2.4078-90.341 1.1491-90.682z" fill="#79a933"/></g><g transform="matrix(.80293 0 0 1 106.99 -143.93)" stroke-width=".22146"><path d="m-110.06 204.28c-10.123-8.503-19.255 7.8282-34.282 7.2433 7.2433-2.0245 24.789-19.975 34.282-7.2433z" fill="#79a933"/><path d="m-114.79 200.47c-7.8417-1.2884-12.288 6.9968-29.467 11.005" fill="none"/></g><g transform="matrix(.77485 0 0 1 102.74 -144.57)" stroke-width=".22543"><path d="m-108.89 204.46c5.6687-9.4478 21.235 6.5685 37.341 9.9427-12.552 2.0245-29.09-7.8394-30.953-9.0429s-2.9693-3.2392-6.3885-0.89978z" fill="#79a933"/><path d="m-108.82 204.34c4.3826-4.0312 7.6384 1.9195 19.178 7.2818" fill="none"/></g><g transform="matrix(-.80293 0 0 1 -68.846 -180.54)" stroke-width=".22146"><path d="m-110.06 204.28c-10.123-8.503-19.255 7.8282-34.282 7.2433 7.2433-2.0245 24.789-19.975 34.282-7.2433z" fill="#79a933"/><path d="m-114.79 200.47c-7.8417-1.2884-12.288 6.9968-29.467 11.005" fill="none"/></g><g transform="matrix(-.77485 0 0 1 -64.595 -181.19)" stroke-width=".22543"><path d="m-108.89 204.46c5.6687-9.4478 21.235 6.5685 37.341 9.9427-12.552 2.0245-29.09-7.8394-30.953-9.0429s-2.9693-3.2392-6.3885-0.89978z" fill="#79a933"/><path d="m-108.82 204.34c4.3826-4.0312 7.6384 1.9195 19.178 7.2818" fill="none"/></g><g transform="matrix(-.71792 .35956 .44781 .89413 -151.77 -89.284)" stroke-width=".22146"><path d="m-115.52 195.8c-10.123-8.503-19.255 7.8282-34.282 7.2433 7.2433-2.0245 24.789-19.975 34.282-7.2433z" fill="#79a933"/><path d="m-120.11 192.06c-7.8417-1.2884-12.263 6.9867-29.442 10.995" fill="none"/></g><g transform="matrix(-1 0 0 1 2.4998 -42.31)" stroke-width=".19844"><path transform="translate(1.1667e-6)" d="m-16.911 85.907c-2.3541-1.018-5.6626 2.1632-8.5575 11.357 6.6806-2.4814 11.357-11.357 8.5575-11.357z" fill="#79a933"/><path d="m-16.94 85.9c-2.6309 1.1661-7.499 10.994-8.4888 11.309" fill="none"/></g><g transform="rotate(37.419 -12.932 142.51)" stroke-width=".19844"><path d="m-16.383 86.597c-3.1722-1.3443-13.618 5.4627-20.185 16.762 6.1194-1.9424 20.449-15.148 20.185-16.762z" fill="#79a933"/><path d="m-16.412 86.608c-3.9591 0.17996-19.112 16.369-20.101 16.684" fill="none"/></g><g transform="matrix(.49806 0 0 1.1722 80.12 -78.685)" stroke-width=".2597"><path d="m-123.6 149.8c9.9631-5.8486 40.816 0.14289 47.291-1.7689 0 0-43.332-7.139-47.291 1.7689z" fill="#557a27"/><path d="m-123.59 149.73c7.0988-6.291 43.817-0.023 47.953-1.8682-12.807-1.4243-44.013-6.8077-47.953 1.8682z" fill="#79a933"/></g><g transform="translate(145.96 -74.289)" stroke-width=".19844"><path d="m-127.62 169.57c-4.2628-2.3541 0.66805 5.2172 2.3859 5.9807 1.4634-5.6626 1.3679-9.9255-2.3859-5.9807z" fill="#79a933"/><path d="m-127.65 169.56c0.62032 0.19882 2.383 4.0416 2.383 5.9503" fill="none"/></g><g transform="matrix(-1 0 0 1 -107.97 -146.89)" stroke-width=".19844"><path d="m-127.62 169.57c-4.2628-2.3541 0.66805 5.2172 2.3859 5.9807 1.4634-5.6626 1.3679-9.9255-2.3859-5.9807z" fill="#79a933"/><path d="m-127.65 169.56c0.62032 0.19882 2.383 4.0416 2.383 5.9503" fill="none"/></g><g transform="matrix(-.80293 0 0 1 -70.394 -123.98)" stroke-width=".22146"><path d="m-110.06 204.28c-10.123-8.503-19.255 7.8282-34.282 7.2433 7.2433-2.0245 24.789-19.975 34.282-7.2433z" fill="#79a933"/><path d="m-114.79 200.47c-7.8417-1.2884-12.288 6.9968-29.467 11.005" fill="none"/></g><g transform="matrix(-.71933 0 0 1 -60.098 -124.62)" stroke-width=".23397"><path d="m-108.89 204.46c5.6687-9.4478 21.235 6.5685 37.341 9.9427-12.552 2.0245-29.09-7.8394-30.953-9.0429s-2.9693-3.2392-6.3885-0.89978z" fill="#79a933"/><path d="m-108.82 204.34c4.3826-4.0312 7.6384 1.9195 19.178 7.2818" fill="none"/></g><g transform="translate(146.02 -90.235)" stroke-width=".19844"><path d="m-127.62 169.57c-4.2628-2.3541 0.66805 5.2172 2.3859 5.9807 1.4634-5.6626 1.3679-9.9255-2.3859-5.9807z" fill="#79a933"/><path d="m-127.65 169.56c0.62032 0.19882 2.383 4.0416 2.383 5.9503" fill="none"/></g></g><g transform="matrix(1 0 0 -1 53.772 132)"><path d="m-39.602 127.17c-1.2602-1e-4 -2.3833 0.68685-2.8014 1.7136-0.04095-3e-3 -0.08197-4e-3 -0.12299-4e-3 -1.1927-4e-5 -2.1596 1.0777-2.1596 2.4071 1.2e-5 0.1082 0.0066 0.21627 0.01963 0.32349-0.77423 0.24678-1.2793 0.82942-1.2795 1.4759-1.39e-4 0.88218 0.92653 1.5974 2.0696 1.5973 0.493 3e-5 0.96982-0.13576 1.3446-0.38292-0.02644 0.11864-0.03977 0.23927-0.03979 0.36018-5e-6 1.0312 0.94675 1.8671 2.1146 1.8671 0.45819-7e-5 0.90396-0.13155 1.2702-0.37465 0.49598 0.15783 1.0378 0.23972 1.5865 0.23978 1.364-9e-5 2.6181-0.5035 3.266-1.311 0.38302 0.20869 0.84668 0.32134 1.3229 0.32142 1.2301 1.1e-4 2.2274-0.73521 2.2273-1.6423-1.3e-5 -0.5677-0.39768-1.0951-1.0516-1.3948 0.35814-0.41325 0.55644-0.95016 0.55656-1.5069-1e-6 -1.2424-0.96688-2.2495-2.1596-2.2495-0.29622 2e-5 -0.58927 0.0635-0.86093 0.18655-0.41249-0.43494-0.98839-0.68165-1.5911-0.68161-0.4061 5e-5 -0.80412 0.11227-1.1493 0.32401-0.5327-0.78572-1.5079-1.2686-2.5621-1.2687z" fill="#f58aaf" stroke="#690526" stroke-linecap="round" stroke-width=".19844"/><use transform="rotate(-48.699 -43.419 119.16)" xlink:href="#path92"/><use transform="rotate(-13.365 -41.295 87.676)" xlink:href="#path92"/><use transform="rotate(73.134 -44.285 135.44)" xlink:href="#path92"/><use transform="rotate(-51.371 -40.624 115.07)" xlink:href="#path92"/><use transform="rotate(264.21 -40.547 122.23)" xlink:href="#path92"/><use transform="rotate(116.63 -41.474 133.28)" xlink:href="#path92"/><use transform="rotate(63.151 -43.152 142.39)" xlink:href="#path92"/><use transform="rotate(-72.759 -37.359 118.97)" xlink:href="#path92"/><use transform="rotate(52.075 -46.659 147.84)" xlink:href="#path92"/><use transform="rotate(256.8 -38.062 124.74)" xlink:href="#path92"/><use transform="rotate(233.95 -39.95 127.28)" xlink:href="#path92"/><use transform="rotate(-77.53 -37.486 123.5)" xlink:href="#path92"/><use transform="rotate(5.8057 -122.22 238.96)" xlink:href="#path92"/><use transform="rotate(-51.229 -35.766 121.85)" xlink:href="#path92"/><use transform="rotate(108.47 -47.718 134.01)" xlink:href="#path92"/><use transform="rotate(268.08 -42.164 127.42)" xlink:href="#path92"/><use transform="rotate(-10.684 -11.983 104.41)" xlink:href="#path92"/><use transform="rotate(24.691 -60.088 138.35)" xlink:href="#path92"/><use transform="rotate(256.73 -44.51 127.88)" xlink:href="#path92"/><use transform="rotate(-1.7835 117.89 -63.104)" xlink:href="#path92"/><use transform="rotate(214.5 -43.466 129.29)" xlink:href="#path92"/><use transform="rotate(238.47 -41.787 127.93)" xlink:href="#path92"/><use transform="rotate(-81.275 -38.015 121.63)" xlink:href="#path92"/><use transform="rotate(218.63 -41.655 128.68)" xlink:href="#path92"/><use transform="rotate(48.894 -48.613 144.23)" xlink:href="#path92"/><use transform="rotate(15.947 -54.855 181.28)" xlink:href="#path92"/><use transform="rotate(61.123 -44.938 140.03)" xlink:href="#path92"/><use transform="rotate(26.277 -51.931 158.48)" xlink:href="#path92"/><use transform="rotate(60.554 -48.749 133.12)" xlink:href="#path92"/><use transform="rotate(45.166 -46.569 139.45)" xlink:href="#path92"/><use transform="rotate(-35.466 -35.092 113.19)" xlink:href="#path92"/><use transform="rotate(1.2778 -243.86 658.7)" xlink:href="#path92"/><use transform="rotate(265.72 -41.599 124.25)" xlink:href="#path92"/><use transform="rotate(-44.498 -38.628 120.82)" xlink:href="#path92"/><use transform="rotate(171.07 -45.597 128.76)" xlink:href="#path92"/><use transform="rotate(-44.596 -41.892 119.37)" xlink:href="#path92"/><use transform="rotate(-15.637 -31.811 105.51)" xlink:href="#path92"/><use transform="rotate(252.23 -43.106 126.34)" xlink:href="#path92"/><use transform="rotate(181.54 -43.915 129.9)" xlink:href="#path92"/><use transform="rotate(202.06 -43.577 128.31)" xlink:href="#path92"/><use transform="rotate(23.787 -49.117 156.51)" xlink:href="#path92"/></g><g stroke-width=".19844"><g transform="translate(64.452 -131.54)"><path d="m-39.602 127.17c-1.2602-1e-4 -2.3833 0.68685-2.8014 1.7136-0.04095-3e-3 -0.08197-4e-3 -0.12299-4e-3 -1.1927-4e-5 -2.1596 1.0777-2.1596 2.4071 1.2e-5 0.1082 0.0066 0.21627 0.01963 0.32349-0.77423 0.24678-1.2793 0.82942-1.2795 1.4759-1.39e-4 0.88218 0.92653 1.5974 2.0696 1.5973 0.493 3e-5 0.96982-0.13576 1.3446-0.38292-0.02644 0.11864-0.03977 0.23927-0.03979 0.36018-5e-6 1.0312 0.94675 1.8671 2.1146 1.8671 0.45819-7e-5 0.90396-0.13155 1.2702-0.37465 0.49598 0.15783 1.0378 0.23972 1.5865 0.23978 1.364-9e-5 2.6181-0.5035 3.266-1.311 0.38302 0.20869 0.84668 0.32134 1.3229 0.32142 1.2301 1.1e-4 2.2274-0.73521 2.2273-1.6423-1.3e-5 -0.5677-0.39768-1.0951-1.0516-1.3948 0.35814-0.41325 0.55644-0.95016 0.55656-1.5069-1e-6 -1.2424-0.96688-2.2495-2.1596-2.2495-0.29622 2e-5 -0.58927 0.0635-0.86093 0.18655-0.41249-0.43494-0.98839-0.68165-1.5911-0.68161-0.4061 5e-5 -0.80412 0.11227-1.1493 0.32401-0.5327-0.78572-1.5079-1.2686-2.5621-1.2687z" fill="#f58aaf" stroke="#690526" stroke-linecap="round" stroke-width=".19844"/><use transform="rotate(-48.699 -43.419 119.16)" xlink:href="#path92"/><use transform="rotate(-13.365 -41.295 87.676)" xlink:href="#path92"/><use transform="rotate(73.134 -44.285 135.44)" xlink:href="#path92"/><use transform="rotate(-51.371 -40.624 115.07)" xlink:href="#path92"/><use transform="rotate(264.21 -40.547 122.23)" xlink:href="#path92"/><use transform="rotate(116.63 -41.474 133.28)" xlink:href="#path92"/><use transform="rotate(63.151 -43.152 142.39)" xlink:href="#path92"/><use transform="rotate(-72.759 -37.359 118.97)" xlink:href="#path92"/><use transform="rotate(52.075 -46.659 147.84)" xlink:href="#path92"/><use transform="rotate(256.8 -38.062 124.74)" xlink:href="#path92"/><use transform="rotate(233.95 -39.95 127.28)" xlink:href="#path92"/><use transform="rotate(-77.53 -37.486 123.5)" xlink:href="#path92"/><use transform="rotate(5.8057 -122.22 238.96)" xlink:href="#path92"/><use transform="rotate(-51.229 -35.766 121.85)" xlink:href="#path92"/><use transform="rotate(108.47 -47.718 134.01)" xlink:href="#path92"/><use transform="rotate(268.08 -42.164 127.42)" xlink:href="#path92"/><use transform="rotate(-10.684 -11.983 104.41)" xlink:href="#path92"/><use transform="rotate(24.691 -60.088 138.35)" xlink:href="#path92"/><use transform="rotate(256.73 -44.51 127.88)" xlink:href="#path92"/><use transform="rotate(-1.7835 117.89 -63.104)" xlink:href="#path92"/><use transform="rotate(214.5 -43.466 129.29)" xlink:href="#path92"/><use transform="rotate(238.47 -41.787 127.93)" xlink:href="#path92"/><use transform="rotate(-81.275 -38.015 121.63)" xlink:href="#path92"/><use transform="rotate(218.63 -41.655 128.68)" xlink:href="#path92"/><use transform="rotate(48.894 -48.613 144.23)" xlink:href="#path92"/><use transform="rotate(15.947 -54.855 181.28)" xlink:href="#path92"/><use transform="rotate(61.123 -44.938 140.03)" xlink:href="#path92"/><use transform="rotate(26.277 -51.931 158.48)" xlink:href="#path92"/><use transform="rotate(60.554 -48.749 133.12)" xlink:href="#path92"/><use transform="rotate(45.166 -46.569 139.45)" xlink:href="#path92"/><use transform="rotate(-35.466 -35.092 113.19)" xlink:href="#path92"/><use transform="rotate(1.2778 -243.86 658.7)" xlink:href="#path92"/><use transform="rotate(265.72 -41.599 124.25)" xlink:href="#path92"/><use transform="rotate(-44.498 -38.628 120.82)" xlink:href="#path92"/><use transform="rotate(171.07 -45.597 128.76)" xlink:href="#path92"/><use transform="rotate(-44.596 -41.892 119.37)" xlink:href="#path92"/><use transform="rotate(-15.637 -31.811 105.51)" xlink:href="#path92"/><use transform="rotate(252.23 -43.106 126.34)" xlink:href="#path92"/><use transform="rotate(181.54 -43.915 129.9)" xlink:href="#path92"/><use transform="rotate(202.06 -43.577 128.31)" xlink:href="#path92"/><use transform="rotate(23.787 -49.117 156.51)" xlink:href="#path92"/></g><path d="m12.867 7.1983c1.7861 5.604 6.5844 2.4506 7.4842 3.5304 0 0-7.6503 2.1916-7.4842-3.5304z" fill="#79a933" stroke="#557a27" stroke-linecap="round"/><path d="m25.05 6.6865c-1.7861 5.604-3.975 2.968-4.8748 4.0478 0 0 5.0409 1.6742 4.8748-4.0478z" fill="#79a933" stroke="#557a27" stroke-linecap="round"/><g transform="translate(51.369 -125.97)"><path d="m-39.602 127.17c-1.2602-1e-4 -2.3833 0.68685-2.8014 1.7136-0.04095-3e-3 -0.08197-4e-3 -0.12299-4e-3 -1.1927-4e-5 -2.1596 1.0777-2.1596 2.4071 1.2e-5 0.1082 0.0066 0.21627 0.01963 0.32349-0.77423 0.24678-1.2793 0.82942-1.2795 1.4759-1.39e-4 0.88218 0.92653 1.5974 2.0696 1.5973 0.493 3e-5 0.96982-0.13576 1.3446-0.38292-0.02644 0.11864-0.03977 0.23927-0.03979 0.36018-5e-6 1.0312 0.94675 1.8671 2.1146 1.8671 0.45819-7e-5 0.90396-0.13155 1.2702-0.37465 0.49598 0.15783 1.0378 0.23972 1.5865 0.23978 1.364-9e-5 2.6181-0.5035 3.266-1.311 0.38302 0.20869 0.84668 0.32134 1.3229 0.32142 1.2301 1.1e-4 2.2274-0.73521 2.2273-1.6423-1.3e-5 -0.5677-0.39768-1.0951-1.0516-1.3948 0.35814-0.41325 0.55644-0.95016 0.55656-1.5069-1e-6 -1.2424-0.96688-2.2495-2.1596-2.2495-0.29622 2e-5 -0.58927 0.0635-0.86093 0.18655-0.41249-0.43494-0.98839-0.68165-1.5911-0.68161-0.4061 5e-5 -0.80412 0.11227-1.1493 0.32401-0.5327-0.78572-1.5079-1.2686-2.5621-1.2687z" fill="#f58aaf" stroke="#690526" stroke-linecap="round" stroke-width=".19844"/><use transform="rotate(-48.699 -43.419 119.16)" xlink:href="#path92"/><use transform="rotate(-13.365 -41.295 87.676)" xlink:href="#path92"/><use transform="rotate(73.134 -44.285 135.44)" xlink:href="#path92"/><use transform="rotate(-51.371 -40.624 115.07)" xlink:href="#path92"/><use transform="rotate(264.21 -40.547 122.23)" xlink:href="#path92"/><use transform="rotate(116.63 -41.474 133.28)" xlink:href="#path92"/><use transform="rotate(63.151 -43.152 142.39)" xlink:href="#path92"/><use transform="rotate(-72.759 -37.359 118.97)" xlink:href="#path92"/><use transform="rotate(52.075 -46.659 147.84)" xlink:href="#path92"/><use transform="rotate(256.8 -38.062 124.74)" xlink:href="#path92"/><use transform="rotate(233.95 -39.95 127.28)" xlink:href="#path92"/><use transform="rotate(-77.53 -37.486 123.5)" xlink:href="#path92"/><use transform="rotate(5.8057 -122.22 238.96)" xlink:href="#path92"/><use transform="rotate(-51.229 -35.766 121.85)" xlink:href="#path92"/><use transform="rotate(108.47 -47.718 134.01)" xlink:href="#path92"/><use transform="rotate(268.08 -42.164 127.42)" xlink:href="#path92"/><use transform="rotate(-10.684 -11.983 104.41)" xlink:href="#path92"/><use transform="rotate(24.691 -60.088 138.35)" xlink:href="#path92"/><use transform="rotate(256.73 -44.51 127.88)" xlink:href="#path92"/><use transform="rotate(-1.7835 117.89 -63.104)" xlink:href="#path92"/><use transform="rotate(214.5 -43.466 129.29)" xlink:href="#path92"/><use transform="rotate(238.47 -41.787 127.93)" xlink:href="#path92"/><use transform="rotate(-81.275 -38.015 121.63)" xlink:href="#path92"/><use transform="rotate(218.63 -41.655 128.68)" xlink:href="#path92"/><use transform="rotate(48.894 -48.613 144.23)" xlink:href="#path92"/><use transform="rotate(15.947 -54.855 181.28)" xlink:href="#path92"/><use transform="rotate(61.123 -44.938 140.03)" xlink:href="#path92"/><use transform="rotate(26.277 -51.931 158.48)" xlink:href="#path92"/><use transform="rotate(60.554 -48.749 133.12)" xlink:href="#path92"/><use transform="rotate(45.166 -46.569 139.45)" xlink:href="#path92"/><use transform="rotate(-35.466 -35.092 113.19)" xlink:href="#path92"/><use transform="rotate(1.2778 -243.86 658.7)" xlink:href="#path92"/><use transform="rotate(265.72 -41.599 124.25)" xlink:href="#path92"/><use transform="rotate(-44.498 -38.628 120.82)" xlink:href="#path92"/><use transform="rotate(171.07 -45.597 128.76)" xlink:href="#path92"/><use transform="rotate(-44.596 -41.892 119.37)" xlink:href="#path92"/><use transform="rotate(-15.637 -31.811 105.51)" xlink:href="#path92"/><use transform="rotate(252.23 -43.106 126.34)" xlink:href="#path92"/><use transform="rotate(181.54 -43.915 129.9)" xlink:href="#path92"/><use transform="rotate(202.06 -43.577 128.31)" xlink:href="#path92"/><use transform="rotate(23.787 -49.117 156.51)" xlink:href="#path92"/></g><g transform="matrix(.98893 .14836 .14836 -.98893 42.701 141.44)"><path d="m-39.602 127.17c-1.2602-1e-4 -2.3833 0.68685-2.8014 1.7136-0.04095-3e-3 -0.08197-4e-3 -0.12299-4e-3 -1.1927-4e-5 -2.1596 1.0777-2.1596 2.4071 1.2e-5 0.1082 0.0066 0.21627 0.01963 0.32349-0.77423 0.24678-1.2793 0.82942-1.2795 1.4759-1.39e-4 0.88218 0.92653 1.5974 2.0696 1.5973 0.493 3e-5 0.96982-0.13576 1.3446-0.38292-0.02644 0.11864-0.03977 0.23927-0.03979 0.36018-5e-6 1.0312 0.94675 1.8671 2.1146 1.8671 0.45819-7e-5 0.90396-0.13155 1.2702-0.37465 0.49598 0.15783 1.0378 0.23972 1.5865 0.23978 1.364-9e-5 2.6181-0.5035 3.266-1.311 0.38302 0.20869 0.84668 0.32134 1.3229 0.32142 1.2301 1.1e-4 2.2274-0.73521 2.2273-1.6423-1.3e-5 -0.5677-0.39768-1.0951-1.0516-1.3948 0.35814-0.41325 0.55644-0.95016 0.55656-1.5069-1e-6 -1.2424-0.96688-2.2495-2.1596-2.2495-0.29622 2e-5 -0.58927 0.0635-0.86093 0.18655-0.41249-0.43494-0.98839-0.68165-1.5911-0.68161-0.4061 5e-5 -0.80412 0.11227-1.1493 0.32401-0.5327-0.78572-1.5079-1.2686-2.5621-1.2687z" fill="#f58aaf" stroke="#690526" stroke-linecap="round" stroke-width=".19844"/><use transform="rotate(-48.699 -43.419 119.16)" xlink:href="#path92"/><use transform="rotate(-13.365 -41.295 87.676)" xlink:href="#path92"/><use transform="rotate(73.134 -44.285 135.44)" xlink:href="#path92"/><use transform="rotate(-51.371 -40.624 115.07)" xlink:href="#path92"/><use transform="rotate(264.21 -40.547 122.23)" xlink:href="#path92"/><use transform="rotate(116.63 -41.474 133.28)" xlink:href="#path92"/><use transform="rotate(63.151 -43.152 142.39)" xlink:href="#path92"/><use transform="rotate(-72.759 -37.359 118.97)" xlink:href="#path92"/><use transform="rotate(52.075 -46.659 147.84)" xlink:href="#path92"/><use transform="rotate(256.8 -38.062 124.74)" xlink:href="#path92"/><use transform="rotate(233.95 -39.95 127.28)" xlink:href="#path92"/><use transform="rotate(-77.53 -37.486 123.5)" xlink:href="#path92"/><use transform="rotate(5.8057 -122.22 238.96)" xlink:href="#path92"/><use transform="rotate(-51.229 -35.766 121.85)" xlink:href="#path92"/><use transform="rotate(108.47 -47.718 134.01)" xlink:href="#path92"/><use transform="rotate(268.08 -42.164 127.42)" xlink:href="#path92"/><use transform="rotate(-10.684 -11.983 104.41)" xlink:href="#path92"/><use transform="rotate(24.691 -60.088 138.35)" xlink:href="#path92"/><use transform="rotate(256.73 -44.51 127.88)" xlink:href="#path92"/><use transform="rotate(-1.7835 117.89 -63.104)" xlink:href="#path92"/><use transform="rotate(214.5 -43.466 129.29)" xlink:href="#path92"/><use transform="rotate(238.47 -41.787 127.93)" xlink:href="#path92"/><use transform="rotate(-81.275 -38.015 121.63)" xlink:href="#path92"/><use transform="rotate(218.63 -41.655 128.68)" xlink:href="#path92"/><use transform="rotate(48.894 -48.613 144.23)" xlink:href="#path92"/><use transform="rotate(15.947 -54.855 181.28)" xlink:href="#path92"/><use transform="rotate(61.123 -44.938 140.03)" xlink:href="#path92"/><use transform="rotate(26.277 -51.931 158.48)" xlink:href="#path92"/><use transform="rotate(60.554 -48.749 133.12)" xlink:href="#path92"/><use transform="rotate(45.166 -46.569 139.45)" xlink:href="#path92"/><use transform="rotate(-35.466 -35.092 113.19)" xlink:href="#path92"/><use transform="rotate(1.2778 -243.86 658.7)" xlink:href="#path92"/><use transform="rotate(265.72 -41.599 124.25)" xlink:href="#path92"/><use transform="rotate(-44.498 -38.628 120.82)" xlink:href="#path92"/><use transform="rotate(171.07 -45.597 128.76)" xlink:href="#path92"/><use transform="rotate(-44.596 -41.892 119.37)" xlink:href="#path92"/><use transform="rotate(-15.637 -31.811 105.51)" xlink:href="#path92"/><use transform="rotate(252.23 -43.106 126.34)" xlink:href="#path92"/><use transform="rotate(181.54 -43.915 129.9)" xlink:href="#path92"/><use transform="rotate(202.06 -43.577 128.31)" xlink:href="#path92"/><use transform="rotate(23.787 -49.117 156.51)" xlink:href="#path92"/></g><g transform="rotate(21.896 229.56 491.35)" stroke="#557a27" stroke-linecap="round"><path d="m-127.62 169.57c-4.2628-2.3541 0.76349 20.742 2.4814 21.505 1.4634-5.6626 1.2725-25.45-2.4814-21.505z" fill="#79a933"/><path d="m-127.61 169.62c0.0636 4.8991 2.4426 19.455 2.4426 21.363" fill="none"/></g></g></g></g><metadata><rdf:RDF><cc:Work rdf:about=""><dc:creator><cc:Agent><dc:title>Erica Schroeder</dc:title></cc:Agent></dc:creator><dc:rights><cc:Agent><dc:title> 2026 Erica Schroeder. All rights reserved.</dc:title></cc:Agent></dc:rights><dc:date>1/16/2026</dc:date></cc:Work></rdf:RDF></metadata></svg>
