<?xml version="1.0" encoding="UTF-8"?>
<!-- Created with Inkscape (http://www.inkscape.org/) -->
<svg width="1.5741in" height="3.1259in" version="1.1" viewBox="0 0 39.982 79.399" xml:space="preserve" xmlns="http://www.w3.org/2000/svg" xmlns:cc="http://creativecommons.org/ns#" xmlns:dc="http://purl.org/dc/elements/1.1/" xmlns:rdf="http://www.w3.org/1999/02/22-rdf-syntax-ns#"><defs><clipPath id="clipPath91"><rect transform="matrix(-.99676 -.080409 -.23879 .97107 0 0)" x="32.04" y="-10.689" width="38.07" height="118.5" fill="#307712" stroke="#22540f" stroke-linecap="round" stroke-width=".19973"/></clipPath><clipPath id="clipPath98"><rect transform="matrix(.99676 .080409 -.23879 .97107 0 0)" x="-63.705" y="-1.1918" width="38.07" height="109.01" fill="#307712" stroke="#22540f" stroke-linecap="round" stroke-width=".19973"/></clipPath><clipPath id="clipPath99"><rect transform="matrix(-.99676 -.080409 -.23879 .97107 0 0)" x="32.04" y="-10.689" width="38.07" height="118.5" fill="#307712" stroke="#22540f" stroke-linecap="round" stroke-width=".19973"/></clipPath><clipPath id="clipPath100"><rect transform="rotate(8.6428)" x="-85.254" y="38.537" width="47.97" height="79.491" fill="#307712" stroke="#22540f" stroke-linecap="round" stroke-width=".19844"/></clipPath><clipPath id="clipPath101"><rect transform="rotate(17.354)" x="-59.514" y="-33" width="47.97" height="152" fill="#307712" stroke="#22540f" stroke-linecap="round" stroke-width=".19844"/></clipPath><clipPath id="clipPath102"><rect x="-11.919" y="-4.9251" width="47.97" height="79.491" fill="#307712" stroke="#22540f" stroke-linecap="round" stroke-width=".19844"/></clipPath><clipPath id="clipPath103"><rect transform="matrix(-.92333 -.38401 -.38401 .92333 0 0)" x="13.972" y="42.96" width="47.97" height="79.491" fill="#307712" stroke="#22540f" stroke-linecap="round" stroke-width=".19844"/></clipPath><clipPath id="clipPath104"><rect x="-11.919" y="-4.9251" width="47.97" height="79.491" fill="#307712" stroke="#22540f" stroke-linecap="round" stroke-width=".19844"/></clipPath><clipPath id="clipPath105"><rect x="-11.919" y="-4.9251" width="47.97" height="79.491" fill="#307712" stroke="#22540f" stroke-linecap="round" stroke-width=".19844"/></clipPath><clipPath id="clipPath106"><rect x="-11.919" y="-4.9251" width="47.97" height="79.491" fill="#307712" stroke="#22540f" stroke-linecap="round" stroke-width=".19844"/></clipPath><clipPath id="clipPath107"><rect x="-11.919" y="-4.9251" width="47.97" height="79.491" fill="#307712" stroke="#22540f" stroke-linecap="round" stroke-width=".19844"/></clipPath><clipPath id="clipPath109"><rect x="-11.919" y="-4.9251" width="47.97" height="79.491" fill="#307712" stroke="#22540f" stroke-linecap="round" stroke-width=".19844"/></clipPath><clipPath id="clipPath111"><rect x="-11.919" y="-4.9251" width="47.97" height="79.491" fill="#307712" stroke="#22540f" stroke-linecap="round" stroke-width=".19844"/></clipPath><clipPath id="clipPath112"><rect x="-11.919" y="-4.9251" width="47.97" height="79.491" fill="#307712" stroke="#22540f" stroke-linecap="round" stroke-width=".19844"/></clipPath><clipPath id="clipPath113"><rect x="-11.919" y="-4.9251" width="47.97" height="79.491" fill="#307712" stroke="#22540f" stroke-linecap="round" stroke-width=".19844"/></clipPath><clipPath id="clipPath114"><rect x="-11.919" y="-4.9251" width="47.97" height="79.491" fill="#307712" stroke="#22540f" stroke-linecap="round" stroke-width=".19844"/></clipPath><clipPath id="clipPath116"><rect x="-11.919" y="-4.9251" width="47.97" height="79.491" fill="#307712" stroke="#22540f" stroke-linecap="round" stroke-width=".19844"/></clipPath><clipPath id="clipPath117"><rect x="-11.919" y="-4.9251" width="47.97" height="79.491" fill="#307712" stroke="#22540f" stroke-linecap="round" stroke-width=".19844"/></clipPath><clipPath id="clipPath118"><rect transform="rotate(22.582)" x="-58.78" y="66.282" width="48.677" height="79.491" fill="#307712" stroke="#22540f" stroke-linecap="round" stroke-width=".19844"/></clipPath><clipPath id="clipPath119"><rect x="-11.919" y="-4.9251" width="47.97" height="79.491" fill="#307712" stroke="#22540f" stroke-linecap="round" stroke-width=".19844"/></clipPath><clipPath id="clipPath120"><rect x="-11.919" y="-4.9251" width="47.97" height="79.491" fill="#307712" stroke="#22540f" stroke-linecap="round" stroke-width=".19844"/></clipPath><clipPath id="clipPath121"><rect x="-11.919" y="-4.9251" width="47.97" height="79.491" fill="#307712" stroke="#22540f" stroke-linecap="round" stroke-width=".19844"/></clipPath></defs><g transform="translate(9.0208 4.5526)"><path d="m1.1328 74.713-2.0685-16.203 2.955 4.4818 0.32013-4.2356 1.4898 4.1371 2.7146-3.6824 10.307 0.80551 0.93984 4.3729 1.0285 1.0989s1.5577-6.1988 2.8114-6.7908c0.87064 0.41791 1.4184 0.45289 1.4184 0.45289l-1.7178 15.578z" fill="#307712" stroke="#22540f" stroke-linecap="round" stroke-width=".19844"/></g><g transform="translate(9.0208 4.5526)"><path d="m14.102-3.3993c-1.0361 1.7623-1.7282 11.702-2.19 23.917-5.255-19.526-15.642-18.819-16.439-18.32 8.3928 0.70823 13.089 8.9084 15.658 19.174-0.65527 0.17693-1.0922 0.5046-1.3162 0.71055-0.016598 0.0061-0.033918 0.01252-0.052193 0.01912-0.064859 0.06789-0.12759 0.14361-0.18862 0.22686-1.4904-4.3129-3.383-7.1587-5.2529-9.0217-0.35304-3.5078-0.77369-5.9265-1.2749-6.6719 0.21245 0.90679 0.41026 3.0474 0.59325 6.0343-3.3093-2.9042-6.3831-2.878-6.8244-2.6572 2.7548 0.50051 5.0239 1.7859 6.8838 3.6639 0.17255 3.0402 0.3313 6.8216 0.47594 11.001-1.4315-1.4867-2.8519-2.5757-4.1977-3.3667-0.56806-3.1487-1.1294-5.152-1.6542-5.3594 0.24826 0.62074 0.56183 2.3907 0.91519 4.9501-4.2009-2.1837-7.5256-1.5176-7.9251-1.2377 3.0085-0.12523 5.6718 0.61495 8.0285 1.9994 0.42219 3.1687 0.8954 7.3703 1.3798 12.028-0.068288-0.093808-0.13589-0.18486-0.20309-0.27337-1.0224-4.9743-2.0628-8.6789-2.9812-9.3824 0.4562 0.91909 1.1197 3.9806 1.8619 8.0848-1.3096-1.3063-2.2722-1.4978-2.5978-1.1307 1.0144 0.50964 1.9602 1.3712 2.8407 2.4955 0.29842 1.6998 0.60699 3.5425 0.91777 5.4617-0.87128 0.93774-1.9186 2.364-3.1564 4.5103-2.92-3.2515-5.7713-1.8586-6.0477-1.5338 2.3592-0.68474 4.2599 0.16885 5.7914 1.9833-0.64356 1.1435-1.3367 2.4781-2.0815 4.0339-1.7074-2.3883-3.1878-2.9071-3.6608-2.5445 1.2717 0.65791 2.3653 1.811 3.3073 3.2913-0.28382 0.60635-0.57497 1.2443-0.87333 1.9151 0.35185-0.58837 0.6907-1.1494 1.017-1.6847 1.0114 1.652 1.8435 3.6839 2.5306 5.8777-0.46792 0.45781-0.94597 0.94037-1.4345 1.4495-2.0429-2.5526-3.9517-3.0741-4.5021-2.7621 1.437 0.93306 2.6587 2.178 3.6964 3.6158-0.45245 0.48714-0.91337 0.99621-1.3829 1.5286 0.50159-0.4867 0.99358-0.95303 1.4754-1.3999 3.7037 5.2274 5.0235 12.917 5.4219 17.481 0 0 0.90069 0.06459 0.98754-0.02791-0.00942-0.10894-0.019133-0.21768-0.028939-0.32556 0.00313 3e-5 0.00578 3.36e-4 0.00827 5.16e-4 -0.27851-4.3567-0.74076-8.0473-1.3022-11.252 0.97801 4.9779 2.3585 11.699 2.3585 11.699l0.81597-0.3576c4.095e-4 0.02372 0.01207 0.22974 0.012402 0.24856 9.096e-4 -3.9e-4 0.34703-0.14893 0.39532-0.15193-0.21933-10.301-1.1864-17.469-2.4944-22.431 0.34955-0.25213 0.69154-0.4916 1.0258-0.71934 1.1492 12.503 2.0557 23.487 2.0557 23.487l0.74621-0.71003c0.00292 0.2249 0.00413 0.34262 0.00413 0.34262l0.91467 0.09715s-0.00531-2.6604-0.039791-6.9308c0.42423 3.9717 0.69867 6.8037 0.69867 6.8037l0.84233-0.34003s-0.63246-8.3007-1.6485-16.346c-0.036594-2.6708-0.082347-5.534-0.13901-8.492 0.077541-0.04106 0.15461-0.08136 0.23099-0.12092 0.31557 1.2106 0.6084 2.4146 0.87902 3.5894-0.067386 5.5253 0.11541 11.731 0.60875 18.701 0.047838-0.0137 0.25303-0.01413 0.44132-0.01137-0.017099 0.97577-0.028171 1.9693-0.033073 2.9807 0.00504-1e-3 0.012489-0.0016 0.021187-0.0021 0.13048-0.0067 0.64246 0.04945 0.64389 0.04961 5.367e-4 -0.87239-0.034081-5.3517 0.36535-11.439 0.017932 0.66679 0.038761 1.3406 0.062012 2.0221 0.038615-0.0095 0.17742-0.0069 0.32763-5.16e-4 0.015698 0.0776 0.030771 0.1498 0.044958 0.21601 7.341e-4 -2.43e-4 0.10592-0.03538 0.2434-0.07906 0.060359 0.60892 0.11922 1.1959 0.17673 1.758-0.51971 3.94-0.99405 6.6474-1.1136 7.3422 0.00163 1e-4 0.68923 0.04264 0.77928 0.07803 0.24057-1.4341 0.46418-2.8365 0.67231-4.208 0.27728 2.5608 0.46406 4.1062 0.46406 4.1062l0.30179-0.08268c-1.93e-4 0.08225-5.17e-4 0.12402-5.17e-4 0.12402l0.91519-0.1111s0.0834-7.6602 0.2465-18.184c0.68742 2.2587 1.2401 4.2013 1.5947 5.425-0.10378 1.8874-0.20262 3.1584-0.23616 3.6055 6.52e-4 -2.2e-5 0.13565-5e-3 0.29404-0.0078-0.03673 0.60854-0.07003 1.2273-0.10025 1.8562-0.7116 4.2282-1.4562 7.4331-1.4562 7.4331l0.66818 0.0956s0.26488-1.1461 0.63252-2.9698c-0.02076 0.99232-0.03425 2.0073-0.03927 3.0458 0.06536-0.0135 0.53762 0.03861 0.53899 0.03876 3.37e-4 -0.56374-0.0176-2.9828 0.13849-6.4389 0.22014-1.2289 0.44529-2.5711 0.65319-3.9636 0.0035 0.02769 0.0069 0.05548 0.01033 0.0832-0.10962 6.0174-0.12299 10.33-0.12299 10.33l0.91519-0.06718s0.02707-1.5056 0.08061-3.9791c0.20555 1.3524 0.42646 2.7349 0.66352 4.1481 0.09005-0.03539 0.77714-0.07793 0.77876-0.07803-0.03208-0.1864-0.08976-0.51722-0.16692-0.97824 0.09952 0.02197 0.18511 0.04135 0.23668 0.05323-1.29e-4 0.04152-5.17e-4 0.06253-5.17e-4 0.06253l0.30282-0.02687c-0.03933 0.35721-0.05994 0.54777-0.05994 0.54777l0.80305 0.69505s2.6934-22.227 4.9465-37.325c0.4095-0.956 0.84856-1.8392 1.3193-2.6319 1.0728 1.6558 2.2068 3.5193 3.4029 5.6152-2.5551 3.2136-6.1517 11.735-7.4471 30.706-0.3335 1.9584-0.5271 3.2076-0.5271 3.2076l0.8201 0.35863s0.03228-0.18183 0.09302-0.51573c0.17566 0.03718 0.32368 0.07112 0.32453 0.07131 0.07664-0.66012 0.17195-1.8832 0.30902-3.4923 1.347-7.1643 4.206-21.729 5.4441-23.152-1.2922 0.23469-2.8065 5.4758-4.0948 11.256 1.0237-6.718 2.6859-13.871 5.4622-17.763 0.49195 0.8728 0.99373 1.7844 1.5064 2.7368-0.46744-1.0149-0.92663-1.9856-1.3772-2.9146v-5.17e-4c0.63564-0.8572 1.3282-1.5444 2.0841-2.0195-0.35406-0.32969-1.2725-0.05953-2.4283 1.3141-1.1117-2.2611-2.1714-4.2638-3.1791-6.0368 0.78094-1.187 1.6448-2.1317 2.6009-2.7631-0.43982-0.4206-1.618-0.0141-3.0613 1.9627-0.16598-0.28497-0.33042-0.56367-0.49351-0.83612 0.01718-0.10637 0.03409-0.21234 0.05116-0.31729 1.6398-1.695 3.5486-2.9083 5.7707-3.4515-0.29598-0.21887-2.7176-0.18194-5.6079 2.4624 0.632-3.7919 1.1776-6.4897 1.5451-7.2337-0.6997 0.21925-1.5324 3.1505-2.3957 7.4952-1.3934-2.2426-2.6769-4.0246-3.852-5.4338 0.03982-0.73418 0.08045-1.4377 0.12196-2.1063 2.3109-2.909 5.1093-4.9957 8.4977-5.8224-0.36344-0.26826-3.3241-0.22474-6.8673 2.9838-0.50617 0.45836-1.0241 0.9813-1.5482 1.5772 0.19787-2.8859 0.414-4.9588 0.6475-5.7893-0.56374 0.69877-1.0257 3.1622-1.404 6.6967-0.24989 0.31567-0.50067 0.64849-0.75138 0.99942-0.4243-0.44138-0.8323-0.83154-1.2242-1.1756 2.1413-6.9824 5.8937-12.174 12.154-13.312-0.72661-0.36359-8.5906-0.19945-12.89 12.703-0.89362-0.6908-1.6938-1.1333-2.4024-1.3999 0.70053-2.4297 1.5175-4.7381 2.4701-6.8502 2.5582-3.4979 5.8609-5.7789 10.112-6.1376-0.48346-0.30269-4.4936-0.68207-8.7473 3.4216 2.9624-5.2813 7.0108-8.8282 12.533-9.0914-0.69-0.46807-8.9037-1.375-14.915 11.882-0.80576 1.13-1.598 2.4533-2.3544 4.0018 0.32056-11.041 0.71369-19.965 1.1756-22.22zm-9.6697 17.871c2.0147 2.3419 3.5009 5.4339 4.5754 8.9814-0.51414 1.4099-0.83069 3.585-0.99839 6.2575-0.93734-1.5252-1.8947-2.8324-2.8536-3.9517-0.19917-4.2588-0.43785-8.138-0.72347-11.287zm8.7617 5.8653c-0.1021 0.32447-0.20277 0.65435-0.30231 0.99064-0.01203-0.0023-0.02421-4e-3 -0.03617-0.0062 0.0016-0.05921 0.0035-0.11866 0.0052-0.17777 0.10894-0.27203 0.21983-0.54077 0.33331-0.80667zm-2.373 1.6872c0.14585 0.0024 0.30562 0.01404 0.47904 0.03772 0.03006 0.12575 0.05944 0.25196 0.08888 0.37827-0.32388 0.87758-0.63642 1.8089-0.93534 2.7972-0.18546-0.70417-0.38086-1.3769-0.58498-2.019 0.16572-0.46529 0.3508-0.85996 0.55604-1.1772 0.11855-0.01243 0.25051-0.01945 0.39636-0.01705zm-10.696 0.13074c1.4872 0.99217 2.8468 2.2459 4.0897 3.7005 0.12509 3.7447 0.2392 7.7738 0.3421 11.853-0.19101-0.12565-0.38067-0.22167-0.56896-0.28474-0.14417-0.090775-0.50683-0.28034-1.1157-0.12299-0.33268-0.66323-0.66042-1.2652-0.98082-1.8107-0.5702-5.1407-1.1704-9.8349-1.7663-13.335zm13.362 0.66456c0.67691 0.35645 1.4458 0.86091 2.3089 1.5658-0.6628 2.2648-1.2196 4.8841-1.6232 7.9117-0.02656 0.06545-0.05311 0.13084-0.07958 0.19689-0.30941-2.7445-0.69737-5.2453-1.1488-7.5236 0.17181-0.72477 0.35251-1.4422 0.5426-2.1508zm-1.7146 1.3622c0.0028 0.01348 0.0055 0.02682 0.0083 0.04031-0.01742 0.52629-0.03398 1.0558-0.05064 1.5875-0.19089 0.84469-0.37432 1.7197-0.54932 2.6262-0.08531-0.4395-0.17445-0.86907-0.26665-1.2883 0.26424-1.012 0.54988-2.0021 0.85835-2.9657zm-2.3595 0.7028c0.1883 0.71282 0.36176 1.4411 0.5209 2.1833-0.35323 1.3254-0.68288 2.7435-0.98444 4.2602-0.071104-0.12926-0.14253-0.25739-0.21394-0.38396 0.11746-2.3699 0.33399-4.4394 0.67748-6.0596zm7.1432 0.15245c0.28732 0.258 0.58387 0.53726 0.88987 0.83922-0.59443 0.92063-1.186 1.9483-1.7663 3.0944 0.24764-1.3533 0.53829-2.6688 0.87643-3.9336zm2.2417 0.19017c-0.0058 0.06172-0.01182 0.12328-0.01757 0.18552-0.02129-0.0237-0.04235-0.04734-0.06356-0.0708 0.02694-0.03852 0.05405-0.07644 0.08113-0.11472zm-0.8046 1.2035c0.20925 0.21731 0.4228 0.44521 0.64027 0.68368-0.34806 4.3049-0.6098 9.5694-0.80667 14.991-0.49977 1.4121-0.97488 2.9713-1.4144 4.6927 0.35773-9.1793 0.8362-17.519 1.4268-19.263-1.3692 1.4091-2.1379 11.46-2.5683 21.91-0.02797-0.1018-0.0571-0.20116-0.08785-0.29766-0.08865-0.4061-0.17847-0.8067-0.26975-1.202-0.01183-3.4173-0.11749-6.5831-0.30334-9.5157 0.12473-2.2501 0.32544-4.474 0.6196-6.6275 0.81577-1.9305 1.7327-3.7389 2.7637-5.3712zm-12.776 0.67283c0.98014 1.2973 1.8814 2.7217 2.7104 4.2385-0.079694 2.0513-0.087381 4.3317-0.041341 6.7417-0.13708 1.137-0.26047 2.3169-0.36897 3.5414-0.62574-1.1827-1.2607-2.1894-1.8914-2.9295-0.11151-3.9687-0.24621-7.9044-0.40876-11.592zm14.188 0.88212c1.0958 1.2747 2.2882 2.8139 3.5791 4.67-1.3448 1.5328-2.7385 3.6592-4.0297 6.5939 0.13415-4.0347 0.28444-7.9038 0.45062-11.264zm-6.7469 1.2097c0.26317 1.7756 0.48061 3.5702 0.65888 5.3614-0.28362 0.80174-0.56062 1.6419-0.82992 2.5223 0.0535-2.6322 0.11042-5.2759 0.17105-7.8838zm-2.282 0.17208c0.10851 0.63442 0.20784 1.2767 0.29869 1.9255-0.13929 0.85941-0.27168 1.7446-0.39636 2.6557-0.19306-0.4127-0.38772-0.81433-0.58394-1.2046 0.20545-1.1412 0.43216-2.2689 0.68161-3.3765zm-1.7095 3.3879c0.00321 0.0064 0.00661 0.01271 0.00982 0.01912-0.00398 0.02213-0.00844 0.04449-0.012402 0.06666 7.782e-4 -0.02876 0.00178-0.05709 0.00258-0.08578zm14.312 0.84853c-0.2252 1.2217-0.4519 2.5258-0.67748 3.8897-1.2797 2.9245-2.5859 7.0973-3.6716 12.907 0.07921-3.0762 0.16798-6.2369 0.26613-9.3317 1.0952-2.843 2.4376-5.411 4.083-7.4652zm0.82372 0.25115c0.0766 0.11444 0.15374 0.23013 0.23099 0.34675-0.12579 0.19403-0.2533 0.39966-0.38189 0.61753 0.05067-0.32637 0.10096-0.64797 0.1509-0.96428zm-14.379 0.48266c0.21328 0.46732 0.42068 0.94036 0.6227 1.4185-0.35407 2.9192-0.63322 6.0926-0.82269 9.5421-0.12802-0.30745-0.25713-0.61048-0.38706-0.90847-0.068182-1.5141-0.12228-3.014-0.15865-4.4793 0.20203-1.8673 0.4483-3.7334 0.74569-5.5728zm1.6888 0.81235c0.02486 0.28106 0.04859 0.56247 0.0708 0.84491-0.04587-0.11009-0.09187-0.21947-0.13798-0.32814 0.0221-0.17232 0.04436-0.34433 0.06718-0.51676zm2.3859 1.3746c0.04589 0.54445 0.08838 1.0878 0.12764 1.6294-0.07929 1.3723-0.13117 2.8113-0.15296 4.3196-0.29062-0.9711-0.58941-1.9025-0.89607-2.7952 0.28588-1.0666 0.59223-2.1201 0.92139-3.1538zm-2.6918 1.1198c0.1969 0.51337 0.38781 1.0308 0.57309 1.5518 0.0027 0.06054 0.0051 0.12134 0.0078 0.1819-0.01264 0.62366-0.02483 1.2458-0.03669 1.866-0.42169 1.7362-0.81416 3.601-1.1715 5.6033-0.04625 0.0072-0.09293 0.01472-0.14004 0.02274 0.16337-2.9369 0.40806-6.0566 0.7674-9.2258zm-7.5923 0.16536c0.4384-0.0226 0.89543 0.20321 1.3627 0.62839 0.024105 0.9694 0.047443 1.9411 0.07028 2.9114-0.50628-1.3123-1.0103-2.4753-1.5048-3.5026 0.024655-0.01317 0.048357-0.02557 0.07183-0.03721zm-0.76223 0.5209c0.83401 1.8412 1.5871 3.8902 2.2639 6.0162 0.03433 1.5389 0.067117 3.0671 0.098185 4.5713-0.049632 0.0289-0.099813 0.05824-0.14986 0.08785-0.60568-3.1037-1.2756-5.3994-1.9833-5.9743-0.14958-1.5118-0.30277-3.0169-0.45889-4.4979 0.080317-0.07411 0.15706-0.14145 0.22996-0.20309zm3.2034 1.3984c0.58269 0.8514 1.1725 1.9434 1.7554 3.1879-0.12049 1.5432-0.21817 3.1545-0.29042 4.8369-0.10605 0.04484-0.21336 0.09154-0.32194 0.14004-0.33831-1.2007-0.68057-2.323-1.0242-3.3714-0.036249-1.5906-0.075544-3.1933-0.11886-4.7935zm-4.901 0.41858c0.54255 3.3938 1.0871 6.9765 1.5922 10.393-0.36659 0.26736-0.74198 0.55224-1.1265 0.85628-0.98066-3.4735-2.1335-5.7907-3.2985-7.3148 1.1691-1.7561 2.0935-3.0197 2.8329-3.9341zm11.715 2.3554c0.36218 1.186 0.69769 2.3783 1.0082 3.5667 0.0052 0.32448 0.01178 0.65206 0.01964 0.98237-0.25039-0.09202-0.60188-0.19203-1.0563-0.25373 0.03574-1.4906 0.04443-2.9215 0.02842-4.2953zm9.0237 0.13901c-1.2945 8.6298-2.4917 18.378-3.236 24.738 0.03725-2.0072 0.08382-4.4025 0.14004-7.0435 0.60877-5.7004 1.5572-12.222 3.0959-17.694zm-18.761 0.90744c0.34964 1.0939 0.74775 3.2489 1.155 5.935-0.18339 0.11734-0.36954 0.23947-0.55811 0.36639-0.19041-2.0812-0.38997-4.1965-0.59686-6.3014zm15.016 0.87902c-0.15991 4.8742-0.27014 9.7829-0.34623 14.152-0.08851 0.7479-0.17344 1.515-0.25476 2.3017-0.29349-2.3794-0.62524-4.6242-0.99064-6.7422 0.0412-1.2944 0.08473-2.602 0.13074-3.9073 0.40821-1.9676 0.89052-3.9218 1.4609-5.8038zm-20.119 0.09508c1.3149 1.8223 2.3353 4.3802 3.1275 7.245-0.51961 0.42341-1.0546 0.88075-1.6061 1.3746-0.89148-3.0799-1.8096-5.2805-2.6365-5.4307 0.46551 0.53508 1.1599 2.9281 1.9172 6.087-0.11191 0.10408-0.22428 0.20922-0.33745 0.31626-0.91603-2.6091-1.8961-4.5179-2.82-5.8787 0.87594-1.4241 1.6573-2.6527 2.3554-3.7135zm13.65 0.74517c-0.0083 0.49393-0.01645 0.98531-0.02429 1.4743-0.08531 0.0029-0.17259 0.0076-0.262 0.01344 0.09177-0.49592 0.18715-0.99207 0.28629-1.4878zm-3.1011 0.50023c0.027598 0.51649 0.057011 1.0339 0.087333 1.5518-0.060164 0.02001-0.12076 0.04076-0.1819 0.06201 0.028695-0.53526 0.059865-1.0733 0.094568-1.6139zm0.76481 0.77411c0.06493 0.16774 0.12939 0.33631 0.19379 0.50591-2.173e-4 0.0048-2.998e-4 0.0096-5.168e-4 0.01447-0.053865 0.01384-0.10799 0.02853-0.16278 0.04341-0.010306-0.18793-0.020549-0.37596-0.030489-0.56379zm4.2359 0.60875c0.11625 0.09385 0.22581 0.20066 0.32918 0.31988 0.07032 2.6073 0.22267 5.3951 0.46716 8.3752-0.03168 1.1805-0.07141 2.2769-0.1142 3.2737-0.43526-1.5449-1.0049-3.488-1.6697-5.5743 0.0078-0.48916 0.01561-0.98337 0.02377-1.4821 0.10355-1.7038 0.17515-3.3396 0.21704-4.9098 0.29085-0.01615 0.53956-0.01393 0.74672-0.0026zm-1.9327 0.14728c-0.01727 1.097-0.03355 2.1798-0.04858 3.2448-0.18863-0.5477-0.38198-1.0968-0.57981-1.6433 0.08407-0.50884 0.17158-1.0187 0.26303-1.5291 0.12568-0.02686 0.24755-0.05098 0.36535-0.07235zm-2.1446 0.57568c-0.011795 0.29191-0.023036 0.58544-0.03359 0.88108-0.017073-0.2839-0.033802-0.56802-0.050126-0.85214 0.028002-0.0099 0.055959-0.01932 0.083716-0.02894zm-0.78548 0.29198c0.1663 2.7195 0.3658 5.4367 0.57774 8.0347-0.011501 0.11365-0.022805 0.22726-0.034107 0.34158-0.31278-1.5536-0.6343-3.019-0.96222-4.4008 0.031695-1.2607 0.077172-2.5517 0.14004-3.8628 0.093863-0.03877 0.18698-0.07636 0.27854-0.11266zm-2.4619 0.06615c0.00912 0.03374 0.017792 0.06755 0.026872 0.10129-0.00833 0.0043-0.016457 0.0081-0.024805 0.0124-7.541e-4 -0.038-0.00131-0.07566-0.00207-0.11369zm1.2289 0.46716c-0.00243 0.06603-0.00488 0.13219-0.00723 0.19844-0.015631-0.05786-0.030859-0.1156-0.046509-0.17312 0.018065-0.0085 0.035751-0.01692 0.053743-0.02532zm-2.249 1.1798 5.168e-4 0.02532c-0.00143-0.0078-0.0027-0.01544-0.00413-0.02325 0.00126-7.27e-4 0.00236-0.0013 0.00362-0.0021zm-0.81545 0.48679c0.32482 2.2203 0.65285 4.7404 0.96428 7.2936 0.03161 1.7576 0.060303 3.4319 0.0863 4.9956-0.39595-3.0882-0.96255-7.3516-1.6299-11.925 0.19592-0.12545 0.3891-0.24674 0.57929-0.3638zm6.349 0.11007c0.27563 0.80687 0.54276 1.6128 0.7984 2.4045-0.0064 0.49019-0.01268 0.97582-0.0186 1.4562-0.22904 3.4663-0.5474 6.7134-0.87747 9.5462-0.17444-1.8175-0.35516-3.8021-0.5302-5.8885-5.876e-4 -0.92549 0.0049813-1.9211 0.019637-2.976 0.17377-1.485 0.37499-3.0052 0.60823-4.5424zm4.5155 1.7038c0.0091 0.04516 0.01837 0.0903 0.02739 0.13539 0.03599 0.50574 0.05669 1.0342 0.0646 1.5808-0.05467 0.34753-0.1076 0.69969-0.15968 1.0568 0.02902-0.94087 0.05131-1.8649 0.0677-2.773zm-13.942 0.27595c2.3364 8.9924 2.5313 20.38 2.5585 21.953-9e-3 -0.058-1.9933-12.834-4.1884-20.7 0.56026-0.44677 1.1034-0.86351 1.6299-1.2526zm-2.3854 1.865c0.72471 3.0739 0.89677 4.4022 1.5756 7.8155-0.55666-2.9396-1.188-5.5139-1.88-7.5634 0.10194-0.08494 0.20348-0.16914 0.30437-0.25218zm-1.0439 0.87747c0.69102 2.2839 1.2298 4.726 1.6536 7.0869-0.93846-2.5956-2.0133-4.4921-3.0613-5.8493 0.47936-0.43216 0.9487-0.84413 1.4077-1.2376zm10.327 1.511c0.26195 1.2795 0.49401 2.4803 0.69712 3.5636-0.17627 2.3497-0.31248 4.8288-0.40359 7.4445-0.14478-2.671-0.29664-6.5268-0.29352-11.008zm8.1804 1.9689c0.3421 2.2814 0.59279 4.3346 0.77463 6.0337-0.13677 1.682-0.25708 3.4431-0.35915 5.2875-0.18636-1.2758-0.39153-2.7701-0.59738-4.4369 0.05092-2.0835 0.11151-4.4201 0.1819-6.8843zm-4.9728 5.6121c-0.02172 2.7214-0.03514 5.0115-0.04341 6.7138-0.10928-0.99181-0.23838-2.1922-0.37879-3.5569 0.15068-1.0721 0.29136-2.1241 0.4222-3.1569zm-5.8989 3.2696c0.034608 2.2603 0.060007 4.0709 0.076481 5.2767-0.082799-1.1226-0.21932-2.9451-0.39998-5.2622z" fill="#307712" stroke="#22540f" stroke-linecap="round" stroke-width=".19844"/></g><g transform="translate(9.0208 4.5526)"><g fill="#67921f" stroke="#4f7118" stroke-linecap="round" stroke-width=".19844"><path d="m3.1158 74.614c0.75917-2.2941 13.235-38.074-11.688-44.963 1.4288-0.36611 25.89 3.831 12.573 45.037-0.10201-0.025731-0.88508-0.074371-0.88508-0.074371z" clip-path="url(#clipPath121)"/><path d="m5.3507 70.681c0.59884-2.2393 10.469-37.14-10.446-44.885 1.1874-0.30832 21.676 4.7579 11.186 44.991-0.08559-0.0292-0.74015-0.10667-0.74015-0.10667z" clip-path="url(#clipPath120)"/><path d="m20.333 73.599c-0.99634-3.6556-17.18-60.646 7.43-72.595-1.4858-0.5367-25.893 7.0741-8.3208 72.746 0.10098-0.04494 0.89075-0.15098 0.89075-0.15098z" clip-path="url(#clipPath119)"/></g><g stroke="#4f7118" stroke-linecap="round"><g transform="matrix(.90992 -.38401 .37843 .92333 46.008 -71.207)" clip-path="url(#clipPath118)" stroke-width=".19989"><path d="m-75.443 73.478c4.7718 2.6086-0.92449 27.254-0.92449 27.254l-0.66806-0.0954s5.561-23.934 0.81172-27.28c0.7635 0.05752 0.01175-0.02304 0.78082 0.12194z" fill="#67921f"/><path d="m-95.519 84.921c13.934-13.52 20.201-11.357 20.201-11.357s-6.4261-4.2629-20.201 11.357z" fill="#74a423"/></g><path d="m8.7306 74.3c0.52127-3.2297 9.2933-53.662-16.629-60.739 1.4045-0.64145 26.572 2.7759 17.532 60.756-0.10584-0.025571-0.90233-0.017023-0.90233-0.017023z" clip-path="url(#clipPath117)" fill="#67921f" stroke-width=".19844"/><path d="m17.758 74.461c-0.14635-2.0957-2.8064-34.94 12.916-34.388-0.80026-0.66352-15.891-3.3349-13.452 34.227 0.06402 0.0043 0.53573 0.161 0.53573 0.161z" clip-path="url(#clipPath116)" fill="#67921f" stroke-width=".19844"/></g><g transform="rotate(-46.676 -8.0288 30.349)" fill="#e9fc95" stroke="#b1d47a" stroke-linecap="round" stroke-width=".48487"><path transform="matrix(.40937 0 0 .40914 27.09 28.314)" d="m-35.939 25.126c0.261-0.34317-0.15586 4.9078 0.257 4.7836 0.41286-0.12422-2.8322-4.2735-2.4252-4.1313s-4.7158 1.3684-4.4701 1.7226c0.24572 0.35427 3.1891-4.0142 3.1797-3.5831-0.0094 0.43104-2.7586-4.0621-3.0196-3.719-0.261 0.34317 4.8032 1.7926 4.3903 1.9168-0.41286 0.12422 3.0108-3.8789 2.6038-4.0211-0.40703-0.14218-0.22057 5.122-0.46629 4.7678s4.6194 1.6648 4.6289 1.2338c0.0094-0.43104-4.9395 1.373-4.6785 1.0298z"/><path transform="matrix(.33384 .2368 -.23693 .33365 30.002 38.966)" d="m-35.939 25.126c0.261-0.34317-0.15586 4.9078 0.257 4.7836 0.41286-0.12422-2.8322-4.2735-2.4252-4.1313s-4.7158 1.3684-4.4701 1.7226c0.24572 0.35427 3.1891-4.0142 3.1797-3.5831-0.0094 0.43104-2.7586-4.0621-3.0196-3.719-0.261 0.34317 4.8032 1.7926 4.3903 1.9168-0.41286 0.12422 3.0108-3.8789 2.6038-4.0211-0.40703-0.14218-0.22057 5.122-0.46629 4.7678s4.6194 1.6648 4.6289 1.2338c0.0094-0.43104-4.9395 1.373-4.6785 1.0298z"/></g><g fill="#67921f" stroke="#4f7118" stroke-linecap="round"><path d="m13.005 74.22c-0.77037-2.2941-13.43-38.074 11.86-44.963-1.4499-0.36611-26.272 3.831-12.759 45.037 0.10352-0.02573 0.89814-0.07437 0.89814-0.07437z" clip-path="url(#clipPath114)" stroke-width=".19844"/><path d="m12.234 74.578c0.4811-3.6592 9.2758-60.915-20.932-66.591 0.9764-0.63953 29.963 0.95929 21.542 66.671-0.07064-0.03634-0.61025-0.07996-0.61025-0.07996z" clip-path="url(#clipPath113)" stroke-width=".19844"/><path transform="matrix(1 0 0 1.0019 0 -.13951)" d="m8.9076 74.606c-0.70935-4.088-12.417-67.876 13.047-78.861-1.4397-0.71448-26.364 5.5372-13.947 78.95 0.10416-0.0406 0.89979-0.08933 0.89979-0.08933z" clip-path="url(#clipPath112)" stroke-width=".19825"/></g><path d="m24.874 6.3115c-3.2014 4.2975-6.6116 68.319-6.6116 68.319l0.91805-0.04687s3.9548-62.213 5.6935-68.272z" clip-path="url(#clipPath111)" fill="#74a423" stroke="#4f7118" stroke-linecap="round" stroke-width=".19844"/><g transform="rotate(-8.7755 85.101 129.18)" fill="#e9fc95" stroke="#b1d47a" stroke-linecap="round" stroke-width=".48487"><path transform="matrix(.40937 0 0 .40914 27.09 28.314)" d="m-35.939 25.126c0.261-0.34317-0.15586 4.9078 0.257 4.7836 0.41286-0.12422-2.8322-4.2735-2.4252-4.1313s-4.7158 1.3684-4.4701 1.7226c0.24572 0.35427 3.1891-4.0142 3.1797-3.5831-0.0094 0.43104-2.7586-4.0621-3.0196-3.719-0.261 0.34317 4.8032 1.7926 4.3903 1.9168-0.41286 0.12422 3.0108-3.8789 2.6038-4.0211-0.40703-0.14218-0.22057 5.122-0.46629 4.7678s4.6194 1.6648 4.6289 1.2338c0.0094-0.43104-4.9395 1.373-4.6785 1.0298z"/><path transform="matrix(.33384 .2368 -.23693 .33365 30.002 38.966)" d="m-35.939 25.126c0.261-0.34317-0.15586 4.9078 0.257 4.7836 0.41286-0.12422-2.8322-4.2735-2.4252-4.1313s-4.7158 1.3684-4.4701 1.7226c0.24572 0.35427 3.1891-4.0142 3.1797-3.5831-0.0094 0.43104-2.7586-4.0621-3.0196-3.719-0.261 0.34317 4.8032 1.7926 4.3903 1.9168-0.41286 0.12422 3.0108-3.8789 2.6038-4.0211-0.40703-0.14218-0.22057 5.122-0.46629 4.7678s4.6194 1.6648 4.6289 1.2338c0.0094-0.43104-4.9395 1.373-4.6785 1.0298z"/></g><path d="m15.476 74.466c0.29607-3.4501 5.4426-57.33-16.316-64.68 1.1359-0.69532 22.115 2.7558 17.064 64.691-0.0887-0.02646-0.74776-0.01116-0.74776-0.01116z" clip-path="url(#clipPath109)" fill="#67921f" stroke="#4f7118" stroke-linecap="round" stroke-width=".19844"/><g transform="rotate(94.5 14.294 45.273)" fill="#e9fc95" stroke="#b1d47a" stroke-linecap="round" stroke-width=".48487"><path transform="matrix(.40937 0 0 .40914 27.09 28.314)" d="m-35.939 25.126c0.261-0.34317-0.15586 4.9078 0.257 4.7836 0.41286-0.12422-2.8322-4.2735-2.4252-4.1313s-4.7158 1.3684-4.4701 1.7226c0.24572 0.35427 3.1891-4.0142 3.1797-3.5831-0.0094 0.43104-2.7586-4.0621-3.0196-3.719-0.261 0.34317 4.8032 1.7926 4.3903 1.9168-0.41286 0.12422 3.0108-3.8789 2.6038-4.0211-0.40703-0.14218-0.22057 5.122-0.46629 4.7678s4.6194 1.6648 4.6289 1.2338c0.0094-0.43104-4.9395 1.373-4.6785 1.0298z"/><path transform="matrix(.33384 .2368 -.23693 .33365 30.002 38.966)" d="m-35.939 25.126c0.261-0.34317-0.15586 4.9078 0.257 4.7836 0.41286-0.12422-2.8322-4.2735-2.4252-4.1313s-4.7158 1.3684-4.4701 1.7226c0.24572 0.35427 3.1891-4.0142 3.1797-3.5831-0.0094 0.43104-2.7586-4.0621-3.0196-3.719-0.261 0.34317 4.8032 1.7926 4.3903 1.9168-0.41286 0.12422 3.0108-3.8789 2.6038-4.0211-0.40703-0.14218-0.22057 5.122-0.46629 4.7678s4.6194 1.6648 4.6289 1.2338c0.0094-0.43104-4.9395 1.373-4.6785 1.0298z"/></g><g stroke="#4f7118" stroke-linecap="round"><g stroke-width=".19844"><path d="m-3.0998 46.49c3.2014 1.7732 6.6116 28.19 6.6116 28.19l-0.91805-0.01934s-3.9548-25.67-5.6935-28.17z" clip-path="url(#clipPath107)" fill="#74a423"/><path d="m14.723 74.536c-0.28714-2.3695-5.2785-39.374 15.824-44.422-1.1017-0.47754-21.449 1.8927-16.549 44.43 0.08602-0.01817 0.72521-0.0077 0.72521-0.0077z" clip-path="url(#clipPath106)" fill="#67921f"/><path d="m25.94 32.969c-3.2014 2.6233-6.6116 41.703-6.6116 41.703l0.91805-0.02862s3.9548-37.976 5.6935-41.674z" clip-path="url(#clipPath105)" fill="#74a423"/></g><path d="m7.3905 33.286c3.2014 2.6098 6.6116 41.489 6.6116 41.489l-0.91805-0.02846s-3.9548-37.781-5.6935-41.46z" clip-path="url(#clipPath104)" fill="#74a423" stroke-width=".19844"/></g><g transform="matrix(-.92333 -.38401 -.38401 .92333 -25.891 -47.885)" clip-path="url(#clipPath103)" stroke="#4f7118" stroke-linecap="round" stroke-width=".19844"><path d="m-75.443 73.478c4.7718 2.6086-0.92449 27.254-0.92449 27.254l-0.66806-0.0954s5.561-23.934 0.81172-27.28c0.7635 0.05752 0.01175-0.02304 0.78082 0.12194z" fill="#67921f"/><path d="m-95.519 84.921c13.934-13.52 20.201-11.357 20.201-11.357s-6.4261-4.2629-20.201 11.357z" fill="#74a423"/></g><path d="m4.8107 74.799c0.23312-1.3076 4.2771-21.72-12.502-24.873 0.87742-0.2459 17.061 1.4108 13.079 24.889-0.068403-0.01152-0.57697-0.0165-0.57697-0.0165z" clip-path="url(#clipPath102)" fill="#67921f" stroke="#4f7118" stroke-linecap="round" stroke-width=".19844"/><g transform="matrix(.95448 -.15599 .29828 .49917 47.596 12.333)" clip-path="url(#clipPath101)" stroke-width=".2744"><path d="m-76.368 100.73-0.66806-0.0954s5.561-23.934 0.81172-27.28c5.657 0.42619 0.6521 23.813-0.14366 27.376z" fill="#67921f" stroke="#4f7118" stroke-linecap="round" stroke-width=".2744"/></g><g transform="rotate(-8.6428 -250.91 -506.97)" clip-path="url(#clipPath100)" stroke="#4f7118" stroke-linecap="round" stroke-width=".19844"><path d="m-75.443 73.478c4.7718 2.6086-0.92449 27.254-0.92449 27.254l-0.66806-0.0954s5.561-23.934 0.81172-27.28c0.7635 0.05752 0.01175-0.02304 0.78082 0.12194z" fill="#67921f"/><path d="m-95.519 84.921c13.934-13.52 20.201-11.357 20.201-11.357s-6.4261-4.2629-20.201 11.357z" fill="#74a423"/></g><g transform="matrix(-1.2396 -.054641 -.30481 .67734 -52.291 2.2448)" clip-path="url(#clipPath99)" fill="#67921f" stroke="#4f7118" stroke-linecap="round" stroke-width=".21445"><path d="m-76.368 100.73-0.66806-0.0954s5.561-23.934 0.81172-27.28c5.657 0.42619 0.6521 23.813-0.14366 27.376z"/><path d="m-75.537 100.65 0.6893 9e-3s6.9162-26.806 13.182-29.625c-5.6416-0.48896-12.811 25.632-13.871 29.616z"/></g><g transform="matrix(1.2396 -.059401 .30481 .73635 68.353 -4.056)" clip-path="url(#clipPath98)" stroke-width=".20568"><path d="m-76.368 100.73-0.66806-0.0954s5.561-23.934 0.81172-27.28c5.657 0.42619 0.6521 23.813-0.14366 27.376z" fill="#67921f" stroke="#4f7118" stroke-linecap="round" stroke-width=".20568"/></g><g transform="rotate(-52.799 15.335 47.666)" fill="#e9fc95" stroke="#b1d47a" stroke-linecap="round" stroke-width=".48487"><path transform="matrix(.40937 0 0 .40914 27.09 28.314)" d="m-35.939 25.126c0.261-0.34317-0.15586 4.9078 0.257 4.7836 0.41286-0.12422-2.8322-4.2735-2.4252-4.1313s-4.7158 1.3684-4.4701 1.7226c0.24572 0.35427 3.1891-4.0142 3.1797-3.5831-0.0094 0.43104-2.7586-4.0621-3.0196-3.719-0.261 0.34317 4.8032 1.7926 4.3903 1.9168-0.41286 0.12422 3.0108-3.8789 2.6038-4.0211-0.40703-0.14218-0.22057 5.122-0.46629 4.7678s4.6194 1.6648 4.6289 1.2338c0.0094-0.43104-4.9395 1.373-4.6785 1.0298z"/><path transform="matrix(.33384 .2368 -.23693 .33365 30.002 38.966)" d="m-35.939 25.126c0.261-0.34317-0.15586 4.9078 0.257 4.7836 0.41286-0.12422-2.8322-4.2735-2.4252-4.1313s-4.7158 1.3684-4.4701 1.7226c0.24572 0.35427 3.1891-4.0142 3.1797-3.5831-0.0094 0.43104-2.7586-4.0621-3.0196-3.719-0.261 0.34317 4.8032 1.7926 4.3903 1.9168-0.41286 0.12422 3.0108-3.8789 2.6038-4.0211-0.40703-0.14218-0.22057 5.122-0.46629 4.7678s4.6194 1.6648 4.6289 1.2338c0.0094-0.43104-4.9395 1.373-4.6785 1.0298z"/></g><g transform="rotate(227.97 12.304 35.825)" fill="#e9fc95" stroke="#b1d47a" stroke-linecap="round" stroke-width=".48487"><path transform="matrix(.40937 0 0 .40914 27.09 28.314)" d="m-35.939 25.126c0.261-0.34317-0.15586 4.9078 0.257 4.7836 0.41286-0.12422-2.8322-4.2735-2.4252-4.1313s-4.7158 1.3684-4.4701 1.7226c0.24572 0.35427 3.1891-4.0142 3.1797-3.5831-0.0094 0.43104-2.7586-4.0621-3.0196-3.719-0.261 0.34317 4.8032 1.7926 4.3903 1.9168-0.41286 0.12422 3.0108-3.8789 2.6038-4.0211-0.40703-0.14218-0.22057 5.122-0.46629 4.7678s4.6194 1.6648 4.6289 1.2338c0.0094-0.43104-4.9395 1.373-4.6785 1.0298z"/><path transform="matrix(.33384 .2368 -.23693 .33365 30.002 38.966)" d="m-35.939 25.126c0.261-0.34317-0.15586 4.9078 0.257 4.7836 0.41286-0.12422-2.8322-4.2735-2.4252-4.1313s-4.7158 1.3684-4.4701 1.7226c0.24572 0.35427 3.1891-4.0142 3.1797-3.5831-0.0094 0.43104-2.7586-4.0621-3.0196-3.719-0.261 0.34317 4.8032 1.7926 4.3903 1.9168-0.41286 0.12422 3.0108-3.8789 2.6038-4.0211-0.40703-0.14218-0.22057 5.122-0.46629 4.7678s4.6194 1.6648 4.6289 1.2338c0.0094-0.43104-4.9395 1.373-4.6785 1.0298z"/></g><g transform="rotate(63.735 25.846 40.35)" fill="#e9fc95" stroke="#b1d47a" stroke-linecap="round" stroke-width=".48487"><path transform="matrix(.40937 0 0 .40914 27.09 28.314)" d="m-35.939 25.126c0.261-0.34317-0.15586 4.9078 0.257 4.7836 0.41286-0.12422-2.8322-4.2735-2.4252-4.1313s-4.7158 1.3684-4.4701 1.7226c0.24572 0.35427 3.1891-4.0142 3.1797-3.5831-0.0094 0.43104-2.7586-4.0621-3.0196-3.719-0.261 0.34317 4.8032 1.7926 4.3903 1.9168-0.41286 0.12422 3.0108-3.8789 2.6038-4.0211-0.40703-0.14218-0.22057 5.122-0.46629 4.7678s4.6194 1.6648 4.6289 1.2338c0.0094-0.43104-4.9395 1.373-4.6785 1.0298z"/><path transform="matrix(.33384 .2368 -.23693 .33365 30.002 38.966)" d="m-35.939 25.126c0.261-0.34317-0.15586 4.9078 0.257 4.7836 0.41286-0.12422-2.8322-4.2735-2.4252-4.1313s-4.7158 1.3684-4.4701 1.7226c0.24572 0.35427 3.1891-4.0142 3.1797-3.5831-0.0094 0.43104-2.7586-4.0621-3.0196-3.719-0.261 0.34317 4.8032 1.7926 4.3903 1.9168-0.41286 0.12422 3.0108-3.8789 2.6038-4.0211-0.40703-0.14218-0.22057 5.122-0.46629 4.7678s4.6194 1.6648 4.6289 1.2338c0.0094-0.43104-4.9395 1.373-4.6785 1.0298z"/></g><g transform="rotate(-24.949 -28.318 47.542)" fill="#e9fc95" stroke="#b1d47a" stroke-linecap="round" stroke-width=".48487"><path transform="matrix(.40937 0 0 .40914 27.09 28.314)" d="m-35.939 25.126c0.261-0.34317-0.15586 4.9078 0.257 4.7836 0.41286-0.12422-2.8322-4.2735-2.4252-4.1313s-4.7158 1.3684-4.4701 1.7226c0.24572 0.35427 3.1891-4.0142 3.1797-3.5831-0.0094 0.43104-2.7586-4.0621-3.0196-3.719-0.261 0.34317 4.8032 1.7926 4.3903 1.9168-0.41286 0.12422 3.0108-3.8789 2.6038-4.0211-0.40703-0.14218-0.22057 5.122-0.46629 4.7678s4.6194 1.6648 4.6289 1.2338c0.0094-0.43104-4.9395 1.373-4.6785 1.0298z"/><path transform="matrix(.33384 .2368 -.23693 .33365 30.002 38.966)" d="m-35.939 25.126c0.261-0.34317-0.15586 4.9078 0.257 4.7836 0.41286-0.12422-2.8322-4.2735-2.4252-4.1313s-4.7158 1.3684-4.4701 1.7226c0.24572 0.35427 3.1891-4.0142 3.1797-3.5831-0.0094 0.43104-2.7586-4.0621-3.0196-3.719-0.261 0.34317 4.8032 1.7926 4.3903 1.9168-0.41286 0.12422 3.0108-3.8789 2.6038-4.0211-0.40703-0.14218-0.22057 5.122-0.46629 4.7678s4.6194 1.6648 4.6289 1.2338c0.0094-0.43104-4.9395 1.373-4.6785 1.0298z"/></g><g transform="rotate(-42.52 -14.722 21.445)" fill="#e9fc95" stroke="#b1d47a" stroke-linecap="round" stroke-width=".48487"><path transform="matrix(.40937 0 0 .40914 27.09 28.314)" d="m-35.939 25.126c0.261-0.34317-0.15586 4.9078 0.257 4.7836 0.41286-0.12422-2.8322-4.2735-2.4252-4.1313s-4.7158 1.3684-4.4701 1.7226c0.24572 0.35427 3.1891-4.0142 3.1797-3.5831-0.0094 0.43104-2.7586-4.0621-3.0196-3.719-0.261 0.34317 4.8032 1.7926 4.3903 1.9168-0.41286 0.12422 3.0108-3.8789 2.6038-4.0211-0.40703-0.14218-0.22057 5.122-0.46629 4.7678s4.6194 1.6648 4.6289 1.2338c0.0094-0.43104-4.9395 1.373-4.6785 1.0298z"/><path transform="matrix(.33384 .2368 -.23693 .33365 30.002 38.966)" d="m-35.939 25.126c0.261-0.34317-0.15586 4.9078 0.257 4.7836 0.41286-0.12422-2.8322-4.2735-2.4252-4.1313s-4.7158 1.3684-4.4701 1.7226c0.24572 0.35427 3.1891-4.0142 3.1797-3.5831-0.0094 0.43104-2.7586-4.0621-3.0196-3.719-0.261 0.34317 4.8032 1.7926 4.3903 1.9168-0.41286 0.12422 3.0108-3.8789 2.6038-4.0211-0.40703-0.14218-0.22057 5.122-0.46629 4.7678s4.6194 1.6648 4.6289 1.2338c0.0094-0.43104-4.9395 1.373-4.6785 1.0298z"/></g><g transform="rotate(-5.4309 -43.187 169.09)" fill="#e9fc95" stroke="#b1d47a" stroke-linecap="round" stroke-width=".48487"><path transform="matrix(.40937 0 0 .40914 27.09 28.314)" d="m-35.939 25.126c0.261-0.34317-0.15586 4.9078 0.257 4.7836 0.41286-0.12422-2.8322-4.2735-2.4252-4.1313s-4.7158 1.3684-4.4701 1.7226c0.24572 0.35427 3.1891-4.0142 3.1797-3.5831-0.0094 0.43104-2.7586-4.0621-3.0196-3.719-0.261 0.34317 4.8032 1.7926 4.3903 1.9168-0.41286 0.12422 3.0108-3.8789 2.6038-4.0211-0.40703-0.14218-0.22057 5.122-0.46629 4.7678s4.6194 1.6648 4.6289 1.2338c0.0094-0.43104-4.9395 1.373-4.6785 1.0298z"/><path transform="matrix(.33384 .2368 -.23693 .33365 30.002 38.966)" d="m-35.939 25.126c0.261-0.34317-0.15586 4.9078 0.257 4.7836 0.41286-0.12422-2.8322-4.2735-2.4252-4.1313s-4.7158 1.3684-4.4701 1.7226c0.24572 0.35427 3.1891-4.0142 3.1797-3.5831-0.0094 0.43104-2.7586-4.0621-3.0196-3.719-0.261 0.34317 4.8032 1.7926 4.3903 1.9168-0.41286 0.12422 3.0108-3.8789 2.6038-4.0211-0.40703-0.14218-0.22057 5.122-0.46629 4.7678s4.6194 1.6648 4.6289 1.2338c0.0094-0.43104-4.9395 1.373-4.6785 1.0298z"/></g><g transform="matrix(-1.2396 -.054641 -.30481 .67734 -52.291 2.2448)" clip-path="url(#clipPath91)" fill="#67921f" stroke="#4f7118" stroke-linecap="round" stroke-width=".21445"><path d="m-76.368 100.73-0.66806-0.0954s5.561-23.934 0.81172-27.28c5.657 0.42619 0.6521 23.813-0.14366 27.376z"/><path d="m-75.537 100.65 0.6893 9e-3s6.9162-26.806 13.182-29.625c-5.6416-0.48896-12.811 25.632-13.871 29.616z"/><path d="m-80.076 100.5-0.67218-0.0787s3.1402-14.09-1.9033-16.239c5.654 0.43837 3.0112 14.22 2.5755 16.318z"/></g></g><metadata><rdf:RDF><cc:Work rdf:about=""><dc:creator><cc:Agent><dc:title>Erica Schroeder</dc:title></cc:Agent></dc:creator><dc:rights><cc:Agent><dc:title>© 2026 Erica Schroeder. All rights reserved.</dc:title></cc:Agent></dc:rights><dc:date>1/16/2026</dc:date></cc:Work></rdf:RDF></metadata></svg>
