<?xml version="1.0" encoding="UTF-8"?>
<!-- Created with Inkscape (http://www.inkscape.org/) -->
<svg width="1.8239in" height="4.1702in" version="1.1" viewBox="0 0 46.327 105.92" xml:space="preserve" xmlns="http://www.w3.org/2000/svg" xmlns:cc="http://creativecommons.org/ns#" xmlns:dc="http://purl.org/dc/elements/1.1/" xmlns:rdf="http://www.w3.org/1999/02/22-rdf-syntax-ns#"><g transform="translate(8.8839 4.6208)" stroke-linecap="round"><g transform="matrix(-.99715 .072124 .075422 .95355 -18.725 14.523)" stroke-width="1.0226"><path d="m-20.136 1.409s0.25194 12.465 2.6593 12.661c-1.9035-0.78429-2.3234-12.549-2.6593-12.661z" fill="#89a155" stroke="#63753e" stroke-width=".20292"/><path d="m-17.354-4.5517c0.42515 4.3657 0.75256 96.704 0.75256 96.704h-0.62968s-0.72797-91.717-0.12287-96.704z" fill="#89a155" stroke="#63753e" stroke-width=".20292"/><g transform="matrix(.45183 -.068068 .067391 .45097 -75.374 -81.441)"><g fill="#f6b0fb" stroke="#ef73f8" stroke-width=".44457"><path d="m90.38 196.15c-0.27296 1.6418-5.5003 3.8154-7.5402 2.9584 0.27197-1.8305 5.908-4.0913 7.5402-2.9584z"/><path d="m93.088 196.14c1.0868-1.2912 6.7623-0.68331 8.095 1.03-1.1836 1.4551-7.26 0.72799-8.095-1.03z"/><path d="m90.24 196.34c0.50567 1.5818-3.1182 6.0445-5.3077 6.2811-0.59238-1.7479 3.3524-6.4865 5.3077-6.2811z"/><path d="m93.244 196.18c1.5677-0.54765 6.125 2.9563 6.4197 5.1388-1.7314 0.63876-6.573-3.1787-6.4197-5.1388z"/><path d="m92.883 196.53c1.6549 0.13707 4.3938 5.1913 3.7757 7.3051-1.8415-0.1204-4.7127-5.5766-3.7757-7.3051z"/><path d="m90.853 196.86c1.0529 1.284-0.67183 6.7678-2.6202 7.7945-1.1948-1.4065 0.72679-7.265 2.6202-7.7945z"/><path d="m91.877 196.64c1.4826 0.74796 2.1251 6.4606 0.75903 8.1881-1.6618-0.80254-2.2761-6.9374-0.75903-8.1881z"/></g><path d="m91.481 192.46c2.5608-0.27295 4.8911 4.838 0.45567 5.2896s-3.0164-5.0166-0.45567-5.2896z" fill="#c06218" stroke="#824210" stroke-width=".44456"/></g><g transform="matrix(.87482 0 0 .87535 38.044 -74.377)" stroke="#264826"><path d="m-63.137 168.62c5.3156 5.7543-4.7507 4.0845-12.634 10.198 8.3714-8.7085 4.2114-14.309 12.634-10.198z" fill="#396d39" stroke-width=".23189"/><path d="m-63.124 168.65c-1.7103 0.46696-12.023 9.4963-12.293 9.8816" fill="none" stroke-width=".15459"/></g><g transform="matrix(.87482 0 0 .87535 38.298 -83.693)" stroke="#264826"><path d="m-63.137 168.62c5.3156 5.7543-4.7507 4.0845-12.634 10.198 8.3714-8.7085 4.2114-14.309 12.634-10.198z" fill="#396d39" stroke-width=".23189"/><path d="m-63.124 168.65c-1.7103 0.46696-12.023 9.4963-12.293 9.8816" fill="none" stroke-width=".15459"/></g><g transform="matrix(-.74826 0 0 .74838 -64.589 -80.905)" stroke="#264826"><path d="m-63.137 168.62c5.3156 5.7543-4.7507 4.0845-12.634 10.198 8.3714-8.7085 4.2114-14.309 12.634-10.198z" fill="#396d39" stroke-width=".27117"/><path d="m-63.124 168.65c-1.7103 0.46696-12.023 9.4963-12.293 9.8816" fill="none" stroke-width=".18078"/></g><g transform="matrix(.44284 0 0 .44195 10.911 -56.951)" stroke="#264826"><path d="m-63.137 168.62c5.3156 5.7543-4.7507 4.0845-12.634 10.198 8.3714-8.7085 4.2114-14.309 12.634-10.198z" fill="#396d39" stroke-width=".45869"/><path d="m-63.124 168.65c-1.7103 0.46696-12.023 9.4963-12.293 9.8816" fill="none" stroke-width=".3058"/></g><g transform="matrix(.57712 -.18346 .18313 .57678 -11.577 -68.616)" stroke="#264826"><path d="m-63.137 168.62c5.3156 5.7543-4.7507 4.0845-12.634 10.198 8.3714-8.7085 4.2114-14.309 12.634-10.198z" fill="#396d39" stroke-width=".33521"/><path d="m-63.124 168.65c-1.7103 0.46696-12.023 9.4963-12.293 9.8816" fill="none" stroke-width=".22347"/></g><g transform="matrix(-.21902 -.85267 -.85229 .21941 68.193 -73.918)" stroke="#264826"><path d="m-152.7 139.17c8.0981 2.9693 0.44989 11.607-1.9795 16.871 3.5542-8.9529-4.5889-17.636 1.9795-16.871z" fill="#396d39" stroke-width=".23054"/><path d="m-152.59 139.24c2.2945 4.7914 0.0225 12.17-1.7096 15.926" fill="none" stroke-width=".15369"/></g><g transform="matrix(.62747 -.30182 .28418 .69332 15.968 -61.85)" stroke="#264826"><path d="m-109.55 126.47c11.134 2.195 10.275 19.183 9.5437 21.887-0.509-11.389-11.071-16.861-9.8936-21.41-0.37379-0.37379-0.65216-0.58852 0.34993-0.47718z" fill="#396d39" stroke-width=".28118"/><path d="m-109.18 127.19c5.6012 3.7116 9.1778 13.677 9.2453 20.65" fill="none" stroke-width=".18746"/></g><g transform="matrix(-.66644 -.57495 -.57459 .66685 -38.935 -126.78)" stroke="#264826"><path d="m-152.7 139.17c8.0981 2.9693 0.44989 11.607-1.9795 16.871 3.5542-8.9529-4.5889-17.636 1.9795-16.871z" fill="#396d39" stroke-width=".23054"/><path d="m-152.59 139.24c2.2945 4.7914 0.0225 12.17-1.7096 15.926" fill="none" stroke-width=".15369"/></g><g transform="matrix(-.47919 -.41397 -.41315 .48014 -33.286 -101.54)" stroke="#264826"><path d="m-152.7 139.17c8.0981 2.9693 0.44989 11.607-1.9795 16.871 3.5542-8.9529-4.5889-17.636 1.9795-16.871z" fill="#396d39" stroke-width=".32041"/><path d="m-152.59 139.24c2.2945 4.7914 0.0225 12.17-1.7096 15.926" fill="none" stroke-width=".2136"/></g><g transform="matrix(.40557 -.555 .55434 .40642 -32.532 -105.87)" stroke="#264826"><path d="m-152.7 139.17c8.0981 2.9693 0.44989 11.607-1.9795 16.871 3.5542-8.9529-4.5889-17.636 1.9795-16.871z" fill="#396d39" stroke-width=".29521"/><path d="m-152.59 139.24c2.2945 4.7914 0.0225 12.17-1.7096 15.926" fill="none" stroke-width=".19681"/></g><g transform="matrix(.47936 -.65607 .65519 .48044 -35.37 -97.025)" stroke="#264826"><path d="m-152.7 139.17c8.0981 2.9693 0.44989 11.607-1.9795 16.871 3.5542-8.9529-4.5889-17.636 1.9795-16.871z" fill="#396d39" stroke-width=".24975"/><path d="m-152.59 139.24c2.2945 4.7914 0.0225 12.17-1.7096 15.926" fill="none" stroke-width=".1665"/></g><g transform="matrix(.5645 -.19231 .19287 .56686 20.442 -69.293)" stroke="#264826"><path d="m-109.55 126.47c11.134 2.195 10.275 19.183 9.5437 21.887-0.509-11.389-11.071-16.861-9.8936-21.41-0.37379-0.37379-0.65216-0.58852 0.34993-0.47718z" fill="#396d39" stroke-width=".33958"/><path d="m-109.18 127.19c5.6012 3.7116 9.1778 13.677 9.2453 20.65" fill="none" stroke-width=".22639"/></g><path d="m-14.691-0.92313s-0.25194 12.465-2.6593 12.661c1.9035-0.78429 2.3234-12.549 2.6593-12.661z" fill="#89a155" stroke="#63753e" stroke-width=".20292"/><g transform="matrix(-1.4445 -.0047687 .014935 1.4581 -15.439 -59.809)" stroke-width=".13982"><g fill="#f6b0fb" stroke="#ef73f8"><path d="m2.5203 38.251c0.49087-0.19029 2.2487 0.43273 2.4894 0.92447-0.53994 0.21799-2.4136-0.46581-2.4894-0.92447z"/><path d="m1.0517 37.991c-0.44387-0.28114-2.291-0.0085-2.6241 0.42746 0.48653 0.31776 2.4592 0.0078 2.6241-0.42746z"/><path d="m2.4593 38.197c0.49818-0.01748 1.756 1.105 1.7643 1.6279-0.55148 0.027116-1.8843-1.1872-1.7643-1.6279z"/><path d="m1.0922 37.963c-0.47402-0.15233-1.9964 0.58449-2.1502 1.0849 0.52257 0.17609 2.1426-0.62868 2.1502-1.0849z"/><path d="m2.231 38.442c0.464-0.03946 1.0435 0.90332 0.78572 1.3702-0.51758 0.05061-1.1189-0.97068-0.78572-1.3702z"/><path d="m1.1481 38.287c-0.40171-0.23267-1.3355 0.37234-1.3061 0.9033 0.44522 0.2655 1.4329-0.40114 1.3061-0.9033z"/><path d="m1.9485 38.437c0.35056 0.15677 0.3394 1.1289-0.056765 1.3899-0.39403-0.16971-0.36297-1.212 0.056765-1.3899z"/><path d="m1.553 38.329c0.26259 0.2778-0.12615 1.1709-0.5935 1.2616-0.29768-0.30624 0.13679-1.2567 0.5935-1.2616z"/></g><path d="m2.0367 36.864c0.82779 0.17861 1.023 1.9917-0.40858 1.6758-1.4316-0.31588-0.41921-1.8544 0.40858-1.6758z" fill="#c06218" stroke="#824210"/></g><g transform="matrix(1.3295 0 0 1.3383 -16.961 -52.322)" stroke-width=".15213"><g fill="#f6b0fb" stroke="#ef73f8"><path d="m2.5203 38.251c0.49087-0.19029 2.2487 0.43273 2.4894 0.92447-0.53994 0.21799-2.4136-0.46581-2.4894-0.92447z"/><path d="m1.0517 37.991c-0.44387-0.28114-2.291-0.0085-2.6241 0.42746 0.48653 0.31776 2.4592 0.0078 2.6241-0.42746z"/><path d="m1.0922 37.963c-0.47402-0.15233-1.9964 0.58449-2.1502 1.0849 0.52257 0.17609 2.1426-0.62868 2.1502-1.0849z"/><path d="m2.4593 38.197c0.49818-0.01748 1.756 1.105 1.7643 1.6279-0.55148 0.027116-1.8843-1.1872-1.7643-1.6279z"/><path d="m1.1481 38.287c-0.40171-0.23267-1.3355 0.37234-1.3061 0.9033 0.44522 0.2655 1.4329-0.40114 1.3061-0.9033z"/><path d="m2.231 38.442c0.464-0.03946 1.0435 0.90332 0.78572 1.3702-0.51758 0.05061-1.1189-0.97068-0.78572-1.3702z"/><path d="m1.553 38.329c0.26259 0.2778-0.12615 1.1709-0.5935 1.2616-0.29768-0.30624 0.13679-1.2567 0.5935-1.2616z"/><path d="m1.9485 38.437c0.35056 0.15677 0.3394 1.1289-0.056765 1.3899-0.39403-0.16971-0.36297-1.212 0.056765-1.3899z"/></g><path d="m2.0367 36.864c0.82779 0.17861 1.023 1.9917-0.40858 1.6758-1.4316-0.31588-0.41921-1.8544 0.40858-1.6758z" fill="#c06218" stroke="#824210"/></g></g><g transform="matrix(-.99812 -.059057 -.06095 .93125 4.0849 14.243)" stroke-width="1.0352"><path d="m-20.136 1.409s0.25194 12.465 2.6593 12.661c-1.9035-0.78429-2.3234-12.549-2.6593-12.661z" fill="#89a155" stroke="#63753e" stroke-width=".20543"/><path d="m-17.533-1.6252c0.42515 4.3657 0.93126 93.778 0.93126 93.778h-0.62968s-0.90667-88.79-0.30158-93.778z" fill="#89a155" stroke="#63753e" stroke-width=".20543"/><g transform="matrix(.87482 0 0 .87535 38.044 -74.377)" stroke="#264826"><path d="m-63.137 168.62c5.3156 5.7543-4.7507 4.0845-12.634 10.198 8.3714-8.7085 4.2114-14.309 12.634-10.198z" fill="#396d39" stroke-width=".23475"/><path d="m-63.124 168.65c-1.7103 0.46696-12.023 9.4963-12.293 9.8816" fill="none" stroke-width=".1565"/></g><g transform="matrix(.87482 0 0 .87535 38.298 -83.693)" stroke="#264826"><path d="m-63.137 168.62c5.3156 5.7543-4.7507 4.0845-12.634 10.198 8.3714-8.7085 4.2114-14.309 12.634-10.198z" fill="#396d39" stroke-width=".23475"/><path d="m-63.124 168.65c-1.7103 0.46696-12.023 9.4963-12.293 9.8816" fill="none" stroke-width=".1565"/></g><g transform="matrix(-.74826 0 0 .74838 -64.589 -80.905)" stroke="#264826"><path d="m-63.137 168.62c5.3156 5.7543-4.7507 4.0845-12.634 10.198 8.3714-8.7085 4.2114-14.309 12.634-10.198z" fill="#396d39" stroke-width=".27452"/><path d="m-63.124 168.65c-1.7103 0.46696-12.023 9.4963-12.293 9.8816" fill="none" stroke-width=".18302"/></g><g transform="matrix(.44284 0 0 .44195 10.911 -56.951)" stroke="#264826"><path d="m-63.137 168.62c5.3156 5.7543-4.7507 4.0845-12.634 10.198 8.3714-8.7085 4.2114-14.309 12.634-10.198z" fill="#396d39" stroke-width=".46435"/><path d="m-63.124 168.65c-1.7103 0.46696-12.023 9.4963-12.293 9.8816" fill="none" stroke-width=".30957"/></g><g transform="matrix(.57712 -.18346 .18313 .57678 -11.577 -68.616)" stroke="#264826"><path d="m-63.137 168.62c5.3156 5.7543-4.7507 4.0845-12.634 10.198 8.3714-8.7085 4.2114-14.309 12.634-10.198z" fill="#396d39" stroke-width=".33934"/><path d="m-63.124 168.65c-1.7103 0.46696-12.023 9.4963-12.293 9.8816" fill="none" stroke-width=".22623"/></g><g transform="matrix(-.11101 -.87702 -.87125 .096158 87.469 -59.514)" stroke="#264826"><path d="m-152.7 139.17c8.0981 2.9693 0.44989 11.607-1.9795 16.871 3.5542-8.9529-4.5889-17.636 1.9795-16.871z" fill="#396d39" stroke-width=".23338"/><path d="m-152.59 139.24c2.2945 4.7914 0.0225 12.17-1.7096 15.926" fill="none" stroke-width=".15559"/></g><g transform="matrix(.81719 -.2575 .32636 .64514 31.691 -29.258)" stroke="#264826"><path d="m-109.55 126.47c11.134 2.195 10.275 19.183 9.5437 21.887-0.509-11.389-11.071-16.861-9.8936-21.41-0.37379-0.37379-0.65216-0.58852 0.34993-0.47718z" fill="#396d39" stroke-width=".26276"/><path d="m-109.18 127.19c5.6012 3.7116 9.1778 13.677 9.2453 20.65" fill="none" stroke-width=".17517"/></g><g transform="matrix(.74687 -.11513 .11499 .74779 50.872 -47.802)" stroke="#264826"><path d="m-109.55 126.47c11.134 2.195 10.275 19.183 9.5437 21.887-0.509-11.389-11.071-16.861-9.8936-21.41-0.37379-0.37379-0.65216-0.58852 0.34993-0.47718z" fill="#396d39" stroke-width=".27168"/><path d="m-109.18 127.19c5.6012 3.7116 9.1778 13.677 9.2453 20.65" fill="none" stroke-width=".18112"/></g><g transform="matrix(-.66644 -.57495 -.57459 .66685 -38.935 -126.78)" stroke="#264826"><path d="m-152.7 139.17c8.0981 2.9693 0.44989 11.607-1.9795 16.871 3.5542-8.9529-4.5889-17.636 1.9795-16.871z" fill="#396d39" stroke-width=".23338"/><path d="m-152.59 139.24c2.2945 4.7914 0.0225 12.17-1.7096 15.926" fill="none" stroke-width=".15559"/></g><g transform="matrix(-.47919 -.41397 -.41315 .48014 -33.286 -101.54)" stroke="#264826"><path d="m-152.7 139.17c8.0981 2.9693 0.44989 11.607-1.9795 16.871 3.5542-8.9529-4.5889-17.636 1.9795-16.871z" fill="#396d39" stroke-width=".32436"/><path d="m-152.59 139.24c2.2945 4.7914 0.0225 12.17-1.7096 15.926" fill="none" stroke-width=".21624"/></g><g transform="matrix(.40557 -.555 .55434 .40642 -32.532 -105.87)" stroke="#264826"><path d="m-152.7 139.17c8.0981 2.9693 0.44989 11.607-1.9795 16.871 3.5542-8.9529-4.5889-17.636 1.9795-16.871z" fill="#396d39" stroke-width=".29886"/><path d="m-152.59 139.24c2.2945 4.7914 0.0225 12.17-1.7096 15.926" fill="none" stroke-width=".19924"/></g><g transform="matrix(.47936 -.65607 .65519 .48044 -35.37 -97.025)" stroke="#264826"><path d="m-152.7 139.17c8.0981 2.9693 0.44989 11.607-1.9795 16.871 3.5542-8.9529-4.5889-17.636 1.9795-16.871z" fill="#396d39" stroke-width=".25284"/><path d="m-152.59 139.24c2.2945 4.7914 0.0225 12.17-1.7096 15.926" fill="none" stroke-width=".16856"/></g><g transform="matrix(.5645 -.19231 .19287 .56686 20.442 -69.293)" stroke="#264826"><path d="m-109.55 126.47c11.134 2.195 10.275 19.183 9.5437 21.887-0.509-11.389-11.071-16.861-9.8936-21.41-0.37379-0.37379-0.65216-0.58852 0.34993-0.47718z" fill="#396d39" stroke-width=".34377"/><path d="m-109.18 127.19c5.6012 3.7116 9.1778 13.677 9.2453 20.65" fill="none" stroke-width=".22918"/></g><g transform="matrix(-.36619 -.023222 -.023681 .38781 16.081 -63.39)" stroke-width="2.7418"><path d="m80.247 161.48c2.8176-0.36046 6.9941 4.7598 0.91773 5.676s-3.7354-5.3155-0.91773-5.676z" fill="#c06218" stroke="#824210" stroke-width=".54408"/><g fill="#f6b0fb" stroke="#ef73f8"><g stroke-width=".54408"><path d="m77.575 165.62c-2.483 2.2046-5.5738 6.2118-7.4878 6.4346 0.65723-2.2653 5.6153-8.9098 7.4878-6.4346z"/><path d="m84.051 164.89c2.483 2.2046 5.9285 5.7236 7.9472 5.4552-0.65723-2.2653-6.0748-7.9304-7.9472-5.4552z"/><path d="m78.315 166.01c1.852 0.87102-2.6455 7.161-4.6781 7.5071-0.77159-2.1399 3.0317-9.6543 4.6781-7.5071z"/></g><path d="m79.646 166.76c1.9285-1.3247 1.6757 6.6444-0.25987 8.2152-2.0016-1.3194-1.7932-9.887 0.25987-8.2152z" stroke-width=".54408"/><path d="m83.576 165.36c-1.8358 0.91956 3.7486 7.1049 5.8934 7.4944 0.58736-2.2921-4.3986-9.7866-5.8934-7.4944z" stroke-width=".54408"/><path d="m82.571 166.43c1.0715-2.1949 3.4746 6.3707 2.0914 8.4575-2.1843-0.71072-4.695-9.7199-2.0914-8.4575z" stroke-width=".54408"/></g></g><g transform="matrix(1.2411 -.51921 .45529 1.2431 -40.001 -45.093)" stroke-width=".15401"><g fill="#f6b0fb" stroke="#ef73f8"><path d="m2.5203 38.251c0.49087-0.19029 2.2487 0.43273 2.4894 0.92447-0.53994 0.21799-2.4136-0.46581-2.4894-0.92447z"/><path d="m1.0517 37.991c-0.44387-0.28114-2.291-0.0085-2.6241 0.42746 0.48653 0.31776 2.4592 0.0078 2.6241-0.42746z"/><path d="m1.0922 37.963c-0.47402-0.15233-1.9964 0.58449-2.1502 1.0849 0.52257 0.17609 2.1426-0.62868 2.1502-1.0849z"/><path d="m2.4593 38.197c0.49818-0.01748 1.756 1.105 1.7643 1.6279-0.55148 0.027116-1.8843-1.1872-1.7643-1.6279z"/><path d="m2.231 38.442c0.464-0.03946 1.0435 0.90332 0.78572 1.3702-0.51758 0.05061-1.1189-0.97068-0.78572-1.3702z"/><path d="m1.1481 38.287c-0.40171-0.23267-1.3355 0.37234-1.3061 0.9033 0.44522 0.2655 1.4329-0.40114 1.3061-0.9033z"/><path d="m1.9485 38.437c0.35056 0.15677 0.3394 1.1289-0.056765 1.3899-0.39403-0.16971-0.36297-1.212 0.056765-1.3899z"/><path d="m1.553 38.329c0.26259 0.2778-0.12615 1.1709-0.5935 1.2616-0.29768-0.30624 0.13679-1.2567 0.5935-1.2616z"/></g><path d="m2.0367 36.864c0.82779 0.17861 1.023 1.9917-0.40858 1.6758-1.4316-0.31588-0.41921-1.8544 0.40858-1.6758z" fill="#c06218" stroke="#824210"/></g></g></g><g transform="translate(8.8839 4.6208)" stroke-linecap="round"><g transform="rotate(3.1564 14.993 370.09)"><path d="m11.659 5.3922s-0.28631 14.156-3.0222 14.379c2.1632-0.89075 2.6404-14.252 3.0222-14.379z" fill="#89a155" stroke="#63753e" stroke-width=".19844"/><path d="m8.8038-2.2426c-0.48316 4.663-0.85524 103.29-0.85524 103.29h0.7156s0.82729-97.961 0.13964-103.29z" fill="#89a155" stroke="#63753e" stroke-width=".19844"/><g transform="matrix(-.51348 -.077307 -.076586 .51218 74.433 -88.703)"><g fill="#f6b0fb" stroke="#ef73f8" stroke-width=".38266"><path d="m90.524 196.19c-0.21917 1.6461-5.4022 4.1238-7.4823 3.3983 0.21182-1.8334 5.8029-4.4226 7.4823-3.3983z"/><path d="m93.02 196.3c1.0538-1.2852 6.7663-0.67106 8.1526 1.0384-1.1462 1.4484-7.2645 0.71485-8.1526-1.0384z"/><path d="m90.24 196.34c0.50567 1.5818-3.1182 6.0445-5.3077 6.2811-0.59238-1.7479 3.3524-6.4865 5.3077-6.2811z"/><path d="m93.244 196.18c1.5677-0.54765 6.125 2.9563 6.4197 5.1388-1.7314 0.63876-6.573-3.1787-6.4197-5.1388z"/><path d="m92.883 196.53c1.6549 0.13707 4.3938 5.1913 3.7757 7.3051-1.8415-0.1204-4.7127-5.5766-3.7757-7.3051z"/><path d="m90.853 196.86c1.0529 1.284-0.67183 6.7678-2.6202 7.7945-1.1948-1.4065 0.72679-7.265 2.6202-7.7945z"/><path d="m91.877 196.64c1.4826 0.74796 2.1251 6.4606 0.75903 8.1881-1.6618-0.80254-2.2761-6.9374-0.75903-8.1881z"/></g><path d="m91.481 192.46c2.5608-0.27295 4.8911 4.838 0.45567 5.2896s-3.0164-5.0166-0.45567-5.2896z" fill="#c06218" stroke="#824210" stroke-width=".38266"/></g><g transform="matrix(.99419 0 0 .99417 70.872 -76.708)" stroke="#346435"><path d="m-63.137 168.62c5.3156 5.7543-4.7507 4.0845-12.634 10.198 8.3714-8.7085 4.2114-14.309 12.634-10.198z" fill="#468747" stroke-width=".1996"/><path d="m-63.124 168.65c-1.7103 0.46696-12.023 9.4963-12.293 9.8816" fill="none" stroke-width=".13307"/></g><g transform="matrix(-.99419 0 0 .99417 -53.936 -97.948)" stroke="#346435"><path d="m-63.137 168.62c5.3156 5.7543-4.7507 4.0845-12.634 10.198 8.3714-8.7085 4.2114-14.309 12.634-10.198z" fill="#468747" stroke-width=".1996"/><path d="m-63.124 168.65c-1.7103 0.46696-12.023 9.4963-12.293 9.8816" fill="none" stroke-width=".13307"/></g><g transform="matrix(.85036 0 0 .84996 62.484 -95.504)" stroke="#346435"><path d="m-63.137 168.62c5.3156 5.7543-4.7507 4.0845-12.634 10.198 8.3714-8.7085 4.2114-14.309 12.634-10.198z" fill="#468747" stroke-width=".23341"/><path d="m-63.124 168.65c-1.7103 0.46696-12.023 9.4963-12.293 9.8816" fill="none" stroke-width=".15561"/></g><g transform="matrix(-.50326 0 0 .50194 -22.959 -65.386)" stroke="#346435"><path d="m-63.137 168.62c5.3156 5.7543-4.7507 4.0845-12.634 10.198 8.3714-8.7085 4.2114-14.309 12.634-10.198z" fill="#468747" stroke-width=".39482"/><path d="m-63.124 168.65c-1.7103 0.46696-12.023 9.4963-12.293 9.8816" fill="none" stroke-width=".26322"/></g><g transform="matrix(-.19152 5.931e-5 -5.9154e-5 .18994 -3.1532 -23.108)" stroke="#346435"><path d="m-63.137 168.62c5.3156 5.7543-4.7507 4.0845-12.634 10.198 8.3714-8.7085 4.2114-14.309 12.634-10.198z" fill="#468747" stroke-width="1.0404"/><path d="m-63.124 168.65c-1.7103 0.46696-12.023 9.4963-12.293 9.8816" fill="none" stroke-width=".69362"/></g><g transform="matrix(-.65586 -.20837 -.20811 .65507 2.2392 -81.546)" stroke="#346435"><path d="m-63.137 168.62c5.3156 5.7543-4.7507 4.0845-12.634 10.198 8.3714-8.7085 4.2114-14.309 12.634-10.198z" fill="#468747" stroke-width=".28853"/><path d="m-63.124 168.65c-1.7103 0.46696-12.023 9.4963-12.293 9.8816" fill="none" stroke-width=".19236"/></g><g transform="rotate(-60.072 -115.53 -25.457)" stroke="#346435"><path d="m-152.7 139.17c8.0981 2.9693 0.44989 11.607-1.9795 16.871 3.5542-8.9529-4.5889-17.636 1.9795-16.871z" fill="#468747" stroke-width=".19844"/><path d="m-152.59 139.24c2.2945 4.7914 0.0225 12.17-1.7096 15.926" fill="none" stroke-width=".13229"/></g><g transform="matrix(-.9749 -.22262 -.22262 .9749 -70.844 -69.652)" stroke="#346435"><path d="m-109.55 126.47c11.134 2.195 10.275 19.183 9.5437 21.887-0.509-11.389-11.071-16.861-9.8936-21.41-0.37379-0.37379-0.65216-0.58852 0.34993-0.47718z" fill="#468747" stroke-width=".19844"/><path d="m-109.18 127.19c5.6012 3.7116 9.1778 13.677 9.2453 20.65" fill="none" stroke-width=".13229"/></g><g transform="matrix(.84877 -.13076 .13068 .84929 85.626 -67.88)" stroke="#346435"><path d="m-109.55 126.47c11.134 2.195 10.275 19.183 9.5437 21.887-0.509-11.389-11.071-16.861-9.8936-21.41-0.37379-0.37379-0.65216-0.58852 0.34993-0.47718z" fill="#468747" stroke-width=".231"/><path d="m-109.18 127.19c5.6012 3.7116 9.1778 13.677 9.2453 20.65" fill="none" stroke-width=".154"/></g><g transform="matrix(-.59285 -.025462 -.025142 .59467 -53.421 -43.679)" stroke="#346435"><path d="m-109.55 126.47c11.134 2.195 10.275 19.183 9.5437 21.887-0.509-11.389-11.071-16.861-9.8936-21.41-0.37379-0.37379-0.65216-0.58852 0.34993-0.47718z" fill="#468747" stroke-width=".3339"/><path d="m-109.18 127.19c5.6012 3.7116 9.1778 13.677 9.2453 20.65" fill="none" stroke-width=".2226"/></g><g transform="matrix(-.75737 -.65299 -.65299 .75737 -16.513 -143.42)" stroke="#346435"><path d="m-152.7 139.17c8.0981 2.9693 0.44989 11.607-1.9795 16.871 3.5542-8.9529-4.5889-17.636 1.9795-16.871z" fill="#468747" stroke-width=".19844"/><path d="m-152.59 139.24c2.2945 4.7914 0.0225 12.17-1.7096 15.926" fill="none" stroke-width=".13229"/></g><g transform="matrix(.54457 -.47016 .46952 .54532 26.909 -118.93)" stroke="#346435"><path d="m-152.7 139.17c8.0981 2.9693 0.44989 11.607-1.9795 16.871 3.5542-8.9529-4.5889-17.636 1.9795-16.871z" fill="#468747" stroke-width=".27579"/><path d="m-152.59 139.24c2.2945 4.7914 0.0225 12.17-1.7096 15.926" fill="none" stroke-width=".18386"/></g><g transform="matrix(-.47062 -.32392 -.32273 .47187 -18.143 -91.427)" stroke="#346435"><path d="m-152.7 139.17c8.0981 2.9693 0.44989 11.607-1.9795 16.871 3.5542-8.9529-4.5889-17.636 1.9795-16.871z" fill="#468747" stroke-width=".34722"/><path d="m-152.59 139.24c2.2945 4.7914 0.0225 12.17-1.7096 15.926" fill="none" stroke-width=".23148"/></g><g transform="matrix(1.2304 -.50381 .50712 1.2385 -12.687 -48.189)" stroke-width=".14876"><g fill="#f6b0fb" stroke="#ef73f8"><path d="m2.5203 38.251c0.49087-0.19029 2.2487 0.43273 2.4894 0.92447-0.53994 0.21799-2.4136-0.46581-2.4894-0.92447z"/><path d="m1.0517 37.991c-0.44387-0.28114-2.291-0.0085-2.6241 0.42746 0.48653 0.31776 2.4592 0.0078 2.6241-0.42746z"/><path d="m2.4033 38.261c0.49569-0.05238 1.8302 0.97902 1.8756 1.5-0.54817 0.06573-1.9639-1.0521-1.8756-1.5z"/><path d="m2.231 38.442c0.464-0.03946 1.0435 0.90332 0.78572 1.3702-0.51758 0.05061-1.1189-0.97068-0.78572-1.3702z"/><path d="m1.1361 38.059c-0.45877-0.19299-2.0402 0.40853-2.2376 0.89365 0.50504 0.22088 2.1898-0.43983 2.2376-0.89365z"/><path d="m1.1481 38.287c-0.40171-0.23267-1.3355 0.37234-1.3061 0.9033 0.44522 0.2655 1.4329-0.40114 1.3061-0.9033z"/><path d="m1.553 38.329c0.26259 0.2778-0.12615 1.1709-0.5935 1.2616-0.29768-0.30624 0.13679-1.2567 0.5935-1.2616z"/><path d="m1.9485 38.437c0.35056 0.15677 0.3394 1.1289-0.056765 1.3899-0.39403-0.16971-0.36297-1.212 0.056765-1.3899z"/></g><path d="m2.0367 36.864c0.82779 0.17861 1.023 1.9917-0.40858 1.6758-1.4316-0.31588-0.41921-1.8544 0.40858-1.6758z" fill="#c06218" stroke="#824210"/></g></g><g transform="translate(34.963 8.9364)"><path d="m-20.136 1.409s0.25194 12.465 2.6593 12.661c-1.9035-0.78429-2.3234-12.549-2.6593-12.661z" fill="#89a155" stroke="#63753e" stroke-width=".19844"/><path d="m-17.354-4.5517c0.42515 4.3657 0.75256 96.704 0.75256 96.704h-0.62968s-0.72797-91.717-0.12287-96.704z" fill="#89a155" stroke="#63753e" stroke-width=".19844"/><g transform="matrix(-.4503 .13086 .13134 .44911 -1.674 -105.2)"><g fill="#f6b0fb" stroke="#ef73f8" stroke-width=".42363"><path d="m90.47 196.26c-0.36166 1.62-5.7427 3.635-7.7525 2.731 0.37063-1.8072 6.168-3.8976 7.7525-2.731z"/><path d="m93.101 195.88c1.1285-1.2193 6.7936-0.26115 8.0753 1.5291-1.2305 1.3766-7.2934 0.27477-8.0753-1.5291z"/><path d="m90.24 196.34c0.50567 1.5818-3.1182 6.0445-5.3077 6.2811-0.59238-1.7479 3.3524-6.4865 5.3077-6.2811z"/><path d="m93.244 196.18c1.5677-0.54765 6.125 2.9563 6.4197 5.1388-1.7314 0.63876-6.573-3.1787-6.4197-5.1388z"/><path d="m90.853 196.86c1.0529 1.284-0.67183 6.7678-2.6202 7.7945-1.1948-1.4065 0.72679-7.265 2.6202-7.7945z"/><path d="m92.883 196.53c1.6549 0.13707 4.3938 5.1913 3.7757 7.3051-1.8415-0.1204-4.7127-5.5766-3.7757-7.3051z"/><path d="m91.877 196.64c1.4826 0.74796 2.1251 6.4606 0.75903 8.1881-1.6618-0.80254-2.2761-6.9374-0.75903-8.1881z"/></g><path d="m91.481 192.46c2.5608-0.27295 4.8911 4.838 0.45567 5.2896s-3.0164-5.0166-0.45567-5.2896z" fill="#c06218" stroke="#824210" stroke-width=".42363"/></g><g transform="matrix(.87482 0 0 .87535 38.044 -74.377)" stroke="#346435"><path d="m-63.137 168.62c5.3156 5.7543-4.7507 4.0845-12.634 10.198 8.3714-8.7085 4.2114-14.309 12.634-10.198z" fill="#468747" stroke-width=".22676"/><path d="m-63.124 168.65c-1.7103 0.46696-12.023 9.4963-12.293 9.8816" fill="none" stroke-width=".15118"/></g><g transform="matrix(.87482 0 0 .87535 38.298 -83.693)" stroke="#346435"><path d="m-63.137 168.62c5.3156 5.7543-4.7507 4.0845-12.634 10.198 8.3714-8.7085 4.2114-14.309 12.634-10.198z" fill="#468747" stroke-width=".22676"/><path d="m-63.124 168.65c-1.7103 0.46696-12.023 9.4963-12.293 9.8816" fill="none" stroke-width=".15118"/></g><g transform="matrix(-.74826 0 0 .74838 -64.589 -80.905)" stroke="#346435"><path d="m-63.137 168.62c5.3156 5.7543-4.7507 4.0845-12.634 10.198 8.3714-8.7085 4.2114-14.309 12.634-10.198z" fill="#468747" stroke-width=".26518"/><path d="m-63.124 168.65c-1.7103 0.46696-12.023 9.4963-12.293 9.8816" fill="none" stroke-width=".17679"/></g><g transform="matrix(.44284 0 0 .44195 10.911 -56.951)" stroke="#346435"><path d="m-63.137 168.62c5.3156 5.7543-4.7507 4.0845-12.634 10.198 8.3714-8.7085 4.2114-14.309 12.634-10.198z" fill="#468747" stroke-width=".44855"/><path d="m-63.124 168.65c-1.7103 0.46696-12.023 9.4963-12.293 9.8816" fill="none" stroke-width=".29904"/></g><g transform="matrix(.57712 -.18346 .18313 .57678 -11.577 -68.616)" stroke="#346435"><path d="m-63.137 168.62c5.3156 5.7543-4.7507 4.0845-12.634 10.198 8.3714-8.7085 4.2114-14.309 12.634-10.198z" fill="#468747" stroke-width=".3278"/><path d="m-63.124 168.65c-1.7103 0.46696-12.023 9.4963-12.293 9.8816" fill="none" stroke-width=".21853"/></g><g transform="matrix(-.21902 -.85267 -.85229 .21941 68.193 -73.918)" stroke="#346435"><path d="m-152.7 139.17c8.0981 2.9693 0.44989 11.607-1.9795 16.871 3.5542-8.9529-4.5889-17.636 1.9795-16.871z" fill="#468747" stroke-width=".22544"/><path d="m-152.59 139.24c2.2945 4.7914 0.0225 12.17-1.7096 15.926" fill="none" stroke-width=".1503"/></g><g transform="matrix(.81719 -.2575 .32636 .64514 31.691 -29.258)" stroke="#346435"><path d="m-109.55 126.47c11.134 2.195 10.275 19.183 9.5437 21.887-0.509-11.389-11.071-16.861-9.8936-21.41-0.37379-0.37379-0.65216-0.58852 0.34993-0.47718z" fill="#468747" stroke-width=".25382"/><path d="m-109.18 127.19c5.6012 3.7116 9.1778 13.677 9.2453 20.65" fill="none" stroke-width=".16921"/></g><g transform="matrix(.74687 -.11513 .11499 .74779 50.872 -47.802)" stroke="#346435"><path d="m-109.55 126.47c11.134 2.195 10.275 19.183 9.5437 21.887-0.509-11.389-11.071-16.861-9.8936-21.41-0.37379-0.37379-0.65216-0.58852 0.34993-0.47718z" fill="#468747" stroke-width=".26244"/><path d="m-109.18 127.19c5.6012 3.7116 9.1778 13.677 9.2453 20.65" fill="none" stroke-width=".17496"/></g><g transform="matrix(-.66644 -.57495 -.57459 .66685 -38.935 -126.78)" stroke="#346435"><path d="m-152.7 139.17c8.0981 2.9693 0.44989 11.607-1.9795 16.871 3.5542-8.9529-4.5889-17.636 1.9795-16.871z" fill="#468747" stroke-width=".22544"/><path d="m-152.59 139.24c2.2945 4.7914 0.0225 12.17-1.7096 15.926" fill="none" stroke-width=".1503"/></g><g transform="matrix(-.47919 -.41397 -.41315 .48014 -33.286 -101.54)" stroke="#346435"><path d="m-152.7 139.17c8.0981 2.9693 0.44989 11.607-1.9795 16.871 3.5542-8.9529-4.5889-17.636 1.9795-16.871z" fill="#468747" stroke-width=".31332"/><path d="m-152.59 139.24c2.2945 4.7914 0.0225 12.17-1.7096 15.926" fill="none" stroke-width=".20888"/></g><g transform="matrix(.40557 -.555 .55434 .40642 -32.532 -105.87)" stroke="#346435"><path d="m-152.7 139.17c8.0981 2.9693 0.44989 11.607-1.9795 16.871 3.5542-8.9529-4.5889-17.636 1.9795-16.871z" fill="#468747" stroke-width=".28869"/><path d="m-152.59 139.24c2.2945 4.7914 0.0225 12.17-1.7096 15.926" fill="none" stroke-width=".19246"/></g><g transform="matrix(.47936 -.65607 .65519 .48044 -35.37 -97.025)" stroke="#346435"><path d="m-152.7 139.17c8.0981 2.9693 0.44989 11.607-1.9795 16.871 3.5542-8.9529-4.5889-17.636 1.9795-16.871z" fill="#468747" stroke-width=".24423"/><path d="m-152.59 139.24c2.2945 4.7914 0.0225 12.17-1.7096 15.926" fill="none" stroke-width=".16282"/></g><g transform="matrix(.5645 -.19231 .19287 .56686 20.442 -69.293)" stroke="#346435"><path d="m-109.55 126.47c11.134 2.195 10.275 19.183 9.5437 21.887-0.509-11.389-11.071-16.861-9.8936-21.41-0.37379-0.37379-0.65216-0.58852 0.34993-0.47718z" fill="#468747" stroke-width=".33208"/><path d="m-109.18 127.19c5.6012 3.7116 9.1778 13.677 9.2453 20.65" fill="none" stroke-width=".22139"/></g><path d="m-14.691-0.92313s-0.25194 12.465-2.6593 12.661c1.9035-0.78429 2.3234-12.549 2.6593-12.661z" fill="#89a155" stroke="#63753e" stroke-width=".19844"/><g transform="matrix(1.3295 0 0 1.3383 -16.961 -52.322)" stroke-width=".14876"><g fill="#f6b0fb" stroke="#ef73f8"><path d="m1.9485 38.437c0.35056 0.15677 0.3394 1.1289-0.056765 1.3899-0.39403-0.16971-0.36297-1.212 0.056765-1.3899z"/><path d="m1.553 38.329c0.26259 0.2778-0.12615 1.1709-0.5935 1.2616-0.29768-0.30624 0.13679-1.2567 0.5935-1.2616z"/><path d="m2.231 38.442c0.464-0.03946 1.0435 0.90332 0.78572 1.3702-0.51758 0.05061-1.1189-0.97068-0.78572-1.3702z"/><path d="m1.1481 38.287c-0.40171-0.23267-1.3355 0.37234-1.3061 0.9033 0.44522 0.2655 1.4329-0.40114 1.3061-0.9033z"/><path d="m2.4593 38.197c0.49818-0.01748 1.756 1.105 1.7643 1.6279-0.55148 0.027116-1.8843-1.1872-1.7643-1.6279z"/><path d="m1.0922 37.963c-0.47402-0.15233-1.9964 0.58449-2.1502 1.0849 0.52257 0.17609 2.1426-0.62868 2.1502-1.0849z"/><path d="m2.5203 38.251c0.49087-0.19029 2.2487 0.43273 2.4894 0.92447-0.53994 0.21799-2.4136-0.46581-2.4894-0.92447z"/><path d="m1.0517 37.991c-0.44387-0.28114-2.291-0.0085-2.6241 0.42746 0.48653 0.31776 2.4592 0.0078 2.6241-0.42746z"/></g><path d="m2.0367 36.864c0.82779 0.17861 1.023 1.9917-0.40858 1.6758-1.4316-0.31588-0.41921-1.8544 0.40858-1.6758z" fill="#c06218" stroke="#824210"/></g><g transform="matrix(.45183 -.068068 .067391 .45097 -75.374 -81.441)"><g fill="#f6b0fb" stroke="#ef73f8" stroke-width=".43474"><path d="m90.137 196.01c-0.0332 1.6604-4.9053 4.7078-7.0534 4.2218 0.0049-1.8457 5.2699-5.05 7.0534-4.2218z"/><path d="m92.815 196.04c1.2039-1.1446 6.798 0.17289 7.9636 2.0408-1.3158 1.295-7.2978-0.19119-7.9636-2.0408z"/><path d="m93.244 196.18c1.5677-0.54765 6.125 2.9563 6.4197 5.1388-1.7314 0.63876-6.573-3.1787-6.4197-5.1388z"/><path d="m90.24 196.34c0.50567 1.5818-3.1182 6.0445-5.3077 6.2811-0.59238-1.7479 3.3524-6.4865 5.3077-6.2811z"/><path d="m92.883 196.53c1.6549 0.13707 4.3938 5.1913 3.7757 7.3051-1.8415-0.1204-4.7127-5.5766-3.7757-7.3051z"/><path d="m90.853 196.86c1.0529 1.284-0.67183 6.7678-2.6202 7.7945-1.1948-1.4065 0.72679-7.265 2.6202-7.7945z"/><path d="m91.877 196.64c1.4826 0.74796 2.1251 6.4606 0.75903 8.1881-1.6618-0.80254-2.2761-6.9374-0.75903-8.1881z"/></g><path d="m91.481 192.46c2.5608-0.27295 4.8911 4.838 0.45567 5.2896s-3.0164-5.0166-0.45567-5.2896z" fill="#c06218" stroke="#824210" stroke-width=".43474"/></g></g><path d="m11.659 5.3922s-0.28631 14.156-3.0222 14.379c2.1632-0.89075 2.6404-14.252 3.0222-14.379z" fill="#89a155" stroke="#63753e" stroke-width=".19844"/><path d="m8.8038-2.2426c-0.48316 4.663-0.85524 103.29-0.85524 103.29h0.7156s0.82729-97.961 0.13964-103.29z" fill="#89a155" stroke="#63753e" stroke-width=".19844"/><g transform="matrix(.53735 .018539 -.019031 .53581 -36.688 -109.34)"><g fill="#f6b0fb" stroke="#ef73f8" stroke-width=".36959"><path d="m90.316 195.27c0.05225 1.6601-4.6562 4.9544-6.8262 4.5795-0.09005-1.8437 5.0026-5.3149 6.8262-4.5795z"/><path d="m93.209 195.31c1.3404-0.98076 6.7211 1.0422 7.6387 3.0438-1.4706 1.1156-7.2145-1.1243-7.6387-3.0438z"/><path d="m93.394 195.4c1.5677-0.54765 6.125 2.9563 6.4197 5.1388-1.7314 0.63876-6.573-3.1787-6.4197-5.1388z"/><path d="m89.862 195.7c0.50567 1.5818-3.1182 6.0445-5.3077 6.2811-0.59238-1.7479 3.3524-6.4865 5.3077-6.2811z"/><path d="m92.883 196.53c1.6549 0.13707 4.3938 5.1913 3.7757 7.3051-1.8415-0.1204-4.7127-5.5766-3.7757-7.3051z"/><path d="m90.481 196.4c1.0529 1.284-0.67183 6.7678-2.6202 7.7945-1.1948-1.4065 0.72679-7.265 2.6202-7.7945z"/><path d="m91.877 196.64c1.4826 0.74796 2.1251 6.4606 0.75903 8.1881-1.6618-0.80254-2.2761-6.9374-0.75903-8.1881z"/></g><path d="m91.481 192.46c2.5608-0.27295 4.8911 4.838 0.45567 5.2896s-3.0164-5.0166-0.45567-5.2896z" fill="#c06218" stroke="#824210" stroke-width=".36959"/></g><g transform="matrix(-.51348 -.077307 -.076586 .51218 74.433 -88.703)"><g fill="#f6b0fb" stroke="#ef73f8" stroke-width=".38266"><path d="m90.333 195.67c-0.03284 1.6605-4.904 4.7081-7.0521 4.2221 0.0045-1.8458 5.2685-5.0503 7.0521-4.2221z"/><path d="m93.066 195.75c1.1826-1.167 6.7999 0.0447 7.9997 1.8904-1.2916 1.3196-7.2999-0.0536-7.9997-1.8904z"/><path d="m93.244 196.18c1.5677-0.54765 6.125 2.9563 6.4197 5.1388-1.7314 0.63876-6.573-3.1787-6.4197-5.1388z"/><path d="m90.24 196.34c0.50567 1.5818-3.1182 6.0445-5.3077 6.2811-0.59238-1.7479 3.3524-6.4865 5.3077-6.2811z"/><path d="m92.883 196.53c1.6549 0.13707 4.3938 5.1913 3.7757 7.3051-1.8415-0.1204-4.7127-5.5766-3.7757-7.3051z"/><path d="m90.853 196.86c1.0529 1.284-0.67183 6.7678-2.6202 7.7945-1.1948-1.4065 0.72679-7.265 2.6202-7.7945z"/><path d="m91.877 196.64c1.4826 0.74796 2.1251 6.4606 0.75903 8.1881-1.6618-0.80254-2.2761-6.9374-0.75903-8.1881z"/></g><path d="m91.481 192.46c2.5608-0.27295 4.8911 4.838 0.45567 5.2896s-3.0164-5.0166-0.45567-5.2896z" fill="#c06218" stroke="#824210" stroke-width=".38266"/></g><g transform="matrix(.99419 0 0 .99417 70.872 -76.708)" stroke="#346435"><path d="m-63.137 168.62c5.3156 5.7543-4.7507 4.0845-12.634 10.198 8.3714-8.7085 4.2114-14.309 12.634-10.198z" fill="#468747" stroke-width=".1996"/><path d="m-63.124 168.65c-1.7103 0.46696-12.023 9.4963-12.293 9.8816" fill="none" stroke-width=".13307"/></g><g transform="matrix(-.99419 0 0 .99417 -53.936 -97.948)" stroke="#346435"><path d="m-63.137 168.62c5.3156 5.7543-4.7507 4.0845-12.634 10.198 8.3714-8.7085 4.2114-14.309 12.634-10.198z" fill="#468747" stroke-width=".1996"/><path d="m-63.124 168.65c-1.7103 0.46696-12.023 9.4963-12.293 9.8816" fill="none" stroke-width=".13307"/></g><g transform="matrix(.85036 0 0 .84996 62.484 -95.504)" stroke="#346435"><path d="m-63.137 168.62c5.3156 5.7543-4.7507 4.0845-12.634 10.198 8.3714-8.7085 4.2114-14.309 12.634-10.198z" fill="#468747" stroke-width=".23341"/><path d="m-63.124 168.65c-1.7103 0.46696-12.023 9.4963-12.293 9.8816" fill="none" stroke-width=".15561"/></g><g transform="matrix(-.49784 -.07365 -.073456 .49654 -10.149 -66.9)" stroke="#346435"><path d="m-63.137 168.62c5.3156 5.7543-4.7507 4.0845-12.634 10.198 8.3714-8.7085 4.2114-14.309 12.634-10.198z" fill="#468747" stroke-width=".39482"/><path d="m-63.124 168.65c-1.7103 0.46696-12.023 9.4963-12.293 9.8816" fill="none" stroke-width=".26322"/></g><g transform="matrix(-.65586 -.20837 -.20811 .65507 2.2392 -81.546)" stroke="#346435"><path d="m-63.137 168.62c5.3156 5.7543-4.7507 4.0845-12.634 10.198 8.3714-8.7085 4.2114-14.309 12.634-10.198z" fill="#468747" stroke-width=".28853"/><path d="m-63.124 168.65c-1.7103 0.46696-12.023 9.4963-12.293 9.8816" fill="none" stroke-width=".19236"/></g><g transform="rotate(-60.072 -115.53 -25.457)" stroke="#346435"><path d="m-152.7 139.17c8.0981 2.9693 0.44989 11.607-1.9795 16.871 3.5542-8.9529-4.5889-17.636 1.9795-16.871z" fill="#468747" stroke-width=".19844"/><path d="m-152.59 139.24c2.2945 4.7914 0.0225 12.17-1.7096 15.926" fill="none" stroke-width=".13229"/></g><g transform="matrix(-.9749 -.22262 -.22262 .9749 -70.844 -69.652)" stroke="#346435"><path d="m-109.55 126.47c11.134 2.195 10.275 19.183 9.5437 21.887-0.509-11.389-11.071-16.861-9.8936-21.41-0.37379-0.37379-0.65216-0.58852 0.34993-0.47718z" fill="#468747" stroke-width=".19844"/><path d="m-109.18 127.19c5.6012 3.7116 9.1778 13.677 9.2453 20.65" fill="none" stroke-width=".13229"/></g><g transform="matrix(.84877 -.13076 .13068 .84929 85.626 -67.88)" stroke="#346435"><path d="m-109.55 126.47c11.134 2.195 10.275 19.183 9.5437 21.887-0.509-11.389-11.071-16.861-9.8936-21.41-0.37379-0.37379-0.65216-0.58852 0.34993-0.47718z" fill="#468747" stroke-width=".231"/><path d="m-109.18 127.19c5.6012 3.7116 9.1778 13.677 9.2453 20.65" fill="none" stroke-width=".154"/></g><g transform="matrix(-.75737 -.65299 -.65299 .75737 -16.513 -143.42)" stroke="#346435"><path d="m-152.7 139.17c8.0981 2.9693 0.44989 11.607-1.9795 16.871 3.5542-8.9529-4.5889-17.636 1.9795-16.871z" fill="#468747" stroke-width=".19844"/><path d="m-152.59 139.24c2.2945 4.7914 0.0225 12.17-1.7096 15.926" fill="none" stroke-width=".13229"/></g><g transform="matrix(.54457 -.47016 .46952 .54532 26.909 -118.93)" stroke="#346435"><path d="m-152.7 139.17c8.0981 2.9693 0.44989 11.607-1.9795 16.871 3.5542-8.9529-4.5889-17.636 1.9795-16.871z" fill="#468747" stroke-width=".27579"/><path d="m-152.59 139.24c2.2945 4.7914 0.0225 12.17-1.7096 15.926" fill="none" stroke-width=".18386"/></g><g transform="matrix(-.46091 -.63033 -.62997 .46159 26.052 -123.86)" stroke="#346435"><path d="m-152.7 139.17c8.0981 2.9693 0.44989 11.607-1.9795 16.871 3.5542-8.9529-4.5889-17.636 1.9795-16.871z" fill="#468747" stroke-width=".25411"/><path d="m-152.59 139.24c2.2945 4.7914 0.0225 12.17-1.7096 15.926" fill="none" stroke-width=".1694"/></g><g transform="matrix(-.64152 -.21841 -.21919 .6438 -34.149 -80.516)" stroke="#346435"><path d="m-109.55 126.47c11.134 2.195 10.275 19.183 9.5437 21.887-0.509-11.389-11.071-16.861-9.8936-21.41-0.37379-0.37379-0.65216-0.58852 0.34993-0.47718z" fill="#468747" stroke-width=".2923"/><path d="m-109.18 127.19c5.6012 3.7116 9.1778 13.677 9.2453 20.65" fill="none" stroke-width=".19487"/></g><path d="m5.7262 4.072s0.28631 14.156 3.0222 14.379c-2.1632-0.89075-2.6404-14.252-3.0222-14.379z" fill="#89a155" stroke="#63753e" stroke-width=".19844"/><g transform="matrix(.48307 0 0 .47949 -33.345 -75.14)" stroke-width="2.0778"><path d="m80.247 161.48c2.8176-0.36046 6.9941 4.7598 0.91773 5.676s-3.7354-5.3155-0.91773-5.676z" fill="#c06218" stroke="#824210" stroke-width=".41231"/><g fill="#f6b0fb" stroke="#ef73f8"><g stroke-width=".41231"><path d="m77.575 165.62c-2.483 2.2046-5.5738 6.2118-7.4878 6.4346 0.65723-2.2653 5.6153-8.9098 7.4878-6.4346z"/><path d="m84.051 164.89c2.483 2.2046 5.9285 5.7236 7.9472 5.4552-0.65723-2.2653-6.0748-7.9304-7.9472-5.4552z"/><path d="m78.315 166.01c1.852 0.87102-2.6455 7.161-4.6781 7.5071-0.77159-2.1399 3.0317-9.6543 4.6781-7.5071z"/></g><path d="m79.646 166.76c1.9285-1.3247 1.6757 6.6444-0.25987 8.2152-2.0016-1.3194-1.7932-9.887 0.25987-8.2152z" stroke-width=".41231"/><path d="m83.576 165.36c-1.8358 0.91956 3.7486 7.1049 5.8934 7.4944 0.58736-2.2921-4.3986-9.7866-5.8934-7.4944z" stroke-width=".41231"/><path d="m82.571 166.43c1.0715-2.1949 3.4746 6.3707 2.0914 8.4575-2.1843-0.71072-4.695-9.7199-2.0914-8.4575z" stroke-width=".41231"/></g></g></g><metadata><rdf:RDF><cc:Work rdf:about=""><dc:creator><cc:Agent><dc:title>Erica Schroeder</dc:title></cc:Agent></dc:creator><dc:rights><cc:Agent><dc:title>© 2026 Erica Schroeder. All rights reserved.</dc:title></cc:Agent></dc:rights><dc:date>1/16/2026</dc:date></cc:Work></rdf:RDF></metadata></svg>
