<?xml version="1.0" encoding="UTF-8"?>
<!-- Created with Inkscape (http://www.inkscape.org/) -->
<svg width=".55893in" height=".51822in" version="1.1" viewBox="0 0 14.197 13.163" xml:space="preserve" xmlns="http://www.w3.org/2000/svg" xmlns:cc="http://creativecommons.org/ns#" xmlns:dc="http://purl.org/dc/elements/1.1/" xmlns:rdf="http://www.w3.org/1999/02/22-rdf-syntax-ns#"><g transform="translate(1.4413 10.679)" stroke-linecap="round"><g transform="matrix(.98984 .6656 -.66943 .99333 .0045025 -10.532)" stroke="#405831"><g stroke-width="2.085"><g transform="matrix(.11066 .38498 .38629 -.11104 -6.9193 1.0803)"><path transform="translate(1.1667e-6)" d="m12.496 43.508c-2.0837-0.42947-2.253-1.7278-2.253-1.7278s0.53055 0.13383 0.56237 0.02249c-0.47719-0.49309-0.4049-1.6196-0.4049-1.6196s0.35446 0.14815 0.44989 0.17996c-0.38175-0.71578-0.24744-2.182-0.24744-2.182s0.24198 0.13224 0.33742 0.17996c-0.14316-0.62034 0.20245-1.7321 0.20245-1.7321s0.28399 0.19614 0.35992 0.22495c-0.09544-0.39765 0.07283-1.0645 0.07283-1.0645s0.28038 0.28697 0.35992 0.38241c0.14316-0.5249 0.13372-0.91399 0.13372-0.91399s0.44444 0.1954 0.53987 0.44989c0.12725-0.20678 0.20245-0.29243 0.20245-0.29243 0.34994 0.34994 0.38241 0.94478 0.38241 0.94478l0.13497-0.31493c0.2704 0.60443 0.13497 1.4622 0.13497 1.4622l0.20245-0.17996c0.2704 0.58853 0.08998 1.8671 0.08998 1.8671l0.24744-0.15746c0.20678 0.509-0.31493 1.4622-0.31493 1.4622l0.3906-0.22495c0.09544 1.3361-1.5834 3.2339-1.5834 3.2339z" fill="#64884b" stroke-width=".41263"/><path d="m12.484 43.501c-1.6861-1.9724-0.2108-6.4388-0.2858-7.962" fill="none" stroke-width=".27582"/></g><g transform="matrix(.24276 -.31863 .31972 .24359 -5.6596 -5.5433)"><path d="m12.743 43.508c0.01722-0.07734 0.15233-1.0204 0.39534-1.7865 0.1275-0.40195 0.26542-0.48108 0.45812-0.29938 0.14946-0.28298 0.33868-0.71659 0.48226-0.6673 0.92418 0.287 2.855 2.6847 2.1739 3.1333-0.53923 0.08171-0.91123-0.07551-0.97396-0.07745 0.04819 0.22479-0.07679 0.34927-0.27388 0.3386-0.41561 0.03224-1.4073-0.18312-2.2618-0.64132z" fill="#64884b" stroke-width=".41373"/><path d="m12.786 43.453c1.5876-0.83654 1.4969-0.95409 2.9137-1.39" fill="none" stroke-width=".27582"/></g><g transform="matrix(-.29095 .27538 .27659 .29159 -2.7853 -13.762)"><path d="m-0.078741 51.043s0.65235 1.2372 0.38241 3.2055h-0.30368s-0.033743 0.67484-0.19121 0.88854l-0.28118-0.02249s-0.11247 0.76482-0.32617 0.89979l-0.29243-0.12372s-0.16871 0.8323-0.40491 1.0235l-0.24744-0.15746s-0.20245 0.66359-0.4274 0.78732l-0.15746-0.16871s-0.4859 0.63338-0.70858 0.50613c0.084199-0.63322-0.58807-0.52738-0.12369-1.342l-0.51738-0.08998c-0.089979-0.2362 0.22495-0.68609 0.22495-0.68609l-0.38241-0.12372c-0.044989-0.1912 0.46114-0.66359 0.46114-0.66359l-0.41615-0.13497c-0.011247-0.2362 0.55112-0.57362 0.55112-0.57362l-0.48364-0.06749c0.033742-0.33742 0.75357-0.75357 0.75357-0.75357l-0.25869-0.17996c0.77607-1.4509 3.1492-2.2234 3.1492-2.2234z" fill="#64884b" stroke-width=".41373"/><path d="m-0.11248 51.077c-0.43865 0.34867-3.0884 4.6947-2.9243 6.783" fill="none" stroke-width=".27582"/></g></g><path d="m10.093 5.0086c-1.11-1.658 1.2283-3.9119 1.2283-3.9119s-2.6059 1.8538-1.417 3.9224c0.19473-6e-3 0.07149-0.02446 0.18864-0.01048z" fill="#64884b" stroke-width=".16601"/></g><g transform="matrix(-1.3181 .25994 .22411 1.5431 5.1793 -1.0623)" stroke="#405831"><g stroke-width="1.723"><g transform="matrix(.11066 .38498 .38629 -.11104 -19.076 -1.7641)"><path transform="translate(1.1667e-6)" d="m12.496 43.508c-2.0837-0.42947-2.253-1.7278-2.253-1.7278s0.53055 0.13383 0.56237 0.02249c-0.47719-0.49309-0.4049-1.6196-0.4049-1.6196s0.35446 0.14815 0.44989 0.17996c-0.38175-0.71578-0.24744-2.182-0.24744-2.182s0.24198 0.13224 0.33742 0.17996c-0.14316-0.62034 0.20245-1.7321 0.20245-1.7321s0.28399 0.19614 0.35992 0.22495c-0.09544-0.39765 0.07283-1.0645 0.07283-1.0645s0.28038 0.28697 0.35992 0.38241c0.14316-0.5249 0.13372-0.91399 0.13372-0.91399s0.44444 0.1954 0.53987 0.44989c0.12725-0.20678 0.20245-0.29243 0.20245-0.29243 0.34994 0.34994 0.38241 0.94478 0.38241 0.94478l0.13497-0.31493c0.2704 0.60443 0.13497 1.4622 0.13497 1.4622l0.20245-0.17996c0.2704 0.58853 0.08998 1.8671 0.08998 1.8671l0.24744-0.15746c0.20678 0.509-0.31493 1.4622-0.31493 1.4622l0.3906-0.22495c0.09544 1.3361-1.5834 3.2339-1.5834 3.2339z" fill="#64884b" stroke-width=".34099"/><path d="m12.484 43.501c-1.6861-1.9724-0.2108-6.4388-0.2858-7.962" fill="none" stroke-width=".22793"/></g><g transform="matrix(.24276 -.31863 .31972 .24359 -17.816 -8.3876)"><path d="m12.743 43.508c0.01722-0.07734 0.15233-1.0204 0.39534-1.7865 0.1275-0.40195 0.26542-0.48108 0.45812-0.29938 0.14946-0.28298 0.33868-0.71659 0.48226-0.6673 0.92418 0.287 2.855 2.6847 2.1739 3.1333-0.53923 0.08171-0.91123-0.07551-0.97396-0.07745 0.04819 0.22479-0.07679 0.34927-0.27388 0.3386-0.41561 0.03224-1.4073-0.18312-2.2618-0.64132z" fill="#64884b" stroke-width=".3419"/><path d="m12.786 43.453c1.5876-0.83654 1.4969-0.95409 2.9137-1.39" fill="none" stroke-width=".22793"/></g><g transform="matrix(-.29095 .27538 .27659 .29159 -14.942 -16.607)"><path d="m-0.078741 51.043s0.65235 1.2372 0.38241 3.2055h-0.30368s-0.033743 0.67484-0.19121 0.88854l-0.28118-0.02249s-0.11247 0.76482-0.32617 0.89979l-0.29243-0.12372s-0.16871 0.8323-0.40491 1.0235l-0.24744-0.15746s-0.20245 0.66359-0.4274 0.78732l-0.15746-0.16871s-0.4859 0.63338-0.70858 0.50613c0.084199-0.63322-0.58807-0.52738-0.12369-1.342l-0.51738-0.08998c-0.089979-0.2362 0.22495-0.68609 0.22495-0.68609l-0.38241-0.12372c-0.044989-0.1912 0.46114-0.66359 0.46114-0.66359l-0.41615-0.13497c-0.011247-0.2362 0.55112-0.57362 0.55112-0.57362l-0.48364-0.06749c0.033742-0.33742 0.75357-0.75357 0.75357-0.75357l-0.25869-0.17996c0.77607-1.4509 3.1492-2.2234 3.1492-2.2234z" fill="#64884b" stroke-width=".3419"/><path d="m-0.11248 51.077c-0.43865 0.34867-3.0884 4.6947-2.9243 6.783" fill="none" stroke-width=".22793"/></g></g><path d="m-0.65736 1.5127c-0.42002-1.7403-0.17804-3.2605-0.17804-3.2605s-0.53122 1.2936-0.010593 3.271c0.19473-6e-3 0.07149-0.02446 0.18864-0.01048z" fill="#64884b" stroke-width=".13719"/></g><path d="m6.5215 1.056c0.14621 0.54831 0.59187 0.93653 0.73115 1.321-1.1085 0.011247-1.3876-5.546e-4 -1.3876-5.546e-4 0.16701-0.46526 0.56082-0.91556 0.65642-1.3205z" fill="#8fab44" stroke="#6b8033" stroke-width=".19844"/></g><g transform="translate(2.2048 -.042125)" stroke-linecap="round"><g transform="matrix(-1 0 0 1 9.4856 -.34288)"><path d="m1.2441 4.9484c1.8396 1.2741 2.1204 6.7868 2.0011 8.2104 0.61344-0.59456 0.073987-7.5725-2.0011-8.2104z" fill="#8fab44" stroke="#6b8033" stroke-width=".19844"/><g stroke="#46722c" stroke-width="3.0521"><g transform="matrix(.31786 .074103 -.074544 .32035 -5.1857 -26.672)"><path transform="translate(-33.148 13.87)" d="m75.536 75.632c-2.3859 0.12725-4.1674-7.126-4.1038-7.4123h0.44537s-0.92256-0.92256-0.92256-1.2725l0.60444 0.06363s-0.95437-0.66806-0.98618-0.98618h0.57262s-0.95437-0.47719-1.0816-1.0498l0.73168 0.12725s-0.79531-0.47718-0.89075-0.98618h0.38175s-0.2545-0.44537-0.15906-0.82712l0.57262 0.12725 0.2545-0.31812 0.57262-0.2545 0.34994 0.34994 0.47718-0.73168 0.38175 0.63625 0.38175-1.2725c0.66806 0.34994 1.3679 1.6224 1.3679 1.6224l0.28631-0.41356c0.73168 0.2545 0.98618 1.7179 0.98618 1.7179l0.509-0.34994c0.69987 1.0498 0.73168 2.545 0.73168 2.545l0.7635-0.66806s1.7179 8.9393-2.2269 9.3528z" fill="#68a73f" stroke-width=".60565"/><path transform="translate(-33.148 13.87)" d="m71.886 63.201s4.0717 9.8423 3.6582 12.419" fill="none" stroke-width=".40377"/></g><g transform="matrix(.31786 .074103 -.074544 .32035 -5.0648 -26.743)"><path d="m42.144 89.712c-0.44989-4.7689-3.5992-7.6257-3.5992-7.6257l-0.15746 0.4274s-0.4049-0.89979-1.0348-1.4622l-0.31493 0.53987s-0.78732-0.94478-1.3047-0.96727l-0.02249 0.69734s-1.2372-0.78732-1.6196-0.67484l0.11247 0.8773s-1.3722-0.87729-2.0245-0.65235l0.20245 0.53987s-1.1735-0.44939-1.6234-0.33692l0.29624 1.1017-0.38241-0.11247c-1.3245-0.33533-1.4042-0.6353-0.88439 0.368-1.9064-0.13829-1.42 1.5071-1.42 1.5071 0.04499 0.31493 0.45982 0.80174 0.45982 0.80174l-0.34017 0.42205c0.49488 0.31493 1.8714 0.47791 1.8714 0.47791l-0.27152 0.47222c0.3632 0.27455 1.6646 0.08998 1.6646 0.08998l-0.4049 0.35992c0.16066 0.62207 2.0695 0.62985 2.0695 0.62985l-0.24744 0.22495c0.33742 0.4049 1.7996 0.74232 1.7996 0.74232l-0.17996 0.26994c0.33742 0.26994 1.5521 0.4049 1.5521 0.4049l-0.15746 0.33742c0.22495 0.22495 1.6196 0.22495 1.6196 0.22495l-0.06748 0.29243c2.8568 0.76482 4.409 0.02249 4.409 0.02249z" fill="#68a73f" stroke-width=".60565"/><path d="m28.501 83.232c4.5277 1.0228 11.393 5.7145 13.552 6.4568" fill="none" stroke-width=".40377"/></g><g transform="matrix(.31786 .074103 -.074544 .32035 -5.1993 -26.989)"><path d="m42.547 90.456s-1.7179-1.6542-2.3541 0l0.63625 0.2545s-0.60444 0.2545-0.69987 0.79531l0.63625 0.19087s-0.28631 0.79531-0.03181 1.1452l0.54081-0.09544s-0.31813 0.63625-0.09544 1.0498l0.54081-0.12725s-0.34994 0.63624-0.09544 0.89074h0.31812s-0.12724 0.38175 0.14316 0.63625l0.33403 0.04771s-0.19087 0.49309 0.11134 0.81122c0 0 0.20678-0.03181 0.65215 0.12725 0 0-0.34994 0.31812-0.12725 1.1134l0.41356-0.22269s-1e-6 0.60443 0.34994 0.79531l0.54081-0.28631s0.15906 0.85893 0.54081 0.98618c0.54081-0.19087 0.44537-1.0816 0.44537-1.0816l0.89074 0.44537c0.47718-0.31812 0.41356-1.527 0.41356-1.527l0.60443 0.09544c0.38175-0.38175 0.22269-1.5588 0.22269-1.5588l0.85893-0.2545c0.03181-0.92256-0.73168-1.7179-0.73168-1.7179l0.7635-0.41356c-0.09544-0.89075-1.1771-0.85893-1.1771-0.85893l0.73168-0.47718c0.031812-0.57262-0.92256-0.57262-0.92256-0.57262l0.54081-0.38175c0.22269-0.63625-0.73168-0.60444-0.73168-0.60444l0.60444-0.98618c-0.15906-0.509-1.0816 0-1.0816 0l0.28631-0.63625c-1.8451-0.66806-4.072 2.4177-4.072 2.4177z" fill="#68a73f" stroke-width=".60565"/><path transform="translate(1.3125e-6)" d="m42.52 90.449c0.46128 0.58853 2.3487 5.161 2.3805 8.0559" fill="none" stroke-width=".40377"/></g></g></g><g transform="translate(-2.2905 .28631)"><path d="m4.9346 6.6836c1.9035 0.18595 3.0224 5.2576 2.6625 6.0449 0.75172-0.66598-0.42443-6.2158-2.6625-6.0449z" fill="#8fab44" stroke="#6b8033" stroke-width=".19844"/><g stroke="#46722c" stroke-width="4.3572"><g transform="matrix(-.22889 0 0 .23013 -8.5404 -7.6629)"><path d="m-58.677 62.741c2.2523-1.1678 0.04704-5.91 6.1816-8.1573 3.81-1.3958 11.455 0.03654 12.856 1.4173-0.97732 0.42903-1.5446 0.94527-1.5446 0.94527l0.99807 0.75592c-1.1247 0.31493-2.4208 0.45265-2.4208 0.45265l0.80118 0.44714c-1.2147 0.35992-2.8793 0.62985-2.8793 0.62985l1.4397 0.8548c-1.0797 0.31493-3.0143 0.17996-3.0143 0.17996l0.71983 0.62985c-1.6196 1.3497-13.137 1.8446-13.137 1.8446z" fill="#68a73f" stroke-width=".86462"/><path d="m-58.453 62.628c1.3648-1.1013 7.0336-8.1472 18.357-6.7603" fill="none" stroke-width=".57642"/></g><g transform="matrix(-.22889 0 0 .23013 -8.6539 -7.6629)"><path d="m-59.352 62.403c2.2495-6.1186-4.7239-14.599-4.7239-14.599l-0.29243 0.49488s-0.60736-1.2597-1.2822-1.4847l-0.04499 0.31493c0.0076 0.0075-1.0558-0.97029-2.0245-1.1247l-0.04499 0.76482s-1.3272-1.6196-2.7444-1.8896l1e-6 0.4049s-0.78731-0.56237-1.3947-0.49488l1e-6 0.35992s-0.94478-0.4499-1.5296-0.17996l0.22495 0.35992s-0.60736-0.26994-0.80981-0.22495l0.31493 0.53987-0.71983 0.17996c0 0.47239 1.1697 1.0797 1.1697 1.0797l-0.53987 0.17996c0.29243 0.53987 1.1697 0.89979 1.1697 0.89979l-0.8548-0.04499c0.35992 1.0123 1.6196 1.4847 1.6196 1.4847l-0.76482 0.35992c7.2433 6.8834 7.3783 4.6789 13.272 12.62z" fill="#68a73f" stroke-width=".86462"/><path d="m-59.397 62.223c-3.9366-7.5132-11.978-14.745-14.993-16.342" fill="none" stroke-width=".57642"/></g><g transform="matrix(-.22889 0 0 .23013 -8.6539 -7.6629)"><path d="m-59.105 63.101c3.8916-1.6196 7.0408 3.9141 7.0408 3.9141l-0.65235 0.02249s0.58486 0.94478 0.29243 2.0695l-1.2822-1.1472s0.24744 1.6646-0.06749 2.9243l-0.94478-0.53987s0.4274 2.092 0.13497 2.8343l-0.67484-0.76482s0.26993 2.1595-0.29243 3.3742l-0.87729-0.96728s0.15746 2.2495-0.51738 3.1943l-0.8548-1.0348s-0.38241 1.5521-1.2597 2.2495c0 0-0.69734-0.24744-0.76482-0.47239-0.13497 0.29243-0.78731 0.4049-0.78731 0.4049-0.65235-0.26994-0.74233-1.2147-0.96728-1.6196-0.20245 0.20245-1.0797 0.02249-1.0797 0.02249-0.56237-0.33742-0.31492-1.8896-0.31492-1.8896l-1.0123-0.08998c-0.31493-1.3047 0.11247-2.2045 0.11247-2.2045l-0.76482 0.31492c-0.4049-1.5971-0.24744-2.9693-0.24744-2.9693s1.3947-8.638 5.7811-7.6257z" fill="#68a73f" stroke-width=".86462"/><path d="m-59.099 63.095c-1.5008 1.6251-1.1297 14.717-0.74795 15.639" fill="none" stroke-width=".57642"/></g></g></g><path d="m0.88411 3.5125c0.95426 0.093224 1.2959 0.28288 1.5178 0.37664 0.10528 0.044476 2.5166 1.1742 3.598 8.1553 0.055638-3.6204-1.5423-6.8865-3.1803-8.2355 0.14532-0.18358 0.39125-0.13409 1.3225-1.5978-1.0312 1.1523-1.1937 1.1292-1.4135 1.3428-0.14823-0.5101-0.44125-1.5947-0.59627-1.5953 0.26922 1.4216 0.22639 1.2201 0.34578 1.6457-0.33613-0.035556-1.3367-0.33822-1.594-0.091912z" fill="#8fab44" stroke="#6b8033" stroke-width=".19844"/><g transform="matrix(.66314 0 0 .65942 -32 -25.247)"><path d="m50.847 40.538c-0.86595-0.73883 0.85552-1.8881 0.99115-0.37968 1.0955-1.2724 1.5128 0.19497 0.30256 0.65674 2.0449 0.08209 0.0313 1.3443-0.54252 0.64648 0.19823 0.59517-2.264 0.06157-0.62599-0.09235-2.2014-0.22576-1.1372-1.9702-0.1252-0.83119z" fill="#edecfe" stroke="#acacac" stroke-width=".30008"/><path d="m51.117 41.246c-0.0541-0.13456-0.37231 0.12348-0.3968-0.01922-0.0245-0.1427 0.36218-0.0019 0.36835-0.14654 0.0062-0.14459-0.39114-0.03628-0.35456-0.17645 0.03657-0.14017 0.33167 0.14326 0.39704 0.01364 0.06538-0.12962-0.34233-0.18977-0.25101-0.30318 0.09132-0.11341 0.24381 0.26369 0.35708 0.17145 0.11327-0.09224-0.23434-0.31045-0.10406-0.37748 0.13028-0.06703 0.11379 0.33852 0.25538 0.29962 0.14158-0.0389-0.08582-0.37745 0.06089-0.38652 0.14671-0.0091-0.03589 0.35482 0.10952 0.37598 0.14542 0.02116 0.07753-0.37918 0.2153-0.32872 0.13777 0.05046-0.17938 0.30978-0.05528 0.38734 0.1241 0.07756 0.22748-0.31535 0.33249-0.21408 0.10501 0.10127-0.29185 0.21116-0.21052 0.33171 0.08133 0.12055 0.3381-0.197 0.39219-0.06243 0.0541 0.13456-0.34808 0.07519-0.32936 0.21874 0.03187 0.24428-0.72335 0.43416-0.78668 0.21615z" fill="#f6e286" stroke="#e4bd5f" stroke-width=".20006"/></g><g transform="matrix(-.21823 .093717 -.094078 -.21775 18.518 9.6409)"><path d="m56.739 52.603c1.5296-4.8139-5.3312-2.047-1.1472 0.96727-5.0613-2.6544-1.6871 4.2065 0.17996 1.1697-3.4192 3.5317 3.9366 5.3987 1.2822 0.22495 2.1145 4.7689 6.8159-0.80981 1.1922-1.4847 4.6564-0.69734-0.4499-6.9284-1.5071-0.87729z" fill="#edecfe" stroke="#acacac" stroke-width=".83605"/><path transform="matrix(.68617 0 0 .68617 123.44 28)" d="m-95.479 39.481c-0.30039 0.30898-0.64791-0.78644-1.018-0.56574-0.37012 0.2207 0.42837 1.0472 0.01374 1.1646-0.41463 0.11738-0.16789-1.005-0.59877-0.99897-0.43089 0.0061-0.15263 1.1211-0.5704 1.0154-0.41778-0.10566 0.35712-0.95433-0.01907-1.1645s-0.69273 0.89458-1.0017 0.59419c-0.30898-0.30039 0.78644-0.64791 0.56574-1.018-0.2207-0.37012-1.0472 0.42837-1.1646 0.01373-0.11738-0.41463 1.005-0.16789 0.99897-0.59877-0.0061-0.43089-1.1211-0.15263-1.0154-0.5704 0.10566-0.41778 0.95433 0.35712 1.1645-0.01907s-0.89458-0.69273-0.59419-1.0017c0.30039-0.30897 0.64791 0.78644 1.018 0.56574 0.37012-0.2207-0.42837-1.0472-0.01373-1.1646 0.41463-0.11738 0.16789 1.005 0.59877 0.99897 0.43089-0.0061 0.15263-1.1211 0.5704-1.0154 0.41778 0.10566-0.35712 0.95433 0.01907 1.1645 0.37619 0.21019 0.69273-0.89458 1.0017-0.59419 0.30897 0.30039-0.78644 0.64791-0.56574 1.018s1.0472-0.42837 1.1646-0.01374c0.11738 0.41463-1.005 0.16789-0.99897 0.59877 0.0061 0.43089 1.1211 0.15263 1.0154 0.5704-0.10566 0.41778-0.95433-0.35712-1.1645 0.01907-0.21019 0.37619 0.89458 0.69273 0.59419 1.0017z" fill="#f6e286" stroke="#e4bd5f" stroke-width=".81229"/></g><g transform="matrix(.2258 .023343 .023529 -.22527 -10.293 13.302)"><path d="m56.739 52.603c1.5296-4.8139-5.3312-2.047-1.1472 0.96727-5.0613-2.6544-1.6871 4.2065 0.17996 1.1697-3.4192 3.5317 3.9366 5.3987 1.2822 0.22495 2.1145 4.7689 6.8159-0.80981 1.1922-1.4847 4.6564-0.69734-0.4499-6.9284-1.5071-0.87729z" fill="#edecfe" stroke="#acacac" stroke-width=".87514"/><path transform="matrix(.68617 0 0 .68617 123.44 28)" d="m-95.479 39.481c-0.30039 0.30898-0.64791-0.78644-1.018-0.56574-0.37012 0.2207 0.42837 1.0472 0.01374 1.1646-0.41463 0.11738-0.16789-1.005-0.59877-0.99897-0.43089 0.0061-0.15263 1.1211-0.5704 1.0154-0.41778-0.10566 0.35712-0.95433-0.01907-1.1645s-0.69273 0.89458-1.0017 0.59419c-0.30898-0.30039 0.78644-0.64791 0.56574-1.018-0.2207-0.37012-1.0472 0.42837-1.1646 0.01373-0.11738-0.41463 1.005-0.16789 0.99897-0.59877-0.0061-0.43089-1.1211-0.15263-1.0154-0.5704 0.10566-0.41778 0.95433 0.35712 1.1645-0.01907s-0.89458-0.69273-0.59419-1.0017c0.30039-0.30897 0.64791 0.78644 1.018 0.56574 0.37012-0.2207-0.42837-1.0472-0.01373-1.1646 0.41463-0.11738 0.16789 1.005 0.59877 0.99897 0.43089-0.0061 0.15263-1.1211 0.5704-1.0154 0.41778 0.10566-0.35712 0.95433 0.01907 1.1645 0.37619 0.21019 0.69273-0.89458 1.0017-0.59419 0.30897 0.30039-0.78644 0.64791-0.56574 1.018s1.0472-0.42837 1.1646-0.01374c0.11738 0.41463-1.005 0.16789-0.99897 0.59877 0.0061 0.43089 1.1211 0.15263 1.0154 0.5704-0.10566 0.41778-0.95433-0.35712-1.1645 0.01907-0.21019 0.37619 0.89458 0.69273 0.59419 1.0017z" fill="#f6e286" stroke="#e4bd5f" stroke-width=".85027"/></g><path d="m5.868 12.68c-0.15154-0.88707-0.28716-0.99181-0.47659-1.106-1.1416-0.68828-3.3009 1.7125-5.5501 1.5006l0.046441-0.14375c2.6933-0.1341 3.9309-2.1576 5.4952-1.6214 0.1576 0.05402 0.58855 0.47299 0.48505 1.3706z" fill="#8fab44" stroke="#6b8033" stroke-width=".19844"/><g stroke="#405831" stroke-width="3.6517"><g transform="matrix(-.22465 .15511 .15523 .22664 -4.4126 1.265)"><path transform="translate(1.1667e-6)" d="m12.496 43.508c-2.0837-0.42947-3.1043-3.3067-3.1043-3.3067s0.53055 0.13383 0.56237 0.02249c-0.47719-0.49309-0.40491-1.6196-0.40491-1.6196s0.35446 0.14815 0.44989 0.17996c-0.38175-0.71578-0.24744-2.182-0.24744-2.182s0.24198 0.13224 0.33742 0.17996c-0.14316-0.62034 0.20245-1.7321 0.20245-1.7321s0.28399 0.19614 0.35992 0.22495c-0.09544-0.39765 0.29243-1.2147 0.29243-1.2147s0.28038 0.28697 0.35992 0.38241c0.14316-0.5249 0.65235-0.98977 0.65235-0.98977s0.44444 0.1954 0.53987 0.44989c0.12725-0.20678 0.20245-0.29243 0.20245-0.29243 0.34994 0.34994 0.38241 0.94478 0.38241 0.94478l0.13497-0.31493c0.2704 0.60443 0.13497 1.4622 0.13497 1.4622l0.20245-0.17996c0.2704 0.58853 0.08998 1.8671 0.08998 1.8671l0.24744-0.15746c0.20678 0.509-0.31493 1.4622-0.31493 1.4622l0.3906-0.22495c0.09544 1.3361-1.4703 5.0388-1.4703 5.0388z" fill="#64884b" stroke-width=".7227"/><path d="m12.484 43.501c-1.6861-1.9724-0.66759-8.6809-0.509-10.053" fill="none" stroke-width=".48309"/></g><g transform="matrix(.12299 -.24372 .2457 .12284 -12.547 10.825)"><path d="m12.743 43.508s0.71983-2.2607 1.7433-3.7791c0.10123 0.16871 0.2362 0.38241 0.2362 0.38241s0.43865-0.97852 1.0797-1.2822l0.16871 0.25869s0.6186-0.65235 1.2597-0.79856l0.2362 0.47239s0.88854-0.57362 1.3722-0.46114l0.06749 0.48364s0.75357-0.47239 1.8221-0.26994l-0.13497 0.38241s1.001 0.02249 1.4284 0.6186c-0.10123 0.59611-0.84355 1.0348-0.84355 1.0348l0.30368 0.11247c-0.35992 0.50613-1.5409 0.73108-1.5409 0.73108l0.33742 0.22495c-0.16871 0.34867-1.1472 0.47239-1.1472 0.47239l0.2362 0.07873c-0.20245 0.35992-1.181 0.46114-1.181 0.46114l0.17996 0.15746c-0.29243 0.41615-1.4509 0.32617-1.4509 0.32617l0.28118 0.16871c-1.4397 1.1135-4.454 0.22495-4.454 0.22495z" fill="#64884b" stroke-width=".72463"/><path d="m12.786 43.453c3.1017-2.3859 6.3943-3.4039 9.2256-3.9288" fill="none" stroke-width=".48309"/></g><g transform="matrix(.083193 .26023 .26099 -.085029 -13.618 17.319)"><path d="m0.30127 50.685s0.65235 1.2372 0.38241 3.2055h-0.30368s-0.033743 0.67484-0.19121 0.88854l-0.28118-0.02249s-0.11247 0.76482-0.32617 0.89979l-0.29243-0.12372s-0.16871 0.8323-0.40491 1.0235l-0.24744-0.15746s-0.20245 0.66359-0.4274 0.78732l-0.15746-0.16871s-0.4859 0.63338-0.70858 0.50613c-0.23854-0.14194-0.41315-0.43127-0.22495-0.79856l-0.41615-0.06748c-0.17996-0.24744 0.2362-0.73108 0.2362-0.73108l-0.51738-0.08998c-0.089979-0.2362 0.22495-0.68609 0.22495-0.68609l-0.38241-0.12372c-0.044989-0.1912 0.46114-0.66359 0.46114-0.66359l-0.41615-0.13497c-0.011247-0.2362 0.55112-0.57362 0.55112-0.57362l-0.48364-0.06749c0.033742-0.33742 0.75357-0.75357 0.75357-0.75357l-0.25869-0.17996c0.77607-1.4509 3.4304-1.9683 3.4304-1.9683z" fill="#64884b" stroke-width=".72463"/><path d="m-0.11248 51.077c-0.43865 0.34867-3.0884 4.6947-2.9243 6.783" fill="none" stroke-width=".48309"/></g></g></g><metadata><rdf:RDF><cc:Work rdf:about=""><dc:creator><cc:Agent><dc:title>Erica Schroeder</dc:title></cc:Agent></dc:creator><dc:rights><cc:Agent><dc:title>© 2026 Erica Schroeder. All rights reserved.</dc:title></cc:Agent></dc:rights><dc:date>1/16/2026</dc:date></cc:Work></rdf:RDF></metadata></svg>
