<?xml version="1.0" encoding="UTF-8"?>
<!-- Created with Inkscape (http://www.inkscape.org/) -->
<svg width=".60011in" height=".60099in" version="1.1" viewBox="0 0 15.243 15.265" xml:space="preserve" xmlns="http://www.w3.org/2000/svg" xmlns:cc="http://creativecommons.org/ns#" xmlns:dc="http://purl.org/dc/elements/1.1/" xmlns:rdf="http://www.w3.org/1999/02/22-rdf-syntax-ns#"><g transform="translate(4.4476 2.523)"><g transform="matrix(-.37851 .1941 -.1941 -.37851 -9.647 45.402)"><g fill="#44803d" stroke-width=".46649"><path d="m-68.692 58.664c-0.18605-1.0299 0.67489-2.3967 0.37588-2.4432-0.16612-0.01993-0.71417 0.48864-0.71417 0.48864 0.20598-0.26579 0.28058-0.90133 0.15492-1.3065-0.63274-0.05068-0.7939 1.0433-1.057 1.1561 0 0 0.15947-1.727-0.15035-2.2553-0.3364 0.07726-0.43985 0.74075-0.52623 0.71417 0 0-0.0061-0.96399-0.33829-0.97728l-0.18794 0.22553s-0.23198-0.28969-0.33829-0.26312c-0.24585 0.31894 0.15035 1.0525 0.15035 1.0525s-0.38461-0.35386-0.45105-0.3007c-0.37588 0.63899 0.6984 1.413 0.75176 1.6539-0.16136 0.11921-0.97728-0.71417-1.09-0.48864-0.15036 0.18794 0.56382 1.1276 0.56382 1.1276s-0.47346 0.09016-0.3007 0.37588c0.56382 0.07518 1.5787 1.8418 3.1574 1.2404z"/><path d="m-72.786 59.942c-1.4087-1.3289-0.95683-3.814-1.7409-3.9071-0.2525-0.19934-0.51828 0.57144-0.51828 0.57144s-0.29236-0.90367-0.78407-0.98341c-0.22592 0.06645-0.1196 0.91696-0.1196 0.91696s-0.90367-1.1429-1.4352-1.2093c-0.39868 0.05316-0.15947 0.75749-0.15947 0.75749s-0.7442-0.90367-0.97012-0.95683c-0.34552 0.34552 0.39868 1.3555 0.39868 1.3555-0.73518-0.20818-1.2819 0.33913 0.73091 0.8638 0 0-0.90367-0.1329-0.95683-0.05316-0.13289 0.27908 0.65118 0.61131 0.65118 0.61131 0.06645 0.14618-0.35881 0.2525-0.17276 0.41197 1.0499-0.27908 1.6612 1.5548 4.0267 1.9402z"/><path d="m-76.414 61.192c-3.0565-1.4352-3.4951-3.2027-3.6413-3.2293-0.1196 0.02658-0.14618 0.77078-0.14618 0.77078s-0.38539-0.95683-0.79736-1.1163l-0.1196 0.3721s-0.33223-0.14619-0.45184-0.07974c-0.1196 0.10631 0.02658 0.95683 0.02658 0.95683s-0.94354-0.51828-1.103-0.21263c-0.10631 0.06645-0.06645 0.38539-0.06645 0.38539s-0.66446 0.02658-0.71762 0.18606c-0.01329 0.14618 0.70433 0.66446 0.70433 0.66446s-0.61131 0.03987-0.61131 0.21263c0.06645 0.19934 0.73091 0.35881 0.73091 0.35881s-0.21262 0.38539-0.09302 0.53157c0.22592 0.14618 0.21263-0.77078 4.8107 0.93025 0 0 1.4485-0.59802 1.4751-0.73091z"/><path d="m-68.68 58.879c0.56243 0.05348 0.97126 0.45448 1.1781 0.57769 0.53872 0.32087 1.0338 0.5012 1.0412 0.60506-0.07974 0.1196-0.30565 0.13289-0.30565 0.13289s0.4917 0.42526 0.39868 0.59802c-0.39202-0.05094-0.95506 0.22208-1.6744-0.39867 0.43855 0.33223 1.4884 1.3156 1.4087 1.4352-0.1196 0.10631-0.55815-0.05316-0.55815-0.05316s-0.03987 0.7442-0.23921 0.75749c-0.19934 0.01329-0.69104-0.61131-0.69104-0.61131s-0.03987 0.35881-0.14618 0.34552c-0.21263 0-0.63789-0.9967-0.63789-0.9967s-0.06645 0.55815-0.17276 0.55815c-0.16205-0.01031-0.1073-0.26114-0.17798-0.3053-0.02653-0.04146-0.26057 0.15911-0.38018 0.06609-0.13289-0.06645 0.03988-0.54486 0.03988-0.54486s-0.38539 0.18604-0.53157 0.09302c-0.10631-0.22592 1.4087-1.7808 1.01-2.1263z"/><path d="m-72.095 60.062c0.41442-0.08041 0.37834 0.89315 0.59442 1.2773 0.38232 0.67974 0.81424 0.99514 0.94713 1.3407-0.07974 0.19934-0.95683-0.09302-0.95683-0.09302s0.66446 0.66446 0.66446 0.91696c-0.1196 0.10631-0.51828-0.14618-0.51828-0.14618s0.07973 0.58473-0.03987 0.69104c-0.82394-0.21263-1.2226-1.5283-1.2226-1.5283-0.18605 0.02658 0.3721 2.1927-0.57144 2.5781-0.38539-0.10631-0.45184-0.79736-0.45184-0.79736s-0.2525 0.71762-0.59802 0.83723c-0.09303-0.01329-0.1196-0.2525-0.1196-0.2525s-0.38539 0.39868-0.58473 0.3721c-0.10631-0.23921 0.33223-0.9967 0.33223-0.9967s-0.50499 0.25249-0.4917 0.09302c-0.1196-0.30565 0.82394-1.1827 0.82394-1.1827s-0.91696 0.15946-1.01 0.01328c-0.02658-0.15947 0.54486-0.6246 0.54486-0.6246s-0.43854-0.10632-0.42526-0.26579c0.01329-0.18605 1.0546-0.17031 1.3555-0.78407 0.34948-0.71275 1.2093-1.0233 1.1562-1.2492z"/><path d="m-75.457 61.192c-0.47842 0.82394-1e-6 3.1629-0.10632 3.3622-0.09302 0.07974-0.57144-0.29236-0.57144-0.29236s0.23921 0.83723 0.18605 1.0764c-0.10631 0.07974-0.41197-0.17276-0.41197-0.17276s-0.14618 0.70433-0.34552 0.7442c-0.47842-0.05316-0.4917-1.3555-0.4917-1.3555-0.13289 0-0.06645 1.6479-1.0499 2.1396-0.18605-0.07974-0.15947-0.55815-0.15947-0.55815s-0.54486 0.46513-0.67775 0.41197c-0.21263-0.07974 0-0.50499 0-0.50499s-0.33223 0.1196-0.41197-0.02658c-0.13289-0.27908 0.75749-0.95683 0.75749-0.95683s-0.87709 0.2525-0.97012 0.06645c-0.19934-0.22592 0.45184-0.6246 0.45184-0.6246l-0.41197-0.15947c-0.03987-0.15947 1.0978-0.46851 2.0598-1.7276 0.20822-0.27252 1.4485-1.196 1.4485-1.196z"/><path d="m-76.441 61.231c-3.6014-1.8738-3.2293-3.3356-3.5217-3.309-0.22592-0.03986-0.27907 0.66446-0.27907 0.66446s-0.4917-0.90367-0.73091-0.87709c-0.09302-0.01329-0.13289 0.31894-0.13289 0.31894s-0.35881-0.17276-0.45184-0.17276c-0.19934 0.14618 0.06645 0.94354 0.06645 0.94354s-1.0233-0.43855-1.1827-0.23921c-0.13289 0.1196 0.05316 0.59802 0.05316 0.59802s-0.4917-0.21263-0.61131 0c-0.22592 0.34552 0.54486 0.7442 0.54486 0.7442s-0.65117-0.01329-0.70433 0.14618c0.0073 0.40229 3.478 1.3988 4.7177 1.8073-0.30544 0.23584-1.7602-0.12575-2.7032-0.4893-1.3489-0.52004-1.9679-1.0779-2.2404-1.1719-0.11276 0.03759-0.13289 0.30565-0.13289 0.30565s-0.72674-0.20968-0.87709-0.10631c-0.07518 0.07518 0.02658 0.46512 0.02658 0.46512s-0.50955-0.10176-0.58473-0.02658c-0.08457 0.08457 0.03987 0.31894 0.03987 0.31894s-0.22431-0.03692-0.2525 0.06645c-0.02819 0.14095 0.26578 0.45184 0.26578 0.45184s-0.24149 0.0068-0.27908 0.1196c0 0.3007 2.4054 0.94354 2.4054 0.94354 0.01879 0.26312-2.4117-0.17037-2.8439 0.2525 0 0-0.51667 0.42431-0.54486 0.51828 0.01879 0.13156 0.7442 0.22592 0.7442 0.22592s-0.90756 0.76728-0.85118 0.94582c0.06578 0.17854 0.53224 0.03759 0.53224 0.03759s-0.2282 0.447-0.2282 0.55037c0.21613 0.07518 1.5672-0.7834 1.6236-0.73642 0 0-1.1081 0.94944-0.8638 1.1562 0.17854 0.04699 0.79736-0.21263 0.79736-0.21263s-0.09169 0.31344 0.03987 0.33223c0.12216 0.07518 1.4782-1.0421 4.1861-2.6844 0.02819 0.3195-2.6468 2.2079-2.6844 2.9502 0.06578 0.08457 0.38539 0.02658 0.38539 0.02658s-0.16431 0.59546-0.07974 0.71762c0.10337 0.02819 0.41197-0.1196 0.41197-0.1196s-0.03141 0.38606 0.05316 0.45184c0.48864-0.07518 1.0233-1.0764 1.0233-1.0764s0.01463 0.80581 0.14618 0.89038c0.45105-0.11276 0.75749-1.1163 0.75749-1.1163s-0.04793 0.46513 0.09302 0.46513c0.53563 0.07518 0.21938-1.1129 2.1927-3.9602l1.4884-0.65118s-2.5554 2.387-2.5648 2.6313l0.2525 0.03987s-0.71467 0.35692-0.67775 0.58473c0.09331 0.256 0.8638 0.02658 0.8638 0.02658s-0.93214 0.85158-0.7442 1.1429c0.07518 0.02819 0.27908-0.06645 0.27908-0.06645s-0.02524 0.4321 0.10632 0.54486c0.15975 0.10337 0.67775-0.39868 0.67775-0.39868s0.04832 0.48231 0.13289 0.4917c1.137-0.56382 0.64095-1.2757 1.1296-2.206 0 0 0.12617 1.3381 0.39868 1.4884 0.21613-0.0094 0.43855-0.70433 0.43855-0.70433s0.25088 0.12444 0.27908 0.03987c0.15975-0.02819-0.01328-0.89038-0.01328-0.89038s0.31411 0.24015 0.39868 0.14618c0.29131-0.15035-0.23064-1.2841 0.23921-3.2293z"/></g><path transform="matrix(-1.4966 -1.1782 1.1782 -1.4966 -69.077 84.784)" d="m11.464 5.657c-0.037588 0.33829-3.7964 6.1456-3.7964 6.1456l0.056382 0.07517s3.646-5.4502 3.74-6.2208z" fill="#7a4e48" stroke="#44803d" stroke-width=".24438"/></g><g fill="#44803d" stroke-width=".19844"><path d="m2.4769 7.7613c0.66119-0.9326 1.3708-1.2375 1.3859-1.2775-0.00672-0.027419-0.29884 0.047358-0.29884 0.047358s0.38881-0.20259 0.46455-0.32456l-0.14273 0.010424s0.068002-0.10029 0.045607-0.12336c-0.038091-0.018693-0.37752 0.11157-0.37752 0.11157s0.23372-0.29613 0.11841-0.3031c-0.022815-0.019689-0.14963 0.025363-0.14963 0.025363s0.010442-0.16565-0.05067-0.16166c-0.057135 0.012646-0.28375 0.25147-0.28375 0.25147s0.00355-0.15071-0.064474-0.13178c-0.080567 0.038695-0.16425 0.22472-0.16425 0.22472s-0.14503-0.011718-0.20634 0.034639c-0.064652 0.073325 0.29675-0.030503-0.51758 1.3223 0 0 0.18985 0.30194 0.24133 0.29412z"/><path d="m2.4468 8.004c-0.30932-0.031095-1.2451 0.3465-1.3203 0.34137-0.028461-0.014858 0.13308-0.17699 0.13308-0.17699s-0.33713 0.1524-0.42962 0.16512c-0.028046-0.018239 0.080973-0.12343 0.080973-0.12343s-0.27268 0.040081-0.28211-0.00612c0.03598-0.12718 0.54912-0.27319 0.54912-0.27319 0.0041853-0.033712-0.64664 0.16367-0.80928-0.031925 0.037246-0.055931 0.22474-0.10161 0.22474-0.10161s-0.16597-0.08726-0.14086-0.12679c0.038081-0.062674 0.19881-0.055322 0.19881-0.055322s-0.036666-0.071159 0.023423-0.10742c0.11405-0.064287 0.35285 0.087331 0.35285 0.087331s-0.071804-0.19484 0.00436-0.23881c0.095211-0.075316 0.23167 0.046193 0.23167 0.046193l0.075743-0.12198c0.064033-0.027592 0.1499 0.22717 0.61531 0.33326 0.10073 0.022965 0.42528 0.23643 0.42528 0.23643z"/><path d="m2.4621 7.7589c0.85098-1.1189 1.4148-1.1846 1.4135-1.2559 0.022797-0.061676-0.25281 2e-3 -0.25281 2e-3s0.37123-0.22373 0.36829-0.2815c0.00816-0.025051-0.12138 0.00123-0.12138 0.00123s0.079301-0.10995 0.082228-0.13355c-0.051277-0.034557-0.37354 0.12022-0.37354 0.12022s0.20484-0.30762 0.13138-0.32624c-0.042904-0.020609-0.2371 0.079-0.2371 0.079s0.099177-0.14803 0.019233-0.15507c-0.12891-0.019456-0.31012 0.21975-0.31012 0.21975s0.02572-0.16664-0.035385-0.16266c-0.1586 0.045926-0.66009 1.0355-0.85994 1.3948-0.083238-0.051644 0.10489-0.4603 0.27768-0.73934 0.24717-0.39915 0.48626-0.61729 0.53183-0.69672-0.011251-0.024486-0.11615-2.275e-4 -0.11615-2.275e-4s0.10541-0.20733 0.069449-0.23414c-0.027227-0.010837-0.18395 0.057698-0.18395 0.057698s0.05609-0.14041 0.028861-0.15124c-0.030636-0.012187-0.12682 0.045055-0.12682 0.045055s0.021593-0.060947-0.018219-0.056771c-0.054601 0.00829-0.18624 0.11692-0.18624 0.11692s0.00493-0.060515-0.038308-0.05769c-0.11838 0.032943-0.44713 0.71355-0.44713 0.71355-0.10417 0.033592 0.14295-0.63044-0.00993-0.69376 0 0-0.15079-0.08458-0.18689-0.081438-0.052382 0.019176-0.11235 0.21353-0.11235 0.21353s-0.27351-0.14617-0.34557-0.11231c-0.072357 0.036247-0.031544 0.13913-0.031544 0.13913s-0.16879-0.00892-0.20949 0.00241c-0.036395 0.063062 0.2591 0.31173 0.23883 0.33118 0 0-0.33891-0.17709-0.42798-0.092463-0.02412 0.050441 0.058617 0.17898 0.058617 0.17898s-0.12051 0.011079-0.13205 0.046512c-0.033449 0.039225 0.36376 0.26081 0.9251 0.76783-0.12667 0.042153-0.78591-0.42956-1.077-0.35776-0.035363 0.025955-0.022587 0.10067-0.022587 0.10067s-0.22925 0.023553-0.28 0.05839c-0.014346 0.029308 0.034122 0.091403 0.034122 0.091403s-0.15099 0.034326-0.17955 0.062986c0.014225 0.11572 0.39157 0.14165 0.39157 0.14165s-0.31769 0.09199-0.35512 0.13463c0.030198 0.10207 0.41563 0.069861 0.41563 0.069861s-0.1816 0.038797-0.18604 0.074553c-0.046449 0.14411 0.43124-0.066275 1.4901 0.12239l0.20953 0.30623s-0.85929-0.38675-0.95518-0.36237l-0.023641 0.068419s-0.11802-0.14219-0.20887-0.10787c-0.10373 0.051682-0.037642 0.22204-0.037642 0.22204s-0.30592-0.14317-0.42651-0.063578c-0.013465 0.022159 0.017382 0.063513 0.017382 0.063513s-0.16931 0.040935-0.21785 0.086661c-0.045716 0.051845 0.13563 0.12825 0.13563 0.12825s-0.1914 0.065094-0.19776 0.087579c0.18619 0.22667 0.48206 0.022832 0.83293 0.044871 0 0-0.53073 0.1786-0.5985 0.26419-0.0031 0.053802 0.26348 0.03409 0.26348 0.03409s-0.056885 0.077277-0.024474 0.075166c0.00607 0.037435 0.35094-0.10091 0.35094-0.10091s-0.10442 0.10599-0.070091 0.11715c0.050029 0.057423 0.51279-0.19919 1.2638-0.2931z"/></g><path d="m1.9358 7.1318c0.13031-0.011489 0.57161 0.95579 0.57161 0.95579l0.066272-0.026791s-0.34591-0.95207-0.6379-0.92903z" fill="#7a4e48" stroke="#44803d" stroke-width=".198"/><g fill="#44803d" stroke-width=".19844"><path d="m4.5619 7.1213c1.1391-0.096986 1.83 0.2482 1.8703 0.23389 0.016601-0.022835-0.22907-0.19768-0.22907-0.19768s0.4057 0.16619 0.54775 0.14531l-0.10009-0.10228s0.1205-0.0128 0.12365-0.044791c-0.010311-0.041159-0.3289-0.21632-0.3289-0.21632s0.37704-0.012639 0.30793-0.10521c3.117e-4 -0.030134-0.11596-0.097911-0.11596-0.097911s0.13326-0.098947 0.090763-0.14305c-0.046538-0.035475-0.37522-0.054398-0.37522-0.054398s0.11739-0.094575 0.059032-0.1343c-0.08156-0.036556-0.27766 0.019603-0.27766 0.019603s-0.084665-0.11833-0.15965-0.13524c-0.097735-0.00205 0.21485 0.20696-1.344 0.4582 0 0-0.10806 0.3399-0.068863 0.37418z"/><path d="m4.3571 7.255c-0.17591-0.25632-1.0684-0.72735-1.113-0.78804-0.00703-0.031331 0.22108-0.012604 0.22108-0.012604s-0.33401-0.15911-0.40343-0.22155c-0.00418-0.033194 0.14654-0.01783 0.14654-0.01783s-0.20663-0.18239-0.17739-0.21944c0.12036-0.054615 0.56311 0.24306 0.56311 0.24306 0.028446-0.018567-0.54242-0.38822-0.498-0.63871 0.06676-0.00765 0.22268 0.10606 0.22268 0.10606s-0.040485-0.18309 0.00591-0.18943c0.072453-0.011375 0.17059 0.11612 0.17059 0.11612s0.030683-0.073935 0.09716-0.051446c0.12272 0.045603 0.16106 0.32587 0.16106 0.32587s0.10246-0.18061 0.18521-0.15082c0.11898 0.024104 0.11426 0.20676 0.11426 0.20676l0.14206-0.020885c0.062412 0.031092-0.076746 0.26112 0.14264 0.68508 0.047482 0.09176 0.093939 0.47743 0.093939 0.47743z"/><path d="m4.5541 7.1085c1.4039-0.072258 1.818 0.3159 1.8716 0.26894 0.061821-0.022399-0.16471-0.19179-0.16471-0.19179s0.4105 0.13912 0.45273 0.099583c0.024399-0.00994-0.07929-0.091912-0.07929-0.091912s0.13516-0.010401 0.15508-0.023399c-0.0067-0.061466-0.33294-0.2077-0.33294-0.2077s0.36718-0.042115 0.33398-0.11024c-0.011954-0.046072-0.21338-0.1301-0.21338-0.1301s0.17708-0.019802 0.13085-0.085409c-0.068349-0.11102-0.36801-0.095015-0.36801-0.095015s0.14388-0.087922 0.10139-0.13202c-0.13744-0.091494-1.217 0.16425-1.6204 0.2435-0.014285-0.09691 0.41927-0.21701 0.74392-0.26515 0.46441-0.068871 0.78534-0.027064 0.87542-0.043528 0.011442-0.024397-0.074798-0.088857-0.074798-0.088857s0.22639-0.053316 0.22366-0.098093c-0.0093-0.027791-0.1628-0.10325-0.1628-0.10325s0.14345-0.047792 0.13414-0.075582c-0.010468-0.031265-0.11627-0.067775-0.11627-0.067775s0.060487-0.022848 0.0316-0.050561c-0.041574-0.036354-0.20952-0.066773-0.20952-0.066773s0.049399-0.0353 0.019335-0.066496c-0.10158-0.06915-0.8336 0.11908-0.8336 0.11908-0.092901-0.057879 0.57378-0.29776 0.52347-0.4554 0 0-0.03273-0.16976-0.058438-0.19531-0.048461-0.027628-0.23561 0.052021-0.23561 0.052021s-0.064907-0.30325-0.13728-0.33643c-0.07439-0.031867-0.12663 0.065717-0.12663 0.065717s-0.10214-0.13468-0.13706-0.15845c-0.071657 0.01291-0.070844 0.39911-0.098782 0.39619 0 0-0.083507-0.37316-0.20564-0.38656-0.054094 0.014137-0.09886 0.1603-0.09886 0.1603s-0.086247-0.08489-0.12076-0.07083c-0.051549-2.33e-4 0.035603 0.44618 0.010701 1.2022-0.11396-0.069531-0.17922-0.87753-0.42193-1.0535-0.042651-0.010256-0.091472 0.047733-0.091472 0.047733s-0.16597-0.15989-0.22534-0.17617c-0.031644 0.00797-0.047786 0.085063-0.047786 0.085063s-0.12368-0.093164-0.164-0.096479c-0.0792 0.08556 0.14457 0.39051 0.14457 0.39051s-0.27532-0.18326-0.33205-0.18433c-0.058463 0.088949 0.21492 0.36254 0.21492 0.36254s-0.14686-0.11366-0.17703-0.093964c-0.14005 0.057546 0.32898 0.28658 0.86834 1.2171l-0.098643 0.3577s-0.25928-0.90595-0.33979-0.96344l-0.067514 0.026106s0.032419-0.18193-0.052436-0.22916c-0.10643-0.045869-0.19388 0.11457-0.19388 0.11457s-0.088122-0.32606-0.22675-0.3668c-0.025616 0.00402-0.037289 0.054274-0.037289 0.054274s-0.14055-0.1029-0.20681-0.11045c-0.069107-0.00146-0.010406 0.18637-0.010406 0.18637s-0.17326-0.10417-0.19454-0.094508c-0.052935 0.28852 0.29373 0.38292 0.50337 0.66513 0 0-0.47899-0.29007-0.5881-0.28658-0.043095 0.032359 0.14404 0.22324 0.14404 0.22324s-0.095743 0.00644-0.073207 0.029824c-0.024675 0.028793 0.3036 0.2029 0.3036 0.2029s-0.14836-0.011341-0.13472 0.022086c-0.011569 0.075279 0.48314 0.26308 1.0396 0.77604z"/></g><path d="m4.6934 6.3017c0.092888 0.092109-0.36103 1.0535-0.36103 1.0535l0.063242 0.033323s0.50388-0.87874 0.2978-1.0869z" fill="#7a4e48" stroke="#44803d" stroke-width=".198"/><g transform="matrix(.81022 0 0 .81022 -.89447 .62158)" stroke-width="1.2342"><g fill="#44803d"><path d="m2.5412 9.1646c-0.18097 0.38379 0.014183 1.0087-0.10818 0.99571-0.06736-0.0095-0.22945-0.26582-0.22945-0.26582 0.053102 0.12555 0.015853 0.38213-0.075951 0.52762-0.25393-0.04618-0.20268-0.49129-0.29426-0.56289 0 0-0.1182 0.69272-0.29526 0.86723-0.12409-0.06535-0.095255-0.33589-0.13198-0.3345 0 0-0.10336 0.37675-0.23528 0.3473l-0.050227-0.1079s-0.12149 0.0892-0.16048 0.06771c-0.063201-0.15052 0.1693-0.39634 0.1693-0.39634s-0.18818 0.0984-0.20873 0.07066c-0.080774-0.28938 0.4224-0.48028 0.4686-0.56903-0.050909-0.06351-0.4588 0.17762-0.47949 0.07756-0.039397-0.08926 0.33964-0.38262 0.33964-0.38262s-0.1766-0.0847-0.07879-0.17853c0.22942 0.0294 0.81321-0.55632 1.3705-0.15615z" stroke-width=".24492"/><path d="m1.0664 8.2371c-0.69269 0.37328-0.77541 1.3933-1.0932 1.3479-0.12009 0.0517-0.14381-0.27779-0.14381-0.27779s-0.20952 0.32327-0.41108 0.30318c-0.081806-0.0496 0.049036-0.37146 0.049036-0.37146s-0.47477 0.35313-0.69061 0.32368c-0.15109-0.06241 0.01667-0.31319 0.01667-0.31319s-0.38706 0.27612-0.4814 0.27336c-0.09958-0.17132 0.29861-0.48907 0.29861-0.48907-0.31068 0.0048-0.46817-0.26652 0.37766-0.2619 0 0-0.369-0.04227-0.38154-0.07903-0.022991-0.12312 0.31989-0.17137 0.31989-0.17137 0.041418-0.0503-0.11455-0.13629-0.024738-0.17931 0.3833 0.2188 0.81556-0.43537 1.7854-0.33942z" stroke-width=".24492"/><g stroke-width=".46649"><path transform="matrix(-.41253 .32476 -.32476 -.41253 -.96224 57.409)" d="m-58.536 70.474c2.982 1.5844 4.6591 0.87485 4.7681 0.97586 0.05047 0.11164-0.52896 0.57937-0.52896 0.57937s0.99672-0.2657 1.3715-0.03177l-0.22595 0.31892s0.31627 0.1781 0.33487 0.31366c-0.0133 0.15947-0.78146 0.55276-0.78146 0.55276s0.98071 0.44395 0.83184 0.75491c0.01062 0.12492-0.26846 0.28437-0.26846 0.28437s0.37736 0.54756 0.28167 0.68576c-0.10898 0.09833-0.95416-0.16487-0.95416-0.16487s0.33481 0.51302 0.19663 0.61664c-0.19934 0.06645-0.72556-0.36951-0.72556-0.36951s-0.18077 0.40132-0.36948 0.39333c-0.25249-0.09305 0.4891-0.63253-3.6303-3.2908 0 0-0.39057-1.5177-0.30019-1.6187z"/><path transform="matrix(-.41253 .32476 -.32476 -.41253 -.96224 57.409)" d="m-61.326 62.899c-0.3802-0.41789-0.94629-0.50441-1.169-0.596-0.5799-0.23851-1.0212-0.52638-1.1087-0.47001-0.04785 0.13555 0.07705 0.32426 0.07705 0.32426s-0.63521-0.13826-0.71762 0.03981c0.27594 0.28308 0.39529 0.89734 1.3235 1.1005-0.5289-0.15155-1.9455-0.40151-1.9934-0.26596-0.01329 0.15947 0.37738 0.41466 0.37738 0.41466s-0.57148 0.47836-0.46252 0.64582c0.10896 0.16746 0.90366 0.18613 0.90366 0.18613s-0.26315 0.24716-0.18874 0.32424c0.12756 0.17012 1.1801-0.0876 1.1801-0.0876s-0.40669 0.38801-0.34291 0.47307c0.10546 0.12347 0.2733-0.07082 0.35102-0.04076 0.04908-0.0036 0.02903 0.30393 0.1752 0.34381 0.13289 0.06646 0.41199-0.35878 0.41199-0.35878s0.08236 0.41994 0.24448 0.48109c0.24453-0.05048 0.57961-2.1953 1.0952-2.0837z"/><path transform="matrix(-.41253 .32476 -.32476 -.41253 -.96224 57.409)" d="m-60.223 66.341c-0.18429-0.3798-0.94154 0.23314-1.3785 0.29073-0.77319 0.10192-1.2847-0.05442-1.6408 0.04654-0.11165 0.18338 0.64845 0.70971 0.64845 0.70971s-0.93024-0.13298-1.1322 0.0185c-0.0133 0.15947 0.42789 0.32695 0.42789 0.32695s-0.51564 0.28702-0.52895 0.44648c0.66442 0.53163 1.9562 0.06131 1.9562 0.06131 0.09035 0.1648-1.9775 1.0178-1.7198 2.0039 0.31626 0.24455 0.909-0.11686 0.909-0.11686s-0.42266 0.63253-0.31106 0.98072c0.06645 0.06646 0.27377-0.05579 0.27377-0.05579s-0.08776 0.54751 0.0531 0.69105c0.25516-0.05846 0.59809-0.86375 0.59809-0.86375s0.10095 0.5555 0.22057 0.44919c0.3163-0.08767 0.45196-1.3688 0.45196-1.3688s0.42253 0.82928 0.59529 0.81601c0.14353-0.07441 0.17284-0.81063 0.17284-0.81063s0.34815 0.28708 0.46777 0.18078c0.14088-0.12225-0.49641-0.94588-0.18591-1.5549 0.36057-0.7072 0.09317-1.5814 0.3058-1.6744z"/><path transform="matrix(-.41253 .32476 -.32476 -.41253 -.96224 57.409)" d="m-59.11 69.708c-0.37218 0.87706-2.5305 1.8975-2.6262 2.1021-8e-3 0.12226 0.57673 0.28178 0.57673 0.28178s-0.81333 0.3109-0.97282 0.49693c-2e-5 0.1329 0.38537 0.22595 0.38537 0.22595s-0.47581 0.5395-0.38811 0.7229c0.32955 0.35086 1.3795-0.41982 1.3795-0.41982 0.07969 0.10634-1.2785 1.0418-1.0819 2.1235 0.17541 0.10101 0.54222-0.20727 0.54222-0.20727s-0.04525 0.71496 0.07701 0.78939c0.19136 0.12228 0.40402-0.30296 0.40402-0.30296s0.10363 0.33755 0.26841 0.31365c0.303-0.0611 0.31108-1.1801 0.31108-1.1801s0.32418 0.8532 0.52882 0.81602c0.30034 0.02395 0.22864-0.73621 0.22864-0.73621l0.37474 0.23393c0.1515-0.06378-0.28379-1.1594 0.14642-2.6844 0.09311-0.33007 0.08788-1.8764 0.08788-1.8764z"/></g><path d="m0.30083 9.3027c-2.0558 0.46363-2.0646 1.2555-2.2076 1.2025-0.11858-0.01032-0.051121-0.37482-0.051121-0.37482s-0.36724 0.39196-0.48361 0.34613c-0.048413-0.0058-0.024005-0.17977-0.024005-0.17977s-0.20296 0.03913-0.24959 0.02655c-0.080384-0.10112 0.15936-0.46969 0.15936-0.46969s-0.57157 0.084117-0.62488-0.038571c-0.05064-0.078643 0.10655-0.29619 0.10655-0.29619s-0.27491 0.041383-0.30646-0.082655c-0.067088-0.20583 0.37258-0.30387 0.37258-0.30387s-0.32821-0.081304-0.33356-0.16939c0.057412-0.2031 1.9304-0.23934 2.6065-0.27899-0.12163-0.16093-0.89922-0.17421-1.4205-0.11729-0.7457 0.081429-1.1305 0.28074-1.2797 0.29157-0.051515-0.034306-0.02578-0.17303-0.02578-0.17303s-0.39234 0.00811-0.4539-0.06466c-0.027647-0.048305 0.075491-0.23236 0.075491-0.23236s-0.26904-0.017276-0.29668-0.065577c-0.031099-0.054338 0.062602-0.15641 0.062602-0.15641s-0.11738-0.011601-0.1177-0.067849c0.0047-0.075319 0.19361-0.19328 0.19361-0.19328s-0.12016-0.036079-0.12392-0.098408c0.040176-0.15255 1.3319-0.15343 1.3319-0.15343 0.044598-0.13093-1.2317-0.23966-1.3919-0.51263 0 0-0.20232-0.28512-0.20389-0.3366 0.026998-0.064198 0.40326-0.013985 0.40326-0.013985s-0.35245-0.51196-0.30033-0.59491c0.056833-0.081679 0.27184 0.052897 0.27184 0.052897s-0.054671-0.25762-0.04086-0.31006c0.11839-0.00892 0.68097 0.60933 0.71552 0.59312 0 0-0.42865-0.63149-0.27855-0.70333 0.095783 3.032e-4 0.37131 0.21568 0.37131 0.21568s-0.00409-0.17141 0.064379-0.16315c0.071287-0.021618 0.60179 0.72856 1.7399 1.9279 0.056821-0.15827-1.0319-1.478-0.95154-1.8596 0.04428-0.034006 0.19675 0.038623 0.19675 0.038623s-0.00281-0.3243 0.05591-0.37484c0.055585-3.286e-4 0.19055 0.11636 0.19055 0.11636s0.035835-0.2001 0.087021-0.22203c0.23492 0.10421 0.36915 0.68444 0.36915 0.68444s0.115-0.40682 0.19225-0.43193c0.21105 0.1182 0.23058 0.66873 0.23058 0.66873s0.038122-0.24244 0.10878-0.22339c0.27856 0.034285-0.038728 0.59426 0.5701 2.3055l0.65914 0.5316s-0.96213-1.5565-0.9342-1.6817l0.13191 0.013912s-0.31058-0.2777-0.26164-0.38828c0.080981-0.11725 0.43658 0.10331 0.43658 0.10331s-0.35351-0.55805-0.22037-0.68042c0.04145-0.00414 0.13102 0.071447 0.13102 0.071447s0.04508-0.22262 0.1261-0.26204c0.093896-0.030837 0.2865 0.29389 0.2865 0.29389s0.088667-0.23815 0.13232-0.23148c0.49467 0.43977 0.15086 0.73385 0.27152 1.2719 0 0 0.24203-0.66175 0.39873-0.70117 0.1071 0.033979 0.12574 0.41661 0.12574 0.41661s0.1424-0.029209 0.14523 0.017509c0.076316 0.035903-0.12563 0.4499-0.12563 0.4499s0.18955-0.07936 0.21939-0.020253c0.12594 0.11566-0.2872 0.62026-0.31156 1.6706z" stroke-width=".24492"/></g><path transform="matrix(-.41253 .32476 -.32476 -.41253 -.96224 57.409)" d="m-57.938 73.97c0.09676-0.64104-3.9724-13.173-3.9724-13.173l0.14063-0.1107s4.0368 11.819 3.8317 13.284z" fill="#7a4e48" stroke="#44803d" stroke-width=".46547"/></g><g fill="#44803d" stroke-width=".41022"><g transform="matrix(.48373 0 0 .48373 37.478 -20.267)"><path d="m-68.692 58.664c-0.18605-1.0299 0.67489-2.3967 0.37588-2.4432-0.16612-0.01993-0.71417 0.48864-0.71417 0.48864 0.20598-0.26579 0.28058-0.90133 0.15492-1.3065-0.63274-0.05068-0.7939 1.0433-1.057 1.1561 0 0 0.15947-1.727-0.15035-2.2553-0.3364 0.07726-0.43985 0.74075-0.52623 0.71417 0 0-0.0061-0.96399-0.33829-0.97728l-0.18794 0.22553s-0.23198-0.28969-0.33829-0.26312c-0.24585 0.31894 0.15035 1.0525 0.15035 1.0525s-0.38461-0.35386-0.45105-0.3007c-0.37588 0.63899 0.6984 1.413 0.75176 1.6539-0.16136 0.11921-0.97728-0.71417-1.09-0.48864-0.15036 0.18794 0.56382 1.1276 0.56382 1.1276s-0.47346 0.09016-0.3007 0.37588c0.56382 0.07518 1.5787 1.8418 3.1574 1.2404z"/><path d="m-72.786 59.942c-1.4087-1.3289-0.95683-3.814-1.7409-3.9071-0.2525-0.19934-0.51828 0.57144-0.51828 0.57144s-0.29236-0.90367-0.78407-0.98341c-0.22592 0.06645-0.1196 0.91696-0.1196 0.91696s-0.90367-1.1429-1.4352-1.2093c-0.39868 0.05316-0.15947 0.75749-0.15947 0.75749s-0.7442-0.90367-0.97012-0.95683c-0.34552 0.34552 0.39868 1.3555 0.39868 1.3555-0.73518-0.20818-1.2819 0.33913 0.73091 0.8638 0 0-0.90367-0.1329-0.95683-0.05316-0.13289 0.27908 0.65118 0.61131 0.65118 0.61131 0.06645 0.14618-0.35881 0.2525-0.17276 0.41197 1.0499-0.27908 1.6612 1.5548 4.0267 1.9402z"/><path d="m-76.414 61.192c-3.0565-1.4352-3.4951-3.2027-3.6413-3.2293-0.1196 0.02658-0.14618 0.77078-0.14618 0.77078s-0.38539-0.95683-0.79736-1.1163l-0.1196 0.3721s-0.33223-0.14619-0.45184-0.07974c-0.1196 0.10631 0.02658 0.95683 0.02658 0.95683s-0.94354-0.51828-1.103-0.21263c-0.10631 0.06645-0.06645 0.38539-0.06645 0.38539s-0.66446 0.02658-0.71762 0.18606c-0.01329 0.14618 0.70433 0.66446 0.70433 0.66446s-0.61131 0.03987-0.61131 0.21263c0.06645 0.19934 0.73091 0.35881 0.73091 0.35881s-0.21262 0.38539-0.09302 0.53157c0.22592 0.14618 0.21263-0.77078 4.8107 0.93025 0 0 1.4485-0.59802 1.4751-0.73091z"/><path d="m-68.68 58.879c0.56243 0.05348 0.97126 0.45448 1.1781 0.57769 0.53872 0.32087 1.0338 0.5012 1.0412 0.60506-0.07974 0.1196-0.30565 0.13289-0.30565 0.13289s0.4917 0.42526 0.39868 0.59802c-0.39202-0.05094-0.95506 0.22208-1.6744-0.39867 0.43855 0.33223 1.4884 1.3156 1.4087 1.4352-0.1196 0.10631-0.55815-0.05316-0.55815-0.05316s-0.03987 0.7442-0.23921 0.75749c-0.19934 0.01329-0.69104-0.61131-0.69104-0.61131s-0.03987 0.35881-0.14618 0.34552c-0.21263 0-0.63789-0.9967-0.63789-0.9967s-0.06645 0.55815-0.17276 0.55815c-0.16205-0.01031-0.1073-0.26114-0.17798-0.3053-0.02653-0.04146-0.26057 0.15911-0.38018 0.06609-0.13289-0.06645 0.03988-0.54486 0.03988-0.54486s-0.38539 0.18604-0.53157 0.09302c-0.10631-0.22592 1.4087-1.7808 1.01-2.1263z"/><path d="m-72.095 60.062c0.41442-0.08041 0.37834 0.89315 0.59442 1.2773 0.38232 0.67974 0.81424 0.99514 0.94713 1.3407-0.07974 0.19934-0.95683-0.09302-0.95683-0.09302s0.66446 0.66446 0.66446 0.91696c-0.1196 0.10631-0.51828-0.14618-0.51828-0.14618s0.07973 0.58473-0.03987 0.69104c-0.82394-0.21263-1.2226-1.5283-1.2226-1.5283-0.18605 0.02658 0.3721 2.1927-0.57144 2.5781-0.38539-0.10631-0.45184-0.79736-0.45184-0.79736s-0.2525 0.71762-0.59802 0.83723c-0.09303-0.01329-0.1196-0.2525-0.1196-0.2525s-0.38539 0.39868-0.58473 0.3721c-0.10631-0.23921 0.33223-0.9967 0.33223-0.9967s-0.50499 0.25249-0.4917 0.09302c-0.1196-0.30565 0.82394-1.1827 0.82394-1.1827s-0.91696 0.15946-1.01 0.01328c-0.02658-0.15947 0.54486-0.6246 0.54486-0.6246s-0.43854-0.10632-0.42526-0.26579c0.01329-0.18605 1.0546-0.17031 1.3555-0.78407 0.34948-0.71275 1.2093-1.0233 1.1562-1.2492z"/><path d="m-75.457 61.192c-0.47842 0.82394-1e-6 3.1629-0.10632 3.3622-0.09302 0.07974-0.57144-0.29236-0.57144-0.29236s0.23921 0.83723 0.18605 1.0764c-0.10631 0.07974-0.41197-0.17276-0.41197-0.17276s-0.14618 0.70433-0.34552 0.7442c-0.47842-0.05316-0.4917-1.3555-0.4917-1.3555-0.13289 0-0.06645 1.6479-1.0499 2.1396-0.18605-0.07974-0.15947-0.55815-0.15947-0.55815s-0.54486 0.46513-0.67775 0.41197c-0.21263-0.07974 0-0.50499 0-0.50499s-0.33223 0.1196-0.41197-0.02658c-0.13289-0.27908 0.75749-0.95683 0.75749-0.95683s-0.87709 0.2525-0.97012 0.06645c-0.19934-0.22592 0.45184-0.6246 0.45184-0.6246l-0.41197-0.15947c-0.03987-0.15947 1.0978-0.46851 2.0598-1.7276 0.20822-0.27252 1.4485-1.196 1.4485-1.196z"/><path d="m-76.441 61.231c-3.6014-1.8738-3.2293-3.3356-3.5217-3.309-0.22592-0.03986-0.27907 0.66446-0.27907 0.66446s-0.4917-0.90367-0.73091-0.87709c-0.09302-0.01329-0.13289 0.31894-0.13289 0.31894s-0.35881-0.17276-0.45184-0.17276c-0.19934 0.14618 0.06645 0.94354 0.06645 0.94354s-1.0233-0.43855-1.1827-0.23921c-0.13289 0.1196 0.05316 0.59802 0.05316 0.59802s-0.4917-0.21263-0.61131 0c-0.22592 0.34552 0.54486 0.7442 0.54486 0.7442s-0.65117-0.01329-0.70433 0.14618c0.0073 0.40229 3.478 1.3988 4.7177 1.8073-0.30544 0.23584-1.7602-0.12575-2.7032-0.4893-1.3489-0.52004-1.9679-1.0779-2.2404-1.1719-0.11276 0.03759-0.13289 0.30565-0.13289 0.30565s-0.72674-0.20968-0.87709-0.10631c-0.07518 0.07518 0.02658 0.46512 0.02658 0.46512s-0.50955-0.10176-0.58473-0.02658c-0.08457 0.08457 0.03987 0.31894 0.03987 0.31894s-0.22431-0.03692-0.2525 0.06645c-0.02819 0.14095 0.26578 0.45184 0.26578 0.45184s-0.24149 0.0068-0.27908 0.1196c0 0.3007 2.4054 0.94354 2.4054 0.94354 0.01879 0.26312-2.4117-0.17037-2.8439 0.2525 0 0-0.51667 0.42431-0.54486 0.51828 0.01879 0.13156 0.7442 0.22592 0.7442 0.22592s-0.90756 0.76728-0.85118 0.94582c0.06578 0.17854 0.53224 0.03759 0.53224 0.03759s-0.2282 0.447-0.2282 0.55037c0.21613 0.07518 1.5672-0.7834 1.6236-0.73642 0 0-1.1081 0.94944-0.8638 1.1562 0.17854 0.04699 0.79736-0.21263 0.79736-0.21263s-0.09169 0.31344 0.03987 0.33223c0.12216 0.07518 1.4782-1.0421 4.1861-2.6844 0.02819 0.3195-2.6468 2.2079-2.6844 2.9502 0.06578 0.08457 0.38539 0.02658 0.38539 0.02658s-0.16431 0.59546-0.07974 0.71762c0.10337 0.02819 0.41197-0.1196 0.41197-0.1196s-0.03141 0.38606 0.05316 0.45184c0.48864-0.07518 1.0233-1.0764 1.0233-1.0764s0.01463 0.80581 0.14618 0.89038c0.45105-0.11276 0.75749-1.1163 0.75749-1.1163s-0.04793 0.46513 0.09302 0.46513c0.53563 0.07518 0.21938-1.1129 2.1927-3.9602l1.4884-0.65118s-2.5554 2.387-2.5648 2.6313l0.2525 0.03987s-0.71467 0.35692-0.67775 0.58473c0.09331 0.256 0.8638 0.02658 0.8638 0.02658s-0.93214 0.85158-0.7442 1.1429c0.07518 0.02819 0.27908-0.06645 0.27908-0.06645s-0.02524 0.4321 0.10632 0.54486c0.15975 0.10337 0.67775-0.39868 0.67775-0.39868s0.04832 0.48231 0.13289 0.4917c1.137-0.56382 0.64095-1.2757 1.1296-2.206 0 0 0.12617 1.3381 0.39868 1.4884 0.21613-0.0094 0.43855-0.70433 0.43855-0.70433s0.25088 0.12444 0.27908 0.03987c0.15975-0.02819-0.01328-0.89038-0.01328-0.89038s0.31411 0.24015 0.39868 0.14618c0.29131-0.15035-0.23064-1.2841 0.23921-3.2293z"/></g><g transform="matrix(-.48373 0 0 .48373 -31.059 -20.849)"><path d="m-68.692 58.664c-0.18605-1.0299 0.67489-2.3967 0.37588-2.4432-0.16612-0.01993-0.71417 0.48864-0.71417 0.48864 0.20598-0.26579 0.28058-0.90133 0.15492-1.3065-0.63274-0.05068-0.7939 1.0433-1.057 1.1561 0 0 0.15947-1.727-0.15035-2.2553-0.3364 0.07726-0.43985 0.74075-0.52623 0.71417 0 0-0.0061-0.96399-0.33829-0.97728l-0.18794 0.22553s-0.23198-0.28969-0.33829-0.26312c-0.24585 0.31894 0.15035 1.0525 0.15035 1.0525s-0.38461-0.35386-0.45105-0.3007c-0.37588 0.63899 0.6984 1.413 0.75176 1.6539-0.16136 0.11921-0.97728-0.71417-1.09-0.48864-0.15036 0.18794 0.56382 1.1276 0.56382 1.1276s-0.47346 0.09016-0.3007 0.37588c0.56382 0.07518 1.5787 1.8418 3.1574 1.2404z"/><path d="m-72.786 59.942c-1.4087-1.3289-0.95683-3.814-1.7409-3.9071-0.2525-0.19934-0.51828 0.57144-0.51828 0.57144s-0.29236-0.90367-0.78407-0.98341c-0.22592 0.06645-0.1196 0.91696-0.1196 0.91696s-0.90367-1.1429-1.4352-1.2093c-0.39868 0.05316-0.15947 0.75749-0.15947 0.75749s-0.7442-0.90367-0.97012-0.95683c-0.34552 0.34552 0.39868 1.3555 0.39868 1.3555-0.73518-0.20818-1.2819 0.33913 0.73091 0.8638 0 0-0.90367-0.1329-0.95683-0.05316-0.13289 0.27908 0.65118 0.61131 0.65118 0.61131 0.06645 0.14618-0.35881 0.2525-0.17276 0.41197 1.0499-0.27908 1.6612 1.5548 4.0267 1.9402z"/><path d="m-76.414 61.192c-3.0565-1.4352-3.4951-3.2027-3.6413-3.2293-0.1196 0.02658-0.14618 0.77078-0.14618 0.77078s-0.38539-0.95683-0.79736-1.1163l-0.1196 0.3721s-0.33223-0.14619-0.45184-0.07974c-0.1196 0.10631 0.02658 0.95683 0.02658 0.95683s-0.94354-0.51828-1.103-0.21263c-0.10631 0.06645-0.06645 0.38539-0.06645 0.38539s-0.66446 0.02658-0.71762 0.18606c-0.01329 0.14618 0.70433 0.66446 0.70433 0.66446s-0.61131 0.03987-0.61131 0.21263c0.06645 0.19934 0.73091 0.35881 0.73091 0.35881s-0.21262 0.38539-0.09302 0.53157c0.22592 0.14618 0.21263-0.77078 4.8107 0.93025 0 0 1.4485-0.59802 1.4751-0.73091z"/><path d="m-68.68 58.879c0.56243 0.05348 0.97126 0.45448 1.1781 0.57769 0.53872 0.32087 1.0338 0.5012 1.0412 0.60506-0.07974 0.1196-0.30565 0.13289-0.30565 0.13289s0.4917 0.42526 0.39868 0.59802c-0.39202-0.05094-0.95506 0.22208-1.6744-0.39867 0.43855 0.33223 1.4884 1.3156 1.4087 1.4352-0.1196 0.10631-0.55815-0.05316-0.55815-0.05316s-0.03987 0.7442-0.23921 0.75749c-0.19934 0.01329-0.69104-0.61131-0.69104-0.61131s-0.03987 0.35881-0.14618 0.34552c-0.21263 0-0.63789-0.9967-0.63789-0.9967s-0.06645 0.55815-0.17276 0.55815c-0.16205-0.01031-0.1073-0.26114-0.17798-0.3053-0.02653-0.04146-0.26057 0.15911-0.38018 0.06609-0.13289-0.06645 0.03988-0.54486 0.03988-0.54486s-0.38539 0.18604-0.53157 0.09302c-0.10631-0.22592 1.4087-1.7808 1.01-2.1263z"/><path d="m-72.095 60.062c0.41442-0.08041 0.37834 0.89315 0.59442 1.2773 0.38232 0.67974 0.81424 0.99514 0.94713 1.3407-0.07974 0.19934-0.95683-0.09302-0.95683-0.09302s0.66446 0.66446 0.66446 0.91696c-0.1196 0.10631-0.51828-0.14618-0.51828-0.14618s0.07973 0.58473-0.03987 0.69104c-0.82394-0.21263-1.2226-1.5283-1.2226-1.5283-0.18605 0.02658 0.3721 2.1927-0.57144 2.5781-0.38539-0.10631-0.45184-0.79736-0.45184-0.79736s-0.2525 0.71762-0.59802 0.83723c-0.09303-0.01329-0.1196-0.2525-0.1196-0.2525s-0.38539 0.39868-0.58473 0.3721c-0.10631-0.23921 0.33223-0.9967 0.33223-0.9967s-0.50499 0.25249-0.4917 0.09302c-0.1196-0.30565 0.82394-1.1827 0.82394-1.1827s-0.91696 0.15946-1.01 0.01328c-0.02658-0.15947 0.54486-0.6246 0.54486-0.6246s-0.43854-0.10632-0.42526-0.26579c0.01329-0.18605 1.0546-0.17031 1.3555-0.78407 0.34948-0.71275 1.2093-1.0233 1.1562-1.2492z"/><path d="m-75.457 61.192c-0.47842 0.82394-1e-6 3.1629-0.10632 3.3622-0.09302 0.07974-0.57144-0.29236-0.57144-0.29236s0.23921 0.83723 0.18605 1.0764c-0.10631 0.07974-0.41197-0.17276-0.41197-0.17276s-0.14618 0.70433-0.34552 0.7442c-0.47842-0.05316-0.4917-1.3555-0.4917-1.3555-0.13289 0-0.06645 1.6479-1.0499 2.1396-0.18605-0.07974-0.15947-0.55815-0.15947-0.55815s-0.54486 0.46513-0.67775 0.41197c-0.21263-0.07974 0-0.50499 0-0.50499s-0.33223 0.1196-0.41197-0.02658c-0.13289-0.27908 0.75749-0.95683 0.75749-0.95683s-0.87709 0.2525-0.97012 0.06645c-0.19934-0.22592 0.45184-0.6246 0.45184-0.6246l-0.41197-0.15947c-0.03987-0.15947 1.0978-0.46851 2.0598-1.7276 0.20822-0.27252 1.4485-1.196 1.4485-1.196z"/><path d="m-76.441 61.231c-3.6014-1.8738-3.2293-3.3356-3.5217-3.309-0.22592-0.03986-0.27907 0.66446-0.27907 0.66446s-0.4917-0.90367-0.73091-0.87709c-0.09302-0.01329-0.13289 0.31894-0.13289 0.31894s-0.35881-0.17276-0.45184-0.17276c-0.19934 0.14618 0.06645 0.94354 0.06645 0.94354s-1.0233-0.43855-1.1827-0.23921c-0.13289 0.1196 0.05316 0.59802 0.05316 0.59802s-0.4917-0.21263-0.61131 0c-0.22592 0.34552 0.54486 0.7442 0.54486 0.7442s-0.65117-0.01329-0.70433 0.14618c0.0073 0.40229 3.478 1.3988 4.7177 1.8073-0.30544 0.23584-1.7602-0.12575-2.7032-0.4893-1.3489-0.52004-1.9679-1.0779-2.2404-1.1719-0.11276 0.03759-0.13289 0.30565-0.13289 0.30565s-0.72674-0.20968-0.87709-0.10631c-0.07518 0.07518 0.02658 0.46512 0.02658 0.46512s-0.50955-0.10176-0.58473-0.02658c-0.08457 0.08457 0.03987 0.31894 0.03987 0.31894s-0.22431-0.03692-0.2525 0.06645c-0.02819 0.14095 0.26578 0.45184 0.26578 0.45184s-0.24149 0.0068-0.27908 0.1196c0 0.3007 2.4054 0.94354 2.4054 0.94354 0.01879 0.26312-2.4117-0.17037-2.8439 0.2525 0 0-0.51667 0.42431-0.54486 0.51828 0.01879 0.13156 0.7442 0.22592 0.7442 0.22592s-0.90756 0.76728-0.85118 0.94582c0.06578 0.17854 0.53224 0.03759 0.53224 0.03759s-0.2282 0.447-0.2282 0.55037c0.21613 0.07518 1.5672-0.7834 1.6236-0.73642 0 0-1.1081 0.94944-0.8638 1.1562 0.17854 0.04699 0.79736-0.21263 0.79736-0.21263s-0.09169 0.31344 0.03987 0.33223c0.12216 0.07518 1.4782-1.0421 4.1861-2.6844 0.02819 0.3195-2.6468 2.2079-2.6844 2.9502 0.06578 0.08457 0.38539 0.02658 0.38539 0.02658s-0.16431 0.59546-0.07974 0.71762c0.10337 0.02819 0.41197-0.1196 0.41197-0.1196s-0.03141 0.38606 0.05316 0.45184c0.48864-0.07518 1.0233-1.0764 1.0233-1.0764s0.01463 0.80581 0.14618 0.89038c0.45105-0.11276 0.75749-1.1163 0.75749-1.1163s-0.04793 0.46513 0.09302 0.46513c0.53563 0.07518 0.21938-1.1129 2.1927-3.9602l1.4884-0.65118s-2.5554 2.387-2.5648 2.6313l0.2525 0.03987s-0.71467 0.35692-0.67775 0.58473c0.09331 0.256 0.8638 0.02658 0.8638 0.02658s-0.93214 0.85158-0.7442 1.1429c0.07518 0.02819 0.27908-0.06645 0.27908-0.06645s-0.02524 0.4321 0.10632 0.54486c0.15975 0.10337 0.67775-0.39868 0.67775-0.39868s0.04832 0.48231 0.13289 0.4917c1.137-0.56382 0.64095-1.2757 1.1296-2.206 0 0 0.12617 1.3381 0.39868 1.4884 0.21613-0.0094 0.43855-0.70433 0.43855-0.70433s0.25088 0.12444 0.27908 0.03987c0.15975-0.02819-0.01328-0.89038-0.01328-0.89038s0.31411 0.24015 0.39868 0.14618c0.29131-0.15035-0.23064-1.2841 0.23921-3.2293z"/></g><g transform="matrix(-.43534 -.21089 .21089 -.43534 -44.471 20.037)"><path d="m-68.692 58.664c-0.18605-1.0299 0.67489-2.3967 0.37588-2.4432-0.16612-0.01993-0.71417 0.48864-0.71417 0.48864 0.20598-0.26579 0.28058-0.90133 0.15492-1.3065-0.63274-0.05068-0.7939 1.0433-1.057 1.1561 0 0 0.15947-1.727-0.15035-2.2553-0.3364 0.07726-0.43985 0.74075-0.52623 0.71417 0 0-0.0061-0.96399-0.33829-0.97728l-0.18794 0.22553s-0.23198-0.28969-0.33829-0.26312c-0.24585 0.31894 0.15035 1.0525 0.15035 1.0525s-0.38461-0.35386-0.45105-0.3007c-0.37588 0.63899 0.6984 1.413 0.75176 1.6539-0.16136 0.11921-0.97728-0.71417-1.09-0.48864-0.15036 0.18794 0.56382 1.1276 0.56382 1.1276s-0.47346 0.09016-0.3007 0.37588c0.56382 0.07518 1.5787 1.8418 3.1574 1.2404z"/><path d="m-72.786 59.942c-1.4087-1.3289-0.95683-3.814-1.7409-3.9071-0.2525-0.19934-0.51828 0.57144-0.51828 0.57144s-0.29236-0.90367-0.78407-0.98341c-0.22592 0.06645-0.1196 0.91696-0.1196 0.91696s-0.90367-1.1429-1.4352-1.2093c-0.39868 0.05316-0.15947 0.75749-0.15947 0.75749s-0.7442-0.90367-0.97012-0.95683c-0.34552 0.34552 0.39868 1.3555 0.39868 1.3555-0.73518-0.20818-1.2819 0.33913 0.73091 0.8638 0 0-0.90367-0.1329-0.95683-0.05316-0.13289 0.27908 0.65118 0.61131 0.65118 0.61131 0.06645 0.14618-0.35881 0.2525-0.17276 0.41197 1.0499-0.27908 1.6612 1.5548 4.0267 1.9402z"/><path d="m-76.414 61.192c-3.0565-1.4352-3.4951-3.2027-3.6413-3.2293-0.1196 0.02658-0.14618 0.77078-0.14618 0.77078s-0.38539-0.95683-0.79736-1.1163l-0.1196 0.3721s-0.33223-0.14619-0.45184-0.07974c-0.1196 0.10631 0.02658 0.95683 0.02658 0.95683s-0.94354-0.51828-1.103-0.21263c-0.10631 0.06645-0.06645 0.38539-0.06645 0.38539s-0.66446 0.02658-0.71762 0.18606c-0.01329 0.14618 0.70433 0.66446 0.70433 0.66446s-0.61131 0.03987-0.61131 0.21263c0.06645 0.19934 0.73091 0.35881 0.73091 0.35881s-0.21262 0.38539-0.09302 0.53157c0.22592 0.14618 0.21263-0.77078 4.8107 0.93025 0 0 1.4485-0.59802 1.4751-0.73091z"/><path d="m-68.68 58.879c0.56243 0.05348 0.97126 0.45448 1.1781 0.57769 0.53872 0.32087 1.0338 0.5012 1.0412 0.60506-0.07974 0.1196-0.30565 0.13289-0.30565 0.13289s0.4917 0.42526 0.39868 0.59802c-0.39202-0.05094-0.95506 0.22208-1.6744-0.39867 0.43855 0.33223 1.4884 1.3156 1.4087 1.4352-0.1196 0.10631-0.55815-0.05316-0.55815-0.05316s-0.03987 0.7442-0.23921 0.75749c-0.19934 0.01329-0.69104-0.61131-0.69104-0.61131s-0.03987 0.35881-0.14618 0.34552c-0.21263 0-0.63789-0.9967-0.63789-0.9967s-0.06645 0.55815-0.17276 0.55815c-0.16205-0.01031-0.1073-0.26114-0.17798-0.3053-0.02653-0.04146-0.26057 0.15911-0.38018 0.06609-0.13289-0.06645 0.03988-0.54486 0.03988-0.54486s-0.38539 0.18604-0.53157 0.09302c-0.10631-0.22592 1.4087-1.7808 1.01-2.1263z"/><path d="m-72.095 60.062c0.41442-0.08041 0.37834 0.89315 0.59442 1.2773 0.38232 0.67974 0.81424 0.99514 0.94713 1.3407-0.07974 0.19934-0.95683-0.09302-0.95683-0.09302s0.66446 0.66446 0.66446 0.91696c-0.1196 0.10631-0.51828-0.14618-0.51828-0.14618s0.07973 0.58473-0.03987 0.69104c-0.82394-0.21263-1.2226-1.5283-1.2226-1.5283-0.18605 0.02658 0.3721 2.1927-0.57144 2.5781-0.38539-0.10631-0.45184-0.79736-0.45184-0.79736s-0.2525 0.71762-0.59802 0.83723c-0.09303-0.01329-0.1196-0.2525-0.1196-0.2525s-0.38539 0.39868-0.58473 0.3721c-0.10631-0.23921 0.33223-0.9967 0.33223-0.9967s-0.50499 0.25249-0.4917 0.09302c-0.1196-0.30565 0.82394-1.1827 0.82394-1.1827s-0.91696 0.15946-1.01 0.01328c-0.02658-0.15947 0.54486-0.6246 0.54486-0.6246s-0.43854-0.10632-0.42526-0.26579c0.01329-0.18605 1.0546-0.17031 1.3555-0.78407 0.34948-0.71275 1.2093-1.0233 1.1562-1.2492z"/><path d="m-75.457 61.192c-0.47842 0.82394-1e-6 3.1629-0.10632 3.3622-0.09302 0.07974-0.57144-0.29236-0.57144-0.29236s0.23921 0.83723 0.18605 1.0764c-0.10631 0.07974-0.41197-0.17276-0.41197-0.17276s-0.14618 0.70433-0.34552 0.7442c-0.47842-0.05316-0.4917-1.3555-0.4917-1.3555-0.13289 0-0.06645 1.6479-1.0499 2.1396-0.18605-0.07974-0.15947-0.55815-0.15947-0.55815s-0.54486 0.46513-0.67775 0.41197c-0.21263-0.07974 0-0.50499 0-0.50499s-0.33223 0.1196-0.41197-0.02658c-0.13289-0.27908 0.75749-0.95683 0.75749-0.95683s-0.87709 0.2525-0.97012 0.06645c-0.19934-0.22592 0.45184-0.6246 0.45184-0.6246l-0.41197-0.15947c-0.03987-0.15947 1.0978-0.46851 2.0598-1.7276 0.20822-0.27252 1.4485-1.196 1.4485-1.196z"/><path d="m-76.441 61.231c-3.6014-1.8738-3.2293-3.3356-3.5217-3.309-0.22592-0.03986-0.27907 0.66446-0.27907 0.66446s-0.4917-0.90367-0.73091-0.87709c-0.09302-0.01329-0.13289 0.31894-0.13289 0.31894s-0.35881-0.17276-0.45184-0.17276c-0.19934 0.14618 0.06645 0.94354 0.06645 0.94354s-1.0233-0.43855-1.1827-0.23921c-0.13289 0.1196 0.05316 0.59802 0.05316 0.59802s-0.4917-0.21263-0.61131 0c-0.22592 0.34552 0.54486 0.7442 0.54486 0.7442s-0.65117-0.01329-0.70433 0.14618c0.0073 0.40229 3.478 1.3988 4.7177 1.8073-0.30544 0.23584-1.7602-0.12575-2.7032-0.4893-1.3489-0.52004-1.9679-1.0779-2.2404-1.1719-0.11276 0.03759-0.13289 0.30565-0.13289 0.30565s-0.72674-0.20968-0.87709-0.10631c-0.07518 0.07518 0.02658 0.46512 0.02658 0.46512s-0.50955-0.10176-0.58473-0.02658c-0.08457 0.08457 0.03987 0.31894 0.03987 0.31894s-0.22431-0.03692-0.2525 0.06645c-0.02819 0.14095 0.26578 0.45184 0.26578 0.45184s-0.24149 0.0068-0.27908 0.1196c0 0.3007 2.4054 0.94354 2.4054 0.94354 0.01879 0.26312-2.4117-0.17037-2.8439 0.2525 0 0-0.51667 0.42431-0.54486 0.51828 0.01879 0.13156 0.7442 0.22592 0.7442 0.22592s-0.90756 0.76728-0.85118 0.94582c0.06578 0.17854 0.53224 0.03759 0.53224 0.03759s-0.2282 0.447-0.2282 0.55037c0.21613 0.07518 1.5672-0.7834 1.6236-0.73642 0 0-1.1081 0.94944-0.8638 1.1562 0.17854 0.04699 0.79736-0.21263 0.79736-0.21263s-0.09169 0.31344 0.03987 0.33223c0.12216 0.07518 1.4782-1.0421 4.1861-2.6844 0.02819 0.3195-2.6468 2.2079-2.6844 2.9502 0.06578 0.08457 0.38539 0.02658 0.38539 0.02658s-0.16431 0.59546-0.07974 0.71762c0.10337 0.02819 0.41197-0.1196 0.41197-0.1196s-0.03141 0.38606 0.05316 0.45184c0.48864-0.07518 1.0233-1.0764 1.0233-1.0764s0.01463 0.80581 0.14618 0.89038c0.45105-0.11276 0.75749-1.1163 0.75749-1.1163s-0.04793 0.46513 0.09302 0.46513c0.53563 0.07518 0.21938-1.1129 2.1927-3.9602l1.4884-0.65118s-2.5554 2.387-2.5648 2.6313l0.2525 0.03987s-0.71467 0.35692-0.67775 0.58473c0.09331 0.256 0.8638 0.02658 0.8638 0.02658s-0.93214 0.85158-0.7442 1.1429c0.07518 0.02819 0.27908-0.06645 0.27908-0.06645s-0.02524 0.4321 0.10632 0.54486c0.15975 0.10337 0.67775-0.39868 0.67775-0.39868s0.04832 0.48231 0.13289 0.4917c1.137-0.56382 0.64095-1.2757 1.1296-2.206 0 0 0.12617 1.3381 0.39868 1.4884 0.21613-0.0094 0.43855-0.70433 0.43855-0.70433s0.25088 0.12444 0.27908 0.03987c0.15975-0.02819-0.01328-0.89038-0.01328-0.89038s0.31411 0.24015 0.39868 0.14618c0.29131-0.15035-0.23064-1.2841 0.23921-3.2293z"/></g></g></g><g transform="translate(4.4476 2.523)"><g stroke-width="1.0782"><g transform="matrix(.90979 -.18041 .18041 .90979 -26.212 7.2866)"><path d="m30.937 1.0654c-0.73722 0.53308-0.66418 8.3988-1.3032 9.3761h0.21414c0.63899-0.26312 0.90109-8.5868 1.089-9.3761z" fill="#7a4e48"/><path d="m30.882-1.3502c0.39007-0.35305 0.03509 2.9735-0.15941 3.0392 0.16455-1.443 0.28084-2.635 0.15941-3.0392z" fill="#7a4e48"/><path d="m30.622-1.0099c-0.34474-0.11201-0.48589-0.066666-0.48589-0.066666s0.03806-0.11205 0.38665-0.044558c-0.02515-0.041719-0.04504-0.089761-0.05804-0.14206-0.15637-0.047256-0.29046-0.036839-0.29046-0.036839s0.11146-0.068495 0.27606-0.04671c-0.0082-0.081218-5.83e-4 -0.16916 0.02706-0.25778 0.10537-0.028505 0.20894-0.03029 0.30111-0.01225-0.06283-0.19296 0.01061-0.3379 0.01061-0.3379s-4.81e-4 0.18516 0.09267 0.36807c0.02833 0.011336 0.05481 0.024836 0.07907 0.040007-0.07856-0.34501 0.04416-0.40974 0.04416-0.40974s-0.03249 0.26298 0.08021 0.53507c0.10521 0.23478-0.20562 0.59893-0.46321 0.41137z" fill="#e65879" stroke="#e02953" stroke-width=".21348"/><path d="m33.662 1.8274c-0.29613-1.1994-2.806-3.4541-2.9691 0.72242 0.76719-3.4757 1.6966-2.1246 2.9691-0.72242z" fill="#7a4e48"/><path d="m33.359 1.2085c-0.02944 0.016745-0.05931 0.036424-0.0895 0.059035-0.26136 0.19607-0.29833 0.43456-0.19514 0.63426 0.10036 0.61337-0.01278 0.841-0.01278 0.841s0.19933-0.035652 0.17524-0.64409c0.06406 0.053401 0.14017 0.099487 0.22526 0.13501 0.03952 0.2773-0.01273 0.50196-0.01273 0.50196s0.14464-0.17133 0.15031-0.45601c0.13524 0.034809 0.28593 0.044588 0.44295 0.02055 0.07547-0.1713 0.1052-0.34646 0.0985-0.50737 0.3101 0.15625 0.57419 0.06909 0.57419 0.06909s-0.31326-0.046895-0.59853-0.25197c-0.01186-0.050956-0.02784-0.099337-0.04723-0.14437 0.56318 0.2221 0.70435 0.03072 0.70435 0.03072s-0.45313-0.012669-0.88417-0.27388c-0.1389-0.10876-0.32473-0.13135-0.53074-0.013978z" fill="#e65879" stroke="#e02953" stroke-width=".21348"/><path d="m28.962 1.8318c0.51412-1.1233 2.6513-3.2185 1.5771 0.70331 0.51544-3.2692-0.42087-2.0087-1.5771-0.70331z" fill="#7a4e48"/><path d="m29.386 1.1128c0.024 0.016096 0.04815 0.034793 0.07239 0.055935 0.20996 0.18331 0.22659 0.38691 0.12649 0.54816-0.12336 0.51019-0.04133 0.70989-0.04133 0.70989s-0.1672-0.043794-0.10896-0.55507c-0.05775 0.040609-0.1253 0.074214-0.19983 0.098297-0.0508 0.23106-0.02033 0.42406-0.02033 0.42406s-0.11229-0.15441-0.09945-0.3948c-0.1171 0.020026-0.24578 0.017888-0.37773-0.013195-0.05355-0.1496-0.06791-0.29933-0.05224-0.43453-0.27326 0.11036-0.4923 0.018686-0.4923 0.018686s0.26915-0.017952 0.52433-0.17118c0.01331-0.042112 0.02981-0.081839 0.04908-0.11847-0.49243 0.14843-0.60054-0.022632-0.60054-0.022632s0.38591 0.02054 0.76846-0.16998c0.1248-0.082124 0.28414-0.08836 0.45195 0.024782z" fill="#e65879" stroke="#e02953" stroke-width=".21348"/></g><g transform="matrix(-.91945 .12193 .12193 .91945 -10.37 -20.381)"><path d="m-8.789 24.859c-0.73722 0.53308-0.66418 8.3988-1.3032 9.3761h0.21414c0.63899-0.26312 0.90109-8.5868 1.089-9.3761z" fill="#7a4e48"/><path d="m-5.9366 25.525c0.0038-1.2354-1.8838-4.0318-3.0557-0.01977 1.5878-3.1856 2.1615-1.6493 3.0557 0.01977z" fill="#7a4e48"/><path d="m-6.0802 24.851c-0.03262 0.0091-0.06638 0.02094-0.10115 0.03555-0.30113 0.12678-0.39488 0.34916-0.34324 0.56794-0.0515 0.61939-0.21651 0.81275-0.21651 0.81275s0.20202 0.01379 0.32632-0.5823c0.04918 0.06735 0.11183 0.13053 0.18576 0.18564-0.02896 0.2786-0.13418 0.48386-0.13418 0.48386s0.18189-0.13111 0.25649-0.4059c0.12275 0.06659 0.26656 0.11265 0.42472 0.12744 0.11478-0.14786 0.18614-0.31056 0.2187-0.4683 0.26291 0.22684 0.54026 0.20638 0.54026 0.20638s-0.29251-0.12152-0.51948-0.38969c8.65e-4 -0.05231-0.0029-0.10312-0.01078-0.15152 0.49244 0.35214 0.67584 0.20074 0.67584 0.20074s-0.43651-0.12226-0.79126-0.48028c-0.10835-0.13922-0.28314-0.20623-0.51148-0.14237z" fill="#e65879" stroke="#e02953" stroke-width=".21348"/><path d="m-7.3471 26.017c0.0021-1.2354-1.0645-4.0318-1.7267-0.01977 0.89725-3.1856 1.2215-1.6493 1.7267 0.01977z" fill="#7a4e48"/><path d="m-7.4322 25.751c-0.02853 0.0046-0.05828 0.0115-0.08914 0.02058-0.26734 0.07885-0.36749 0.25689-0.3439 0.44521-0.10103 0.51508-0.25898 0.66225-0.25898 0.66225s0.1702 0.03005 0.33086-0.45881c0.03551 0.06102 0.08285 0.11977 0.1405 0.17278-0.05036 0.23115-0.15867 0.39378-0.15867 0.39378s0.16653-0.09339 0.25527-0.31717c0.09803 0.06711 0.21584 0.11892 0.34872 0.1458 0.11111-0.11358 0.18674-0.2436 0.22897-0.37299 0.20217 0.21442 0.43949 0.22262 0.43949 0.22262s-0.23704-0.12874-0.40489-0.37455c0.0055-0.04382 0.0071-0.08681 0.0049-0.12814 0.38541 0.34056 0.55509 0.23029 0.55509 0.23029s-0.35921-0.14254-0.6272-0.47543c-0.07909-0.12675-0.22126-0.19897-0.42098-0.16627z" fill="#e65879" stroke="#e02953" stroke-width=".21348"/></g><g transform="matrix(.9275 0 0 .9275 4.0735 -3.2397)"><path d="m0.25382 2.0346c-0.73722 0.53308-0.66418 12.665-1.3032 13.642h0.21414c0.63899-0.26312 0.90109-12.853 1.089-13.642z" fill="#7a4e48"/><path d="m-2.7267 1.9417c0.61458-1.0716 3.6478-2.5491 2.6559 1.5112 0.21837-3.5527-1.0468-2.5093-2.6559-1.5112z" fill="#7a4e48"/><path d="m-2.2653 1.43c0.0237 0.0242 0.04701 0.05133 0.0698 0.08137 0.19735 0.2604 0.16731 0.49985 0.01316 0.66348-0.2652 0.56211-0.21902 0.81208-0.21902 0.81208s-0.18183-0.0891 0.0086-0.66744c-0.07627 0.03372-0.16212 0.0571-0.2537 0.06784-0.11427 0.25574-0.12582 0.48611-0.12582 0.48611s-0.09193-0.2045-0.01909-0.47977c-0.1396-0.0038-0.28717-0.03577-0.43151-0.10207-0.02544-0.18545-0.0058-0.36203 0.04484-0.5149-0.34112 0.06493-0.57105-0.0915-0.57105-0.0915s0.31407 0.04108 0.64474-0.07763c0.02541-0.04573 0.05409-0.08786 0.08511-0.12581-0.60255 0.05862-0.68564-0.16419-0.68564-0.16419s0.43914 0.11245 0.9254-0.02013c0.16346-0.06637 0.34833-0.03697 0.51412 0.13254z" fill="#e65879" stroke="#e02953" stroke-width=".21348"/><path d="m1.6582 3.0797c0.0021-1.2354-1.0645-4.0318-1.7267-0.01977 0.89725-3.1856 1.2215-1.6493 1.7267 0.01977z" fill="#7a4e48"/><path d="m1.5731 2.2493c-0.02853 0.0046-0.05828 0.0115-0.08914 0.02058-0.26734 0.07885-0.36749 0.25689-0.3439 0.44521-0.10103 0.51508-0.25898 0.66225-0.25898 0.66225s0.1702 0.03005 0.33086-0.45881c0.03551 0.06102 0.08285 0.11977 0.1405 0.17278-0.05036 0.23115-0.15867 0.39378-0.15867 0.39378s0.16653-0.09339 0.25527-0.31717c0.09803 0.06711 0.21584 0.11892 0.34872 0.1458 0.11111-0.11358 0.18674-0.2436 0.22897-0.37299 0.20217 0.21442 0.43949 0.22262 0.43949 0.22262s-0.23704-0.12874-0.40489-0.37455c0.0055-0.04382 0.0071-0.08681 0.0049-0.12814 0.38541 0.34056 0.55509 0.23029 0.55509 0.23029s-0.35921-0.14254-0.6272-0.47543c-0.07909-0.12675-0.22126-0.19897-0.42098-0.16627z" fill="#e65879" stroke="#e02953" stroke-width=".21348"/><path d="m-1.6557 2.8755c0.4882-1.1348 2.5768-3.2785 1.5929 0.66693 0.44028-3.2801-0.46686-1.9985-1.5929-0.66693z" fill="#7a4e48"/><path d="m-1.4061 2.4594c0.02725 0.0096 0.05529 0.02172 0.08403 0.03617 0.24896 0.12532 0.31571 0.31838 0.25888 0.49947 0.0074 0.52484 0.13656 0.69785 0.13656 0.69785s-0.17284-8.31e-4 -0.24362-0.51052c-0.04584 0.0537-0.1029 0.10305-0.16909 0.14491 0.0083 0.23643 0.0858 0.41579 0.0858 0.41579s-0.14717-0.12163-0.19453-0.35765c-0.10844 0.04853-0.23361 0.07846-0.36914 0.0812-0.08904-0.1316-0.14024-0.27302-0.15868-0.40788-0.23721 0.17487-0.47217 0.14056-0.47217 0.14056s0.25622-0.08433 0.46526-0.29623c0.0024-0.0441 0.0085-0.08668 0.01806-0.12695-0.44003 0.26626-0.58728 0.12751-0.58728 0.12751s0.37888-0.0761 0.70202-0.35579c0.10045-0.11059 0.25323-0.15627 0.44391-0.08842z" fill="#e65879" stroke="#e02953" stroke-width=".21348"/></g></g><g transform="matrix(-.77688 .17203 .17203 .77688 12.681 2.986)" stroke-width="1.2568"><path d="m16.437-0.16365c-0.73722 0.53308 0.17772 5.4621-0.46127 6.4394h0.21414c0.63899-0.26312 0.05919-5.6501 0.24713-6.4394z" fill="#7a4e48"/><path d="m17.841 0.88141c0.0021-1.2354-1.0645-4.0318-1.7267-0.01977 0.89725-3.1856 1.2215-1.6493 1.7267 0.01977z" fill="#7a4e48"/><path d="m17.756 0.050964c-0.02853 0.0046-0.05828 0.0115-0.08914 0.02058-0.26734 0.07885-0.36749 0.25689-0.3439 0.44521-0.10103 0.51508-0.25898 0.66225-0.25898 0.66225s0.1702 0.03005 0.33086-0.45881c0.03551 0.06102 0.08285 0.11977 0.1405 0.17278-0.05036 0.23115-0.15867 0.39378-0.15867 0.39378s0.16653-0.09339 0.25527-0.31717c0.09803 0.06711 0.21584 0.11892 0.34872 0.1458 0.11111-0.11358 0.18674-0.2436 0.22897-0.37299 0.20217 0.21442 0.43949 0.22262 0.43949 0.22262s-0.23704-0.12874-0.40489-0.37455c0.0055-0.04382 0.0071-0.08681 0.0049-0.12814 0.38541 0.34056 0.55509 0.23029 0.55509 0.23029s-0.35921-0.14254-0.6272-0.47543c-0.07909-0.12675-0.22126-0.19897-0.42098-0.16627z" fill="#e65879" stroke="#e02953" stroke-width=".24884"/><path d="m14.527 0.67723c0.4882-1.1348 2.5768-3.2785 1.5929 0.66693 0.44028-3.2801-0.46686-1.9985-1.5929-0.66693z" fill="#7a4e48"/><path d="m14.777 0.26112c0.02725 0.0096 0.05529 0.02172 0.08403 0.03617 0.24896 0.12532 0.31571 0.31838 0.25888 0.49947 0.0074 0.52484 0.13656 0.69785 0.13656 0.69785s-0.17284-8.31e-4 -0.24362-0.51052c-0.04584 0.0537-0.1029 0.10305-0.16909 0.14491 0.0083 0.23643 0.0858 0.41579 0.0858 0.41579s-0.14717-0.12163-0.19453-0.35765c-0.10844 0.04853-0.23361 0.07846-0.36914 0.0812-0.08904-0.1316-0.14024-0.27302-0.15868-0.40788-0.23721 0.17487-0.47217 0.14056-0.47217 0.14056s0.25622-0.08433 0.46526-0.29623c0.0024-0.0441 0.0085-0.08668 0.01806-0.12695-0.44003 0.26626-0.58728 0.12751-0.58728 0.12751s0.37888-0.0761 0.70202-0.35579c0.10045-0.11059 0.25323-0.15627 0.44391-0.08842z" fill="#e65879" stroke="#e02953" stroke-width=".24884"/></g><g fill="#44803d" stroke="#34642f" stroke-width=".19844"><path d="m4.3328 10.464c-0.91497 0.93082-1.4432 0.92646-1.4502 0.99212-0.028173 0.05408 0.23369 0.02722 0.23369 0.02722s-0.36863 0.16302-0.37259 0.21647c-0.010397 0.0221 0.11223 0.01282 0.11223 0.01282s-0.085921 0.09197-0.091343 0.11333c0.043361 0.03766 0.35882-0.06759 0.35882-0.06759s-0.22466 0.25927-0.15897 0.28483c0.037242 0.02388 0.22807-0.04536 0.22807-0.04536s-0.10867 0.12469-0.035667 0.14036c0.1168 0.03273 0.31174-0.16638 0.31174-0.16638s-0.042995 0.15025 0.013907 0.15361c0.15176-0.02398 0.72906-0.87613 0.95508-1.1834 0.070908 0.05705-0.14998 0.41113-0.34174 0.64781-0.27431 0.33856-0.52028 0.51162-0.57153 0.5794 0.00757 0.0238 0.10723 0.01355 0.10723 0.01355s-0.12128 0.17849-0.091153 0.20728c0.023901 0.01306 0.17653-0.0319 0.17653-0.0319s-0.068002 0.12264-0.044111 0.13573c0.026882 0.01473 0.12231-0.02685 0.12231-0.02685s-0.026974 0.05355 0.010275 0.05429c0.051379-0.0014 0.18548-0.08609 0.18548-0.08609s-0.011569 0.05506 0.02872 0.05745c0.11312-0.01668 0.49525-0.60461 0.49525-0.60461 0.10008-0.01891-0.20476 0.56318-0.070896 0.63897 0 0 0.12948 0.0951 0.16319 0.09635 0.050583-0.01161 0.1284-0.1834 0.1284-0.1834s0.2357 0.16583 0.30616 0.14298c0.071-0.025 0.04521-0.12428 0.04521-0.12428s0.15484 0.0276 0.19373 0.02187c0.040884-0.0538-0.20329-0.31639-0.18233-0.33194 0 0 0.29253 0.20178 0.38455 0.13421 0.028093-0.0436-0.033475-0.17129-0.033475-0.17129s0.11256 0.0037 0.12731-0.02759c0.035418-0.03221-0.30582-0.2816-0.76568-0.81227 0.12184-0.02419 0.67619 0.48528 0.95326 0.45274 0.03565-0.0198 0.032453-0.08997 0.032453-0.08997s0.21442 0.0047 0.26531-0.0215c0.016644-0.02529-0.020964-0.08795-0.020964-0.08795s0.1434-0.0142 0.17308-0.03726c2.133e-4 -0.10803-0.34526-0.17525-0.34526-0.17525s0.30399-0.04805 0.34348-0.08294c-0.016107-0.09731-0.37575-0.11201-0.37575-0.11201s0.17218-0.01479 0.1804-0.04715c0.05953-0.12715-0.40588 0.01136-1.3619-0.28382l-0.15815-0.30563s0.74889 0.45436 0.84025 0.44297l0.02973-0.06018s0.092581 0.1443 0.18044 0.12319c0.10176-0.0356 0.060383-0.19981 0.060383-0.19981s0.26598 0.1668 0.38653 0.10749c0.014973-0.01885-0.00873-0.06039-0.00873-0.06039s0.16108-0.01817 0.21117-0.05463c0.048209-0.04241-0.11045-0.1335-0.11045-0.1335s0.18426-0.03785 0.19273-0.05778c-0.14579-0.2298-0.44253-0.07641-0.76399-0.13701 0 0 0.51072-0.10318 0.58318-0.17408 0.00906-0.04911-0.23938-0.06162-0.23938-0.06162s0.061474-0.06449 0.031273-0.0663c-0.00128-0.0351-0.33573 0.05242-0.33573 0.05242s0.10866-0.08544 0.078245-0.09965c-0.039566-0.05854-0.49652 0.12419-1.2009 0.12419z"/><path d="m2.4857 10.388c-1.1934 0.53341-1.6835 0.33712-1.7142 0.39567-0.04608 0.04009 0.20753 0.11038 0.20753 0.11038s-0.40298 0.01758-0.42629 0.06588c-0.017793 0.01678 0.099761 0.05277 0.099761 0.05277s-0.11374 0.05432-0.12663 0.07225c0.026536 0.05082 0.35882 0.06768 0.35882 0.06768s-0.30431 0.15956-0.25255 0.20726c0.025898 0.03577 0.22895 0.04077 0.22895 0.04077s-0.14693 0.07652-0.084732 0.11766c0.096701 0.07297 0.35126-0.04141 0.35126-0.04141s-0.095183 0.1242-0.043454 0.14804c0.15007 0.0329 1.0003-0.55016 1.3235-0.75395 0.045056 0.07891-0.29055 0.32809-0.55595 0.4786-0.37964 0.21529-0.67213 0.28686-0.74472 0.3313-0.0017 0.02491 0.094834 0.05165 0.094834 0.05165s-0.17842 0.122-0.16095 0.15976c0.017452 0.02085 0.17603 0.03454 0.17603 0.03454s-0.10833 0.08941-0.090893 0.11028c0.01961 0.0235 0.1237 0.01953 0.1237 0.01953s-0.044769 0.04003-0.010371 0.05427c0.048327 0.01742 0.20425-0.01263 0.20425-0.01263s-0.030978 0.04704 0.00565 0.06393c0.11142 0.02564 0.68298-0.38252 0.68298-0.38252 0.1001 0.01882-0.39736 0.44968-0.30059 0.56894 0 0 0.08561 0.13564 0.11653 0.14907 0.051346 0.0076 0.18685-0.12398 0.18685-0.12398s0.15852 0.24012 0.23249 0.2445c0.075269 0.0025 0.087714-0.09923 0.087714-0.09923s0.134 0.08203 0.1723 0.09085c0.057807-0.03519-0.073072-0.36847-0.047851-0.37531 0 0 0.19822 0.29426 0.30868 0.26486 0.042159-0.03035 0.031727-0.17161 0.031727-0.17161s0.10342 0.0444 0.12863 0.02065c0.044795-0.0171-0.18127-0.3734-0.4145-1.0347 0.12229 0.02182 0.45124 0.69776 0.7211 0.7683 0.04045-0.0054 0.063237-0.07193 0.063237-0.07193s0.19787 0.08238 0.25485 0.07654c0.024777-0.01748 0.012781-0.0895 0.012781-0.0895s0.13869 0.03896 0.17479 0.0283c0.039865-0.10046-0.25703-0.28876-0.25703-0.28876s0.3006 0.0659 0.35017 0.0478c0.020735-0.09643-0.30864-0.241-0.30864-0.241s0.1657 0.04888 0.18524 0.02177c0.10209-0.09669-0.38197-0.13714-1.1635-0.75979l-0.035004-0.34202s0.53027 0.69544 0.6195 0.71808l0.049769-0.0452s0.033199 0.168 0.12273 0.18032c0.10779 0.0038 0.12957-0.164 0.12957-0.164s0.18635 0.25204 0.32033 0.24071c0.020857-0.01209 0.01405-0.05939 0.01405-0.05939s0.15661 0.04171 0.21662 0.02601c0.060445-0.02193-0.053796-0.16446-0.053796-0.16446s0.18541 0.03184 0.20061 0.01633c-0.051334-0.26694-0.38386-0.23217-0.66084-0.40556 0 0 0.51327 0.08981 0.60675 0.05019 0.026457-0.04242-0.2002-0.14448-0.2002-0.14448s0.080897-0.03765 0.053447-0.05032c0.011694-0.03314-0.33175-0.07337-0.33175-0.07337s0.13252-0.03998 0.10942-0.06427c-0.015335-0.0689-0.50777-0.06511-1.1634-0.32143z"/><path d="m0.35227 10.396c1.1037 0.69938 1.617 0.5756 1.6389 0.63794 0.03979 0.04629-0.22135 0.07939-0.22135 0.07939s0.39622 0.07532 0.41228 0.12648c0.015171 0.01918-0.10636 0.03789-0.10636 0.03789s0.10466 0.07014 0.11484 0.08969c-0.033623 0.04648-0.36487 0.01538-0.36487 0.01538s0.27799 0.20166 0.21988 0.2414c-0.030805 0.03169-0.23246 0.0074-0.23246 0.0074s0.13431 0.09683 0.066797 0.12861c-0.10626 0.05831-0.34159-0.09148-0.34159-0.09148s0.076192 0.13658 0.021552 0.15273c-0.15326 0.01099-0.91012-0.6882-1.2004-0.93632-0.056014 0.07162 0.23998 0.36642 0.48079 0.5535 0.34447 0.26761 0.62354 0.38048 0.68893 0.43489-0.00192 0.02489-0.10132 0.03747-0.10132 0.03747s0.15888 0.14637 0.13612 0.18122c-0.02029 0.01811-0.17919 0.0089-0.17919 0.0089s0.09424 0.10404 0.073964 0.1222c-0.022808 0.02045-0.12524 0.0015-0.12524 0.0015s0.038501 0.04604 0.00239 0.05519c-0.050343 0.01028-0.20029-0.04185-0.20029-0.04185s0.023836 0.05102-0.014838 0.06244c-0.11397 0.0094-0.62041-0.4767-0.62041-0.4767-0.10177 0.0042 0.32806 0.50209 0.21502 0.60619 0 0-0.10436 0.12191-0.1369 0.13076-0.051909 1.35e-4 -0.16693-0.14955-0.16693-0.14955s-0.19165 0.21482-0.26547 0.20852c-0.07485-0.0083-0.07242-0.1108-0.07242-0.1108s-0.14448 0.06192-0.18366 0.06513c-0.052094-0.04315 0.12569-0.3541 0.10172-0.3645 0 0-0.23877 0.26269-0.34382 0.21772-0.037317-0.03611-0.006531-0.17438-0.006531-0.17438s-0.10877 0.02905-0.13027 0.0019c-0.041841-0.02338 0.23347-0.34343 0.56005-0.96427-0.12417 4e-3 -0.54761 0.62559-0.82486 0.6566-0.039242-0.01114-0.052154-0.08027-0.052154-0.08027s-0.20773 0.05309-0.26327 0.03911c-0.021964-0.02089 3.142e-4 -0.0904 3.142e-4 -0.0904s-0.14289 0.01861-0.17706 3e-3c-0.024894-0.10514 0.29617-0.24879 0.29617-0.24879s-0.307 0.02199-0.35343-0.0031c-0.00655-0.09842 0.34032-0.19413 0.34032-0.19413s-0.17105 0.02456-0.18645-5e-3c-0.087027-0.11031 0.39784-0.08075 1.2614-0.58454l0.084182-0.33341s-0.62547 0.61193-0.71704 0.62151l-0.042704-0.05187s-0.057188 0.16147-0.14757 0.16079c-0.10723-0.01165-0.10445-0.18091-0.10445-0.18091s-0.22091 0.22262-0.35185 0.19214c-0.018879-0.01498-0.0053-0.06078-0.0053-0.06078s-0.16101 0.01876-0.21812-0.0054c-0.056643-0.03037 0.077058-0.155 0.077058-0.155s-0.18808 0.0049-0.20088-0.01264c0.089466-0.25677 0.41348-0.17456 0.71268-0.30632 0 0-0.52091 0.01509-0.60767-0.03756-0.020034-0.04578 0.21903-0.11419 0.21903-0.11419s-0.074576-0.04891-0.045599-0.05747c-0.00676-0.03447 0.33891-0.02491 0.33891-0.02491s-0.12533-0.05862-0.098962-0.07933c0.025156-0.06597 0.51189 0.0085 1.1978-0.15083z"/></g><g transform="matrix(.26295 .20075 .20262 -.26133 14.823 50.769)" stroke="#34642f"><path d="m-113.92 67.886c0.5474 0.34734 6.8109 11.908 7.9623 11.385 0 0 0.0569-0.12413 0.34796-0.5752-0.90331 1.8146-7.0704-10.005-8.3103-10.81z" fill="#7a4e48" stroke-width=".59865"/><g fill="#44803d" stroke-width=".59997"><path d="m-107.57 77.647c0.96766-0.39874 2.4851 0.15511 2.4676-0.14699-0.0155-0.16659-0.62806-0.59527-0.62806-0.59527 0.3032 0.1454 0.9402 0.0845 1.3098-0.12364-0.0837-0.62923-1.1871-0.55642-1.3528-0.78989 0 0 1.7218-0.20773 2.173-0.62185-0.14636-0.31259-0.81675-0.27402-0.80896-0.36406 0 0 0.9411-0.20894 0.88414-0.53648l-0.26004-0.13624s0.23435-0.28777 0.18599-0.38611c-0.36356-0.17318-0.99721 0.36859-0.99721 0.36859s0.26494-0.45049 0.19899-0.50426c-0.70382-0.2329-1.2342 0.98026-1.4585 1.0831-0.15052-0.13264 0.49238-1.1057 0.24817-1.1685-0.21539-0.10741-0.98364 0.78861-0.98364 0.78861s-0.18783-0.44386-0.43077-0.21481c0.0452 0.56701-1.4681 1.9311-0.54777 3.3478z"/><path d="m-109.68 73.914c1.0025-1.6569 3.527-1.7385 3.4529-2.5245 0.1417-0.28881-0.66776-0.38634-0.66776-0.38634s0.82185-0.47609 0.79627-0.97356c-0.11253-0.20686-0.92159 0.07615-0.92159 0.07615s0.92698-1.1241 0.88001-1.6577c-0.13592-0.37855-0.77409 0.0036-0.77409 0.0036s0.72672-0.91779 0.73111-1.1498c-0.41053-0.26502-1.2412 0.67516-1.2412 0.67516 0.0487-0.76253-0.60144-1.1817-0.69054 0.89641 0 0-0.0604-0.91139-0.1495-0.94657-0.3008-0.07115-0.46049 0.7653-0.46049 0.7653-0.12891 0.09574-0.32239-0.2976-0.43911-0.08214 0.49388 0.96756-1.1702 1.9513-1.0489 4.3449z"/><path d="m-111.67 70.63c0.75947-3.2902 2.395-4.0911 2.3902-4.2396-0.0512-0.11133-0.78428 0.01939-0.78428 0.01939s0.85423-0.57822 0.92338-1.0145l-0.38894-0.03857s0.073-0.35557-0.0172-0.4585c-0.12911-0.09454-0.92978 0.22746-0.92978 0.22746s0.30799-1.0315-0.0244-1.1231c-0.0874-0.08994-0.39074 0.01619-0.39074 0.01619s-0.1659-0.64397-0.33299-0.66236c-0.1457 0.01779-0.50126 0.82845-0.50126 0.82845s-0.1677-0.58921-0.33658-0.55283c-0.18088 0.10693-0.19687 0.79008-0.19687 0.79008s-0.42152-0.12671-0.53924 0.02099c-0.0953 0.25163 0.79827 0.04557 0.10356 4.8988 0 0 0.88961 1.2901 1.0251 1.2881z"/><path d="m-107.78 77.704c0.0661 0.56108-0.23978 1.0452-0.31667 1.2734-0.20024 0.59421-0.27229 1.1161-0.37226 1.1452-0.13371-0.05277-0.19427-0.27082-0.19427-0.27082s-0.31219 0.57022-0.50067 0.51566c-0.0327-0.39396-0.4182-0.88689 0.0372-1.7209-0.23244 0.49867-0.97275 1.7321-1.1065 1.6793-0.12911-0.09454-0.0656-0.55683-0.0656-0.55683s-0.73591 0.11772-0.79087-0.07435c-0.055-0.19207 0.45209-0.80427 0.45209-0.80427s-0.35916 0.03658-0.36855-0.07015c-0.0448-0.20786 0.84004-0.83345 0.84004-0.83345s-0.55964 0.05257-0.58202-0.05136c-0.024-0.16059 0.23269-0.15988 0.26098-0.23827 0.035-0.03467-0.21041-0.22123-0.14466-0.35774 0.037-0.14391 0.54104-0.07574 0.54104-0.07574s-0.26302-0.33758-0.20286-0.50007c0.19846-0.1515 2.0374 1.0021 2.2913 0.53963z"/><path d="m-109.66 74.615c0.16587 0.3882-0.79346 0.55792-1.1235 0.85005-0.58399 0.51688-0.80138 1.0055-1.1112 1.2082-0.21166-0.03598-0.11053-0.95496-0.11053-0.95496s-0.50966 0.78948-0.7565 0.84264c-0.12911-0.09454 0.0338-0.53744 0.0338-0.53744s-0.55483 0.20106-0.68394 0.10653c0.0344-0.85024 1.2366-1.517 1.2366-1.517-0.0652-0.17628-2.0652 0.82546-2.6406-0.01578 0.0228-0.39914 0.68434-0.6096 0.68434-0.6096s-0.7547-0.09573-0.94437-0.40832c-7e-3 -0.09374 0.22165-0.17009 0.22165-0.17009s-0.47089-0.2928-0.48688-0.49327c0.21146-0.1543 1.0443 0.11492 1.0443 0.11492s-0.35316-0.44051-0.19447-0.46109c0.27362-0.18128 1.3297 0.55642 1.3297 0.55642s-0.34896-0.86283-0.22565-0.98455c0.1503-0.05956 0.72532 0.40113 0.72532 0.40113s0.0116-0.4511 0.17029-0.47169c0.18468-0.02618 0.38854 0.99506 1.0519 1.16 0.77036 0.19157 1.255 0.96675 1.4646 0.86722z"/><path d="m-111.47 71.566c-0.9062-0.2942-3.092 0.66597-3.3092 0.60402-0.0975-0.07414 0.16548-0.62019 0.16548-0.62019s-0.76809 0.41013-1.0131 0.40853c-0.10034-0.08714 0.0821-0.43911 0.0821-0.43911s-0.71933 0.0054-0.80027-0.18108c-0.0488-0.47888 1.2216-0.7661 1.2216-0.7661-0.028-0.12991-1.6249 0.28202-2.3127-0.57581 0.0388-0.19867 0.51206-0.27342 0.51206-0.27342s-0.56942-0.43471-0.54544-0.57582c0.0332-0.22465 0.49367-0.10633 0.49367-0.10633s-0.18687-0.2996-0.0608-0.40833c0.24484-0.18868 1.0949 0.53904 1.0949 0.53904s-0.43152-0.80426-0.26923-0.93438c0.17888-0.24244 0.70574 0.31019 0.70574 0.31019l0.0691-0.43631c0.1475-0.07256 0.68917 0.97457 2.1226 1.6499 0.31025 0.14616 1.4742 1.1642 1.4742 1.1642z"/><path d="m-111.71 70.613c1.0735-3.9152 2.5809-3.8592 2.4933-4.1395-9e-3 -0.22925-0.70833-0.13291-0.70833-0.13291s0.77988-0.67096 0.70353-0.89921c-7e-3 -0.09373-0.33978-0.06276-0.33978-0.06276s0.0933-0.38714 0.0738-0.47808c-0.18487-0.16409-0.90839 0.26363-0.90839 0.26363s0.21325-1.0927-0.0152-1.2066c-0.14491-0.10473-0.57342 0.17789-0.57342 0.17789s0.10433-0.52545-0.12872-0.5976c-0.38534-0.1481-0.61279 0.68934-0.61279 0.68934s-0.12412-0.63937-0.29121-0.65776c-0.39173 0.09184-0.63507 3.6945-0.77346 4.9925-0.29487-0.24893-0.2477-1.7472-0.0909-2.7456 0.22435-1.4282 0.63937-2.1507 0.67385-2.4369-0.0605-0.10232-0.32678-0.06555-0.32678-0.06555s0.052-0.7546-0.0807-0.87982c-0.0893-0.05767-0.4491 0.12392-0.4491 0.12392s-8e-3 -0.51956-0.0971-0.57722c-0.10048-0.06487-0.3034 0.10613-0.3034 0.10613s-0.0111-0.22705-0.11812-0.23284c-0.14373 0.0021-0.38574 0.35496-0.38574 0.35496s-0.0575-0.23464-0.17569-0.24764c-0.29396 0.06332-0.41591 2.5501-0.41591 2.5501-0.25326 0.07377-0.34125-2.3935-0.84565-2.727 0 0-0.52359-0.41574-0.62139-0.42352-0.12465 0.04607-0.0642 0.77509-0.0642 0.77509s-0.94117-0.72566-1.1038-0.63295c-0.16069 0.1019 0.0753 0.52822 0.0753 0.52822s-0.48503-0.12896-0.58608-0.1072c-0.028 0.22711 1.0958 1.3671 1.0618 1.4321 0 0-1.1615-0.88337-1.3121-0.60099-8e-3 0.18443 0.37576 0.73471 0.37576 0.73471s-0.32572-0.02364-0.31639 0.10893c-0.0478 0.13525 1.33 1.2256 3.5057 3.527-0.30639 0.09483-2.7157-2.1226-3.4493-2.0031-0.0688 0.08211 0.0552 0.38235 0.0552 0.38235s-0.61671-0.03525-0.71832 0.07315c-6e-3 0.10698 0.20366 0.37755 0.20366 0.37755s-0.38401 0.05058-0.43051 0.14711c0.17638 0.46186 1.2678 0.77368 1.2678 0.77368s-0.78466 0.18397-0.83964 0.33038c0.20521 0.4172 1.2508 0.50546 1.2508 0.50546s-0.46479 0.05108-0.43511 0.18887c0.0393 0.53945 1.1342-0.01988 4.3331 1.3097l0.94998 1.3179s-2.8715-1.9955-3.1123-1.9533l0.0142 0.25523s-0.4994-0.6235-0.71433-0.53944c-0.23062 0.14512 0.1559 0.85004 0.1559 0.85004s-1.0288-0.73193-1.274-0.48687c-0.0117 0.07943 0.12372 0.25883 0.12372 0.25883s-0.42772 0.06631-0.51026 0.21866c-0.0674 0.17793 0.53245 0.57861 0.53245 0.57861s-0.46132 0.14879-0.4527 0.23345c0.79059 0.99282 1.3821 0.35796 2.3944 0.63976 0 0-1.2815 0.40508-1.3711 0.70314 0.0547 0.2093 0.78088 0.28041 0.78088 0.28041s-0.0688 0.27146 0.0198 0.28121c0.0612 0.15023 0.86763-0.20046 0.86763-0.20046s-0.16863 0.35763-0.059 0.42052c0.20832 0.25312 1.2068-0.49586 3.2073-0.44612z"/></g></g><g transform="matrix(.9275 0 0 .9275 14.676 -20.787)" stroke-width="1.0782"><path d="m-8.789 24.859c-0.73722 0.53308-0.66418 8.3988-1.3032 9.3761h0.21414c0.63899-0.26312 0.90109-8.5868 1.089-9.3761z" fill="#7a4e48"/><path d="m-5.9366 25.525c0.0038-1.2354-1.8838-4.0318-3.0557-0.01977 1.5878-3.1856 2.1615-1.6493 3.0557 0.01977z" fill="#7a4e48"/><path d="m-6.0802 24.851c-0.03262 0.0091-0.06638 0.02094-0.10115 0.03555-0.30113 0.12678-0.39488 0.34916-0.34324 0.56794-0.0515 0.61939-0.21651 0.81275-0.21651 0.81275s0.20202 0.01379 0.32632-0.5823c0.04918 0.06735 0.11183 0.13053 0.18576 0.18564-0.02896 0.2786-0.13418 0.48386-0.13418 0.48386s0.18189-0.13111 0.25649-0.4059c0.12275 0.06659 0.26656 0.11265 0.42472 0.12744 0.11478-0.14786 0.18614-0.31056 0.2187-0.4683 0.26291 0.22684 0.54026 0.20638 0.54026 0.20638s-0.29251-0.12152-0.51948-0.38969c8.65e-4 -0.05231-0.0029-0.10312-0.01078-0.15152 0.49244 0.35214 0.67584 0.20074 0.67584 0.20074s-0.43651-0.12226-0.79126-0.48028c-0.10835-0.13922-0.28314-0.20623-0.51148-0.14237z" fill="#e65879" stroke="#e02953" stroke-width=".21348"/><path d="m-7.3471 26.017c0.0021-1.2354-1.0645-4.0318-1.7267-0.01977 0.89725-3.1856 1.2215-1.6493 1.7267 0.01977z" fill="#7a4e48"/><path d="m-7.4322 25.751c-0.02853 0.0046-0.05828 0.0115-0.08914 0.02058-0.26734 0.07885-0.36749 0.25689-0.3439 0.44521-0.10103 0.51508-0.25898 0.66225-0.25898 0.66225s0.1702 0.03005 0.33086-0.45881c0.03551 0.06102 0.08285 0.11977 0.1405 0.17278-0.05036 0.23115-0.15867 0.39378-0.15867 0.39378s0.16653-0.09339 0.25527-0.31717c0.09803 0.06711 0.21584 0.11892 0.34872 0.1458 0.11111-0.11358 0.18674-0.2436 0.22897-0.37299 0.20217 0.21442 0.43949 0.22262 0.43949 0.22262s-0.23704-0.12874-0.40489-0.37455c0.0055-0.04382 0.0071-0.08681 0.0049-0.12814 0.38541 0.34056 0.55509 0.23029 0.55509 0.23029s-0.35921-0.14254-0.6272-0.47543c-0.07909-0.12675-0.22126-0.19897-0.42098-0.16627z" fill="#e65879" stroke="#e02953" stroke-width=".21348"/></g><g transform="matrix(-.28439 .22028 -.22189 -.28304 -9.2682 55.067)" stroke="#34642f"><path d="m-113.92 67.886c0.5474 0.34734 7.3396 11.638 7.3396 11.638l0.17579-0.03359s-6.2756-10.799-7.5154-11.604z" fill="#7a4e48" stroke-width=".55048"/><g fill="#44803d" stroke-width=".5517"><path d="m-107.57 77.647c0.96766-0.39874 2.4851 0.15511 2.4676-0.14699-0.0155-0.16659-0.62806-0.59527-0.62806-0.59527 0.3032 0.1454 0.9402 0.0845 1.3098-0.12364-0.0837-0.62923-1.1871-0.55642-1.3528-0.78989 0 0 1.7218-0.20773 2.173-0.62185-0.14636-0.31259-0.81675-0.27402-0.80896-0.36406 0 0 0.9411-0.20894 0.88414-0.53648l-0.26004-0.13624s0.23435-0.28777 0.18599-0.38611c-0.36356-0.17318-0.99721 0.36859-0.99721 0.36859s0.26494-0.45049 0.19899-0.50426c-0.70382-0.2329-1.2342 0.98026-1.4585 1.0831-0.15052-0.13264 0.49238-1.1057 0.24817-1.1685-0.21539-0.10741-0.98364 0.78861-0.98364 0.78861s-0.18783-0.44386-0.43077-0.21481c0.0452 0.56701-1.4681 1.9311-0.54777 3.3478z"/><path d="m-109.68 73.914c1.0025-1.6569 3.527-1.7385 3.4529-2.5245 0.1417-0.28881-0.66776-0.38634-0.66776-0.38634s0.82185-0.47609 0.79627-0.97356c-0.11253-0.20686-0.92159 0.07615-0.92159 0.07615s0.92698-1.1241 0.88001-1.6577c-0.13592-0.37855-0.77409 0.0036-0.77409 0.0036s0.72672-0.91779 0.73111-1.1498c-0.41053-0.26502-1.2412 0.67516-1.2412 0.67516 0.0487-0.76253-0.60144-1.1817-0.69054 0.89641 0 0-0.0604-0.91139-0.1495-0.94657-0.3008-0.07115-0.46049 0.7653-0.46049 0.7653-0.12891 0.09574-0.32239-0.2976-0.43911-0.08214 0.49388 0.96756-1.1702 1.9513-1.0489 4.3449z"/><path d="m-111.67 70.63c0.75947-3.2902 2.395-4.0911 2.3902-4.2396-0.0512-0.11133-0.78428 0.01939-0.78428 0.01939s0.85423-0.57822 0.92338-1.0145l-0.38894-0.03857s0.073-0.35557-0.0172-0.4585c-0.12911-0.09454-0.92978 0.22746-0.92978 0.22746s0.30799-1.0315-0.0244-1.1231c-0.0874-0.08994-0.39074 0.01619-0.39074 0.01619s-0.1659-0.64397-0.33299-0.66236c-0.1457 0.01779-0.50126 0.82845-0.50126 0.82845s-0.1677-0.58921-0.33658-0.55283c-0.18088 0.10693-0.19687 0.79008-0.19687 0.79008s-0.42152-0.12671-0.53924 0.02099c-0.0953 0.25163 0.79827 0.04557 0.10356 4.8988 0 0 0.88961 1.2901 1.0251 1.2881z"/><path d="m-107.78 77.704c0.0661 0.56108-0.23978 1.0452-0.31667 1.2734-0.20024 0.59421-0.27229 1.1161-0.37226 1.1452-0.13371-0.05277-0.19427-0.27082-0.19427-0.27082s-0.31219 0.57022-0.50067 0.51566c-0.0327-0.39396-0.4182-0.88689 0.0372-1.7209-0.23244 0.49867-0.97275 1.7321-1.1065 1.6793-0.12911-0.09454-0.0656-0.55683-0.0656-0.55683s-0.73591 0.11772-0.79087-0.07435c-0.055-0.19207 0.45209-0.80427 0.45209-0.80427s-0.35916 0.03658-0.36855-0.07015c-0.0448-0.20786 0.84004-0.83345 0.84004-0.83345s-0.55964 0.05257-0.58202-0.05136c-0.024-0.16059 0.23269-0.15988 0.26098-0.23827 0.035-0.03467-0.21041-0.22123-0.14466-0.35774 0.037-0.14391 0.54104-0.07574 0.54104-0.07574s-0.26302-0.33758-0.20286-0.50007c0.19846-0.1515 2.0374 1.0021 2.2913 0.53963z"/><path d="m-109.66 74.615c0.16587 0.3882-0.79346 0.55792-1.1235 0.85005-0.58399 0.51688-0.80138 1.0055-1.1112 1.2082-0.21166-0.03598-0.11053-0.95496-0.11053-0.95496s-0.50966 0.78948-0.7565 0.84264c-0.12911-0.09454 0.0338-0.53744 0.0338-0.53744s-0.55483 0.20106-0.68394 0.10653c0.0344-0.85024 1.2366-1.517 1.2366-1.517-0.0652-0.17628-2.0652 0.82546-2.6406-0.01578 0.0228-0.39914 0.68434-0.6096 0.68434-0.6096s-0.7547-0.09573-0.94437-0.40832c-7e-3 -0.09374 0.22165-0.17009 0.22165-0.17009s-0.47089-0.2928-0.48688-0.49327c0.21146-0.1543 1.0443 0.11492 1.0443 0.11492s-0.35316-0.44051-0.19447-0.46109c0.27362-0.18128 1.3297 0.55642 1.3297 0.55642s-0.34896-0.86283-0.22565-0.98455c0.1503-0.05956 0.72532 0.40113 0.72532 0.40113s0.0116-0.4511 0.17029-0.47169c0.18468-0.02618 0.38854 0.99506 1.0519 1.16 0.77036 0.19157 1.255 0.96675 1.4646 0.86722z"/><path d="m-111.47 71.566c-0.9062-0.2942-3.092 0.66597-3.3092 0.60402-0.0975-0.07414 0.16548-0.62019 0.16548-0.62019s-0.76809 0.41013-1.0131 0.40853c-0.10034-0.08714 0.0821-0.43911 0.0821-0.43911s-0.71933 0.0054-0.80027-0.18108c-0.0488-0.47888 1.2216-0.7661 1.2216-0.7661-0.028-0.12991-1.6249 0.28202-2.3127-0.57581 0.0388-0.19867 0.51206-0.27342 0.51206-0.27342s-0.56942-0.43471-0.54544-0.57582c0.0332-0.22465 0.49367-0.10633 0.49367-0.10633s-0.18687-0.2996-0.0608-0.40833c0.24484-0.18868 1.0949 0.53904 1.0949 0.53904s-0.43152-0.80426-0.26923-0.93438c0.17888-0.24244 0.70574 0.31019 0.70574 0.31019l0.0691-0.43631c0.1475-0.07256 0.68917 0.97457 2.1226 1.6499 0.31025 0.14616 1.4742 1.1642 1.4742 1.1642z"/><path d="m-111.71 70.613c1.0735-3.9152 2.5809-3.8592 2.4933-4.1395-9e-3 -0.22925-0.70833-0.13291-0.70833-0.13291s0.77988-0.67096 0.70353-0.89921c-7e-3 -0.09373-0.33978-0.06276-0.33978-0.06276s0.0933-0.38714 0.0738-0.47808c-0.18487-0.16409-0.90839 0.26363-0.90839 0.26363s0.21325-1.0927-0.0152-1.2066c-0.14491-0.10473-0.57342 0.17789-0.57342 0.17789s0.10433-0.52545-0.12872-0.5976c-0.38534-0.1481-0.61279 0.68934-0.61279 0.68934s-0.12412-0.63937-0.29121-0.65776c-0.39173 0.09184-0.63507 3.6945-0.77346 4.9925-0.29487-0.24893-0.2477-1.7472-0.0909-2.7456 0.22435-1.4282 0.63937-2.1507 0.67385-2.4369-0.0605-0.10232-0.32678-0.06555-0.32678-0.06555s0.052-0.7546-0.0807-0.87982c-0.0893-0.05767-0.4491 0.12392-0.4491 0.12392s-8e-3 -0.51956-0.0971-0.57722c-0.10048-0.06487-0.3034 0.10613-0.3034 0.10613s-0.0111-0.22705-0.11812-0.23284c-0.14373 0.0021-0.38574 0.35496-0.38574 0.35496s-0.0575-0.23464-0.17569-0.24764c-0.29396 0.06332-0.41591 2.5501-0.41591 2.5501-0.25326 0.07377-0.34125-2.3935-0.84565-2.727 0 0-0.52359-0.41574-0.62139-0.42352-0.12465 0.04607-0.0642 0.77509-0.0642 0.77509s-0.94117-0.72566-1.1038-0.63295c-0.16069 0.1019 0.0753 0.52822 0.0753 0.52822s-0.48503-0.12896-0.58608-0.1072c-0.028 0.22711 1.0958 1.3671 1.0618 1.4321 0 0-1.1615-0.88337-1.3121-0.60099-8e-3 0.18443 0.37576 0.73471 0.37576 0.73471s-0.32572-0.02364-0.31639 0.10893c-0.0478 0.13525 1.33 1.2256 3.5057 3.527-0.30639 0.09483-2.7157-2.1226-3.4493-2.0031-0.0688 0.08211 0.0552 0.38235 0.0552 0.38235s-0.61671-0.03525-0.71832 0.07315c-6e-3 0.10698 0.20366 0.37755 0.20366 0.37755s-0.38401 0.05058-0.43051 0.14711c0.17638 0.46186 1.2678 0.77368 1.2678 0.77368s-0.78466 0.18397-0.83964 0.33038c0.20521 0.4172 1.2508 0.50546 1.2508 0.50546s-0.46479 0.05108-0.43511 0.18887c0.0393 0.53945 1.1342-0.01988 4.3331 1.3097l0.94998 1.3179s-2.8715-1.9955-3.1123-1.9533l0.0142 0.25523s-0.4994-0.6235-0.71433-0.53944c-0.23062 0.14512 0.1559 0.85004 0.1559 0.85004s-1.0288-0.73193-1.274-0.48687c-0.0117 0.07943 0.12372 0.25883 0.12372 0.25883s-0.42772 0.06631-0.51026 0.21866c-0.0674 0.17793 0.53245 0.57861 0.53245 0.57861s-0.46132 0.14879-0.4527 0.23345c0.79059 0.99282 1.3821 0.35796 2.3944 0.63976 0 0-1.2815 0.40508-1.3711 0.70314 0.0547 0.2093 0.78088 0.28041 0.78088 0.28041s-0.0688 0.27146 0.0198 0.28121c0.0612 0.15023 0.86763-0.20046 0.86763-0.20046s-0.16863 0.35763-0.059 0.42052c0.20832 0.25312 1.2068-0.49586 3.2073-0.44612z"/></g></g><path d="m3.2317 8.7827c0.14531-0.04541 0.17149 0.30304 0.26438 0.43123 0.16435 0.22681 0.33183 0.32177 0.39335 0.43955-0.02057 0.074279-0.3467 0.00551-0.3467 0.00551s0.26486 0.20997 0.27501 0.29997c-0.038626 0.042701-0.19164-0.031164-0.19164-0.031164s0.052072 0.20518 0.013475 0.2479c-0.30387-0.0425-0.49963-0.49528-0.49963-0.49528-0.065617 0.017014 0.22147 0.76648-0.10124 0.94197-0.14241-0.02233-0.19399-0.26593-0.19399-0.26593s-0.06167 0.26597-0.18071 0.32256c-0.033894-8.36e-4 -0.053015-0.08516-0.053015-0.08516s-0.12212 0.15767-0.19464 0.15625c-0.047718-0.08096 0.079038-0.36866 0.079038-0.36866s-0.17086 0.1104-0.17251 0.05302c-0.05515-0.1041 0.24781-0.45484 0.24781-0.45484s-0.32226 0.093893-0.36148 0.045555c-0.015935-0.055774 0.1702-0.24463 0.1702-0.24463s-0.16146-0.020172-0.1631-0.077546c-0.0027081-0.066847 0.37115-0.10332 0.45436-0.33424 0.096629-0.26816 0.39235-0.41358 0.36422-0.49195z" fill="#44803d" stroke="#34642f" stroke-width=".19844"/></g><metadata><rdf:RDF><cc:Work rdf:about=""><dc:creator><cc:Agent><dc:title>Erica Schroeder</dc:title></cc:Agent></dc:creator><dc:rights><cc:Agent><dc:title> 2026 Erica Schroeder. All rights reserved.</dc:title></cc:Agent></dc:rights><dc:date>1/16/2026</dc:date></cc:Work></rdf:RDF></metadata></svg>
