<?xml version="1.0" encoding="UTF-8"?>
<!-- Created with Inkscape (http://www.inkscape.org/) -->
<svg width="1.5613in" height="4.1708in" version="1.1" viewBox="0 0 39.658 105.94" xml:space="preserve" xmlns="http://www.w3.org/2000/svg" xmlns:cc="http://creativecommons.org/ns#" xmlns:dc="http://purl.org/dc/elements/1.1/" xmlns:rdf="http://www.w3.org/1999/02/22-rdf-syntax-ns#"><g transform="translate(8.8509 4.5852)"><g transform="translate(-70.97 .6854)"><path d="m71.694 19.358c0.71983 1.4397 4.1675 22.067 4.2217 27.938 0.23288 25.235 1.5413 53.371 1.5413 53.371l0.92041 0.0566s-0.50232-28.79-1.584-53.916c-0.33975-7.8917-3.6597-26.28-5.0993-27.45z" fill="#425b40"/><path d="m79.142 21.96s-2.423 1.7653-3.3753 4.3657c-1.4082 3.8453-0.73702 7.2222-0.73702 7.2222l-0.5329 0.18357s-0.54796-3.6367 0.89139-7.4656c1.048-2.788 3.7538-4.3059 3.7538-4.3059z" fill="#425b40"/><g transform="matrix(-.32793 -.035193 -.035036 .32756 64.026 -22.347)" stroke-linecap="round" stroke-linejoin="round" stroke-miterlimit="2" stroke-width=".60202"><path d="m-61.535 132.61c-1.7998 1.6183-4.0145 2.717-5.739 4.4225-0.85571 0.60767-0.57414 2.1008 0.58509 2.0184 1.2387-0.0977 2.0705-1.1913 2.8783-2.0145 0.6088-0.68964 1.1985-1.3959 1.7971-2.0943-1.0657 1.4768-2.3669 2.8216-3.1019 4.5082-0.51352 0.89628 0.42253 2.0929 1.4092 1.6455 1.1285-0.53317 1.5883-1.8205 2.1364-2.8567 0.69376-1.3286 1.0782-2.8321 2.027-4.0158-0.56867 2.3339-2.1104 4.33-2.5028 6.7156-0.23948 1.0242 1.0786 1.8197 1.8525 1.0842 0.8748-0.86034 0.96041-2.1853 1.1964-3.3246 0.27803-1.3792 0.26495-2.8354 0.83866-4.1412-0.06383 2.3053-0.8094 4.5793-0.51949 6.8918 0.04059 1.0535 1.5249 1.5833 2.0998 0.62101 0.59165-1.0935 0.31575-2.4027 0.23037-3.5852-0.12028-1.3917-0.46071-2.767-0.42-4.1697 0.74393 2.2599 0.66024 4.7527 1.7367 6.907 0.37275 0.94163 1.9012 1.105 2.2181 0.0358 0.2412-1.1423-0.41416-2.2305-0.82792-3.2554-0.53566-1.2801-1.2997-2.4643-1.7043-3.7968 0.34071 0.33499 0.9226 1.5708 1.3538 2.2562 0.78384 1.2714 1.4818 2.7042 2.7592 3.5513 0.81025 0.59451 2.1328-0.14142 1.8408-1.169-0.442-1.3717-1.5925-2.3472-2.5135-3.4054-0.30594-0.33697-0.93293-0.98612-0.2848-0.35312 1.0458 0.93374 2.0612 2.0879 3.4766 2.4248 0.94891 0.26926 1.9353-0.89342 1.2464-1.7139-1.0268-1.1584-2.5135-1.7452-3.8263-2.5144-0.89434-0.53086-1.8943-0.97048-2.6132-1.7372-0.73731-1.0343-1.6678-2.2775-3.0631-2.2867-1.4235 0.11009-2.4502 1.2684-3.4292 2.1828-0.38466 0.38394-0.7609 0.77616-1.1368 1.1686z" fill="#fbeb19" stop-color="#000000" stroke="#ada103"/><ellipse transform="matrix(.99871 -.050741 .050746 .99871 0 0)" cx="-64.202" cy="126.12" rx="4.6644" ry="4.6643" fill="#bea204" stroke="#877303"/></g><g transform="matrix(.32575 -.051632 .051457 .32538 83.645 -26.056)" stroke-linecap="round" stroke-linejoin="round" stroke-miterlimit="2" stroke-width=".60202"><path d="m-61.535 132.61c-1.7998 1.6183-4.0145 2.717-5.739 4.4225-0.85571 0.60767-0.57414 2.1008 0.58509 2.0184 1.2387-0.0977 2.0705-1.1913 2.8783-2.0145 0.6088-0.68964 1.1985-1.3959 1.7971-2.0943-1.0657 1.4768-2.3669 2.8216-3.1019 4.5082-0.51352 0.89628 0.42253 2.0929 1.4092 1.6455 1.1285-0.53317 1.5883-1.8205 2.1364-2.8567 0.69376-1.3286 1.0782-2.8321 2.027-4.0158-0.56867 2.3339-2.1104 4.33-2.5028 6.7156-0.23948 1.0242 1.0786 1.8197 1.8525 1.0842 0.8748-0.86034 0.96041-2.1853 1.1964-3.3246 0.27803-1.3792 0.26495-2.8354 0.83866-4.1412-0.06383 2.3053-0.8094 4.5793-0.51949 6.8918 0.04059 1.0535 1.5249 1.5833 2.0998 0.62101 0.59165-1.0935 0.31575-2.4027 0.23037-3.5852-0.12028-1.3917-0.46071-2.767-0.42-4.1697 0.74393 2.2599 0.66024 4.7527 1.7367 6.907 0.37275 0.94163 1.9012 1.105 2.2181 0.0358 0.2412-1.1423-0.41416-2.2305-0.82792-3.2554-0.53566-1.2801-1.2997-2.4643-1.7043-3.7968 0.34071 0.33499 0.9226 1.5708 1.3538 2.2562 0.78384 1.2714 1.4818 2.7042 2.7592 3.5513 0.81025 0.59451 2.1328-0.14142 1.8408-1.169-0.442-1.3717-1.5925-2.3472-2.5135-3.4054-0.30594-0.33697-0.93293-0.98612-0.2848-0.35312 1.0458 0.93374 2.0612 2.0879 3.4766 2.4248 0.94891 0.26926 1.9353-0.89342 1.2464-1.7139-1.0268-1.1584-2.5135-1.7452-3.8263-2.5144-0.89434-0.53086-1.8943-0.97048-2.6132-1.7372-0.73731-1.0343-1.6678-2.2775-3.0631-2.2867-1.4235 0.11009-2.4502 1.2684-3.4292 2.1828-0.38466 0.38394-0.7609 0.77616-1.1368 1.1686z" fill="#fbeb19" stop-color="#000000" stroke="#ada103"/><ellipse transform="matrix(.99871 -.050741 .050746 .99871 0 0)" cx="-64.202" cy="126.12" rx="4.6644" ry="4.6643" fill="#bea204" stroke="#877303"/></g><g transform="matrix(-.76446 .3249 .32536 .76293 22.786 45.591)"><path d="m-35.28 86.116c-7.2532 1.2725-11.612 9.9254-11.993 10.053-1.9724-1.8769 2.1632-12.629 11.993-10.053z" fill="#425b40"/><path d="m-35.28 86.116c-9.8527-0.20245-12.353 9.2654-11.993 10.053" fill="none"/></g><g transform="matrix(-.74524 .31657 .31718 .74338 23.933 39.201)"><path d="m-35.28 86.116c-7.2532 1.2725-11.612 9.9254-11.993 10.053-1.9724-1.8769 2.1632-12.629 11.993-10.053z" fill="#425b40"/><path d="m-35.28 86.116c-9.8527-0.20245-12.353 9.2654-11.993 10.053" fill="none"/></g><g transform="matrix(-.7795 .21904 .21988 .77774 30.907 24.008)"><path d="m-35.28 86.116c-7.2532 1.2725-11.612 9.9254-11.993 10.053-1.9724-1.8769 2.1632-12.629 11.993-10.053z" fill="#425b40"/><path d="m-35.28 86.116c-9.8527-0.20245-12.353 9.2654-11.993 10.053" fill="none"/></g><g transform="matrix(-.79982 .12606 .1271 .79816 37.923 9.1489)"><path d="m-35.28 86.116c-7.2532 1.2725-11.612 9.9254-11.993 10.053-1.9724-1.8769 2.1632-12.629 11.993-10.053z" fill="#425b40"/><path d="m-35.28 86.116c-9.8527-0.20245-12.353 9.2654-11.993 10.053" fill="none"/></g><g transform="matrix(.61599 .11286 -.097888 .7146 107.29 9.6368)"><path d="m-35.28 86.116c-7.2532 1.2725-11.612 9.9254-11.993 10.053-1.9724-1.8769 2.1632-12.629 11.993-10.053z" fill="#425b40"/><path d="m-35.28 86.116c-9.8527-0.20245-12.353 9.2654-11.993 10.053" fill="none"/></g><g transform="matrix(.61599 .11286 -.097888 .7146 107.16 1.2008)"><path d="m-35.28 86.116c-7.2532 1.2725-11.612 9.9254-11.993 10.053-1.9724-1.8769 2.1632-12.629 11.993-10.053z" fill="#425b40"/><path d="m-35.28 86.116c-9.8527-0.20245-12.353 9.2654-11.993 10.053" fill="none"/></g><g transform="matrix(-.62599 .017837 -.011962 .72117 1.1249 -11.031)"><path d="m-121.9 86.512c7.2114 0.91475 11.243 9.3601 11.62 9.4686 2.046-1.9763-1.6824-12.534-11.62-9.4686z" fill="#425b40"/><path d="m-121.9 86.512c9.8698-0.69026 12.011 8.6627 11.62 9.4686" fill="none"/></g><g transform="matrix(-.51373 .16125 .18316 .6976 40.554 -20.869)"><path d="m-35.28 86.116c-7.2532 1.2725-11.612 9.9254-11.993 10.053-1.9724-1.8769 2.1632-12.629 11.993-10.053z" fill="#425b40"/><path d="m-35.28 86.116c-9.8527-0.20245-12.353 9.2654-11.993 10.053" fill="none"/></g><g transform="matrix(.42915 .13627 -.15519 .58322 102.4 -16.91)"><path d="m-35.28 86.116c-7.2532 1.2725-11.612 9.9254-11.993 10.053-1.9724-1.8769 2.1632-12.629 11.993-10.053z" fill="#425b40"/><path d="m-35.28 86.116c-9.8527-0.20245-12.353 9.2654-11.993 10.053" fill="none"/></g><g transform="matrix(.4492 .1427 -.16244 .61072 104.96 -9.8341)"><path d="m-35.28 86.116c-7.2532 1.2725-11.612 9.9254-11.993 10.053-1.9724-1.8769 2.1632-12.629 11.993-10.053z" fill="#425b40"/><path d="m-35.28 86.116c-9.8527-0.20245-12.353 9.2654-11.993 10.053" fill="none"/></g><g transform="matrix(-.66191 .11286 .10518 .7146 44.187 5.4877)"><path d="m-35.28 86.116c-7.2532 1.2725-11.612 9.9254-11.993 10.053-1.9724-1.8769 2.1632-12.629 11.993-10.053z" fill="#425b40"/><path d="m-35.28 86.116c-9.8527-0.20245-12.353 9.2654-11.993 10.053" fill="none"/></g><g transform="matrix(-.66191 .11286 .10518 .7146 44.03 -2.7435)"><path d="m-35.28 86.116c-7.2532 1.2725-11.612 9.9254-11.993 10.053-1.9724-1.8769 2.1632-12.629 11.993-10.053z" fill="#425b40"/><path d="m-35.28 86.116c-9.8527-0.20245-12.353 9.2654-11.993 10.053" fill="none"/></g><g transform="matrix(.74717 .086993 -.084194 .78205 111.56 23.226)"><path d="m-35.28 86.116c-7.2532 1.2725-11.612 9.9254-11.993 10.053-1.9724-1.8769 2.1632-12.629 11.993-10.053z" fill="#425b40"/><path d="m-35.28 86.116c-9.8527-0.20245-12.353 9.2654-11.993 10.053" fill="none"/></g><g transform="matrix(.68047 .16548 -.16598 .67803 116.15 42.526)"><path d="m-35.28 86.116c-7.2532 1.2725-11.612 9.9254-11.993 10.053-1.9724-1.8769 2.1632-12.629 11.993-10.053z" fill="#425b40"/><path d="m-35.28 86.116c-9.8527-0.20245-12.353 9.2654-11.993 10.053" fill="none"/></g><g transform="matrix(-.76526 .062991 .057067 .82992 36.016 23.491)"><path d="m-39.85 69.857c1.4172 1.8221 1.1679 4.4202 2.2476 5.7024-0.20245-1.1472 1.363-3.7648-0.0992-5.092-0.49488-0.49488-2.1259-1.1728-2.1484-0.61039z" fill="#425b40"/><path d="m-48.814 72.185c3.7451-1.7138 7.8814-3.3104 11.113-1.7178-0.7596-0.99635-3.1811-1.9232-4.183-2.2757-1.647-0.19887-3.888 0.78305-6.9298 3.9935z" fill="#425b40"/><path d="m-48.814 72.185c5.0838-4.0266 8.4769-3.3884 8.4769-3.3884" fill="none"/></g><g transform="matrix(.67537 .36534 -.38591 .73695 136.86 8.8284)"><path d="m-39.85 69.857c1.4172 1.8221 1.1679 4.4202 2.2476 5.7024-0.20245-1.1472 1.363-3.7648-0.0992-5.092-0.49488-0.49488-2.1259-1.1728-2.1484-0.61039z" fill="#425b40"/><path d="m-48.814 72.185c3.7451-1.7138 7.8814-3.3104 11.113-1.7178-0.7596-0.99635-3.1811-1.9232-4.183-2.2757-1.647-0.19887-3.888 0.78305-6.9298 3.9935z" fill="#425b40"/><path d="m-48.814 72.185c5.0838-4.0266 8.4769-3.3884 8.4769-3.3884" fill="none"/></g></g><g transform="rotate(6.3427 46.523 -463.83)"><path d="m71.694 19.358c0.71983 1.4397 4.1675 22.067 4.2217 27.938 0.23288 25.235 1.5413 53.371 1.5413 53.371l0.92041 0.0566s-0.50232-28.79-1.584-53.916c-0.33975-7.8917-3.6597-26.28-5.0993-27.45z" fill="#425b40"/><path d="m79.142 21.96s-2.423 1.7653-3.3753 4.3657c-1.4082 3.8453-0.73702 7.2222-0.73702 7.2222l-0.5329 0.18357s-0.54796-3.6367 0.89139-7.4656c1.048-2.788 3.7538-4.3059 3.7538-4.3059z" fill="#425b40"/><g transform="matrix(-.32793 -.035193 -.035036 .32756 64.026 -22.347)" stroke-linecap="round" stroke-linejoin="round" stroke-miterlimit="2" stroke-width=".60202"><path d="m-61.535 132.61c-1.7998 1.6183-4.0145 2.717-5.739 4.4225-0.85571 0.60767-0.57414 2.1008 0.58509 2.0184 1.2387-0.0977 2.0705-1.1913 2.8783-2.0145 0.6088-0.68964 1.1985-1.3959 1.7971-2.0943-1.0657 1.4768-2.3669 2.8216-3.1019 4.5082-0.51352 0.89628 0.42253 2.0929 1.4092 1.6455 1.1285-0.53317 1.5883-1.8205 2.1364-2.8567 0.69376-1.3286 1.0782-2.8321 2.027-4.0158-0.56867 2.3339-2.1104 4.33-2.5028 6.7156-0.23948 1.0242 1.0786 1.8197 1.8525 1.0842 0.8748-0.86034 0.96041-2.1853 1.1964-3.3246 0.27803-1.3792 0.26495-2.8354 0.83866-4.1412-0.06383 2.3053-0.8094 4.5793-0.51949 6.8918 0.04059 1.0535 1.5249 1.5833 2.0998 0.62101 0.59165-1.0935 0.31575-2.4027 0.23037-3.5852-0.12028-1.3917-0.46071-2.767-0.42-4.1697 0.74393 2.2599 0.66024 4.7527 1.7367 6.907 0.37275 0.94163 1.9012 1.105 2.2181 0.0358 0.2412-1.1423-0.41416-2.2305-0.82792-3.2554-0.53566-1.2801-1.2997-2.4643-1.7043-3.7968 0.34071 0.33499 0.9226 1.5708 1.3538 2.2562 0.78384 1.2714 1.4818 2.7042 2.7592 3.5513 0.81025 0.59451 2.1328-0.14142 1.8408-1.169-0.442-1.3717-1.5925-2.3472-2.5135-3.4054-0.30594-0.33697-0.93293-0.98612-0.2848-0.35312 1.0458 0.93374 2.0612 2.0879 3.4766 2.4248 0.94891 0.26926 1.9353-0.89342 1.2464-1.7139-1.0268-1.1584-2.5135-1.7452-3.8263-2.5144-0.89434-0.53086-1.8943-0.97048-2.6132-1.7372-0.73731-1.0343-1.6678-2.2775-3.0631-2.2867-1.4235 0.11009-2.4502 1.2684-3.4292 2.1828-0.38466 0.38394-0.7609 0.77616-1.1368 1.1686z" fill="#fbeb19" stop-color="#000000" stroke="#ada103"/><ellipse transform="matrix(.99871 -.050741 .050746 .99871 0 0)" cx="-64.202" cy="126.12" rx="4.6644" ry="4.6643" fill="#bea204" stroke="#877303"/></g><g transform="matrix(.32575 -.051632 .051457 .32538 83.645 -26.056)" stroke-linecap="round" stroke-linejoin="round" stroke-miterlimit="2" stroke-width=".60202"><path d="m-61.535 132.61c-1.7998 1.6183-4.0145 2.717-5.739 4.4225-0.85571 0.60767-0.57414 2.1008 0.58509 2.0184 1.2387-0.0977 2.0705-1.1913 2.8783-2.0145 0.6088-0.68964 1.1985-1.3959 1.7971-2.0943-1.0657 1.4768-2.3669 2.8216-3.1019 4.5082-0.51352 0.89628 0.42253 2.0929 1.4092 1.6455 1.1285-0.53317 1.5883-1.8205 2.1364-2.8567 0.69376-1.3286 1.0782-2.8321 2.027-4.0158-0.56867 2.3339-2.1104 4.33-2.5028 6.7156-0.23948 1.0242 1.0786 1.8197 1.8525 1.0842 0.8748-0.86034 0.96041-2.1853 1.1964-3.3246 0.27803-1.3792 0.26495-2.8354 0.83866-4.1412-0.06383 2.3053-0.8094 4.5793-0.51949 6.8918 0.04059 1.0535 1.5249 1.5833 2.0998 0.62101 0.59165-1.0935 0.31575-2.4027 0.23037-3.5852-0.12028-1.3917-0.46071-2.767-0.42-4.1697 0.74393 2.2599 0.66024 4.7527 1.7367 6.907 0.37275 0.94163 1.9012 1.105 2.2181 0.0358 0.2412-1.1423-0.41416-2.2305-0.82792-3.2554-0.53566-1.2801-1.2997-2.4643-1.7043-3.7968 0.34071 0.33499 0.9226 1.5708 1.3538 2.2562 0.78384 1.2714 1.4818 2.7042 2.7592 3.5513 0.81025 0.59451 2.1328-0.14142 1.8408-1.169-0.442-1.3717-1.5925-2.3472-2.5135-3.4054-0.30594-0.33697-0.93293-0.98612-0.2848-0.35312 1.0458 0.93374 2.0612 2.0879 3.4766 2.4248 0.94891 0.26926 1.9353-0.89342 1.2464-1.7139-1.0268-1.1584-2.5135-1.7452-3.8263-2.5144-0.89434-0.53086-1.8943-0.97048-2.6132-1.7372-0.73731-1.0343-1.6678-2.2775-3.0631-2.2867-1.4235 0.11009-2.4502 1.2684-3.4292 2.1828-0.38466 0.38394-0.7609 0.77616-1.1368 1.1686z" fill="#fbeb19" stop-color="#000000" stroke="#ada103"/><ellipse transform="matrix(.99871 -.050741 .050746 .99871 0 0)" cx="-64.202" cy="126.12" rx="4.6644" ry="4.6643" fill="#bea204" stroke="#877303"/></g><g transform="matrix(-.76446 .3249 .32536 .76293 22.786 45.591)"><path d="m-35.28 86.116c-7.2532 1.2725-11.612 9.9254-11.993 10.053-1.9724-1.8769 2.1632-12.629 11.993-10.053z" fill="#425b40"/><path d="m-35.28 86.116c-9.8527-0.20245-12.353 9.2654-11.993 10.053" fill="none"/></g><g transform="matrix(-.74524 .31657 .31718 .74338 23.933 39.201)"><path d="m-35.28 86.116c-7.2532 1.2725-11.612 9.9254-11.993 10.053-1.9724-1.8769 2.1632-12.629 11.993-10.053z" fill="#425b40"/><path d="m-35.28 86.116c-9.8527-0.20245-12.353 9.2654-11.993 10.053" fill="none"/></g><g transform="matrix(-.7795 .21904 .21988 .77774 30.907 24.008)"><path d="m-35.28 86.116c-7.2532 1.2725-11.612 9.9254-11.993 10.053-1.9724-1.8769 2.1632-12.629 11.993-10.053z" fill="#425b40"/><path d="m-35.28 86.116c-9.8527-0.20245-12.353 9.2654-11.993 10.053" fill="none"/></g><g transform="matrix(-.79982 .12606 .1271 .79816 37.923 9.1489)"><path d="m-35.28 86.116c-7.2532 1.2725-11.612 9.9254-11.993 10.053-1.9724-1.8769 2.1632-12.629 11.993-10.053z" fill="#425b40"/><path d="m-35.28 86.116c-9.8527-0.20245-12.353 9.2654-11.993 10.053" fill="none"/></g><g transform="matrix(.61599 .11286 -.097888 .7146 107.29 9.6368)"><path d="m-35.28 86.116c-7.2532 1.2725-11.612 9.9254-11.993 10.053-1.9724-1.8769 2.1632-12.629 11.993-10.053z" fill="#425b40"/><path d="m-35.28 86.116c-9.8527-0.20245-12.353 9.2654-11.993 10.053" fill="none"/></g><g transform="matrix(.61599 .11286 -.097888 .7146 107.16 1.2008)"><path d="m-35.28 86.116c-7.2532 1.2725-11.612 9.9254-11.993 10.053-1.9724-1.8769 2.1632-12.629 11.993-10.053z" fill="#425b40"/><path d="m-35.28 86.116c-9.8527-0.20245-12.353 9.2654-11.993 10.053" fill="none"/></g><g transform="matrix(-.62599 .017837 -.011962 .72117 1.1249 -11.031)"><path d="m-121.9 86.512c7.2114 0.91475 11.243 9.3601 11.62 9.4686 2.046-1.9763-1.6824-12.534-11.62-9.4686z" fill="#425b40"/><path d="m-121.9 86.512c9.8698-0.69026 12.011 8.6627 11.62 9.4686" fill="none"/></g><g transform="matrix(-.51373 .16125 .18316 .6976 40.554 -20.869)"><path d="m-35.28 86.116c-7.2532 1.2725-11.612 9.9254-11.993 10.053-1.9724-1.8769 2.1632-12.629 11.993-10.053z" fill="#425b40"/><path d="m-35.28 86.116c-9.8527-0.20245-12.353 9.2654-11.993 10.053" fill="none"/></g><g transform="matrix(.42915 .13627 -.15519 .58322 102.4 -16.91)"><path d="m-35.28 86.116c-7.2532 1.2725-11.612 9.9254-11.993 10.053-1.9724-1.8769 2.1632-12.629 11.993-10.053z" fill="#425b40"/><path d="m-35.28 86.116c-9.8527-0.20245-12.353 9.2654-11.993 10.053" fill="none"/></g><g transform="matrix(.4492 .1427 -.16244 .61072 104.96 -9.8341)"><path d="m-35.28 86.116c-7.2532 1.2725-11.612 9.9254-11.993 10.053-1.9724-1.8769 2.1632-12.629 11.993-10.053z" fill="#425b40"/><path d="m-35.28 86.116c-9.8527-0.20245-12.353 9.2654-11.993 10.053" fill="none"/></g><g transform="matrix(-.66191 .11286 .10518 .7146 44.187 5.4877)"><path d="m-35.28 86.116c-7.2532 1.2725-11.612 9.9254-11.993 10.053-1.9724-1.8769 2.1632-12.629 11.993-10.053z" fill="#425b40"/><path d="m-35.28 86.116c-9.8527-0.20245-12.353 9.2654-11.993 10.053" fill="none"/></g><g transform="matrix(-.66191 .11286 .10518 .7146 44.03 -2.7435)"><path d="m-35.28 86.116c-7.2532 1.2725-11.612 9.9254-11.993 10.053-1.9724-1.8769 2.1632-12.629 11.993-10.053z" fill="#425b40"/><path d="m-35.28 86.116c-9.8527-0.20245-12.353 9.2654-11.993 10.053" fill="none"/></g><g transform="matrix(.74717 .086993 -.084194 .78205 111.56 23.226)"><path d="m-35.28 86.116c-7.2532 1.2725-11.612 9.9254-11.993 10.053-1.9724-1.8769 2.1632-12.629 11.993-10.053z" fill="#425b40"/><path d="m-35.28 86.116c-9.8527-0.20245-12.353 9.2654-11.993 10.053" fill="none"/></g><g transform="matrix(.68047 .16548 -.16598 .67803 116.15 42.526)"><path d="m-35.28 86.116c-7.2532 1.2725-11.612 9.9254-11.993 10.053-1.9724-1.8769 2.1632-12.629 11.993-10.053z" fill="#425b40"/><path d="m-35.28 86.116c-9.8527-0.20245-12.353 9.2654-11.993 10.053" fill="none"/></g><g transform="matrix(-.76526 .062991 .057067 .82992 36.016 23.491)"><path d="m-39.85 69.857c1.4172 1.8221 1.1679 4.4202 2.2476 5.7024-0.20245-1.1472 1.363-3.7648-0.0992-5.092-0.49488-0.49488-2.1259-1.1728-2.1484-0.61039z" fill="#425b40"/><path d="m-48.814 72.185c3.7451-1.7138 7.8814-3.3104 11.113-1.7178-0.7596-0.99635-3.1811-1.9232-4.183-2.2757-1.647-0.19887-3.888 0.78305-6.9298 3.9935z" fill="#425b40"/><path d="m-48.814 72.185c5.0838-4.0266 8.4769-3.3884 8.4769-3.3884" fill="none"/></g><g transform="matrix(.67537 .36534 -.38591 .73695 136.86 8.8284)"><path d="m-39.85 69.857c1.4172 1.8221 1.1679 4.4202 2.2476 5.7024-0.20245-1.1472 1.363-3.7648-0.0992-5.092-0.49488-0.49488-2.1259-1.1728-2.1484-0.61039z" fill="#425b40"/><path d="m-48.814 72.185c3.7451-1.7138 7.8814-3.3104 11.113-1.7178-0.7596-0.99635-3.1811-1.9232-4.183-2.2757-1.647-0.19887-3.888 0.78305-6.9298 3.9935z" fill="#425b40"/><path d="m-48.814 72.185c5.0838-4.0266 8.4769-3.3884 8.4769-3.3884" fill="none"/></g></g></g><g transform="translate(8.8509 4.5852)"><g transform="translate(1.5875)"><g transform="matrix(.80101 -.090013 .072395 .99594 28.65 -2.6482)" stroke="#425b40" stroke-linecap="round" stroke-linejoin="round" stroke-miterlimit="2" stroke-width=".22127"><path d="m-18.825 54.73c1.4172 1.8221 1.1679 4.4202 2.2476 5.7024-0.20245-1.1472 1.363-3.7648-0.0992-5.092-0.49488-0.49488-2.1259-1.1728-2.1484-0.61039z" fill="#425b40"/><path d="m-27.789 57.058c3.7451-1.7138 7.8814-3.3104 11.113-1.7178-0.7596-0.99635-3.1811-1.9232-4.183-2.2757-1.647-0.19887-3.888 0.78305-6.9298 3.9935z" fill="#658b62"/><path d="m-27.789 57.058c5.0838-4.0266 8.4769-3.3884 8.4769-3.3884" fill="none"/></g><g transform="matrix(-.91191 .21727 .31391 1.1193 -32.359 19.603)" stroke="#425b40" stroke-linecap="round" stroke-linejoin="round" stroke-miterlimit="2" stroke-width=".19016"><path d="m-18.825 54.73c1.4172 1.8221 1.1679 4.4202 2.2476 5.7024-0.20245-1.1472 1.363-3.7648-0.0992-5.092-0.49488-0.49488-2.1259-1.1728-2.1484-0.61039z" fill="#425b40"/><path d="m-27.789 57.058c3.7451-1.7138 7.8814-3.3104 11.113-1.7178-0.7596-0.99635-3.1811-1.9232-4.183-2.2757-1.647-0.19887-3.888 0.78305-6.9298 3.9935z" fill="#658b62"/><path d="m-27.789 57.058c5.0838-4.0266 8.4769-3.3884 8.4769-3.3884" fill="none"/></g><g fill="#425b40"><path transform="translate(-46.778 -34.307)" d="m53.815 32.243c2.4568 4.228 2.6255 12.644 2.6994 13.116 0.07388 0.47221 0.38611 19.945 0.43697 33.271 0.05472 26.926-0.06563 56.968-0.06563 56.968l0.91829 0.0899s0.13527-30.717 0.03927-57.549c-0.06976-19.494-0.65675-32.165-0.77709-32.613-0.12034-0.44769-0.41988-11.217-3.2512-13.282z"/><path d="m3.1053 6.9537s3.0215 1.4536 4.593 4.1217c2.3239 3.9454 2.2657 7.7945 2.2657 7.7945l0.6233 0.09459s-0.12968-4.1099-2.4846-8.0311c-1.7147-2.8552-4.9975-3.9797-4.9975-3.9797z"/><path d="m16.969 5.8761s-2.9737 1.2471-4.4596 3.4344c-2.1972 3.2345-2.0166 6.3304-2.0166 6.3304l-0.49272 0.12389s-0.12835-3.3424 2.1006-6.5582c1.623-2.3416 4.8683-3.3305 4.8683-3.3305z"/><path d="m13.774-0.43805s-1.7315 0.83835-2.6322 2.3771c-1.3318 2.2755-1.2984 4.4953-1.2984 4.4953l-0.3572 0.054553s0.074317-2.3703 1.4239-4.6318c0.98266-1.6467 2.8639-2.2952 2.8639-2.2952z"/></g><g transform="matrix(.35372 -.10474 .10453 .35319 10.811 -44.819)" stroke-linecap="round" stroke-linejoin="round" stroke-miterlimit="2" stroke-width=".53833"><path d="m-61.535 132.61c-1.7998 1.6183-4.0145 2.717-5.739 4.4225-0.85571 0.60767-0.57414 2.1008 0.58509 2.0184 1.2387-0.0977 2.0705-1.1913 2.8783-2.0145 0.6088-0.68964 1.1985-1.3959 1.7971-2.0943-1.0657 1.4768-2.3669 2.8216-3.1019 4.5082-0.51352 0.89628 0.42253 2.0929 1.4092 1.6455 1.1285-0.53317 1.5883-1.8205 2.1364-2.8567 0.69376-1.3286 1.0782-2.8321 2.027-4.0158-0.56867 2.3339-2.1104 4.33-2.5028 6.7156-0.23948 1.0242 1.0786 1.8197 1.8525 1.0842 0.8748-0.86034 0.96041-2.1853 1.1964-3.3246 0.27803-1.3792 0.26495-2.8354 0.83866-4.1412-0.06383 2.3053-0.8094 4.5793-0.51949 6.8918 0.04059 1.0535 1.5249 1.5833 2.0998 0.62101 0.59165-1.0935 0.31575-2.4027 0.23037-3.5852-0.12028-1.3917-0.46071-2.767-0.42-4.1697 0.74393 2.2599 0.66024 4.7527 1.7367 6.907 0.37275 0.94163 1.9012 1.105 2.2181 0.0358 0.2412-1.1423-0.41416-2.2305-0.82792-3.2554-0.53566-1.2801-1.2997-2.4643-1.7043-3.7968 0.34071 0.33499 0.9226 1.5708 1.3538 2.2562 0.78384 1.2714 1.4818 2.7042 2.7592 3.5513 0.81025 0.59451 2.1328-0.14142 1.8408-1.169-0.442-1.3717-1.5925-2.3472-2.5135-3.4054-0.30594-0.33697-0.93293-0.98612-0.2848-0.35312 1.0458 0.93374 2.0612 2.0879 3.4766 2.4248 0.94891 0.26926 1.9353-0.89342 1.2464-1.7139-1.0268-1.1584-2.5135-1.7452-3.8263-2.5144-0.89434-0.53086-1.8943-0.97048-2.6132-1.7372-0.73731-1.0343-1.6678-2.2775-3.0631-2.2867-1.4235 0.11009-2.4502 1.2684-3.4292 2.1828-0.38466 0.38394-0.7609 0.77616-1.1368 1.1686z" fill="#fbeb19" stop-color="#000000" stroke="#ada103"/><ellipse transform="matrix(.99871 -.050741 .050746 .99871 0 0)" cx="-64.202" cy="126.12" rx="4.6644" ry="4.6643" fill="#bea204" stroke="#877303"/></g><path d="m15.107 13.699s-1.1138 3.0005-1.9956 6.9135c-1.304 5.7863-2.4465 7.5978-2.2238 8.4567l-0.71944-0.13689s1.0729-2.557 2.4354-8.3276c0.99202-4.2019 2.5035-6.9057 2.5035-6.9057z" fill="#425b40"/><path d="m20.17 15.082s-2.8853 0.81382-4.6815 2.9215c-2.6561 3.1167-3.3588 6.3734-3.3588 6.3734l-0.22946-0.01296s0.57435-3.4574 3.254-6.548c1.9512-2.2504 5.0157-2.734 5.0157-2.734z" fill="#425b40"/><g transform="matrix(-.29529 -.14691 -.14663 .29499 21.385 -31.717)" stroke-linecap="round" stroke-linejoin="round" stroke-miterlimit="2" stroke-width=".60202"><path d="m-61.535 132.61c-1.7998 1.6183-4.0145 2.717-5.739 4.4225-0.85571 0.60767-0.57414 2.1008 0.58509 2.0184 1.2387-0.0977 2.0705-1.1913 2.8783-2.0145 0.6088-0.68964 1.1985-1.3959 1.7971-2.0943-1.0657 1.4768-2.3669 2.8216-3.1019 4.5082-0.51352 0.89628 0.42253 2.0929 1.4092 1.6455 1.1285-0.53317 1.5883-1.8205 2.1364-2.8567 0.69376-1.3286 1.0782-2.8321 2.027-4.0158-0.56867 2.3339-2.1104 4.33-2.5028 6.7156-0.23948 1.0242 1.0786 1.8197 1.8525 1.0842 0.8748-0.86034 0.96041-2.1853 1.1964-3.3246 0.27803-1.3792 0.26495-2.8354 0.83866-4.1412-0.06383 2.3053-0.8094 4.5793-0.51949 6.8918 0.04059 1.0535 1.5249 1.5833 2.0998 0.62101 0.59165-1.0935 0.31575-2.4027 0.23037-3.5852-0.12028-1.3917-0.46071-2.767-0.42-4.1697 0.74393 2.2599 0.66024 4.7527 1.7367 6.907 0.37275 0.94163 1.9012 1.105 2.2181 0.0358 0.2412-1.1423-0.41416-2.2305-0.82792-3.2554-0.53566-1.2801-1.2997-2.4643-1.7043-3.7968 0.34071 0.33499 0.9226 1.5708 1.3538 2.2562 0.78384 1.2714 1.4818 2.7042 2.7592 3.5513 0.81025 0.59451 2.1328-0.14142 1.8408-1.169-0.442-1.3717-1.5925-2.3472-2.5135-3.4054-0.30594-0.33697-0.93293-0.98612-0.2848-0.35312 1.0458 0.93374 2.0612 2.0879 3.4766 2.4248 0.94891 0.26926 1.9353-0.89342 1.2464-1.7139-1.0268-1.1584-2.5135-1.7452-3.8263-2.5144-0.89434-0.53086-1.8943-0.97048-2.6132-1.7372-0.73731-1.0343-1.6678-2.2775-3.0631-2.2867-1.4235 0.11009-2.4502 1.2684-3.4292 2.1828-0.38466 0.38394-0.7609 0.77616-1.1368 1.1686z" fill="#fbeb19" stop-color="#000000" stroke="#ada103"/><ellipse transform="matrix(.99871 -.050741 .050746 .99871 0 0)" cx="-64.202" cy="126.12" rx="4.6644" ry="4.6643" fill="#bea204" stroke="#877303"/></g><g transform="matrix(.3249 .056754 -.0568 .32449 41.045 -25.693)" stroke-linecap="round" stroke-linejoin="round" stroke-miterlimit="2" stroke-width=".60202"><path d="m-61.535 132.61c-1.7998 1.6183-4.0145 2.717-5.739 4.4225-0.85571 0.60767-0.57414 2.1008 0.58509 2.0184 1.2387-0.0977 2.0705-1.1913 2.8783-2.0145 0.6088-0.68964 1.1985-1.3959 1.7971-2.0943-1.0657 1.4768-2.3669 2.8216-3.1019 4.5082-0.51352 0.89628 0.42253 2.0929 1.4092 1.6455 1.1285-0.53317 1.5883-1.8205 2.1364-2.8567 0.69376-1.3286 1.0782-2.8321 2.027-4.0158-0.56867 2.3339-2.1104 4.33-2.5028 6.7156-0.23948 1.0242 1.0786 1.8197 1.8525 1.0842 0.8748-0.86034 0.96041-2.1853 1.1964-3.3246 0.27803-1.3792 0.26495-2.8354 0.83866-4.1412-0.06383 2.3053-0.8094 4.5793-0.51949 6.8918 0.04059 1.0535 1.5249 1.5833 2.0998 0.62101 0.59165-1.0935 0.31575-2.4027 0.23037-3.5852-0.12028-1.3917-0.46071-2.767-0.42-4.1697 0.74393 2.2599 0.66024 4.7527 1.7367 6.907 0.37275 0.94163 1.9012 1.105 2.2181 0.0358 0.2412-1.1423-0.41416-2.2305-0.82792-3.2554-0.53566-1.2801-1.2997-2.4643-1.7043-3.7968 0.34071 0.33499 0.9226 1.5708 1.3538 2.2562 0.78384 1.2714 1.4818 2.7042 2.7592 3.5513 0.81025 0.59451 2.1328-0.14142 1.8408-1.169-0.442-1.3717-1.5925-2.3472-2.5135-3.4054-0.30594-0.33697-0.93293-0.98612-0.2848-0.35312 1.0458 0.93374 2.0612 2.0879 3.4766 2.4248 0.94891 0.26926 1.9353-0.89342 1.2464-1.7139-1.0268-1.1584-2.5135-1.7452-3.8263-2.5144-0.89434-0.53086-1.8943-0.97048-2.6132-1.7372-0.73731-1.0343-1.6678-2.2775-3.0631-2.2867-1.4235 0.11009-2.4502 1.2684-3.4292 2.1828-0.38466 0.38394-0.7609 0.77616-1.1368 1.1686z" fill="#fbeb19" stop-color="#000000" stroke="#ada103"/><ellipse transform="matrix(.99871 -.050741 .050746 .99871 0 0)" cx="-64.202" cy="126.12" rx="4.6644" ry="4.6643" fill="#bea204" stroke="#877303"/></g><path d="m4.7199 16.82s2.3112 4.4661 3.2865 8.7925c1.4421 6.3975 2.3998 8.6243 2.3998 8.6243l0.22301-0.62853s-0.66576-1.6559-2.1725-8.0362c-1.0971-4.6458-3.7368-8.7521-3.7368-8.7521z" fill="#425b40"/><path d="m2.4439 22.194s3.1663 0.82249 5.3075 3.0115c0.59316 0.60642 0.9031 2.7486 0.9031 2.7486l0.25294-0.0249s-0.54164-2.7049-0.79542-2.9463c-1.5736-1.4968-3.5424-2.4465-5.6681-2.7889z" fill="#425b40"/><g transform="matrix(.27018 -.24501 .24464 .26986 -14.336 -27.67)" stroke-linecap="round" stroke-linejoin="round" stroke-miterlimit="2" stroke-width=".54443"><path d="m-61.535 132.61c-1.7998 1.6183-4.0145 2.717-5.739 4.4225-0.85571 0.60767-0.57414 2.1008 0.58509 2.0184 1.2387-0.0977 2.0705-1.1913 2.8783-2.0145 0.6088-0.68964 1.1985-1.3959 1.7971-2.0943-1.0657 1.4768-2.3669 2.8216-3.1019 4.5082-0.51352 0.89628 0.42253 2.0929 1.4092 1.6455 1.1285-0.53317 1.5883-1.8205 2.1364-2.8567 0.69376-1.3286 1.0782-2.8321 2.027-4.0158-0.56867 2.3339-2.1104 4.33-2.5028 6.7156-0.23948 1.0242 1.0786 1.8197 1.8525 1.0842 0.8748-0.86034 0.96041-2.1853 1.1964-3.3246 0.27803-1.3792 0.26495-2.8354 0.83866-4.1412-0.06383 2.3053-0.8094 4.5793-0.51949 6.8918 0.04059 1.0535 1.5249 1.5833 2.0998 0.62101 0.59165-1.0935 0.31575-2.4027 0.23037-3.5852-0.12028-1.3917-0.46071-2.767-0.42-4.1697 0.74393 2.2599 0.66024 4.7527 1.7367 6.907 0.37275 0.94163 1.9012 1.105 2.2181 0.0358 0.2412-1.1423-0.41416-2.2305-0.82792-3.2554-0.53566-1.2801-1.2997-2.4643-1.7043-3.7968 0.34071 0.33499 0.9226 1.5708 1.3538 2.2562 0.78384 1.2714 1.4818 2.7042 2.7592 3.5513 0.81025 0.59451 2.1328-0.14142 1.8408-1.169-0.442-1.3717-1.5925-2.3472-2.5135-3.4054-0.30594-0.33697-0.93293-0.98612-0.2848-0.35312 1.0458 0.93374 2.0612 2.0879 3.4766 2.4248 0.94891 0.26926 1.9353-0.89342 1.2464-1.7139-1.0268-1.1584-2.5135-1.7452-3.8263-2.5144-0.89434-0.53086-1.8943-0.97048-2.6132-1.7372-0.73731-1.0343-1.6678-2.2775-3.0631-2.2867-1.4235 0.11009-2.4502 1.2684-3.4292 2.1828-0.38466 0.38394-0.7609 0.77616-1.1368 1.1686z" fill="#fbeb19" stop-color="#000000" stroke="#ada103"/><ellipse transform="matrix(.99871 -.050741 .050746 .99871 0 0)" cx="-64.202" cy="126.12" rx="4.6644" ry="4.6643" fill="#bea204" stroke="#877303"/></g><g transform="matrix(-.36344 .030816 .030913 .36291 -19.943 -29.382)" stroke-linecap="round" stroke-linejoin="round" stroke-miterlimit="2" stroke-width=".54443"><path d="m-61.535 132.61c-1.7998 1.6183-4.0145 2.717-5.739 4.4225-0.85571 0.60767-0.57414 2.1008 0.58509 2.0184 1.2387-0.0977 2.0705-1.1913 2.8783-2.0145 0.6088-0.68964 1.1985-1.3959 1.7971-2.0943-1.0657 1.4768-2.3669 2.8216-3.1019 4.5082-0.51352 0.89628 0.42253 2.0929 1.4092 1.6455 1.1285-0.53317 1.5883-1.8205 2.1364-2.8567 0.69376-1.3286 1.0782-2.8321 2.027-4.0158-0.56867 2.3339-2.1104 4.33-2.5028 6.7156-0.23948 1.0242 1.0786 1.8197 1.8525 1.0842 0.8748-0.86034 0.96041-2.1853 1.1964-3.3246 0.27803-1.3792 0.26495-2.8354 0.83866-4.1412-0.06383 2.3053-0.8094 4.5793-0.51949 6.8918 0.04059 1.0535 1.5249 1.5833 2.0998 0.62101 0.59165-1.0935 0.31575-2.4027 0.23037-3.5852-0.12028-1.3917-0.46071-2.767-0.42-4.1697 0.74393 2.2599 0.66024 4.7527 1.7367 6.907 0.37275 0.94163 1.9012 1.105 2.2181 0.0358 0.2412-1.1423-0.41416-2.2305-0.82792-3.2554-0.53566-1.2801-1.2997-2.4643-1.7043-3.7968 0.34071 0.33499 0.9226 1.5708 1.3538 2.2562 0.78384 1.2714 1.4818 2.7042 2.7592 3.5513 0.81025 0.59451 2.1328-0.14142 1.8408-1.169-0.442-1.3717-1.5925-2.3472-2.5135-3.4054-0.30594-0.33697-0.93293-0.98612-0.2848-0.35312 1.0458 0.93374 2.0612 2.0879 3.4766 2.4248 0.94891 0.26926 1.9353-0.89342 1.2464-1.7139-1.0268-1.1584-2.5135-1.7452-3.8263-2.5144-0.89434-0.53086-1.8943-0.97048-2.6132-1.7372-0.73731-1.0343-1.6678-2.2775-3.0631-2.2867-1.4235 0.11009-2.4502 1.2684-3.4292 2.1828-0.38466 0.38394-0.7609 0.77616-1.1368 1.1686z" fill="#fbeb19" stop-color="#000000" stroke="#ada103"/><ellipse transform="matrix(.99871 -.050741 .050746 .99871 0 0)" cx="-64.202" cy="126.12" rx="4.6644" ry="4.6643" fill="#bea204" stroke="#877303"/></g><g transform="matrix(-.35363 .10503 .10492 .35307 -27.114 -42.327)" stroke-linecap="round" stroke-linejoin="round" stroke-miterlimit="2" stroke-width=".53833"><path d="m-61.535 132.61c-1.7998 1.6183-4.0145 2.717-5.739 4.4225-0.85571 0.60767-0.57414 2.1008 0.58509 2.0184 1.2387-0.0977 2.0705-1.1913 2.8783-2.0145 0.6088-0.68964 1.1985-1.3959 1.7971-2.0943-1.0657 1.4768-2.3669 2.8216-3.1019 4.5082-0.51352 0.89628 0.42253 2.0929 1.4092 1.6455 1.1285-0.53317 1.5883-1.8205 2.1364-2.8567 0.69376-1.3286 1.0782-2.8321 2.027-4.0158-0.56867 2.3339-2.1104 4.33-2.5028 6.7156-0.23948 1.0242 1.0786 1.8197 1.8525 1.0842 0.8748-0.86034 0.96041-2.1853 1.1964-3.3246 0.27803-1.3792 0.26495-2.8354 0.83866-4.1412-0.06383 2.3053-0.8094 4.5793-0.51949 6.8918 0.04059 1.0535 1.5249 1.5833 2.0998 0.62101 0.59165-1.0935 0.31575-2.4027 0.23037-3.5852-0.12028-1.3917-0.46071-2.767-0.42-4.1697 0.74393 2.2599 0.66024 4.7527 1.7367 6.907 0.37275 0.94163 1.9012 1.105 2.2181 0.0358 0.2412-1.1423-0.41416-2.2305-0.82792-3.2554-0.53566-1.2801-1.2997-2.4643-1.7043-3.7968 0.34071 0.33499 0.9226 1.5708 1.3538 2.2562 0.78384 1.2714 1.4818 2.7042 2.7592 3.5513 0.81025 0.59451 2.1328-0.14142 1.8408-1.169-0.442-1.3717-1.5925-2.3472-2.5135-3.4054-0.30594-0.33697-0.93293-0.98612-0.2848-0.35312 1.0458 0.93374 2.0612 2.0879 3.4766 2.4248 0.94891 0.26926 1.9353-0.89342 1.2464-1.7139-1.0268-1.1584-2.5135-1.7452-3.8263-2.5144-0.89434-0.53086-1.8943-0.97048-2.6132-1.7372-0.73731-1.0343-1.6678-2.2775-3.0631-2.2867-1.4235 0.11009-2.4502 1.2684-3.4292 2.1828-0.38466 0.38394-0.7609 0.77616-1.1368 1.1686z" fill="#fbeb19" stop-color="#000000" stroke="#ada103"/><ellipse transform="matrix(.99871 -.050741 .050746 .99871 0 0)" cx="-64.202" cy="126.12" rx="4.6644" ry="4.6643" fill="#bea204" stroke="#877303"/></g><g transform="matrix(-.32473 -.066552 -.066407 .32412 2.7478 -46.348)" stroke-linecap="round" stroke-linejoin="round" stroke-miterlimit="2" stroke-width=".59921"><path d="m-61.535 132.61c-1.7998 1.6183-4.0145 2.717-5.739 4.4225-0.85571 0.60767-0.57414 2.1008 0.58509 2.0184 1.2387-0.0977 2.0705-1.1913 2.8783-2.0145 0.6088-0.68964 1.1985-1.3959 1.7971-2.0943-1.0657 1.4768-2.3669 2.8216-3.1019 4.5082-0.51352 0.89628 0.42253 2.0929 1.4092 1.6455 1.1285-0.53317 1.5883-1.8205 2.1364-2.8567 0.69376-1.3286 1.0782-2.8321 2.027-4.0158-0.56867 2.3339-2.1104 4.33-2.5028 6.7156-0.23948 1.0242 1.0786 1.8197 1.8525 1.0842 0.8748-0.86034 0.96041-2.1853 1.1964-3.3246 0.27803-1.3792 0.26495-2.8354 0.83866-4.1412-0.06383 2.3053-0.8094 4.5793-0.51949 6.8918 0.04059 1.0535 1.5249 1.5833 2.0998 0.62101 0.59165-1.0935 0.31575-2.4027 0.23037-3.5852-0.12028-1.3917-0.46071-2.767-0.42-4.1697 0.74393 2.2599 0.66024 4.7527 1.7367 6.907 0.37275 0.94163 1.9012 1.105 2.2181 0.0358 0.2412-1.1423-0.41416-2.2305-0.82792-3.2554-0.53566-1.2801-1.2997-2.4643-1.7043-3.7968 0.34071 0.33499 0.9226 1.5708 1.3538 2.2562 0.78384 1.2714 1.4818 2.7042 2.7592 3.5513 0.81025 0.59451 2.1328-0.14142 1.8408-1.169-0.442-1.3717-1.5925-2.3472-2.5135-3.4054-0.30594-0.33697-0.93293-0.98612-0.2848-0.35312 1.0458 0.93374 2.0612 2.0879 3.4766 2.4248 0.94891 0.26926 1.9353-0.89342 1.2464-1.7139-1.0268-1.1584-2.5135-1.7452-3.8263-2.5144-0.89434-0.53086-1.8943-0.97048-2.6132-1.7372-0.73731-1.0343-1.6678-2.2775-3.0631-2.2867-1.4235 0.11009-2.4502 1.2684-3.4292 2.1828-0.38466 0.38394-0.7609 0.77616-1.1368 1.1686z" fill="#fbeb19" stop-color="#000000" stroke="#ada103"/><ellipse transform="matrix(.99871 -.050741 .050746 .99871 0 0)" cx="-64.202" cy="126.12" rx="4.6644" ry="4.6643" fill="#bea204" stroke="#877303"/></g><g transform="matrix(.29874 .14363 -.14338 .29817 52.126 -25.154)" stroke-linecap="round" stroke-linejoin="round" stroke-miterlimit="2" stroke-width=".59921"><path d="m-61.535 132.61c-1.7998 1.6183-4.0145 2.717-5.739 4.4225-0.85571 0.60767-0.57414 2.1008 0.58509 2.0184 1.2387-0.0977 2.0705-1.1913 2.8783-2.0145 0.6088-0.68964 1.1985-1.3959 1.7971-2.0943-1.0657 1.4768-2.3669 2.8216-3.1019 4.5082-0.51352 0.89628 0.42253 2.0929 1.4092 1.6455 1.1285-0.53317 1.5883-1.8205 2.1364-2.8567 0.69376-1.3286 1.0782-2.8321 2.027-4.0158-0.56867 2.3339-2.1104 4.33-2.5028 6.7156-0.23948 1.0242 1.0786 1.8197 1.8525 1.0842 0.8748-0.86034 0.96041-2.1853 1.1964-3.3246 0.27803-1.3792 0.26495-2.8354 0.83866-4.1412-0.06383 2.3053-0.8094 4.5793-0.51949 6.8918 0.04059 1.0535 1.5249 1.5833 2.0998 0.62101 0.59165-1.0935 0.31575-2.4027 0.23037-3.5852-0.12028-1.3917-0.46071-2.767-0.42-4.1697 0.74393 2.2599 0.66024 4.7527 1.7367 6.907 0.37275 0.94163 1.9012 1.105 2.2181 0.0358 0.2412-1.1423-0.41416-2.2305-0.82792-3.2554-0.53566-1.2801-1.2997-2.4643-1.7043-3.7968 0.34071 0.33499 0.9226 1.5708 1.3538 2.2562 0.78384 1.2714 1.4818 2.7042 2.7592 3.5513 0.81025 0.59451 2.1328-0.14142 1.8408-1.169-0.442-1.3717-1.5925-2.3472-2.5135-3.4054-0.30594-0.33697-0.93293-0.98612-0.2848-0.35312 1.0458 0.93374 2.0612 2.0879 3.4766 2.4248 0.94891 0.26926 1.9353-0.89342 1.2464-1.7139-1.0268-1.1584-2.5135-1.7452-3.8263-2.5144-0.89434-0.53086-1.8943-0.97048-2.6132-1.7372-0.73731-1.0343-1.6678-2.2775-3.0631-2.2867-1.4235 0.11009-2.4502 1.2684-3.4292 2.1828-0.38466 0.38394-0.7609 0.77616-1.1368 1.1686z" fill="#fbeb19" stop-color="#000000" stroke="#ada103"/><ellipse transform="matrix(.99871 -.050741 .050746 .99871 0 0)" cx="-64.202" cy="126.12" rx="4.6644" ry="4.6643" fill="#bea204" stroke="#877303"/></g><g stroke="#425b40" stroke-linecap="round" stroke-linejoin="round" stroke-miterlimit="2" stroke-width=".21727"><g transform="matrix(.91344 0 0 .91318 42.794 18.054)"><path d="m-35.28 86.116c-7.2532 1.2725-11.612 9.9254-11.993 10.053-1.9724-1.8769 2.1632-12.629 11.993-10.053z" fill="#658b62"/><path d="m-35.28 86.116c-9.8527-0.20245-12.353 9.2654-11.993 10.053" fill="none"/></g><g transform="matrix(-.91344 0 0 .91318 -22.137 14.228)"><path d="m-35.28 86.116c-7.2532 1.2725-11.612 9.9254-11.993 10.053-1.9724-1.8769 2.1632-12.629 11.993-10.053z" fill="#658b62"/><path d="m-35.28 86.116c-9.8527-0.20245-12.353 9.2654-11.993 10.053" fill="none"/></g><g transform="matrix(.91344 0 0 .91318 43.13 8.0105)"><path d="m-35.28 86.116c-7.2532 1.2725-11.612 9.9254-11.993 10.053-1.9724-1.8769 2.1632-12.629 11.993-10.053z" fill="#658b62"/><path d="m-35.28 86.116c-9.8527-0.20245-12.353 9.2654-11.993 10.053" fill="none"/></g><g transform="matrix(-.91344 0 0 .91318 -21.89 1.9346)"><path d="m-35.28 86.116c-7.2532 1.2725-11.612 9.9254-11.993 10.053-1.9724-1.8769 2.1632-12.629 11.993-10.053z" fill="#658b62"/><path d="m-35.28 86.116c-9.8527-0.20245-12.353 9.2654-11.993 10.053" fill="none"/></g><g transform="matrix(-.91344 0 0 .91318 -21.581 -7.5374)"><path d="m-35.28 86.116c-7.2532 1.2725-11.612 9.9254-11.993 10.053-1.9724-1.8769 2.1632-12.629 11.993-10.053z" fill="#658b62"/><path d="m-35.28 86.116c-9.8527-0.20245-12.353 9.2654-11.993 10.053" fill="none"/></g></g><g transform="matrix(-.79804 0 0 .91318 -17.684 -16.395)" stroke="#425b40" stroke-linecap="round" stroke-linejoin="round" stroke-miterlimit="2" stroke-width=".23245"><path d="m-35.28 86.116c-7.2532 1.2725-11.612 9.9254-11.993 10.053-1.9724-1.8769 2.1632-12.629 11.993-10.053z" fill="#658b62"/><path d="m-35.28 86.116c-9.8527-0.20245-12.353 9.2654-11.993 10.053" fill="none"/></g><g transform="matrix(-.66327 .064626 .074005 .7584 -19.249 -18.612)" stroke="#425b40" stroke-linecap="round" stroke-linejoin="round" stroke-miterlimit="2" stroke-width=".27847"><path d="m-35.28 86.116c-7.2532 1.2725-11.612 9.9254-11.993 10.053-1.9724-1.8769 2.1632-12.629 11.993-10.053z" fill="#658b62"/><path d="m-35.28 86.116c-9.8527-0.20245-12.353 9.2654-11.993 10.053" fill="none"/></g><g transform="matrix(-.56855 .064626 .063436 .7584 -15.095 -26.351)" stroke="#425b40" stroke-linecap="round" stroke-linejoin="round" stroke-miterlimit="2" stroke-width=".30077"><path d="m-35.28 86.116c-7.2532 1.2725-11.612 9.9254-11.993 10.053-1.9724-1.8769 2.1632-12.629 11.993-10.053z" fill="#658b62"/><path d="m-35.28 86.116c-9.8527-0.20245-12.353 9.2654-11.993 10.053" fill="none"/></g><g transform="matrix(.75024 0 0 .85845 37.131 -23.715)" stroke="#425b40" stroke-linecap="round" stroke-linejoin="round" stroke-miterlimit="2" stroke-width=".24727"><path d="m-35.28 86.116c-7.2532 1.2725-11.612 9.9254-11.993 10.053-1.9724-1.8769 2.1632-12.629 11.993-10.053z" fill="#658b62"/><path d="m-35.28 86.116c-9.8527-0.20245-12.353 9.2654-11.993 10.053" fill="none"/></g><g transform="matrix(.68122 0 0 .7794 34.692 -25.669)" stroke="#425b40" stroke-linecap="round" stroke-linejoin="round" stroke-miterlimit="2" stroke-width=".27233"><path d="m-35.28 86.116c-7.2532 1.2725-11.612 9.9254-11.993 10.053-1.9724-1.8769 2.1632-12.629 11.993-10.053z" fill="#658b62"/><path d="m-35.28 86.116c-9.8527-0.20245-12.353 9.2654-11.993 10.053" fill="none"/></g><g transform="matrix(.5538 0 0 .63348 30.215 -20.618)" stroke="#425b40" stroke-linecap="round" stroke-linejoin="round" stroke-miterlimit="2" stroke-width=".33503"><path d="m-35.28 86.116c-7.2532 1.2725-11.612 9.9254-11.993 10.053-1.9724-1.8769 2.1632-12.629 11.993-10.053z" fill="#658b62"/><path d="m-35.28 86.116c-9.8527-0.20245-12.353 9.2654-11.993 10.053" fill="none"/></g><g transform="matrix(.91344 -.0031166 .0031157 .91317 42.6 -13.256)" stroke="#425b40" stroke-linecap="round" stroke-linejoin="round" stroke-miterlimit="2" stroke-width=".21727"><path d="m-35.28 86.116c-7.2532 1.2725-11.612 9.9254-11.993 10.053-1.9724-1.8769 2.1632-12.629 11.993-10.053z" fill="#658b62"/><path d="m-35.28 86.116c-9.8527-0.20245-12.353 9.2654-11.993 10.053" fill="none"/></g><g transform="matrix(.91344 -.0031166 .0031157 .91317 40.562 -25.348)" stroke="#425b40" stroke-linecap="round" stroke-linejoin="round" stroke-miterlimit="2" stroke-width=".21727"><path d="m-32.984 91.571c-6.8453 1.2007-10.958 9.3654-11.319 9.4855-1.8614-1.771 2.0416-11.917 11.319-9.4855z" fill="#658b62"/><path d="m-32.984 91.571c-9.2986-0.19103-11.658 8.7426-11.319 9.4855" fill="none"/></g></g><g transform="matrix(-1 0 0 1 -54.885 -4.0676)"><g transform="matrix(.80438 -.051919 .025075 .99825 -37.682 6.1571)" stroke="#425b40" stroke-linecap="round" stroke-linejoin="round" stroke-miterlimit="2" stroke-width=".22127"><path d="m-18.825 54.73c1.4172 1.8221 1.1679 4.4202 2.2476 5.7024-0.20245-1.1472 1.363-3.7648-0.0992-5.092-0.49488-0.49488-2.1259-1.1728-2.1484-0.61039z" fill="#425b40"/><path d="m-27.789 57.058c3.7451-1.7138 7.8814-3.3104 11.113-1.7178-0.7596-0.99635-3.1811-1.9232-4.183-2.2757-1.647-0.19887-3.888 0.78305-6.9298 3.9935z" fill="#658b62"/><path d="m-27.789 57.058c5.0838-4.0266 8.4769-3.3884 8.4769-3.3884" fill="none"/></g><g transform="matrix(-.92119 .17378 .26047 1.1329 -99.677 25.49)" stroke="#425b40" stroke-linecap="round" stroke-linejoin="round" stroke-miterlimit="2" stroke-width=".19016"><path d="m-18.825 54.73c1.4172 1.8221 1.1679 4.4202 2.2476 5.7024-0.20245-1.1472 1.363-3.7648-0.0992-5.092-0.49488-0.49488-2.1259-1.1728-2.1484-0.61039z" fill="#425b40"/><path d="m-27.789 57.058c3.7451-1.7138 7.8814-3.3104 11.113-1.7178-0.7596-0.99635-3.1811-1.9232-4.183-2.2757-1.647-0.19887-3.888 0.78305-6.9298 3.9935z" fill="#658b62"/><path d="m-27.789 57.058c5.0838-4.0266 8.4769-3.3884 8.4769-3.3884" fill="none"/></g><g fill="#425b40"><path d="m-59.298 5.7148c2.2535 4.3397 2.0228 12.754 2.0742 13.229 0.0514 0.47518-0.56034 19.941-1.1416 33.254-1.2225 26.898-2.7676 56.9-2.7676 56.9l0.91299 0.13335s1.5921-30.676 2.7689-57.483c0.85493-19.475 0.86962-32.16 0.77066-32.613-0.09897-0.4529 0.11262-11.224-2.6176-13.421z"/><path d="m-63.654 14.537s2.9491 1.5953 4.3924 4.3349c2.1341 4.0512 1.8935 7.8932 1.8935 7.8932l0.61811 0.12405s0.0654-4.1114-2.1009-8.1399c-1.5774-2.9333-4.8031-4.2123-4.8031-4.2123z"/><path d="m-49.754 14.118s-3.0295 1.1047-4.6174 3.2191c-2.3481 3.1266-2.3146 6.2276-2.3146 6.2276l-0.49805 0.10038s0.03033-3.3447 2.4093-6.4511c1.7322-2.2619 5.0208-3.0959 5.0208-3.0959z"/><path d="m-52.646 7.6592s-1.7694 0.75528-2.7419 2.2496c-1.4382 2.2097-1.5102 4.4287-1.5102 4.4287l-0.35938 0.03755s0.18666-2.3641 1.642-4.559c1.0597-1.5982 2.9696-2.1568 2.9696-2.1568z"/></g><g transform="matrix(.35829 -.087841 .08766 .35775 -53.5 -36.812)" stroke-linecap="round" stroke-linejoin="round" stroke-miterlimit="2" stroke-width=".53833"><path d="m-61.535 132.61c-1.7998 1.6183-4.0145 2.717-5.739 4.4225-0.85571 0.60767-0.57414 2.1008 0.58509 2.0184 1.2387-0.0977 2.0705-1.1913 2.8783-2.0145 0.6088-0.68964 1.1985-1.3959 1.7971-2.0943-1.0657 1.4768-2.3669 2.8216-3.1019 4.5082-0.51352 0.89628 0.42253 2.0929 1.4092 1.6455 1.1285-0.53317 1.5883-1.8205 2.1364-2.8567 0.69376-1.3286 1.0782-2.8321 2.027-4.0158-0.56867 2.3339-2.1104 4.33-2.5028 6.7156-0.23948 1.0242 1.0786 1.8197 1.8525 1.0842 0.8748-0.86034 0.96041-2.1853 1.1964-3.3246 0.27803-1.3792 0.26495-2.8354 0.83866-4.1412-0.06383 2.3053-0.8094 4.5793-0.51949 6.8918 0.04059 1.0535 1.5249 1.5833 2.0998 0.62101 0.59165-1.0935 0.31575-2.4027 0.23037-3.5852-0.12028-1.3917-0.46071-2.767-0.42-4.1697 0.74393 2.2599 0.66024 4.7527 1.7367 6.907 0.37275 0.94163 1.9012 1.105 2.2181 0.0358 0.2412-1.1423-0.41416-2.2305-0.82792-3.2554-0.53566-1.2801-1.2997-2.4643-1.7043-3.7968 0.34071 0.33499 0.9226 1.5708 1.3538 2.2562 0.78384 1.2714 1.4818 2.7042 2.7592 3.5513 0.81025 0.59451 2.1328-0.14142 1.8408-1.169-0.442-1.3717-1.5925-2.3472-2.5135-3.4054-0.30594-0.33697-0.93293-0.98612-0.2848-0.35312 1.0458 0.93374 2.0612 2.0879 3.4766 2.4248 0.94891 0.26926 1.9353-0.89342 1.2464-1.7139-1.0268-1.1584-2.5135-1.7452-3.8263-2.5144-0.89434-0.53086-1.8943-0.97048-2.6132-1.7372-0.73731-1.0343-1.6678-2.2775-3.0631-2.2867-1.4235 0.11009-2.4502 1.2684-3.4292 2.1828-0.38466 0.38394-0.7609 0.77616-1.1368 1.1686z" fill="#fbeb19" stop-color="#000000" stroke="#ada103"/><ellipse transform="matrix(.99871 -.050741 .050746 .99871 0 0)" cx="-64.202" cy="126.12" rx="4.6644" ry="4.6643" fill="#bea204" stroke="#877303"/></g><path d="m-51.986 21.844s-1.2549 2.9443-2.3213 6.811c-1.577 5.7179-2.8041 7.4732-2.6224 8.3417l-0.71214-0.17086s1.193-2.5033 2.8276-8.2027c1.1902-4.1501 2.8283-6.7792 2.8283-6.7792z" fill="#425b40"/><path d="m-46.994 23.465s-2.9207 0.67606-4.8148 2.6962c-2.8009 2.9873-3.6573 6.2069-3.6573 6.2069l-0.22858-0.02383s0.7377-3.4263 3.5609-6.3863c2.0557-2.1554 5.1398-2.493 5.1398-2.493z" fill="#425b40"/><g transform="matrix(-.28799 -.16075 -.16046 .28771 -43.56 -23.224)" stroke-linecap="round" stroke-linejoin="round" stroke-miterlimit="2" stroke-width=".60202"><path d="m-61.535 132.61c-1.7998 1.6183-4.0145 2.717-5.739 4.4225-0.85571 0.60767-0.57414 2.1008 0.58509 2.0184 1.2387-0.0977 2.0705-1.1913 2.8783-2.0145 0.6088-0.68964 1.1985-1.3959 1.7971-2.0943-1.0657 1.4768-2.3669 2.8216-3.1019 4.5082-0.51352 0.89628 0.42253 2.0929 1.4092 1.6455 1.1285-0.53317 1.5883-1.8205 2.1364-2.8567 0.69376-1.3286 1.0782-2.8321 2.027-4.0158-0.56867 2.3339-2.1104 4.33-2.5028 6.7156-0.23948 1.0242 1.0786 1.8197 1.8525 1.0842 0.8748-0.86034 0.96041-2.1853 1.1964-3.3246 0.27803-1.3792 0.26495-2.8354 0.83866-4.1412-0.06383 2.3053-0.8094 4.5793-0.51949 6.8918 0.04059 1.0535 1.5249 1.5833 2.0998 0.62101 0.59165-1.0935 0.31575-2.4027 0.23037-3.5852-0.12028-1.3917-0.46071-2.767-0.42-4.1697 0.74393 2.2599 0.66024 4.7527 1.7367 6.907 0.37275 0.94163 1.9012 1.105 2.2181 0.0358 0.2412-1.1423-0.41416-2.2305-0.82792-3.2554-0.53566-1.2801-1.2997-2.4643-1.7043-3.7968 0.34071 0.33499 0.9226 1.5708 1.3538 2.2562 0.78384 1.2714 1.4818 2.7042 2.7592 3.5513 0.81025 0.59451 2.1328-0.14142 1.8408-1.169-0.442-1.3717-1.5925-2.3472-2.5135-3.4054-0.30594-0.33697-0.93293-0.98612-0.2848-0.35312 1.0458 0.93374 2.0612 2.0879 3.4766 2.4248 0.94891 0.26926 1.9353-0.89342 1.2464-1.7139-1.0268-1.1584-2.5135-1.7452-3.8263-2.5144-0.89434-0.53086-1.8943-0.97048-2.6132-1.7372-0.73731-1.0343-1.6678-2.2775-3.0631-2.2867-1.4235 0.11009-2.4502 1.2684-3.4292 2.1828-0.38466 0.38394-0.7609 0.77616-1.1368 1.1686z" fill="#fbeb19" stop-color="#000000" stroke="#ada103"/><ellipse transform="matrix(.99871 -.050741 .050746 .99871 0 0)" cx="-64.202" cy="126.12" rx="4.6644" ry="4.6643" fill="#bea204" stroke="#877303"/></g><g transform="matrix(.32184 .072101 -.072127 .32143 -24.208 -16.274)" stroke-linecap="round" stroke-linejoin="round" stroke-miterlimit="2" stroke-width=".60202"><path d="m-61.535 132.61c-1.7998 1.6183-4.0145 2.717-5.739 4.4225-0.85571 0.60767-0.57414 2.1008 0.58509 2.0184 1.2387-0.0977 2.0705-1.1913 2.8783-2.0145 0.6088-0.68964 1.1985-1.3959 1.7971-2.0943-1.0657 1.4768-2.3669 2.8216-3.1019 4.5082-0.51352 0.89628 0.42253 2.0929 1.4092 1.6455 1.1285-0.53317 1.5883-1.8205 2.1364-2.8567 0.69376-1.3286 1.0782-2.8321 2.027-4.0158-0.56867 2.3339-2.1104 4.33-2.5028 6.7156-0.23948 1.0242 1.0786 1.8197 1.8525 1.0842 0.8748-0.86034 0.96041-2.1853 1.1964-3.3246 0.27803-1.3792 0.26495-2.8354 0.83866-4.1412-0.06383 2.3053-0.8094 4.5793-0.51949 6.8918 0.04059 1.0535 1.5249 1.5833 2.0998 0.62101 0.59165-1.0935 0.31575-2.4027 0.23037-3.5852-0.12028-1.3917-0.46071-2.767-0.42-4.1697 0.74393 2.2599 0.66024 4.7527 1.7367 6.907 0.37275 0.94163 1.9012 1.105 2.2181 0.0358 0.2412-1.1423-0.41416-2.2305-0.82792-3.2554-0.53566-1.2801-1.2997-2.4643-1.7043-3.7968 0.34071 0.33499 0.9226 1.5708 1.3538 2.2562 0.78384 1.2714 1.4818 2.7042 2.7592 3.5513 0.81025 0.59451 2.1328-0.14142 1.8408-1.169-0.442-1.3717-1.5925-2.3472-2.5135-3.4054-0.30594-0.33697-0.93293-0.98612-0.2848-0.35312 1.0458 0.93374 2.0612 2.0879 3.4766 2.4248 0.94891 0.26926 1.9353-0.89342 1.2464-1.7139-1.0268-1.1584-2.5135-1.7452-3.8263-2.5144-0.89434-0.53086-1.8943-0.97048-2.6132-1.7372-0.73731-1.0343-1.6678-2.2775-3.0631-2.2867-1.4235 0.11009-2.4502 1.2684-3.4292 2.1828-0.38466 0.38394-0.7609 0.77616-1.1368 1.1686z" fill="#fbeb19" stop-color="#000000" stroke="#ada103"/><ellipse transform="matrix(.99871 -.050741 .050746 .99871 0 0)" cx="-64.202" cy="126.12" rx="4.6644" ry="4.6643" fill="#bea204" stroke="#877303"/></g><path d="m-62.509 24.468s2.0968 4.5707 2.8657 8.9385c1.137 6.4587 1.988 8.7284 1.988 8.7284l0.25257-0.61725s-0.58647-1.6857-1.7889-8.1302c-0.87549-4.6926-3.3175-8.9195-3.3175-8.9195z" fill="#425b40"/><path d="m-65.037 29.728s3.1237 0.97174 5.1587 3.2599c0.56373 0.63387 0.77171 2.7884 0.77171 2.7884l0.25384-0.01288s-0.41273-2.7276-0.65478-2.9808c-1.5009-1.5698-3.4224-2.6117-5.5294-3.0546z" fill="#425b40"/><g transform="matrix(.2815 -.23192 .23156 .28116 -79.433 -20.875)" stroke-linecap="round" stroke-linejoin="round" stroke-miterlimit="2" stroke-width=".54443"><path d="m-61.535 132.61c-1.7998 1.6183-4.0145 2.717-5.739 4.4225-0.85571 0.60767-0.57414 2.1008 0.58509 2.0184 1.2387-0.0977 2.0705-1.1913 2.8783-2.0145 0.6088-0.68964 1.1985-1.3959 1.7971-2.0943-1.0657 1.4768-2.3669 2.8216-3.1019 4.5082-0.51352 0.89628 0.42253 2.0929 1.4092 1.6455 1.1285-0.53317 1.5883-1.8205 2.1364-2.8567 0.69376-1.3286 1.0782-2.8321 2.027-4.0158-0.56867 2.3339-2.1104 4.33-2.5028 6.7156-0.23948 1.0242 1.0786 1.8197 1.8525 1.0842 0.8748-0.86034 0.96041-2.1853 1.1964-3.3246 0.27803-1.3792 0.26495-2.8354 0.83866-4.1412-0.06383 2.3053-0.8094 4.5793-0.51949 6.8918 0.04059 1.0535 1.5249 1.5833 2.0998 0.62101 0.59165-1.0935 0.31575-2.4027 0.23037-3.5852-0.12028-1.3917-0.46071-2.767-0.42-4.1697 0.74393 2.2599 0.66024 4.7527 1.7367 6.907 0.37275 0.94163 1.9012 1.105 2.2181 0.0358 0.2412-1.1423-0.41416-2.2305-0.82792-3.2554-0.53566-1.2801-1.2997-2.4643-1.7043-3.7968 0.34071 0.33499 0.9226 1.5708 1.3538 2.2562 0.78384 1.2714 1.4818 2.7042 2.7592 3.5513 0.81025 0.59451 2.1328-0.14142 1.8408-1.169-0.442-1.3717-1.5925-2.3472-2.5135-3.4054-0.30594-0.33697-0.93293-0.98612-0.2848-0.35312 1.0458 0.93374 2.0612 2.0879 3.4766 2.4248 0.94891 0.26926 1.9353-0.89342 1.2464-1.7139-1.0268-1.1584-2.5135-1.7452-3.8263-2.5144-0.89434-0.53086-1.8943-0.97048-2.6132-1.7372-0.73731-1.0343-1.6678-2.2775-3.0631-2.2867-1.4235 0.11009-2.4502 1.2684-3.4292 2.1828-0.38466 0.38394-0.7609 0.77616-1.1368 1.1686z" fill="#fbeb19" stop-color="#000000" stroke="#ada103"/><ellipse transform="matrix(.99871 -.050741 .050746 .99871 0 0)" cx="-64.202" cy="126.12" rx="4.6644" ry="4.6643" fill="#bea204" stroke="#877303"/></g><g transform="matrix(-.36449 .013543 .013665 .36397 -84.953 -22.851)" stroke-linecap="round" stroke-linejoin="round" stroke-miterlimit="2" stroke-width=".54443"><path d="m-61.535 132.61c-1.7998 1.6183-4.0145 2.717-5.739 4.4225-0.85571 0.60767-0.57414 2.1008 0.58509 2.0184 1.2387-0.0977 2.0705-1.1913 2.8783-2.0145 0.6088-0.68964 1.1985-1.3959 1.7971-2.0943-1.0657 1.4768-2.3669 2.8216-3.1019 4.5082-0.51352 0.89628 0.42253 2.0929 1.4092 1.6455 1.1285-0.53317 1.5883-1.8205 2.1364-2.8567 0.69376-1.3286 1.0782-2.8321 2.027-4.0158-0.56867 2.3339-2.1104 4.33-2.5028 6.7156-0.23948 1.0242 1.0786 1.8197 1.8525 1.0842 0.8748-0.86034 0.96041-2.1853 1.1964-3.3246 0.27803-1.3792 0.26495-2.8354 0.83866-4.1412-0.06383 2.3053-0.8094 4.5793-0.51949 6.8918 0.04059 1.0535 1.5249 1.5833 2.0998 0.62101 0.59165-1.0935 0.31575-2.4027 0.23037-3.5852-0.12028-1.3917-0.46071-2.767-0.42-4.1697 0.74393 2.2599 0.66024 4.7527 1.7367 6.907 0.37275 0.94163 1.9012 1.105 2.2181 0.0358 0.2412-1.1423-0.41416-2.2305-0.82792-3.2554-0.53566-1.2801-1.2997-2.4643-1.7043-3.7968 0.34071 0.33499 0.9226 1.5708 1.3538 2.2562 0.78384 1.2714 1.4818 2.7042 2.7592 3.5513 0.81025 0.59451 2.1328-0.14142 1.8408-1.169-0.442-1.3717-1.5925-2.3472-2.5135-3.4054-0.30594-0.33697-0.93293-0.98612-0.2848-0.35312 1.0458 0.93374 2.0612 2.0879 3.4766 2.4248 0.94891 0.26926 1.9353-0.89342 1.2464-1.7139-1.0268-1.1584-2.5135-1.7452-3.8263-2.5144-0.89434-0.53086-1.8943-0.97048-2.6132-1.7372-0.73731-1.0343-1.6678-2.2775-3.0631-2.2867-1.4235 0.11009-2.4502 1.2684-3.4292 2.1828-0.38466 0.38394-0.7609 0.77616-1.1368 1.1686z" fill="#fbeb19" stop-color="#000000" stroke="#ada103"/><ellipse transform="matrix(.99871 -.050741 .050746 .99871 0 0)" cx="-64.202" cy="126.12" rx="4.6644" ry="4.6643" fill="#bea204" stroke="#877303"/></g><g transform="matrix(-.35821 .088141 .088052 .35765 -91.502 -36.122)" stroke-linecap="round" stroke-linejoin="round" stroke-miterlimit="2" stroke-width=".53833"><path d="m-61.535 132.61c-1.7998 1.6183-4.0145 2.717-5.739 4.4225-0.85571 0.60767-0.57414 2.1008 0.58509 2.0184 1.2387-0.0977 2.0705-1.1913 2.8783-2.0145 0.6088-0.68964 1.1985-1.3959 1.7971-2.0943-1.0657 1.4768-2.3669 2.8216-3.1019 4.5082-0.51352 0.89628 0.42253 2.0929 1.4092 1.6455 1.1285-0.53317 1.5883-1.8205 2.1364-2.8567 0.69376-1.3286 1.0782-2.8321 2.027-4.0158-0.56867 2.3339-2.1104 4.33-2.5028 6.7156-0.23948 1.0242 1.0786 1.8197 1.8525 1.0842 0.8748-0.86034 0.96041-2.1853 1.1964-3.3246 0.27803-1.3792 0.26495-2.8354 0.83866-4.1412-0.06383 2.3053-0.8094 4.5793-0.51949 6.8918 0.04059 1.0535 1.5249 1.5833 2.0998 0.62101 0.59165-1.0935 0.31575-2.4027 0.23037-3.5852-0.12028-1.3917-0.46071-2.767-0.42-4.1697 0.74393 2.2599 0.66024 4.7527 1.7367 6.907 0.37275 0.94163 1.9012 1.105 2.2181 0.0358 0.2412-1.1423-0.41416-2.2305-0.82792-3.2554-0.53566-1.2801-1.2997-2.4643-1.7043-3.7968 0.34071 0.33499 0.9226 1.5708 1.3538 2.2562 0.78384 1.2714 1.4818 2.7042 2.7592 3.5513 0.81025 0.59451 2.1328-0.14142 1.8408-1.169-0.442-1.3717-1.5925-2.3472-2.5135-3.4054-0.30594-0.33697-0.93293-0.98612-0.2848-0.35312 1.0458 0.93374 2.0612 2.0879 3.4766 2.4248 0.94891 0.26926 1.9353-0.89342 1.2464-1.7139-1.0268-1.1584-2.5135-1.7452-3.8263-2.5144-0.89434-0.53086-1.8943-0.97048-2.6132-1.7372-0.73731-1.0343-1.6678-2.2775-3.0631-2.2867-1.4235 0.11009-2.4502 1.2684-3.4292 2.1828-0.38466 0.38394-0.7609 0.77616-1.1368 1.1686z" fill="#fbeb19" stop-color="#000000" stroke="#ada103"/><ellipse transform="matrix(.99871 -.050741 .050746 .99871 0 0)" cx="-64.202" cy="126.12" rx="4.6644" ry="4.6643" fill="#bea204" stroke="#877303"/></g><g transform="matrix(-.32121 -.081879 -.081705 .3206 -61.483 -38.722)" stroke-linecap="round" stroke-linejoin="round" stroke-miterlimit="2" stroke-width=".59921"><path d="m-61.535 132.61c-1.7998 1.6183-4.0145 2.717-5.739 4.4225-0.85571 0.60767-0.57414 2.1008 0.58509 2.0184 1.2387-0.0977 2.0705-1.1913 2.8783-2.0145 0.6088-0.68964 1.1985-1.3959 1.7971-2.0943-1.0657 1.4768-2.3669 2.8216-3.1019 4.5082-0.51352 0.89628 0.42253 2.0929 1.4092 1.6455 1.1285-0.53317 1.5883-1.8205 2.1364-2.8567 0.69376-1.3286 1.0782-2.8321 2.027-4.0158-0.56867 2.3339-2.1104 4.33-2.5028 6.7156-0.23948 1.0242 1.0786 1.8197 1.8525 1.0842 0.8748-0.86034 0.96041-2.1853 1.1964-3.3246 0.27803-1.3792 0.26495-2.8354 0.83866-4.1412-0.06383 2.3053-0.8094 4.5793-0.51949 6.8918 0.04059 1.0535 1.5249 1.5833 2.0998 0.62101 0.59165-1.0935 0.31575-2.4027 0.23037-3.5852-0.12028-1.3917-0.46071-2.767-0.42-4.1697 0.74393 2.2599 0.66024 4.7527 1.7367 6.907 0.37275 0.94163 1.9012 1.105 2.2181 0.0358 0.2412-1.1423-0.41416-2.2305-0.82792-3.2554-0.53566-1.2801-1.2997-2.4643-1.7043-3.7968 0.34071 0.33499 0.9226 1.5708 1.3538 2.2562 0.78384 1.2714 1.4818 2.7042 2.7592 3.5513 0.81025 0.59451 2.1328-0.14142 1.8408-1.169-0.442-1.3717-1.5925-2.3472-2.5135-3.4054-0.30594-0.33697-0.93293-0.98612-0.2848-0.35312 1.0458 0.93374 2.0612 2.0879 3.4766 2.4248 0.94891 0.26926 1.9353-0.89342 1.2464-1.7139-1.0268-1.1584-2.5135-1.7452-3.8263-2.5144-0.89434-0.53086-1.8943-0.97048-2.6132-1.7372-0.73731-1.0343-1.6678-2.2775-3.0631-2.2867-1.4235 0.11009-2.4502 1.2684-3.4292 2.1828-0.38466 0.38394-0.7609 0.77616-1.1368 1.1686z" fill="#fbeb19" stop-color="#000000" stroke="#ada103"/><ellipse transform="matrix(.99871 -.050741 .050746 .99871 0 0)" cx="-64.202" cy="126.12" rx="4.6644" ry="4.6643" fill="#bea204" stroke="#877303"/></g><g transform="matrix(.29159 .15764 -.15736 .29103 -13.165 -15.21)" stroke-linecap="round" stroke-linejoin="round" stroke-miterlimit="2" stroke-width=".59921"><path d="m-61.535 132.61c-1.7998 1.6183-4.0145 2.717-5.739 4.4225-0.85571 0.60767-0.57414 2.1008 0.58509 2.0184 1.2387-0.0977 2.0705-1.1913 2.8783-2.0145 0.6088-0.68964 1.1985-1.3959 1.7971-2.0943-1.0657 1.4768-2.3669 2.8216-3.1019 4.5082-0.51352 0.89628 0.42253 2.0929 1.4092 1.6455 1.1285-0.53317 1.5883-1.8205 2.1364-2.8567 0.69376-1.3286 1.0782-2.8321 2.027-4.0158-0.56867 2.3339-2.1104 4.33-2.5028 6.7156-0.23948 1.0242 1.0786 1.8197 1.8525 1.0842 0.8748-0.86034 0.96041-2.1853 1.1964-3.3246 0.27803-1.3792 0.26495-2.8354 0.83866-4.1412-0.06383 2.3053-0.8094 4.5793-0.51949 6.8918 0.04059 1.0535 1.5249 1.5833 2.0998 0.62101 0.59165-1.0935 0.31575-2.4027 0.23037-3.5852-0.12028-1.3917-0.46071-2.767-0.42-4.1697 0.74393 2.2599 0.66024 4.7527 1.7367 6.907 0.37275 0.94163 1.9012 1.105 2.2181 0.0358 0.2412-1.1423-0.41416-2.2305-0.82792-3.2554-0.53566-1.2801-1.2997-2.4643-1.7043-3.7968 0.34071 0.33499 0.9226 1.5708 1.3538 2.2562 0.78384 1.2714 1.4818 2.7042 2.7592 3.5513 0.81025 0.59451 2.1328-0.14142 1.8408-1.169-0.442-1.3717-1.5925-2.3472-2.5135-3.4054-0.30594-0.33697-0.93293-0.98612-0.2848-0.35312 1.0458 0.93374 2.0612 2.0879 3.4766 2.4248 0.94891 0.26926 1.9353-0.89342 1.2464-1.7139-1.0268-1.1584-2.5135-1.7452-3.8263-2.5144-0.89434-0.53086-1.8943-0.97048-2.6132-1.7372-0.73731-1.0343-1.6678-2.2775-3.0631-2.2867-1.4235 0.11009-2.4502 1.2684-3.4292 2.1828-0.38466 0.38394-0.7609 0.77616-1.1368 1.1686z" fill="#fbeb19" stop-color="#000000" stroke="#ada103"/><ellipse transform="matrix(.99871 -.050741 .050746 .99871 0 0)" cx="-64.202" cy="126.12" rx="4.6644" ry="4.6643" fill="#bea204" stroke="#877303"/></g><g stroke="#425b40" stroke-linecap="round" stroke-linejoin="round" stroke-miterlimit="2" stroke-width=".21727"><g transform="matrix(.91242 .043326 -.043313 .91215 -24.536 27.507)"><path d="m-35.28 86.116c-7.2532 1.2725-11.612 9.9254-11.993 10.053-1.9724-1.8769 2.1632-12.629 11.993-10.053z" fill="#658b62"/><path d="m-35.28 86.116c-9.8527-0.20245-12.353 9.2654-11.993 10.053" fill="none"/></g><g transform="matrix(-.91242 -.043326 -.043313 .91215 -89.213 20.606)"><path d="m-35.28 86.116c-7.2532 1.2725-11.612 9.9254-11.993 10.053-1.9724-1.8769 2.1632-12.629 11.993-10.053z" fill="#658b62"/><path d="m-35.28 86.116c-9.8527-0.20245-12.353 9.2654-11.993 10.053" fill="none"/></g><g transform="matrix(.91242 .043326 -.043313 .91215 -23.724 17.491)"><path d="m-35.28 86.116c-7.2532 1.2725-11.612 9.9254-11.993 10.053-1.9724-1.8769 2.1632-12.629 11.993-10.053z" fill="#658b62"/><path d="m-35.28 86.116c-9.8527-0.20245-12.353 9.2654-11.993 10.053" fill="none"/></g><g transform="matrix(-.91242 -.043326 -.043313 .91215 -88.383 8.3376)"><path d="m-35.28 86.116c-7.2532 1.2725-11.612 9.9254-11.993 10.053-1.9724-1.8769 2.1632-12.629 11.993-10.053z" fill="#658b62"/><path d="m-35.28 86.116c-9.8527-0.20245-12.353 9.2654-11.993 10.053" fill="none"/></g><g transform="matrix(-.91242 -.043326 -.043313 .91215 -87.625 -1.1091)"><path d="m-35.28 86.116c-7.2532 1.2725-11.612 9.9254-11.993 10.053-1.9724-1.8769 2.1632-12.629 11.993-10.053z" fill="#658b62"/><path d="m-35.28 86.116c-9.8527-0.20245-12.353 9.2654-11.993 10.053" fill="none"/></g></g><g transform="matrix(-.79714 -.037852 -.043313 .91215 -83.312 -9.772)" stroke="#425b40" stroke-linecap="round" stroke-linejoin="round" stroke-miterlimit="2" stroke-width=".23245"><path d="m-35.28 86.116c-7.2532 1.2725-11.612 9.9254-11.993 10.053-1.9724-1.8769 2.1632-12.629 11.993-10.053z" fill="#658b62"/><path d="m-35.28 86.116c-9.8527-0.20245-12.353 9.2654-11.993 10.053" fill="none"/></g><g transform="matrix(-.66559 .033093 .03795 .76106 -84.77 -12.06)" stroke="#425b40" stroke-linecap="round" stroke-linejoin="round" stroke-miterlimit="2" stroke-width=".27847"><path d="m-35.28 86.116c-7.2532 1.2725-11.612 9.9254-11.993 10.053-1.9724-1.8769 2.1632-12.629 11.993-10.053z" fill="#658b62"/><path d="m-35.28 86.116c-9.8527-0.20245-12.353 9.2654-11.993 10.053" fill="none"/></g><g transform="matrix(-.57097 .037586 .027393 .76056 -80.253 -19.594)" stroke="#425b40" stroke-linecap="round" stroke-linejoin="round" stroke-miterlimit="2" stroke-width=".30077"><path d="m-35.28 86.116c-7.2532 1.2725-11.612 9.9254-11.993 10.053-1.9724-1.8769 2.1632-12.629 11.993-10.053z" fill="#658b62"/><path d="m-35.28 86.116c-9.8527-0.20245-12.353 9.2654-11.993 10.053" fill="none"/></g><g transform="matrix(.7494 .035585 -.040717 .85748 -28.211 -14.483)" stroke="#425b40" stroke-linecap="round" stroke-linejoin="round" stroke-miterlimit="2" stroke-width=".24727"><path d="m-35.28 86.116c-7.2532 1.2725-11.612 9.9254-11.993 10.053-1.9724-1.8769 2.1632-12.629 11.993-10.053z" fill="#658b62"/><path d="m-35.28 86.116c-9.8527-0.20245-12.353 9.2654-11.993 10.053" fill="none"/></g><g transform="matrix(.68045 .032311 -.036968 .77852 -30.555 -16.551)" stroke="#425b40" stroke-linecap="round" stroke-linejoin="round" stroke-miterlimit="2" stroke-width=".27233"><path d="m-35.28 86.116c-7.2532 1.2725-11.612 9.9254-11.993 10.053-1.9724-1.8769 2.1632-12.629 11.993-10.053z" fill="#658b62"/><path d="m-35.28 86.116c-9.8527-0.20245-12.353 9.2654-11.993 10.053" fill="none"/></g><g transform="matrix(.55317 .026267 -.030047 .63276 -35.267 -11.718)" stroke="#425b40" stroke-linecap="round" stroke-linejoin="round" stroke-miterlimit="2" stroke-width=".33503"><path d="m-35.28 86.116c-7.2532 1.2725-11.612 9.9254-11.993 10.053-1.9724-1.8769 2.1632-12.629 11.993-10.053z" fill="#658b62"/><path d="m-35.28 86.116c-9.8527-0.20245-12.353 9.2654-11.993 10.053" fill="none"/></g><g transform="matrix(.91256 .040212 -.040201 .91229 -23.245 -3.7772)" stroke="#425b40" stroke-linecap="round" stroke-linejoin="round" stroke-miterlimit="2" stroke-width=".21727"><path d="m-35.28 86.116c-7.2532 1.2725-11.612 9.9254-11.993 10.053-1.9724-1.8769 2.1632-12.629 11.993-10.053z" fill="#658b62"/><path d="m-35.28 86.116c-9.8527-0.20245-12.353 9.2654-11.993 10.053" fill="none"/></g><g transform="matrix(.91256 .040212 -.040201 .91229 -24.707 -15.952)" stroke="#425b40" stroke-linecap="round" stroke-linejoin="round" stroke-miterlimit="2" stroke-width=".21727"><path d="m-32.984 91.571c-6.8453 1.2007-10.958 9.3654-11.319 9.4855-1.8614-1.771 2.0416-11.917 11.319-9.4855z" fill="#658b62"/><path d="m-32.984 91.571c-9.2986-0.19103-11.658 8.7426-11.319 9.4855" fill="none"/></g><g transform="matrix(.62544 .31397 -.31327 .62344 -4.5404 7.7454)" stroke="#425b40" stroke-linecap="round" stroke-linejoin="round" stroke-miterlimit="2" stroke-width=".28398"><path d="m-39.85 69.857c1.4172 1.8221 1.1679 4.4202 2.2476 5.7024-0.20245-1.1472 1.363-3.7648-0.0992-5.092-0.49488-0.49488-2.1259-1.1728-2.1484-0.61039z" fill="#425b40"/><path d="m-48.814 72.185c3.7451-1.7138 7.8814-3.3104 11.113-1.7178-0.7596-0.99635-3.1811-1.9232-4.183-2.2757-1.647-0.19887-3.888 0.78305-6.9298 3.9935z" fill="#658b62"/><path d="m-48.814 72.185c5.0838-4.0266 8.4769-3.3884 8.4769-3.3884" fill="none"/></g></g><path d="m27.442 5.5533c-1.8777 3.842-3.3183 11.406-3.4055 11.846-0.087166 0.44016-0.94852 18.674-1.3752 31.156-0.81417 25.223-1.5413 53.371-1.5413 53.371l-0.92041 0.0566s0.73122-28.781 1.584-53.916c0.61958-18.26 1.5637-30.114 1.6966-30.53 0.13291-0.41579 2.0497-10.613 3.9618-11.985z" fill="#425b40"/><path d="m19.118 8.2802s2.423 1.7653 3.3753 4.3657c1.4082 3.8453 0.73702 7.2222 0.73702 7.2222l0.5329 0.18357s0.54796-3.6367-0.89139-7.4656c-1.048-2.788-3.7538-4.3059-3.7538-4.3059z" fill="#425b40"/><g transform="matrix(.32793 -.035193 .035036 .32756 34.234 -36.027)" stroke-linecap="round" stroke-linejoin="round" stroke-miterlimit="2" stroke-width=".60202"><path d="m-61.535 132.61c-1.7998 1.6183-4.0145 2.717-5.739 4.4225-0.85571 0.60767-0.57414 2.1008 0.58509 2.0184 1.2387-0.0977 2.0705-1.1913 2.8783-2.0145 0.6088-0.68964 1.1985-1.3959 1.7971-2.0943-1.0657 1.4768-2.3669 2.8216-3.1019 4.5082-0.51352 0.89628 0.42253 2.0929 1.4092 1.6455 1.1285-0.53317 1.5883-1.8205 2.1364-2.8567 0.69376-1.3286 1.0782-2.8321 2.027-4.0158-0.56867 2.3339-2.1104 4.33-2.5028 6.7156-0.23948 1.0242 1.0786 1.8197 1.8525 1.0842 0.8748-0.86034 0.96041-2.1853 1.1964-3.3246 0.27803-1.3792 0.26495-2.8354 0.83866-4.1412-0.06383 2.3053-0.8094 4.5793-0.51949 6.8918 0.04059 1.0535 1.5249 1.5833 2.0998 0.62101 0.59165-1.0935 0.31575-2.4027 0.23037-3.5852-0.12028-1.3917-0.46071-2.767-0.42-4.1697 0.74393 2.2599 0.66024 4.7527 1.7367 6.907 0.37275 0.94163 1.9012 1.105 2.2181 0.0358 0.2412-1.1423-0.41416-2.2305-0.82792-3.2554-0.53566-1.2801-1.2997-2.4643-1.7043-3.7968 0.34071 0.33499 0.9226 1.5708 1.3538 2.2562 0.78384 1.2714 1.4818 2.7042 2.7592 3.5513 0.81025 0.59451 2.1328-0.14142 1.8408-1.169-0.442-1.3717-1.5925-2.3472-2.5135-3.4054-0.30594-0.33697-0.93293-0.98612-0.2848-0.35312 1.0458 0.93374 2.0612 2.0879 3.4766 2.4248 0.94891 0.26926 1.9353-0.89342 1.2464-1.7139-1.0268-1.1584-2.5135-1.7452-3.8263-2.5144-0.89434-0.53086-1.8943-0.97048-2.6132-1.7372-0.73731-1.0343-1.6678-2.2775-3.0631-2.2867-1.4235 0.11009-2.4502 1.2684-3.4292 2.1828-0.38466 0.38394-0.7609 0.77616-1.1368 1.1686z" fill="#fbeb19" stop-color="#000000" stroke="#ada103"/><ellipse transform="matrix(.99871 -.050741 .050746 .99871 0 0)" cx="-64.202" cy="126.12" rx="4.6644" ry="4.6643" fill="#bea204" stroke="#877303"/></g><g transform="matrix(-.32575 -.051632 -.051457 .32538 15.695 -40.321)" stroke-linecap="round" stroke-linejoin="round" stroke-miterlimit="2" stroke-width=".60202"><path d="m-61.535 132.61c-1.7998 1.6183-4.0145 2.717-5.739 4.4225-0.85571 0.60767-0.57414 2.1008 0.58509 2.0184 1.2387-0.0977 2.0705-1.1913 2.8783-2.0145 0.6088-0.68964 1.1985-1.3959 1.7971-2.0943-1.0657 1.4768-2.3669 2.8216-3.1019 4.5082-0.51352 0.89628 0.42253 2.0929 1.4092 1.6455 1.1285-0.53317 1.5883-1.8205 2.1364-2.8567 0.69376-1.3286 1.0782-2.8321 2.027-4.0158-0.56867 2.3339-2.1104 4.33-2.5028 6.7156-0.23948 1.0242 1.0786 1.8197 1.8525 1.0842 0.8748-0.86034 0.96041-2.1853 1.1964-3.3246 0.27803-1.3792 0.26495-2.8354 0.83866-4.1412-0.06383 2.3053-0.8094 4.5793-0.51949 6.8918 0.04059 1.0535 1.5249 1.5833 2.0998 0.62101 0.59165-1.0935 0.31575-2.4027 0.23037-3.5852-0.12028-1.3917-0.46071-2.767-0.42-4.1697 0.74393 2.2599 0.66024 4.7527 1.7367 6.907 0.37275 0.94163 1.9012 1.105 2.2181 0.0358 0.2412-1.1423-0.41416-2.2305-0.82792-3.2554-0.53566-1.2801-1.2997-2.4643-1.7043-3.7968 0.34071 0.33499 0.9226 1.5708 1.3538 2.2562 0.78384 1.2714 1.4818 2.7042 2.7592 3.5513 0.81025 0.59451 2.1328-0.14142 1.8408-1.169-0.442-1.3717-1.5925-2.3472-2.5135-3.4054-0.30594-0.33697-0.93293-0.98612-0.2848-0.35312 1.0458 0.93374 2.0612 2.0879 3.4766 2.4248 0.94891 0.26926 1.9353-0.89342 1.2464-1.7139-1.0268-1.1584-2.5135-1.7452-3.8263-2.5144-0.89434-0.53086-1.8943-0.97048-2.6132-1.7372-0.73731-1.0343-1.6678-2.2775-3.0631-2.2867-1.4235 0.11009-2.4502 1.2684-3.4292 2.1828-0.38466 0.38394-0.7609 0.77616-1.1368 1.1686z" fill="#fbeb19" stop-color="#000000" stroke="#ada103"/><ellipse transform="matrix(.99871 -.050741 .050746 .99871 0 0)" cx="-64.202" cy="126.12" rx="4.6644" ry="4.6643" fill="#bea204" stroke="#877303"/></g><path d="m16.896 20.349s2.5292 1.2103 3.8484 3.4395c1.9507 3.2964 1.9095 6.5169 1.9095 6.5169l0.52136 0.07792s-0.11636-3.4383-2.093-6.7144c-1.4393-2.3855-4.1863-3.3199-4.1863-3.3199z" fill="#425b40"/><g transform="matrix(.29556 -.088318 .088085 .29529 23.24 -22.982)" stroke-linecap="round" stroke-linejoin="round" stroke-miterlimit="2" stroke-width=".64363"><path d="m-61.535 132.61c-1.7998 1.6183-4.0145 2.717-5.739 4.4225-0.85571 0.60767-0.57414 2.1008 0.58509 2.0184 1.2387-0.0977 2.0705-1.1913 2.8783-2.0145 0.6088-0.68964 1.1985-1.3959 1.7971-2.0943-1.0657 1.4768-2.3669 2.8216-3.1019 4.5082-0.51352 0.89628 0.42253 2.0929 1.4092 1.6455 1.1285-0.53317 1.5883-1.8205 2.1364-2.8567 0.69376-1.3286 1.0782-2.8321 2.027-4.0158-0.56867 2.3339-2.1104 4.33-2.5028 6.7156-0.23948 1.0242 1.0786 1.8197 1.8525 1.0842 0.8748-0.86034 0.96041-2.1853 1.1964-3.3246 0.27803-1.3792 0.26495-2.8354 0.83866-4.1412-0.06383 2.3053-0.8094 4.5793-0.51949 6.8918 0.04059 1.0535 1.5249 1.5833 2.0998 0.62101 0.59165-1.0935 0.31575-2.4027 0.23037-3.5852-0.12028-1.3917-0.46071-2.767-0.42-4.1697 0.74393 2.2599 0.66024 4.7527 1.7367 6.907 0.37275 0.94163 1.9012 1.105 2.2181 0.0358 0.2412-1.1423-0.41416-2.2305-0.82792-3.2554-0.53566-1.2801-1.2997-2.4643-1.7043-3.7968 0.34071 0.33499 0.9226 1.5708 1.3538 2.2562 0.78384 1.2714 1.4818 2.7042 2.7592 3.5513 0.81025 0.59451 2.1328-0.14142 1.8408-1.169-0.442-1.3717-1.5925-2.3472-2.5135-3.4054-0.30594-0.33697-0.93293-0.98612-0.2848-0.35312 1.0458 0.93374 2.0612 2.0879 3.4766 2.4248 0.94891 0.26926 1.9353-0.89342 1.2464-1.7139-1.0268-1.1584-2.5135-1.7452-3.8263-2.5144-0.89434-0.53086-1.8943-0.97048-2.6132-1.7372-0.73731-1.0343-1.6678-2.2775-3.0631-2.2867-1.4235 0.11009-2.4502 1.2684-3.4292 2.1828-0.38466 0.38394-0.7609 0.77616-1.1368 1.1686z" fill="#fbeb19" stop-color="#000000" stroke="#ada103"/><ellipse transform="matrix(.99871 -.050741 .050746 .99871 0 0)" cx="-64.202" cy="126.12" rx="4.6644" ry="4.6643" fill="#bea204" stroke="#877303"/></g><path d="m28.866 16.072s-2.3112 4.4661-3.2865 8.7925c-1.4421 6.3975-2.3998 8.6243-2.3998 8.6243l-0.22301-0.62853s0.66576-1.6559 2.1725-8.0362c1.0971-4.6458 3.7368-8.7521 3.7368-8.7521z" fill="#425b40"/><path d="m22.502 18.127s2.19 2.034 2.9638 4.7233c0.21436 0.74499-0.46413 2.6029-0.46413 2.6029l0.21418 0.08959s0.73587-2.4111 0.63634-2.7153c-0.61722-1.8863-1.7891-3.5036-3.3502-4.7004z" fill="#425b40"/><g transform="matrix(.32337 -.080035 .079854 .32315 30.603 -29.264)" stroke-linecap="round" stroke-linejoin="round" stroke-miterlimit="2" stroke-width=".59591"><path d="m-61.535 132.61c-1.7998 1.6183-4.0145 2.717-5.739 4.4225-0.85571 0.60767-0.57414 2.1008 0.58509 2.0184 1.2387-0.0977 2.0705-1.1913 2.8783-2.0145 0.6088-0.68964 1.1985-1.3959 1.7971-2.0943-1.0657 1.4768-2.3669 2.8216-3.1019 4.5082-0.51352 0.89628 0.42253 2.0929 1.4092 1.6455 1.1285-0.53317 1.5883-1.8205 2.1364-2.8567 0.69376-1.3286 1.0782-2.8321 2.027-4.0158-0.56867 2.3339-2.1104 4.33-2.5028 6.7156-0.23948 1.0242 1.0786 1.8197 1.8525 1.0842 0.8748-0.86034 0.96041-2.1853 1.1964-3.3246 0.27803-1.3792 0.26495-2.8354 0.83866-4.1412-0.06383 2.3053-0.8094 4.5793-0.51949 6.8918 0.04059 1.0535 1.5249 1.5833 2.0998 0.62101 0.59165-1.0935 0.31575-2.4027 0.23037-3.5852-0.12028-1.3917-0.46071-2.767-0.42-4.1697 0.74393 2.2599 0.66024 4.7527 1.7367 6.907 0.37275 0.94163 1.9012 1.105 2.2181 0.0358 0.2412-1.1423-0.41416-2.2305-0.82792-3.2554-0.53566-1.2801-1.2997-2.4643-1.7043-3.7968 0.34071 0.33499 0.9226 1.5708 1.3538 2.2562 0.78384 1.2714 1.4818 2.7042 2.7592 3.5513 0.81025 0.59451 2.1328-0.14142 1.8408-1.169-0.442-1.3717-1.5925-2.3472-2.5135-3.4054-0.30594-0.33697-0.93293-0.98612-0.2848-0.35312 1.0458 0.93374 2.0612 2.0879 3.4766 2.4248 0.94891 0.26926 1.9353-0.89342 1.2464-1.7139-1.0268-1.1584-2.5135-1.7452-3.8263-2.5144-0.89434-0.53086-1.8943-0.97048-2.6132-1.7372-0.73731-1.0343-1.6678-2.2775-3.0631-2.2867-1.4235 0.11009-2.4502 1.2684-3.4292 2.1828-0.38466 0.38394-0.7609 0.77616-1.1368 1.1686z" fill="#fbeb19" stop-color="#000000" stroke="#ada103"/><ellipse transform="matrix(.99871 -.050741 .050746 .99871 0 0)" cx="-64.202" cy="126.12" rx="4.6644" ry="4.6643" fill="#bea204" stroke="#877303"/></g><g transform="matrix(.2964 .079285 -.079336 .29576 55.495 -17.824)" stroke-linecap="round" stroke-linejoin="round" stroke-miterlimit="2" stroke-width=".64739"><path d="m-61.535 132.61c-1.7998 1.6183-4.0145 2.717-5.739 4.4225-0.85571 0.60767-0.57414 2.1008 0.58509 2.0184 1.2387-0.0977 2.0705-1.1913 2.8783-2.0145 0.6088-0.68964 1.1985-1.3959 1.7971-2.0943-1.0657 1.4768-2.3669 2.8216-3.1019 4.5082-0.51352 0.89628 0.42253 2.0929 1.4092 1.6455 1.1285-0.53317 1.5883-1.8205 2.1364-2.8567 0.69376-1.3286 1.0782-2.8321 2.027-4.0158-0.56867 2.3339-2.1104 4.33-2.5028 6.7156-0.23948 1.0242 1.0786 1.8197 1.8525 1.0842 0.8748-0.86034 0.96041-2.1853 1.1964-3.3246 0.27803-1.3792 0.26495-2.8354 0.83866-4.1412-0.06383 2.3053-0.8094 4.5793-0.51949 6.8918 0.04059 1.0535 1.5249 1.5833 2.0998 0.62101 0.59165-1.0935 0.31575-2.4027 0.23037-3.5852-0.12028-1.3917-0.46071-2.767-0.42-4.1697 0.74393 2.2599 0.66024 4.7527 1.7367 6.907 0.37275 0.94163 1.9012 1.105 2.2181 0.0358 0.2412-1.1423-0.41416-2.2305-0.82792-3.2554-0.53566-1.2801-1.2997-2.4643-1.7043-3.7968 0.34071 0.33499 0.9226 1.5708 1.3538 2.2562 0.78384 1.2714 1.4818 2.7042 2.7592 3.5513 0.81025 0.59451 2.1328-0.14142 1.8408-1.169-0.442-1.3717-1.5925-2.3472-2.5135-3.4054-0.30594-0.33697-0.93293-0.98612-0.2848-0.35312 1.0458 0.93374 2.0612 2.0879 3.4766 2.4248 0.94891 0.26926 1.9353-0.89342 1.2464-1.7139-1.0268-1.1584-2.5135-1.7452-3.8263-2.5144-0.89434-0.53086-1.8943-0.97048-2.6132-1.7372-0.73731-1.0343-1.6678-2.2775-3.0631-2.2867-1.4235 0.11009-2.4502 1.2684-3.4292 2.1828-0.38466 0.38394-0.7609 0.77616-1.1368 1.1686z" fill="#fbeb19" stop-color="#000000" stroke="#ada103"/><ellipse transform="matrix(.99871 -.050741 .050746 .99871 0 0)" cx="-64.202" cy="126.12" rx="4.6644" ry="4.6643" fill="#bea204" stroke="#877303"/></g><path d="m17.067 26.659s1.817 4.3384 3.5546 8.4188c2.5695 6.0337 2.0124 9.0365 2.0124 9.0365l-0.54834-0.37962s0.65384-2.369-1.8531-8.4264c-1.8255-4.4107-3.1656-8.6492-3.1656-8.6492z" fill="#425b40"/><path d="m14.643 33.49s2.981 0.21698 5.2669 1.831c0.63327 0.44714 1.2661 2.3211 1.2661 2.3211l0.22315-0.06409s-0.93413-2.3414-1.2021-2.5165c-1.6615-1.0856-3.5875-1.6143-5.5541-1.5715z" fill="#425b40"/><g transform="matrix(.28683 -.10893 .10851 .28635 18.859 -16.409)" stroke-linecap="round" stroke-linejoin="round" stroke-miterlimit="2" stroke-width=".64739"><path d="m-61.535 132.61c-1.7998 1.6183-4.0145 2.717-5.739 4.4225-0.85571 0.60767-0.57414 2.1008 0.58509 2.0184 1.2387-0.0977 2.0705-1.1913 2.8783-2.0145 0.6088-0.68964 1.1985-1.3959 1.7971-2.0943-1.0657 1.4768-2.3669 2.8216-3.1019 4.5082-0.51352 0.89628 0.42253 2.0929 1.4092 1.6455 1.1285-0.53317 1.5883-1.8205 2.1364-2.8567 0.69376-1.3286 1.0782-2.8321 2.027-4.0158-0.56867 2.3339-2.1104 4.33-2.5028 6.7156-0.23948 1.0242 1.0786 1.8197 1.8525 1.0842 0.8748-0.86034 0.96041-2.1853 1.1964-3.3246 0.27803-1.3792 0.26495-2.8354 0.83866-4.1412-0.06383 2.3053-0.8094 4.5793-0.51949 6.8918 0.04059 1.0535 1.5249 1.5833 2.0998 0.62101 0.59165-1.0935 0.31575-2.4027 0.23037-3.5852-0.12028-1.3917-0.46071-2.767-0.42-4.1697 0.74393 2.2599 0.66024 4.7527 1.7367 6.907 0.37275 0.94163 1.9012 1.105 2.2181 0.0358 0.2412-1.1423-0.41416-2.2305-0.82792-3.2554-0.53566-1.2801-1.2997-2.4643-1.7043-3.7968 0.34071 0.33499 0.9226 1.5708 1.3538 2.2562 0.78384 1.2714 1.4818 2.7042 2.7592 3.5513 0.81025 0.59451 2.1328-0.14142 1.8408-1.169-0.442-1.3717-1.5925-2.3472-2.5135-3.4054-0.30594-0.33697-0.93293-0.98612-0.2848-0.35312 1.0458 0.93374 2.0612 2.0879 3.4766 2.4248 0.94891 0.26926 1.9353-0.89342 1.2464-1.7139-1.0268-1.1584-2.5135-1.7452-3.8263-2.5144-0.89434-0.53086-1.8943-0.97048-2.6132-1.7372-0.73731-1.0343-1.6678-2.2775-3.0631-2.2867-1.4235 0.11009-2.4502 1.2684-3.4292 2.1828-0.38466 0.38394-0.7609 0.77616-1.1368 1.1686z" fill="#fbeb19" stop-color="#000000" stroke="#ada103"/><ellipse transform="matrix(.99871 -.050741 .050746 .99871 0 0)" cx="-64.202" cy="126.12" rx="4.6644" ry="4.6643" fill="#bea204" stroke="#877303"/></g><g transform="matrix(.76446 .3249 -.32536 .76293 75.791 46.851)" stroke="#425b40" stroke-linecap="round" stroke-linejoin="round" stroke-miterlimit="2" stroke-width=".23907"><path d="m-35.28 86.116c-7.2532 1.2725-11.612 9.9254-11.993 10.053-1.9724-1.8769 2.1632-12.629 11.993-10.053z" fill="#658b62"/><path d="m-35.28 86.116c-9.8527-0.20245-12.353 9.2654-11.993 10.053" fill="none"/></g><g stroke="#425b40" stroke-linecap="round" stroke-linejoin="round" stroke-miterlimit="2" stroke-width=".2453"><g transform="matrix(.74524 .31657 -.31718 .74338 74.644 40.46)"><path d="m-35.28 86.116c-7.2532 1.2725-11.612 9.9254-11.993 10.053-1.9724-1.8769 2.1632-12.629 11.993-10.053z" fill="#658b62"/><path d="m-35.28 86.116c-9.8527-0.20245-12.353 9.2654-11.993 10.053" fill="none"/></g><g transform="matrix(.7795 .21904 -.21988 .77774 67.67 25.268)"><path d="m-35.28 86.116c-7.2532 1.2725-11.612 9.9254-11.993 10.053-1.9724-1.8769 2.1632-12.629 11.993-10.053z" fill="#658b62"/><path d="m-35.28 86.116c-9.8527-0.20245-12.353 9.2654-11.993 10.053" fill="none"/></g><g transform="matrix(.79982 .12606 -.1271 .79816 60.654 10.409)"><path d="m-35.28 86.116c-7.2532 1.2725-11.612 9.9254-11.993 10.053-1.9724-1.8769 2.1632-12.629 11.993-10.053z" fill="#658b62"/><path d="m-35.28 86.116c-9.8527-0.20245-12.353 9.2654-11.993 10.053" fill="none"/></g></g><g stroke="#425b40" stroke-linecap="round" stroke-linejoin="round" stroke-miterlimit="2" stroke-width=".29541"><g transform="matrix(-.61599 .11286 .097888 .7146 -8.7104 10.897)"><path d="m-35.28 86.116c-7.2532 1.2725-11.612 9.9254-11.993 10.053-1.9724-1.8769 2.1632-12.629 11.993-10.053z" fill="#658b62"/><path d="m-35.28 86.116c-9.8527-0.20245-12.353 9.2654-11.993 10.053" fill="none"/></g><g transform="matrix(-.61599 .11286 .097888 .7146 -8.5882 2.4605)"><path d="m-35.28 86.116c-7.2532 1.2725-11.612 9.9254-11.993 10.053-1.9724-1.8769 2.1632-12.629 11.993-10.053z" fill="#658b62"/><path d="m-35.28 86.116c-9.8527-0.20245-12.353 9.2654-11.993 10.053" fill="none"/></g><g transform="matrix(-.62599 .017837 -.011962 .72117 1.1249 -11.031)"><path d="m-35.28 86.116c-7.2532 1.2725-11.612 9.9254-11.993 10.053-1.9724-1.8769 2.1632-12.629 11.993-10.053z" fill="#658b62"/><path d="m-35.28 86.116c-9.8527-0.20245-12.353 9.2654-11.993 10.053" fill="none"/></g></g><g transform="matrix(-.53815 .017837 -.010284 .72117 4.2473 -21.544)" stroke="#425b40" stroke-linecap="round" stroke-linejoin="round" stroke-miterlimit="2" stroke-width=".31861"><path d="m-35.28 86.116c-7.2532 1.2725-11.612 9.9254-11.993 10.053-1.9724-1.8769 2.1632-12.629 11.993-10.053z" fill="#658b62"/><path d="m-35.28 86.116c-9.8527-0.20245-12.353 9.2654-11.993 10.053" fill="none"/></g><g transform="matrix(-.42915 .13627 .15519 .58322 -5.6213 -12.096)" stroke="#425b40" stroke-linecap="round" stroke-linejoin="round" stroke-miterlimit="2" stroke-width=".38088"><path d="m-35.28 86.116c-7.2532 1.2725-11.612 9.9254-11.993 10.053-1.9724-1.8769 2.1632-12.629 11.993-10.053z" fill="#658b62"/><path d="m-35.28 86.116c-9.8527-0.20245-12.353 9.2654-11.993 10.053" fill="none"/></g><g transform="matrix(.66191 .11286 -.10518 .7146 54.39 6.7474)" stroke="#425b40" stroke-linecap="round" stroke-linejoin="round" stroke-miterlimit="2" stroke-width=".28498"><path d="m-35.28 86.116c-7.2532 1.2725-11.612 9.9254-11.993 10.053-1.9724-1.8769 2.1632-12.629 11.993-10.053z" fill="#658b62"/><path d="m-35.28 86.116c-9.8527-0.20245-12.353 9.2654-11.993 10.053" fill="none"/></g><g transform="matrix(.66191 .11286 -.10518 .7146 54.547 -1.4838)" stroke="#425b40" stroke-linecap="round" stroke-linejoin="round" stroke-miterlimit="2" stroke-width=".28498"><path d="m-35.28 86.116c-7.2532 1.2725-11.612 9.9254-11.993 10.053-1.9724-1.8769 2.1632-12.629 11.993-10.053z" fill="#658b62"/><path d="m-35.28 86.116c-9.8527-0.20245-12.353 9.2654-11.993 10.053" fill="none"/></g><g transform="matrix(-.74717 .086993 .084194 .78205 -12.984 24.486)" stroke="#425b40" stroke-linecap="round" stroke-linejoin="round" stroke-miterlimit="2" stroke-width=".25798"><path d="m-35.28 86.116c-7.2532 1.2725-11.612 9.9254-11.993 10.053-1.9724-1.8769 2.1632-12.629 11.993-10.053z" fill="#658b62"/><path d="m-35.28 86.116c-9.8527-0.20245-12.353 9.2654-11.993 10.053" fill="none"/></g><g transform="matrix(-.68047 .16548 .16598 .67803 -17.57 43.785)" stroke="#425b40" stroke-linecap="round" stroke-linejoin="round" stroke-miterlimit="2" stroke-width=".28382"><path d="m-35.28 86.116c-7.2532 1.2725-11.612 9.9254-11.993 10.053-1.9724-1.8769 2.1632-12.629 11.993-10.053z" fill="#658b62"/><path d="m-35.28 86.116c-9.8527-0.20245-12.353 9.2654-11.993 10.053" fill="none"/></g><g transform="matrix(.76526 .062991 -.057067 .82992 62.561 24.751)" stroke="#425b40" stroke-linecap="round" stroke-linejoin="round" stroke-miterlimit="2" stroke-width=".2483"><path d="m-39.85 69.857c1.4172 1.8221 1.1679 4.4202 2.2476 5.7024-0.20245-1.1472 1.363-3.7648-0.0992-5.092-0.49488-0.49488-2.1259-1.1728-2.1484-0.61039z" fill="#425b40"/><path d="m-48.814 72.185c3.7451-1.7138 7.8814-3.3104 11.113-1.7178-0.7596-0.99635-3.1811-1.9232-4.183-2.2757-1.647-0.19887-3.888 0.78305-6.9298 3.9935z" fill="#658b62"/><path d="m-48.814 72.185c5.0838-4.0266 8.4769-3.3884 8.4769-3.3884" fill="none"/></g><g transform="matrix(-.67537 .36534 .38591 .73695 -38.283 10.088)" stroke="#425b40" stroke-linecap="round" stroke-linejoin="round" stroke-miterlimit="2" stroke-width=".2483"><path d="m-39.85 69.857c1.4172 1.8221 1.1679 4.4202 2.2476 5.7024-0.20245-1.1472 1.363-3.7648-0.0992-5.092-0.49488-0.49488-2.1259-1.1728-2.1484-0.61039z" fill="#425b40"/><path d="m-48.814 72.185c3.7451-1.7138 7.8814-3.3104 11.113-1.7178-0.7596-0.99635-3.1811-1.9232-4.183-2.2757-1.647-0.19887-3.888 0.78305-6.9298 3.9935z" fill="#658b62"/><path d="m-48.814 72.185c5.0838-4.0266 8.4769-3.3884 8.4769-3.3884" fill="none"/></g><g transform="matrix(.29845 -.148 .14778 .29827 13.953 -15.068)" stroke-linecap="round" stroke-linejoin="round" stroke-miterlimit="2" stroke-width=".59591"><path d="m-61.535 132.61c-1.7998 1.6183-4.0145 2.717-5.739 4.4225-0.85571 0.60767-0.57414 2.1008 0.58509 2.0184 1.2387-0.0977 2.0705-1.1913 2.8783-2.0145 0.6088-0.68964 1.1985-1.3959 1.7971-2.0943-1.0657 1.4768-2.3669 2.8216-3.1019 4.5082-0.51352 0.89628 0.42253 2.0929 1.4092 1.6455 1.1285-0.53317 1.5883-1.8205 2.1364-2.8567 0.69376-1.3286 1.0782-2.8321 2.027-4.0158-0.56867 2.3339-2.1104 4.33-2.5028 6.7156-0.23948 1.0242 1.0786 1.8197 1.8525 1.0842 0.8748-0.86034 0.96041-2.1853 1.1964-3.3246 0.27803-1.3792 0.26495-2.8354 0.83866-4.1412-0.06383 2.3053-0.8094 4.5793-0.51949 6.8918 0.04059 1.0535 1.5249 1.5833 2.0998 0.62101 0.59165-1.0935 0.31575-2.4027 0.23037-3.5852-0.12028-1.3917-0.46071-2.767-0.42-4.1697 0.74393 2.2599 0.66024 4.7527 1.7367 6.907 0.37275 0.94163 1.9012 1.105 2.2181 0.0358 0.2412-1.1423-0.41416-2.2305-0.82792-3.2554-0.53566-1.2801-1.2997-2.4643-1.7043-3.7968 0.34071 0.33499 0.9226 1.5708 1.3538 2.2562 0.78384 1.2714 1.4818 2.7042 2.7592 3.5513 0.81025 0.59451 2.1328-0.14142 1.8408-1.169-0.442-1.3717-1.5925-2.3472-2.5135-3.4054-0.30594-0.33697-0.93293-0.98612-0.2848-0.35312 1.0458 0.93374 2.0612 2.0879 3.4766 2.4248 0.94891 0.26926 1.9353-0.89342 1.2464-1.7139-1.0268-1.1584-2.5135-1.7452-3.8263-2.5144-0.89434-0.53086-1.8943-0.97048-2.6132-1.7372-0.73731-1.0343-1.6678-2.2775-3.0631-2.2867-1.4235 0.11009-2.4502 1.2684-3.4292 2.1828-0.38466 0.38394-0.7609 0.77616-1.1368 1.1686z" fill="#fbeb19" stop-color="#000000" stroke="#ada103"/><ellipse transform="matrix(.99871 -.050741 .050746 .99871 0 0)" cx="-64.202" cy="126.12" rx="4.6644" ry="4.6643" fill="#bea204" stroke="#877303"/></g></g><metadata><rdf:RDF><cc:Work rdf:about=""><dc:creator><cc:Agent><dc:title>Erica Schroeder</dc:title></cc:Agent></dc:creator><dc:rights><cc:Agent><dc:title> 2026 Erica Schroeder. All rights reserved.</dc:title></cc:Agent></dc:rights><dc:date>1/16/2026</dc:date></cc:Work></rdf:RDF></metadata></svg>
