<?xml version="1.0" encoding="UTF-8"?>
<!-- Created with Inkscape (http://www.inkscape.org/) -->
<svg width="1.0387in" height="1.5598in" version="1.1" viewBox="0 0 26.383 39.618" xml:space="preserve" xmlns="http://www.w3.org/2000/svg" xmlns:cc="http://creativecommons.org/ns#" xmlns:dc="http://purl.org/dc/elements/1.1/" xmlns:rdf="http://www.w3.org/1999/02/22-rdf-syntax-ns#"><g transform="translate(8.8336 4.5892)" stroke-width="1.1301"><g transform="matrix(.85038 .042123 -.045379 .91858 6.2699 1.4588)"><g fill="#345d1f"><g transform="matrix(-.37562 .014669 .015548 .34751 -23.075 -12.248)"><path d="m-70.223 88.75c-5.8162 0.12583-10.374-7.7421-13.634-11.997 1.1693 1.1459 14.336 3.6015 13.634 11.997z" fill="#345d1f"/></g><g transform="matrix(.62032 .066303 -.07149 .57428 52.206 -10.839)"><path d="m-70.223 88.75c-3.8745 1.1541-5.2835-3.1851-7.1649-4.4825-4.7625-3.2843-4.1484-4.7043-6.4692-7.5146 1.1693 1.1459 14.336 3.6015 13.634 11.997z" fill="#345d1f"/></g><g transform="matrix(.42949 -.09266 .098417 .39181 20.391 -25.336)"><path transform="translate(1.1667e-6)" d="m-60.611 104.75s2.6843-3.3394 6.6807-4.1763c1.3257-0.2776 3.8012 1.1482 10.087 1.2296-0.8195-2.1206-3.2391-4.7933-6.8617-5.2932-1.3775-0.19007-8.8449 2.8612-9.9061 8.2398z" fill="#345d1f"/></g><g transform="matrix(-.2844 -.14705 -.21596 .38437 -18.716 -37.073)"><path d="m-132.01 99.891c-1.4883-0.42995-5.2917-4.2333-11.146-3.3404-6.2177-3.0096-8.5659 0.76068-13.626 2.0174 6.6146 2.7781 17.396-0.13229 24.772 1.3229z" fill="#345d1f"/></g><g transform="matrix(.46995 .0074537 -.24901 .36492 58.534 -.13548)"><path d="m-70.223 88.75c-3.8745 1.1541-5.2835-3.1851-7.1649-4.4825-4.7625-3.2843-4.1484-4.7043-6.4692-7.5146 1.1693 1.1459 14.336 3.6015 13.634 11.997z" fill="#345d1f"/></g><g transform="matrix(.42478 .34529 -.37327 .39419 74.924 12.669)"><path d="m-68.581 96.054c4.7294-3.175-0.39688 4.2664-3.3073 3.9026-2.0174 0.19843-1.4883 5.3909-1.9844 5.6885-2.3151-0.19844-5.8208-10.749 5.2917-9.5911z" fill="#345d1f"/></g></g><g fill="#29281c"><path d="m4.3614-0.21005c0.02428 2.2157 1.2083 34.4-3.1359 36.636 4.4988 1.4254 3.9377-36.012 3.1359-36.636z"/><path d="m4.4343 1.4372s0.67501-2.6713-1.1477-1.5891c1.5712-0.77793 0.89403 1.2832 1.1477 1.5891z"/><path d="m4.4425 1.9667s-0.54864-2.6411 1.1476-1.589c-1.3913-0.75512-0.96739 1.4738-1.1476 1.589z"/></g><g transform="matrix(.40777 .13342 -.14692 .36994 25.484 -14.517)"><path d="m-38.847 53.933s1.8356-2.0327 2.4662-1.8364c2.4242-2.7196 1.7235-0.36448 0.81273 0.6028 0.05605 0.91121-1.9758 2.986-2.0598 3.028-0.65859 0.1542-1.7376-0.61682-1.2191-1.7944z" fill="#9078c0"/><path d="m-39.892 54.721c-0.13237 0.65136-1.3559 0.53248-1.2225 1.1249 0.16044 0.71238 1.1329 0.42835 1.1329 0.42835s-0.01401 0.42056 0.21019 0.51868c1.0089-0.5327 2.0458-0.11214 2.1719-1.0093z" fill="#d2d2d8"/><path d="m-39.59 54.844s0.32229 0.05607 0.4484 0.25234c-0.1121 0.18224-1.163 0.64485-0.4484-0.25234z" fill="#ebe6b1"/><path d="m-37.535 55.931c-0.57451-0.53271-2.6009-0.97134-2.7324-1.4159-0.04846-0.16377 0.39235-1.2897 0.95285-0.43458 0.82674-0.64485 0.45218 0.61918 0.71464 0.89719 0.32707 0.34644 1.065 0.95326 1.065 0.95326z" fill="#d2d2d8"/></g><path d="m4.5485 4.2208s0.04357-2.6893 1.4729-1.3387c-1.1961-1.0022-1.2711 1.26-1.4729 1.3387z" fill="#29281c"/><g transform="matrix(-.41738 .053212 .059972 .38133 -12.055 -14.95)"><path d="m-38.847 53.933s1.8356-2.0327 2.4662-1.8364c2.4242-2.7196 1.7235-0.36448 0.81273 0.6028 0.05605 0.91121-1.9758 2.986-2.0598 3.028-0.65859 0.1542-1.7376-0.61682-1.2191-1.7944z" fill="#9078c0"/><path d="m-39.892 54.721c-0.13237 0.65136-1.3559 0.53248-1.2225 1.1249 0.16044 0.71238 1.1329 0.42835 1.1329 0.42835s-0.01401 0.42056 0.21019 0.51868c1.0089-0.5327 2.0458-0.11214 2.1719-1.0093z" fill="#d2d2d8"/><path d="m-39.59 54.844s0.32229 0.05607 0.4484 0.25234c-0.1121 0.18224-1.163 0.64485-0.4484-0.25234z" fill="#ebe6b1"/><path d="m-37.588 55.948c-0.57451-0.53271-2.6009-0.97134-2.7324-1.4159-0.04846-0.16377 0.39235-1.2897 0.95285-0.43458 0.82674-0.64485 0.45218 0.61918 0.71464 0.89719 0.32707 0.34644 1.065 0.95326 1.065 0.95326z" fill="#d2d2d8"/></g><path d="m4.6926 8.7703s-0.32684-2.6725 1.2766-1.502c-1.3242-0.85255-1.0874 1.4-1.2766 1.502z" fill="#29281c"/><g transform="matrix(-.49806 .12514 .13749 .45591 -18.887 -11.79)"><path d="m-38.847 53.933s1.8356-2.0327 2.4662-1.8364c2.4242-2.7196 1.7235-0.36448 0.81273 0.6028 0.05605 0.91121-1.9758 2.986-2.0598 3.028-0.65859 0.1542-1.7376-0.61682-1.2191-1.7944z" fill="#9078c0"/><path d="m-39.892 54.721c-0.13237 0.65136-1.3559 0.53248-1.2225 1.1249 0.16044 0.71238 1.1329 0.42835 1.1329 0.42835s-0.01401 0.42056 0.21019 0.51868c1.0089-0.5327 2.0458-0.11214 2.1719-1.0093z" fill="#d2d2d8"/><path d="m-39.59 54.844s0.32229 0.05607 0.4484 0.25234c-0.1121 0.18224-1.163 0.64485-0.4484-0.25234z" fill="#ebe6b1"/><path d="m-37.793 55.904c-0.57451-0.53271-2.6009-0.97134-2.7324-1.4159-0.04846-0.16377 0.39235-1.2897 0.95285-0.43458 0.82674-0.64485 0.45218 0.61918 0.71464 0.89719 0.32707 0.34644 1.065 0.95326 1.065 0.95326z" fill="#d2d2d8"/></g><path d="m6.5133-0.040516c-0.72041-0.20511-1.0052 0.17777-1.348 0.23955 0.3433 0.19527 0.75214 0.49184 1.1248 0.58418 0.7374 0.1827 1.3537-0.16768 1.4469 0.063225 0.06698-0.072835 0.061-0.18418-0.09313-0.23091 0.08832-0.097676 0.16749-0.38128-0.0754-0.40785 0.13918 0.43982-0.53277-0.099459-1.0551-0.24819z" fill="#9078c0"/><path d="m4.6985 9.6478s-0.27452-2.6775-1.5832-1.2259c1.1062-1.0872 1.3754 1.1623 1.5832 1.2259z" fill="#29281c"/><path d="m1.7824 8.2798c0.79744-0.49834 1.2982-0.10821 1.7415-0.14367-0.341 0.3609-0.72149 0.87172-1.1395 1.1121-0.82714 0.47562-1.7197 0.2365-1.741 0.55958-0.1109-0.06997-0.14814-0.21285 0.02134-0.32308-0.14688-0.094334-0.35696-0.42698-0.07107-0.54112 6e-3 0.60271 0.61062-0.30245 1.1888-0.66381z" fill="#9078c0"/><path d="m4.5659 6.2005s0.82481-2.5785 1.8079-0.92046c-0.85999-1.2643-1.5908 0.89512-1.8079 0.92046z" fill="#29281c"/><path d="m7.5533 5.3357c-0.61701-0.57246-1.137-0.30636-1.5255-0.40963 0.236 0.37631 0.47894 0.8924 0.80632 1.1739 0.64777 0.55704 1.4886 0.48871 1.4467 0.77963 0.11205-0.044314 0.17218-0.16543 0.04187-0.29093 0.14872-0.060171 0.39869-0.32217 0.16533-0.46998-0.11892 0.53532-0.48737-0.36792-0.93474-0.78302z" fill="#9078c0"/><path d="m4.5677 11.423s0.27428-2.6775 1.5831-1.2258c-1.1063-1.0873-1.3753 1.1622-1.5831 1.2258z" fill="#29281c"/><path d="m7.5605 10.065c-0.83111-0.52054-1.353-0.11312-1.8149-0.15019 0.35542 0.37696 0.75199 0.91049 1.1877 1.1616 0.86206 0.49681 1.7922 0.24714 1.8145 0.58457 0.11557-0.07307 0.15436-0.2223-0.02227-0.33743 0.15307-0.09851 0.37197-0.44592 0.07402-0.56514-0.0062 0.62948-0.63639-0.31593-1.239-0.69339z" fill="#9078c0"/><path d="m4.5641 6.3633s0.16388-2.6853-1.3659-1.4331c1.2703-0.92019 1.1707 1.3412 1.3659 1.4331z" fill="#29281c"/><g transform="matrix(.5051 .099152 -.10953 .46276 26.852 -15.369)"><path d="m-38.847 53.933s1.8356-2.0327 2.4662-1.8364c2.4242-2.7196 1.7235-0.36448 0.81273 0.6028 0.05605 0.91121-1.9758 2.986-2.0598 3.028-0.65859 0.1542-1.7376-0.61682-1.2191-1.7944z" fill="#9078c0"/><path d="m-39.892 54.721c-0.13237 0.65136-1.3559 0.53248-1.2225 1.1249 0.16044 0.71238 1.1329 0.42835 1.1329 0.42835s-0.01401 0.42056 0.21019 0.51868c1.0089-0.5327 2.0458-0.11214 2.1719-1.0093z" fill="#d2d2d8"/><path d="m-39.59 54.844s0.32229 0.05607 0.4484 0.25234c-0.1121 0.18224-1.163 0.64485-0.4484-0.25234z" fill="#ebe6b1"/><path d="m-37.621 55.901c-0.57451-0.53271-2.6009-0.97134-2.7324-1.4159-0.04846-0.16377 0.39235-1.2897 0.95285-0.43458 0.82674-0.64485 0.45218 0.61918 0.71464 0.89719 0.32707 0.34644 1.065 0.95326 1.065 0.95326z" fill="#d2d2d8"/></g><g transform="matrix(-.45964 .034653 .038487 .43837 -54.453 -48.063)"><path d="m-119.38 138.8s0.27115-3.4582 1.3002-3.6017c0.34079-2.7391 1.4271-1.6962 0.92105 0.12419 1.0297 0.73868 0.36737 3.0962 0.38294 4.1644z" fill="#9078c0"/><path d="m-119.6 139.86c-0.40541 0.39513-0.28957 2.0645-0.0579 1.9855 0.19304 0.0297 0.6081-0.99769 0.59845-1.1162-0.27992 1.8867 1.361 0.93841 1.0811 0.0198 0.49227 0.52353 0.31852 1.1656 0.50192 1.1952 0.53089 0.0495 0.93628-1.5311 0.74324-2.4498l-1.6312-0.25683z" fill="#d2d2d8"/><path d="m-119.08 139.53s0.64189 5e-3 0.92181-0.0148c0.13025 1.3879-0.89284 2.3362-0.92181 0.0148z" fill="#ebe6b1"/><path d="m-118.75 138.84c0.87363-0.48895 2.0203 0.65657 2.0203 0.65657-0.041 0.39116-1.2558 0.12571-1.8428 0.0559 0 0-1.3104 0.62864-1.6517 0.37719-0.38221-0.67056 1.0511-1.4668 1.4743-1.0896z" fill="#d2d2d8"/></g><g transform="matrix(.34934 .026778 -.029221 .33841 49.381 -40.382)"><path d="m-119.38 138.8s0.27115-3.4582 1.3002-3.6017c0.34079-2.7391 1.4271-1.6962 0.92105 0.12419 1.0297 0.73868 0.36737 3.0962 0.38294 4.1644z" fill="#9078c0"/><path d="m-119.6 139.86c-0.40541 0.39513-0.28957 2.0645-0.0579 1.9855 0.19304 0.0297 0.6081-0.99769 0.59845-1.1162-0.27992 1.8867 1.361 0.93841 1.0811 0.0198 0.49227 0.52353 0.31852 1.1656 0.50192 1.1952 0.53089 0.0495 0.93628-1.5311 0.74324-2.4498l-1.6312-0.25683z" fill="#d2d2d8"/><path d="m-119.08 139.53s0.64189 5e-3 0.92181-0.0148c0.13025 1.3879-0.89284 2.3362-0.92181 0.0148z" fill="#ebe6b1"/><path d="m-118.75 138.84c0.87363-0.48895 2.0203 0.65657 2.0203 0.65657-0.041 0.39116-1.2558 0.12571-1.8428 0.0559 0 0-1.3104 0.62864-1.6517 0.37719-0.38221-0.67056 1.0511-1.4668 1.4743-1.0896z" fill="#d2d2d8"/></g><g transform="matrix(-.44711 .1042 .094937 .45377 -66.87 4.7292)" stroke-width="2.4499"><path d="m-132.01 99.891c-1.4883-0.42995-5.2917-4.2333-11.146-3.3404-6.2177-3.0096-8.5659 0.76068-13.626 2.0174 6.6146 2.7781 17.396-0.13229 24.772 1.3229z" fill="#345d1f"/></g><g fill="#345d1f"><g transform="matrix(.55451 0 0 .51555 50.865 -34.366)"><path d="m-85.301 127.84c-3.6897 0.18459-3.708 3.1652-0.0058 4.2633 1.7582 0.52149 3.5038 1.7239 4.4505 3.0298 3.3027-5.8648-1.868-13.606-4.4448-7.2931z" fill="#345d1f"/></g><g transform="matrix(-.49576 -.045386 -.047901 .44724 -21.01 -20.2)"><path transform="translate(1.1667e-6)" d="m-60.611 104.75s2.6843-3.3394 6.6807-4.1763c1.3257-0.2776 3.8012 1.1482 10.087 1.2296-0.8195-2.1206-3.2391-4.7933-6.8617-5.2932-1.3775-0.19007-8.8449 2.8612-9.9061 8.2398z" fill="#345d1f"/></g><g transform="matrix(.55099 .099031 -.10683 .51015 63.873 -13.423)"><path d="m-92.261 90.697c3.638 0.39688 3.638-2.249 3.638-2.249 2.1828 1.5544 1.7198 3.4396 4.6633 7.9044-1.9844-2.3482-8.3344-2.9104-8.3013-5.6555z" fill="#345d1f"/></g><g transform="matrix(.45807 -.035086 .037759 .42371 33.27 -18.703)"><path d="m-70.223 88.75c-3.8745 1.1541-5.2835-3.1851-7.1649-4.4825-4.7625-3.2843-4.1484-4.7043-6.4692-7.5146 1.1693 1.1459 14.336 3.6015 13.634 11.997z" fill="#345d1f"/></g><g transform="matrix(.375 .024805 -.026589 .34694 33.342 -11.299)"><path d="m-70.223 88.75c-5.8162 0.12583-10.374-7.7421-13.634-11.997 1.1693 1.1459 14.336 3.6015 13.634 11.997z" fill="#345d1f"/></g></g><g transform="matrix(.44769 .1026 -.1138 .42697 72.398 -34.735)"><path d="m-119.38 138.8s0.27115-3.4582 1.3002-3.6017c0.34079-2.7391 1.4271-1.6962 0.92105 0.12419 1.0297 0.73868 0.36737 3.0962 0.38294 4.1644z" fill="#9078c0"/><path d="m-119.6 139.86c-0.40541 0.39513-0.28957 2.0645-0.0579 1.9855 0.19304 0.0297 0.6081-0.99769 0.59845-1.1162-0.27992 1.8867 1.361 0.93841 1.0811 0.0198 0.49227 0.52353 0.31852 1.1656 0.50192 1.1952 0.53089 0.0495 0.93628-1.5311 0.74324-2.4498l-1.6312-0.25683z" fill="#d2d2d8"/><path d="m-119.08 139.53s0.64189 5e-3 0.92181-0.0148c0.13025 1.3879-0.89284 2.3362-0.92181 0.0148z" fill="#ebe6b1"/><path d="m-118.75 138.84c0.87363-0.48895 2.0203 0.65657 2.0203 0.65657-0.041 0.39116-1.2558 0.12571-1.8428 0.0559 0 0-1.3104 0.62864-1.6517 0.37719-0.38221-0.67056 1.0511-1.4668 1.4743-1.0896z" fill="#d2d2d8"/></g></g><g transform="matrix(.85128 -.015475 .016838 .91954 2.6546 -.89404)"><g fill="#345d1f"><g transform="matrix(-.37562 .014669 .015548 .34751 -23.075 -12.248)"><path d="m-70.223 88.75c-5.8162 0.12583-10.374-7.7421-13.634-11.997 1.1693 1.1459 14.336 3.6015 13.634 11.997z" fill="#345d1f"/></g><g transform="matrix(.62032 .066303 -.07149 .57428 52.206 -10.839)"><path d="m-70.223 88.75c-3.8745 1.1541-5.2835-3.1851-7.1649-4.4825-4.7625-3.2843-4.1484-4.7043-6.4692-7.5146 1.1693 1.1459 14.336 3.6015 13.634 11.997z" fill="#345d1f"/></g><g transform="matrix(.42949 -.09266 .098417 .39181 20.391 -25.336)"><path transform="translate(1.1667e-6)" d="m-60.611 104.75s2.6843-3.3394 6.6807-4.1763c1.3257-0.2776 3.8012 1.1482 10.087 1.2296-0.8195-2.1206-3.2391-4.7933-6.8617-5.2932-1.3775-0.19007-8.8449 2.8612-9.9061 8.2398z" fill="#345d1f"/></g><g transform="matrix(-.2844 -.14705 -.21596 .38437 -18.716 -37.073)"><path d="m-132.01 99.891c-1.4883-0.42995-5.2917-4.2333-11.146-3.3404-6.2177-3.0096-8.5659 0.76068-13.626 2.0174 6.6146 2.7781 17.396-0.13229 24.772 1.3229z" fill="#345d1f"/></g><g transform="matrix(.46995 .0074537 -.24901 .36492 58.534 -.13548)"><path d="m-70.223 88.75c-3.8745 1.1541-5.2835-3.1851-7.1649-4.4825-4.7625-3.2843-4.1484-4.7043-6.4692-7.5146 1.1693 1.1459 14.336 3.6015 13.634 11.997z" fill="#345d1f"/></g><g transform="matrix(.42478 .34529 -.37327 .39419 74.924 12.669)"><path d="m-68.581 96.054c4.7294-3.175-0.39688 4.2664-3.3073 3.9026-2.0174 0.19843-1.4883 5.3909-1.9844 5.6885-2.3151-0.19844-5.8208-10.749 5.2917-9.5911z" fill="#345d1f"/></g></g><g fill="#29281c"><path d="m4.3614-0.21005c0.02428 2.2157 1.2083 34.4-3.1359 36.636 4.4988 1.4254 3.9377-36.012 3.1359-36.636z"/><path d="m4.4343 1.4372s0.67501-2.6713-1.1477-1.5891c1.5712-0.77793 0.89403 1.2832 1.1477 1.5891z"/><path d="m4.4425 1.9667s-0.54864-2.6411 1.1476-1.589c-1.3913-0.75512-0.96739 1.4738-1.1476 1.589z"/></g><g transform="matrix(.40777 .13342 -.14692 .36994 25.484 -14.517)"><path d="m-38.847 53.933s1.8356-2.0327 2.4662-1.8364c2.4242-2.7196 1.7235-0.36448 0.81273 0.6028 0.05605 0.91121-1.9758 2.986-2.0598 3.028-0.65859 0.1542-1.7376-0.61682-1.2191-1.7944z" fill="#9078c0"/><path d="m-39.892 54.721c-0.13237 0.65136-1.3559 0.53248-1.2225 1.1249 0.16044 0.71238 1.1329 0.42835 1.1329 0.42835s-0.01401 0.42056 0.21019 0.51868c1.0089-0.5327 2.0458-0.11214 2.1719-1.0093z" fill="#d2d2d8"/><path d="m-39.59 54.844s0.32229 0.05607 0.4484 0.25234c-0.1121 0.18224-1.163 0.64485-0.4484-0.25234z" fill="#ebe6b1"/><path d="m-37.535 55.931c-0.57451-0.53271-2.6009-0.97134-2.7324-1.4159-0.04846-0.16377 0.39235-1.2897 0.95285-0.43458 0.82674-0.64485 0.45218 0.61918 0.71464 0.89719 0.32707 0.34644 1.065 0.95326 1.065 0.95326z" fill="#d2d2d8"/></g><path d="m4.5485 4.2208s0.04357-2.6893 1.4729-1.3387c-1.1961-1.0022-1.2711 1.26-1.4729 1.3387z" fill="#29281c"/><g transform="matrix(-.41738 .053212 .059972 .38133 -12.055 -14.95)"><path d="m-38.847 53.933s1.8356-2.0327 2.4662-1.8364c2.4242-2.7196 1.7235-0.36448 0.81273 0.6028 0.05605 0.91121-1.9758 2.986-2.0598 3.028-0.65859 0.1542-1.7376-0.61682-1.2191-1.7944z" fill="#9078c0"/><path d="m-39.892 54.721c-0.13237 0.65136-1.3559 0.53248-1.2225 1.1249 0.16044 0.71238 1.1329 0.42835 1.1329 0.42835s-0.01401 0.42056 0.21019 0.51868c1.0089-0.5327 2.0458-0.11214 2.1719-1.0093z" fill="#d2d2d8"/><path d="m-39.59 54.844s0.32229 0.05607 0.4484 0.25234c-0.1121 0.18224-1.163 0.64485-0.4484-0.25234z" fill="#ebe6b1"/><path d="m-37.588 55.948c-0.57451-0.53271-2.6009-0.97134-2.7324-1.4159-0.04846-0.16377 0.39235-1.2897 0.95285-0.43458 0.82674-0.64485 0.45218 0.61918 0.71464 0.89719 0.32707 0.34644 1.065 0.95326 1.065 0.95326z" fill="#d2d2d8"/></g><path d="m4.6926 8.7703s-0.32684-2.6725 1.2766-1.502c-1.3242-0.85255-1.0874 1.4-1.2766 1.502z" fill="#29281c"/><g transform="matrix(-.49806 .12514 .13749 .45591 -18.887 -11.79)"><path d="m-38.847 53.933s1.8356-2.0327 2.4662-1.8364c2.4242-2.7196 1.7235-0.36448 0.81273 0.6028 0.05605 0.91121-1.9758 2.986-2.0598 3.028-0.65859 0.1542-1.7376-0.61682-1.2191-1.7944z" fill="#9078c0"/><path d="m-39.892 54.721c-0.13237 0.65136-1.3559 0.53248-1.2225 1.1249 0.16044 0.71238 1.1329 0.42835 1.1329 0.42835s-0.01401 0.42056 0.21019 0.51868c1.0089-0.5327 2.0458-0.11214 2.1719-1.0093z" fill="#d2d2d8"/><path d="m-39.59 54.844s0.32229 0.05607 0.4484 0.25234c-0.1121 0.18224-1.163 0.64485-0.4484-0.25234z" fill="#ebe6b1"/><path d="m-37.793 55.904c-0.57451-0.53271-2.6009-0.97134-2.7324-1.4159-0.04846-0.16377 0.39235-1.2897 0.95285-0.43458 0.82674-0.64485 0.45218 0.61918 0.71464 0.89719 0.32707 0.34644 1.065 0.95326 1.065 0.95326z" fill="#d2d2d8"/></g><path d="m6.5133-0.040516c-0.72041-0.20511-1.0052 0.17777-1.348 0.23955 0.3433 0.19527 0.75214 0.49184 1.1248 0.58418 0.7374 0.1827 1.3537-0.16768 1.4469 0.063225 0.06698-0.072835 0.061-0.18418-0.09313-0.23091 0.08832-0.097676 0.16749-0.38128-0.0754-0.40785 0.13918 0.43982-0.53277-0.099459-1.0551-0.24819z" fill="#9078c0"/><path d="m4.6985 9.6478s-0.27452-2.6775-1.5832-1.2259c1.1062-1.0872 1.3754 1.1623 1.5832 1.2259z" fill="#29281c"/><path d="m1.7824 8.2798c0.79744-0.49834 1.2982-0.10821 1.7415-0.14367-0.341 0.3609-0.72149 0.87172-1.1395 1.1121-0.82714 0.47562-1.7197 0.2365-1.741 0.55958-0.1109-0.06997-0.14814-0.21285 0.02134-0.32308-0.14688-0.094334-0.35696-0.42698-0.07107-0.54112 6e-3 0.60271 0.61062-0.30245 1.1888-0.66381z" fill="#9078c0"/><path d="m4.5659 6.2005s0.82481-2.5785 1.8079-0.92046c-0.85999-1.2643-1.5908 0.89512-1.8079 0.92046z" fill="#29281c"/><path d="m7.5533 5.3357c-0.61701-0.57246-1.137-0.30636-1.5255-0.40963 0.236 0.37631 0.47894 0.8924 0.80632 1.1739 0.64777 0.55704 1.4886 0.48871 1.4467 0.77963 0.11205-0.044314 0.17218-0.16543 0.04187-0.29093 0.14872-0.060171 0.39869-0.32217 0.16533-0.46998-0.11892 0.53532-0.48737-0.36792-0.93474-0.78302z" fill="#9078c0"/><path d="m4.5677 11.423s0.27428-2.6775 1.5831-1.2258c-1.1063-1.0873-1.3753 1.1622-1.5831 1.2258z" fill="#29281c"/><path d="m7.5605 10.065c-0.83111-0.52054-1.353-0.11312-1.8149-0.15019 0.35542 0.37696 0.75199 0.91049 1.1877 1.1616 0.86206 0.49681 1.7922 0.24714 1.8145 0.58457 0.11557-0.07307 0.15436-0.2223-0.02227-0.33743 0.15307-0.09851 0.37197-0.44592 0.07402-0.56514-0.0062 0.62948-0.63639-0.31593-1.239-0.69339z" fill="#9078c0"/><path d="m4.5641 6.3633s0.16388-2.6853-1.3659-1.4331c1.2703-0.92019 1.1707 1.3412 1.3659 1.4331z" fill="#29281c"/><g transform="matrix(.5051 .099152 -.10953 .46276 26.852 -15.369)"><path d="m-38.847 53.933s1.8356-2.0327 2.4662-1.8364c2.4242-2.7196 1.7235-0.36448 0.81273 0.6028 0.05605 0.91121-1.9758 2.986-2.0598 3.028-0.65859 0.1542-1.7376-0.61682-1.2191-1.7944z" fill="#9078c0"/><path d="m-39.892 54.721c-0.13237 0.65136-1.3559 0.53248-1.2225 1.1249 0.16044 0.71238 1.1329 0.42835 1.1329 0.42835s-0.01401 0.42056 0.21019 0.51868c1.0089-0.5327 2.0458-0.11214 2.1719-1.0093z" fill="#d2d2d8"/><path d="m-39.59 54.844s0.32229 0.05607 0.4484 0.25234c-0.1121 0.18224-1.163 0.64485-0.4484-0.25234z" fill="#ebe6b1"/><path d="m-37.621 55.901c-0.57451-0.53271-2.6009-0.97134-2.7324-1.4159-0.04846-0.16377 0.39235-1.2897 0.95285-0.43458 0.82674-0.64485 0.45218 0.61918 0.71464 0.89719 0.32707 0.34644 1.065 0.95326 1.065 0.95326z" fill="#d2d2d8"/></g><g transform="matrix(-.45964 .034653 .038487 .43837 -54.453 -48.063)"><path d="m-119.38 138.8s0.27115-3.4582 1.3002-3.6017c0.34079-2.7391 1.4271-1.6962 0.92105 0.12419 1.0297 0.73868 0.36737 3.0962 0.38294 4.1644z" fill="#9078c0"/><path d="m-119.6 139.86c-0.40541 0.39513-0.28957 2.0645-0.0579 1.9855 0.19304 0.0297 0.6081-0.99769 0.59845-1.1162-0.27992 1.8867 1.361 0.93841 1.0811 0.0198 0.49227 0.52353 0.31852 1.1656 0.50192 1.1952 0.53089 0.0495 0.93628-1.5311 0.74324-2.4498l-1.6312-0.25683z" fill="#d2d2d8"/><path d="m-119.08 139.53s0.64189 5e-3 0.92181-0.0148c0.13025 1.3879-0.89284 2.3362-0.92181 0.0148z" fill="#ebe6b1"/><path d="m-118.75 138.84c0.87363-0.48895 2.0203 0.65657 2.0203 0.65657-0.041 0.39116-1.2558 0.12571-1.8428 0.0559 0 0-1.3104 0.62864-1.6517 0.37719-0.38221-0.67056 1.0511-1.4668 1.4743-1.0896z" fill="#d2d2d8"/></g><g transform="matrix(.34934 .026778 -.029221 .33841 49.381 -40.382)"><path d="m-119.38 138.8s0.27115-3.4582 1.3002-3.6017c0.34079-2.7391 1.4271-1.6962 0.92105 0.12419 1.0297 0.73868 0.36737 3.0962 0.38294 4.1644z" fill="#9078c0"/><path d="m-119.6 139.86c-0.40541 0.39513-0.28957 2.0645-0.0579 1.9855 0.19304 0.0297 0.6081-0.99769 0.59845-1.1162-0.27992 1.8867 1.361 0.93841 1.0811 0.0198 0.49227 0.52353 0.31852 1.1656 0.50192 1.1952 0.53089 0.0495 0.93628-1.5311 0.74324-2.4498l-1.6312-0.25683z" fill="#d2d2d8"/><path d="m-119.08 139.53s0.64189 5e-3 0.92181-0.0148c0.13025 1.3879-0.89284 2.3362-0.92181 0.0148z" fill="#ebe6b1"/><path d="m-118.75 138.84c0.87363-0.48895 2.0203 0.65657 2.0203 0.65657-0.041 0.39116-1.2558 0.12571-1.8428 0.0559 0 0-1.3104 0.62864-1.6517 0.37719-0.38221-0.67056 1.0511-1.4668 1.4743-1.0896z" fill="#d2d2d8"/></g><g transform="matrix(-.44711 .1042 .094937 .45377 -66.87 4.7292)" stroke-width="2.4499"><path d="m-132.01 99.891c-1.4883-0.42995-5.2917-4.2333-11.146-3.3404-6.2177-3.0096-8.5659 0.76068-13.626 2.0174 6.6146 2.7781 17.396-0.13229 24.772 1.3229z" fill="#345d1f"/></g><g fill="#345d1f"><g transform="matrix(.55451 0 0 .51555 50.865 -34.366)"><path d="m-85.301 127.84c-3.6897 0.18459-3.708 3.1652-0.0058 4.2633 1.7582 0.52149 3.5038 1.7239 4.4505 3.0298 3.3027-5.8648-1.868-13.606-4.4448-7.2931z" fill="#345d1f"/></g><g transform="matrix(-.49576 -.045386 -.047901 .44724 -21.01 -20.2)"><path transform="translate(1.1667e-6)" d="m-60.611 104.75s2.6843-3.3394 6.6807-4.1763c1.3257-0.2776 3.8012 1.1482 10.087 1.2296-0.8195-2.1206-3.2391-4.7933-6.8617-5.2932-1.3775-0.19007-8.8449 2.8612-9.9061 8.2398z" fill="#345d1f"/></g><g transform="matrix(.55099 .099031 -.10683 .51015 63.873 -13.423)"><path d="m-92.261 90.697c3.638 0.39688 3.638-2.249 3.638-2.249 2.1828 1.5544 1.7198 3.4396 4.6633 7.9044-1.9844-2.3482-8.3344-2.9104-8.3013-5.6555z" fill="#345d1f"/></g><g transform="matrix(.45807 -.035086 .037759 .42371 33.27 -18.703)"><path d="m-70.223 88.75c-3.8745 1.1541-5.2835-3.1851-7.1649-4.4825-4.7625-3.2843-4.1484-4.7043-6.4692-7.5146 1.1693 1.1459 14.336 3.6015 13.634 11.997z" fill="#345d1f"/></g><g transform="matrix(.375 .024805 -.026589 .34694 33.342 -11.299)"><path d="m-70.223 88.75c-5.8162 0.12583-10.374-7.7421-13.634-11.997 1.1693 1.1459 14.336 3.6015 13.634 11.997z" fill="#345d1f"/></g></g><g transform="matrix(.44769 .1026 -.1138 .42697 72.398 -34.735)"><path d="m-119.38 138.8s0.27115-3.4582 1.3002-3.6017c0.34079-2.7391 1.4271-1.6962 0.92105 0.12419 1.0297 0.73868 0.36737 3.0962 0.38294 4.1644z" fill="#9078c0"/><path d="m-119.6 139.86c-0.40541 0.39513-0.28957 2.0645-0.0579 1.9855 0.19304 0.0297 0.6081-0.99769 0.59845-1.1162-0.27992 1.8867 1.361 0.93841 1.0811 0.0198 0.49227 0.52353 0.31852 1.1656 0.50192 1.1952 0.53089 0.0495 0.93628-1.5311 0.74324-2.4498l-1.6312-0.25683z" fill="#d2d2d8"/><path d="m-119.08 139.53s0.64189 5e-3 0.92181-0.0148c0.13025 1.3879-0.89284 2.3362-0.92181 0.0148z" fill="#ebe6b1"/><path d="m-118.75 138.84c0.87363-0.48895 2.0203 0.65657 2.0203 0.65657-0.041 0.39116-1.2558 0.12571-1.8428 0.0559 0 0-1.3104 0.62864-1.6517 0.37719-0.38221-0.67056 1.0511-1.4668 1.4743-1.0896z" fill="#d2d2d8"/></g></g><g transform="matrix(-.85038 .042123 .045379 .91858 -19.272 23.369)"><g fill="#345d1f"><g transform="matrix(-.37517 .022543 .024048 .34709 -49.626 -34.651)"><path d="m-70.223 88.75c-5.8162 0.12583-10.374-7.7421-13.634-11.997 1.1693 1.1459 14.336 3.6015 13.634 11.997z" fill="#345d1f"/></g><g transform="matrix(.42711 -.10164 .10798 .38964 -6.4906 -48.647)"><path transform="translate(1.1667e-6)" d="m-60.611 104.75s2.6843-3.3394 6.6807-4.1763c1.3257-0.2776 3.8012 1.1482 10.087 1.2296-0.8195-2.1206-3.2391-4.7933-6.8617-5.2932-1.3775-0.19007-8.8449 2.8612-9.9061 8.2398z" fill="#345d1f"/></g><g transform="matrix(-.28793 -.14105 -.2065 .3888 -45.876 -59.562)"><path d="m-132.01 99.891c-1.4883-0.42995-5.2917-4.2333-11.146-3.3404-6.2177-3.0096-8.5659 0.76068-13.626 2.0174 6.6146 2.7781 17.396-0.13229 24.772 1.3229z" fill="#345d1f"/></g><g transform="matrix(.47002 -.002404 -.24001 .37005 32.259 -24.253)"><path d="m-70.223 88.75c-3.8745 1.1541-5.2835-3.1851-7.1649-4.4825-4.7625-3.2843-4.1484-4.7043-6.4692-7.5146 1.1693 1.1459 14.336 3.6015 13.634 11.997z" fill="#345d1f"/></g><g transform="matrix(.43312 .33629 -.36353 .40191 48.958 -11.796)"><path d="m-68.581 96.054c4.7294-3.175-0.39688 4.2664-3.3073 3.9026-2.0174 0.19843-1.4883 5.3909-1.9844 5.6885-2.3151-0.19844-5.8208-10.749 5.2917-9.5911z" fill="#345d1f"/></g></g><g fill="#29281c"><path d="m-21.902-23.192c0.07849 2.2146 2.0497 34.366-2.2387 36.692 4.5325 1.3306 3.0555-36.086 2.2387-36.692z"/><path d="m-21.789-21.546s0.60947-2.6847-1.1863-1.5646c1.5517-0.81068 0.9252 1.2641 1.1863 1.5646z"/><path d="m-21.767-21.017s-0.61313-2.6289 1.1084-1.6126c-1.4094-0.72575-0.93108 1.4937-1.1084 1.6126z"/></g><g transform="matrix(.41093 .12484 -.13783 .37292 -1.1345 -37.938)"><path d="m-38.847 53.933s1.8356-2.0327 2.4662-1.8364c2.4242-2.7196 1.7235-0.36448 0.81273 0.6028 0.05605 0.91121-1.9758 2.986-2.0598 3.028-0.65859 0.1542-1.7376-0.61682-1.2191-1.7944z" fill="#9078c0"/><path d="m-39.892 54.721c-0.13237 0.65136-1.3559 0.53248-1.2225 1.1249 0.16044 0.71238 1.1329 0.42835 1.1329 0.42835s-0.01401 0.42056 0.21019 0.51868c1.0089-0.5327 2.0458-0.11214 2.1719-1.0093z" fill="#d2d2d8"/><path d="m-39.59 54.844s0.32229 0.05607 0.4484 0.25234c-0.1121 0.18224-1.163 0.64485-0.4484-0.25234z" fill="#ebe6b1"/><path d="m-37.535 55.931c-0.57451-0.53271-2.6009-0.97134-2.7324-1.4159-0.04846-0.16377 0.39235-1.2897 0.95285-0.43458 0.82674-0.64485 0.45218 0.61918 0.71464 0.89719 0.32707 0.34644 1.065 0.95326 1.065 0.95326z" fill="#d2d2d8"/></g><path d="m-21.606-18.766s-0.02225-2.6895 1.4397-1.3693c-1.2203-0.97686-1.24 1.2863-1.4397 1.3693z" fill="#29281c"/><g transform="matrix(-.41597 .061951 .069288 .37997 -38.675 -37.583)"><path d="m-38.847 53.933s1.8356-2.0327 2.4662-1.8364c2.4242-2.7196 1.7235-0.36448 0.81273 0.6028 0.05605 0.91121-1.9758 2.986-2.0598 3.028-0.65859 0.1542-1.7376-0.61682-1.2191-1.7944z" fill="#9078c0"/><path d="m-39.892 54.721c-0.13237 0.65136-1.3559 0.53248-1.2225 1.1249 0.16044 0.71238 1.1329 0.42835 1.1329 0.42835s-0.01401 0.42056 0.21019 0.51868c1.0089-0.5327 2.0458-0.11214 2.1719-1.0093z" fill="#d2d2d8"/><path d="m-39.59 54.844s0.32229 0.05607 0.4484 0.25234c-0.1121 0.18224-1.163 0.64485-0.4484-0.25234z" fill="#ebe6b1"/><path d="m-37.588 55.948c-0.57451-0.53271-2.6009-0.97134-2.7324-1.4159-0.04846-0.16377 0.39235-1.2897 0.95285-0.43458 0.82674-0.64485 0.45218 0.61918 0.71464 0.89719 0.32707 0.34644 1.065 0.95326 1.065 0.95326z" fill="#d2d2d8"/></g><path d="m-21.351-14.221s-0.39215-2.6649 1.2395-1.5284c-1.3447-0.82456-1.0528 1.4225-1.2395 1.5284z" fill="#29281c"/><g transform="matrix(-.49488 .13555 .14861 .45291 -45.428 -34.282)"><path d="m-38.847 53.933s1.8356-2.0327 2.4662-1.8364c2.4242-2.7196 1.7235-0.36448 0.81273 0.6028 0.05605 0.91121-1.9758 2.986-2.0598 3.028-0.65859 0.1542-1.7376-0.61682-1.2191-1.7944z" fill="#9078c0"/><path d="m-39.892 54.721c-0.13237 0.65136-1.3559 0.53248-1.2225 1.1249 0.16044 0.71238 1.1329 0.42835 1.1329 0.42835s-0.01401 0.42056 0.21019 0.51868c1.0089-0.5327 2.0458-0.11214 2.1719-1.0093z" fill="#d2d2d8"/><path d="m-39.59 54.844s0.32229 0.05607 0.4484 0.25234c-0.1121 0.18224-1.163 0.64485-0.4484-0.25234z" fill="#ebe6b1"/><path d="m-37.793 55.904c-0.57451-0.53271-2.6009-0.97134-2.7324-1.4159-0.04846-0.16377 0.39235-1.2897 0.95285-0.43458 0.82674-0.64485 0.45218 0.61918 0.71464 0.89719 0.32707 0.34644 1.065 0.95326 1.065 0.95326z" fill="#d2d2d8"/></g><path d="m-19.746-23.067c-0.72524-0.18994-1.0006 0.19881-1.3418 0.26776 0.34799 0.18802 0.76398 0.47594 1.1388 0.56044 0.74168 0.16719 1.3493-0.19603 1.448 0.03287 0.06518-0.07422 0.05648-0.18541-0.09875-0.2289 0.0859-0.09951 0.15812-0.38469-0.08536-0.40616 0.14991 0.43678-0.53506-0.08826-1.0609-0.226z" fill="#9078c0"/><path d="m-21.324-13.344s-0.33997-2.6711-1.6128-1.1924c1.0793-1.1101 1.4035 1.1331 1.6128 1.1924z" fill="#29281c"/><path d="m-24.272-14.65c0.78504-0.51494 1.2953-0.13542 1.7375-0.18016-0.33209 0.36796-0.69998 0.88662-1.112 1.1357-0.81529 0.49284-1.7135 0.27251-1.7269 0.59595-0.11258-0.06763-0.15331-0.20969 0.01343-0.32344-0.14915-0.09123-0.36732-0.41939-0.0843-0.53949 0.02074 0.60243 0.60306-0.31518 1.1723-0.68857z" fill="#9078c0"/><path d="m-21.541-16.787s0.7615-2.5952 1.785-0.95814c-0.89071-1.2459-1.5685 0.92825-1.785 0.95814z" fill="#29281c"/><path d="m-18.575-17.714c-0.63086-0.55937-1.1442-0.28243-1.5351-0.37753 0.24514 0.37126 0.50065 0.88212 0.83484 1.1567 0.66124 0.54331 1.5001 0.45736 1.4654 0.74909 0.11094-0.04665 0.16808-0.169 0.03474-0.29173 0.14721-0.06328 0.39071-0.33045 0.15379-0.47333-0.10579 0.53768-0.49625-0.35761-0.95366-0.76321z" fill="#9078c0"/><path d="m-21.411-11.566s0.2087-2.6826 1.5527-1.2587c-1.1326-1.0638-1.3465 1.1907-1.5527 1.2587z" fill="#29281c"/><path d="m-18.452-12.987c-0.84364-0.50297-1.3554-0.08472-1.8181-0.11209 0.36455 0.36941 0.77408 0.89448 1.2158 1.1364 0.874 0.4786 1.7978 0.20949 1.8283 0.54637 0.11375-0.07547 0.14888-0.22548-0.03052-0.33688 0.15062-0.10169 0.36096-0.4536 0.06017-0.56655 0.0092 0.62945-0.64396-0.3025-1.2557-0.66722z" fill="#9078c0"/><path d="m-21.538-16.624s0.09813-2.688-1.4006-1.4041c1.2475-0.94659 1.2033 1.3163 1.4006 1.4041z" fill="#29281c"/><g transform="matrix(.5074 .088533 -.098177 .46494 .21243 -38.818)"><path d="m-38.847 53.933s1.8356-2.0327 2.4662-1.8364c2.4242-2.7196 1.7235-0.36448 0.81273 0.6028 0.05605 0.91121-1.9758 2.986-2.0598 3.028-0.65859 0.1542-1.7376-0.61682-1.2191-1.7944z" fill="#9078c0"/><path d="m-39.892 54.721c-0.13237 0.65136-1.3559 0.53248-1.2225 1.1249 0.16044 0.71238 1.1329 0.42835 1.1329 0.42835s-0.01401 0.42056 0.21019 0.51868c1.0089-0.5327 2.0458-0.11214 2.1719-1.0093z" fill="#d2d2d8"/><path d="m-39.59 54.844s0.32229 0.05607 0.4484 0.25234c-0.1121 0.18224-1.163 0.64485-0.4484-0.25234z" fill="#ebe6b1"/><path d="m-37.621 55.901c-0.57451-0.53271-2.6009-0.97134-2.7324-1.4159-0.04846-0.16377 0.39235-1.2897 0.95285-0.43458 0.82674-0.64485 0.45218 0.61918 0.71464 0.89719 0.32707 0.34644 1.065 0.95326 1.065 0.95326z" fill="#d2d2d8"/></g><g transform="matrix(-.45868 .044283 .049204 .43745 -81.872 -69.799)"><path d="m-119.38 138.8s0.27115-3.4582 1.3002-3.6017c0.34079-2.7391 1.4271-1.6962 0.92105 0.12419 1.0297 0.73868 0.36737 3.0962 0.38294 4.1644z" fill="#9078c0"/><path d="m-119.6 139.86c-0.40541 0.39513-0.28957 2.0645-0.0579 1.9855 0.19304 0.0297 0.6081-0.99769 0.59845-1.1162-0.27992 1.8867 1.361 0.93841 1.0811 0.0198 0.49227 0.52353 0.31852 1.1656 0.50192 1.1952 0.53089 0.0495 0.93628-1.5311 0.74324-2.4498l-1.6312-0.25683z" fill="#d2d2d8"/><path d="m-119.08 139.53s0.64189 5e-3 0.92181-0.0148c0.13025 1.3879-0.89284 2.3362-0.92181 0.0148z" fill="#ebe6b1"/><path d="m-118.75 138.84c0.87363-0.48895 2.0203 0.65657 2.0203 0.65657-0.041 0.39116-1.2558 0.12571-1.8428 0.0559 0 0-1.3104 0.62864-1.6517 0.37719-0.38221-0.67056 1.0511-1.4668 1.4743-1.0896z" fill="#d2d2d8"/></g><g transform="matrix(.3499 .019445 -.020933 .33894 22.123 -64.297)"><path d="m-119.38 138.8s0.27115-3.4582 1.3002-3.6017c0.34079-2.7391 1.4271-1.6962 0.92105 0.12419 1.0297 0.73868 0.36737 3.0962 0.38294 4.1644z" fill="#9078c0"/><path d="m-119.6 139.86c-0.40541 0.39513-0.28957 2.0645-0.0579 1.9855 0.19304 0.0297 0.6081-0.99769 0.59845-1.1162-0.27992 1.8867 1.361 0.93841 1.0811 0.0198 0.49227 0.52353 0.31852 1.1656 0.50192 1.1952 0.53089 0.0495 0.93628-1.5311 0.74324-2.4498l-1.6312-0.25683z" fill="#d2d2d8"/><path d="m-119.08 139.53s0.64189 5e-3 0.92181-0.0148c0.13025 1.3879-0.89284 2.3362-0.92181 0.0148z" fill="#ebe6b1"/><path d="m-118.75 138.84c0.87363-0.48895 2.0203 0.65657 2.0203 0.65657-0.041 0.39116-1.2558 0.12571-1.8428 0.0559 0 0-1.3104 0.62864-1.6517 0.37719-0.38221-0.67056 1.0511-1.4668 1.4743-1.0896z" fill="#d2d2d8"/></g><g fill="#345d1f"><g transform="matrix(.55437 -.011629 .012615 .51542 23.754 -58.314)"><path d="m-85.301 127.84c-3.6897 0.18459-3.708 3.1652-0.0058 4.2633 1.7582 0.52149 3.5038 1.7239 4.4505 3.0298 3.3027-5.8648-1.868-13.606-4.4448-7.2931z" fill="#345d1f"/></g><g transform="matrix(-.49674 -.034977 -.036946 .44812 -47.756 -42.645)"><path transform="translate(1.1667e-6)" d="m-60.611 104.75s2.6843-3.3394 6.6807-4.1763c1.3257-0.2776 3.8012 1.1482 10.087 1.2296-0.8195-2.1206-3.2391-4.7933-6.8617-5.2932-1.3775-0.19007-8.8449 2.8612-9.9061 8.2398z" fill="#345d1f"/></g><g transform="matrix(.55327 .08745 -.094323 .51226 37.271 -37.649)"><path d="m-92.261 90.697c3.638 0.39688 3.638-2.249 3.638-2.249 2.1828 1.5544 1.7198 3.4396 4.6633 7.9044-1.9844-2.3482-8.3344-2.9104-8.3013-5.6555z" fill="#345d1f"/></g><g transform="matrix(.4571 -.044683 .048118 .4228 6.5469 -42.286)"><path d="m-70.223 88.75c-3.8745 1.1541-5.2835-3.1851-7.1649-4.4825-4.7625-3.2843-4.1484-4.7043-6.4692-7.5146 1.1693 1.1459 14.336 3.6015 13.634 11.997z" fill="#345d1f"/></g><g transform="matrix(.37551 .016934 -.018093 .34741 6.8003 -34.886)"><path d="m-70.223 88.75c-5.8162 0.12583-10.374-7.7421-13.634-11.997 1.1693 1.1459 14.336 3.6015 13.634 11.997z" fill="#345d1f"/></g></g><g transform="matrix(.45009 .093185 -.10332 .42924 45.273 -59.135)"><path d="m-119.38 138.8s0.27115-3.4582 1.3002-3.6017c0.34079-2.7391 1.4271-1.6962 0.92105 0.12419 1.0297 0.73868 0.36737 3.0962 0.38294 4.1644z" fill="#9078c0"/><path d="m-119.6 139.86c-0.40541 0.39513-0.28957 2.0645-0.0579 1.9855 0.19304 0.0297 0.6081-0.99769 0.59845-1.1162-0.27992 1.8867 1.361 0.93841 1.0811 0.0198 0.49227 0.52353 0.31852 1.1656 0.50192 1.1952 0.53089 0.0495 0.93628-1.5311 0.74324-2.4498l-1.6312-0.25683z" fill="#d2d2d8"/><path d="m-119.08 139.53s0.64189 5e-3 0.92181-0.0148c0.13025 1.3879-0.89284 2.3362-0.92181 0.0148z" fill="#ebe6b1"/><path d="m-118.75 138.84c0.87363-0.48895 2.0203 0.65657 2.0203 0.65657-0.041 0.39116-1.2558 0.12571-1.8428 0.0559 0 0-1.3104 0.62864-1.6517 0.37719-0.38221-0.67056 1.0511-1.4668 1.4743-1.0896z" fill="#d2d2d8"/></g></g></g><g transform="translate(8.8336 4.5892)" stroke-width=".9626"><g transform="matrix(.99106 .13343 -.14399 1.0696 4.417 -3.9127)"><g transform="matrix(.62032 .066303 -.07149 .57428 56.853 -12.052)" stroke="#31581e" stroke-width=".31723"><path d="m-70.223 88.75c-3.8745 1.1541-5.2835-3.1851-7.1649-4.4825-4.7625-3.2843-4.1484-4.7043-6.4692-7.5146 1.1693 1.1459 14.336 3.6015 13.634 11.997z" fill="#417427"/><path d="m-70.223 88.75c-1.2395-3.5079-12.558-10.547-13.213-11.67" fill="none"/></g><g transform="matrix(-.43725 -.052913 -.056222 .3989 -11.609 -24.563)" stroke="#31581e" stroke-width=".45252"><path transform="translate(1.1667e-6)" d="m-60.611 104.75s2.6843-3.3394 6.6807-4.1763c1.3257-0.2776 3.8012 1.1482 10.087 1.2296-0.8195-2.1206-3.2391-4.7933-6.8617-5.2932-1.3775-0.19007-8.8449 2.8612-9.9061 8.2398z" fill="#417427"/><path d="m-60.303 103.66c3.9756-8.9335 16.156-2.1911 16.46-1.8637" fill="none"/></g><g transform="matrix(.26736 -.17235 .25583 .36273 25.707 -39.427)" stroke="#31581e" stroke-width=".50745"><path d="m-132.01 99.891c-1.4883-0.42995-5.2917-4.2333-11.146-3.3404-6.2177-3.0096-8.5659 0.76068-13.626 2.0174 6.6146 2.7781 17.396-0.13229 24.772 1.3229z" fill="#417427"/><path d="m-132.01 99.891c-10.319-4.9279-20.77-0.8599-24.772-1.3229" fill="none"/></g><g transform="matrix(.46995 .0074537 -.24901 .36492 63.182 -1.3488)" stroke="#31581e" stroke-width=".45777"><path d="m-70.223 88.75c-3.8745 1.1541-5.2835-3.1851-7.1649-4.4825-4.7625-3.2843-4.1484-4.7043-6.4692-7.5146 1.1693 1.1459 14.336 3.6015 13.634 11.997z" fill="#417427"/><path d="m-70.223 88.75c-1.2395-3.5079-12.558-10.547-13.213-11.67" fill="none"/></g><g transform="matrix(-.45951 .30491 .32944 .42627 -60.377 5.145)" stroke="#31581e" stroke-width=".35013"><path d="m-68.581 96.054c4.7294-3.175-0.39688 4.2664-3.3073 3.9026-2.0174 0.19843-1.4883 5.3909-1.9844 5.6885-2.3151-0.19844-5.8208-10.749 5.2917-9.5911z" fill="#417427"/><path d="m-68.581 96.054c-6.7138 3.6711-6.5815 6.35-5.2917 9.5911" fill="none"/></g><g fill="#29281c"><path d="m9.0088-1.4234c0.024276 2.2157 1.2083 34.4-3.1359 36.636 4.4988 1.4254 3.9377-36.012 3.1359-36.636z"/><path d="m9.0818 0.22386s0.67501-2.6713-1.1477-1.5891c1.5712-0.77793 0.89403 1.2832 1.1477 1.5891z" stroke-width=".19051"/><path d="m9.0899 0.75337s-0.54864-2.6411 1.1476-1.589c-1.3913-0.75512-0.96739 1.4738-1.1476 1.589z" stroke-width=".19051"/></g><g transform="matrix(.40777 .13342 -.14692 .36994 30.132 -15.73)" stroke-width="2.3316"><path d="m-38.847 53.933s1.8356-2.0327 2.4662-1.8364c2.4242-2.7196 1.7235-0.36448 0.81273 0.6028 0.05605 0.91121-1.9758 2.986-2.0598 3.028-0.65859 0.1542-1.7376-0.61682-1.2191-1.7944z" fill="#b8a9d7" stroke="#9680c4" stroke-width=".46144"/><path d="m-39.892 54.721c-0.13237 0.65136-1.3559 0.53248-1.2225 1.1249 0.16044 0.71238 1.1329 0.42835 1.1329 0.42835s-0.01401 0.42056 0.21019 0.51868c1.0089-0.5327 2.0458-0.11214 2.1719-1.0093z" fill="#dedee2" stroke="#d0d0d7" stroke-width=".46144"/><path d="m-39.59 54.844s0.32229 0.05607 0.4484 0.25234c-0.1121 0.18224-1.163 0.64485-0.4484-0.25234z" fill="#ebe6b1"/><path d="m-37.6 55.783c-0.57451-0.53271-2.6009-0.97134-2.7324-1.4159-0.04846-0.16377 0.39235-1.2897 0.95285-0.43458 0.82674-0.64485 0.45218 0.61918 0.71464 0.89719 0.32707 0.34644 1.065 0.95326 1.065 0.95326z" fill="#efeff1" stroke="#d0d0d7" stroke-width=".46144"/></g><path d="m9.1959 3.0075s0.043566-2.6893 1.4729-1.3387c-1.1961-1.0022-1.2711 1.26-1.4729 1.3387z" fill="#29281c" stroke-width=".19051"/><g transform="matrix(-.41738 .053212 .059972 .38133 -7.4074 -16.163)" stroke-width="2.389"><path d="m-38.847 53.933s1.8356-2.0327 2.4662-1.8364c2.4242-2.7196 1.7235-0.36448 0.81273 0.6028 0.05605 0.91121-1.9758 2.986-2.0598 3.028-0.65859 0.1542-1.7376-0.61682-1.2191-1.7944z" fill="#b8a9d7" stroke="#9680c4" stroke-width=".47281"/><path d="m-39.892 54.721c-0.13237 0.65136-1.3559 0.53248-1.2225 1.1249 0.16044 0.71238 1.1329 0.42835 1.1329 0.42835s-0.01401 0.42056 0.21019 0.51868c1.0089-0.5327 2.0458-0.11214 2.1719-1.0093z" fill="#dedee2" stroke="#d0d0d7" stroke-width=".47281"/><path d="m-39.59 54.844s0.32229 0.05607 0.4484 0.25234c-0.1121 0.18224-1.163 0.64485-0.4484-0.25234z" fill="#ebe6b1"/><path d="m-37.6 55.783c-0.57451-0.53271-2.6009-0.97134-2.7324-1.4159-0.04846-0.16377 0.39235-1.2897 0.95285-0.43458 0.82674-0.64485 0.45218 0.61918 0.71464 0.89719 0.32707 0.34644 1.065 0.95326 1.065 0.95326z" fill="#efeff1" stroke="#d0d0d7" stroke-width=".47281"/></g><path d="m9.34 7.557s-0.32684-2.6725 1.2766-1.502c-1.3242-0.85255-1.0873 1.4-1.2766 1.502z" fill="#29281c" stroke-width=".19051"/><g transform="matrix(-.49806 .12514 .13749 .45591 -14.24 -13.004)" stroke-width="1.9476"><path d="m-38.847 53.933s1.8356-2.0327 2.4662-1.8364c2.4242-2.7196 1.7235-0.36448 0.81273 0.6028 0.05605 0.91121-1.9758 2.986-2.0598 3.028-0.65859 0.1542-1.7376-0.61682-1.2191-1.7944z" fill="#b8a9d7" stroke="#9680c4" stroke-width=".38545"/><path d="m-39.892 54.721c-0.13237 0.65136-1.3559 0.53248-1.2225 1.1249 0.16044 0.71238 1.1329 0.42835 1.1329 0.42835s-0.01401 0.42056 0.21019 0.51868c1.0089-0.5327 2.0458-0.11214 2.1719-1.0093z" fill="#dedee2" stroke="#d0d0d7" stroke-width=".38545"/><path d="m-39.59 54.844s0.32229 0.05607 0.4484 0.25234c-0.1121 0.18224-1.163 0.64485-0.4484-0.25234z" fill="#ebe6b1"/><path d="m-37.6 55.783c-0.57451-0.53271-2.6009-0.97134-2.7324-1.4159-0.04846-0.16377 0.39235-1.2897 0.95285-0.43458 0.82674-0.64485 0.45218 0.61918 0.71464 0.89719 0.32707 0.34644 1.065 0.95326 1.065 0.95326z" fill="#efeff1" stroke="#d0d0d7" stroke-width=".38545"/></g><path d="m11.161-1.2539c-0.72041-0.20511-1.0052 0.17777-1.348 0.23955 0.3433 0.19527 0.75214 0.49184 1.1248 0.58418 0.7374 0.1827 1.3537-0.16768 1.4469 0.063225 0.06698-0.072835 0.061-0.18418-0.09313-0.23091 0.08832-0.097676 0.16749-0.38128-0.0754-0.40785 0.13918 0.43982-0.53277-0.099459-1.0551-0.24819z" fill="#b8a9d7" stroke="#9680c4" stroke-width=".1906"/><path d="m9.3459 8.4345s-0.27452-2.6775-1.5832-1.2259c1.1062-1.0872 1.3754 1.1623 1.5832 1.2259z" fill="#29281c" stroke-width=".19051"/><path d="m6.4298 7.0665c0.79744-0.49834 1.2982-0.10821 1.7415-0.14367-0.341 0.3609-0.72149 0.87172-1.1395 1.1121-0.82714 0.47562-1.7197 0.2365-1.741 0.55958-0.1109-0.06997-0.14813-0.21285 0.021335-0.32308-0.14688-0.094334-0.35696-0.42698-0.071072-0.54112 0.0059944 0.60271 0.61062-0.30245 1.1888-0.66381z" fill="#b8a9d7" stroke="#9680c4" stroke-width=".1906"/><path d="m9.2133 4.9872s0.82481-2.5785 1.8079-0.92046c-0.85999-1.2643-1.5908 0.89512-1.8079 0.92046z" fill="#29281c" stroke-width=".19051"/><path d="m12.201 4.1223c-0.61701-0.57246-1.137-0.30636-1.5255-0.40963 0.236 0.37631 0.47894 0.8924 0.80632 1.1739 0.64777 0.55704 1.4886 0.48871 1.4467 0.77963 0.11205-0.044314 0.17218-0.16543 0.04187-0.29093 0.14872-0.060171 0.39869-0.32217 0.16533-0.46998-0.11892 0.53532-0.48737-0.36792-0.93474-0.78302z" fill="#b8a9d7" stroke="#9680c4" stroke-width=".1906"/><path d="m9.2151 10.21s0.27428-2.6775 1.5831-1.2258c-1.1063-1.0873-1.3753 1.1622-1.5831 1.2258z" fill="#29281c" stroke-width=".19051"/><path d="m12.208 8.8514c-0.83111-0.52054-1.353-0.11312-1.8149-0.15019 0.35542 0.37696 0.75199 0.91049 1.1877 1.1616 0.86206 0.49681 1.7922 0.24715 1.8145 0.58457 0.11557-0.07307 0.15436-0.2223-0.02227-0.33743 0.15307-0.09851 0.37197-0.44592 0.07402-0.56514-0.0062 0.62948-0.63639-0.31593-1.239-0.69339z" fill="#b8a9d7" stroke="#9680c4" stroke-width=".1906"/><path d="m9.2115 5.1499s0.16388-2.6853-1.3659-1.4331c1.2703-0.92019 1.1707 1.3412 1.3659 1.4331z" fill="#29281c" stroke-width=".19051"/><g transform="matrix(.5051 .099152 -.10953 .46276 31.51 -16.621)" stroke-width="1.9463"><path d="m-38.847 53.933s1.8356-2.0327 2.4662-1.8364c2.4242-2.7196 1.7235-0.36448 0.81273 0.6028 0.05605 0.91121-1.9758 2.986-2.0598 3.028-0.65859 0.1542-1.7376-0.61682-1.2191-1.7944z" fill="#b8a9d7" stroke="#9680c4" stroke-width=".38519"/><path d="m-39.892 54.721c-0.13237 0.65136-1.3559 0.53248-1.2225 1.1249 0.16044 0.71238 1.1329 0.42835 1.1329 0.42835s-0.01401 0.42056 0.21019 0.51868c1.0089-0.5327 2.0458-0.11214 2.1719-1.0093z" fill="#dedee2" stroke="#d0d0d7" stroke-width=".38519"/><path d="m-39.59 54.844s0.32229 0.05607 0.4484 0.25234c-0.1121 0.18224-1.163 0.64485-0.4484-0.25234z" fill="#ebe6b1"/><path d="m-37.6 55.783c-0.57451-0.53271-2.6009-0.97134-2.7324-1.4159-0.04846-0.16377 0.39235-1.2897 0.95285-0.43458 0.82674-0.64485 0.45218 0.61918 0.71464 0.89719 0.32707 0.34644 1.065 0.95326 1.065 0.95326z" fill="#efeff1" stroke="#d0d0d7" stroke-width=".38519"/></g><g transform="matrix(-.45964 .034653 .038487 .43837 -49.806 -49.276)" stroke-width="2.1374"><path d="m-119.38 138.8s0.27115-3.4582 1.3002-3.6017c0.34079-2.7391 1.4271-1.6962 0.92105 0.12419 1.0297 0.73868 0.36737 3.0962 0.38294 4.1644z" fill="#b8a9d7" stroke="#9680c4" stroke-width=".42301"/><path d="m-119.6 139.86c-0.40541 0.39513-0.28957 2.0645-0.0579 1.9855 0.19304 0.0297 0.6081-0.99769 0.59845-1.1162-0.27992 1.8867 1.361 0.93841 1.0811 0.0198 0.49227 0.52353 0.31852 1.1656 0.50192 1.1952 0.53089 0.0495 0.93628-1.5311 0.74324-2.4498l-1.6312-0.25683z" fill="#dedee2" stroke="#d0d0d7" stroke-width=".42301"/><path d="m-119.08 139.53s0.64189 5e-3 0.92181-0.0148c0.13025 1.3879-0.89284 2.3362-0.92181 0.0148z" fill="#ebe6b1"/><path d="m-118.75 138.84c0.87363-0.48895 2.0203 0.65657 2.0203 0.65657-0.041 0.39116-1.2558 0.12571-1.8428 0.0559 0 0-1.3104 0.62864-1.6517 0.37719-0.38221-0.67056 1.0511-1.4668 1.4743-1.0896z" fill="#efeff1" stroke="#d0d0d7" stroke-width=".42301"/></g><g transform="matrix(.34934 .026778 -.029221 .33841 54.028 -41.595)" stroke-width="2.7904"><path d="m-119.38 138.8s0.27115-3.4582 1.3002-3.6017c0.34079-2.7391 1.4271-1.6962 0.92105 0.12419 1.0297 0.73868 0.36737 3.0962 0.38294 4.1644z" fill="#b8a9d7" stroke="#9680c4" stroke-width=".55225"/><path d="m-119.6 139.86c-0.40541 0.39513-0.28957 2.0645-0.0579 1.9855 0.19304 0.0297 0.6081-0.99769 0.59845-1.1162-0.27992 1.8867 1.361 0.93841 1.0811 0.0198 0.49227 0.52353 0.31852 1.1656 0.50192 1.1952 0.53089 0.0495 0.93628-1.5311 0.74324-2.4498l-1.6312-0.25683z" fill="#dedee2" stroke="#d0d0d7" stroke-width=".55225"/><path d="m-119.08 139.53s0.64189 5e-3 0.92181-0.0148c0.13025 1.3879-0.89284 2.3362-0.92181 0.0148z" fill="#ebe6b1"/><path d="m-118.75 138.84c0.87363-0.48895 2.0203 0.65657 2.0203 0.65657-0.041 0.39116-1.2558 0.12571-1.8428 0.0559 0 0-1.3104 0.62864-1.6517 0.37719-0.38221-0.67056 1.0511-1.4668 1.4743-1.0896z" fill="#efeff1" stroke="#d0d0d7" stroke-width=".55225"/></g><g transform="matrix(-.44711 .1042 .094937 .45377 -62.222 3.5158)" stroke="#31581e" stroke-width=".41319"><path d="m-132.01 99.891c-1.4883-0.42995-5.2917-4.2333-11.146-3.3404-6.2177-3.0096-8.5659 0.76068-13.626 2.0174 6.6146 2.7781 17.396-0.13229 24.772 1.3229z" fill="#417427"/><path d="m-132.01 99.891c-10.319-4.9279-20.77-0.8599-24.772-1.3229" fill="none"/></g><g transform="matrix(.55451 0 0 .51555 55.513 -35.579)" stroke="#31581e" stroke-width=".35647"><path d="m-85.301 127.84c-3.6897 0.18459-3.708 3.1652-0.0058 4.2633 1.7582 0.52149 3.5038 1.7239 4.4505 3.0298 3.3027-5.8648-1.868-13.606-4.4448-7.2931z" fill="#417427"/><path d="m-85.301 127.84c2.2406 0.46988 4.8086 4.8788 4.4448 7.2931" fill="none"/></g><g transform="matrix(.49818 0 0 .44942 38.594 -18.825)" stroke="#31581e" stroke-width=".4028"><path transform="translate(1.1667e-6)" d="m-60.611 104.75s2.6843-3.3394 6.6807-4.1763c1.3257-0.2776 3.8012 1.1482 10.087 1.2296-0.8195-2.1206-3.2391-4.7933-6.8617-5.2932-1.3775-0.19007-8.8449 2.8612-9.9061 8.2398z" fill="#417427"/><path d="m-60.303 103.66c3.9756-8.9335 16.156-2.1911 16.46-1.8637" fill="none"/></g><g transform="matrix(-.53776 .14896 .16063 .49789 -53.96 -8.3358)" fill="#417427" stroke="#31581e" stroke-width=".35291"><path d="m-92.261 90.697c3.638 0.39688 3.638-2.249 3.638-2.249 2.1828 1.5544 1.7198 3.4396 4.6633 7.9044-1.9844-2.3482-8.3344-2.9104-8.3013-5.6555z"/><path d="m-89.913 90.333c0 0.59531 5.2255 4.7625 5.5562 5.424"/></g><g transform="matrix(-.45957 .0069948 .0075355 .42509 -23.719 -16.784)" stroke="#31581e" stroke-width=".43116"><path d="m-70.223 88.75c-3.8745 1.1541-5.2835-3.1851-7.1649-4.4825-4.7625-3.2843-4.1484-4.7043-6.4692-7.5146 1.1693 1.1459 14.336 3.6015 13.634 11.997z" fill="#417427"/><path d="m-70.223 88.75c-1.2395-3.5079-12.558-10.547-13.213-11.67" fill="none"/></g><g transform="matrix(.375 .024805 -.026589 .34694 37.99 -12.513)" stroke="#31581e" stroke-width=".52708"><path d="m-70.223 88.75c-5.8162 0.12583-10.374-7.7421-13.634-11.997 1.1693 1.1459 14.336 3.6015 13.634 11.997z" fill="#417427"/><path d="m-70.223 88.75c-1.2395-3.5079-12.558-10.547-13.213-11.67" fill="none"/></g><g transform="matrix(.44769 .1026 -.1138 .42697 77.046 -35.949)" stroke-width="2.1374"><path d="m-119.38 138.8s0.27115-3.4582 1.3002-3.6017c0.34079-2.7391 1.4271-1.6962 0.92105 0.12419 1.0297 0.73868 0.36737 3.0962 0.38294 4.1644z" fill="#b8a9d7" stroke="#9680c4" stroke-width=".42301"/><path d="m-119.6 139.86c-0.40541 0.39513-0.28957 2.0645-0.0579 1.9855 0.19304 0.0297 0.6081-0.99769 0.59845-1.1162-0.27992 1.8867 1.361 0.93841 1.0811 0.0198 0.49227 0.52353 0.31852 1.1656 0.50192 1.1952 0.53089 0.0495 0.93628-1.5311 0.74324-2.4498l-1.6312-0.25683z" fill="#dedee2" stroke="#d0d0d7" stroke-width=".42301"/><path d="m-119.08 139.53s0.64189 5e-3 0.92181-0.0148c0.13025 1.3879-0.89284 2.3362-0.92181 0.0148z" fill="#ebe6b1"/><path d="m-118.75 138.84c0.87363-0.48895 2.0203 0.65657 2.0203 0.65657-0.041 0.39116-1.2558 0.12571-1.8428 0.0559 0 0-1.3104 0.62864-1.6517 0.37719-0.38221-0.67056 1.0511-1.4668 1.4743-1.0896z" fill="#efeff1" stroke="#d0d0d7" stroke-width=".42301"/></g></g><g transform="matrix(-.98852 .15112 .16309 1.0668 -20.635 1.3892)"><g transform="matrix(-.28133 .14607 .19328 .36725 -73.526 12.317)" stroke="#31581e" stroke-width=".5255"><path d="m-132.01 99.891c-1.4883-0.42995-5.2917-4.2333-11.146-3.3404-6.2177-3.0096-8.5659 0.76068-13.626 2.0174 6.6146 2.7781 17.396-0.13229 24.772 1.3229z" fill="#417427"/><path d="m-132.01 99.891c-10.319-4.9279-20.77-0.8599-24.772-1.3229" fill="none"/></g><g transform="matrix(-.43725 -.052913 -.056222 .3989 -36.929 -22.263)" stroke="#31581e" stroke-width=".45252"><path transform="translate(1.1667e-6)" d="m-60.611 104.75s2.6843-3.3394 6.6807-4.1763c1.3257-0.2776 3.8012 1.1482 10.087 1.2296-0.8195-2.1206-3.2391-4.7933-6.8617-5.2932-1.3775-0.19007-8.8449 2.8612-9.9061 8.2398z" fill="#417427"/><path d="m-60.303 103.66c3.9756-8.9335 16.156-2.1911 16.46-1.8637" fill="none"/></g><g transform="matrix(-.52299 -.23039 -.11143 .44371 -45.003 -22.366)" stroke="#31581e" stroke-width=".37543"><path d="m-70.223 88.75c-3.8745 1.1541-5.2835-3.1851-7.1649-4.4825-4.7625-3.2843-4.1484-4.7043-6.4692-7.5146 1.1693 1.1459 14.336 3.6015 13.634 11.997z" fill="#417427"/><path d="m-70.223 88.75c-1.2395-3.5079-12.558-10.547-13.213-11.67" fill="none"/></g><g transform="matrix(-.26736 -.17235 -.25583 .36273 -33.148 -36.545)" stroke="#31581e" stroke-width=".50745"><path d="m-132.01 99.891c-1.4883-0.42995-5.2917-4.2333-11.146-3.3404-6.2177-3.0096-8.5659 0.76068-13.626 2.0174 6.6146 2.7781 17.396-0.13229 24.772 1.3229z" fill="#417427"/><path d="m-132.01 99.891c-10.319-4.9279-20.77-0.8599-24.772-1.3229" fill="none"/></g><path d="m-15.977 1.6546c0.02428 2.2157 0.68745 30.119-3.1669 32.322 4.135 1.2415 3.6711-31.331 3.1669-32.322z" fill="#29281c"/><g transform="matrix(.33133 .38607 -.41788 .3068 52.475 18.796)" stroke="#31581e" stroke-width=".37166"><path d="m-68.581 96.054c4.7294-3.175-0.39688 4.2664-3.3073 3.9026-2.0174 0.19843-1.4883 5.3909-1.9844 5.6885-2.3151-0.19844-5.8208-10.749 5.2917-9.5911z" fill="#417427"/><path d="m-68.581 96.054c-6.7138 3.6711-6.5815 6.35-5.2917 9.5911" fill="none"/></g><path d="m-15.952 2.7079s0.55193-2.6579-1.1551-1.5992c1.4002-0.75982 0.97372 1.4832 1.1551 1.5992z" fill="#29281c" stroke-width=".19051"/><path d="m-15.944 3.2408s-0.55215-2.6579 1.1549-1.5991c-1.4002-0.75992-0.97359 1.4831-1.1549 1.5991z" fill="#29281c" stroke-width=".19051"/><g transform="matrix(.41038 .13427 -.14786 .37229 5.2328 -13.348)" stroke-width="2.3168"><path d="m-38.847 53.933s1.8356-2.0327 2.4662-1.8364c2.4242-2.7196 1.7235-0.36448 0.81273 0.6028 0.05605 0.91121-1.9758 2.986-2.0598 3.028-0.65859 0.1542-1.7376-0.61682-1.2191-1.7944z" fill="#b8a9d7" stroke="#9680c4" stroke-width=".45851"/><path d="m-39.892 54.721c-0.13237 0.65136-1.3559 0.53248-1.2225 1.1249 0.16044 0.71238 1.1329 0.42835 1.1329 0.42835s-0.01401 0.42056 0.21019 0.51868c1.0089-0.5327 2.0458-0.11214 2.1719-1.0093z" fill="#dedee2" stroke="#d0d0d7" stroke-width=".45851"/><path d="m-39.59 54.844s0.32229 0.05607 0.4484 0.25234c-0.1121 0.18224-1.163 0.64485-0.4484-0.25234z" fill="#ebe6b1"/><path d="m-37.6 55.783c-0.57451-0.53271-2.6009-0.97134-2.7324-1.4159-0.04846-0.16377 0.39235-1.2897 0.95285-0.43458 0.82674-0.64485 0.45218 0.61918 0.71464 0.89719 0.32707 0.34644 1.065 0.95326 1.065 0.95326z" fill="#efeff1" stroke="#d0d0d7" stroke-width=".45851"/></g><path d="m-15.837 5.5092s0.04386-2.7064 1.4823-1.3472c-1.2038-1.0086-1.2793 1.268-1.4823 1.3472z" fill="#29281c" stroke-width=".19051"/><g transform="matrix(-.42005 .053552 .060355 .38376 -32.547 -13.783)" stroke-width="2.3739"><path d="m-38.847 53.933s1.8356-2.0327 2.4662-1.8364c2.4242-2.7196 1.7235-0.36448 0.81273 0.6028 0.05605 0.91121-1.9758 2.986-2.0598 3.028-0.65859 0.1542-1.7376-0.61682-1.2191-1.7944z" fill="#b8a9d7" stroke="#9680c4" stroke-width=".46981"/><path d="m-39.892 54.721c-0.13237 0.65136-1.3559 0.53248-1.2225 1.1249 0.16044 0.71238 1.1329 0.42835 1.1329 0.42835s-0.01401 0.42056 0.21019 0.51868c1.0089-0.5327 2.0458-0.11214 2.1719-1.0093z" fill="#dedee2" stroke="#d0d0d7" stroke-width=".46981"/><path d="m-39.59 54.844s0.32229 0.05607 0.4484 0.25234c-0.1121 0.18224-1.163 0.64485-0.4484-0.25234z" fill="#ebe6b1"/><path d="m-37.6 55.783c-0.57451-0.53271-2.6009-0.97134-2.7324-1.4159-0.04846-0.16377 0.39235-1.2897 0.95285-0.43458 0.82674-0.64485 0.45218 0.61918 0.71464 0.89719 0.32707 0.34644 1.065 0.95326 1.065 0.95326z" fill="#efeff1" stroke="#d0d0d7" stroke-width=".46981"/></g><path d="m-15.692 10.088s-0.32893-2.6895 1.2848-1.5116c-1.3327-0.85797-1.0943 1.4089-1.2848 1.5116z" fill="#29281c" stroke-width=".19051"/><g transform="matrix(-.50126 .12593 .13837 .45881 -39.423 -10.604)" stroke-width="1.9353"><path d="m-38.847 53.933s1.8356-2.0327 2.4662-1.8364c2.4242-2.7196 1.7235-0.36448 0.81273 0.6028 0.05605 0.91121-1.9758 2.986-2.0598 3.028-0.65859 0.1542-1.7376-0.61682-1.2191-1.7944z" fill="#b8a9d7" stroke="#9680c4" stroke-width=".383"/><path d="m-39.892 54.721c-0.13237 0.65136-1.3559 0.53248-1.2225 1.1249 0.16044 0.71238 1.1329 0.42835 1.1329 0.42835s-0.01401 0.42056 0.21019 0.51868c1.0089-0.5327 2.0458-0.11214 2.1719-1.0093z" fill="#dedee2" stroke="#d0d0d7" stroke-width=".383"/><path d="m-39.59 54.844s0.32229 0.05607 0.4484 0.25234c-0.1121 0.18224-1.163 0.64485-0.4484-0.25234z" fill="#ebe6b1"/><path d="m-37.6 55.783c-0.57451-0.53271-2.6009-0.97134-2.7324-1.4159-0.04846-0.16377 0.39235-1.2897 0.95285-0.43458 0.82674-0.64485 0.45218 0.61918 0.71464 0.89719 0.32707 0.34644 1.065 0.95326 1.065 0.95326z" fill="#efeff1" stroke="#d0d0d7" stroke-width=".383"/></g><path d="m-13.86 1.2208c-0.72502-0.20641-1.0116 0.1789-1.3567 0.24107 0.3455 0.19651 0.75696 0.49497 1.132 0.58789 0.74212 0.18386 1.3624-0.16875 1.4561 0.063623 0.06741-0.073298 0.06139-0.18535-0.09372-0.23238 0.08888-0.098297 0.16856-0.3837-0.07588-0.41044 0.14007 0.44261-0.53618-0.10009-1.0619-0.24977z" fill="#b8a9d7" stroke="#9680c4" stroke-width=".1906"/><path d="m-15.686 10.971s-0.27627-2.6946-1.5934-1.2337c1.1133-1.0941 1.3842 1.1697 1.5934 1.2337z" fill="#29281c" stroke-width=".19051"/><path d="m-18.621 9.594c0.80255-0.50151 1.3066-0.10891 1.7526-0.14459-0.34319 0.3632-0.72612 0.87726-1.1468 1.1192-0.83244 0.47864-1.7307 0.23801-1.7522 0.56315-0.11161-0.07041-0.14908-0.21421 0.02147-0.32513-0.14782-0.09493-0.35924-0.4297-0.07153-0.54456 6e-3 0.60655 0.61454-0.30438 1.1964-0.66804z" fill="#b8a9d7" stroke="#9680c4" stroke-width=".1906"/><path d="m-15.82 7.5015s0.8301-2.5949 1.8195-0.92632c-0.8655-1.2723-1.601 0.90081-1.8195 0.92632z" fill="#29281c" stroke-width=".19051"/><path d="m-12.813 6.6311c-0.62096-0.5761-1.1443-0.3083-1.5352-0.41223 0.23751 0.3787 0.482 0.89807 0.81148 1.1814 0.65192 0.56058 1.4981 0.49181 1.456 0.78459 0.11277-0.044593 0.17328-0.16648 0.04214-0.29278 0.14968-0.060558 0.40125-0.32422 0.1664-0.47297-0.11968 0.53873-0.4905-0.37026-0.94073-0.788z" fill="#b8a9d7" stroke="#9680c4" stroke-width=".1906"/><path d="m-15.818 12.757s0.27605-2.6945 1.5933-1.2336c-1.1134-1.0942-1.3841 1.1696-1.5933 1.2336z" fill="#29281c" stroke-width=".19051"/><path d="m-12.806 11.39c-0.83643-0.52385-1.3617-0.11384-1.8266-0.15114 0.3577 0.37936 0.75681 0.91628 1.1953 1.169 0.86758 0.49996 1.8037 0.24871 1.8261 0.58829 0.11631-0.07353 0.15535-0.22371-0.02241-0.33958 0.15405-0.09914 0.37436-0.44876 0.0745-0.56874-0.0063 0.63348-0.64047-0.31794-1.2469-0.69779z" fill="#b8a9d7" stroke="#9680c4" stroke-width=".1906"/><path d="m-15.821 7.6653s0.16494-2.7024-1.3746-1.4422c1.2784-0.92605 1.1782 1.3497 1.3746 1.4422z" fill="#29281c" stroke-width=".19051"/><g transform="matrix(.50834 .099781 -.11023 .46571 6.6205 -14.244)" stroke-width="1.934"><path d="m-38.847 53.933s1.8356-2.0327 2.4662-1.8364c2.4242-2.7196 1.7235-0.36448 0.81273 0.6028 0.05605 0.91121-1.9758 2.986-2.0598 3.028-0.65859 0.1542-1.7376-0.61682-1.2191-1.7944z" fill="#b8a9d7" stroke="#9680c4" stroke-width=".38275"/><path d="m-39.892 54.721c-0.13237 0.65136-1.3559 0.53248-1.2225 1.1249 0.16044 0.71238 1.1329 0.42835 1.1329 0.42835s-0.01401 0.42056 0.21019 0.51868c1.0089-0.5327 2.0458-0.11214 2.1719-1.0093z" fill="#dedee2" stroke="#d0d0d7" stroke-width=".38275"/><path d="m-39.59 54.844s0.32229 0.05607 0.4484 0.25234c-0.1121 0.18224-1.163 0.64485-0.4484-0.25234z" fill="#ebe6b1"/><path d="m-37.6 55.783c-0.57451-0.53271-2.6009-0.97134-2.7324-1.4159-0.04846-0.16377 0.39235-1.2897 0.95285-0.43458 0.82674-0.64485 0.45218 0.61918 0.71464 0.89719 0.32707 0.34644 1.065 0.95326 1.065 0.95326z" fill="#efeff1" stroke="#d0d0d7" stroke-width=".38275"/></g><g transform="matrix(-.46259 .034874 .038732 .44116 -75.217 -47.107)" stroke-width="2.1238"><path d="m-119.38 138.8s0.27115-3.4582 1.3002-3.6017c0.34079-2.7391 1.4271-1.6962 0.92105 0.12419 1.0297 0.73868 0.36737 3.0962 0.38294 4.1644z" fill="#b8a9d7" stroke="#9680c4" stroke-width=".42032"/><path d="m-119.6 139.86c-0.40541 0.39513-0.28957 2.0645-0.0579 1.9855 0.19304 0.0297 0.6081-0.99769 0.59845-1.1162-0.27992 1.8867 1.361 0.93841 1.0811 0.0198 0.49227 0.52353 0.31852 1.1656 0.50192 1.1952 0.53089 0.0495 0.93628-1.5311 0.74324-2.4498l-1.6312-0.25683z" fill="#dedee2" stroke="#d0d0d7" stroke-width=".42032"/><path d="m-119.08 139.53s0.64189 5e-3 0.92181-0.0148c0.13025 1.3879-0.89284 2.3362-0.92181 0.0148z" fill="#ebe6b1"/><path d="m-118.75 138.84c0.87363-0.48895 2.0203 0.65657 2.0203 0.65657-0.041 0.39116-1.2558 0.12571-1.8428 0.0559 0 0-1.3104 0.62864-1.6517 0.37719-0.38221-0.67056 1.0511-1.4668 1.4743-1.0896z" fill="#efeff1" stroke="#d0d0d7" stroke-width=".42032"/></g><g transform="matrix(.45056 .10325 -.11453 .42968 52.448 -33.695)" stroke-width="2.1238"><path d="m-119.38 138.8s0.27115-3.4582 1.3002-3.6017c0.34079-2.7391 1.4271-1.6962 0.92105 0.12419 1.0297 0.73868 0.36737 3.0962 0.38294 4.1644z" fill="#b8a9d7" stroke="#9680c4" stroke-width=".42032"/><path d="m-119.6 139.86c-0.40541 0.39513-0.28957 2.0645-0.0579 1.9855 0.19304 0.0297 0.6081-0.99769 0.59845-1.1162-0.27992 1.8867 1.361 0.93841 1.0811 0.0198 0.49227 0.52353 0.31852 1.1656 0.50192 1.1952 0.53089 0.0495 0.93628-1.5311 0.74324-2.4498l-1.6312-0.25683z" fill="#dedee2" stroke="#d0d0d7" stroke-width=".42032"/><path d="m-119.08 139.53s0.64189 5e-3 0.92181-0.0148c0.13025 1.3879-0.89284 2.3362-0.92181 0.0148z" fill="#ebe6b1"/><path d="m-118.75 138.84c0.87363-0.48895 2.0203 0.65657 2.0203 0.65657-0.041 0.39116-1.2558 0.12571-1.8428 0.0559 0 0-1.3104 0.62864-1.6517 0.37719-0.38221-0.67056 1.0511-1.4668 1.4743-1.0896z" fill="#efeff1" stroke="#d0d0d7" stroke-width=".42032"/></g><g transform="matrix(.35158 .026947 -.02941 .34056 29.283 -39.377)" stroke-width="2.7727"><path d="m-119.38 138.8s0.27115-3.4582 1.3002-3.6017c0.34079-2.7391 1.4271-1.6962 0.92105 0.12419 1.0297 0.73868 0.36737 3.0962 0.38294 4.1644z" fill="#b8a9d7" stroke="#9680c4" stroke-width=".54874"/><path d="m-119.6 139.86c-0.40541 0.39513-0.28957 2.0645-0.0579 1.9855 0.19304 0.0297 0.6081-0.99769 0.59845-1.1162-0.27992 1.8867 1.361 0.93841 1.0811 0.0198 0.49227 0.52353 0.31852 1.1656 0.50192 1.1952 0.53089 0.0495 0.93628-1.5311 0.74324-2.4498l-1.6312-0.25683z" fill="#dedee2" stroke="#d0d0d7" stroke-width=".54874"/><path d="m-119.08 139.53s0.64189 5e-3 0.92181-0.0148c0.13025 1.3879-0.89284 2.3362-0.92181 0.0148z" fill="#ebe6b1"/><path d="m-118.75 138.84c0.87363-0.48895 2.0203 0.65657 2.0203 0.65657-0.041 0.39116-1.2558 0.12571-1.8428 0.0559 0 0-1.3104 0.62864-1.6517 0.37719-0.38221-0.67056 1.0511-1.4668 1.4743-1.0896z" fill="#efeff1" stroke="#d0d0d7" stroke-width=".54874"/></g><g transform="matrix(.50731 -.11613 .12531 .46981 6.402 -16.893)" stroke="#31581e" stroke-width=".379"><path d="m-70.223 88.75c-3.8745 1.1541-5.2835-3.1851-7.1649-4.4825-4.7625-3.2843-4.1484-4.7043-6.4692-7.5146 1.1693 1.1459 14.336 3.6015 13.634 11.997z" fill="#417427"/><path d="m-70.223 88.75c-1.2395-3.5079-12.558-10.547-13.213-11.67" fill="none"/></g><g transform="matrix(-.42421 -.1782 -.19312 .39409 -28.717 -36.154)" stroke="#31581e" stroke-width=".4245"><path d="m-85.301 127.84c-3.6897 0.18459-3.708 3.1652-0.0058 4.2633 1.7582 0.52149 3.5038 1.7239 4.4505 3.0298 3.3027-5.8648-1.868-13.606-4.4448-7.2931z" fill="#417427"/><path d="m-85.301 127.84c2.2406 0.46988 4.8086 4.8788 4.4448 7.2931" fill="none"/></g><g transform="matrix(.42191 0 0 .44942 9.0141 -20.478)" stroke="#31581e" stroke-width=".4377"><path transform="translate(1.1667e-6)" d="m-60.611 104.75s2.6843-3.3394 6.6807-4.1763c1.3257-0.2776 3.8012 1.1482 10.087 1.2296-0.8195-2.1206-3.2391-4.7933-6.8617-5.2932-1.3775-0.19007-8.8449 2.8612-9.9061 8.2398z" fill="#417427"/><path d="m-60.303 103.66c3.9756-8.9335 16.156-2.1911 16.46-1.8637" fill="none"/></g><g transform="matrix(-.45957 .0069948 .0075355 .42509 -48.94 -18.806)" stroke="#31581e" stroke-width=".43116"><path d="m-70.223 88.75c-3.8745 1.1541-5.2835-3.1851-7.1649-4.4825-4.7625-3.2843-4.1484-4.7043-6.4692-7.5146 1.1693 1.1459 14.336 3.6015 13.634 11.997z" fill="#417427"/><path d="m-70.223 88.75c-1.2395-3.5079-12.558-10.547-13.213-11.67" fill="none"/></g><g transform="matrix(-.53776 .14896 .16063 .49789 -79.148 -13.636)" fill="#417427" stroke="#31581e" stroke-width=".35291"><path d="m-92.261 90.697c3.638 0.39688 3.638-2.249 3.638-2.249 2.1828 1.5544 1.7198 3.4396 4.6633 7.9044-1.9844-2.3482-8.3344-2.9104-8.3013-5.6555z"/><path d="m-89.913 90.333c0 0.59531 5.2255 4.7625 5.5562 5.424"/></g></g><g transform="matrix(-1 0 0 1.0792 -42.951 9.592)"><g transform="matrix(.50731 -.11613 .12531 .46981 -22.391 -27.008)" stroke="#31581e" stroke-width=".379"><path d="m-70.223 88.75c-3.8745 1.1541-5.2835-3.1851-7.1649-4.4825-4.7625-3.2843-4.1484-4.7043-6.4692-7.5146 1.1693 1.1459 14.336 3.6015 13.634 11.997z" fill="#417427"/><path d="m-70.223 88.75c-1.2395-3.5079-12.558-10.547-13.213-11.67" fill="none"/></g><g transform="matrix(-.41428 .0063038 .0067929 .3831 -75.317 -25.887)" stroke="#31581e" stroke-width=".47836"><path d="m-70.223 88.75c-3.8745 1.1541-5.2835-3.1851-7.1649-4.4825-4.7625-3.2843-4.1484-4.7043-6.4692-7.5146 1.1693 1.1459 14.336 3.6015 13.634 11.997z" fill="#417427"/><path d="m-70.223 88.75c-1.2395-3.5079-12.558-10.547-13.213-11.67" fill="none"/></g><g transform="matrix(-.28133 .14607 .19328 .36725 -102.72 2.0176)" stroke="#31581e" stroke-width=".5255"><path d="m-132.01 99.891c-1.4883-0.42995-5.2917-4.2333-11.146-3.3404-6.2177-3.0096-8.5659 0.76068-13.626 2.0174 6.6146 2.7781 17.396-0.13229 24.772 1.3229z" fill="#417427"/><path d="m-132.01 99.891c-10.319-4.9279-20.77-0.8599-24.772-1.3229" fill="none"/></g><g transform="matrix(.40164 .16867 -.17922 .36642 -2.7676 -16.515)" stroke="#31581e" stroke-width=".45252"><path transform="translate(1.1667e-6)" d="m-60.611 104.75s2.6843-3.3394 6.6807-4.1763c1.3257-0.2776 3.8012 1.1482 10.087 1.2296-0.8195-2.1206-3.2391-4.7933-6.8617-5.2932-1.3775-0.19007-8.8449 2.8612-9.9061 8.2398z" fill="#417427"/><path d="m-60.303 103.66c3.9756-8.9335 16.156-2.1911 16.46-1.8637" fill="none"/></g><g transform="matrix(-.26736 -.17235 -.25583 .36273 -62.503 -47.304)" stroke="#31581e" stroke-width=".50745"><path d="m-132.01 99.891c-1.4883-0.42995-5.2917-4.2333-11.146-3.3404-6.2177-3.0096-8.5659 0.76068-13.626 2.0174 6.6146 2.7781 17.396-0.13229 24.772 1.3229z" fill="#417427"/><path d="m-132.01 99.891c-10.319-4.9279-20.77-0.8599-24.772-1.3229" fill="none"/></g><path d="m-46.159-8.7673c0.02428 2.2157 1.1174 29.874-1.3479 32.322 2.9444 0.81245 1.852-31.331 1.3479-32.322z" fill="#29281c"/><g transform="matrix(-.50121 .16616 .1805 .46485 -102.1 -25.308)" stroke="#31581e" stroke-width=".37166"><path d="m-68.581 96.054c4.7294-3.175-0.39688 4.2664-3.3073 3.9026-2.0174 0.19843-1.4883 5.3909-1.9844 5.6885-2.3151-0.19844-5.8208-10.749 5.2917-9.5911z" fill="#417427"/><path d="m-68.581 96.054c-6.7138 3.6711-6.5815 6.35-5.2917 9.5911" fill="none"/></g><path d="m-46.116-9.646s0.58914-3.1813-1.2326-1.9141c1.4943-0.90952 1.0391 1.7753 1.2326 1.9141z" fill="#29281c" stroke-width=".19051"/><path d="m-46.107-9.0082s-0.58914-3.1813 1.2326-1.9141c-1.4943-0.90952-1.0391 1.7753-1.2326 1.9141z" fill="#29281c" stroke-width=".19051"/><g transform="matrix(.43795 .16069 -.15781 .44562 -23.507 -28.864)" stroke-width="2.0499"><path d="m-38.847 53.933s1.8356-2.0327 2.4662-1.8364c2.4242-2.7196 1.7235-0.36448 0.81273 0.6028 0.05605 0.91121-1.9758 2.986-2.0598 3.028-0.65859 0.1542-1.7376-0.61682-1.2191-1.7944z" fill="#b8a9d7" stroke="#9680c4" stroke-width=".40568"/><path d="m-39.892 54.721c-0.13237 0.65136-1.3559 0.53248-1.2225 1.1249 0.16044 0.71238 1.1329 0.42835 1.1329 0.42835s-0.01401 0.42056 0.21019 0.51868c1.0089-0.5327 2.0458-0.11214 2.1719-1.0093z" fill="#dedee2" stroke="#d0d0d7" stroke-width=".40568"/><path d="m-39.59 54.844s0.32229 0.05607 0.4484 0.25234c-0.1121 0.18224-1.163 0.64485-0.4484-0.25234z" fill="#ebe6b1"/><path d="m-37.6 55.783c-0.57451-0.53271-2.6009-0.97134-2.7324-1.4159-0.04846-0.16377 0.39235-1.2897 0.95285-0.43458 0.82674-0.64485 0.45218 0.61918 0.71464 0.89719 0.32707 0.34644 1.065 0.95326 1.065 0.95326z" fill="#efeff1" stroke="#d0d0d7" stroke-width=".40568"/></g><g transform="matrix(-.38813 .14176 .13986 .39311 -66.107 -26.229)" stroke-width="2.3183"><path d="m-38.847 53.933s1.8356-2.0327 2.4662-1.8364c2.4242-2.7196 1.7235-0.36448 0.81273 0.6028 0.05605 0.91121-1.9758 2.986-2.0598 3.028-0.65859 0.1542-1.7376-0.61682-1.2191-1.7944z" fill="#b8a9d7" stroke="#9680c4" stroke-width=".45881"/><path d="m-39.892 54.721c-0.13237 0.65136-1.3559 0.53248-1.2225 1.1249 0.16044 0.71238 1.1329 0.42835 1.1329 0.42835s-0.01401 0.42056 0.21019 0.51868c1.0089-0.5327 2.0458-0.11214 2.1719-1.0093z" fill="#dedee2" stroke="#d0d0d7" stroke-width=".45881"/><path d="m-39.59 54.844s0.32229 0.05607 0.4484 0.25234c-0.1121 0.18224-1.163 0.64485-0.4484-0.25234z" fill="#ebe6b1"/><path d="m-37.6 55.783c-0.57451-0.53271-2.6009-0.97134-2.7324-1.4159-0.04846-0.16377 0.39235-1.2897 0.95285-0.43458 0.82674-0.64485 0.45218 0.61918 0.71464 0.89719 0.32707 0.34644 1.065 0.95326 1.065 0.95326z" fill="#efeff1" stroke="#d0d0d7" stroke-width=".45881"/></g><path d="m-45.993-6.293s0.04692-3.2394 1.582-1.6126c-1.2846-1.2072-1.3653 1.5178-1.582 1.6126z" fill="#29281c" stroke-width=".19051"/><g transform="matrix(-.44828 .064116 .064395 .45933 -63.825 -29.384)" stroke-width="2.1004"><path d="m-38.847 53.933s1.8356-2.0327 2.4662-1.8364c2.4242-2.7196 1.7235-0.36448 0.81273 0.6028 0.05605 0.91121-1.9758 2.986-2.0598 3.028-0.65859 0.1542-1.7376-0.61682-1.2191-1.7944z" fill="#b8a9d7" stroke="#9680c4" stroke-width=".41568"/><path d="m-39.892 54.721c-0.13237 0.65136-1.3559 0.53248-1.2225 1.1249 0.16044 0.71238 1.1329 0.42835 1.1329 0.42835s-0.01401 0.42056 0.21019 0.51868c1.0089-0.5327 2.0458-0.11214 2.1719-1.0093z" fill="#dedee2" stroke="#d0d0d7" stroke-width=".41568"/><path d="m-39.59 54.844s0.32229 0.05607 0.4484 0.25234c-0.1121 0.18224-1.163 0.64485-0.4484-0.25234z" fill="#ebe6b1"/><path d="m-37.6 55.783c-0.57451-0.53271-2.6009-0.97134-2.7324-1.4159-0.04846-0.16377 0.39235-1.2897 0.95285-0.43458 0.82674-0.64485 0.45218 0.61918 0.71464 0.89719 0.32707 0.34644 1.065 0.95326 1.065 0.95326z" fill="#efeff1" stroke="#d0d0d7" stroke-width=".41568"/></g><path d="m-45.839-0.81294s-0.35091-3.2191 1.3712-1.8093c-1.4222-1.0269-1.1679 1.6865-1.3712 1.8093z" fill="#29281c" stroke-width=".19051"/><g transform="matrix(-.53495 .15075 .14765 .54916 -71.164 -25.578)" stroke-width="1.7123"><path d="m-38.847 53.933s1.8356-2.0327 2.4662-1.8364c2.4242-2.7196 1.7235-0.36448 0.81273 0.6028 0.05605 0.91121-1.9758 2.986-2.0598 3.028-0.65859 0.1542-1.7376-0.61682-1.2191-1.7944z" fill="#b8a9d7" stroke="#9680c4" stroke-width=".33888"/><path d="m-39.892 54.721c-0.13237 0.65136-1.3559 0.53248-1.2225 1.1249 0.16044 0.71238 1.1329 0.42835 1.1329 0.42835s-0.01401 0.42056 0.21019 0.51868c1.0089-0.5327 2.0458-0.11214 2.1719-1.0093z" fill="#dedee2" stroke="#d0d0d7" stroke-width=".33888"/><path d="m-39.59 54.844s0.32229 0.05607 0.4484 0.25234c-0.1121 0.18224-1.163 0.64485-0.4484-0.25234z" fill="#ebe6b1"/><path d="m-37.6 55.783c-0.57451-0.53271-2.6009-0.97134-2.7324-1.4159-0.04846-0.16377 0.39235-1.2897 0.95285-0.43458 0.82674-0.64485 0.45218 0.61918 0.71464 0.89719 0.32707 0.34644 1.065 0.95326 1.065 0.95326z" fill="#efeff1" stroke="#d0d0d7" stroke-width=".33888"/></g><path d="m-45.833 0.2441s-0.29472-3.2252-1.7004-1.4766c1.1881-1.3096 1.4771 1.4 1.7004 1.4766z" fill="#29281c" stroke-width=".19051"/><path d="m-48.965-1.4036c0.85651-0.60032 1.3944-0.13041 1.8704-0.17314-0.36627 0.43474-0.77495 1.0501-1.224 1.3396-0.88841 0.57294-1.847 0.28496-1.87 0.67413-0.11911-0.08427-0.15909-0.25639 0.02293-0.38917-0.15775-0.11362-0.38337-0.51431-0.07631-0.6518 0.0064 0.726 0.65585-0.36435 1.2769-0.79965z" fill="#b8a9d7" stroke="#9680c4" stroke-width=".1906"/><path d="m-45.974-4.3587s-0.70161-3.1565-1.873-1.2303c1.0115-1.4613 1.642 1.1849 1.873 1.2303z" fill="#29281c" stroke-width=".19051"/><path d="m-49.115-5.6027c0.70199-0.64608 1.2406-0.2906 1.6643-0.38821-0.27964 0.4363-0.57663 1.0402-0.94753 1.3563-0.73388 0.62545-1.6304 0.48581-1.6061 0.83845-0.11699-0.06093-0.17286-0.21066-0.02428-0.35264-0.15517-0.08251-0.4046-0.4146-0.14396-0.57636 0.08957 0.65175 0.54854-0.40904 1.0575-0.87752z" fill="#b8a9d7" stroke="#9680c4" stroke-width=".1906"/><path d="m-45.973 2.3825s0.29472-3.2252 1.7004-1.4766c-1.1881-1.3096-1.4771 1.4-1.7004 1.4766z" fill="#29281c" stroke-width=".19051"/><path d="m-42.759 0.74611c-0.89262-0.62698-1.4532-0.1362-1.9493-0.18083 0.38172 0.45405 0.80763 1.0967 1.2756 1.3991 0.92586 0.59839 1.9249 0.29762 1.9488 0.70407 0.12413-0.08802 0.1658-0.26777-0.0239-0.40645 0.1644-0.11867 0.39953-0.53715 0.07953-0.68075-0.0067 0.75824-0.6835-0.38053-1.3307-0.83516z" fill="#b8a9d7" stroke="#9680c4" stroke-width=".1906"/><path d="m-45.983-4.1629s0.01449-3.2397 1.5657-1.6297c-1.2966-1.1932-1.35 1.5324-1.5657 1.6297z" fill="#29281c" stroke-width=".19051"/><g transform="matrix(-.54851 .08468 .084645 .56387 -68.347 -31.863)" stroke-width="1.7112"><path d="m-38.847 53.933s1.8356-2.0327 2.4662-1.8364c2.4242-2.7196 1.7235-0.36448 0.81273 0.6028 0.05605 0.91121-1.9758 2.986-2.0598 3.028-0.65859 0.1542-1.7376-0.61682-1.2191-1.7944z" fill="#b8a9d7" stroke="#9680c4" stroke-width=".33865"/><path d="m-39.892 54.721c-0.13237 0.65136-1.3559 0.53248-1.2225 1.1249 0.16044 0.71238 1.1329 0.42835 1.1329 0.42835s-0.01401 0.42056 0.21019 0.51868c1.0089-0.5327 2.0458-0.11214 2.1719-1.0093z" fill="#dedee2" stroke="#d0d0d7" stroke-width=".33865"/><path d="m-39.59 54.844s0.32229 0.05607 0.4484 0.25234c-0.1121 0.18224-1.163 0.64485-0.4484-0.25234z" fill="#ebe6b1"/><path d="m-37.6 55.783c-0.57451-0.53271-2.6009-0.97134-2.7324-1.4159-0.04846-0.16377 0.39235-1.2897 0.95285-0.43458 0.82674-0.64485 0.45218 0.61918 0.71464 0.89719 0.32707 0.34644 1.065 0.95326 1.065 0.95326z" fill="#efeff1" stroke="#d0d0d7" stroke-width=".33865"/></g><g transform="matrix(-.49368 .041762 .041316 .52804 -109.36 -69.269)" stroke-width="1.8792"><path d="m-119.38 138.8s0.27115-3.4582 1.3002-3.6017c0.34079-2.7391 1.4271-1.6962 0.92105 0.12419 1.0297 0.73868 0.36737 3.0962 0.38294 4.1644z" fill="#b8a9d7" stroke="#9680c4" stroke-width=".3719"/><path d="m-119.6 139.86c-0.40541 0.39513-0.28957 2.0645-0.0579 1.9855 0.19304 0.0297 0.6081-0.99769 0.59845-1.1162-0.27992 1.8867 1.361 0.93841 1.0811 0.0198 0.49227 0.52353 0.31852 1.1656 0.50192 1.1952 0.53089 0.0495 0.93628-1.5311 0.74324-2.4498l-1.6312-0.25683z" fill="#dedee2" stroke="#d0d0d7" stroke-width=".3719"/><path d="m-119.08 139.53s0.64189 5e-3 0.92181-0.0148c0.13025 1.3879-0.89284 2.3362-0.92181 0.0148z" fill="#ebe6b1"/><path d="m-118.75 138.84c0.87363-0.48895 2.0203 0.65657 2.0203 0.65657-0.041 0.39116-1.2558 0.12571-1.8428 0.0559 0 0-1.3104 0.62864-1.6517 0.37719-0.38221-0.67056 1.0511-1.4668 1.4743-1.0896z" fill="#efeff1" stroke="#d0d0d7" stroke-width=".3719"/></g><g transform="matrix(.3417 .16434 -.1642 .37159 15.916 -39.507)" stroke-width="2.4533"><path d="m-119.38 138.8s0.27115-3.4582 1.3002-3.6017c0.34079-2.7391 1.4271-1.6962 0.92105 0.12419 1.0297 0.73868 0.36737 3.0962 0.38294 4.1644z" fill="#b8a9d7" stroke="#9680c4" stroke-width=".48552"/><path d="m-119.6 139.86c-0.40541 0.39513-0.28957 2.0645-0.0579 1.9855 0.19304 0.0297 0.6081-0.99769 0.59845-1.1162-0.27992 1.8867 1.361 0.93841 1.0811 0.0198 0.49227 0.52353 0.31852 1.1656 0.50192 1.1952 0.53089 0.0495 0.93628-1.5311 0.74324-2.4498l-1.6312-0.25683z" fill="#dedee2" stroke="#d0d0d7" stroke-width=".48552"/><path d="m-119.08 139.53s0.64189 5e-3 0.92181-0.0148c0.13025 1.3879-0.89284 2.3362-0.92181 0.0148z" fill="#ebe6b1"/><path d="m-118.75 138.84c0.87363-0.48895 2.0203 0.65657 2.0203 0.65657-0.041 0.39116-1.2558 0.12571-1.8428 0.0559 0 0-1.3104 0.62864-1.6517 0.37719-0.38221-0.67056 1.0511-1.4668 1.4743-1.0896z" fill="#efeff1" stroke="#d0d0d7" stroke-width=".48552"/></g><g transform="matrix(.42191 0 0 .44942 -20.341 -31.237)" stroke="#31581e" stroke-width=".4377"><path transform="translate(1.1667e-6)" d="m-60.611 104.75s2.6843-3.3394 6.6807-4.1763c1.3257-0.2776 3.8012 1.1482 10.087 1.2296-0.8195-2.1206-3.2391-4.7933-6.8617-5.2932-1.3775-0.19007-8.8449 2.8612-9.9061 8.2398z" fill="#417427"/><path d="m-60.303 103.66c3.9756-8.9335 16.156-2.1911 16.46-1.8637" fill="none"/></g><g transform="matrix(.3682 .070368 -.075688 .34067 -13.281 -17.665)" stroke="#31581e" stroke-width=".52708"><path d="m-70.223 88.75c-5.8162 0.12583-10.374-7.7421-13.634-11.997 1.1693 1.1459 14.336 3.6015 13.634 11.997z" fill="#417427"/><path d="m-70.223 88.75c-1.2395-3.5079-12.558-10.547-13.213-11.67" fill="none"/></g><g transform="matrix(-.49542 -.14609 -.1562 .46241 -67.873 -28.301)" stroke="#31581e" stroke-width=".37975"><path d="m-70.223 88.75c-5.8162 0.12583-10.374-7.7421-13.634-11.997 1.1693 1.1459 14.336 3.6015 13.634 11.997z" fill="#417427"/><path d="m-70.223 88.75c-1.2395-3.5079-12.558-10.547-13.213-11.67" fill="none"/></g><g transform="matrix(.48084 .12357 -.12225 .51431 26.882 -53.221)" stroke-width="1.8792"><path d="m-119.38 138.8s0.27115-3.4582 1.3002-3.6017c0.34079-2.7391 1.4271-1.6962 0.92105 0.12419 1.0297 0.73868 0.36737 3.0962 0.38294 4.1644z" fill="#b8a9d7" stroke="#9680c4" stroke-width=".3719"/><path d="m-119.6 139.86c-0.40541 0.39513-0.28957 2.0645-0.0579 1.9855 0.19304 0.0297 0.6081-0.99769 0.59845-1.1162-0.27992 1.8867 1.361 0.93841 1.0811 0.0198 0.49227 0.52353 0.31852 1.1656 0.50192 1.1952 0.53089 0.0495 0.93628-1.5311 0.74324-2.4498l-1.6312-0.25683z" fill="#dedee2" stroke="#d0d0d7" stroke-width=".3719"/><path d="m-119.08 139.53s0.64189 5e-3 0.92181-0.0148c0.13025 1.3879-0.89284 2.3362-0.92181 0.0148z" fill="#ebe6b1"/><path d="m-118.75 138.84c0.87363-0.48895 2.0203 0.65657 2.0203 0.65657-0.041 0.39116-1.2558 0.12571-1.8428 0.0559 0 0-1.3104 0.62864-1.6517 0.37719-0.38221-0.67056 1.0511-1.4668 1.4743-1.0896z" fill="#efeff1" stroke="#d0d0d7" stroke-width=".3719"/></g></g></g><metadata><rdf:RDF><cc:Work rdf:about=""><dc:creator><cc:Agent><dc:title>Erica Schroeder</dc:title></cc:Agent></dc:creator><dc:rights><cc:Agent><dc:title> 2026 Erica Schroeder. All rights reserved.</dc:title></cc:Agent></dc:rights><dc:date>1/16/2026</dc:date></cc:Work></rdf:RDF></metadata></svg>
