<?xml version="1.0" encoding="UTF-8"?>
<!-- Created with Inkscape (http://www.inkscape.org/) -->
<svg width="2.5518in" height="3.1541in" version="1.1" viewBox="0 0 64.815 80.114" xml:space="preserve" xmlns="http://www.w3.org/2000/svg" xmlns:cc="http://creativecommons.org/ns#" xmlns:dc="http://purl.org/dc/elements/1.1/" xmlns:rdf="http://www.w3.org/1999/02/22-rdf-syntax-ns#"><metadata><rdf:RDF><cc:Work rdf:about=""><dc:creator><cc:Agent><dc:title>Erica Schroeder</dc:title></cc:Agent></dc:creator><dc:rights><cc:Agent><dc:title>© 2026 Erica Schroeder. All rights reserved.</dc:title></cc:Agent></dc:rights><dc:date>1/16/2026</dc:date></cc:Work></rdf:RDF></metadata><g transform="translate(8.21 5.1612)"><g fill="#537d73" stroke="#537d73" stroke-linecap="round" stroke-linejoin="round" stroke-miterlimit="5"><path d="m34.031 74.63c0.88162-1.193 2.1975-4.7132 3.421-9.2624 1.271-4.7259 2.3116-10.03 3.1111-15.673 1.5516-10.954 1.9488-21.317 1.9488-21.317 0.95553-7.8847 0.93249-13.417 0.93249-13.417-0.30771 2.1919-0.61382 4.4263-0.91463 6.6182-0.10001 1.0659 0.19899-2.1206 0.09898-1.0547 0 0-0.12358 1.015-0.33338 2.7631-0.67074 4.2795-1.3292 8.4187-2.0634 12.698 1.1885-10.841 1.9877-21.682 3.3118-32.523 0 0-1.5138 10.583-3.6727 28.815 0.37229-6.323 0.65355-12.646 1.0123-18.969 0 0-0.5692 6.2166-1.3181 14.691-0.80077-3.3498-0.55019-2.4881-0.55227-8.0728-0.67305 5.9308-0.99502 7.7725-1.1949 8.3873-0.19506 0.60001-0.2542-0.07114-0.39572 0.76034 0.27584-6.2415 0.05803-2.7488 0.24397-8.0811 0.32704-3.3367 0.52779-5.3883 0.52779-5.3883-0.16036 1.299-0.3191 2.6036-0.47621 3.9026 0.29023-8.3362 0.56377-14.223 0.56377-14.223-0.43825 6.1235-0.75612 12.382-1.0792 18.505 0.32517-1.4976-1.5542 7.1436-1.229 5.646 0.24792-3.7954 0.57913-9.2827 0.82705-13.078-0.77916 5.5617-1.5242 11.123-2.3151 16.685 1.2095-16.251 1.8888-25.633 1.8888-25.633-0.72784 7.7856-1.2919 15.571-1.9386 23.357 0.12546-5.0353 0.23811-11.358 0.36356-16.393 0 0-0.53729 10.17-2.2053 14.666 0.78546-18.076 1.4664-25.979 1.4664-25.979-0.95261 9.361-1.7812 20.622-2.5748 29.983 0.05948-1.7337 0.11479-3.4655 0.16804-5.1992 0.51005-8.8003 0.62715-9.1368 0.62715-9.1368-0.15782 2.0538-0.45765 6.029-0.61547 8.0827 0.01602-0.53 0.11838-3.9994 0.1344-4.5294 0 0-0.22054 3.9886-0.54024 9.7596 0.35782-6.7991 0.58878-11.993 0.94659-18.792-0.46391 5.0983-1.2229 14.193-1.6868 19.291 0.34245-8.8804 0.58931-17.761 1.0029-26.641 0 0-0.77812 10.287-1.6072 27.165-0.0848-1.9458-0.17558-3.9018-0.26863-5.8476 0.26127-7.0895 0.41757-12.083 0.41757-12.083-0.14157 2.4745-0.27919 4.9809-0.41456 7.4554-8.56e-4 3.9289 0.0055-11.064 0.0046-7.135 0.10945 6.2213-0.20687 11.554-1.3604 17.61 0.03209-1.4012 0.06221-2.8017 0.09115-4.2028 0.49998-8.1007 1.0176-17.063 1.6318-25.163 0 0-0.79709 9.1706-1.6126 20.914 0.36377-18.774-0.21702 11.236 0.14675-7.5386 0 0-0.2493 5.7338-0.56263 13.567-0.16067 2.3355-0.28715 0.4586-0.29038 0.34094 0.17147-13.7-0.01793-19.513-0.01793-19.513-0.15599 5.8865-0.27847 11.773-0.41968 17.659-0.19964-6.2801-0.56326-15.66-0.62483-17.272 0.03119-1.4082 0.04881-2.1999 0.04881-2.1999-7.83e-4 0.017824-0.0697 1.6074-0.07048 1.6252-0.03148-0.82253-0.04946-1.2749-0.04946-1.2749 3.37e-4 0.02379 0.02611 1.7844 0.02645 1.8082-0.12029 2.8228-0.23454 5.6759-0.34565 8.4987 6.6e-5 -0.0081 1.33e-4 -0.0162 1.99e-4 -0.0243 0 0-4.18e-4 0.0235-0.0016 0.0693-0.0398 1.0122-0.16158 4.1368-0.20138 5.149-0.01099-0.6684-0.07574-4.4956-0.08673-5.164 0 0-0.03286 3.659-0.06668 9.0563 0.01115-0.13212-0.23115 2.7342-0.22 2.6021 0.05714-19.425-0.25932-32.94-0.25932-32.94-0.32887 10.835-0.50375 22.626-0.72546 33.461-0.0068-0.08807-0.27263-3.4627-0.27947-3.5508-2.73e-4 -0.01055-0.02622-1.0064-0.02649-1.017-0.03654-6.3832-0.08975-10.796-0.08975-10.796-0.0065 0.48685-0.05891 4.5268-0.06542 5.0136-0.07531-0.9573-0.62627-7.8966-0.70157-8.8539 0.05799 12.74 0.24873 13.894-0.79475 18.308 0.10864-11.71 0.18001-24.017 0.37742-35.727-0.53145 11.393-1.0447 26.528-1.4503 37.92-3.2e-4 -0.01907 0.0282 1.6994 0.02788 1.6803 0.10419-14.322 0.063048-27.116 0.063048-27.116-0.11848 5.8695-0.23351 12.258-0.34001 18.127-0.062588-1.9758-0.77862-23.875-0.84121-25.851 0 0 0.27046 17.832 0.65504 35.996-0.0034-0.04808-0.20046-2.7892-0.20388-2.8373-0.36637-6.9605-0.88352-16.32-1.2788-23.28-0.0083-0.72425 0.24732 22.3 0.23905 21.575-0.28456-4.2796-0.61102-9.0891-0.90618-13.369-0.07521-6.6764-0.15802-13.793-0.25007-20.47 0 0-0.04471 6.5082-0.07933 15.726 9e-3 0.12883-0.31454-4.45-0.30551-4.3212 0 0 0.11261 2.2711 0.29938 5.9645-0.02023 5.8566-0.03428 12.785-0.01708 19.647-0.60962-11.477-1.2155-21.001-1.2155-21.001 5.93e-4 12.607-0.0025 6.9205-0.0019 19.528 0.10345 1.3618-0.90209-11.83-0.79864-10.468-0.39342-9.3782-0.74467-16.259-0.74467-16.259 0.30606 10.022 0.54514 20.044 0.82867 30.066-0.65096-10.152-1.3357-20.283-1.9289-28.067-0.58872-7.7251-1.0822-12.928-1.0822-12.928 0.86661 11.302 1.7026 26.353 2.3716 37.655h-0.15835c-0.48998-4.6407-1.1701-11.091-1.6696-15.732-0.14343-1.9339-0.23041-3.0541-0.23041-3.0541 7.44e-4 0.01398 0.06095 1.1498 0.06169 1.1638-0.15984-1.7867-0.32288-3.5871-0.48812-5.3738-0.0864-1.5134-0.13855-2.3673-0.13855-2.3673 5.43e-4 0.014102 0.05579 1.468 0.05633 1.4821 7.36e-4 0.00788-0.10102-1.076-0.10028-1.0682 0 0 0.04432 0.61344 0.12416 1.7213 0.22318 6.1652 0.55729 17.063 0.78047 23.228h-0.03237c-0.58202-6.898-1.1415-13.796-1.7403-20.694 0 0 0.41543 6.8916 1.2761 20.694h-0.168c-1.1224-14.849-2.0939-23.128-2.0939-23.128 0.32174 6.207 0.80057 16.921 1.1223 23.128-0.0073-0.02659-0.54679-1.987-0.5541-2.0136-0.66748-10.431-1.3742-22.898-2.2471-33.329 0 0 0.59433 10.227 1.2221 23.193-0.40162-3.9777-0.82347-8.1228-1.2531-12.101 0 0 0.67374 8.2104 1.585 18.811 0.11924 2.3366 0.24519 4.7005 0.38062 7.0864-1.245-11.442-2.3139-20.934-2.3139-20.934 0.63285 5.8555 1.4111 13.43 2.044 19.286h-0.01903c-1.0984-7.2926-2.743-18.528-3.9082-25.82-0.041552-0.3898-0.064353-0.59583-0.064353-0.59583 7.08e-5 8.217e-4 0.030835 0.35885 0.030905 0.35967 2.02e-5 1.451e-4 -0.020554-0.14743-0.020533-0.14728 0 0 0.00985 0.085799 0.029419 0.25063 0.84525 9.8478 1.5155 19.696 2.3396 29.543-1.4164-11.722-2.013-17.126-3.0279-25.006-0.80063-6.2168-1.3689-9.9192-1.3689-9.9192 1.6508 12.248 2.8813 24.497 4.3854 36.745-1.3492-7.8401-2.1717-12.931-3.4737-20.771-0.23899-1.9267-0.38205-3.0422-0.38205-3.0422 0.00191 0.01854 0.11734 1.1426 0.11925 1.1612-0.33928-2.4224-0.68765-4.8744-1.0442-7.2967 0 0 0.76752 6.3096 1.8235 14.997 0.79185 7.8612 1.2825 18.339 2.4562 27.906 1.1836 9.6484 3.021 18.144 5.2344 22.445 2.2071 0.03189 5.8944 0.02915 9.5069 0.02266 3.6001-0.0065 7.5042-0.0172 9.8054-0.0012 1e-6 -2e-6 1e-6 -3e-6 1e-6 -5e-6zm-26.279-65.984c0.44553 3.7747 1.6738 11.492 3.3415 25.252 0.01245 0.99787 0.02602 1.9957 0.04099 2.9936-0.68467-4.6317-1.2624-8.6458-1.9289-13.277-0.72225-7.8154-1.1131-11.737-1.4536-14.969zm18.857 4.3656c0.19806 6.5238 0.41995 13.048 0.59963 19.571 0 0-0.74435-13.032-0.5996-19.571h-2.9e-5zm-12.803 0.40411c0.26509 3.7156 0.48015 6.7897 0.74524 10.505-0.08253-2.5518 0.40847 12.431 0.32594 9.8787-0.50238-11.014-0.71486-13.881-1.0712-20.384zm5.3127 9.7493c0.24888 4.8228 0.0074 10.635 0.0074 10.635-9.34e-4 -1.0401-0.0065-9.5947-0.0074-10.635zm17.869 4.6374c-0.32786 1.7528-0.65461 3.487-0.98924 5.2399 0.46356-4.1577 0.63118-1.7368 0.98924-5.2399z" stroke-width=".19844"/><g transform="matrix(.99125 -.11572 .13203 .8688 6.697 -6.634)" stroke-width=".21196"><path d="m-14.038 37.229s0.9931 13.453 3.335 27.173c1.1709 6.8593 2.6187 13.733 4.0307 18.982 1.4089 5.2375 2.7141 8.8085 4.0722 9.0709-2.2489-2.3312-5.6872-16.743-7.9792-29.636-2.3435-13.182-3.4586-25.59-3.4586-25.59z"/><path d="m-21.17 54.479s2.8601 9.532 6.6886 19.216c1.8671 4.7227 3.9986 9.7063 5.766 13.204 1.8124 3.5874 3.3667 5.9532 4.7451 5.945-2.4272-1.3315-6.8449-11.207-10.559-20.3-3.794-9.2887-6.6405-18.065-6.6405-18.065z"/><path d="m-20.432 41.296s2.4307 12.631 6.2408 25.527c1.8719 6.3356 4.0577 12.932 5.8945 17.69 1.868 4.8386 3.4315 8.0743 4.8118 8.1716-1.3344-1.1231-3.0043-4.962-4.8799-9.9714-1.867-4.9865-4.0166-11.394-5.8705-17.488-3.7562-12.347-6.1967-23.929-6.1967-23.929z"/><path d="m-10.605 35.14s0.3957 13.913 2.0657 28.1c0.83882 7.1262 1.9473 14.198 3.1257 19.688 1.1702 5.4518 2.3242 9.1991 3.6603 9.5449-2.1683-2.5657-4.9282-17.488-6.5919-30.856-1.6974-13.639-2.2598-26.477-2.2598-26.477z"/><path d="m-16.45 43.692s1.71 11.967 4.6485 24.154c1.4536 6.0285 3.1727 12.212 4.7224 16.764 1.5647 4.5961 2.9592 7.6868 4.3257 7.8151-2.2975-1.886-6.1364-14.57-8.9946-26.005-2.9249-11.701-4.702-22.729-4.702-22.729z"/><path d="m-12.869 30.873s0.67322 14.968 2.758 30.208c1.049 7.6685 2.3929 15.238 3.7577 21.131 1.3524 5.839 2.6186 9.8311 3.9698 10.147-1.1999-1.3527-2.5066-5.9864-3.8298-11.985-1.3508-6.1231-2.6668-13.499-3.7268-20.92-2.0981-14.689-2.9288-28.581-2.9288-28.581z"/></g><g transform="matrix(1.0836 -.06159 .057944 .99832 15.227 -18.34)" stroke-width=".19047"><path d="m-13.997 37.199s0.85461 13.461 2.9992 27.1c1.0864 6.9087 2.4474 13.601 3.8855 18.922 1.4143 5.2329 2.761 8.8257 4.1077 9.1204-2.3401-2.4818-5.7356-16.707-7.8532-29.619-2.1501-13.11-3.1393-25.522-3.1393-25.522z"/><path d="m-21.04 54.471s2.5122 9.4738 6.1885 19.071c1.8165 4.7422 3.8926 9.5969 5.708 13.15 1.8337 3.589 3.42 5.9815 4.7863 6.0053-2.4398-1.3956-6.9679-11.285-10.527-20.299-3.6361-9.2084-6.1558-17.928-6.1558-17.928z"/><path d="m-20.119 41.313s2.1002 12.624 5.6514 25.399c1.7783 6.3973 3.8469 12.76 5.734 17.614 1.8793 4.8339 3.4866 8.0953 4.8552 8.2247-1.3277-1.1472-3.0529-5.0221-4.9255-10.016-1.9054-5.0809-3.923-11.253-5.6829-17.412-3.4971-12.238-5.6322-23.809-5.6322-23.809z"/><path d="m-10.687 35.096s0.32819 13.92 1.8348 28.047c1.5074 14.134 4.0375 28.48 6.6857 29.237-2.2554-2.7296-4.9589-17.442-6.4785-30.855-1.5392-13.586-2.0421-26.429-2.0421-26.429z"/><path d="m-16.34 43.671s1.4675 11.957 4.2172 24.056c1.3796 6.0708 3.0215 12.086 4.6065 16.709 1.5756 4.5951 3.0054 7.7108 4.3596 7.8714-2.3528-1.9903-6.212-14.598-8.8958-25.999-2.7356-11.622-4.2874-22.637-4.2874-22.637z"/><path d="m-12.892 30.838s0.19271 3.7455 0.58164 9.3848c0.39674 5.7525 0.97932 13.063 1.9328 20.766 0.95673 7.7295 2.1983 15.095 3.5827 21.067 1.3519 5.8321 2.6635 9.845 4.0036 10.193-2.3082-2.6575-5.526-18.441-7.4006-32.882-0.96128-7.4058-1.5954-14.362-2.0366-19.752-0.43408-5.3018-0.66348-8.7773-0.66348-8.7773z"/></g><g transform="matrix(-.99262 -.12123 -.12123 .99262 43.161 -17.893)" stroke-width=".19844"><path d="m-13.99 37.23s0.20791 3.3662 0.73419 8.4419c0.54255 5.2326 1.3849 11.72 2.8415 18.752 2.8485 13.752 7.8081 27.813 10.71 28.371-2.9462-2.6565-7.8411-16.783-10.618-29.957-1.4192-6.733-2.2875-12.881-2.8626-17.756-0.56001-4.7473-0.80551-7.8515-0.80551-7.8515z"/><path d="m-20.107 57.24s2.5926 8.8375 6.8031 17.895c4.184 9 9.314 18.03 12.215 18.041-2.8835-1.453-8.2768-10.678-12.328-19.199-4.1143-8.6532-6.69-16.737-6.69-16.737z"/><path d="m-19.449 49.164s2.1843 10.675 6.3354 21.65c4.1329 10.926 9.5899 21.981 12.514 22.206-2.9875-2.226-8.6815-13.566-12.635-23.812-4.0193-10.415-6.2135-20.044-6.2135-20.044z"/><path d="m-10.484 35.148s0.09173 3.4815 0.39868 8.7317c0.3142 5.3741 0.84669 12.157 1.9363 19.395 1.098 7.294 2.6307 14.137 4.4273 19.841 1.739 5.5208 3.4715 9.3418 4.9016 9.7043-1.3918-1.4168-3.1934-5.8723-4.8745-11.553-1.7489-5.9098-3.2069-12.594-4.2895-19.618-1.0683-6.9309-1.6466-13.369-2.0082-18.375-0.35482-4.9133-0.49166-8.1256-0.49166-8.1256z"/><path d="m-16.53 43.677s1.4949 11.958 5.0465 24.192c3.5453 12.212 8.7273 24.608 11.616 24.894-2.8578-2.0929-8.1681-14.699-11.604-26.324-3.4704-11.741-5.0583-22.762-5.0583-22.762z"/><path d="m-12.786 30.878s0.17144 3.7466 0.5788 9.3887c0.41648 5.7685 1.0708 13.069 2.3444 20.833 1.2881 7.8521 3.0473 15.154 5.0745 21.283 1.9552 5.9115 3.8489 9.9831 5.2976 10.316-1.4248-1.3848-3.4083-6.1035-5.3022-12.17-1.9783-6.3367-3.652-13.476-4.9191-21.058-1.2452-7.4517-1.9461-14.414-2.4075-19.811-0.45357-5.3049-0.66654-8.7817-0.66654-8.7817z"/></g><g transform="matrix(-1.0854 -.0073191 -.0079441 .99997 31.57 -18.066)" stroke-width=".19047"><path d="m-13.786 37.174s0.23269 3.3653 0.73509 8.4312c0.51004 5.1429 1.2851 11.761 2.5804 18.649 1.315 6.9927 3.0239 13.486 5.0155 18.899 1.9251 5.2326 3.845 8.842 5.3112 9.1632-1.4817-1.3394-3.4705-5.5385-5.34-10.936-1.9429-5.6089-3.5795-11.973-4.8741-18.702-1.27-6.6008-2.0813-12.874-2.6247-17.665-0.53754-4.7381-0.80328-7.841-0.80328-7.841z"/><path d="m-21.088 54.452s2.5042 9.4565 6.7698 19.017c4.2497 9.5244 9.8237 19.078 12.773 19.178-3.0037-1.5444-8.7117-11.248-12.843-20.318-4.1778-9.1726-6.7-17.877-6.7-17.877z"/><path d="m-20.046 41.295s0.50165 3.1619 1.4791 7.9095c1.0079 4.8956 2.4294 10.945 4.486 17.454 4.0212 12.725 10.067 25.538 13.032 25.85-3.2025-2.3966-9.1797-15.27-13.082-27.436-3.9104-12.19-5.9148-23.777-5.9148-23.777z"/><path d="m-10.433 35.073s0.11841 3.4787 0.41978 8.7211c0.3034 5.2777 0.79669 12.216 1.7586 19.311 0.9843 7.2606 2.3642 13.974 4.1072 19.625 1.6812 5.4505 3.4528 9.237 4.8937 9.6426-1.4223-1.4517-3.2314-5.8409-4.8479-11.461-1.6818-5.8474-2.9975-12.436-3.975-19.421-0.95155-6.8006-1.4984-13.385-1.8482-18.301-0.34906-4.9059-0.50825-8.1154-0.50825-8.1154z"/><path d="m-16.177 43.646s1.3783 11.968 4.606 24.029c1.6471 6.1547 3.6514 11.968 5.7783 16.688 2.0719 4.5969 4.0241 7.7318 5.4835 7.9189-3.0548-2.2611-8.0578-14.432-11.224-26.022-3.165-11.587-4.6442-22.613-4.6442-22.613z"/><path d="m-12.691 30.816s0.21635 3.7439 0.63248 9.3813c0.41666 5.6446 1.0453 13.165 2.1685 20.754 1.1575 7.8198 2.7301 14.977 4.6866 21.045 1.8798 5.8308 3.8124 9.8594 5.2748 10.234-1.4586-1.4192-3.4446-6.0605-5.2563-12.057-1.8929-6.2657-3.3938-13.297-4.5408-20.841-1.108-7.2879-1.7922-14.465-2.2516-19.741-0.46145-5.3001-0.71374-8.774-0.71374-8.774z"/></g></g></g><g transform="translate(8.21 5.1612)"><g fill="#76ad9f" stroke="#537d73" stroke-linecap="round" stroke-linejoin="round" stroke-miterlimit="5"><g stroke-width=".19844"><path d="m-2.2939 52.353c2.8987-1.0349 6.3163 0.48312 9.2452 3.6667 2.966 3.2239 5.3572 8.0235 6.6705 13.754-0.15167-3.5414-2.1502-8.8394-5.144-12.8-2.9806-3.943-6.9582-6.5494-10.772-4.6206z"/><path d="m55.672 53.133s-5.6231 3.1997-10.651 7.3724c-5.1626 4.2849-9.4375 9.3017-9.7699 13.44 1.4778-4.4734 5.856-9.425 10.784-13.667 4.7731-4.1082 9.6363-7.1452 9.6363-7.1452z"/><path d="m53.583 57.251c-2.716-1.9533-6.2825-1.2551-9.482 1.3755-3.2543 2.6756-6.0725 7.2246-7.9724 13.198 0.56085-3.939 3.1161-9.0229 6.5342-12.444 3.3706-3.3739 7.6474-5.1145 10.92-2.1296z"/></g><g stroke-width=".19844"><path d="m55.205 60.355s-4.7394 1.2201-9.0958 3.14c-4.469 1.9696-8.4316 4.5661-9.3291 7.5215 1.7545-2.8847 5.7935-5.4614 10.08-7.461 4.1739-1.9473 8.3452-3.2005 8.3452-3.2005z"/><path d="m47.047 66.011s-2.9488 0.88334-5.7886 2.3302c-2.8998 1.4774-5.5861 3.4604-6.2722 5.7922 1.241-2.2525 3.9676-4.2253 6.7407-5.7289 2.7136-1.4713 5.3202-2.3935 5.3202-2.3935z"/><path d="m-2.8712 61.884s4.5043 1.2197 8.6321 3.14c4.2356 1.9704 7.9712 4.5652 8.7576 7.5215-1.6031-2.8847-5.4121-5.4614-9.4707-7.461-3.953-1.9475-7.919-3.2005-7.919-3.2005z"/><path d="m6.5744 7.9772s0.60752 4.0124 1.4541 10.069c0.83552 5.9781 1.9525 14.24 3.1281 22.344 2.3742 16.366 5.3186 33.052 5.1028 34.33-5.4607-29.978-5.6669-36.766-9.6849-66.744z"/><path d="m5.4391 10.262s0.63967 3.8772 1.5543 9.73c0.94119 6.0227 2.0887 13.515 3.4176 21.593 2.6022 15.817 5.7467 31.945 5.5435 33.19-5.6975-28.624-6.2962-35.889-10.515-64.513z"/><path d="m3.7077 16.072s0.56144 3.5448 1.4381 8.8902c0.90425 5.5137 2.0542 12.327 3.4812 19.704 2.7893 14.419 6.3792 29.08 7.0606 30.051-5.9639-25.619-7.356-33.026-11.98-58.645z"/><path d="m4.6192 13.641s0.58924 3.6626 1.454 9.1915c0.89648 5.7317 1.9847 12.725 3.2828 20.398 2.5278 14.943 5.6641 30.18 5.4554 31.361-5.1948-24.536-6.6883-36.415-10.192-60.951z"/><path d="m0.86976 8.3729s0.66527 4.0066 1.6437 10.048c0.98865 6.1046 2.2748 14.061 3.8272 22.272 3.0814 16.299 7.3355 32.875 8.0729 33.984-7.4975-30.349-7.932-35.956-13.544-66.305z"/><path d="m27.453-2.3567s-0.761 18.443-1.3417 37.236-1.1522 37.935-0.77665 39.333c0.91466-25.523 1.3196-51.046 2.1184-76.569z"/><path d="m26.057-4.4793s-0.4912 19.05-0.80817 38.456c-0.31699 19.407-0.61035 39.174-0.21851 40.608 0.58125-26.355 0.64005-52.71 1.0267-79.064z"/><path d="m29.765 4.2839s-0.69477 16.865-1.5685 34.032c-0.87396 17.171-2.1072 34.651-2.6117 35.888 1.4691-23.307 2.6962-46.613 4.1802-69.92z"/><path d="m33.237 0.20883s-0.47109 4.45-1.1077 11.164c-0.63663 6.7146-1.4399 15.694-2.3186 24.754-0.9172 9.4571-1.8034 17.801-2.6543 25.234-0.80543 7.0346-1.4139 11.964-1.6903 12.604 0.43647-4.5174 7.2272-69.239 7.7709-73.756z"/><path d="m34.965-1.488s-0.58309 4.5882-1.3566 11.511c-1.0286 9.2046-1.7579 16.316-2.7864 25.521-1.1019 9.82-2.1377 18.282-3.1445 26.013-0.9443 7.2511-1.6423 12.331-1.9286 12.988 0.53406-4.813 8.5386-71.219 9.2162-76.032z"/><path d="m28.647 6.6988s-0.63817 16.318-1.2001 32.946-1.2568 33.566-0.89231 34.806c1.2673-25.544 1.398-42.208 2.0924-67.752z"/><path d="m37.862 7.5053s-0.41167 4.0372-0.99708 10.128c-0.57373 5.9696-1.3622 14.359-2.2546 22.456-1.8117 16.437-4.4126 33.163-5.0224 34.319 4.9393-33.021 4.344-33.882 8.2741-66.904z"/><path d="m39.569 5.3038s-0.49069 4.1642-1.1718 10.447c-0.65599 6.0505-1.5842 14.917-2.5853 23.161-2.0587 16.952-5.0023 34.202-5.6384 35.392 5.981-36.305 4.5273-32.695 9.3955-69z"/><path d="m34.71 13.171s-1.2723 14.762-2.629 29.812c-1.3567 15.05-3.05 30.388-2.7525 31.539 2.8324-23.905 3.5826-37.446 5.3816-61.351z"/><path d="m33.479 9.4796s-1.365 15.627-2.73 31.559-2.9538 32.166-2.6497 33.382c3.0011-28.889 3.1385-36.052 5.3796-64.941z"/><path d="m32.176 7.5327s-1.147 16.155-2.2637 32.621-2.4668 33.245-2.1485 34.492c2.518-28.65 2.6446-38.464 4.4122-67.114z"/><path d="m35.568 15.215s-1.2351 14.293-2.8555 28.829c-1.621 14.542-3.7647 29.338-4.336 30.355 2.686-19.728 4.9693-39.456 7.1915-59.184z"/><path d="m10.74 0.6265s0.54577 4.4453 1.2424 11.156c0.69669 6.7106 1.5433 15.687 2.4395 24.75 1.7923 18.126 4.0392 36.597 3.7792 37.98-3.1742-24.628-4.8562-49.257-7.4611-73.885z"/><path d="m11.938-1.8788s0.50915 4.5952 1.1352 11.532c0.71092 7.8769 1.2866 15.275 2.1412 25.583 1.5534 18.735 3.564 37.824 3.2892 39.244-2.9048-25.453-4.1752-50.905-6.5657-76.358z"/><path d="m12.924 9.929s0.41778 3.903 1.0333 9.7914c0.62682 5.9962 1.4238 13.656 2.3529 21.708 1.8334 15.888 4.0107 32.054 4.5755 33.164-2.6154-21.554-5.2717-43.108-7.9617-64.663z"/><path d="m11.227 8s0.51152 4.0227 1.2532 10.091c0.75325 6.1632 1.7094 14.091 2.8077 22.372 2.1717 16.374 4.7133 33.032 5.3013 34.17-3.0545-22.211-6.1566-44.422-9.3622-66.634z"/></g><g stroke-width=".19844"><path d="m24.797 4.2176s-0.01866 17-0.18586 34.316c-0.1672 17.317-0.50314 34.951-0.94068 36.22 0.15529-13.11 0.88649-57.426 1.1265-70.536z"/><path d="m26.286 1.9601s-0.31576 17.549-0.76918 35.423c-0.45344 17.874-1.093 36.074-1.5503 37.376 0.25555-9.5821 1.9696-63.216 2.3195-72.798z"/><path d="m22.21 10.249s0.01493 15.541 0.19943 31.373c0.1845 15.831 0.57065 31.953 1.0134 33.113-0.01354-0.78604-1.1973-63.7-1.2128-64.486z"/><path d="m20.622 6.4381s0.03547 16.453 0.27228 33.211c0.23682 16.759 0.84695 33.825 1.3102 35.054-0.92181-29.039-0.94233-39.225-1.5824-68.265z"/><path d="m19.131 4.2533s0.32992 16.985 0.85132 34.282c0.52145 17.299 1.4403 34.912 1.9243 36.172-1.1037-23.485-1.8235-46.969-2.7756-70.454z"/><path d="m23.218 12.275s-0.0017 15.041-0.11215 30.362c-0.11042 15.322-0.23228 30.924-0.65432 32.047-0.03153-18.361 0.44776-44.048 0.76646-62.409z"/><path d="m16.832 6.941s1.6012 16.13 3.067 32.575c0.74109 8.3146 1.4419 16.432 1.9138 22.927 0.46519 6.4031 0.68479 10.908 0.51823 11.538-1.7009-22.347-3.5439-44.693-5.499-67.04z"/><path d="m14.849 12.918s1.4533 14.751 3.1412 29.754c1.6884 15.008 3.5477 30.277 4.0904 31.322-0.31539-2.9466-6.8727-58.13-7.2316-61.077z"/><path d="m16.075 15.214s1.3881 14.272 2.736 28.824c1.3479 14.552 2.6493 29.384 2.3214 30.505-1.7697-19.776-3.44-39.553-5.0574-59.329z"/></g><g transform="matrix(1.7169 0 0 1.0945 -16.431 -7.2274)" stroke-width=".14476"><path d="m24.809 4.2172s-0.04071 17-0.21577 34.316c-0.17507 17.317-0.56549 34.951-1.008 36.22 0.11828-7.7879 1.0619-62.748 1.2238-70.536z"/><path d="m26.332 1.9597s-0.11448 4.3872-0.26403 11.009c-0.1327 5.8756-0.35055 16.223-0.56133 24.414-0.45995 17.874-1.1613 36.074-1.6242 37.376 0.21932-7.2221 2.1502-65.576 2.4496-72.798z"/><path d="m22.184 10.249s0.02025 15.542 0.19099 31.373c0.17074 15.831 0.52319 31.953 0.9632 33.113-0.14857-10.455-0.94188-54.031-1.1542-64.486z"/><path d="m20.571 6.4377s0.05928 16.454 0.27703 33.211c0.21776 16.759 0.80398 33.825 1.2672 35.054-0.68485-22.755-0.9904-45.51-1.5443-68.265z"/><path d="m19.052 4.2528s0.12391 4.2459 0.28135 10.654c0.1385 5.6369 0.36673 15.75 0.59495 23.628 0.50111 17.299 1.4027 34.912 1.8879 36.172-1.0262-22.427-1.738-48.027-2.7642-70.454z"/><path d="m23.202 12.275s-0.0022 15.041-0.12646 30.362c-0.12422 15.322-0.28528 30.924-0.71124 32.047 0.0054-17.323 0.52863-45.086 0.8377-62.409z"/><path d="m16.73 6.9406s0.44884 4.033 1.0437 10.121c0.60076 6.1478 1.3345 14.172 2.0683 22.454 0.73321 8.2749 1.4364 16.471 1.8998 22.927 0.4596 6.4031 0.67059 10.908 0.50198 11.538-0.33005-4.4266-5.1017-62.614-5.5139-67.04z"/><path d="m14.739 12.917s0.39417 3.6872 0.97097 9.2493c0.59224 5.7109 1.3264 12.853 2.1842 20.505 0.86062 7.677 1.7384 14.9 2.5122 20.897 0.75156 5.8239 1.3133 9.9026 1.5854 10.425-0.39985-3.7734-6.7786-57.303-7.2528-61.077z"/><path d="m15.987 15.213s0.37027 3.5683 0.88704 8.9548c0.49852 5.1962 1.2028 12.783 1.8543 19.869 0.66554 7.2376 1.3412 14.66 1.7884 20.289 0.45028 5.6672 0.68462 9.6556 0.51817 10.216-1.7703-19.776-3.3807-39.553-5.048-59.329z"/></g><g stroke-width=".19844"><path d="m33.441 12.402s-0.57962 14.916-1.2737 30.115-1.9489 30.682-1.6191 31.817c2.0462-21.274 2.2788-40.658 2.8928-61.932z"/><path d="m35.778 17.791s-0.52525 13.64-1.5422 27.522c-1.0173 13.885-2.8592 28.02-3.4295 29.017 2.6456-20.35 3.6159-36.188 4.9717-56.538z"/><path d="m37.518 14.506s-0.55041 14.442-1.6355 29.135c-0.56563 7.6586-1.2429 14.457-2.0344 20.476-0.7509 5.7104-1.4697 9.7154-1.7693 10.244 3.0994-21.489 3.9797-38.365 5.4393-59.854z"/><path d="m39.094 12.644s-0.25221 3.723-0.63323 9.3413c-0.3781 5.5753-0.90009 13.175-1.5886 20.713-1.3849 15.163-3.8575 30.596-4.4819 31.68 3.7067-22.904 4.708-38.831 6.7038-61.735z"/><path d="m34.687 19.531s-0.50437 13.2-1.2116 26.646c-0.70736 13.449-1.9892 27.149-1.6538 28.156 2.018-18.534 2.4044-36.268 2.8653-54.801z"/><path d="m45.231 19.241s-0.23182 3.3647-0.72318 8.4305c-0.49861 5.1405-1.249 11.761-2.4463 18.644-1.2108 6.9607-2.7643 13.507-4.5622 18.887-1.7473 5.2283-3.5143 8.8352-4.9952 9.1589 1.4574-1.3448 3.2703-5.5327 4.9711-10.93 1.7579-5.5779 3.2585-11.991 4.461-18.69 2.348-13.082 3.2949-25.501 3.2949-25.501z"/><path d="m50.625 28.604s-2.2171 11.469-6.0607 22.992c-3.8399 11.512-9.0009 23.056-11.929 23.183 2.9414-1.8766 8.2317-13.595 11.971-24.56 3.7722-11.061 6.0186-21.615 6.0186-21.615z"/><path d="m50.722 16.644s-0.57737 3.5867-1.6024 8.9729c-1.052 5.5276-2.4941 12.438-4.4893 19.788-3.9143 14.42-9.5572 28.919-12.497 29.237 2.9993-2.3509 8.6914-17.009 12.512-30.821 1.9525-7.0587 3.4005-13.627 4.4561-18.797 1.0323-5.0562 1.6205-8.3785 1.6205-8.3785z"/><path d="m40.309 17.23s-0.11226 3.4782-0.40092 8.7203c-0.29107 5.2859-0.76055 12.206-1.614 19.307-0.86742 7.2179-2.0601 14.007-3.5485 19.613-1.4459 5.4465-2.9891 9.2305-4.4206 9.6387 1.3576-1.4548 2.9173-5.8375 4.3107-11.456 1.4403-5.8075 2.5928-12.464 3.4671-19.411 1.7075-13.569 2.2061-26.412 2.2061-26.412z"/><path d="m43.697 25.428s-0.82192 12.02-3.121 24.172c-2.2998 12.156-6.1437 24.451-9.0468 25.01 2.8727-2.4366 6.6307-14.728 8.9208-26.417 2.289-11.683 3.247-22.765 3.247-22.765z"/><path d="m42.569 13.154s-0.2067 3.7431-0.61607 9.3804c-0.41121 5.6625-1.0297 13.146-2.056 20.75-1.0491 7.774-2.4362 15.012-4.1211 21.033-1.6305 5.8262-3.3137 9.8518-4.7602 10.229 1.3891-1.4225 3.1049-6.0561 4.6813-12.051 1.6364-6.2227 2.9761-13.327 4.0276-20.83 1.0242-7.3092 1.6956-14.438 2.1488-19.738 0.45325-5.3 0.69556-8.7732 0.69556-8.7732z"/><path d="m1.0174 24.706s1.586 12.263 4.7135 24.615c3.1276 12.352 7.6734 24.794 10.605 25.151-2.9036-2.2301-7.497-14.8-10.567-26.604-3.0865-11.867-4.7513-23.162-4.7513-23.162z"/><path d="m-1.8102 32.305s2.0461 10.526 5.6249 21.112c3.5739 10.572 8.3656 21.176 11.319 21.302-2.9197-1.7356-7.8339-12.491-11.329-22.566-3.5252-10.162-5.6147-19.849-5.6147-19.849z"/><path d="m-6.1059 56.648s5.5779 2.3319 10.563 5.6301c5.1376 3.399 9.4213 7.5723 10.07 11.693-1.6778-4.2045-6.0766-8.3395-10.997-11.742-4.7642-3.2939-9.6356-5.5816-9.6356-5.5816z"/><path d="m-4.1732 65.409s4.7043 0.50121 9.0559 1.6715c4.4686 1.2017 8.5065 3.0353 9.6998 5.8231-1.9598-2.5374-6.0761-4.3614-10.376-5.6317-4.194-1.2389-8.3793-1.8628-8.3793-1.8628z"/><path d="m-1.6659 21.33s1.9347 13.17 5.5511 26.407c3.6176 13.241 8.8019 26.558 11.759 26.858-2.9504-2.1625-8.199-15.633-11.741-28.312-3.5625-12.751-5.5684-24.953-5.5684-24.953z"/><path d="m7.786 0.86528s0.56111 4.4454 1.3032 11.152c0.66143 5.9775 1.7511 16.406 2.7383 24.726 2.1475 18.098 5.2122 36.514 5.8576 37.785-3.9286-24.554-6.4445-49.109-9.8991-73.663z"/><path d="m5.9926-1.3518s0.68004 4.5828 1.5617 11.496c0.88178 6.914 1.9629 16.16 3.2044 25.487 2.4831 18.655 5.9509 37.635 6.6231 38.94-4.4302-25.308-7.2918-50.615-11.389-75.923z"/></g><g transform="matrix(1.4347 0 0 1 -12.885 0)" stroke-width=".16567"><path d="m24.837 4.2176s0.0048 16.999-0.10342 34.316c-0.10823 17.317-0.19883 34.951-0.61731 36.22-0.1-20.117 0.42239-50.419 0.72072-70.536z"/><path d="m26.317 1.9601s-0.28611 17.549-0.68196 35.423c-0.39586 17.874-0.78484 36.074-1.2218 37.376 0.17662-17.918 1.3199-54.88 1.9038-72.798z"/><path d="m22.266 10.249s0.02451 15.542 0.27114 31.373c0.24665 15.831 0.86481 31.953 1.3301 33.113-0.88047-25.765-1.0306-38.72-1.6012-64.486z"/><path d="m20.664 6.4381s0.04642 16.454 0.33857 33.211c0.15177 8.7053 0.38178 16.51 0.71468 23.351 0.31704 6.515 0.67193 11.089 0.91714 11.703-1.2303-25.309-1.3438-42.955-1.9704-68.265z"/><path d="m19.163 4.2533s0.11615 4.2459 0.27337 10.654c0.14898 6.0722 0.36447 15.315 0.64064 23.628 0.29929 9.0094 0.66664 17.017 1.1256 24.1 0.43565 6.7232 0.87268 11.442 1.1292 12.072-1.9073-29.781-1.88-40.673-3.1688-70.454z"/><path d="m23.28 12.275s0.0077 15.041-0.03938 30.362c-0.04706 15.322 0.05366 30.924-0.35547 32.047-0.35388-19.407 0.1018-43.003 0.39485-62.409z"/><path d="m16.857 6.941s0.42995 4.0329 1.0215 10.121c0.58825 6.0534 1.3531 14.267 2.116 22.454 0.74832 8.0316 1.5587 16.715 2.0799 22.927 0.53726 6.4031 0.83478 10.908 0.67602 11.538-2.0834-22.347-3.9015-44.693-5.8935-67.04z"/><path d="m14.853 12.918s0.3798 3.6866 0.95848 9.2493c0.59588 5.728 1.3453 12.836 2.2478 20.505 1.7662 15.008 3.8698 30.277 4.4377 31.322-2.5382-20.359-5.1514-40.718-7.644-61.077z"/><path d="m16.095 15.214s1.3849 14.272 2.8075 28.824c1.4226 14.552 2.9547 29.384 2.6361 30.505-2.7779-25.908-3.3068-33.421-5.4435-59.329z"/></g><g transform="matrix(-1.7181 -.046327 -.054292 .99976 74.718 1.1749)" stroke-width=".1513"><path d="m24.919 4.2224s0.03596 4.2516 0.04306 10.667c0.0076 6.9057-0.0139 14.505-0.03953 23.656-0.04852 17.321 0.04292 34.973-0.36683 36.25-0.37691-26.278 0.15198-44.323 0.36331-70.573z"/><path d="m26.384 1.9627s-0.22059 17.551-0.55912 35.429c-0.33853 17.878-0.54229 36.094-0.96982 37.405 0.01414-24.345 0.93933-48.515 1.5289-72.833z"/><path d="m22.367 10.259s0.03061 3.8867 0.07774 9.7523c0.04682 5.8279 0.11399 13.748 0.26991 21.63 0.31332 15.839 1.1093 31.984 1.5895 33.139-1.278-29.185-1.188-35.361-1.9371-64.521z"/><path d="m20.739 6.4479s0.04945 4.1156 0.10662 10.325c0.05539 6.0162 0.12647 14.707 0.29938 22.898 0.18448 8.7391 0.47116 16.495 0.8705 23.375 0.37871 6.5249 0.78547 11.107 1.0403 11.72-1.6714-28.505-1.4997-39.852-2.3168-68.318z"/><path d="m19.218 4.2626s0.13155 4.2493 0.2956 10.659c0.15761 6.158 0.3705 15.234 0.68042 23.636 0.33349 9.0411 0.76111 17.005 1.2921 24.127 0.50214 6.7339 0.99488 11.462 1.2619 12.09-2.4346-32.73-1.9937-37.824-3.5301-70.512z"/><path d="m23.395 12.285s0.01945 15.042 0.03703 30.371c0.01759 15.329 0.28313 30.957-0.12136 32.089-0.60227-21.656-0.17447-40.843 0.08433-62.459z"/><path d="m16.891 6.9529s0.43425 4.0359 1.0347 10.125c0.76874 7.7949 1.4191 14.667 2.1878 22.462 0.73913 7.495 1.7303 17.268 2.2627 22.946 0.60076 6.4072 0.94645 10.925 0.79192 11.555-2.3247-22.373-4.2598-44.729-6.2772-67.088z"/><path d="m14.829 12.932s0.37339 3.6891 0.95849 9.2518c0.60897 5.7897 1.3687 12.78 2.3372 20.517 0.96521 7.7103 1.9806 14.891 2.906 20.923 0.8948 5.8319 1.586 9.9143 1.8797 10.435-2.7716-20.379-5.599-40.76-8.0814-61.126z"/><path d="m16.098 15.229s1.3801 14.286 2.9042 28.837c0.76279 7.2824 1.5735 14.639 2.1568 20.315 0.5829 5.6723 0.93413 9.6783 0.77734 10.238-3.0143-25.384-3.7561-34.05-5.8384-59.391z"/></g><path d="m-0.2728 62.73c5.392-2.6649 12.946 1.8892 15.749 9.4993-0.28397-2.5675-2.3877-5.9545-5.433-8.2212-3.0071-2.2383-6.9846-3.3678-10.316-1.2781z" stroke-width=".19844"/></g></g><g transform="translate(8.21 5.1612)"><g fill="#b1d1c8" stroke="#76ad9f" stroke-linecap="round" stroke-linejoin="round" stroke-miterlimit="5" stroke-width=".19844"><path d="m31.853 73.465c1.431-0.70653 3.4584-2.0806 5.4273-5.8755 2.0122-3.8785 3.8995-10.089 4.2526-20.886 0.1051 2.2981 0.03564 8.5063-1.5202 14.541-1.539 5.9695-4.5546 11.534-8.1597 12.22z"/><path d="m14.97 72.915c-0.95185-1.8082-1.7169-1.8889-2.6688-3.6971-1.3685-2.6026-4.2048-9.1873-6.9786-21.025 0.16192 2.3505 1.3836 7.9898 3.3516 13.596 1.9178 5.4626 4.4098 10.565 6.2957 11.126z"/><path d="m24.923 73.142c0.92105-3.8588 1.557-10.412 2.0299-19.443 0.46781-8.9342 0.65718-20.055 1.7016-32.565-0.09408 2.7674-0.38571 15.213-0.96378 27.245-0.57807 12.032-1.8323 23.651-2.7678 24.763z"/><path d="m21.054 73.11c-0.81849-3.343-1.3993-8.5618-2.0321-15.499-0.54063-5.9268-1.403-16.63-2.4363-25.893 0.13742 2.0829 0.80486 12.294 1.6707 21.734 0.87883 9.5818 1.8987 18.818 2.7977 19.657z"/><path d="m28.34 73.123c3.033-5.6331 4.5587-11.135 5.5593-18.794 0.97932-7.4957 1.2424-16.659 2.9723-28.8-0.35211 2.5466-0.53455 13.035-1.6664 23.592-0.5778 5.3895-1.4202 10.463-2.6564 14.902-1.202 4.3164-2.6974 7.7017-4.2088 9.0995z"/><path d="m18.477 73.06c-2.235-4.2062-3.7835-9.7702-4.9159-17.523-1.1265-7.7123-1.6991-17.492-2.935-29.925 0.32767 2.5466 0.63721 12.999 1.7682 23.519 1.1334 10.543 3.297 21.087 6.0827 23.929z"/></g></g></svg>
