<svg xmlns="http://www.w3.org/2000/svg" xml:space="preserve" width="100.094" height="49.716" viewBox="0 0 26.483 13.154"><g style="display:inline;fill:#476c38;fill-opacity:1;stroke:none"><path d="M-5.145 99.605s-.738-.702-.075-1.074c11.664 5.103-1.523-7.102-5.484-2.096 0 0 3.045 7.412 8.681 7.316 1.493-.025 1.974-6.269-3.122-4.146" style="display:inline;fill:#476c38;fill-opacity:1;stroke:none;stroke-width:.198437;stroke-linecap:round;stroke-linejoin:round;stroke-miterlimit:2;stroke-dasharray:none;stroke-opacity:1" transform="rotate(-51.31 -90.892 43.772)"/></g><g style="display:inline;fill:#476c38;fill-opacity:1;stroke:none"><path d="M.627 93.233c3.048-1.126-3.706-8.516-8.203-.637 0 0 3.538 5.279 8.548 5.194 1.008-.017 1.497-3.224-.313-3.937 0 0-1.223-.18-.032-.62" style="display:inline;fill:#476c38;fill-opacity:1;stroke:none;stroke-width:.198437;stroke-linecap:round;stroke-linejoin:round;stroke-miterlimit:2;stroke-dasharray:none;stroke-opacity:1" transform="rotate(42.439 117.918 76.726)scale(-1 1)"/></g><g transform="translate(8.544 .386)"><path d="m-6.488 10.78.268.012s.119-1.668-.268-1.795z" style="fill:#414a3f;fill-opacity:1;stroke:none;stroke-width:.198437;stroke-linecap:round;stroke-linejoin:round;stroke-miterlimit:2;stroke-dasharray:none;stroke-opacity:1"/><circle cx="-6.704" cy="9.212" r=".429" style="fill:#62944d;fill-opacity:1;stroke:#36512a;stroke-width:.198437;stroke-linecap:round;stroke-linejoin:round;stroke-miterlimit:2;stroke-dasharray:none;stroke-opacity:1"/><path d="m12.435 15.631-.388-.033s1.043-5.91 1.683-6.245z" style="fill:#414a3f;fill-opacity:1;stroke:none;stroke-width:.198437;stroke-linecap:round;stroke-linejoin:round;stroke-miterlimit:2;stroke-dasharray:none;stroke-opacity:1"/><g style="display:inline;stroke-width:6.19643"><path d="M58.726 111.398s-3.305-3.145-.336-4.813c39.987 9.795-2.208-49.348-28.775-2.799 0 0 17.844 26.621 43.106 26.195 6.691-.113 8.845-28.098-13.995-18.583" style="display:inline;fill:#62944d;fill-opacity:1;stroke:#36512a;stroke-width:1.2296;stroke-linecap:round;stroke-linejoin:round;stroke-miterlimit:2;stroke-dasharray:none;stroke-opacity:1" transform="matrix(-.08636 -.13629 -.13657 .08606 33.7 7.817)"/><path d="M58.726 111.398c-2.455-2.058-17.378-2.295-28.303-7.203" style="fill:none;fill-opacity:1;stroke:#36512a;stroke-width:1.2296;stroke-linecap:round;stroke-linejoin:round;stroke-miterlimit:2;stroke-dasharray:none;stroke-opacity:1" transform="matrix(-.08636 -.13629 -.13657 .08606 33.7 7.817)"/><path d="M58.726 111.398c-3.088-2.176-5.661-14.841-23.474-9.934M58.726 111.398c-2.464-.671-3.008 7.484-17.497.634" style="fill:none;fill-opacity:1;stroke:#36512a;stroke-width:1.2296;stroke-linecap:round;stroke-linejoin:round;stroke-miterlimit:2;stroke-dasharray:none;stroke-opacity:1" transform="matrix(-.08636 -.13629 -.13657 .08606 33.7 7.817)"/><path d="M58.726 111.398c-5.067-4.274 3.843-7.757.043-16.622" style="fill:none;fill-opacity:1;stroke:#36512a;stroke-width:1.2296;stroke-linecap:round;stroke-linejoin:round;stroke-miterlimit:2;stroke-dasharray:none;stroke-opacity:1" transform="matrix(-.08636 -.13629 -.13657 .08606 33.7 7.817)"/><path d="M58.726 111.398c-6.294-6.49 9.342-6.688 8.708-13.298M58.726 111.398c-3.975.044 6.428 6.026.998 12.38" style="fill:none;fill-opacity:1;stroke:#36512a;stroke-width:1.2296;stroke-linecap:round;stroke-linejoin:round;stroke-miterlimit:2;stroke-dasharray:none;stroke-opacity:1" transform="matrix(-.08636 -.13629 -.13657 .08606 33.7 7.817)"/><path d="M58.726 111.398c-3.695.868 7.576 3.564 8.472 6.754M53.087 114.539c.504 1.231.432 5.367.992 6.486M52.074 103.41c-.392-.671.158-6.732-.122-7.908" style="fill:none;fill-opacity:1;stroke:#36512a;stroke-width:1.2296;stroke-linecap:round;stroke-linejoin:round;stroke-miterlimit:2;stroke-dasharray:none;stroke-opacity:1" transform="matrix(-.08636 -.13629 -.13657 .08606 33.7 7.817)"/></g><g style="stroke-width:9.84769"><path d="M-114.107 274.003c-26.363 6.45 8.375 27.708 31.675 27.9 7.88-.49 14.118-9.808 18.359-13.12 4.036-3.151 10.068-1.174 18.273-5.665 11.668-6.385 23.603-17.65 22.664-20.264-59.105-43.545-97.5-1.764-90.97 11.149m34.469 11.23c-4.958-.092-2.12-3.58-6.784-6.86 2.99.128 3.71-1.446 4.45-.89 1.646 1.233 3.178 2.006 2.334 7.75" style="display:inline;fill:#62944d;fill-opacity:1;stroke:#36512a;stroke-width:1.95415;stroke-linecap:round;stroke-linejoin:round;stroke-miterlimit:2;stroke-dasharray:none;stroke-opacity:1" transform="matrix(.09457 .03859 -.03828 .09342 29.765 -17.794)"/><path d="M-86.422 278.374c-11.007-3.245-5.162-10.924-27.685-4.371" style="display:inline;fill:none;fill-opacity:1;stroke:#36512a;stroke-width:1.95415;stroke-linecap:round;stroke-linejoin:round;stroke-miterlimit:2;stroke-dasharray:none;stroke-opacity:1" transform="matrix(.09457 .03859 -.03828 .09342 29.765 -17.794)"/><path d="M-79.638 285.232c8.526-27.104 34.669-24.166 34.669-24.166M-79.638 285.232c2.8 0 7.82 2.302 7.82 2.302M-79.638 285.232c-7.38.127-11.268 5.356-11.268 5.356M-79.638 285.232s-12.032-2.899-23.102-.1" style="fill:none;fill-opacity:1;stroke:#36512a;stroke-width:1.95415;stroke-linecap:round;stroke-linejoin:round;stroke-miterlimit:2;stroke-dasharray:none;stroke-opacity:1" transform="matrix(.09457 .03859 -.03828 .09342 29.765 -17.794)"/><path d="M-79.638 285.232c3.529-8.132-3.344-7.115-5.634-17.931" style="fill:none;fill-opacity:1;stroke:#36512a;stroke-width:1.95415;stroke-linecap:round;stroke-linejoin:round;stroke-miterlimit:2;stroke-dasharray:none;stroke-opacity:1" transform="matrix(.09457 .03859 -.03828 .09342 29.765 -17.794)"/><path d="M-79.638 285.232c4.708-12.98-13.431-8.515-15.595-13.605M-85.272 267.3s2.128-2.035 2.255-9.288M-85.272 267.3c-1.782.383-7.034-3.308-7.034-3.308M-68.687 268.299c-1.018-2.672.509-11.161-.382-12.688M-79.638 285.232c6.318-11.275 41.996-12.13 56.502-22.378" style="fill:none;fill-opacity:1;stroke:#36512a;stroke-width:1.95415;stroke-linecap:round;stroke-linejoin:round;stroke-miterlimit:2;stroke-dasharray:none;stroke-opacity:1" transform="matrix(.09457 .03859 -.03828 .09342 29.765 -17.794)"/></g><g style="stroke-width:76.8347" transform="rotate(169.25 4.933 7.561)scale(.01268 -.01336)"><path d="m-100.34-99.808 18.568-9.57s-60.142-111.439-91.412-104.59z" style="fill:#414a3f;fill-opacity:1;stroke:none;stroke-width:15.2468;stroke-linecap:round;stroke-linejoin:round;stroke-miterlimit:2;stroke-dasharray:none;stroke-opacity:1"/><ellipse cx="-47.771" cy="-255.727" rx="33.412" ry="32.624" style="fill:#62944d;fill-opacity:1;stroke:#36512a;stroke-width:15.2548;stroke-linecap:round;stroke-linejoin:round;stroke-miterlimit:2;stroke-dasharray:none;stroke-opacity:1" transform="matrix(.86671 -.4988 .53791 .843 0 0)"/><path d="M-290.722-156.683c-4.072-2.29 21.123-12.216 21.123-12.216-.764-35.121 50.645-46.064 50.645-46.064s29.013 32.83 21.378 49.627c0 0-29.776 42.247-67.442 9.162 0 0-24.94 4.326-25.704-.51" style="display:inline;fill:#88304b;fill-opacity:1;stroke:#5a2031;stroke-width:15.2468;stroke-linecap:round;stroke-linejoin:round;stroke-miterlimit:2;stroke-dasharray:none;stroke-opacity:1"/><path d="M-178.488-78.807c-8.908-5.599-3.182-26.85-3.182-26.85-38.86-13.057-32.06-99.634 3.549-85.841 27.995 82.966-.367 112.691-.367 112.691" style="display:inline;fill:#88304b;fill-opacity:1;stroke:#5a2031;stroke-width:15.2468;stroke-linecap:round;stroke-linejoin:round;stroke-miterlimit:2;stroke-dasharray:none;stroke-opacity:1"/><ellipse cx="-204.193" cy="-191.597" rx="24.294" ry="30.053" style="fill:#958436;fill-opacity:1;stroke:none;stroke-width:15.2468;stroke-linecap:round;stroke-linejoin:round;stroke-miterlimit:2;stroke-dasharray:none;stroke-opacity:1"/><path d="M-178.121-191.498c.209-3.6-8.892-63.3-17.99-71.225 0 0-4.699-35.758-6.124-36.03-5.525 3.47-7.056 32.747-7.056 32.747-21.946 4.804-38.544 66.75-11.3 52.553 13.677-2.52 41.03 24.294 42.47 21.955" style="display:inline;fill:#88304b;fill-opacity:1;stroke:#5a2031;stroke-width:15.2468;stroke-linecap:round;stroke-linejoin:round;stroke-miterlimit:2;stroke-dasharray:none;stroke-opacity:1"/></g><g style="stroke-width:3.00279"><path d="M-104.927 34.712c-.188-.188-.737-1.024-.61-1.447.238-.787 1.6-1.207 1.6-1.207 5.534-11.562-9.83-11.78-12.507-2.61-2.01 6.883 5.489 6.434 8.188 8.458 15.387 1.17 21.952-9.16 13.767-12.687-7.938-3.42-8.953 7.064-8.953 7.064 1.035 3.104-1.485 2.43-1.485 2.43" style="display:inline;fill:#62944d;fill-opacity:1;stroke:#36512a;stroke-width:.595865;stroke-linecap:round;stroke-linejoin:round;stroke-miterlimit:2;stroke-dasharray:none;stroke-opacity:1" transform="rotate(174.917 -13.271 1.038)scale(.33484 -.33121)"/><path d="M-104.927 34.712s-3.329 1.935-3.329 3.194M-103.193 33.624s3.35-2.916 6.724-3.59M-103.477 34.438s1.875 1.232 1.965 3.212M-105.21 32.767s-.661-4.668-1.696-5.658M-105.523 33.723s-4.667-.469-4.577.79M-112.08 30.47s3.837.186 6.58 2.694" style="fill:none;fill-opacity:1;stroke:#36512a;stroke-width:.595865;stroke-linecap:round;stroke-linejoin:round;stroke-miterlimit:2;stroke-dasharray:none;stroke-opacity:1" transform="rotate(174.917 -13.271 1.038)scale(.33484 -.33121)"/></g><g style="stroke-width:3.00279"><path d="M-104.927 34.712c-.188-.188-.737-1.024-.61-1.447.238-.787 1.6-1.207 1.6-1.207 5.534-11.562-9.83-11.78-12.507-2.61-2.01 6.883 5.489 6.434 8.188 8.458 15.387 1.17 21.952-9.16 13.767-12.687-7.938-3.42-8.953 7.064-8.953 7.064 1.035 3.104-1.485 2.43-1.485 2.43" style="display:inline;fill:#62944d;fill-opacity:1;stroke:#36512a;stroke-width:.595865;stroke-linecap:round;stroke-linejoin:round;stroke-miterlimit:2;stroke-dasharray:none;stroke-opacity:1" transform="matrix(-.33484 0 0 .33121 -29.403 -7.886)"/><path d="M-104.927 34.712s-3.329 1.935-3.329 3.194M-103.193 33.624s3.35-2.916 6.724-3.59M-103.477 34.438s1.875 1.232 1.965 3.212M-105.21 32.767s-.661-4.668-1.696-5.658M-105.523 33.723s-4.667-.469-4.577.79M-112.08 30.47s3.837.186 6.58 2.694" style="fill:none;fill-opacity:1;stroke:#36512a;stroke-width:.595865;stroke-linecap:round;stroke-linejoin:round;stroke-miterlimit:2;stroke-dasharray:none;stroke-opacity:1" transform="matrix(-.33484 0 0 .33121 -29.403 -7.886)"/></g><g style="display:inline;stroke-width:5.86568"><path d="M58.726 111.398s-3.305-3.145-.336-4.813c39.987 9.795-2.208-49.348-28.775-2.799 0 0 17.844 26.621 43.106 26.195 6.691-.113 8.845-28.098-13.995-18.583" style="display:inline;fill:#62944d;fill-opacity:1;stroke:#36512a;stroke-width:1.16397;stroke-linecap:round;stroke-linejoin:round;stroke-miterlimit:2;stroke-dasharray:none;stroke-opacity:1" transform="matrix(.09637 -.13629 .1524 .08606 -26.138 3.856)"/><path d="M58.726 111.398c-2.455-2.058-17.378-2.295-28.303-7.203" style="fill:none;fill-opacity:1;stroke:#36512a;stroke-width:1.16397;stroke-linecap:round;stroke-linejoin:round;stroke-miterlimit:2;stroke-dasharray:none;stroke-opacity:1" transform="matrix(.09637 -.13629 .1524 .08606 -26.138 3.856)"/><path d="M58.726 111.398c-3.088-2.176-5.661-14.841-23.474-9.934M58.726 111.398c-2.464-.671-3.008 7.484-17.497.634" style="fill:none;fill-opacity:1;stroke:#36512a;stroke-width:1.16397;stroke-linecap:round;stroke-linejoin:round;stroke-miterlimit:2;stroke-dasharray:none;stroke-opacity:1" transform="matrix(.09637 -.13629 .1524 .08606 -26.138 3.856)"/><path d="M58.726 111.398c-5.067-4.274 3.843-7.757.043-16.622" style="fill:none;fill-opacity:1;stroke:#36512a;stroke-width:1.16397;stroke-linecap:round;stroke-linejoin:round;stroke-miterlimit:2;stroke-dasharray:none;stroke-opacity:1" transform="matrix(.09637 -.13629 .1524 .08606 -26.138 3.856)"/><path d="M58.726 111.398c-6.294-6.49 9.342-6.688 8.708-13.298M58.726 111.398c-3.975.044 6.428 6.026.998 12.38" style="fill:none;fill-opacity:1;stroke:#36512a;stroke-width:1.16397;stroke-linecap:round;stroke-linejoin:round;stroke-miterlimit:2;stroke-dasharray:none;stroke-opacity:1" transform="matrix(.09637 -.13629 .1524 .08606 -26.138 3.856)"/><path d="M58.726 111.398c-3.695.868 7.576 3.564 8.472 6.754M53.087 114.539c.504 1.231.432 5.367.992 6.486M52.074 103.41c-.392-.671.158-6.732-.122-7.908" style="fill:none;fill-opacity:1;stroke:#36512a;stroke-width:1.16397;stroke-linecap:round;stroke-linejoin:round;stroke-miterlimit:2;stroke-dasharray:none;stroke-opacity:1" transform="matrix(.09637 -.13629 .1524 .08606 -26.138 3.856)"/></g><path d="m1.262 13.626-.387.046s-.172-5.998.387-6.456zM7.853 13.7l-.388.045s-.172-5.998.388-6.456zM3.591 16.515l-.387.046s-.172-5.999.387-6.456zM-.393 17.233l.385-.065s-1.52-5.805-2.186-6.087z" style="fill:#414a3f;fill-opacity:1;stroke:none;stroke-width:.198437;stroke-linecap:round;stroke-linejoin:round;stroke-miterlimit:2;stroke-dasharray:none;stroke-opacity:1"/><g style="display:inline;stroke-width:3.00279"><path d="M-104.927 34.712c-.188-.188-.737-1.024-.61-1.447.238-.787 1.6-1.207 1.6-1.207 5.534-11.562-9.83-11.78-12.507-2.61-2.01 6.883 5.489 6.434 8.188 8.458 15.387 1.17 21.952-9.16 13.767-12.687-7.938-3.42-8.953 7.064-8.953 7.064 1.035 3.104-1.485 2.43-1.485 2.43" style="display:inline;fill:#62944d;fill-opacity:1;stroke:#36512a;stroke-width:.595865;stroke-linecap:round;stroke-linejoin:round;stroke-miterlimit:2;stroke-dasharray:none;stroke-opacity:1" transform="matrix(.33484 0 0 .33121 36.214 -4.214)"/><path d="M-104.927 34.712s-3.329 1.935-3.329 3.194M-103.193 33.624s3.35-2.916 6.724-3.59M-103.477 34.438s1.875 1.232 1.965 3.212M-105.21 32.767s-.661-4.668-1.696-5.658M-105.523 33.723s-4.667-.469-4.577.79M-112.08 30.47s3.837.186 6.58 2.694" style="fill:none;fill-opacity:1;stroke:#36512a;stroke-width:.595865;stroke-linecap:round;stroke-linejoin:round;stroke-miterlimit:2;stroke-dasharray:none;stroke-opacity:1" transform="matrix(.33484 0 0 .33121 36.214 -4.214)"/></g><g style="stroke-width:11.2469"><path d="M-114.107 274.003c-26.363 6.45 8.375 27.708 31.675 27.9 7.88-.49 14.118-9.808 18.359-13.12 4.036-3.151 10.068-1.174 18.273-5.665 11.668-6.385 23.603-17.65 22.664-20.264-59.105-43.545-97.5-1.764-90.97 11.149m34.469 11.23c-4.958-.092-2.12-3.58-6.784-6.86 2.99.128 3.71-1.446 4.45-.89 1.646 1.233 3.178 2.006 2.334 7.75" style="display:inline;fill:#62944d;fill-opacity:1;stroke:#36512a;stroke-width:2.2318;stroke-linecap:round;stroke-linejoin:round;stroke-miterlimit:2;stroke-dasharray:none;stroke-opacity:1" transform="matrix(.06283 .06375 -.0631 .06181 30.713 -5.138)"/><path d="M-86.422 278.374c-11.007-3.245-5.162-10.924-27.685-4.371" style="display:inline;fill:none;fill-opacity:1;stroke:#36512a;stroke-width:2.2318;stroke-linecap:round;stroke-linejoin:round;stroke-miterlimit:2;stroke-dasharray:none;stroke-opacity:1" transform="matrix(.06283 .06375 -.0631 .06181 30.713 -5.138)"/><path d="M-79.638 285.232c8.526-27.104 34.669-24.166 34.669-24.166M-79.638 285.232c2.8 0 7.82 2.302 7.82 2.302M-79.638 285.232c-7.38.127-11.268 5.356-11.268 5.356M-79.638 285.232s-12.032-2.899-23.102-.1" style="fill:none;fill-opacity:1;stroke:#36512a;stroke-width:2.2318;stroke-linecap:round;stroke-linejoin:round;stroke-miterlimit:2;stroke-dasharray:none;stroke-opacity:1" transform="matrix(.06283 .06375 -.0631 .06181 30.713 -5.138)"/><path d="M-79.638 285.232c3.529-8.132-3.344-7.115-5.634-17.931" style="fill:none;fill-opacity:1;stroke:#36512a;stroke-width:2.2318;stroke-linecap:round;stroke-linejoin:round;stroke-miterlimit:2;stroke-dasharray:none;stroke-opacity:1" transform="matrix(.06283 .06375 -.0631 .06181 30.713 -5.138)"/><path d="M-79.638 285.232c4.708-12.98-13.431-8.515-15.595-13.605M-85.272 267.3s2.128-2.035 2.255-9.288M-85.272 267.3c-1.782.383-7.034-3.308-7.034-3.308M-68.687 268.299c-1.018-2.672.509-11.161-.382-12.688M-79.638 285.232c6.318-11.275 41.996-12.13 56.502-22.378" style="fill:none;fill-opacity:1;stroke:#36512a;stroke-width:2.2318;stroke-linecap:round;stroke-linejoin:round;stroke-miterlimit:2;stroke-dasharray:none;stroke-opacity:1" transform="matrix(.06283 .06375 -.0631 .06181 30.713 -5.138)"/></g><g style="stroke-width:76.8347" transform="matrix(.01085 .00657 -.00692 .01142 3.763 11.86)"><path d="M-925.662 271.755c-4.072-2.29 21.124-12.216 21.124-12.216-.764-35.121 50.645-46.065 50.645-46.065s29.013 32.83 21.378 49.628c0 0-29.777 42.246-67.442 9.162 0 0-24.941 4.326-25.705-.51" style="display:inline;fill:#88304b;fill-opacity:1;stroke:#5a2031;stroke-width:15.2468;stroke-linecap:round;stroke-linejoin:round;stroke-miterlimit:2;stroke-dasharray:none;stroke-opacity:1"/><path d="M-813.428 349.631c-8.907-5.599-3.181-26.85-3.181-26.85-38.86-13.057-32.06-99.635 3.549-85.841 27.994 82.966-.368 112.691-.368 112.691" style="display:inline;fill:#88304b;fill-opacity:1;stroke:#5a2031;stroke-width:15.2468;stroke-linecap:round;stroke-linejoin:round;stroke-miterlimit:2;stroke-dasharray:none;stroke-opacity:1"/><ellipse cx="-839.132" cy="236.841" rx="24.294" ry="30.053" style="fill:#958436;fill-opacity:1;stroke:none;stroke-width:15.2468;stroke-linecap:round;stroke-linejoin:round;stroke-miterlimit:2;stroke-dasharray:none;stroke-opacity:1"/><path d="M-813.06 236.94c.208-3.6-8.892-63.3-17.99-71.226 0 0-4.7-35.758-6.125-36.03-5.525 3.47-7.055 32.748-7.055 32.748-21.947 4.804-38.545 66.75-11.3 52.553 13.676-2.52 41.03 24.294 42.47 21.955" style="display:inline;fill:#88304b;fill-opacity:1;stroke:#5a2031;stroke-width:15.2468;stroke-linecap:round;stroke-linejoin:round;stroke-miterlimit:2;stroke-dasharray:none;stroke-opacity:1"/></g><g style="display:inline;stroke-width:6.19643"><path d="M58.726 111.398s-3.305-3.145-.336-4.813c39.987 9.795-2.208-49.348-28.775-2.799 0 0 17.844 26.621 43.106 26.195 6.691-.113 8.845-28.098-13.995-18.583" style="display:inline;fill:#62944d;fill-opacity:1;stroke:#36512a;stroke-width:1.2296;stroke-linecap:round;stroke-linejoin:round;stroke-miterlimit:2;stroke-dasharray:none;stroke-opacity:1" transform="matrix(-.12908 -.0968 -.09717 .1289 21.577 1.606)"/><path d="M58.726 111.398c-2.455-2.058-17.378-2.295-28.303-7.203" style="fill:none;fill-opacity:1;stroke:#36512a;stroke-width:1.2296;stroke-linecap:round;stroke-linejoin:round;stroke-miterlimit:2;stroke-dasharray:none;stroke-opacity:1" transform="matrix(-.12908 -.0968 -.09717 .1289 21.577 1.606)"/><path d="M58.726 111.398c-3.088-2.176-5.661-14.841-23.474-9.934M58.726 111.398c-2.464-.671-3.008 7.484-17.497.634" style="fill:none;fill-opacity:1;stroke:#36512a;stroke-width:1.2296;stroke-linecap:round;stroke-linejoin:round;stroke-miterlimit:2;stroke-dasharray:none;stroke-opacity:1" transform="matrix(-.12908 -.0968 -.09717 .1289 21.577 1.606)"/><path d="M58.726 111.398c-5.067-4.274 3.843-7.757.043-16.622" style="fill:none;fill-opacity:1;stroke:#36512a;stroke-width:1.2296;stroke-linecap:round;stroke-linejoin:round;stroke-miterlimit:2;stroke-dasharray:none;stroke-opacity:1" transform="matrix(-.12908 -.0968 -.09717 .1289 21.577 1.606)"/><path d="M58.726 111.398c-6.294-6.49 9.342-6.688 8.708-13.298M58.726 111.398c-3.975.044 6.428 6.026.998 12.38" style="fill:none;fill-opacity:1;stroke:#36512a;stroke-width:1.2296;stroke-linecap:round;stroke-linejoin:round;stroke-miterlimit:2;stroke-dasharray:none;stroke-opacity:1" transform="matrix(-.12908 -.0968 -.09717 .1289 21.577 1.606)"/><path d="M58.726 111.398c-3.695.868 7.576 3.564 8.472 6.754M53.087 114.539c.504 1.231.432 5.367.992 6.486M52.074 103.41c-.392-.671.158-6.732-.122-7.908" style="fill:none;fill-opacity:1;stroke:#36512a;stroke-width:1.2296;stroke-linecap:round;stroke-linejoin:round;stroke-miterlimit:2;stroke-dasharray:none;stroke-opacity:1" transform="matrix(-.12908 -.0968 -.09717 .1289 21.577 1.606)"/></g><g style="stroke-width:9.84769"><path d="M-114.107 274.003c-26.363 6.45 8.375 27.708 31.675 27.9 7.88-.49 14.118-9.808 18.359-13.12 4.036-3.151 10.068-1.174 18.273-5.665 11.668-6.385 23.603-17.65 22.664-20.264-59.105-43.545-97.5-1.764-90.97 11.149m34.469 11.23c-4.958-.092-2.12-3.58-6.784-6.86 2.99.128 3.71-1.446 4.45-.89 1.646 1.233 3.178 2.006 2.334 7.75" style="display:inline;fill:#62944d;fill-opacity:1;stroke:#36512a;stroke-width:1.95415;stroke-linecap:round;stroke-linejoin:round;stroke-miterlimit:2;stroke-dasharray:none;stroke-opacity:1" transform="matrix(-.09062 .04712 .0467 .0895 -22.787 -10.543)"/><path d="M-86.422 278.374c-11.007-3.245-5.162-10.924-27.685-4.371" style="display:inline;fill:none;fill-opacity:1;stroke:#36512a;stroke-width:1.95415;stroke-linecap:round;stroke-linejoin:round;stroke-miterlimit:2;stroke-dasharray:none;stroke-opacity:1" transform="matrix(-.09062 .04712 .0467 .0895 -22.787 -10.543)"/><path d="M-79.638 285.232c8.526-27.104 34.669-24.166 34.669-24.166M-79.638 285.232c2.8 0 7.82 2.302 7.82 2.302M-79.638 285.232c-7.38.127-11.268 5.356-11.268 5.356M-79.638 285.232s-12.032-2.899-23.102-.1" style="fill:none;fill-opacity:1;stroke:#36512a;stroke-width:1.95415;stroke-linecap:round;stroke-linejoin:round;stroke-miterlimit:2;stroke-dasharray:none;stroke-opacity:1" transform="matrix(-.09062 .04712 .0467 .0895 -22.787 -10.543)"/><path d="M-79.638 285.232c3.529-8.132-3.344-7.115-5.634-17.931" style="fill:none;fill-opacity:1;stroke:#36512a;stroke-width:1.95415;stroke-linecap:round;stroke-linejoin:round;stroke-miterlimit:2;stroke-dasharray:none;stroke-opacity:1" transform="matrix(-.09062 .04712 .0467 .0895 -22.787 -10.543)"/><path d="M-79.638 285.232c4.708-12.98-13.431-8.515-15.595-13.605M-85.272 267.3s2.128-2.035 2.255-9.288M-85.272 267.3c-1.782.383-7.034-3.308-7.034-3.308M-68.687 268.299c-1.018-2.672.509-11.161-.382-12.688M-79.638 285.232c6.318-11.275 41.996-12.13 56.502-22.378" style="fill:none;fill-opacity:1;stroke:#36512a;stroke-width:1.95415;stroke-linecap:round;stroke-linejoin:round;stroke-miterlimit:2;stroke-dasharray:none;stroke-opacity:1" transform="matrix(-.09062 .04712 .0467 .0895 -22.787 -10.543)"/></g></g></svg>