<svg xmlns="http://www.w3.org/2000/svg" xml:space="preserve" width="149.814" height="300.298" viewBox="0 0 39.638 79.454"><path d="M.597 38.497c.67-5.077 8.194-1.272 9.44-1.754-.467 1.564-8.345 1.392-9.307 3.293.158 1.86.327 3.898.508 6.048C2.665 41 11.182 43.46 11.695 44.957c-.74 1.786-8.636.904-10.397 1.83.19 2.256.394 4.627.613 7.042 2.261-5.965 11.41-.028 11.637 1.825-1.207 1.708-9.82-2.208-11.616-1.588l.132 1.431c.49.82.4 1.918.289 3.045l.04.401c1.96-.635 2.844.545 3.269 2.053.952-.787 2.315-1.425 4.321-1.835-.719 8.03-4.868 7.292-6.573 7.96.906.61.786 1.394.125 2.188.232 1.837.474 3.605.73 5.27 1.194-6.194 11.895-1.22 13.773-1.678-.838 1.674-11.668.993-13.58 2.902.177 1.09.359 2.126.547 3.1.46.725.718 1.732.678 3.113q.068.272.137.532c1.343-4.67 10.405-3.517 11.063-2.212-.636 1.713-8.76 1.965-10.849 2.988.701 2.42 1.473 3.91 2.324 4.046-.106.01-.51.018-.51.018-.983.06-1.869-1.906-2.664-5.143-1.919-2.055-10.005-2.592-10.514-4.43 1.158.56 6.982-1.889 9.663.325q-.158-.885-.31-1.826c-1.138-1.41-9.855-2.631-10.024-4.62.337-.443 1.616-.758 3.16-.78 1.311-2.512 3.495-6.296 5.57-4.257a369 369 0 0 1-.373-3.44C.603 61.82-.714 60.104.713 59.386c-1.48-.064-3.31-.505-2.218-5.255 1.526.03 2.481.325 3.069.795l-.087-.983c-1.5-1.878-8.519-1.382-8.946-3.159 1.052.443 6.691-3.217 8.648-.361q-.13-1.573-.25-3.091c-1.445-1.482-8.088 2.73-9.07 1.421 1.307-.165 6.792-8.713 9.03-1.93-.2-2.522-.38-4.902-.542-7.044-1.52-.394-7.897 2.993-8.956 1.633 1.411-3.6 5.737-4.747 9.206-2.916M2.872 63.61q.141 1.303.288 2.581c.15-.692.296-1.38.502-2.041-.263-.168-.529-.35-.79-.54m.227 6.155c-.62.577-1.48 1.143-2.39 1.632 1.17.366 2.213.96 2.851 1.849a218 218 0 0 1-.46-3.481" style="fill:#5c7549;fill-opacity:1;stroke:none;stroke-width:.198437;stroke-linecap:round;stroke-linejoin:round;stroke-miterlimit:2;stroke-dasharray:none;stroke-opacity:1" transform="translate(8.866 4.606)"/><path d="M7.904 25.316c1.127-4.996 8.275-.524 9.56-.891-.607 1.515-8.437.63-9.567 2.436l-.042 6.07c1.881-4.935 10.14-1.713 10.516-.175-.9 1.71-8.683.117-10.52.88-.015 2.263-.027 4.643-.028 7.068 2.792-5.736 11.365 1.006 11.424 2.872-1.358 1.592-9.58-3.088-11.424-2.634v1.437c.415.86.225 1.947.012 3.059l.004.403c2.01-.455 2.784.8 3.07 2.34 1.02-.697 2.434-1.208 4.47-1.435-1.444 7.932-5.51 6.82-7.268 7.331.847.69.657 1.46-.074 2.19.064 1.851.146 3.634.249 5.314 1.75-6.06 11.957-.136 13.868-.422-.986 1.591-11.71-.069-13.786 1.66.077 1.1.164 2.15.263 3.136.393.764.558 1.79.394 3.162q.043.277.087.542c1.762-4.528 10.682-2.56 11.219-1.2-.79 1.648-8.902 1.163-11.075 1.993.479 2.473 1.112 4.026 1.947 4.24-.107 0-.51-.029-.51-.029-.983-.03-1.687-2.067-2.186-5.363-1.725-2.22-9.73-3.489-10.07-5.365 1.103.663 7.125-1.248 9.594 1.2q-.077-.896-.143-1.847c-1.005-1.508-9.576-3.514-9.564-5.509.376-.411 1.678-.609 3.218-.491 1.533-2.383 4.051-5.954 5.933-3.734a370 370 0 0 1-.06-3.461c-1.619-1.55-2.775-3.377-1.29-3.963-1.467-.197-3.25-.803-1.731-5.434 1.516.168 2.44.55 2.983 1.07l.003-.987c-1.324-2.006-8.358-2.148-8.622-3.956 1.007.536 6.955-2.598 8.644.424l.031-3.102c-1.304-1.606-8.301 1.987-9.16.594 1.316-.046 7.553-8.061 9.167-1.104.03-2.53.066-4.916.098-7.064-1.477-.53-8.135 2.265-9.066.815 1.732-3.459 6.143-4.208 9.432-2.07m-.01 25.216q.021 1.31.052 2.597c.211-.677.42-1.348.686-1.988a16 16 0 0 1-.739-.61m-.332 6.15c-.67.519-1.577 1.004-2.529 1.409 1.132.47 2.118 1.156 2.672 2.1a218 218 0 0 1-.143-3.509" style="fill:#5c7549;fill-opacity:1;stroke:none;stroke-width:.198437;stroke-linecap:round;stroke-linejoin:round;stroke-miterlimit:2;stroke-dasharray:none;stroke-opacity:1" transform="translate(8.866 4.606)"/><g style="display:inline;stroke-width:1.07886"><g style="display:inline;stroke-width:1.45117"><path d="M124.752 110.879c.477-.332 1.093-.276 1.36.232.602 1.142 1.483 8.076-1.394 10.569l-2.241-.614c-.993-3.694 1.717-9.798 2.275-10.187" style="display:inline;fill:#f7f3f1;fill-opacity:1;stroke:#dac7be;stroke-width:.191978;stroke-linecap:round;stroke-linejoin:round;stroke-miterlimit:2" transform="matrix(-.66224 -.12625 -.1204 .69408 127.136 -53.641)"/><g style="stroke-width:.641661"><path d="M-27.526-2.91c-1.376-.629-1.987-.74-2.304-1.024.365-.444 1.139-.305 2.304 1.024" style="fill:#f7f3f1;fill-opacity:1;stroke:#dac7be;stroke-width:.0848866;stroke-linecap:round;stroke-linejoin:round;stroke-miterlimit:2;stroke-dasharray:none;stroke-opacity:1" transform="matrix(-1.24328 -.94105 -.8366 1.3203 -2.51 -3.602)"/><path d="M-25.277-1.45c-3.817-1.72-4.358-2.879-4.358-2.879.294-.894 3.499-1.765 4.358 2.88" style="display:inline;fill:#f7f3f1;fill-opacity:1;stroke:#dac7be;stroke-width:.0848866;stroke-linecap:round;stroke-linejoin:round;stroke-miterlimit:2;stroke-dasharray:none;stroke-opacity:1" transform="matrix(-1.24328 -.94105 -.8366 1.3203 -2.51 -3.602)"/><path d="M-24.985-.48c-.285-.456-.241-3.848-.584-1.863-.351-.171-.787-.703-.421.43-2.31-1.037.712.672 1.005 1.433" style="fill:#748e28;fill-opacity:1;stroke:#5a6e1f;stroke-width:.0848866;stroke-linecap:round;stroke-linejoin:round;stroke-miterlimit:2;stroke-dasharray:none;stroke-opacity:1" transform="matrix(-1.24328 -.94105 -.8366 1.3203 -2.51 -3.602)"/></g><g style="stroke-width:.706687"><path d="M-27.744-2.792c-1.376-.629-1.987-.74-2.304-1.025.365-.443 1.138-.304 2.304 1.025" style="fill:#f7f3f1;fill-opacity:1;stroke:#dac7be;stroke-width:.093489;stroke-linecap:round;stroke-linejoin:round;stroke-miterlimit:2;stroke-dasharray:none;stroke-opacity:1" transform="matrix(-1.3178 -.42024 -.39473 1.3936 -2.564 8.148)"/><path d="M-25.277-1.45c-3.817-1.72-4.358-2.879-4.358-2.879.294-.894 3.499-1.765 4.358 2.88" style="display:inline;fill:#f7f3f1;fill-opacity:1;stroke:#dac7be;stroke-width:.093489;stroke-linecap:round;stroke-linejoin:round;stroke-miterlimit:2;stroke-dasharray:none;stroke-opacity:1" transform="matrix(-1.3178 -.42024 -.39473 1.3936 -2.564 8.148)"/><path d="M-24.985-.48c-.285-.456-.241-3.848-.584-1.863-.351-.171-.787-.703-.421.43-2.31-1.037.712.672 1.005 1.433" style="fill:#748e28;fill-opacity:1;stroke:#5a6e1f;stroke-width:.093489;stroke-linecap:round;stroke-linejoin:round;stroke-miterlimit:2;stroke-dasharray:none;stroke-opacity:1" transform="matrix(-1.3178 -.42024 -.39473 1.3936 -2.564 8.148)"/></g><g style="stroke-width:.706687"><path d="M-27.744-2.792c-1.376-.629-1.987-.74-2.304-1.025.365-.443 1.138-.304 2.304 1.025" style="fill:#f7f3f1;fill-opacity:1;stroke:#dac7be;stroke-width:.093489;stroke-linecap:round;stroke-linejoin:round;stroke-miterlimit:2;stroke-dasharray:none;stroke-opacity:1" transform="matrix(1.35076 .28278 -.28071 1.42364 63.663 25.794)"/><path d="M-25.277-1.45c-3.817-1.72-4.358-2.879-4.358-2.879.294-.894 3.499-1.765 4.358 2.88" style="display:inline;fill:#f7f3f1;fill-opacity:1;stroke:#dac7be;stroke-width:.093489;stroke-linecap:round;stroke-linejoin:round;stroke-miterlimit:2;stroke-dasharray:none;stroke-opacity:1" transform="matrix(1.35076 .28278 -.28071 1.42364 63.663 25.794)"/><path d="M-24.985-.48c-.285-.456-.241-3.848-.584-1.863-.351-.171-.787-.703-.421.43-2.31-1.037.712.672 1.005 1.433" style="fill:#748e28;fill-opacity:1;stroke:#5a6e1f;stroke-width:.093489;stroke-linecap:round;stroke-linejoin:round;stroke-miterlimit:2;stroke-dasharray:none;stroke-opacity:1" transform="matrix(1.35076 .28278 -.28071 1.42364 63.663 25.794)"/></g><g style="stroke-width:.623732"><path d="M-27.45-2.892c-1.375-.63-1.987-.74-2.304-1.025.365-.443 1.14-.304 2.304 1.025" style="fill:#f7f3f1;fill-opacity:1;stroke:#dac7be;stroke-width:.0825148;stroke-linecap:round;stroke-linejoin:round;stroke-miterlimit:2;stroke-dasharray:none;stroke-opacity:1" transform="matrix(1.50954 -.3209 .12628 1.67594 68.352 13.316)"/><path d="M-25.277-1.45c-3.817-1.72-4.358-2.879-4.358-2.879.294-.894 3.499-1.765 4.358 2.88" style="display:inline;fill:#f7f3f1;fill-opacity:1;stroke:#dac7be;stroke-width:.0825148;stroke-linecap:round;stroke-linejoin:round;stroke-miterlimit:2;stroke-dasharray:none;stroke-opacity:1" transform="matrix(1.50954 -.3209 .12628 1.67594 68.352 13.316)"/><path d="M-24.985-.48c-.285-.456-.241-3.848-.584-1.863-.351-.171-.787-.703-.421.43-2.31-1.037.712.672 1.005 1.433" style="fill:#748e28;fill-opacity:1;stroke:#5a6e1f;stroke-width:.0825148;stroke-linecap:round;stroke-linejoin:round;stroke-miterlimit:2;stroke-dasharray:none;stroke-opacity:1" transform="matrix(1.50954 -.3209 .12628 1.67594 68.352 13.316)"/></g><g style="display:inline;stroke-width:1.45117"><path d="M168.07 166.014c-.72-.09-.855-2.025-2.183-2.947 1.283-1.71 5.601.18 5.601.18-2.564.652-2.474 2.812-3.419 2.767" style="fill:#f7f3f1;fill-opacity:1;stroke:#dac7be;stroke-width:.191978;stroke-linecap:round;stroke-linejoin:round;stroke-miterlimit:2" transform="matrix(-.66224 -.12625 -.1204 .69408 161.66 -71.724)"/><path d="M167.192 162.865c-.09.54-1.483 1.006-1.597.764-1.5-3.17 4.184-4.543 4.184-4.543s2.897 3.253 1.8 4.7c-.2.264-3.96-.09-4.387-.921" style="fill:#f7f3f1;fill-opacity:1;stroke:#dac7be;stroke-width:.191978;stroke-linecap:round;stroke-linejoin:round;stroke-miterlimit:2" transform="matrix(-.66224 -.12625 -.1204 .69408 161.66 -71.724)"/></g><path d="M120.379 112.76c.322-.409.865-.522 1.228-.158.817.82 3.398 6.521 1.585 9.41l-2.085.063c-1.824-2.9-1.105-8.835-.728-9.315" style="display:inline;fill:#f7f3f1;fill-opacity:1;stroke:#dac7be;stroke-width:.191978;stroke-linecap:round;stroke-linejoin:round;stroke-miterlimit:2" transform="matrix(-.66224 -.12625 -.1204 .69408 127.136 -53.641)"/><g style="display:inline;stroke-width:1.24257" transform="matrix(-.77368 -.1475 -.14057 .81034 183.69 -83.952)"><ellipse cx="225.719" cy="36.466" rx="1.867" ry=".9" style="fill:#afc04f;fill-opacity:1;stroke:#8b9a37;stroke-width:.164381;stroke-linecap:round;stroke-linejoin:round;stroke-miterlimit:2;stroke-opacity:1" transform="rotate(33.577)"/><ellipse cx="225.034" cy="-32.995" rx="1.867" ry=".9" style="display:inline;fill:#afc04f;fill-opacity:1;stroke:#8b9a37;stroke-width:.164381;stroke-linecap:round;stroke-linejoin:round;stroke-miterlimit:2;stroke-opacity:1" transform="rotate(50.85)skewX(.002)"/><ellipse cx="-57.26" cy="224.05" rx="1.867" ry=".9" style="display:inline;fill:#afc04f;fill-opacity:1;stroke:#8b9a37;stroke-width:.164381;stroke-linecap:round;stroke-linejoin:round;stroke-miterlimit:2;stroke-opacity:1" transform="rotate(146.423)scale(1 -1)"/><ellipse cx="228.623" cy="-8.347" rx="1.867" ry=".9" style="fill:#afc04f;fill-opacity:1;stroke:#8b9a37;stroke-width:.164381;stroke-linecap:round;stroke-linejoin:round;stroke-miterlimit:2;stroke-opacity:1" transform="rotate(44.438)"/><ellipse cx="156.116" cy="166.905" rx=".799" ry="1.991" style="fill:#afc04f;fill-opacity:1;stroke:#8b9a37;stroke-width:.164381;stroke-linecap:round;stroke-linejoin:round;stroke-miterlimit:2;stroke-opacity:1" transform="rotate(-4.955)"/><ellipse cx="18.116" cy="171.248" rx="1.451" ry=".709" style="display:inline;fill:#afc04f;fill-opacity:1;stroke:#8b9a37;stroke-width:.164381;stroke-linecap:round;stroke-linejoin:round;stroke-miterlimit:2;stroke-opacity:1" transform="rotate(-40.12 70.365 -46.897)"/><ellipse cx="123.114" cy="121.157" rx="1.44" ry="1.215" style="display:inline;fill:#afc04f;fill-opacity:1;stroke:#8b9a37;stroke-width:.164381;stroke-linecap:round;stroke-linejoin:round;stroke-miterlimit:2;stroke-opacity:1" transform="translate(46.778 34.307)"/></g></g></g><path d="M21.032 9.64c-.187 0-.27 1.49-.297 4.023-1.531.414-1.083 1.593-.01 2.743.002.995.008 2.08.017 3.24-1.147-5.593-8.277-.55-9.564-.956.613 1.695 8.44.668 9.578 2.686.018 2.093.043 4.383.066 6.8-1.901-5.52-10.148-1.872-10.517-.147.906 1.912 8.684.092 10.524.938.024 2.536.046 5.202.057 7.92-2.816-6.414-11.361 1.178-11.413 3.27 1.364 1.777 9.567-3.504 11.414-3.004l.004 1.611c-.41.966-.216 2.182 0 3.427v.451c-2.013-.5-2.781.91-3.061 2.637-1.023-.777-2.44-1.344-4.476-1.588 1.476 8.88 5.537 7.617 7.297 8.181-.844.776-.65 1.639.083 2.454a251 251 0 0 1-.228 5.955c-1.775-6.782-11.957-.098-13.87-.41.993 1.778 11.71-.13 13.794 1.797-.073 1.233-.156 2.41-.251 3.516-.39.857-.551 2.008-.381 3.544q-.041.311-.086.607c-1.78-5.065-10.691-2.819-11.223-1.293.796 1.843 8.906 1.262 11.083 2.182-.469 2.773-1.096 4.517-1.93 4.76.107 0 .51-.035.51-.035.983-.038 1.68-2.323 2.165-6.019 1.715-2.495 9.715-3.953 10.047-6.056-1.1.748-7.13-1.367-9.589 1.387q.075-1.003.136-2.07c.999-1.694 9.562-3.98 9.542-6.215-.378-.46-1.68-.675-3.22-.536-1.543-2.663-4.075-6.653-5.949-4.157q.032-1.916.047-3.878c1.612-1.744 2.761-3.796 1.273-4.446 1.468-.228 3.248-.914 1.71-6.097-1.515.196-2.438.627-2.979 1.213l-.007-1.106c1.316-2.253 8.35-2.445 8.607-4.472-1.006.605-6.966-2.88-8.643.514q-.02-1.768-.044-3.475c1.299-1.805 8.31 2.188 9.164.624-1.317-.046-7.586-8.998-9.172-1.196-.04-2.833-.086-5.507-.127-7.914 1.475-.601 8.144 2.501 9.07.872-.119-1.05-2.907-3.358-5.43-3.649-.207-1.848-.47-6.242-3.503-4.71a5 5 0 0 0-.25.04c-.02-2.1-.011-3.501.05-3.96a.04.04 0 0 0-.018-.004m.01 7.086c.652.63 1.458 1.228 2.188 1.66-.908.277-1.676.98-2.123 2.314-.024-1.43-.047-2.763-.066-3.974m-.187 31.172q-.018 1.47-.043 2.91c-.214-.756-.425-1.507-.693-2.223q.37-.325.736-.687m.356 6.89c.672.578 1.58 1.118 2.534 1.567-1.13.533-2.113 1.306-2.664 2.365.052-1.27.094-2.584.13-3.932" style="fill:#5c7549;fill-opacity:1;stroke:none;stroke-width:.198437;stroke-linecap:round;stroke-linejoin:round;stroke-miterlimit:2;stroke-dasharray:none;stroke-opacity:1" transform="translate(8.866 4.606)"/><g style="display:inline"><g style="display:inline;stroke-width:1.88705"><path d="M219.432 250.662c-4.409-1.44-28.975 8.458-32.934 5.264.18-3.734 25.421-17.501 32.934-5.264" style="display:inline;fill:#80a167;fill-opacity:1;stroke:#536b42;stroke-width:.37446;stroke-linecap:round;stroke-linejoin:round;stroke-miterlimit:2;stroke-dasharray:none;stroke-opacity:1" transform="matrix(-.46974 .04023 .0363 .59472 117.828 -86.963)"/><path d="M219.432 250.662c-7.648-6.478-30.37 5.714-32.934 5.264" style="display:inline;fill:none;fill-opacity:1;stroke:#536b42;stroke-width:.37446;stroke-linecap:round;stroke-linejoin:round;stroke-miterlimit:2;stroke-dasharray:none;stroke-opacity:1" transform="matrix(-.46974 .04023 .0363 .59472 117.828 -86.963)"/></g><g style="display:inline;stroke-width:1.10461"><g style="display:inline;stroke-width:2.7972"><path d="M219.532 252.663c2.926-6.744 30.812 17.182 35.693 15.143-5.217-2.355-23.605-33.976-35.693-15.143" style="fill:#80a167;fill-opacity:1;stroke:#536b42;stroke-width:.555067;stroke-linecap:round;stroke-linejoin:round;stroke-miterlimit:2;stroke-dasharray:none;stroke-opacity:1" transform="matrix(-.25413 -.22985 -.1959 .32574 129.718 -.363)"/><path d="M219.532 252.663c8.587-11.66 32.634 17.077 35.693 15.143" style="fill:none;fill-opacity:1;stroke:#536b42;stroke-width:.555067;stroke-linecap:round;stroke-linejoin:round;stroke-miterlimit:2;stroke-dasharray:none;stroke-opacity:1" transform="matrix(-.25413 -.22985 -.1959 .32574 129.718 -.363)"/></g><g style="display:inline;stroke-width:2.20912"><path d="M219.432 250.662c-4.409-1.44-28.975 8.458-32.934 5.264.18-3.734 25.421-17.501 32.934-5.264" style="display:inline;fill:#80a167;fill-opacity:1;stroke:#536b42;stroke-width:.438369;stroke-linecap:round;stroke-linejoin:round;stroke-miterlimit:2;stroke-dasharray:none;stroke-opacity:1" transform="matrix(.41055 .10659 -.11683 .46878 -36.176 -102.735)"/><path d="M219.432 250.662c-7.648-6.478-30.37 5.714-32.934 5.264" style="display:inline;fill:none;fill-opacity:1;stroke:#536b42;stroke-width:.438369;stroke-linecap:round;stroke-linejoin:round;stroke-miterlimit:2;stroke-dasharray:none;stroke-opacity:1" transform="matrix(.41055 .10659 -.11683 .46878 -36.176 -102.735)"/></g><g style="display:inline;stroke-width:1.5013"><path d="M217.814 263.924c1.081-3.054 11.198-1.34 8.08-18.327-10.308 5.202-8.271 11.71-8.08 18.327" style="fill:#80a167;fill-opacity:1;stroke:#536b42;stroke-width:.297913;stroke-linecap:round;stroke-linejoin:round;stroke-miterlimit:2;stroke-dasharray:none;stroke-opacity:1" transform="matrix(.6241 .23088 -.23092 .62548 -50.837 -151.959)"/><path d="M217.814 263.924c1.081-4.326 6.49-15.528 8.08-18.327" style="fill:none;fill-opacity:1;stroke:#536b42;stroke-width:.297913;stroke-linecap:round;stroke-linejoin:round;stroke-miterlimit:2;stroke-dasharray:none;stroke-opacity:1" transform="matrix(.6241 .23088 -.23092 .62548 -50.837 -151.959)"/></g><g style="display:inline;stroke-width:2.30781"><path d="M219.532 252.663c2.926-6.744 30.812 17.182 35.693 15.143-5.217-2.355-23.605-33.976-35.693-15.143" style="fill:#80a167;fill-opacity:1;stroke:#536b42;stroke-width:.457953;stroke-linecap:round;stroke-linejoin:round;stroke-miterlimit:2;stroke-dasharray:none;stroke-opacity:1" transform="matrix(.30744 -.27912 .23698 .39557 -102.85 8.4)"/><path d="M219.532 252.663c8.587-11.66 32.634 17.077 35.693 15.143" style="fill:none;fill-opacity:1;stroke:#536b42;stroke-width:.457953;stroke-linecap:round;stroke-linejoin:round;stroke-miterlimit:2;stroke-dasharray:none;stroke-opacity:1" transform="matrix(.30744 -.27912 .23698 .39557 -102.85 8.4)"/></g><g style="display:inline;stroke-width:2.01831"><path d="M219.432 250.662c-4.409-1.44-28.975 8.458-32.934 5.264.18-3.734 25.421-17.501 32.934-5.264" style="display:inline;fill:#80a167;fill-opacity:1;stroke:#536b42;stroke-width:.400508;stroke-linecap:round;stroke-linejoin:round;stroke-miterlimit:2;stroke-dasharray:none;stroke-opacity:1" transform="matrix(-.45225 .0012 -.00375 .54281 124.724 -82.208)"/><path d="M219.432 250.662c-7.648-6.478-30.37 5.714-32.934 5.264" style="display:inline;fill:none;fill-opacity:1;stroke:#536b42;stroke-width:.400508;stroke-linecap:round;stroke-linejoin:round;stroke-miterlimit:2;stroke-dasharray:none;stroke-opacity:1" transform="matrix(-.45225 .0012 -.00375 .54281 124.724 -82.208)"/></g><g style="display:inline;stroke-width:1.79405"><path d="M219.432 250.662c-4.409-1.44-28.975 8.458-32.934 5.264.18-3.734 25.421-17.501 32.934-5.264" style="display:inline;fill:#80a167;fill-opacity:1;stroke:#536b42;stroke-width:.356005;stroke-linecap:round;stroke-linejoin:round;stroke-miterlimit:2;stroke-dasharray:none;stroke-opacity:1" transform="matrix(.48815 .18281 -.20356 .56024 -33.13 -102.565)"/><path d="M219.432 250.662c-7.648-6.478-30.37 5.714-32.934 5.264" style="display:inline;fill:none;fill-opacity:1;stroke:#536b42;stroke-width:.356005;stroke-linecap:round;stroke-linejoin:round;stroke-miterlimit:2;stroke-dasharray:none;stroke-opacity:1" transform="matrix(.48815 .18281 -.20356 .56024 -33.13 -102.565)"/></g><path d="M-152.198 107.525c-.478 4.011 1.792 72.348-2.313 72.993 0 0-.403.038-.51.038 4.452-2.179 1.55-73.743 2.823-73.031" style="fill:#aaab65;fill-opacity:1;stroke:#87884a;stroke-width:.219196;stroke-linecap:round;stroke-linejoin:round;stroke-miterlimit:2;stroke-dasharray:none;stroke-opacity:1" transform="matrix(1 0 0 .81956 176.807 -68.543)"/><g style="display:inline;stroke-width:3.45465"><path d="M168.628 244.049c-7.603 3.644 7.423 16.286 10.033 15.386-.855-.36-4.454-22.81-10.033-15.386" style="display:inline;fill:#80a167;fill-opacity:1;stroke:#536b42;stroke-width:.685532;stroke-linecap:round;stroke-linejoin:round;stroke-miterlimit:2;stroke-dasharray:none;stroke-opacity:1" transform="matrix(.32949 .05492 -.04066 .24753 -20.372 -46.662)"/><path d="M168.628 244.049c.675.36 8.143 15.701 10.033 15.386" style="display:inline;fill:none;fill-opacity:1;stroke:#536b42;stroke-width:.685532;stroke-linecap:round;stroke-linejoin:round;stroke-miterlimit:2;stroke-dasharray:none;stroke-opacity:1" transform="matrix(.32949 .05492 -.04066 .24753 -20.372 -46.662)"/></g><g style="display:inline;stroke-width:1.48581"><path d="M124.752 110.879c.477-.332 1.093-.276 1.36.232.602 1.142 1.483 8.076-1.394 10.569l-2.241-.614c-.993-3.694 1.717-9.798 2.275-10.187" style="display:inline;fill:#f7f3f1;fill-opacity:1;stroke:#dac7be;stroke-width:.196561;stroke-linecap:round;stroke-linejoin:round;stroke-miterlimit:2" transform="rotate(10.307 311.408 652.826)scale(-.6731 .67296)"/><g style="stroke-width:.656978"><path d="M-27.526-2.91c-1.376-.629-1.987-.74-2.304-1.024.365-.444 1.139-.305 2.304 1.024" style="fill:#f7f3f1;fill-opacity:1;stroke:#dac7be;stroke-width:.0869129;stroke-linecap:round;stroke-linejoin:round;stroke-miterlimit:2;stroke-dasharray:none;stroke-opacity:1" transform="matrix(-1.24328 -.89768 -.8366 1.25946 -7.817 2.55)"/><path d="M-25.277-1.45c-3.817-1.72-4.358-2.879-4.358-2.879.294-.894 3.499-1.765 4.358 2.88" style="display:inline;fill:#f7f3f1;fill-opacity:1;stroke:#dac7be;stroke-width:.0869129;stroke-linecap:round;stroke-linejoin:round;stroke-miterlimit:2;stroke-dasharray:none;stroke-opacity:1" transform="matrix(-1.24328 -.89768 -.8366 1.25946 -7.817 2.55)"/><path d="M-24.985-.48c-.285-.456-.241-3.848-.584-1.863-.351-.171-.787-.703-.421.43-2.31-1.037.712.672 1.005 1.433" style="fill:#748e28;fill-opacity:1;stroke:#5a6e1f;stroke-width:.0869129;stroke-linecap:round;stroke-linejoin:round;stroke-miterlimit:2;stroke-dasharray:none;stroke-opacity:1" transform="matrix(-1.24328 -.89768 -.8366 1.25946 -7.817 2.55)"/></g><g style="stroke-width:.723556"><path d="M-27.744-2.792c-1.376-.629-1.987-.74-2.304-1.025.365-.443 1.138-.304 2.304 1.025" style="fill:#f7f3f1;fill-opacity:1;stroke:#dac7be;stroke-width:.0957206;stroke-linecap:round;stroke-linejoin:round;stroke-miterlimit:2;stroke-dasharray:none;stroke-opacity:1" transform="matrix(-1.3178 -.40088 -.39473 1.32938 -7.87 13.76)"/><path d="M-25.277-1.45c-3.817-1.72-4.358-2.879-4.358-2.879.294-.894 3.499-1.765 4.358 2.88" style="display:inline;fill:#f7f3f1;fill-opacity:1;stroke:#dac7be;stroke-width:.0957206;stroke-linecap:round;stroke-linejoin:round;stroke-miterlimit:2;stroke-dasharray:none;stroke-opacity:1" transform="matrix(-1.3178 -.40088 -.39473 1.32938 -7.87 13.76)"/><path d="M-24.985-.48c-.285-.456-.241-3.848-.584-1.863-.351-.171-.787-.703-.421.43-2.31-1.037.712.672 1.005 1.433" style="fill:#748e28;fill-opacity:1;stroke:#5a6e1f;stroke-width:.0957206;stroke-linecap:round;stroke-linejoin:round;stroke-miterlimit:2;stroke-dasharray:none;stroke-opacity:1" transform="matrix(-1.3178 -.40088 -.39473 1.32938 -7.87 13.76)"/></g><g style="stroke-width:.723556"><path d="M-27.744-2.792c-1.376-.629-1.987-.74-2.304-1.025.365-.443 1.138-.304 2.304 1.025" style="fill:#f7f3f1;fill-opacity:1;stroke:#dac7be;stroke-width:.0957206;stroke-linecap:round;stroke-linejoin:round;stroke-miterlimit:2;stroke-dasharray:none;stroke-opacity:1" transform="matrix(1.35076 .26974 -.28071 1.35803 58.356 30.592)"/><path d="M-25.277-1.45c-3.817-1.72-4.358-2.879-4.358-2.879.294-.894 3.499-1.765 4.358 2.88" style="display:inline;fill:#f7f3f1;fill-opacity:1;stroke:#dac7be;stroke-width:.0957206;stroke-linecap:round;stroke-linejoin:round;stroke-miterlimit:2;stroke-dasharray:none;stroke-opacity:1" transform="matrix(1.35076 .26974 -.28071 1.35803 58.356 30.592)"/><path d="M-24.985-.48c-.285-.456-.241-3.848-.584-1.863-.351-.171-.787-.703-.421.43-2.31-1.037.712.672 1.005 1.433" style="fill:#748e28;fill-opacity:1;stroke:#5a6e1f;stroke-width:.0957206;stroke-linecap:round;stroke-linejoin:round;stroke-miterlimit:2;stroke-dasharray:none;stroke-opacity:1" transform="matrix(1.35076 .26974 -.28071 1.35803 58.356 30.592)"/></g><g style="stroke-width:.638621"><path d="M-27.45-2.892c-1.375-.63-1.987-.74-2.304-1.025.365-.443 1.14-.304 2.304 1.025" style="fill:#f7f3f1;fill-opacity:1;stroke:#dac7be;stroke-width:.0844845;stroke-linecap:round;stroke-linejoin:round;stroke-miterlimit:2;stroke-dasharray:none;stroke-opacity:1" transform="matrix(1.50954 -.3061 .12628 1.5987 63.046 18.689)"/><path d="M-25.277-1.45c-3.817-1.72-4.358-2.879-4.358-2.879.294-.894 3.499-1.765 4.358 2.88" style="display:inline;fill:#f7f3f1;fill-opacity:1;stroke:#dac7be;stroke-width:.0844845;stroke-linecap:round;stroke-linejoin:round;stroke-miterlimit:2;stroke-dasharray:none;stroke-opacity:1" transform="matrix(1.50954 -.3061 .12628 1.5987 63.046 18.689)"/><path d="M-24.985-.48c-.285-.456-.241-3.848-.584-1.863-.351-.171-.787-.703-.421.43-2.31-1.037.712.672 1.005 1.433" style="fill:#748e28;fill-opacity:1;stroke:#5a6e1f;stroke-width:.0844845;stroke-linecap:round;stroke-linejoin:round;stroke-miterlimit:2;stroke-dasharray:none;stroke-opacity:1" transform="matrix(1.50954 -.3061 .12628 1.5987 63.046 18.689)"/></g><g style="display:inline;stroke-width:1.48581"><path d="M168.07 166.014c-.72-.09-.855-2.025-2.183-2.947 1.283-1.71 5.601.18 5.601.18-2.564.652-2.474 2.812-3.419 2.767" style="fill:#f7f3f1;fill-opacity:1;stroke:#dac7be;stroke-width:.196561;stroke-linecap:round;stroke-linejoin:round;stroke-miterlimit:2" transform="rotate(10.307 424.299 835.602)scale(-.6731 .67296)"/><path d="M167.192 162.865c-.09.54-1.483 1.006-1.597.764-1.5-3.17 4.184-4.543 4.184-4.543s2.897 3.253 1.8 4.7c-.2.264-3.96-.09-4.387-.921" style="fill:#f7f3f1;fill-opacity:1;stroke:#dac7be;stroke-width:.196561;stroke-linecap:round;stroke-linejoin:round;stroke-miterlimit:2" transform="rotate(10.307 424.299 835.602)scale(-.6731 .67296)"/></g><path d="M120.379 112.76c.322-.409.865-.522 1.228-.158.817.82 3.398 6.521 1.585 9.41l-2.085.063c-1.824-2.9-1.105-8.835-.728-9.315" style="display:inline;fill:#f7f3f1;fill-opacity:1;stroke:#dac7be;stroke-width:.196561;stroke-linecap:round;stroke-linejoin:round;stroke-miterlimit:2" transform="rotate(10.307 311.408 652.826)scale(-.6731 .67296)"/><g style="display:inline;stroke-width:1.27223" transform="rotate(-169.693 85.85 -45.093)scale(.78637 -.78567)"><ellipse cx="225.719" cy="36.466" rx="1.867" ry=".9" style="fill:#afc04f;fill-opacity:1;stroke:#8b9a37;stroke-width:.168305;stroke-linecap:round;stroke-linejoin:round;stroke-miterlimit:2;stroke-opacity:1" transform="rotate(33.577)"/><ellipse cx="225.034" cy="-32.995" rx="1.867" ry=".9" style="display:inline;fill:#afc04f;fill-opacity:1;stroke:#8b9a37;stroke-width:.168305;stroke-linecap:round;stroke-linejoin:round;stroke-miterlimit:2;stroke-opacity:1" transform="rotate(50.85)skewX(.002)"/><ellipse cx="-57.26" cy="224.05" rx="1.867" ry=".9" style="display:inline;fill:#afc04f;fill-opacity:1;stroke:#8b9a37;stroke-width:.168305;stroke-linecap:round;stroke-linejoin:round;stroke-miterlimit:2;stroke-opacity:1" transform="rotate(146.423)scale(1 -1)"/><ellipse cx="228.623" cy="-8.347" rx="1.867" ry=".9" style="fill:#afc04f;fill-opacity:1;stroke:#8b9a37;stroke-width:.168305;stroke-linecap:round;stroke-linejoin:round;stroke-miterlimit:2;stroke-opacity:1" transform="rotate(44.438)"/><ellipse cx="156.116" cy="166.905" rx=".799" ry="1.991" style="fill:#afc04f;fill-opacity:1;stroke:#8b9a37;stroke-width:.168305;stroke-linecap:round;stroke-linejoin:round;stroke-miterlimit:2;stroke-opacity:1" transform="rotate(-4.955)"/><ellipse cx="18.116" cy="171.248" rx="1.451" ry=".709" style="display:inline;fill:#afc04f;fill-opacity:1;stroke:#8b9a37;stroke-width:.168305;stroke-linecap:round;stroke-linejoin:round;stroke-miterlimit:2;stroke-opacity:1" transform="rotate(-40.12 70.365 -46.897)"/><ellipse cx="123.114" cy="121.157" rx="1.44" ry="1.215" style="display:inline;fill:#afc04f;fill-opacity:1;stroke:#8b9a37;stroke-width:.168305;stroke-linecap:round;stroke-linejoin:round;stroke-miterlimit:2;stroke-opacity:1" transform="translate(46.778 34.307)"/></g></g><g style="display:inline;stroke-width:2.09964"><path d="M219.532 252.663c2.926-6.744 30.812 17.182 35.693 15.143-5.217-2.355-23.605-33.976-35.693-15.143" style="fill:#80a167;fill-opacity:1;stroke:#536b42;stroke-width:.416645;stroke-linecap:round;stroke-linejoin:round;stroke-miterlimit:2;stroke-dasharray:none;stroke-opacity:1" transform="matrix(.4124 -.19332 .12184 .49292 -98.336 -3.875)"/><path d="M219.532 252.663c4.903-8.143 32.634 17.077 35.693 15.143" style="fill:none;fill-opacity:1;stroke:#536b42;stroke-width:.416645;stroke-linecap:round;stroke-linejoin:round;stroke-miterlimit:2;stroke-dasharray:none;stroke-opacity:1" transform="matrix(.4124 -.19332 .12184 .49292 -98.336 -3.875)"/></g><g style="display:inline;stroke-width:2.26377"><path d="M219.532 252.663c2.926-6.744 30.812 17.182 35.693 15.143-5.217-2.355-23.605-33.976-35.693-15.143" style="fill:#80a167;fill-opacity:1;stroke:#536b42;stroke-width:.449214;stroke-linecap:round;stroke-linejoin:round;stroke-miterlimit:2;stroke-dasharray:none;stroke-opacity:1" transform="matrix(-.31951 -.27912 -.2463 .39557 156.975 16.652)"/><path d="M219.532 252.663c8.587-11.66 32.634 17.077 35.693 15.143" style="fill:none;fill-opacity:1;stroke:#536b42;stroke-width:.449214;stroke-linecap:round;stroke-linejoin:round;stroke-miterlimit:2;stroke-dasharray:none;stroke-opacity:1" transform="matrix(-.31951 -.27912 -.2463 .39557 156.975 16.652)"/></g><g style="display:inline;stroke-width:2.01831"><path d="M219.432 250.662c-4.409-1.44-28.975 8.458-32.934 5.264.18-3.734 25.421-17.501 32.934-5.264" style="display:inline;fill:#80a167;fill-opacity:1;stroke:#536b42;stroke-width:.400508;stroke-linecap:round;stroke-linejoin:round;stroke-miterlimit:2;stroke-dasharray:none;stroke-opacity:1" transform="matrix(.45225 .0012 .00375 .54281 -75.601 -90.46)"/><path d="M219.432 250.662c-7.648-6.478-30.37 5.714-32.934 5.264" style="display:inline;fill:none;fill-opacity:1;stroke:#536b42;stroke-width:.400508;stroke-linecap:round;stroke-linejoin:round;stroke-miterlimit:2;stroke-dasharray:none;stroke-opacity:1" transform="matrix(.45225 .0012 .00375 .54281 -75.601 -90.46)"/></g><g style="display:inline;stroke-width:2.44631"><path d="M219.432 250.662c-4.409-1.44-28.975 8.458-32.934 5.264.18-3.734 25.421-17.501 32.934-5.264" style="display:inline;fill:#80a167;fill-opacity:1;stroke:#536b42;stroke-width:.48544;stroke-linecap:round;stroke-linejoin:round;stroke-miterlimit:2;stroke-dasharray:none;stroke-opacity:1" transform="matrix(-.37077 .04785 .05296 .44385 92.62 -91.225)"/><path d="M219.432 250.662c-7.648-6.478-30.37 5.714-32.934 5.264" style="display:inline;fill:none;fill-opacity:1;stroke:#536b42;stroke-width:.48544;stroke-linecap:round;stroke-linejoin:round;stroke-miterlimit:2;stroke-dasharray:none;stroke-opacity:1" transform="matrix(-.37077 .04785 .05296 .44385 92.62 -91.225)"/></g><g style="display:inline;stroke-width:2.06327"><path d="M219.532 252.663c2.926-6.744 30.812 17.182 35.693 15.143-5.217-2.355-23.605-33.976-35.693-15.143" style="fill:#80a167;fill-opacity:1;stroke:#536b42;stroke-width:.409427;stroke-linecap:round;stroke-linejoin:round;stroke-miterlimit:2;stroke-dasharray:none;stroke-opacity:1" transform="matrix(-.37216 -.2795 -.23684 .45331 165.553 19.074)"/><path d="M219.532 252.663c4.903-8.143 32.634 17.077 35.693 15.143" style="fill:none;fill-opacity:1;stroke:#536b42;stroke-width:.409427;stroke-linecap:round;stroke-linejoin:round;stroke-miterlimit:2;stroke-dasharray:none;stroke-opacity:1" transform="matrix(-.37216 -.2795 -.23684 .45331 165.553 19.074)"/></g><g style="display:inline;stroke-width:1.43638"><path d="M168.628 244.049c-7.603 3.644 7.423 16.286 10.033 15.386-.855-.36-4.454-22.81-10.033-15.386" style="display:inline;fill:#80a167;fill-opacity:1;stroke:#536b42;stroke-width:.285031;stroke-linecap:round;stroke-linejoin:round;stroke-miterlimit:2;stroke-dasharray:none;stroke-opacity:1" transform="rotate(11.344 368.097 909.39)scale(-.80357 .60317)"/><path d="M168.628 244.049c.675.36 8.143 15.701 10.033 15.386" style="display:inline;fill:none;fill-opacity:1;stroke:#536b42;stroke-width:.285031;stroke-linecap:round;stroke-linejoin:round;stroke-miterlimit:2;stroke-dasharray:none;stroke-opacity:1" transform="rotate(11.344 368.097 909.39)scale(-.80357 .60317)"/></g><g style="display:inline;stroke-width:2.54062"><path d="M219.532 252.663c2.926-6.744 30.812 17.182 35.693 15.143-5.217-2.355-23.605-33.976-35.693-15.143" style="fill:#80a167;fill-opacity:1;stroke:#536b42;stroke-width:.504151;stroke-linecap:round;stroke-linejoin:round;stroke-miterlimit:2;stroke-dasharray:none;stroke-opacity:1" transform="matrix(.33788 -.16968 .12518 .39566 -81.205 -23.502)"/><path d="M219.532 252.663c4.903-8.143 32.634 17.077 35.693 15.143" style="fill:none;fill-opacity:1;stroke:#536b42;stroke-width:.504151;stroke-linecap:round;stroke-linejoin:round;stroke-miterlimit:2;stroke-dasharray:none;stroke-opacity:1" transform="matrix(.33788 -.16968 .12518 .39566 -81.205 -23.502)"/></g></g><g style="display:inline"><g style="display:inline;stroke-width:3.0037"><path d="M217.814 263.924c1.081-3.054 11.198-1.34 8.08-18.327-10.308 5.202-8.271 11.71-8.08 18.327" style="fill:#80a167;fill-opacity:1;stroke:#536b42;stroke-width:.596045;stroke-linecap:round;stroke-linejoin:round;stroke-miterlimit:2;stroke-dasharray:none;stroke-opacity:1" transform="matrix(-.34544 .1434 .05939 .2962 77.024 -95.26)"/><path d="M217.814 263.924c1.081-4.326 6.49-15.528 8.08-18.327" style="fill:none;fill-opacity:1;stroke:#536b42;stroke-width:.596045;stroke-linecap:round;stroke-linejoin:round;stroke-miterlimit:2;stroke-dasharray:none;stroke-opacity:1" transform="matrix(-.34544 .1434 .05939 .2962 77.024 -95.26)"/></g><g style="display:inline;stroke-width:2.83745"><path d="M219.532 252.663c2.926-6.744 30.812 17.182 35.693 15.143-5.217-2.355-23.605-33.976-35.693-15.143" style="fill:#80a167;fill-opacity:1;stroke:#536b42;stroke-width:.563052;stroke-linecap:round;stroke-linejoin:round;stroke-miterlimit:2;stroke-dasharray:none;stroke-opacity:1" transform="matrix(.25714 -.2203 .19466 .31626 -88.254 -9.013)"/><path d="M219.532 252.663c8.587-11.66 32.634 17.077 35.693 15.143" style="fill:none;fill-opacity:1;stroke:#536b42;stroke-width:.563052;stroke-linecap:round;stroke-linejoin:round;stroke-miterlimit:2;stroke-dasharray:none;stroke-opacity:1" transform="matrix(.25714 -.2203 .19466 .31626 -88.254 -9.013)"/></g><g style="display:inline;stroke-width:2.05095"><path d="M219.432 250.662c-4.409-1.44-28.975 8.458-32.934 5.264.18-3.734 25.421-17.501 32.934-5.264" style="display:inline;fill:#80a167;fill-opacity:1;stroke:#536b42;stroke-width:.406983;stroke-linecap:round;stroke-linejoin:round;stroke-miterlimit:2;stroke-dasharray:none;stroke-opacity:1" transform="matrix(-.4565 .00448 .00001 .52077 117.426 -100.262)"/><path d="M219.432 250.662c-7.648-6.478-30.37 5.714-32.934 5.264" style="display:inline;fill:none;fill-opacity:1;stroke:#536b42;stroke-width:.406983;stroke-linecap:round;stroke-linejoin:round;stroke-miterlimit:2;stroke-dasharray:none;stroke-opacity:1" transform="matrix(-.4565 .00448 .00001 .52077 117.426 -100.262)"/></g><g style="display:inline;stroke-width:1.72642"><path d="M217.814 263.924c1.081-3.054 11.198-1.34 8.08-18.327-10.308 5.202-8.271 11.71-8.08 18.327" style="fill:#80a167;fill-opacity:1;stroke:#536b42;stroke-width:.342586;stroke-linecap:round;stroke-linejoin:round;stroke-miterlimit:2;stroke-dasharray:none;stroke-opacity:1" transform="matrix(.60203 .24908 -.1035 .51448 -86.53 -150.013)"/><path d="M217.814 263.924c1.081-4.326 6.49-15.528 8.08-18.327" style="fill:none;fill-opacity:1;stroke:#536b42;stroke-width:.342586;stroke-linecap:round;stroke-linejoin:round;stroke-miterlimit:2;stroke-dasharray:none;stroke-opacity:1" transform="matrix(.60203 .24908 -.1035 .51448 -86.53 -150.013)"/></g><g style="display:inline;stroke-width:1.79405"><path d="M219.432 250.662c-4.409-1.44-28.975 8.458-32.934 5.264.18-3.734 25.421-17.501 32.934-5.264" style="display:inline;fill:#80a167;fill-opacity:1;stroke:#536b42;stroke-width:.356005;stroke-linecap:round;stroke-linejoin:round;stroke-miterlimit:2;stroke-dasharray:none;stroke-opacity:1" transform="matrix(.52123 .00512 -.00001 .59607 -96.867 -100.461)"/><path d="M219.432 250.662c-7.648-6.478-30.37 5.714-32.934 5.264" style="display:inline;fill:none;fill-opacity:1;stroke:#536b42;stroke-width:.356005;stroke-linecap:round;stroke-linejoin:round;stroke-miterlimit:2;stroke-dasharray:none;stroke-opacity:1" transform="matrix(.52123 .00512 -.00001 .59607 -96.867 -100.461)"/></g><g style="display:inline;stroke-width:1.31064"><path d="M217.814 263.924c1.081-3.054 11.198-1.34 8.08-18.327-10.308 5.202-8.271 11.71-8.08 18.327" style="fill:#80a167;fill-opacity:1;stroke:#536b42;stroke-width:.26008;stroke-linecap:round;stroke-linejoin:round;stroke-miterlimit:2;stroke-dasharray:none;stroke-opacity:1" transform="matrix(-.75297 .11867 .11843 .75447 150.512 -155.414)"/><path d="M217.814 263.924c1.081-4.326 6.49-15.528 8.08-18.327" style="fill:none;fill-opacity:1;stroke:#536b42;stroke-width:.26008;stroke-linecap:round;stroke-linejoin:round;stroke-miterlimit:2;stroke-dasharray:none;stroke-opacity:1" transform="matrix(-.75297 .11867 .11843 .75447 150.512 -155.414)"/></g><g style="display:inline;stroke-width:1.98625"><path d="M219.532 252.663c2.926-6.744 30.812 17.182 35.693 15.143-5.217-2.355-23.605-33.976-35.693-15.143" style="fill:#80a167;fill-opacity:1;stroke:#536b42;stroke-width:.394144;stroke-linecap:round;stroke-linejoin:round;stroke-miterlimit:2;stroke-dasharray:none;stroke-opacity:1" transform="matrix(.42725 -.24465 .21021 .4729 -129.387 13.2)"/><path d="M219.532 252.663c4.903-8.143 32.634 17.077 35.693 15.143" style="fill:none;fill-opacity:1;stroke:#536b42;stroke-width:.394144;stroke-linecap:round;stroke-linejoin:round;stroke-miterlimit:2;stroke-dasharray:none;stroke-opacity:1" transform="matrix(.42725 -.24465 .21021 .4729 -129.387 13.2)"/></g><g style="display:inline;stroke-width:2.06327"><path d="M219.532 252.663c2.926-6.744 30.812 17.182 35.693 15.143-5.217-2.355-23.605-33.976-35.693-15.143" style="fill:#80a167;fill-opacity:1;stroke:#536b42;stroke-width:.409427;stroke-linecap:round;stroke-linejoin:round;stroke-miterlimit:2;stroke-dasharray:none;stroke-opacity:1" transform="matrix(-.35249 -.30394 -.26684 .43633 162.224 18.556)"/><path d="M219.532 252.663c4.903-8.143 32.634 17.077 35.693 15.143" style="fill:none;fill-opacity:1;stroke:#536b42;stroke-width:.409427;stroke-linecap:round;stroke-linejoin:round;stroke-miterlimit:2;stroke-dasharray:none;stroke-opacity:1" transform="matrix(-.35249 -.30394 -.26684 .43633 162.224 18.556)"/></g><path d="M-30.022 226.235c-.479 4.012-.037 73.3-.037 73.3s-.403.038-.51.038c.382-4.03-.726-74.049.547-73.338" style="display:inline;fill:#aaab65;fill-opacity:1;stroke:#87884a;stroke-width:.198437;stroke-linecap:round;stroke-linejoin:round;stroke-miterlimit:2;stroke-dasharray:none;stroke-opacity:1" transform="translate(47.789 -220.142)"/><g style="display:inline;stroke-width:2.79294"><path d="M168.628 244.049c-7.603 3.644 7.423 16.286 10.033 15.386-.855-.36-4.454-22.81-10.033-15.386" style="display:inline;fill:#80a167;fill-opacity:1;stroke:#536b42;stroke-width:.554223;stroke-linecap:round;stroke-linejoin:round;stroke-miterlimit:2;stroke-dasharray:none;stroke-opacity:1" transform="matrix(.45682 .12347 -.12937 .24566 -27.797 -67.65)"/><path d="M168.628 244.049c.675.36 8.143 15.701 10.033 15.386" style="display:inline;fill:none;fill-opacity:1;stroke:#536b42;stroke-width:.554223;stroke-linecap:round;stroke-linejoin:round;stroke-miterlimit:2;stroke-dasharray:none;stroke-opacity:1" transform="matrix(.45682 .12347 -.12937 .24566 -27.797 -67.65)"/></g><g style="stroke-width:1.34795"><path d="M124.457 110.983c.457-.358 1.076-.336 1.371.155.665 1.107 1.934 7.981-.8 10.63l-2.271-.486c-1.199-3.632 1.165-9.88 1.7-10.299" style="display:inline;fill:#f7f3f1;fill-opacity:1;stroke:#dac7be;stroke-width:.178323;stroke-linecap:round;stroke-linejoin:round;stroke-miterlimit:2" transform="matrix(.74192 0 0 .7418 -74.314 -82.08)"/><g style="stroke-width:.59602"><path d="M-27.526-2.91c-1.376-.629-1.987-.74-2.304-1.024.365-.444 1.139-.305 2.304 1.024" style="fill:#f7f3f1;fill-opacity:1;stroke:#dac7be;stroke-width:.0788487;stroke-linecap:round;stroke-linejoin:round;stroke-miterlimit:2;stroke-dasharray:none;stroke-opacity:1" transform="matrix(1.52532 -.72835 .65886 1.53091 56.869 -4.742)"/><path d="M-25.277-1.45c-3.817-1.72-4.358-2.879-4.358-2.879.294-.894 3.499-1.765 4.358 2.88" style="display:inline;fill:#f7f3f1;fill-opacity:1;stroke:#dac7be;stroke-width:.0788487;stroke-linecap:round;stroke-linejoin:round;stroke-miterlimit:2;stroke-dasharray:none;stroke-opacity:1" transform="matrix(1.52532 -.72835 .65886 1.53091 56.869 -4.742)"/><path d="M-24.985-.48c-.285-.456-.241-3.848-.584-1.863-.351-.171-.787-.703-.421.43-2.31-1.037.712.672 1.005 1.433" style="fill:#748e28;fill-opacity:1;stroke:#5a6e1f;stroke-width:.0788487;stroke-linecap:round;stroke-linejoin:round;stroke-miterlimit:2;stroke-dasharray:none;stroke-opacity:1" transform="matrix(1.52532 -.72835 .65886 1.53091 56.869 -4.742)"/></g><g style="stroke-width:.656421"><path d="M-27.744-2.792c-1.376-.629-1.987-.74-2.304-1.025.365-.443 1.138-.304 2.304 1.025" style="fill:#f7f3f1;fill-opacity:1;stroke:#dac7be;stroke-width:.0868392;stroke-linecap:round;stroke-linejoin:round;stroke-miterlimit:2;stroke-dasharray:none;stroke-opacity:1" transform="matrix(1.50816 -.17485 .16589 1.51959 54.716 7.424)"/><path d="M-25.277-1.45c-3.817-1.72-4.358-2.879-4.358-2.879.294-.894 3.499-1.765 4.358 2.88" style="display:inline;fill:#f7f3f1;fill-opacity:1;stroke:#dac7be;stroke-width:.0868392;stroke-linecap:round;stroke-linejoin:round;stroke-miterlimit:2;stroke-dasharray:none;stroke-opacity:1" transform="matrix(1.50816 -.17485 .16589 1.51959 54.716 7.424)"/><path d="M-24.985-.48c-.285-.456-.241-3.848-.584-1.863-.351-.171-.787-.703-.421.43-2.31-1.037.712.672 1.005 1.433" style="fill:#748e28;fill-opacity:1;stroke:#5a6e1f;stroke-width:.0868392;stroke-linecap:round;stroke-linejoin:round;stroke-miterlimit:2;stroke-dasharray:none;stroke-opacity:1" transform="matrix(1.50816 -.17485 .16589 1.51959 54.716 7.424)"/></g><g style="stroke-width:.656421"><path d="M-27.744-2.792c-1.376-.629-1.987-.74-2.304-1.025.365-.443 1.138-.304 2.304 1.025" style="fill:#f7f3f1;fill-opacity:1;stroke:#dac7be;stroke-width:.0868392;stroke-linecap:round;stroke-linejoin:round;stroke-miterlimit:2;stroke-dasharray:none;stroke-opacity:1" transform="matrix(-1.51804 .02614 .0366 1.52818 -20.424 12.617)"/><path d="M-25.277-1.45c-3.817-1.72-4.358-2.879-4.358-2.879.294-.894 3.499-1.765 4.358 2.88" style="display:inline;fill:#f7f3f1;fill-opacity:1;stroke:#dac7be;stroke-width:.0868392;stroke-linecap:round;stroke-linejoin:round;stroke-miterlimit:2;stroke-dasharray:none;stroke-opacity:1" transform="matrix(-1.51804 .02614 .0366 1.52818 -20.424 12.617)"/><path d="M-24.985-.48c-.285-.456-.241-3.848-.584-1.863-.351-.171-.787-.703-.421.43-2.31-1.037.712.672 1.005 1.433" style="fill:#748e28;fill-opacity:1;stroke:#5a6e1f;stroke-width:.0868392;stroke-linecap:round;stroke-linejoin:round;stroke-miterlimit:2;stroke-dasharray:none;stroke-opacity:1" transform="matrix(-1.51804 .02614 .0366 1.52818 -20.424 12.617)"/></g><g style="stroke-width:.579367"><path d="M-27.45-2.892c-1.375-.63-1.987-.74-2.304-1.025.365-.443 1.14-.304 2.304 1.025" style="fill:#f7f3f1;fill-opacity:1;stroke:#dac7be;stroke-width:.0766456;stroke-linecap:round;stroke-linejoin:round;stroke-miterlimit:2;stroke-dasharray:none;stroke-opacity:1" transform="matrix(-1.57665 -.6297 -.45223 1.70893 -23.162 -1.216)"/><path d="M-25.277-1.45c-3.817-1.72-4.358-2.879-4.358-2.879.294-.894 3.499-1.765 4.358 2.88" style="display:inline;fill:#f7f3f1;fill-opacity:1;stroke:#dac7be;stroke-width:.0766456;stroke-linecap:round;stroke-linejoin:round;stroke-miterlimit:2;stroke-dasharray:none;stroke-opacity:1" transform="matrix(-1.57665 -.6297 -.45223 1.70893 -23.162 -1.216)"/><path d="M-24.985-.48c-.285-.456-.241-3.848-.584-1.863-.351-.171-.787-.703-.421.43-2.31-1.037.712.672 1.005 1.433" style="fill:#748e28;fill-opacity:1;stroke:#5a6e1f;stroke-width:.0766456;stroke-linecap:round;stroke-linejoin:round;stroke-miterlimit:2;stroke-dasharray:none;stroke-opacity:1" transform="matrix(-1.57665 -.6297 -.45223 1.70893 -23.162 -1.216)"/></g><g style="display:inline;stroke-width:1.34795"><path d="M168.07 166.014c-.72-.09-.855-2.025-2.183-2.947 1.283-1.71 5.601.18 5.601.18-2.564.652-2.474 2.812-3.419 2.767" style="fill:#f7f3f1;fill-opacity:1;stroke:#dac7be;stroke-width:.178323;stroke-linecap:round;stroke-linejoin:round;stroke-miterlimit:2" transform="matrix(.74192 0 0 .7418 -108.352 -107.597)"/><path d="M167.192 162.865c-.09.54-1.483 1.006-1.597.764-1.5-3.17 4.184-4.543 4.184-4.543s2.897 3.253 1.8 4.7c-.2.264-3.96-.09-4.387-.921" style="fill:#f7f3f1;fill-opacity:1;stroke:#dac7be;stroke-width:.178323;stroke-linecap:round;stroke-linejoin:round;stroke-miterlimit:2" transform="matrix(.74192 0 0 .7418 -108.352 -107.597)"/></g><path d="M120.379 112.76c.322-.409.865-.522 1.228-.158.817.82 3.398 6.521 1.585 9.41l-2.085.063c-1.824-2.9-1.105-8.835-.728-9.315" style="display:inline;fill:#f7f3f1;fill-opacity:1;stroke:#dac7be;stroke-width:.178323;stroke-linecap:round;stroke-linejoin:round;stroke-miterlimit:2" transform="matrix(.74192 0 0 .7418 -74.314 -82.08)"/><g style="display:inline;stroke-width:1.15419" transform="matrix(.86677 0 0 .86605 -129.94 -124.592)"><ellipse cx="225.719" cy="36.466" rx="1.867" ry=".9" style="fill:#afc04f;fill-opacity:1;stroke:#8b9a37;stroke-width:.152689;stroke-linecap:round;stroke-linejoin:round;stroke-miterlimit:2;stroke-opacity:1" transform="rotate(33.577)"/><ellipse cx="225.034" cy="-32.995" rx="1.867" ry=".9" style="display:inline;fill:#afc04f;fill-opacity:1;stroke:#8b9a37;stroke-width:.152689;stroke-linecap:round;stroke-linejoin:round;stroke-miterlimit:2;stroke-opacity:1" transform="rotate(50.85)skewX(.002)"/><ellipse cx="-57.26" cy="224.05" rx="1.867" ry=".9" style="display:inline;fill:#afc04f;fill-opacity:1;stroke:#8b9a37;stroke-width:.152689;stroke-linecap:round;stroke-linejoin:round;stroke-miterlimit:2;stroke-opacity:1" transform="rotate(146.423)scale(1 -1)"/><ellipse cx="228.623" cy="-8.347" rx="1.867" ry=".9" style="fill:#afc04f;fill-opacity:1;stroke:#8b9a37;stroke-width:.152689;stroke-linecap:round;stroke-linejoin:round;stroke-miterlimit:2;stroke-opacity:1" transform="rotate(44.438)"/><ellipse cx="156.116" cy="166.905" rx=".799" ry="1.991" style="fill:#afc04f;fill-opacity:1;stroke:#8b9a37;stroke-width:.152689;stroke-linecap:round;stroke-linejoin:round;stroke-miterlimit:2;stroke-opacity:1" transform="rotate(-4.955)"/><ellipse cx="18.116" cy="171.248" rx="1.451" ry=".709" style="display:inline;fill:#afc04f;fill-opacity:1;stroke:#8b9a37;stroke-width:.152689;stroke-linecap:round;stroke-linejoin:round;stroke-miterlimit:2;stroke-opacity:1" transform="rotate(-40.12 70.365 -46.897)"/><ellipse cx="123.114" cy="121.157" rx="1.44" ry="1.215" style="display:inline;fill:#afc04f;fill-opacity:1;stroke:#8b9a37;stroke-width:.152689;stroke-linecap:round;stroke-linejoin:round;stroke-miterlimit:2;stroke-opacity:1" transform="translate(46.778 34.307)"/></g></g><g style="display:inline;stroke-width:1.79405"><path d="M219.432 250.662c-4.409-1.44-28.975 8.458-32.934 5.264.18-3.734 25.421-17.501 32.934-5.264" style="display:inline;fill:#80a167;fill-opacity:1;stroke:#536b42;stroke-width:.356005;stroke-linecap:round;stroke-linejoin:round;stroke-miterlimit:2;stroke-dasharray:none;stroke-opacity:1" transform="matrix(.50807 .11649 -.1275 .58228 -62.025 -92.491)"/><path d="M219.432 250.662c-7.648-6.478-30.37 5.714-32.934 5.264" style="display:inline;fill:none;fill-opacity:1;stroke:#536b42;stroke-width:.356005;stroke-linecap:round;stroke-linejoin:round;stroke-miterlimit:2;stroke-dasharray:none;stroke-opacity:1" transform="matrix(.50807 .11649 -.1275 .58228 -62.025 -92.491)"/></g><g style="display:inline;stroke-width:1.43638"><path d="M168.628 244.049c-7.603 3.644 7.423 16.286 10.033 15.386-.855-.36-4.454-22.81-10.033-15.386" style="display:inline;fill:#80a167;fill-opacity:1;stroke:#536b42;stroke-width:.285031;stroke-linecap:round;stroke-linejoin:round;stroke-miterlimit:2;stroke-dasharray:none;stroke-opacity:1" transform="matrix(.80357 0 0 .60317 -117.761 -78.03)"/><path d="M168.628 244.049c.675.36 8.143 15.701 10.033 15.386" style="display:inline;fill:none;fill-opacity:1;stroke:#536b42;stroke-width:.285031;stroke-linecap:round;stroke-linejoin:round;stroke-miterlimit:2;stroke-dasharray:none;stroke-opacity:1" transform="matrix(.80357 0 0 .60317 -117.761 -78.03)"/></g><g style="display:inline;stroke-width:1.79405"><path d="M219.432 250.662c-4.409-1.44-28.975 8.458-32.934 5.264.18-3.734 25.421-17.501 32.934-5.264" style="display:inline;fill:#80a167;fill-opacity:1;stroke:#536b42;stroke-width:.356005;stroke-linecap:round;stroke-linejoin:round;stroke-miterlimit:2;stroke-dasharray:none;stroke-opacity:1" transform="matrix(-.52123 .00512 .00001 .59607 131.722 -89.782)"/><path d="M219.432 250.662c-7.648-6.478-30.37 5.714-32.934 5.264" style="display:inline;fill:none;fill-opacity:1;stroke:#536b42;stroke-width:.356005;stroke-linecap:round;stroke-linejoin:round;stroke-miterlimit:2;stroke-dasharray:none;stroke-opacity:1" transform="matrix(-.52123 .00512 .00001 .59607 131.722 -89.782)"/></g><g style="display:inline;stroke-width:2.06327"><path d="M219.532 252.663c2.926-6.744 30.812 17.182 35.693 15.143-5.217-2.355-23.605-33.976-35.693-15.143" style="fill:#80a167;fill-opacity:1;stroke:#536b42;stroke-width:.409427;stroke-linecap:round;stroke-linejoin:round;stroke-miterlimit:2;stroke-dasharray:none;stroke-opacity:1" transform="matrix(.35249 -.30394 .26684 .43633 -127.369 7.877)"/><path d="M219.532 252.663c8.587-11.66 32.634 17.077 35.693 15.143" style="fill:none;fill-opacity:1;stroke:#536b42;stroke-width:.409427;stroke-linecap:round;stroke-linejoin:round;stroke-miterlimit:2;stroke-dasharray:none;stroke-opacity:1" transform="matrix(.35249 -.30394 .26684 .43633 -127.369 7.877)"/></g><g style="display:inline;stroke-width:2.35872"><path d="M219.532 252.663c2.926-6.744 30.812 17.182 35.693 15.143-5.217-2.355-23.605-33.976-35.693-15.143" style="fill:#80a167;fill-opacity:1;stroke:#536b42;stroke-width:.468055;stroke-linecap:round;stroke-linejoin:round;stroke-miterlimit:2;stroke-dasharray:none;stroke-opacity:1" transform="matrix(-.30871 -.26554 -.2337 .3812 144.14 -5.61)"/><path d="M219.532 252.663c8.587-11.66 32.634 17.077 35.693 15.143" style="fill:none;fill-opacity:1;stroke:#536b42;stroke-width:.468055;stroke-linecap:round;stroke-linejoin:round;stroke-miterlimit:2;stroke-dasharray:none;stroke-opacity:1" transform="matrix(-.30871 -.26554 -.2337 .3812 144.14 -5.61)"/></g><g style="display:inline;stroke-width:2.46721"><path d="M219.432 250.662c-4.409-1.44-28.975 8.458-32.934 5.264.18-3.734 25.421-17.501 32.934-5.264" style="display:inline;fill:#80a167;fill-opacity:1;stroke:#536b42;stroke-width:.489585;stroke-linecap:round;stroke-linejoin:round;stroke-miterlimit:2;stroke-dasharray:none;stroke-opacity:1" transform="matrix(.38024 .00371 0 .43205 -66.003 -87.539)"/><path d="M219.432 250.662c-7.648-6.478-30.37 5.714-32.934 5.264" style="display:inline;fill:none;fill-opacity:1;stroke:#536b42;stroke-width:.489585;stroke-linecap:round;stroke-linejoin:round;stroke-miterlimit:2;stroke-dasharray:none;stroke-opacity:1" transform="matrix(.38024 .00371 0 .43205 -66.003 -87.539)"/></g><g style="display:inline;stroke-width:1.8429"><path d="M168.628 244.049c-7.603 3.644 7.423 16.286 10.033 15.386-.855-.36-4.454-22.81-10.033-15.386" style="display:inline;fill:#80a167;fill-opacity:1;stroke:#536b42;stroke-width:.3657;stroke-linecap:round;stroke-linejoin:round;stroke-miterlimit:2;stroke-dasharray:none;stroke-opacity:1" transform="matrix(-.69328 .18686 .19634 .37178 86.507 -82.48)"/><path d="M168.628 244.049c.675.36 8.143 15.701 10.033 15.386" style="display:inline;fill:none;fill-opacity:1;stroke:#536b42;stroke-width:.3657;stroke-linecap:round;stroke-linejoin:round;stroke-miterlimit:2;stroke-dasharray:none;stroke-opacity:1" transform="matrix(-.69328 .18686 .19634 .37178 86.507 -82.48)"/></g></g><g style="display:inline;stroke-width:1.10461"><g style="display:inline;stroke-width:2.25577"><path d="M217.814 263.924c1.081-3.054 11.198-1.34 8.08-18.327-10.308 5.202-8.271 11.71-8.08 18.327" style="fill:#80a167;fill-opacity:1;stroke:#536b42;stroke-width:.447627;stroke-linecap:round;stroke-linejoin:round;stroke-miterlimit:2;stroke-dasharray:none;stroke-opacity:1" transform="matrix(-.4978 .14733 -.04392 .40778 129.47 -90.28)"/><path d="M217.814 263.924c1.081-4.326 6.49-15.528 8.08-18.327" style="fill:none;fill-opacity:1;stroke:#536b42;stroke-width:.447627;stroke-linecap:round;stroke-linejoin:round;stroke-miterlimit:2;stroke-dasharray:none;stroke-opacity:1" transform="matrix(-.4978 .14733 -.04392 .40778 129.47 -90.28)"/></g><g style="display:inline;stroke-width:3.11624"><path d="M219.532 252.663c2.926-6.744 30.812 17.182 35.693 15.143-5.217-2.355-23.605-33.976-35.693-15.143" style="fill:#80a167;fill-opacity:1;stroke:#536b42;stroke-width:.618377;stroke-linecap:round;stroke-linejoin:round;stroke-miterlimit:2;stroke-dasharray:none;stroke-opacity:1" transform="matrix(.20476 -.22985 .15784 .32574 -75.16 -2.755)"/><path d="M219.532 252.663c8.587-11.66 32.634 17.077 35.693 15.143" style="fill:none;fill-opacity:1;stroke:#536b42;stroke-width:.618377;stroke-linecap:round;stroke-linejoin:round;stroke-miterlimit:2;stroke-dasharray:none;stroke-opacity:1" transform="matrix(.20476 -.22985 .15784 .32574 -75.16 -2.755)"/></g><g style="display:inline;stroke-width:2.53194"><path d="M219.432 250.662c-4.409-1.44-28.975 8.458-32.934 5.264.18-3.734 25.421-17.501 32.934-5.264" style="display:inline;fill:#80a167;fill-opacity:1;stroke:#536b42;stroke-width:.502427;stroke-linecap:round;stroke-linejoin:round;stroke-miterlimit:2;stroke-dasharray:none;stroke-opacity:1" transform="matrix(-.31253 .10659 .08894 .46878 55.768 -105.127)"/><path d="M219.432 250.662c-7.648-6.478-30.37 5.714-32.934 5.264" style="display:inline;fill:none;fill-opacity:1;stroke:#536b42;stroke-width:.502427;stroke-linecap:round;stroke-linejoin:round;stroke-miterlimit:2;stroke-dasharray:none;stroke-opacity:1" transform="matrix(-.31253 .10659 .08894 .46878 55.768 -105.127)"/></g><g style="display:inline;stroke-width:1.76633"><path d="M217.814 263.924c1.081-3.054 11.198-1.34 8.08-18.327-10.308 5.202-8.271 11.71-8.08 18.327" style="fill:#80a167;fill-opacity:1;stroke:#536b42;stroke-width:.350504;stroke-linecap:round;stroke-linejoin:round;stroke-miterlimit:2;stroke-dasharray:none;stroke-opacity:1" transform="matrix(.53042 .19625 -.19626 .53167 -54.426 -125.242)"/><path d="M217.814 263.924c1.081-4.326 6.49-15.528 8.08-18.327" style="fill:none;fill-opacity:1;stroke:#536b42;stroke-width:.350504;stroke-linecap:round;stroke-linejoin:round;stroke-miterlimit:2;stroke-dasharray:none;stroke-opacity:1" transform="matrix(.53042 .19625 -.19626 .53167 -54.426 -125.242)"/></g><g style="display:inline;stroke-width:2.85329"><path d="M219.532 252.663c2.926-6.744 30.812 17.182 35.693 15.143-5.217-2.355-23.605-33.976-35.693-15.143" style="fill:#80a167;fill-opacity:1;stroke:#536b42;stroke-width:.566195;stroke-linecap:round;stroke-linejoin:round;stroke-miterlimit:2;stroke-dasharray:none;stroke-opacity:1" transform="matrix(-.1523 -.30849 -.2182 .36456 97.917 20.09)"/><path d="M219.532 252.663c8.587-11.66 32.634 17.077 35.693 15.143" style="fill:none;fill-opacity:1;stroke:#536b42;stroke-width:.566195;stroke-linecap:round;stroke-linejoin:round;stroke-miterlimit:2;stroke-dasharray:none;stroke-opacity:1" transform="matrix(-.1523 -.30849 -.2182 .36456 97.917 20.09)"/></g><g style="display:inline;stroke-width:2.52336"><path d="M219.432 250.662c-4.409-1.44-28.975 8.458-32.934 5.264.18-3.734 25.421-17.501 32.934-5.264" style="display:inline;fill:#80a167;fill-opacity:1;stroke:#536b42;stroke-width:.500729;stroke-linecap:round;stroke-linejoin:round;stroke-miterlimit:2;stroke-dasharray:none;stroke-opacity:1" transform="matrix(-.32686 .138 .1363 .42293 48.133 -61.083)"/><path d="M219.432 250.662c-7.648-6.478-30.37 5.714-32.934 5.264" style="display:inline;fill:none;fill-opacity:1;stroke:#536b42;stroke-width:.500729;stroke-linecap:round;stroke-linejoin:round;stroke-miterlimit:2;stroke-dasharray:none;stroke-opacity:1" transform="matrix(-.32686 .138 .1363 .42293 48.133 -61.083)"/></g><path d="M-194.848 134.752c-.478 4.175 2.242 75.78-2.898 76.011 0 0-.403.04-.51.04 5.397-1.827 2.136-76.79 3.408-76.05" style="fill:#aaab65;fill-opacity:1;stroke:#87884a;stroke-width:.219196;stroke-linecap:round;stroke-linejoin:round;stroke-miterlimit:2;stroke-dasharray:none;stroke-opacity:1" transform="matrix(-1 0 0 .81956 -185.35 -93.25)"/><g style="display:inline;stroke-width:2.46699"><path d="M168.628 244.049c-7.603 3.644 7.423 16.286 10.033 15.386-.855-.36-4.454-22.81-10.033-15.386" style="display:inline;fill:#80a167;fill-opacity:1;stroke:#536b42;stroke-width:.489544;stroke-linecap:round;stroke-linejoin:round;stroke-miterlimit:2;stroke-dasharray:none;stroke-opacity:1" transform="matrix(-.53126 .06836 .10735 .29547 72.685 -62.71)"/><path d="M168.628 244.049c.675.36 8.143 15.701 10.033 15.386" style="display:inline;fill:none;fill-opacity:1;stroke:#536b42;stroke-width:.489544;stroke-linecap:round;stroke-linejoin:round;stroke-miterlimit:2;stroke-dasharray:none;stroke-opacity:1" transform="matrix(-.53126 .06836 .10735 .29547 72.685 -62.71)"/></g><g style="display:inline;stroke-width:1.48581"><path d="M124.752 110.879c.477-.332 1.093-.276 1.36.232.602 1.142 1.483 8.076-1.394 10.569l-2.241-.614c-.993-3.694 1.717-9.798 2.275-10.187" style="display:inline;fill:#f7f3f1;fill-opacity:1;stroke:#dac7be;stroke-width:.196561;stroke-linecap:round;stroke-linejoin:round;stroke-miterlimit:2" transform="matrix(.66224 -.12043 .1204 .6621 -87.723 -47.575)"/><g style="stroke-width:.656978"><path d="M-27.526-2.91c-1.376-.629-1.987-.74-2.304-1.024.365-.444 1.139-.305 2.304 1.024" style="fill:#f7f3f1;fill-opacity:1;stroke:#dac7be;stroke-width:.0869129;stroke-linecap:round;stroke-linejoin:round;stroke-miterlimit:2;stroke-dasharray:none;stroke-opacity:1" transform="matrix(1.24328 -.89768 .8366 1.25946 41.924 .159)"/><path d="M-25.277-1.45c-3.817-1.72-4.358-2.879-4.358-2.879.294-.894 3.499-1.765 4.358 2.88" style="display:inline;fill:#f7f3f1;fill-opacity:1;stroke:#dac7be;stroke-width:.0869129;stroke-linecap:round;stroke-linejoin:round;stroke-miterlimit:2;stroke-dasharray:none;stroke-opacity:1" transform="matrix(1.24328 -.89768 .8366 1.25946 41.924 .159)"/><path d="M-24.985-.48c-.285-.456-.241-3.848-.584-1.863-.351-.171-.787-.703-.421.43-2.31-1.037.712.672 1.005 1.433" style="fill:#748e28;fill-opacity:1;stroke:#5a6e1f;stroke-width:.0869129;stroke-linecap:round;stroke-linejoin:round;stroke-miterlimit:2;stroke-dasharray:none;stroke-opacity:1" transform="matrix(1.24328 -.89768 .8366 1.25946 41.924 .159)"/></g><g style="stroke-width:.723556"><path d="M-27.744-2.792c-1.376-.629-1.987-.74-2.304-1.025.365-.443 1.138-.304 2.304 1.025" style="fill:#f7f3f1;fill-opacity:1;stroke:#dac7be;stroke-width:.0957206;stroke-linecap:round;stroke-linejoin:round;stroke-miterlimit:2;stroke-dasharray:none;stroke-opacity:1" transform="matrix(1.3178 -.40088 .39473 1.32938 41.977 11.367)"/><path d="M-25.277-1.45c-3.817-1.72-4.358-2.879-4.358-2.879.294-.894 3.499-1.765 4.358 2.88" style="display:inline;fill:#f7f3f1;fill-opacity:1;stroke:#dac7be;stroke-width:.0957206;stroke-linecap:round;stroke-linejoin:round;stroke-miterlimit:2;stroke-dasharray:none;stroke-opacity:1" transform="matrix(1.3178 -.40088 .39473 1.32938 41.977 11.367)"/><path d="M-24.985-.48c-.285-.456-.241-3.848-.584-1.863-.351-.171-.787-.703-.421.43-2.31-1.037.712.672 1.005 1.433" style="fill:#748e28;fill-opacity:1;stroke:#5a6e1f;stroke-width:.0957206;stroke-linecap:round;stroke-linejoin:round;stroke-miterlimit:2;stroke-dasharray:none;stroke-opacity:1" transform="matrix(1.3178 -.40088 .39473 1.32938 41.977 11.367)"/></g><g style="stroke-width:.723556"><path d="M-27.744-2.792c-1.376-.629-1.987-.74-2.304-1.025.365-.443 1.138-.304 2.304 1.025" style="fill:#f7f3f1;fill-opacity:1;stroke:#dac7be;stroke-width:.0957206;stroke-linecap:round;stroke-linejoin:round;stroke-miterlimit:2;stroke-dasharray:none;stroke-opacity:1" transform="matrix(-1.35076 .26974 .28071 1.35803 -24.25 28.2)"/><path d="M-25.277-1.45c-3.817-1.72-4.358-2.879-4.358-2.879.294-.894 3.499-1.765 4.358 2.88" style="display:inline;fill:#f7f3f1;fill-opacity:1;stroke:#dac7be;stroke-width:.0957206;stroke-linecap:round;stroke-linejoin:round;stroke-miterlimit:2;stroke-dasharray:none;stroke-opacity:1" transform="matrix(-1.35076 .26974 .28071 1.35803 -24.25 28.2)"/><path d="M-24.985-.48c-.285-.456-.241-3.848-.584-1.863-.351-.171-.787-.703-.421.43-2.31-1.037.712.672 1.005 1.433" style="fill:#748e28;fill-opacity:1;stroke:#5a6e1f;stroke-width:.0957206;stroke-linecap:round;stroke-linejoin:round;stroke-miterlimit:2;stroke-dasharray:none;stroke-opacity:1" transform="matrix(-1.35076 .26974 .28071 1.35803 -24.25 28.2)"/></g><g style="stroke-width:.638621"><path d="M-27.45-2.892c-1.375-.63-1.987-.74-2.304-1.025.365-.443 1.14-.304 2.304 1.025" style="fill:#f7f3f1;fill-opacity:1;stroke:#dac7be;stroke-width:.0844845;stroke-linecap:round;stroke-linejoin:round;stroke-miterlimit:2;stroke-dasharray:none;stroke-opacity:1" transform="matrix(-1.50954 -.3061 -.12628 1.5987 -28.94 16.297)"/><path d="M-25.277-1.45c-3.817-1.72-4.358-2.879-4.358-2.879.294-.894 3.499-1.765 4.358 2.88" style="display:inline;fill:#f7f3f1;fill-opacity:1;stroke:#dac7be;stroke-width:.0844845;stroke-linecap:round;stroke-linejoin:round;stroke-miterlimit:2;stroke-dasharray:none;stroke-opacity:1" transform="matrix(-1.50954 -.3061 -.12628 1.5987 -28.94 16.297)"/><path d="M-24.985-.48c-.285-.456-.241-3.848-.584-1.863-.351-.171-.787-.703-.421.43-2.31-1.037.712.672 1.005 1.433" style="fill:#748e28;fill-opacity:1;stroke:#5a6e1f;stroke-width:.0844845;stroke-linecap:round;stroke-linejoin:round;stroke-miterlimit:2;stroke-dasharray:none;stroke-opacity:1" transform="matrix(-1.50954 -.3061 -.12628 1.5987 -28.94 16.297)"/></g><g style="display:inline;stroke-width:1.48581"><path d="M168.07 166.014c-.72-.09-.855-2.025-2.183-2.947 1.283-1.71 5.601.18 5.601.18-2.564.652-2.474 2.812-3.419 2.767" style="fill:#f7f3f1;fill-opacity:1;stroke:#dac7be;stroke-width:.196561;stroke-linecap:round;stroke-linejoin:round;stroke-miterlimit:2" transform="rotate(-10.307 -420.507 645.321)scale(.6731 .67296)"/><path d="M167.192 162.865c-.09.54-1.483 1.006-1.597.764-1.5-3.17 4.184-4.543 4.184-4.543s2.897 3.253 1.8 4.7c-.2.264-3.96-.09-4.387-.921" style="fill:#f7f3f1;fill-opacity:1;stroke:#dac7be;stroke-width:.196561;stroke-linecap:round;stroke-linejoin:round;stroke-miterlimit:2" transform="rotate(-10.307 -420.507 645.321)scale(.6731 .67296)"/></g><path d="M120.379 112.76c.322-.409.865-.522 1.228-.158.817.82 3.398 6.521 1.585 9.41l-2.085.063c-1.824-2.9-1.105-8.835-.728-9.315" style="display:inline;fill:#f7f3f1;fill-opacity:1;stroke:#dac7be;stroke-width:.196561;stroke-linecap:round;stroke-linejoin:round;stroke-miterlimit:2" transform="matrix(.66224 -.12043 .1204 .6621 -87.723 -47.575)"/><g style="display:inline;stroke-width:1.27223" transform="matrix(.77368 -.1407 .14057 .773 -144.276 -76.49)"><ellipse cx="225.719" cy="36.466" rx="1.867" ry=".9" style="fill:#afc04f;fill-opacity:1;stroke:#8b9a37;stroke-width:.168305;stroke-linecap:round;stroke-linejoin:round;stroke-miterlimit:2;stroke-opacity:1" transform="rotate(33.577)"/><ellipse cx="225.034" cy="-32.995" rx="1.867" ry=".9" style="display:inline;fill:#afc04f;fill-opacity:1;stroke:#8b9a37;stroke-width:.168305;stroke-linecap:round;stroke-linejoin:round;stroke-miterlimit:2;stroke-opacity:1" transform="rotate(50.85)skewX(.002)"/><ellipse cx="-57.26" cy="224.05" rx="1.867" ry=".9" style="display:inline;fill:#afc04f;fill-opacity:1;stroke:#8b9a37;stroke-width:.168305;stroke-linecap:round;stroke-linejoin:round;stroke-miterlimit:2;stroke-opacity:1" transform="rotate(146.423)scale(1 -1)"/><ellipse cx="228.623" cy="-8.347" rx="1.867" ry=".9" style="fill:#afc04f;fill-opacity:1;stroke:#8b9a37;stroke-width:.168305;stroke-linecap:round;stroke-linejoin:round;stroke-miterlimit:2;stroke-opacity:1" transform="rotate(44.438)"/><ellipse cx="156.116" cy="166.905" rx=".799" ry="1.991" style="fill:#afc04f;fill-opacity:1;stroke:#8b9a37;stroke-width:.168305;stroke-linecap:round;stroke-linejoin:round;stroke-miterlimit:2;stroke-opacity:1" transform="rotate(-4.955)"/><ellipse cx="18.116" cy="171.248" rx="1.451" ry=".709" style="display:inline;fill:#afc04f;fill-opacity:1;stroke:#8b9a37;stroke-width:.168305;stroke-linecap:round;stroke-linejoin:round;stroke-miterlimit:2;stroke-opacity:1" transform="rotate(-40.12 70.365 -46.897)"/><ellipse cx="123.114" cy="121.157" rx="1.44" ry="1.215" style="display:inline;fill:#afc04f;fill-opacity:1;stroke:#8b9a37;stroke-width:.168305;stroke-linecap:round;stroke-linejoin:round;stroke-miterlimit:2;stroke-opacity:1" transform="translate(46.778 34.307)"/></g></g><g style="display:inline;stroke-width:2.61164"><path d="M219.532 252.663c2.926-6.744 30.812 17.182 35.693 15.143-5.217-2.355-23.605-33.976-35.693-15.143" style="fill:#80a167;fill-opacity:1;stroke:#536b42;stroke-width:.518246;stroke-linecap:round;stroke-linejoin:round;stroke-miterlimit:2;stroke-dasharray:none;stroke-opacity:1" transform="matrix(-.18344 -.34326 -.24702 .337 113.157 65.326)"/><path d="M219.532 252.663c4.903-8.143 32.634 17.077 35.693 15.143" style="fill:none;fill-opacity:1;stroke:#536b42;stroke-width:.518246;stroke-linecap:round;stroke-linejoin:round;stroke-miterlimit:2;stroke-dasharray:none;stroke-opacity:1" transform="matrix(-.18344 -.34326 -.24702 .337 113.157 65.326)"/></g><g style="display:inline;stroke-width:2.29128"><path d="M219.432 250.662c-4.409-1.44-28.975 8.458-32.934 5.264.18-3.734 25.421-17.501 32.934-5.264" style="display:inline;fill:#80a167;fill-opacity:1;stroke:#536b42;stroke-width:.454675;stroke-linecap:round;stroke-linejoin:round;stroke-miterlimit:2;stroke-dasharray:none;stroke-opacity:1" transform="matrix(-.35091 .0012 -.0029 .54281 87.262 -92.851)"/><path d="M219.432 250.662c-7.648-6.478-30.37 5.714-32.934 5.264" style="display:inline;fill:none;fill-opacity:1;stroke:#536b42;stroke-width:.454675;stroke-linecap:round;stroke-linejoin:round;stroke-miterlimit:2;stroke-dasharray:none;stroke-opacity:1" transform="matrix(-.35091 .0012 -.0029 .54281 87.262 -92.851)"/></g><g style="display:inline;stroke-width:2.85016"><path d="M219.432 250.662c-4.409-1.44-28.975 8.458-32.934 5.264.18-3.734 25.421-17.501 32.934-5.264" style="display:inline;fill:#80a167;fill-opacity:1;stroke:#536b42;stroke-width:.565578;stroke-linecap:round;stroke-linejoin:round;stroke-miterlimit:2;stroke-dasharray:none;stroke-opacity:1" transform="matrix(.27314 .04785 -.03902 .44385 -40.59 -93.618)"/><path d="M219.432 250.662c-7.648-6.478-30.37 5.714-32.934 5.264" style="display:inline;fill:none;fill-opacity:1;stroke:#536b42;stroke-width:.565578;stroke-linecap:round;stroke-linejoin:round;stroke-miterlimit:2;stroke-dasharray:none;stroke-opacity:1" transform="matrix(.27314 .04785 -.03902 .44385 -40.59 -93.618)"/></g><g style="display:inline;stroke-width:2.46759"><path d="M219.532 252.663c2.926-6.744 30.812 17.182 35.693 15.143-5.217-2.355-23.605-33.976-35.693-15.143" style="fill:#80a167;fill-opacity:1;stroke:#536b42;stroke-width:.489659;stroke-linecap:round;stroke-linejoin:round;stroke-miterlimit:2;stroke-dasharray:none;stroke-opacity:1" transform="matrix(.3118 -.23325 .19842 .3783 -108.806 23.32)"/><path d="M219.532 252.663c4.903-8.143 32.634 17.077 35.693 15.143" style="fill:none;fill-opacity:1;stroke:#536b42;stroke-width:.489659;stroke-linecap:round;stroke-linejoin:round;stroke-miterlimit:2;stroke-dasharray:none;stroke-opacity:1" transform="matrix(.3118 -.23325 .19842 .3783 -108.806 23.32)"/></g><g style="display:inline;stroke-width:3.10076"><path d="M219.532 252.663c2.926-6.744 30.812 17.182 35.693 15.143-5.217-2.355-23.605-33.976-35.693-15.143" style="fill:#80a167;fill-opacity:1;stroke:#536b42;stroke-width:.615303;stroke-linecap:round;stroke-linejoin:round;stroke-miterlimit:2;stroke-dasharray:none;stroke-opacity:1" transform="matrix(-.22683 -.16968 -.08404 .39566 80.536 -25.894)"/><path d="M219.532 252.663c4.903-8.143 32.634 17.077 35.693 15.143" style="fill:none;fill-opacity:1;stroke:#536b42;stroke-width:.615303;stroke-linecap:round;stroke-linejoin:round;stroke-miterlimit:2;stroke-dasharray:none;stroke-opacity:1" transform="matrix(-.22683 -.16968 -.08404 .39566 80.536 -25.894)"/></g><g style="display:inline;stroke-width:1.98947"><path d="M168.628 244.049c-7.603 3.644 7.423 16.286 10.033 15.386-.855-.36-4.454-22.81-10.033-15.386" style="display:inline;fill:#80a167;fill-opacity:1;stroke:#536b42;stroke-width:.394786;stroke-linecap:round;stroke-linejoin:round;stroke-miterlimit:2;stroke-dasharray:none;stroke-opacity:1" transform="matrix(.64207 .17313 -.18184 .34447 -54.605 -64.491)"/><path d="M168.628 244.049c.675.36 8.143 15.701 10.033 15.386" style="display:inline;fill:none;fill-opacity:1;stroke:#536b42;stroke-width:.394786;stroke-linecap:round;stroke-linejoin:round;stroke-miterlimit:2;stroke-dasharray:none;stroke-opacity:1" transform="matrix(.64207 .17313 -.18184 .34447 -54.605 -64.491)"/></g><g style="display:inline;stroke-width:2.44358"><path d="M219.432 250.662c-4.409-1.44-28.975 8.458-32.934 5.264.18-3.734 25.421-17.501 32.934-5.264" style="display:inline;fill:#80a167;fill-opacity:1;stroke:#536b42;stroke-width:.484898;stroke-linecap:round;stroke-linejoin:round;stroke-miterlimit:2;stroke-dasharray:none;stroke-opacity:1" transform="matrix(.24248 .24456 -.30695 .38108 33.43 -81.753)"/><path d="M219.432 250.662c-7.648-6.478-30.37 5.714-32.934 5.264" style="display:inline;fill:none;fill-opacity:1;stroke:#536b42;stroke-width:.484898;stroke-linecap:round;stroke-linejoin:round;stroke-miterlimit:2;stroke-dasharray:none;stroke-opacity:1" transform="matrix(.24248 .24456 -.30695 .38108 33.43 -81.753)"/></g><g style="display:inline;stroke-width:1.88372"><path d="M168.628 244.049c-7.603 3.644 7.423 16.286 10.033 15.386-.855-.36-4.454-22.81-10.033-15.386" style="display:inline;fill:#80a167;fill-opacity:1;stroke:#536b42;stroke-width:.373799;stroke-linecap:round;stroke-linejoin:round;stroke-miterlimit:2;stroke-dasharray:none;stroke-opacity:1" transform="matrix(-.60118 -.12044 -.09053 .45064 132.894 -32.537)"/><path d="M168.628 244.049c.675.36 8.143 15.701 10.033 15.386" style="display:inline;fill:none;fill-opacity:1;stroke:#536b42;stroke-width:.373799;stroke-linecap:round;stroke-linejoin:round;stroke-miterlimit:2;stroke-dasharray:none;stroke-opacity:1" transform="matrix(-.60118 -.12044 -.09053 .45064 132.894 -32.537)"/></g></g></g></svg>