<svg xmlns="http://www.w3.org/2000/svg" xml:space="preserve" width="150.253" height="150.384" viewBox="0 0 39.754 39.789"><path d="M23.569 28.88s2.043-3.226 3.494-2.691c0 1.89-1.528 2.405-2.024 2.768 0 0 2.367-1.05 3.876.592-1.318 1.642-4.392.496-4.392.496 2.082 1.203 1.26 1.91 2.005 3.552-1.795-.134-3.322-.879-3.322-3.208-.267 2.692-1.49 2.902-2.54 3.857.249-1.738-1.66-2.31 1.624-4.353-3.838 1.603-3.456.42-5.575-.172 1.813-.707 2.119-2.406 5.136-1.031-1.91-2.005-1.967-2.845-1.872-4.659 1.432 1.375 1.776.86 2.502 2.979 0 0 .649-3.131 1.107-3.761 1.24 2.71-.02 5.632-.02 5.632" style="fill:#426c2b;fill-opacity:1;stroke:none;stroke-width:.238187;stroke-linecap:round;stroke-linejoin:round;stroke-miterlimit:2;stroke-dasharray:none;stroke-opacity:1" transform="translate(8.762 4.569)"/><path d="M22.097 33.93s2.043-3.226 3.494-2.692c0 1.89-1.528 2.406-2.024 2.769 0 0 2.367-1.05 3.876.592-1.318 1.641-4.392.496-4.392.496 2.081 1.203 1.26 1.91 2.005 3.551-1.795-.134-3.322-.878-3.322-3.207-.267 2.692-1.49 2.902-2.54 3.856.249-1.737-1.66-2.31 1.624-4.353-3.838 1.604-3.456.42-5.575-.172 1.813-.706 2.119-2.405 5.135-1.03-1.909-2.005-1.966-2.845-1.87-4.66 1.431 1.375 1.775.86 2.5 2.98 0 0 .65-3.132 1.108-3.762 1.24 2.711-.02 5.632-.02 5.632" style="fill:#426c2b;fill-opacity:1;stroke:none;stroke-width:.238187;stroke-linecap:round;stroke-linejoin:round;stroke-miterlimit:2;stroke-dasharray:none;stroke-opacity:1" transform="translate(8.762 4.569)"/><path d="M71.414 58.507s3.173.233 3.35 1.509c-1.388.743-2.367-.177-2.828-.399 0 0 1.702 1.327 1.088 3.08-1.724-.323-2.09-3.03-2.09-3.03-.066 2-.908 1.675-1.821 2.868-.607-1.371-.66-2.786 1.05-3.701-2.082.861-2.717.046-3.83-.35 1.373-.5 1.044-2.128 3.835-.519-2.686-2.189-1.667-2.373-2.065-4.163 1.232 1.055 2.6.612 2.776 3.368.722-2.19 1.317-2.563 2.687-3.205-.447 1.592.067 1.642-1.205 3.007 0 0 2.555-.753 3.198-.664-1.504 1.977-4.145 2.2-4.145 2.2M46.106 57.334s3.173.232 3.351 1.508c-1.388.743-2.367-.176-2.829-.398 0 0 1.702 1.326 1.088 3.08-1.723-.323-2.09-3.031-2.09-3.031-.066 2.001-.907 1.676-1.82 2.868-.608-1.37-.661-2.785 1.05-3.7-2.083.86-2.717.046-3.831-.35 1.374-.501 1.044-2.129 3.835-.52-2.686-2.188-1.666-2.373-2.064-4.162 1.231 1.055 2.6.611 2.775 3.368.723-2.19 1.317-2.563 2.687-3.206-.447 1.592.067 1.642-1.205 3.008 0 0 2.555-.754 3.198-.665-1.504 1.977-4.145 2.2-4.145 2.2" style="fill:#426c2b;fill-opacity:1;stroke:none;stroke-width:.198437;stroke-linecap:round;stroke-linejoin:round;stroke-miterlimit:2;stroke-dasharray:none;stroke-opacity:1" transform="translate(-38.015 -29.738)"/><path d="M46.248 50.067s3.173-.232 3.35-1.509c-1.388-.742-2.367.177-2.829.4 0 0 1.702-1.327 1.089-3.08-1.724.322-2.09 3.03-2.09 3.03-.066-2.001-.908-1.676-1.822-2.868-.607 1.37-.66 2.785 1.051 3.7-2.082-.86-2.717-.046-3.83.35 1.373.501 1.043 2.129 3.835.52-2.687 2.188-1.667 2.373-2.065 4.162 1.232-1.055 2.6-.611 2.776-3.368.722 2.19 1.317 2.563 2.686 3.206-.447-1.592.067-1.642-1.205-3.008 0 0 2.556.754 3.199.665-1.504-1.978-4.145-2.2-4.145-2.2M69.528 53.647s2.573 1.872 2.05 3.05c-1.571-.102-1.918-1.4-2.193-1.832 0 0 .746 2.025-.7 3.19-1.294-1.183-.177-3.677-.177-3.677-1.111 1.666-1.655.945-3.06 1.476.208-1.485.909-2.715 2.845-2.59-2.223-.366-2.332-1.394-3.07-2.318 1.432.3 2.01-1.257 3.532 1.583-1.127-3.276-.163-2.895.443-4.625.49 1.545 1.886 1.89.581 4.325 1.77-1.48 2.47-1.482 3.974-1.305-1.22 1.116-.81 1.43-2.611 1.919 0 0 2.568.708 3.067 1.123-2.32.886-4.681-.319-4.681-.319" style="fill:#426c2b;fill-opacity:1;stroke:none;stroke-width:.198437;stroke-linecap:round;stroke-linejoin:round;stroke-miterlimit:2;stroke-dasharray:none;stroke-opacity:1" transform="translate(-38.015 -29.738)"/><path d="M1.38 15.032s3.172.232 3.35 1.508c-1.389.743-2.367-.176-2.829-.398 0 0 1.702 1.326 1.088 3.08C1.265 18.898.9 16.19.9 16.19c-.066 2.001-.907 1.676-1.82 2.868-.608-1.371-.661-2.786 1.05-3.701-2.083.862-2.717.047-3.831-.35 1.374-.5 1.044-2.128 3.835-.518-2.686-2.19-1.666-2.374-2.065-4.163 1.232 1.055 2.6.611 2.776 3.367.723-2.19 1.317-2.562 2.687-3.205-.447 1.592.067 1.642-1.205 3.008 0 0 2.555-.754 3.198-.665-1.504 1.977-4.145 2.2-4.145 2.2" style="fill:#426c2b;fill-opacity:1;stroke:none;stroke-width:.198437;stroke-linecap:round;stroke-linejoin:round;stroke-miterlimit:2;stroke-dasharray:none;stroke-opacity:1" transform="translate(8.762 4.569)"/><path d="M45.917 63.124s2.057-3.248 3.517-2.71c0 1.903-1.537 2.422-2.037 2.787 0 0 2.383-1.057 3.902.596-1.327 1.653-4.42.5-4.42.5 2.094 1.21 1.268 1.922 2.017 3.575-1.807-.135-3.344-.884-3.344-3.23-.27 2.71-1.5 2.922-2.556 3.883.25-1.749-1.672-2.325 1.633-4.382-3.863 1.614-3.478.423-5.612-.173 1.826-.711 2.134-2.422 5.17-1.038-1.922-2.018-1.98-2.864-1.883-4.69 1.441 1.384 1.787.865 2.518 2.999 0 0 .653-3.152 1.114-3.787 1.25 2.73-.019 5.67-.019 5.67" style="fill:#426c2b;fill-opacity:1;stroke:none;stroke-width:.239778;stroke-linecap:round;stroke-linejoin:round;stroke-miterlimit:2;stroke-dasharray:none;stroke-opacity:1" transform="translate(-38.015 -29.738)"/><path d="M21.51 15.723s-2.934 1.228-2.697 2.495c1.552.263 2.189-.92 2.556-1.277 0 0-1.193 1.798-.054 3.266 1.532-.854 1.02-3.538 1.02-3.538.698 1.877 1.392 1.3 2.637 2.141.14-1.493-.259-2.851-2.172-3.175 2.248.155 2.591-.82 3.521-1.55-1.461-.037-1.666-1.685-3.801.728 1.851-2.93.826-2.78.635-4.603-.833 1.391-2.271 1.405-1.562 4.075-1.38-1.848-2.063-2.012-3.566-2.186.93 1.368.458 1.578 2.098 2.47 0 0-2.662.096-3.243.385 2.054 1.397 4.629.769 4.629.769M6.997 14.62s3.173-.232 3.35-1.508c-1.388-.743-2.367.176-2.828.398 0 0 1.702-1.326 1.088-3.08-1.724.323-2.09 3.031-2.09 3.031-.066-2.001-.908-1.676-1.821-2.868-.607 1.37-.66 2.785 1.05 3.7-2.082-.86-2.717-.046-3.83.35 1.373.501 1.044 2.129 3.835.52-2.686 2.188-1.667 2.373-2.065 4.162 1.232-1.055 2.6-.611 2.776-3.368.722 2.19 1.317 2.563 2.687 3.206-.447-1.592.067-1.642-1.205-3.008 0 0 2.555.754 3.198.665-1.504-1.977-4.145-2.2-4.145-2.2" style="fill:#426c2b;fill-opacity:1;stroke:none;stroke-width:.198437;stroke-linecap:round;stroke-linejoin:round;stroke-miterlimit:2;stroke-dasharray:none;stroke-opacity:1" transform="translate(8.762 4.569)"/><path d="M10.267 13.636s-3.173-.233-3.351-1.509c1.389-.742 2.367.177 2.83.4 0 0-1.703-1.327-1.09-3.08 1.725.322 2.091 3.03 2.091 3.03.066-2.001.907-1.676 1.82-2.868.608 1.37.661 2.785-1.05 3.7 2.083-.86 2.717-.046 3.831.35-1.374.5-1.044 2.129-3.835.52 2.686 2.188 1.666 2.373 2.065 4.162-1.232-1.055-2.6-.611-2.776-3.368-.723 2.19-1.317 2.563-2.687 3.206.447-1.592-.067-1.642 1.205-3.008 0 0-2.555.754-3.198.665 1.504-1.978 4.145-2.2 4.145-2.2" style="fill:#426c2b;fill-opacity:1;stroke:none;stroke-width:.198437;stroke-linecap:round;stroke-linejoin:round;stroke-miterlimit:2;stroke-dasharray:none;stroke-opacity:1" transform="translate(8.762 4.569)"/><path d="M15.911 13.928s-2.62-1.804-2.13-2.995c1.574.06 1.955 1.349 2.24 1.774 0 0-.798-2.005.617-3.208 1.325 1.15.273 3.672.273 3.672 1.068-1.694 1.63-.988 3.02-1.556-.168 1.49-.837 2.738-2.776 2.663 2.233.309 2.368 1.333 3.13 2.238-1.439-.263-1.977 1.309-3.573-1.49 1.213 3.245.24 2.89-.321 4.635-.53-1.533-1.935-1.841-.694-4.309-1.73 1.526-2.431 1.546-3.938 1.409 1.19-1.148.772-1.45 2.56-1.987 0 0-2.586-.64-3.096-1.042 2.297-.947 4.688.196 4.688.196" style="fill:#426c2b;fill-opacity:1;stroke:none;stroke-width:.198437;stroke-linecap:round;stroke-linejoin:round;stroke-miterlimit:2;stroke-dasharray:none;stroke-opacity:1" transform="translate(8.762 4.569)"/><path d="M-1.44-37.371h24.114v21.821H-1.44z" style="fill:#426c2b;fill-opacity:1;stroke:none;stroke-width:.166133;stroke-linecap:round;stroke-linejoin:round;stroke-miterlimit:2;stroke-dasharray:none;stroke-opacity:1" transform="matrix(1 0 0 -1 8.762 4.569)"/><path d="M-.67-2.602C2.613-5.88 1.042 13.781 1.042 13.781l.302.016S2.877-6.706-.67-2.602" style="fill:#65924d;fill-opacity:1;stroke:none;stroke-width:.198437;stroke-linecap:round;stroke-linejoin:round;stroke-miterlimit:2;stroke-dasharray:none;stroke-opacity:1" transform="translate(8.762 4.569)"/><path d="M3.923-.168C.639-3.446 2.21 16.215 2.21 16.215l-.302.015S.376-4.272 3.923-.168M8.261.4C4.978-2.877 6.55 16.784 6.55 16.784l-.302.016S4.714-3.703 8.26.401M13.977 4.396c-3.283-3.278-1.712 16.383-1.712 16.383l-.303.016S10.43.292 13.977 4.396" style="fill:#65924d;fill-opacity:1;stroke:none;stroke-width:.198437;stroke-linecap:round;stroke-linejoin:round;stroke-miterlimit:2;stroke-dasharray:none;stroke-opacity:1" transform="translate(8.762 4.569)"/><path d="M18.55 5.941c-2.495-3.814-4.809 15.5-4.809 15.5l-.29-.044s2.512-20.12 5.098-15.456" style="fill:#65924d;fill-opacity:1;stroke:none;stroke-width:.194377;stroke-linecap:round;stroke-linejoin:round;stroke-miterlimit:2;stroke-dasharray:none;stroke-opacity:1" transform="translate(8.762 4.569)"/><path d="M12.733-2.237c3.37-3.19 1.273 16.422 1.273 16.422l.302.024s2.08-20.454-1.575-16.446M19.865-.773c-3.37-3.189-1.273 16.423-1.273 16.423l-.302.024S16.21-4.78 19.865-.773" style="fill:#65924d;fill-opacity:1;stroke:none;stroke-width:.198437;stroke-linecap:round;stroke-linejoin:round;stroke-miterlimit:2;stroke-dasharray:none;stroke-opacity:1" transform="translate(8.762 4.569)"/><path d="M16.27.41c-3.37-2.777-1.273 14.297-1.273 14.297l-.302.021S12.615-3.08 16.27.41" style="fill:#65924d;fill-opacity:1;stroke:none;stroke-width:.185157;stroke-linecap:round;stroke-linejoin:round;stroke-miterlimit:2;stroke-dasharray:none;stroke-opacity:1" transform="translate(8.762 4.569)"/><path d="M4.767 5.585C8.05 3.212 6.479 17.443 6.479 17.443l.302.012s1.533-14.84-2.014-11.87M-2.784 10.104C.221 7.386.214 21.704.214 21.704l.301-.022S.418 6.764-2.784 10.104" style="fill:#65924d;fill-opacity:1;stroke:none;stroke-width:.168826;stroke-linecap:round;stroke-linejoin:round;stroke-miterlimit:2;stroke-dasharray:none;stroke-opacity:1" transform="translate(8.762 4.569)"/><path d="M21.918 10.184c-3.284-1.985-1.713 9.92-1.713 9.92l-.302.01s-1.532-12.415 2.015-9.93" style="fill:#65924d;fill-opacity:1;stroke:none;stroke-width:.154415;stroke-linecap:round;stroke-linejoin:round;stroke-miterlimit:2;stroke-dasharray:none;stroke-opacity:1" transform="translate(8.762 4.569)"/><path d="M-2.68 34.117c-1.822-2.632-4.319-2.857-4.319-2.857-.224 1.08 2.025 2.317 2.025 2.317-.247.225-2.07-.99-3.69.675 1.013 1.754 4.815.225 5.197.517-2.16 2.002-.247 2.114.45 4.229.652-1.597 2.047-1.755.922-3.914.383-.023 1.238 2.632 4.5 2.587-.518-3.104-3.847-3.127-3.69-3.464 0 0 3.24-.225 4.971.27-2.586-3.06-5.06-1.193-5.06-1.193-.113-.517 2.609-.877 2.384-4.409-2.025.248-3.015 2.655-3.015 2.655s-.225-2.025-.922-2.452c-1.417 1.125.315 4.521.247 5.039M26.247 33.551s1.89-2.559 3.064-2.028c-.113 1.57-1.413 1.908-1.847 2.18 0 0 2.03-.731 3.185.723-1.193 1.286-3.679.15-3.679.15 1.658 1.124.933 1.662 1.454 3.07-1.484-.218-2.708-.928-2.569-2.863-.383 2.22-1.411 2.322-2.34 3.052.31-1.428-1.243-2.019 1.608-3.52-3.285 1.103-2.896.143-4.622-.476 1.55-.479 1.905-1.872 4.33-.55-1.467-1.78-1.464-2.481-1.277-3.982 1.108 1.228 1.424.82 1.9 2.624 0 0 .727-2.563 1.146-3.059.869 2.327-.353 4.68-.353 4.68" style="fill:#79bb54;fill-opacity:1;stroke:#497830;stroke-width:.198437;stroke-linecap:round;stroke-linejoin:round;stroke-miterlimit:2;stroke-dasharray:none;stroke-opacity:1" transform="translate(8.762 4.569)"/><path d="M18.354 33.787c-.077.02.267-3.37-2.668-3.742-.967 1.294 2.068 3.897 2.068 3.897-2.88-1.867-2.438-.959-4.406-.97.73 1.417 1.91 1.625 4.294 1.4-2.238 1.034-1.536 2.082-1.368 3.77 1.013-1.339 1.945-1.081 1.877-3.42 1.238 1.878.956 1.587 3.531 2.195-.81-2.239-1.236-2.179-2.879-2.561 0 0 3.101.088 3.213-1.543-2.024-1.406-3.662.974-3.662.974M6.224 34.1c-.077.02.267-3.371-2.669-3.742-.967 1.293 2.068 3.897 2.068 3.897-2.88-1.867-2.438-.96-4.406-.97.731 1.417 1.91 1.624 4.295 1.4-2.238 1.034-1.537 2.082-1.368 3.769 1.012-1.338 1.944-1.08 1.877-3.42 1.237 1.879.955 1.588 3.531 2.195-.81-2.238-1.237-2.178-2.879-2.56 0 0 3.1.087 3.213-1.544-2.025-1.405-3.662.975-3.662.975M-3.633 26.567c-.077.02.267-3.371-2.669-3.742-.967 1.293 2.068 3.897 2.068 3.897-2.88-1.867-2.438-.96-4.406-.97.731 1.416 1.91 1.624 4.295 1.4-2.238 1.034-1.537 2.082-1.368 3.769 1.012-1.339 1.944-1.08 1.877-3.42 1.237 1.878.955 1.588 3.53 2.195-.809-2.238-1.236-2.178-2.878-2.56 0 0 3.1.087 3.213-1.544-2.025-1.406-3.662.975-3.662.975M27.067 24.71c-.018.078 3.36-.375 3.826 2.547-1.262 1.009-3.961-1.941-3.961-1.941 1.958 2.818 1.036 2.406 1.11 4.372-1.44-.685-1.684-1.857-1.536-4.247-.962 2.27-2.032 1.603-3.724 1.488 1.305-1.054 1.017-1.978 3.358-1.986-1.917-1.176-1.618-.904-2.308-3.458 2.263.737 2.217 1.166 2.652 2.795 0 0-.187-3.096 1.44-3.261 1.47 1.978-.857 3.692-.857 3.692" style="fill:#79bb54;fill-opacity:1;stroke:#497830;stroke-width:.198437;stroke-linecap:round;stroke-linejoin:round;stroke-miterlimit:2;stroke-dasharray:none;stroke-opacity:1" transform="translate(8.762 4.569)"/><path d="M3.628 27.722c.077.02-.267-3.37 2.668-3.742.968 1.293-2.067 3.897-2.067 3.897 2.879-1.867 2.437-.96 4.406-.97-.731 1.417-1.91 1.624-4.295 1.4 2.238 1.034 1.537 2.082 1.368 3.77-1.012-1.34-1.945-1.081-1.877-3.42C2.594 30.534 2.875 30.243.3 30.85c.81-2.238 1.237-2.178 2.879-2.56 0 0-3.1.087-3.213-1.543 2.024-1.406 3.662.974 3.662.974" style="fill:#79bb54;fill-opacity:1;stroke:#497830;stroke-width:.198437;stroke-linecap:round;stroke-linejoin:round;stroke-miterlimit:2;stroke-dasharray:none;stroke-opacity:1" transform="translate(8.762 4.569)"/><path d="M11.409 30.258c2.99 1.145 5.178-.078 5.178-.078-.424-1.019-2.979-.771-2.979-.771.077-.325 2.267-.35 2.665-2.639-1.825-.877-4.101 2.53-4.582 2.505.653-2.871-.989-1.886-2.757-3.238.362 1.687-.7 2.604 1.446 3.752-.303.234-2.506-1.475-5.174.402 2.179 2.272 4.94.412 5 .78 0 0-2.547 2.013-4.256 2.581 3.862 1.067 4.851-1.871 4.851-1.871.385.364-1.659 2.197.52 4.986 1.531-1.347.99-3.893.99-3.893s1.328 1.545 2.145 1.504c.536-1.728-2.81-3.555-3.047-4.02" style="fill:#79bb54;fill-opacity:1;stroke:#497830;stroke-width:.198437;stroke-linecap:round;stroke-linejoin:round;stroke-miterlimit:2;stroke-dasharray:none;stroke-opacity:1" transform="translate(8.762 4.569)"/><path d="M20.128 30.252s-2.801 1.51-2.442 2.747c1.57.11 2.089-1.13 2.42-1.52 0 0-1.012 1.906.264 3.255 1.442-.999.67-3.62.67-3.62.877 1.8 1.513 1.159 2.834 1.874-.007-1.5-.536-2.813-2.472-2.949 2.253-.064 2.5-1.068 3.354-1.884-1.458.104-1.823-1.516-3.713 1.094 1.558-3.096.552-2.848.184-4.644-.693 1.466-2.123 1.62-1.157 4.208-1.555-1.704-2.25-1.8-3.763-1.827 1.06 1.27.61 1.526 2.33 2.252 0 0-2.64.357-3.191.7 2.18 1.19 4.682.314 4.682.314M.344 25.214s-2.8 1.51-2.442 2.746c1.571.11 2.089-1.128 2.42-1.52 0 0-1.012 1.906.265 3.256 1.441-.999.67-3.62.67-3.62.877 1.8 1.512 1.159 2.833 1.874-.006-1.5-.535-2.813-2.471-2.949 2.253-.065 2.499-1.068 3.354-1.885-1.459.105-1.823-1.515-3.713 1.094 1.557-3.095.551-2.847.183-4.643C.75 21.033-.68 21.187.286 23.775c-1.554-1.704-2.25-1.8-3.762-1.828 1.059 1.27.61 1.526 2.329 2.253 0 0-2.64.357-3.19.7 2.18 1.19 4.681.314 4.681.314" style="fill:#79bb54;fill-opacity:1;stroke:#497830;stroke-width:.198437;stroke-linecap:round;stroke-linejoin:round;stroke-miterlimit:2;stroke-dasharray:none;stroke-opacity:1" transform="translate(8.762 4.569)"/><path d="M9.071 24.093c-.07.019.243-3.06-2.422-3.397-.878 1.174 1.877 3.538 1.877 3.538-2.614-1.695-2.213-.87-4-.881.664 1.287 1.734 1.475 3.9 1.27-2.033.94-1.396 1.892-1.243 3.424.92-1.216 1.766-.981 1.704-3.105 1.124 1.705.868 1.441 3.206 1.993-.735-2.033-1.123-1.978-2.614-2.326 0 0 2.816.08 2.918-1.4-1.838-1.277-3.326.884-3.326.884" style="fill:#79bb54;fill-opacity:1;stroke:#497830;stroke-width:.180172;stroke-linecap:round;stroke-linejoin:round;stroke-miterlimit:2;stroke-dasharray:none;stroke-opacity:1" transform="translate(8.762 4.569)"/><path d="M15.885 22.938s1.702-2.688 2.911-2.242c0 1.574-1.273 2.004-1.686 2.306 0 0 1.972-.875 3.229.493-1.098 1.368-3.659.414-3.659.414 1.734 1.002 1.05 1.59 1.67 2.958-1.495-.111-2.767-.732-2.767-2.672-.223 2.243-1.24 2.418-2.116 3.213.207-1.448-1.383-1.925 1.352-3.627-3.197 1.336-2.879.35-4.644-.143 1.51-.588 1.765-2.004 4.279-.859-1.591-1.67-1.639-2.37-1.56-3.88 1.194 1.144 1.48.715 2.084 2.48 0 0 .541-2.608.923-3.133 1.034 2.259-.016 4.692-.016 4.692" style="fill:#79bb54;fill-opacity:1;stroke:#497830;stroke-width:.198437;stroke-linecap:round;stroke-linejoin:round;stroke-miterlimit:2;stroke-dasharray:none;stroke-opacity:1" transform="translate(8.762 4.569)"/><path d="M22.576 23.878c-.07.018.243-3.06-2.422-3.398-.879 1.174 1.877 3.538 1.877 3.538-2.614-1.695-2.213-.87-4-.88.663 1.286 1.734 1.475 3.899 1.27-2.032.94-1.395 1.891-1.242 3.423.919-1.215 1.765-.98 1.704-3.105 1.123 1.705.868 1.442 3.206 1.993-.735-2.032-1.123-1.978-2.614-2.325 0 0 2.815.08 2.918-1.401-1.839-1.277-3.326.885-3.326.885" style="fill:#79bb54;fill-opacity:1;stroke:#497830;stroke-width:.180172;stroke-linecap:round;stroke-linejoin:round;stroke-miterlimit:2;stroke-dasharray:none;stroke-opacity:1" transform="translate(8.762 4.569)"/><path d="M-.198 18.684c-2.351-2.172-4.837-1.847-4.837-1.847.015 1.103 2.48 1.82 2.48 1.82-.192.273-2.235-.515-3.453 1.462 1.37 1.492 4.747-.829 5.184-.627-1.671 2.425.22 2.118 1.36 4.03.29-1.701 1.616-2.159.048-4.021.368-.106 1.78 2.299 4.954 1.544-1.181-2.917-4.435-2.214-4.355-2.577 0 0 3.112-.925 4.91-.82-3.19-2.422-5.199-.06-5.199-.06-.222-.481 2.356-1.425 1.367-4.823-1.922.682-2.364 3.247-2.364 3.247s-.66-1.927-1.434-2.192c-1.138 1.407 1.292 4.344 1.34 4.864" style="fill:#79bb54;fill-opacity:1;stroke:#497830;stroke-width:.198437;stroke-linecap:round;stroke-linejoin:round;stroke-miterlimit:2;stroke-dasharray:none;stroke-opacity:1" transform="translate(8.762 4.569)"/><path d="M6.52 17.662c.07-.018-.242 3.06 2.423 3.398.878-1.175-1.877-3.539-1.877-3.539 2.614 1.696 2.213.871 4 .881-.664-1.286-1.734-1.475-3.9-1.27 2.033-.94 1.396-1.892 1.243-3.423-.92 1.215-1.766.98-1.704 3.105-1.124-1.706-.868-1.442-3.206-1.993.735 2.032 1.123 1.978 2.614 2.325 0 0-2.816-.08-2.918 1.4 1.838 1.277 3.326-.884 3.326-.884" style="fill:#79bb54;fill-opacity:1;stroke:#497830;stroke-width:.180172;stroke-linecap:round;stroke-linejoin:round;stroke-miterlimit:2;stroke-dasharray:none;stroke-opacity:1" transform="translate(8.762 4.569)"/><path d="M12.407 17.585c2.99-1.144 5.178.079 5.178.079-.423 1.018-2.979.77-2.979.77.078.326 2.268.35 2.666 2.639-1.826.877-4.102-2.53-4.583-2.505.654 2.872-.988 1.886-2.757 3.238.362-1.687-.7-2.603 1.447-3.752-.303-.234-2.507 1.475-5.174-.402 2.178-2.271 4.94-.412 5-.78 0 0-2.547-2.012-4.257-2.581 3.862-1.066 4.852 1.871 4.852 1.871.385-.364-1.66-2.196.519-4.985 1.532 1.346.99 3.892.99 3.892s1.329-1.545 2.146-1.504c.535 1.728-2.811 3.555-3.048 4.02" style="fill:#79bb54;fill-opacity:1;stroke:#497830;stroke-width:.198437;stroke-linecap:round;stroke-linejoin:round;stroke-miterlimit:2;stroke-dasharray:none;stroke-opacity:1" transform="translate(8.762 4.569)"/><path d="M20.119 19.436s-3.16-.368-3.575.851c1.224.991 2.359.272 2.854.14 0 0-1.921.984-1.648 2.82 1.754.008 2.623-2.583 2.623-2.583-.312 1.978.576 1.817 1.249 3.16.854-1.233 1.172-2.612-.336-3.833 1.883 1.238 2.66.557 3.828.377-1.255-.75-.625-2.286-3.67-1.23 3.05-1.645 2.084-2.018 2.811-3.7-1.408.804-2.668.11-3.36 2.785-.297-2.287-.81-2.765-2.035-3.653.14 1.647-.375 1.6.618 3.18 0 0-2.368-1.22-3.017-1.254 1.106 2.225 3.658 2.94 3.658 2.94" style="fill:#79bb54;fill-opacity:1;stroke:#497830;stroke-width:.198437;stroke-linecap:round;stroke-linejoin:round;stroke-miterlimit:2;stroke-dasharray:none;stroke-opacity:1" transform="translate(8.762 4.569)"/><path d="M5.129 13.254c-.07-.018.243 3.06-2.423 3.398-.878-1.175 1.878-3.538 1.878-3.538-2.615 1.695-2.214.87-4 .88.663-1.286 1.734-1.475 3.899-1.27-2.033-.94-1.396-1.891-1.242-3.423.919 1.215 1.765.98 1.704 3.105 1.123-1.706.867-1.442 3.206-1.993-.735 2.032-1.123 1.978-2.614 2.325 0 0 2.815-.08 2.917 1.4-1.838 1.277-3.325-.884-3.325-.884M17.905 13.971c.07-.018-.242 3.06 2.423 3.398.878-1.175-1.878-3.539-1.878-3.539 2.615 1.696 2.214.871 4 .881-.663-1.286-1.733-1.475-3.898-1.27 2.032-.94 1.395-1.891 1.242-3.423-.92 1.215-1.766.98-1.705 3.105-1.123-1.706-.867-1.442-3.206-1.993.736 2.032 1.123 1.978 2.614 2.325 0 0-2.815-.08-2.917 1.4 1.838 1.277 3.325-.884 3.325-.884" style="fill:#79bb54;fill-opacity:1;stroke:#497830;stroke-width:.180172;stroke-linecap:round;stroke-linejoin:round;stroke-miterlimit:2;stroke-dasharray:none;stroke-opacity:1" transform="translate(8.762 4.569)"/><path d="M-.665-3.013c.225-2.79 2.857-.135.191.101C2.349-3.44.819-.438-.553-2.698.774-.145-2.656-.932-.778-2.71-2.88-.426-3.196-4.464-.9-2.901c-2.621-1.45.618-2.553.236-.112M13.165-3.032c-.225-2.79-2.857-.135-.192.1-2.823-.528-1.293 2.475.08.215-1.328 2.553 2.102 1.765.224-.012 2.103 2.284 2.418-1.754.124-.19 2.62-1.452-.619-2.554-.236-.113M8.478-.18c-1.157-2.547-2.734.842-.146.16-2.835.46-.378 2.767.147.175-.384 2.852 2.577.949.208-.087 2.752 1.436 1.68-2.47.051-.222 1.974-2.253-1.447-2.192-.26-.025M.509 1.192c-1.157-2.548-2.734.841-.146.16-2.835.46-.378 2.766.147.175-.384 2.851 2.577.948.207-.087C3.47 2.875 2.398-1.03.77 1.218 2.743-1.035-.678-.975.509 1.192" style="fill:#d7b7ea;fill-opacity:1;stroke:#c699e1;stroke-width:.198437;stroke-linecap:round;stroke-linejoin:round;stroke-miterlimit:2;stroke-dasharray:none;stroke-opacity:1" transform="translate(8.762 4.569)"/><path d="M21.068 9.519c-1.298-2.86-3.068.944-.163.18-3.182.515-.425 3.104.164.195-.43 3.2 2.893 1.065.233-.097 3.09 1.611 1.887-2.772.058-.249 2.216-2.529-1.624-2.46-.292-.029M19.987-1.313c-1.298-2.86-3.068.944-.164.18-3.182.515-.424 3.104.165.195-.43 3.2 2.892 1.065.233-.097 3.09 1.61 1.886-2.773.058-.25 2.215-2.528-1.624-2.46-.292-.028M-2.181 9.946c.534-3.095 3.206.138.203.132 3.209-.305 1.195 2.897-.11.231 1.225 2.988-2.53 1.76-.25-.035-2.582 2.339-2.525-2.207-.119-.227-2.782-1.887.95-2.79.276-.101M13.658 3.75c.534-3.094 3.206.14.203.133 3.209-.304 1.195 2.897-.11.231 1.225 2.988-2.53 1.76-.25-.035-2.582 2.339-2.525-2.206-.119-.226-2.782-1.888.95-2.791.276-.102M4.897 5.516c-.534 3.095-3.207-.139-.204-.133-3.209.305-1.195-2.896.11-.23-1.225-2.989 2.53-1.761.25.035 2.582-2.339 2.525 2.206.12.226 2.781 1.887-.95 2.791-.276.102M3.275-.235c.534 3.095 3.206-.139.203-.133 3.209.305 1.195-2.897-.11-.23 1.225-2.989-2.53-1.761-.25.035C.536-2.903.593 1.643 3-.337c-2.782 1.887.95 2.79.276.102M13.028 14.32c.534-3.094 3.207.14.203.133 3.21-.305 1.195 2.897-.11.231 1.226 2.988-2.529 1.76-.25-.035-2.582 2.339-2.525-2.206-.118-.226-2.783-1.888.95-2.791.275-.102M8.886 12.653c-.534 3.095-3.206-.139-.203-.133-3.209.305-1.195-2.897.11-.23-1.225-2.989 2.53-1.761.25.035 2.582-2.34 2.525 2.206.119.226 2.782 1.887-.95 2.791-.276.102" style="fill:#d7b7ea;fill-opacity:1;stroke:#c699e1;stroke-width:.222706;stroke-linecap:round;stroke-linejoin:round;stroke-miterlimit:2;stroke-dasharray:none;stroke-opacity:1" transform="translate(8.762 4.569)"/><path d="M15.922-.399c.468-2.708 2.807.121.179.116 2.808-.267 1.045 2.535-.096.202 1.071 2.615-2.214 1.54-.22-.03-2.26 2.046-2.21-1.932-.104-.199-2.434-1.651.832-2.442.241-.089M18.609 5.182c.467-2.708 2.806.121.178.116 2.808-.267 1.046 2.535-.096.202 1.072 2.615-2.214 1.541-.22-.03-2.26 2.046-2.21-1.931-.103-.199-2.435-1.651.831-2.442.24-.089" style="fill:#d7b7ea;fill-opacity:1;stroke:#c699e1;stroke-width:.1949;stroke-linecap:round;stroke-linejoin:round;stroke-miterlimit:2;stroke-dasharray:none;stroke-opacity:1" transform="translate(8.762 4.569)"/></svg>