<svg xmlns="http://www.w3.org/2000/svg" xmlns:xlink="http://www.w3.org/1999/xlink" xml:space="preserve" width="100.286" height="174.986" viewBox="0 0 26.534 46.298"><path d="M10.296 35.173h-.089a.1.1 0 0 0-.056.022c-.391.296-.51.735-.463 1.21.046.477.247 1.002.494 1.524.246.523.54 1.045.775 1.506.176.343.252.592.322.836-.013-.011-.016-.01-.03-.023a20 20 0 0 1-.477-.44c-.366-.345-.82-.773-1.3-1.163s-.986-.745-1.47-.94-.961-.231-1.338.045a.1.1 0 0 0-.036.05.72.72 0 0 0 .08.58c.103.18.269.344.476.5.415.313.998.595 1.6.847.601.251 1.222.47 1.705.655.162.063.277.116.402.169l-.354-.082c-.446-.108-1.004-.245-1.566-.342s-1.128-.156-1.6-.102c-.47.054-.864.23-1.017.612a.1.1 0 0 0-.004.068.83.83 0 0 0 .369.449c.172.105.385.167.621.205.473.075 1.05.044 1.625-.025.575-.07 1.147-.176 1.6-.258.226-.041.423-.077.574-.098.03-.004.028 0 .055-.003-.025.02-.025.03-.055.052a7 7 0 0 1-.451.297c-.357.22-.804.484-1.225.785-.42.302-.816.643-1.072 1.03-.257.386-.37.827-.205 1.292a.1.1 0 0 0 .064.063c.503.162.941.066 1.303-.18s.652-.634.904-1.06.466-.896.66-1.305c.14-.294.266-.484.391-.678.022.214.047.42.035.697-.016.398-.045.833-.02 1.245.026.412.105.803.321 1.107s.573.508 1.101.54a.1.1 0 0 0 .06-.014c.353-.222.504-.524.497-.846s-.155-.66-.353-1.006c-.279-.487-.585-.97-.87-1.45.413.398.835.834 1.348 1.298.356.321.71.595 1.05.726.169.066.336.097.497.073a.72.72 0 0 0 .436-.25l.013-.018c.202-.386.134-.744-.095-1.018-.23-.274-.604-.482-1.032-.666-.589-.253-1.15-.433-1.699-.627.167.027.268.016.457.055.521.108 1.113.248 1.688.352s1.134.168 1.601.12c.467-.047.859-.218 1.037-.595a.1.1 0 0 0 .008-.059.88.88 0 0 0-.313-.552 1.4 1.4 0 0 0-.612-.272c-.48-.103-1.084-.076-1.702 0s-1.248.203-1.773.303c-.035.007-.04.003-.075.01.077-.02.097-.038.178-.057.538-.128 1.175-.262 1.787-.422s1.2-.344 1.645-.58c.223-.118.411-.25.549-.402a.83.83 0 0 0 .232-.528.1.1 0 0 0-.025-.07c-.378-.416-.895-.504-1.435-.398s-1.116.396-1.669.742a20 20 0 0 0-1.52 1.084c-.226.172-.325.225-.491.343.087-.106.166-.203.279-.335.348-.412.794-.936 1.205-1.487.41-.55.787-1.128.998-1.658.106-.265.17-.519.174-.754a.94.94 0 0 0-.205-.63.1.1 0 0 0-.06-.036c-.502-.079-.927.192-1.266.623-.34.431-.612 1.027-.844 1.654-.233.627-.424 1.284-.592 1.829-.116.376-.208.572-.303.789-.037-.248-.078-.478-.09-.858-.017-.546-.025-1.18-.078-1.785-.052-.604-.147-1.178-.351-1.61-.191-.403-.499-.687-.935-.705" style="baseline-shift:baseline;display:inline;overflow:visible;opacity:1;vector-effect:none;fill:#3b5b25;fill-opacity:1;stroke-linecap:round;stroke-linejoin:round;stroke-miterlimit:2;stop-color:#000;stop-opacity:1" transform="translate(8.944 4.64)"/><path d="m-6 34.237-.085.023a.1.1 0 0 0-.049.035c-.302.387-.304.841-.136 1.29.167.447.496.903.869 1.345.372.441.79.87 1.136 1.255.258.286.396.508.526.726-.016-.008-.018-.006-.036-.015a20 20 0 0 1-.573-.302c-.443-.24-.99-.537-1.555-.791-.564-.254-1.144-.465-1.662-.53-.518-.064-.99.024-1.282.387a.1.1 0 0 0-.022.059.72.72 0 0 0 .226.54c.146.147.349.263.59.36.48.196 1.116.319 1.762.407s1.303.141 1.817.195c.173.019.297.04.432.06-.116.004-.22.008-.363.011-.459.01-1.033.022-1.602.072-.568.05-1.13.14-1.571.314-.442.173-.777.443-.827.852a.1.1 0 0 0 .014.067.83.83 0 0 0 .472.339c.193.057.415.063.653.039.477-.05 1.027-.228 1.564-.443.538-.214 1.063-.464 1.48-.66.208-.098.389-.183.53-.242.027-.012.026-.008.051-.017-.018.026-.016.035-.04.065-.09.114-.215.25-.359.402-.288.305-.653.674-.981 1.074-.33.4-.624.83-.772 1.27s-.145.895.134 1.302a.1.1 0 0 0 .078.044c.528.027.927-.177 1.213-.508.287-.33.468-.78.601-1.258.134-.477.22-.985.303-1.43.06-.32.132-.537.204-.756.076.201.153.395.213.665.086.388.17.816.3 1.208.131.391.308.75.595.987.287.239.684.344 1.203.238a.1.1 0 0 0 .053-.028c.285-.305.353-.636.264-.945-.09-.31-.32-.597-.6-.881-.394-.4-.815-.788-1.213-1.178.5.278 1.02.59 1.636.907.426.22.839.393 1.2.433.181.02.351.007.5-.058a.72.72 0 0 0 .357-.354l.009-.02c.095-.425-.062-.753-.354-.96-.293-.205-.708-.31-1.168-.378-.635-.093-1.223-.123-1.803-.169.167-.017.262-.053.455-.064.532-.03 1.14-.046 1.721-.094.583-.049 1.14-.129 1.58-.295.438-.166.773-.432.848-.842a.1.1 0 0 0-.007-.059.88.88 0 0 0-.444-.454 1.4 1.4 0 0 0-.662-.105c-.49.024-1.067.205-1.644.438-.578.232-1.155.516-1.637.748-.032.015-.038.014-.069.029.069-.039.084-.062.157-.1.487-.263 1.068-.556 1.619-.868s1.07-.64 1.44-.983c.185-.172.333-.347.427-.53a.83.83 0 0 0 .09-.57.1.1 0 0 0-.043-.061c-.472-.305-.995-.257-1.49-.016-.495.24-.976.67-1.421 1.146a20 20 0 0 0-1.192 1.439c-.173.224-.255.3-.385.458.057-.125.108-.24.183-.397.231-.486.527-1.107.782-1.746.256-.638.471-1.292.54-1.859a2.2 2.2 0 0 0-.027-.773.94.94 0 0 0-.36-.557.1.1 0 0 0-.068-.019c-.504.053-.845.424-1.063.928s-.326 1.15-.39 1.816c-.064.665-.08 1.349-.102 1.918-.015.394-.054.607-.09.84-.1-.229-.198-.441-.307-.804-.157-.524-.328-1.136-.534-1.706s-.446-1.1-.753-1.465c-.289-.34-.66-.536-1.085-.441" style="baseline-shift:baseline;display:inline;overflow:visible;vector-effect:none;fill:#3b5b25;fill-opacity:1;stroke-linecap:round;stroke-linejoin:round;stroke-miterlimit:2;stop-color:#000" transform="translate(8.944 4.64)"/><path d="m-5.19 28.604-.085.023a.1.1 0 0 0-.05.035c-.301.387-.303.841-.136 1.29.168.447.497.903.87 1.345.372.442.79.87 1.136 1.256.257.285.395.507.526.725-.016-.008-.019-.006-.036-.015a20 20 0 0 1-.573-.302c-.443-.24-.99-.537-1.555-.79-.564-.255-1.145-.466-1.663-.53-.518-.065-.988.023-1.281.387a.1.1 0 0 0-.023.058.72.72 0 0 0 .226.54c.147.147.35.263.59.36.481.196 1.117.319 1.763.407s1.303.141 1.817.195c.173.019.297.04.431.06-.116.004-.22.008-.362.011-.46.011-1.034.022-1.602.072s-1.13.14-1.572.314c-.441.173-.776.443-.826.852a.1.1 0 0 0 .014.067.83.83 0 0 0 .472.339c.193.057.414.063.653.039.476-.05 1.026-.228 1.564-.443.538-.214 1.063-.464 1.48-.66.207-.098.389-.183.529-.242.028-.012.027-.008.052-.017-.018.026-.016.036-.04.065-.09.114-.215.25-.36.402-.287.305-.652.674-.98 1.074-.33.4-.624.83-.773 1.27-.148.44-.144.895.135 1.302a.1.1 0 0 0 .078.044c.528.027.926-.177 1.213-.508.286-.33.467-.78.601-1.258.134-.477.22-.985.303-1.43.06-.32.132-.537.203-.756.077.202.153.395.214.665.086.388.17.816.3 1.208.13.391.307.75.595.987.287.239.683.344 1.202.238a.1.1 0 0 0 .054-.028c.285-.305.353-.636.263-.945-.09-.31-.32-.597-.6-.881-.394-.4-.814-.788-1.212-1.178.5.278 1.02.59 1.636.907.426.22.838.393 1.2.433.18.02.351.007.5-.058a.72.72 0 0 0 .357-.354l.008-.02c.096-.425-.061-.753-.354-.959-.292-.206-.708-.311-1.168-.379-.634-.093-1.222-.123-1.803-.169.168-.017.263-.053.456-.064.531-.03 1.139-.046 1.721-.094s1.14-.129 1.579-.295.773-.432.85-.842a.1.1 0 0 0-.008-.059.88.88 0 0 0-.445-.453 1.4 1.4 0 0 0-.662-.106c-.49.024-1.066.205-1.644.438-.577.232-1.154.516-1.636.748-.032.015-.038.014-.07.029.07-.038.085-.061.158-.1.487-.263 1.068-.556 1.618-.868s1.07-.64 1.44-.983c.186-.172.334-.347.428-.53a.83.83 0 0 0 .089-.57.1.1 0 0 0-.043-.061c-.472-.305-.994-.257-1.49-.016-.494.24-.975.67-1.42 1.146a20 20 0 0 0-1.192 1.439c-.173.224-.255.3-.386.458.058-.125.109-.24.184-.397.23-.486.527-1.107.782-1.746.255-.638.47-1.292.539-1.859a2.2 2.2 0 0 0-.026-.773.94.94 0 0 0-.36-.557.1.1 0 0 0-.068-.018c-.504.052-.846.423-1.063.927s-.327 1.15-.39 1.816c-.064.665-.08 1.35-.102 1.919-.015.394-.054.606-.09.84-.1-.23-.198-.442-.307-.805-.158-.524-.329-1.135-.535-1.706-.206-.57-.445-1.1-.753-1.465-.288-.34-.659-.536-1.085-.441" style="baseline-shift:baseline;display:inline;overflow:visible;vector-effect:none;fill:#3b5b25;fill-opacity:1;stroke-linecap:round;stroke-linejoin:round;stroke-miterlimit:2;stop-color:#000" transform="translate(8.944 4.64)"/><path d="m.104 24.92-.076.02a.1.1 0 0 0-.043.031c-.266.341-.268.741-.12 1.136.147.395.437.797.766 1.186.328.39.696.767 1.002 1.107.227.252.348.447.463.64-.014-.008-.016-.006-.031-.014-.138-.068-.31-.16-.506-.266-.39-.211-.873-.473-1.37-.697s-1.01-.41-1.466-.467-.871.02-1.129.341a.1.1 0 0 0-.02.052.63.63 0 0 0 .2.475c.128.13.307.232.519.319.424.172.985.28 1.554.358s1.148.124 1.601.172c.153.016.262.035.38.052-.102.004-.194.008-.319.01-.404.01-.91.02-1.412.064-.5.044-.996.123-1.385.276-.39.153-.684.391-.729.751a.1.1 0 0 0 .013.06.73.73 0 0 0 .416.298c.17.05.365.056.575.034.42-.043.905-.2 1.379-.39.474-.189.937-.409 1.304-.582.183-.086.343-.161.467-.213.024-.01.023-.007.046-.015-.016.023-.015.031-.035.057-.08.1-.19.22-.317.355-.254.269-.576.594-.865.946-.29.353-.55.733-.68 1.12-.132.387-.128.788.118 1.147a.09.09 0 0 0 .069.04c.465.023.816-.157 1.069-.449.252-.291.412-.688.53-1.108s.193-.868.267-1.26c.053-.283.116-.474.179-.667.067.177.135.348.188.586.076.342.15.719.265 1.064s.27.661.524.871c.253.21.602.303 1.06.21a.1.1 0 0 0 .047-.025c.251-.27.311-.56.232-.833s-.281-.527-.529-.777c-.347-.351-.718-.694-1.068-1.038.441.245.9.52 1.441.8.376.193.74.346 1.059.381.159.018.309.006.44-.051a.64.64 0 0 0 .315-.312l.007-.018c.084-.374-.054-.664-.312-.845-.257-.181-.624-.274-1.03-.334-.558-.082-1.077-.108-1.589-.149.148-.015.232-.047.402-.057.468-.026 1.004-.04 1.517-.083.513-.042 1.004-.113 1.392-.26.387-.146.681-.38.748-.741a.1.1 0 0 0-.006-.052.77.77 0 0 0-.392-.4 1.25 1.25 0 0 0-.584-.093c-.432.021-.94.181-1.449.386-.508.204-1.017.455-1.442.66-.028.013-.033.011-.06.025.06-.034.073-.054.138-.09.429-.23.941-.488 1.426-.763s.944-.565 1.27-.867c.163-.151.293-.306.376-.467a.73.73 0 0 0 .079-.502.1.1 0 0 0-.038-.054c-.416-.269-.876-.227-1.313-.014-.436.212-.86.59-1.252 1.01-.393.42-.754.883-1.05 1.268-.153.198-.225.265-.34.404.05-.11.095-.211.161-.35.204-.429.465-.976.69-1.539s.415-1.139.474-1.638c.03-.25.028-.48-.022-.682a.83.83 0 0 0-.318-.49.1.1 0 0 0-.06-.017c-.444.046-.745.373-.936.818s-.288 1.013-.344 1.6c-.057.586-.071 1.19-.09 1.691-.014.347-.048.535-.08.74-.087-.202-.174-.389-.27-.71-.139-.46-.29-1-.471-1.502-.182-.503-.393-.97-.664-1.291-.254-.301-.58-.473-.956-.39" style="baseline-shift:baseline;display:inline;overflow:visible;vector-effect:none;fill:#3b5b25;fill-opacity:1;stroke-width:1;stroke-linecap:round;stroke-linejoin:round;stroke-miterlimit:2;stop-color:#000" transform="translate(8.944 4.64)"/><path d="m7.643 27.749-.085.013a.1.1 0 0 0-.052.029c-.334.342-.385.783-.27 1.236s.384.93.698 1.398c.314.469.672.93.968 1.34.219.306.328.535.432.76-.015-.009-.018-.007-.033-.017a19 19 0 0 1-.524-.355c-.404-.28-.903-.627-1.423-.934s-1.06-.575-1.556-.693-.962-.083-1.285.238a.1.1 0 0 0-.028.054c-.03.201.035.39.16.548.127.159.311.293.534.413.446.242 1.05.429 1.667.584s1.248.277 1.741.385c.166.036.284.07.413.104-.113-.008-.215-.016-.354-.028-.446-.039-1.004-.09-1.561-.102s-1.111.014-1.558.135c-.447.12-.801.347-.894.738a.1.1 0 0 0 .006.066c.09.178.24.304.422.38.181.076.395.106.63.108.467.003 1.02-.11 1.564-.261.545-.15 1.081-.336 1.506-.482.213-.072.398-.136.54-.177.028-.009.027-.006.052-.012-.02.024-.02.033-.045.059-.1.101-.236.22-.392.352-.312.265-.706.584-1.068.936s-.694.739-.885 1.15-.236.852-.01 1.277a.1.1 0 0 0 .072.05c.508.084.917-.072 1.23-.362.314-.29.538-.707.72-1.155.18-.449.318-.932.447-1.355.092-.304.185-.507.278-.711.053.203.106.399.136.667.042.386.077.81.162 1.204.084.394.217.76.47 1.022s.626.407 1.141.36a.1.1 0 0 0 .055-.021c.31-.266.411-.58.357-.889s-.245-.613-.487-.92c-.34-.428-.706-.851-1.05-1.272.456.323.927.683 1.49 1.056.39.259.771.471 1.118.549.173.039.34.044.491-.003a.7.7 0 0 0 .384-.305l.01-.019c.139-.401.022-.737-.24-.968-.261-.23-.653-.378-1.092-.493-.605-.158-1.173-.25-1.731-.357.165 0 .26-.024.449-.014.519.028 1.11.078 1.68.094s1.119-.002 1.563-.117c.444-.114.797-.335.914-.725a.1.1 0 0 0 0-.058.86.86 0 0 0-.383-.488 1.4 1.4 0 0 0-.63-.173c-.48-.03-1.058.084-1.643.248s-1.175.377-1.667.55c-.033.011-.039.01-.07.02.07-.03.087-.05.163-.08.5-.203 1.096-.424 1.663-.667s1.107-.507 1.503-.8c.198-.146.36-.3.471-.468a.8.8 0 0 0 .148-.543.1.1 0 0 0-.035-.064c-.425-.347-.937-.356-1.443-.176s-1.019.545-1.502.96-.937.88-1.31 1.267c-.193.199-.28.264-.424.403.07-.115.131-.22.22-.365.277-.447.631-1.018.947-1.61.316-.591.596-1.203.723-1.745a2.1 2.1 0 0 0 .057-.753.92.92 0 0 0-.29-.579.1.1 0 0 0-.063-.026c-.495-.003-.866.32-1.13.786-.266.466-.441 1.08-.574 1.72-.134.638-.223 1.3-.306 1.85-.057.38-.117.583-.177.806-.072-.234-.145-.45-.212-.815-.096-.524-.196-1.136-.335-1.712-.138-.575-.314-1.115-.573-1.502-.243-.362-.581-.59-1.005-.544" style="baseline-shift:baseline;display:inline;overflow:visible;vector-effect:none;fill:#3b5b25;fill-opacity:1;stroke-width:1;stroke-linecap:round;stroke-linejoin:round;stroke-miterlimit:2;stop-color:#000" transform="translate(8.944 4.64)"/><g style="stroke-width:1.69599" transform="matrix(-.58789 0 0 .59137 -29.514 -35.988)"><use xlink:href="#a" style="stroke-width:1.69599" transform="rotate(-4.786 -138.17 108.266)"/><use xlink:href="#b" style="stroke-width:1.72087" transform="matrix(.98483 -.16854 .17352 .95655 -16.654 -8.427)"/><use xlink:href="#c" style="stroke-width:1.69599" transform="rotate(5.718 2.002 96.934)"/><path d="M-86.613 68.714c-.797.985 1.812 81.795 1.812 81.795h.64s-1.818-81.48-2.452-81.796z" style="fill:#756d42;fill-opacity:1;stroke:none;stroke-width:.336545;stroke-linecap:round;stroke-linejoin:round;stroke-miterlimit:2;stroke-opacity:1"/><path id="d" d="M-82.875 107.84c-2.227-.828-2.686 1.64-2.45 1.972.319.445 2.705.382 2.45-1.973" style="display:inline;fill:#5d4591;fill-opacity:1;stroke:#3f2f62;stroke-width:.224365;stroke-linecap:round;stroke-linejoin:round;stroke-miterlimit:2;stroke-dasharray:none;stroke-opacity:1"/><use xlink:href="#d" style="stroke-width:1.69599" transform="rotate(-3.68 -150.345 109.14)"/><use xlink:href="#d" style="stroke-width:1.69599" transform="rotate(-.174 -3045.825 -86.182)"/><use xlink:href="#d" style="stroke-width:1.69599" transform="matrix(1.0003 -.01576 .0129 .9995 -1.702 -14.15)"/><use xlink:href="#d" style="stroke-width:1.69599" transform="rotate(15.607 -19.586 98.667)"/><path id="a" d="M-88.743 101.434c2.226-.828 2.686 1.64 2.45 1.972-.319.445-2.705.382-2.45-1.972" style="display:inline;fill:#5d4591;fill-opacity:1;stroke:#3f2f62;stroke-width:.224365;stroke-linecap:round;stroke-linejoin:round;stroke-miterlimit:2;stroke-dasharray:none;stroke-opacity:1"/><use xlink:href="#a" style="stroke-width:1.69599" transform="rotate(12.491 -103.7 102.494)"/><use xlink:href="#a" style="stroke-width:1.69599" transform="rotate(-14.65 -118.766 102.553)"/><use xlink:href="#a" style="stroke-width:1.69599" transform="rotate(-4.842 -3.98 117.85)"/><path id="c" d="M-82.965 101.091c-2.227-.827-2.686 1.64-2.45 1.972.319.446 2.705.382 2.45-1.972" style="display:inline;fill:#8b9ee0;fill-opacity:1;stroke:#4e6bd0;stroke-width:.224365;stroke-linecap:round;stroke-linejoin:round;stroke-miterlimit:2;stroke-dasharray:none;stroke-opacity:1"/><use xlink:href="#c" style="stroke-width:1.69599" transform="rotate(-13.593 -101.633 102.981)"/><use xlink:href="#c" style="stroke-width:1.69599" transform="rotate(-11.825 -150.26 98.653)"/><use xlink:href="#c" style="stroke-width:1.69599" transform="rotate(-12.182 -172.353 95.99)"/><use xlink:href="#c" style="stroke-width:1.69599" transform="rotate(-12.152 -198.443 94.098)"/><use xlink:href="#c" style="stroke-width:1.69599" transform="rotate(-9.358 -180.232 92.487)"/><use xlink:href="#c" style="stroke-width:1.69599" transform="rotate(9.996 37.765 90.54)"/><path id="b" d="M-89.196 89.087c2.227-.827 2.687 1.641 2.45 1.973-.318.445-2.704.381-2.45-1.973" style="display:inline;fill:#8b9ee0;fill-opacity:1;stroke:#4e6bd0;stroke-width:.224365;stroke-linecap:round;stroke-linejoin:round;stroke-miterlimit:2;stroke-dasharray:none;stroke-opacity:1"/><use xlink:href="#b" style="stroke-width:1.69599" transform="rotate(10.96 -139.87 100.239)"/><use xlink:href="#b" style="stroke-width:1.69599" transform="rotate(.86 -468.307 147.678)"/><use xlink:href="#b" style="stroke-width:1.69599" transform="rotate(11.217 -72.96 88.109)"/><use xlink:href="#b" style="stroke-width:1.69599" transform="rotate(-14.82 -111.154 86.664)"/><use xlink:href="#b" style="stroke-width:1.69599" transform="rotate(-8.486 -149.933 88.617)"/><path d="M-88.517 107.171c2.157-.997 2.806 1.428 2.595 1.777-.283.469-2.666.59-2.595-1.777M-88.427 110.698c1.939-1.373 3.019.893 2.875 1.274-.193.513-2.514 1.066-2.875-1.274M-89.007 104.317c1.844-1.498 3.071.691 2.954 1.081-.159.524-2.439 1.23-2.954-1.08" style="display:inline;fill:#8b9ee0;fill-opacity:1;stroke:#4e6bd0;stroke-width:.224365;stroke-linecap:round;stroke-linejoin:round;stroke-miterlimit:2;stroke-dasharray:none;stroke-opacity:1"/><use xlink:href="#c" style="stroke-width:1.69599" transform="rotate(-17.61 -70.953 101.672)"/><use xlink:href="#c" style="stroke-width:1.69599" transform="rotate(11.465 -126.74 109.774)"/><path id="e" d="M-83.774 84.535c-2.227-.827-2.687 1.64-2.45 1.972.318.446 2.704.382 2.45-1.972" style="display:inline;fill:#b9cef6;fill-opacity:1;stroke:#96b6f1;stroke-width:.224365;stroke-linecap:round;stroke-linejoin:round;stroke-miterlimit:2;stroke-dasharray:none;stroke-opacity:1"/><use xlink:href="#e" style="stroke-width:1.69599" transform="rotate(-15.19 -104.124 85.189)"/><use xlink:href="#e" style="stroke-width:1.69599" transform="rotate(13.13 -45.08 80.661)"/><use xlink:href="#e" style="stroke-width:1.69599" transform="rotate(-8.83 -173.644 81.445)"/><use xlink:href="#e" style="stroke-width:1.69599" transform="rotate(.977 597.654 73.758)"/><path d="M-86.695 67.459c-1.727 1.133-.217 2.73.139 2.736.478.007 1.657-1.698-.139-2.736" style="display:inline;fill:#b9cef6;fill-opacity:1;stroke:#96b6f1;stroke-width:.224365;stroke-linecap:round;stroke-linejoin:round;stroke-miterlimit:2;stroke-dasharray:none;stroke-opacity:1"/><path id="f" d="M-89.546 77.685c2.227-.827 2.686 1.641 2.45 1.973-.318.445-2.704.381-2.45-1.973" style="display:inline;fill:#b9cef6;fill-opacity:1;stroke:#96b6f1;stroke-width:.224365;stroke-linecap:round;stroke-linejoin:round;stroke-miterlimit:2;stroke-dasharray:none;stroke-opacity:1"/><use xlink:href="#f" style="stroke-width:1.69599" transform="rotate(-13.222 -109.15 76.286)"/><use xlink:href="#f" style="stroke-width:1.69599" transform="rotate(8.146 -34.308 77.885)"/><use xlink:href="#f" style="stroke-width:1.69599" transform="rotate(-9.945 -64.97 79.278)"/><use xlink:href="#f" style="stroke-width:1.69599" transform="rotate(3.61 -237.507 106.396)"/><path d="M-89.583 75.902c1.922-1.39 3.03.865 2.891 1.248-.186.513-2.502 1.088-2.891-1.248" style="display:inline;fill:#b9cef6;fill-opacity:1;stroke:#96b6f1;stroke-width:.224365;stroke-linecap:round;stroke-linejoin:round;stroke-miterlimit:2;stroke-dasharray:none;stroke-opacity:1"/></g><path d="m-.61 35.313-.085.023a.1.1 0 0 0-.05.035c-.301.387-.303.84-.136 1.289.168.448.497.903.87 1.345.372.442.789.87 1.136 1.256.46.637-.083.408-.083.408-.443-.24-.99-.536-1.555-.79-.564-.254-1.145-.466-1.663-.53-.518-.065-.988.024-1.281.387a.1.1 0 0 0-.023.058.72.72 0 0 0 .226.54c.147.148.35.263.59.361.48.196 1.117.318 1.763.407s1.303.14 1.817.195c.37.05.069.07.069.07-.46.011-1.034.022-1.602.073s-1.13.14-1.572.313c-.441.173-.776.444-.826.853a.1.1 0 0 0 .014.066.83.83 0 0 0 .472.34c.193.057.414.063.653.038.476-.049 1.026-.228 1.564-.442.538-.215 1.063-.464 1.48-.66.653-.321.182.208.182.208-.288.305-.653.674-.982 1.074s-.623.83-.772 1.27c-.148.439-.144.894.135 1.302a.1.1 0 0 0 .078.044c.527.027.926-.178 1.213-.509.286-.33.467-.78.601-1.257s.22-.985.303-1.43c0 0 .283-.691.416-.091.087.388.17.815.301 1.207s.307.75.595.988c.287.238.683.343 1.202.238a.1.1 0 0 0 .054-.028c.285-.306.353-.636.263-.946s-.32-.597-.6-.88c0 0-1.213-1.125.424-.271.426.22.838.392 1.2.432.18.02.35.007.5-.058a.72.72 0 0 0 .365-.374c.096-.425-.061-.753-.354-.959-.292-.205-.708-.31-1.168-.378-2.337-.286-.894-.236.374-.328.582-.048 1.14-.128 1.579-.295s.773-.431.85-.842a.1.1 0 0 0-.008-.058.88.88 0 0 0-.445-.454 1.4 1.4 0 0 0-.662-.105c-.49.024-1.066.205-1.644.437 0 0-1.99.964.07-.19.55-.312 1.07-.64 1.44-.984.186-.171.334-.347.428-.53a.83.83 0 0 0 .089-.57.1.1 0 0 0-.043-.06c-.472-.306-.994-.257-1.49-.017-.494.241-.975.67-1.42 1.147a20 20 0 0 0-1.192 1.438c-.29.333-.202.062-.202.062.23-.487.527-1.108.782-1.746s.47-1.293.539-1.86a2.2 2.2 0 0 0-.026-.773.94.94 0 0 0-.36-.556.1.1 0 0 0-.068-.019c-.504.052-.846.424-1.063.928s-.327 1.15-.39 1.815c-.064.666-.08 1.35-.102 1.92-.03.796-.397.034-.397.034-.158-.523-.329-1.135-.535-1.705s-.445-1.101-.753-1.465c-.288-.341-.659-.537-1.085-.441z" style="baseline-shift:baseline;display:inline;overflow:visible;vector-effect:none;fill:#3b5b25;fill-opacity:1;stroke-linecap:round;stroke-linejoin:round;stroke-miterlimit:2;stop-color:#000" transform="translate(8.944 4.64)"/><path d="m1.468 30.25-.085.023a.1.1 0 0 0-.05.035c-.301.387-.303.842-.136 1.29.168.448.497.903.87 1.345.372.442.789.87 1.136 1.256.46.637-.083.408-.083.408-.443-.24-.99-.537-1.555-.79C1 33.561.42 33.35-.098 33.286c-.518-.065-.988.023-1.281.387a.1.1 0 0 0-.023.058.72.72 0 0 0 .226.54c.147.147.35.263.59.36.48.196 1.117.319 1.763.407.646.089 1.302.141 1.816.196.371.05.07.07.07.07-.46.011-1.034.022-1.602.072-.568.051-1.13.14-1.572.314-.441.173-.776.444-.826.852a.1.1 0 0 0 .014.067.83.83 0 0 0 .472.34c.193.056.414.062.653.038.476-.05 1.026-.228 1.564-.442.537-.215 1.063-.465 1.48-.66.653-.321.182.207.182.207-.288.305-.653.674-.982 1.074s-.623.831-.772 1.27c-.148.44-.144.895.135 1.302a.1.1 0 0 0 .078.044c.527.028.926-.177 1.213-.508.286-.33.467-.78.601-1.258.134-.477.22-.984.303-1.43 0 0 .283-.69.416-.09.087.387.17.815.301 1.207s.307.75.595.988c.287.238.683.343 1.202.237a.1.1 0 0 0 .054-.028c.285-.305.353-.636.263-.945-.09-.31-.32-.597-.6-.881 0 0-1.213-1.124.423-.27.427.219.84.392 1.201.432.18.02.35.007.5-.058a.72.72 0 0 0 .365-.374c.096-.425-.061-.753-.354-.959-.292-.206-.708-.311-1.168-.379-2.337-.286-.894-.236.374-.327.582-.048 1.14-.129 1.579-.295s.773-.432.85-.842a.1.1 0 0 0-.009-.059.88.88 0 0 0-.444-.453 1.4 1.4 0 0 0-.662-.106c-.49.024-1.067.206-1.644.438 0 0-1.99.964.07-.19.55-.312 1.07-.641 1.44-.984.186-.172.334-.347.428-.53a.83.83 0 0 0 .089-.57.1.1 0 0 0-.043-.06c-.472-.306-.994-.258-1.49-.017-.494.241-.975.67-1.42 1.146a20 20 0 0 0-1.192 1.439c-.29.333-.203.062-.203.062.232-.487.528-1.108.783-1.746.255-.639.47-1.293.539-1.86a2.2 2.2 0 0 0-.026-.773.94.94 0 0 0-.36-.556.1.1 0 0 0-.068-.02c-.505.053-.846.424-1.063.928s-.327 1.15-.39 1.816c-.064.665-.08 1.35-.102 1.919-.03.797-.397.035-.397.035-.158-.524-.329-1.135-.535-1.706-.206-.57-.445-1.1-.753-1.464-.288-.342-.659-.537-1.085-.442Z" style="baseline-shift:baseline;display:inline;overflow:visible;vector-effect:none;fill:#3b5b25;fill-opacity:1;stroke-linecap:round;stroke-linejoin:round;stroke-miterlimit:2;stop-color:#000" transform="translate(8.944 4.64)"/><path d="m5.24 33.911-.086.024a.1.1 0 0 0-.049.035c-.302.386-.303.84-.136 1.289s.496.903.869 1.345.79.87 1.137 1.256c.46.637-.084.408-.084.408-.443-.24-.99-.537-1.554-.79-.565-.255-1.145-.466-1.663-.53-.518-.065-.989.023-1.282.387a.1.1 0 0 0-.022.058.72.72 0 0 0 .226.54c.146.147.349.263.59.36.48.197 1.117.319 1.763.407.646.089 1.302.141 1.816.196.371.05.07.07.07.07-.46.011-1.034.022-1.602.073s-1.13.14-1.572.313-.776.444-.827.852a.1.1 0 0 0 .014.067.83.83 0 0 0 .472.34c.194.056.415.062.653.038.477-.049 1.027-.228 1.564-.442.538-.215 1.063-.464 1.48-.66.654-.321.182.208.182.208-.288.304-.652.674-.981 1.073-.33.4-.624.831-.772 1.27s-.145.895.135 1.302a.1.1 0 0 0 .078.044c.527.028.926-.177 1.212-.508.287-.33.468-.78.602-1.257.133-.478.22-.985.303-1.43 0 0 .283-.691.416-.092.086.388.17.816.301 1.208s.307.75.594.988.684.343 1.203.238a.1.1 0 0 0 .053-.028c.285-.306.354-.637.264-.946-.09-.31-.32-.597-.6-.88 0 0-1.214-1.125.423-.271.426.22.839.392 1.2.432.182.02.352.007.5-.058a.72.72 0 0 0 .366-.374c.095-.425-.062-.753-.354-.959s-.708-.31-1.168-.378c-2.338-.286-.894-.237.374-.328.582-.048 1.14-.129 1.578-.295.44-.166.774-.431.85-.842a.1.1 0 0 0-.008-.059.88.88 0 0 0-.444-.453 1.4 1.4 0 0 0-.662-.105c-.49.023-1.067.205-1.644.437 0 0-1.99.964.07-.19.55-.312 1.07-.64 1.44-.984.186-.172.333-.347.428-.53a.83.83 0 0 0 .089-.57.1.1 0 0 0-.043-.06c-.472-.306-.995-.258-1.49-.017s-.975.67-1.42 1.147a20 20 0 0 0-1.193 1.438c-.289.333-.202.062-.202.062.231-.487.528-1.108.783-1.746s.47-1.293.538-1.86a2.2 2.2 0 0 0-.026-.773.94.94 0 0 0-.36-.556.1.1 0 0 0-.068-.02c-.504.053-.845.424-1.062.928s-.327 1.15-.39 1.816c-.064.666-.08 1.35-.103 1.919-.03.797-.397.035-.397.035-.157-.523-.328-1.135-.534-1.705s-.446-1.101-.753-1.465c-.289-.341-.659-.537-1.085-.442Z" style="baseline-shift:baseline;display:inline;overflow:visible;vector-effect:none;fill:#3b5b25;fill-opacity:1;stroke-linecap:round;stroke-linejoin:round;stroke-miterlimit:2;stop-color:#000" transform="translate(8.944 4.64)"/><g style="stroke-width:1.69599" transform="matrix(.58789 0 0 .59137 60.302 -41.18)"><use xlink:href="#g" style="stroke-width:1.69599" transform="rotate(-4.786 -143.526 113.287)"/><use xlink:href="#h" style="stroke-width:1.72087" transform="matrix(.98483 -.16854 .17352 .95655 -17.606 -9.112)"/><use xlink:href="#i" style="stroke-width:1.69599" transform="rotate(5.718 -1.947 99.58)"/><path d="M-92.05 74.165c-.797.951 1.756 78.999 1.756 78.999h.64s-1.762-78.694-2.396-79z" style="fill:#756d42;fill-opacity:1;stroke:none;stroke-width:.336545;stroke-linecap:round;stroke-linejoin:round;stroke-miterlimit:2;stroke-opacity:1"/><path id="j" d="M-88.232 112.86c-2.226-.827-2.686 1.641-2.45 1.973.319.445 2.705.382 2.45-1.972" style="display:inline;fill:#5d4591;fill-opacity:1;stroke:#3f2f62;stroke-width:.224365;stroke-linecap:round;stroke-linejoin:round;stroke-miterlimit:2;stroke-dasharray:none;stroke-opacity:1"/><use xlink:href="#j" style="stroke-width:1.69599" transform="rotate(-3.68 -155.702 114.16)"/><use xlink:href="#j" style="stroke-width:1.69599" transform="rotate(-.174 -3051.316 6.798)"/><use xlink:href="#j" style="stroke-width:1.69599" transform="rotate(-15.386 -137.498 108.035)"/><use xlink:href="#j" style="stroke-width:1.69599" transform="rotate(15.607 -24.919 102.831)"/><path id="g" d="M-94.1 106.455c2.227-.828 2.686 1.64 2.45 1.972-.319.445-2.705.382-2.45-1.972" style="display:inline;fill:#5d4591;fill-opacity:1;stroke:#3f2f62;stroke-width:.224365;stroke-linecap:round;stroke-linejoin:round;stroke-miterlimit:2;stroke-dasharray:none;stroke-opacity:1"/><use xlink:href="#g" style="stroke-width:1.69599" transform="rotate(12.491 -109.056 107.515)"/><use xlink:href="#g" style="stroke-width:1.69599" transform="rotate(-14.65 -124.123 107.574)"/><use xlink:href="#g" style="stroke-width:1.69599" transform="rotate(-4.842 -9.338 122.871)"/><path id="i" d="M-88.322 106.112c-2.226-.827-2.686 1.641-2.45 1.972.319.446 2.705.382 2.45-1.972" style="display:inline;fill:#8b9ee0;fill-opacity:1;stroke:#4e6bd0;stroke-width:.224365;stroke-linecap:round;stroke-linejoin:round;stroke-miterlimit:2;stroke-dasharray:none;stroke-opacity:1"/><use xlink:href="#i" style="stroke-width:1.69599" transform="rotate(-13.593 -106.99 108.003)"/><use xlink:href="#i" style="stroke-width:1.69599" transform="rotate(-11.825 -156.16 101.75)"/><use xlink:href="#i" style="stroke-width:1.69599" transform="rotate(-12.182 -177.71 101.01)"/><use xlink:href="#i" style="stroke-width:1.69599" transform="rotate(-12.152 -203.8 99.12)"/><use xlink:href="#i" style="stroke-width:1.69599" transform="rotate(-9.358 -190.471 94.284)"/><use xlink:href="#i" style="stroke-width:1.69599" transform="rotate(9.996 32.408 95.561)"/><path id="h" d="M-94.552 94.108c2.226-.827 2.686 1.641 2.45 1.973-.319.445-2.705.381-2.45-1.973" style="display:inline;fill:#8b9ee0;fill-opacity:1;stroke:#4e6bd0;stroke-width:.224365;stroke-linecap:round;stroke-linejoin:round;stroke-miterlimit:2;stroke-dasharray:none;stroke-opacity:1"/><use xlink:href="#h" style="stroke-width:1.69599" transform="rotate(10.96 -145.228 105.26)"/><use xlink:href="#h" style="stroke-width:1.69599" transform="rotate(.86 -473.664 152.699)"/><use xlink:href="#h" style="stroke-width:1.69599" transform="rotate(11.217 -78.318 93.13)"/><use xlink:href="#h" style="stroke-width:1.69599" transform="rotate(-14.82 -116.511 91.685)"/><use xlink:href="#h" style="stroke-width:1.69599" transform="rotate(-8.486 -155.29 93.638)"/><path d="M-93.873 112.192c2.156-.997 2.805 1.428 2.594 1.777-.283.469-2.666.59-2.594-1.777M-93.784 115.719c1.939-1.373 3.019.893 2.875 1.274-.192.513-2.514 1.066-2.875-1.274M-94.364 109.338c1.844-1.498 3.071.691 2.954 1.081-.158.524-2.438 1.23-2.954-1.08" style="display:inline;fill:#8b9ee0;fill-opacity:1;stroke:#4e6bd0;stroke-width:.224365;stroke-linecap:round;stroke-linejoin:round;stroke-miterlimit:2;stroke-dasharray:none;stroke-opacity:1"/><use xlink:href="#i" style="stroke-width:1.69599" transform="rotate(-17.61 -76.31 106.693)"/><use xlink:href="#i" style="stroke-width:1.69599" transform="rotate(11.465 -132.098 114.795)"/><path id="k" d="M-89.131 89.556c-2.227-.827-2.687 1.64-2.45 1.972.318.446 2.704.382 2.45-1.972" style="display:inline;fill:#b9cef6;fill-opacity:1;stroke:#96b6f1;stroke-width:.224365;stroke-linecap:round;stroke-linejoin:round;stroke-miterlimit:2;stroke-dasharray:none;stroke-opacity:1"/><use xlink:href="#k" style="stroke-width:1.69599" transform="rotate(-15.19 -109.48 90.21)"/><use xlink:href="#k" style="stroke-width:1.69599" transform="rotate(13.13 -50.437 85.682)"/><use xlink:href="#k" style="stroke-width:1.69599" transform="rotate(-8.83 -177.871 83.063)"/><use xlink:href="#k" style="stroke-width:1.69599" transform="rotate(.977 628.69 91.165)"/><path d="M-91.883 73.331c-1.802.995-.434 2.702-.081 2.735.473.044 1.778-1.562.081-2.735" style="display:inline;fill:#b9cef6;fill-opacity:1;stroke:#96b6f1;stroke-width:.224365;stroke-linecap:round;stroke-linejoin:round;stroke-miterlimit:2;stroke-dasharray:none;stroke-opacity:1"/><path id="l" d="M-94.768 82.088c2.227-.827 2.687 1.64 2.45 1.972-.318.445-2.704.382-2.45-1.972" style="display:inline;fill:#b9cef6;fill-opacity:1;stroke:#96b6f1;stroke-width:.224365;stroke-linecap:round;stroke-linejoin:round;stroke-miterlimit:2;stroke-dasharray:none;stroke-opacity:1"/><use xlink:href="#l" style="stroke-width:1.69599" transform="rotate(-13.222 -110.432 82.21)"/><use xlink:href="#l" style="stroke-width:1.69599" transform="rotate(8.146 -48.623 82.553)"/><use xlink:href="#l" style="stroke-width:1.69599" transform="rotate(-9.945 -66.704 84.767)"/><use xlink:href="#l" style="stroke-width:1.69599" transform="rotate(3.61 -252.613 108.96)"/></g><g style="stroke-width:1.69599" transform="matrix(-.58789 0 0 .59137 -36.82 -39.827)"><use xlink:href="#m" style="stroke-width:1.69599" transform="rotate(-4.786 -138.17 108.266)"/><use xlink:href="#n" style="stroke-width:1.72087" transform="matrix(.98483 -.16854 .17352 .95655 -16.654 -8.427)"/><use xlink:href="#o" style="stroke-width:1.69599" transform="rotate(5.718 2.002 96.934)"/><path d="M-86.613 68.714c-.797.985 1.812 81.795 1.812 81.795h.64s-1.818-81.48-2.452-81.796z" style="fill:#756d42;fill-opacity:1;stroke:none;stroke-width:.336545;stroke-linecap:round;stroke-linejoin:round;stroke-miterlimit:2;stroke-opacity:1"/><path id="p" d="M-82.875 107.84c-2.227-.828-2.686 1.64-2.45 1.972.319.445 2.705.382 2.45-1.973" style="display:inline;fill:#5d4591;fill-opacity:1;stroke:#3f2f62;stroke-width:.224365;stroke-linecap:round;stroke-linejoin:round;stroke-miterlimit:2;stroke-dasharray:none;stroke-opacity:1"/><use xlink:href="#p" style="stroke-width:1.69599" transform="rotate(-3.68 -150.345 109.14)"/><use xlink:href="#p" style="stroke-width:1.69599" transform="rotate(-.174 -3045.825 -86.182)"/><use xlink:href="#p" style="stroke-width:1.69599" transform="matrix(1.0003 -.01576 .0129 .9995 -1.702 -14.15)"/><use xlink:href="#p" style="stroke-width:1.69599" transform="rotate(15.607 -19.586 98.667)"/><path id="m" d="M-88.743 101.434c2.226-.828 2.686 1.64 2.45 1.972-.319.445-2.705.382-2.45-1.972" style="display:inline;fill:#5d4591;fill-opacity:1;stroke:#3f2f62;stroke-width:.224365;stroke-linecap:round;stroke-linejoin:round;stroke-miterlimit:2;stroke-dasharray:none;stroke-opacity:1"/><use xlink:href="#m" style="stroke-width:1.69599" transform="rotate(12.491 -103.7 102.494)"/><use xlink:href="#m" style="stroke-width:1.69599" transform="rotate(-14.65 -118.766 102.553)"/><use xlink:href="#m" style="stroke-width:1.69599" transform="rotate(-4.842 -3.98 117.85)"/><path id="o" d="M-82.965 101.091c-2.227-.827-2.686 1.64-2.45 1.972.319.446 2.705.382 2.45-1.972" style="display:inline;fill:#8b9ee0;fill-opacity:1;stroke:#4e6bd0;stroke-width:.224365;stroke-linecap:round;stroke-linejoin:round;stroke-miterlimit:2;stroke-dasharray:none;stroke-opacity:1"/><use xlink:href="#o" style="stroke-width:1.69599" transform="rotate(-13.593 -101.633 102.981)"/><use xlink:href="#o" style="stroke-width:1.69599" transform="rotate(-11.825 -150.26 98.653)"/><use xlink:href="#o" style="stroke-width:1.69599" transform="rotate(-12.182 -172.353 95.99)"/><use xlink:href="#o" style="stroke-width:1.69599" transform="rotate(-12.152 -198.443 94.098)"/><use xlink:href="#o" style="stroke-width:1.69599" transform="rotate(-9.358 -180.232 92.487)"/><use xlink:href="#o" style="stroke-width:1.69599" transform="rotate(9.996 37.765 90.54)"/><path id="n" d="M-89.196 89.087c2.227-.827 2.687 1.641 2.45 1.973-.318.445-2.704.381-2.45-1.973" style="display:inline;fill:#8b9ee0;fill-opacity:1;stroke:#4e6bd0;stroke-width:.224365;stroke-linecap:round;stroke-linejoin:round;stroke-miterlimit:2;stroke-dasharray:none;stroke-opacity:1"/><use xlink:href="#n" style="stroke-width:1.69599" transform="rotate(10.96 -139.87 100.239)"/><use xlink:href="#n" style="stroke-width:1.69599" transform="rotate(.86 -468.307 147.678)"/><use xlink:href="#n" style="stroke-width:1.69599" transform="rotate(11.217 -72.96 88.109)"/><use xlink:href="#n" style="stroke-width:1.69599" transform="rotate(-14.82 -111.154 86.664)"/><use xlink:href="#n" style="stroke-width:1.69599" transform="rotate(-8.486 -149.933 88.617)"/><path d="M-88.517 107.171c2.157-.997 2.806 1.428 2.595 1.777-.283.469-2.666.59-2.595-1.777M-88.427 110.698c1.939-1.373 3.019.893 2.875 1.274-.193.513-2.514 1.066-2.875-1.274M-89.007 104.317c1.844-1.498 3.071.691 2.954 1.081-.159.524-2.439 1.23-2.954-1.08" style="display:inline;fill:#8b9ee0;fill-opacity:1;stroke:#4e6bd0;stroke-width:.224365;stroke-linecap:round;stroke-linejoin:round;stroke-miterlimit:2;stroke-dasharray:none;stroke-opacity:1"/><use xlink:href="#o" style="stroke-width:1.69599" transform="rotate(-17.61 -70.953 101.672)"/><use xlink:href="#o" style="stroke-width:1.69599" transform="rotate(11.465 -126.74 109.774)"/><path id="q" d="M-83.774 84.535c-2.227-.827-2.687 1.64-2.45 1.972.318.446 2.704.382 2.45-1.972" style="display:inline;fill:#b9cef6;fill-opacity:1;stroke:#96b6f1;stroke-width:.224365;stroke-linecap:round;stroke-linejoin:round;stroke-miterlimit:2;stroke-dasharray:none;stroke-opacity:1"/><use xlink:href="#q" style="stroke-width:1.69599" transform="rotate(-15.19 -104.124 85.189)"/><use xlink:href="#q" style="stroke-width:1.69599" transform="rotate(13.13 -45.08 80.661)"/><use xlink:href="#q" style="stroke-width:1.69599" transform="rotate(-8.83 -173.644 81.445)"/><use xlink:href="#q" style="stroke-width:1.69599" transform="rotate(.977 597.654 73.758)"/><path d="M-86.695 67.459c-1.727 1.133-.217 2.73.139 2.736.478.007 1.657-1.698-.139-2.736" style="display:inline;fill:#b9cef6;fill-opacity:1;stroke:#96b6f1;stroke-width:.224365;stroke-linecap:round;stroke-linejoin:round;stroke-miterlimit:2;stroke-dasharray:none;stroke-opacity:1"/><path id="r" d="M-89.546 77.685c2.227-.827 2.686 1.641 2.45 1.973-.318.445-2.704.381-2.45-1.973" style="display:inline;fill:#b9cef6;fill-opacity:1;stroke:#96b6f1;stroke-width:.224365;stroke-linecap:round;stroke-linejoin:round;stroke-miterlimit:2;stroke-dasharray:none;stroke-opacity:1"/><use xlink:href="#r" style="stroke-width:1.69599" transform="rotate(-13.222 -109.15 76.286)"/><use xlink:href="#r" style="stroke-width:1.69599" transform="rotate(8.146 -34.308 77.885)"/><use xlink:href="#r" style="stroke-width:1.69599" transform="rotate(-9.945 -64.97 79.278)"/><use xlink:href="#r" style="stroke-width:1.69599" transform="rotate(3.61 -237.507 106.396)"/><path d="M-89.583 75.902c1.922-1.39 3.03.865 2.891 1.248-.186.513-2.502 1.088-2.891-1.248" style="display:inline;fill:#b9cef6;fill-opacity:1;stroke:#96b6f1;stroke-width:.224365;stroke-linecap:round;stroke-linejoin:round;stroke-miterlimit:2;stroke-dasharray:none;stroke-opacity:1"/></g><path d="M10.842 79.8s-.897-7.966-.734-8.24c.358.057 1.11 8.167 1.11 8.167z" style="fill:#697f21;fill-opacity:1;stroke:none;stroke-width:.198437;stroke-linecap:round;stroke-linejoin:round;stroke-miterlimit:2;stroke-opacity:1" transform="matrix(-1 0 0 1 31.114 -29.88)"/><path d="M9.922 71.672c-.326-1.127-3.5-3.561-2.298-4.923 1.726-.421 1.939 3.938 2.496 4.871.397-.842.098-5.627 1.954-5.706 1.265 1.024-1.691 5.235-1.715 5.67.684-.457 3.25-4.405 4.942-3.16.222 1.345-4.024 2.52-4.802 3.243.8-.063 4.789-2.392 5.382-.79-.36 1.45-4.23.643-5.412 1.005 1.205.36 4.415.156 3.964 1.71-.663 1.166-3.071-1.128-4.11-1.582.732 1.192 2.999 2.42 1.861 3.498-2.011.282-1.584-2.484-2.092-3.477-.562.938-.567 4.271-2.558 4.045-.947-1.58 2.228-3.486 2.402-4.087-.438-.035-4.23 2.045-4.937.798.266-1.43 4.428-.757 4.887-.923-.322-.378-5.32-.49-5.177-1.92 1.14-1.25 4.618 1.59 5.213 1.728" style="fill:#5a8b39;fill-opacity:1;stroke:#3b5b25;stroke-width:.198437;stroke-linecap:round;stroke-linejoin:round;stroke-miterlimit:2;stroke-opacity:1" transform="matrix(-1 0 0 1 31.114 -29.88)"/><path d="M10.842 79.8s-.897-7.966-.734-8.24c.358.057 1.11 8.167 1.11 8.167z" style="fill:#697f21;fill-opacity:1;stroke:none;stroke-width:.198437;stroke-linecap:round;stroke-linejoin:round;stroke-miterlimit:2;stroke-opacity:1" transform="rotate(12.627 154.951 83.346)"/><path d="M9.922 71.672c-.326-1.127-3.5-3.561-2.298-4.923 1.726-.421 1.939 3.938 2.496 4.871.397-.842.098-5.627 1.954-5.706 1.265 1.024-1.691 5.235-1.715 5.67.684-.457 3.25-4.405 4.942-3.16.222 1.345-4.024 2.52-4.802 3.243.8-.063 4.789-2.392 5.382-.79-.36 1.45-4.23.643-5.412 1.005 1.205.36 4.415.156 3.964 1.71-.663 1.166-3.071-1.128-4.11-1.582.732 1.192 2.999 2.42 1.861 3.498-2.011.282-1.584-2.484-2.092-3.477-.562.938-.567 4.271-2.558 4.045-.947-1.58 2.228-3.486 2.402-4.087-.438-.035-4.23 2.045-4.937.798.266-1.43 4.428-.757 4.887-.923-.322-.378-5.32-.49-5.177-1.92 1.14-1.25 4.618 1.59 5.213 1.728" style="fill:#5a8b39;fill-opacity:1;stroke:#3b5b25;stroke-width:.198437;stroke-linecap:round;stroke-linejoin:round;stroke-miterlimit:2;stroke-opacity:1" transform="rotate(12.627 154.951 83.346)"/><path d="M12.147 78.698s-.897-7.967-.735-8.24c.359.057 1.11 8.167 1.11 8.167z" style="fill:#697f21;fill-opacity:1;stroke:none;stroke-width:.198437;stroke-linecap:round;stroke-linejoin:round;stroke-miterlimit:2;stroke-opacity:1" transform="translate(-5.966 -29.69)"/><path d="M11.11 70.487c-.096-1.17-2.727-4.184-1.279-5.28 1.775-.073 1.123 4.243 1.485 5.267.555-.747 1.207-5.497 3.042-5.207 1.038 1.253-2.692 4.798-2.8 5.22.76-.314 4.055-3.677 5.468-2.122-.049 1.362-4.442 1.675-5.348 2.23.797.096 5.167-1.398 5.432.29-.64 1.35-4.273-.206-5.504-.085 1.11.59 4.297 1.025 3.549 2.46-.882 1.012-2.789-1.713-3.718-2.364.483 1.314 2.462 2.966 1.134 3.798-2.027-.12-1.062-2.749-1.364-3.822-.736.808-1.4 4.075-3.307 3.46-.616-1.736 2.873-2.978 3.163-3.532-.423-.12-4.551 1.17-4.998-.193.543-1.35 4.49.133 4.973.06-.241-.434-5.118-1.53-4.695-2.905 1.364-1 4.213 2.471 4.768 2.725" style="fill:#5a8b39;fill-opacity:1;stroke:#3b5b25;stroke-width:.198437;stroke-linecap:round;stroke-linejoin:round;stroke-miterlimit:2;stroke-opacity:1" transform="translate(-5.966 -29.69)"/><path d="M10.842 79.8s-.897-7.966-.734-8.24c.358.057 1.11 8.167 1.11 8.167z" style="fill:#697f21;fill-opacity:1;stroke:none;stroke-width:.198437;stroke-linecap:round;stroke-linejoin:round;stroke-miterlimit:2;stroke-opacity:1" transform="rotate(12.627 142.961 56.806)"/><path d="M9.922 71.672c-.326-1.127-3.5-3.561-2.298-4.923 1.726-.421 1.939 3.938 2.496 4.871.397-.842.098-5.627 1.954-5.706 1.265 1.024-1.691 5.235-1.715 5.67.684-.457 3.25-4.405 4.942-3.16.222 1.345-4.024 2.52-4.802 3.243.8-.063 4.789-2.392 5.382-.79-.36 1.45-4.23.643-5.412 1.005 1.205.36 4.415.156 3.964 1.71-.663 1.166-3.071-1.128-4.11-1.582.732 1.192 2.999 2.42 1.861 3.498-2.011.282-1.584-2.484-2.092-3.477-.562.938-.567 4.271-2.558 4.045-.947-1.58 2.228-3.486 2.402-4.087-.438-.035-4.23 2.045-4.937.798.266-1.43 4.428-.757 4.887-.923-.322-.378-5.32-.49-5.177-1.92 1.14-1.25 4.618 1.59 5.213 1.728" style="fill:#5a8b39;fill-opacity:1;stroke:#3b5b25;stroke-width:.198437;stroke-linecap:round;stroke-linejoin:round;stroke-miterlimit:2;stroke-opacity:1" transform="rotate(12.627 142.961 56.806)"/><path d="M-4.398 31.32c-.058-.956-2.15-3.46-.95-4.328 1.447-.028.84 3.48 1.117 4.321.466-.6 1.08-4.46 2.571-4.192.824 1.04-2.278 3.864-2.374 4.206.625-.242 3.37-2.926 4.494-1.633-.063 1.11-3.65 1.288-4.398 1.724.648.092 4.236-1.05 4.423.331-.545 1.09-3.48-.242-4.485-.165.895.5 3.484.91 2.85 2.067-.737.81-2.244-1.445-2.99-1.992.37 1.08 1.955 2.462.858 3.116-1.65-.134-.817-2.26-1.044-3.14-.615.646-1.213 3.298-2.757 2.763-.471-1.426 2.394-2.377 2.64-2.824-.342-.106-3.73.873-4.07-.245.467-1.091 3.658.187 4.053.137-.19-.358-4.145-1.339-3.777-2.452 1.13-.791 3.39 2.09 3.839 2.305" style="fill:#5a8b39;fill-opacity:1;stroke:#3b5b25;stroke-width:.198437;stroke-linecap:round;stroke-linejoin:round;stroke-miterlimit:2;stroke-opacity:1" transform="translate(8.944 4.64)"/><path d="M3.834 30.167c.007-.957-1.91-3.597-.654-4.382 1.446.07.602 3.528.821 4.387.506-.567 1.381-4.377 2.85-4.008.752 1.094-2.536 3.7-2.655 4.035.64-.199 3.562-2.69 4.595-1.324-.138 1.103-3.729 1.037-4.504 1.421.64.137 4.297-.759 4.39.631-.619 1.05-3.456-.478-4.464-.47.859.561 3.415 1.146 2.702 2.257-.79.758-2.14-1.594-2.846-2.19.296 1.102 1.783 2.588.644 3.167-1.638-.246-.662-2.31-.829-3.204-.657.602-1.434 3.208-2.938 2.57-.373-1.456 2.55-2.21 2.826-2.64-.335-.128-3.78.619-4.044-.52.54-1.057 3.636.435 4.034.411-.165-.37-4.045-1.616-3.601-2.702 1.18-.713 3.24 2.315 3.673 2.56" style="fill:#5a8b39;fill-opacity:1;stroke:#3b5b25;stroke-width:.198437;stroke-linecap:round;stroke-linejoin:round;stroke-miterlimit:2;stroke-opacity:1" transform="translate(8.944 4.64)"/><path d="M12.56 30.274c.651-.701 1.02-3.943 2.476-3.674 1.02 1.029-1.938 3.01-2.356 3.79.755-.076 3.974-2.295 4.808-1.031-.184 1.314-4.369 1.017-4.683 1.184.607.285 4.444.42 4.284 2.125-.847.72-3.451-1.753-4.283-1.993.38.533 3.682 2.342 2.812 3.43-1.165.357-2.225-2.686-2.975-3.36.255.993 1.745 3.15.47 3.488-1.094.026-.502-2.62-.62-3.538-.527 1.014-.433 3.114-1.664 2.772-1.042-1.288 1.071-2.151 1.552-2.923-.892 0-3.224 1.397-3.902-.089.707-1.325 3.372.092 3.866-.038-.16-.32-3.206-2.097-2.631-3.115 1.111-.415 2.388 2.777 2.697 3.028.129-.384-1.891-3.924-.831-4.425 1.352.271.827 3.895.98 4.369" style="fill:#5a8b39;fill-opacity:1;stroke:#3b5b25;stroke-width:.198437;stroke-linecap:round;stroke-linejoin:round;stroke-miterlimit:2;stroke-opacity:1" transform="translate(8.944 4.64)"/><path d="M9.416 26.35c.053-.768 1.948-2.779.86-3.477-1.31-.023-.76 2.795-1.012 3.472-.422-.482-.979-3.584-2.33-3.369-.746.836 2.065 3.105 2.152 3.38-.567-.194-3.054-2.351-4.073-1.312.058.891 3.308 1.034 3.986 1.385-.587.074-3.839-.843-4.008.266.494.876 3.153-.194 4.064-.133-.81.403-3.157.732-2.582 1.661.667.651 2.033-1.16 2.709-1.6-.336.868-1.772 1.977-.778 2.504 1.496-.108.741-1.816.947-2.523.556.519 1.099 2.65 2.498 2.22.427-1.146-2.17-1.91-2.392-2.27.31-.084 3.38.702 3.688-.196-.423-.877-3.315.15-3.673.11.172-.288 3.756-1.076 3.422-1.97-1.023-.636-3.072 1.678-3.478 1.852M-1.43 27.017c.053-.767 1.949-2.779.861-3.477-1.311-.022-.761 2.796-1.012 3.472-.422-.482-.98-3.584-2.33-3.368-.747.836 2.065 3.105 2.151 3.38-.566-.195-3.054-2.352-4.072-1.313.057.892 3.308 1.035 3.985 1.385-.587.075-3.838-.843-4.007.267.494.875 3.152-.195 4.064-.133-.811.402-3.158.731-2.582 1.66.667.652 2.032-1.16 2.708-1.6-.336.868-1.771 1.978-.777 2.504 1.495-.108.74-1.816.946-2.523.557.519 1.1 2.65 2.498 2.22.427-1.146-2.17-1.91-2.392-2.27.31-.084 3.38.703 3.688-.196-.423-.877-3.314.15-3.672.11.171-.288 3.756-1.076 3.422-1.97-1.024-.636-3.073 1.679-3.479 1.852" style="fill:#5a8b39;fill-opacity:1;stroke:#3b5b25;stroke-width:.198437;stroke-linecap:round;stroke-linejoin:round;stroke-miterlimit:2;stroke-opacity:1" transform="translate(8.944 4.64)"/></svg>