<svg xmlns="http://www.w3.org/2000/svg" xmlns:xlink="http://www.w3.org/1999/xlink" xml:space="preserve" width="150" height="300" viewBox="0 0 39.688 79.375"><path id="a" d="M-16.012 74.565a.7.7 0 0 0-.216.03c-.188.055-.35.184-.486.369-.273.37-.453.967-.565 1.724-.225 1.513-.176 3.662.017 5.857s.53 4.436.883 6.13c.177.847.358 1.557.527 2.057a3.5 3.5 0 0 0 .246.586q.06.104.12.164c.04.04.084.066.134.066s.094-.026.133-.065a.7.7 0 0 0 .111-.162 3.2 3.2 0 0 0 .216-.574c.144-.491.288-1.187.423-2.019.27-1.663.502-3.867.601-6.038.1-2.17.07-4.307-.184-5.837-.127-.765-.309-1.38-.564-1.774-.128-.198-.275-.341-.445-.417a.75.75 0 0 0-.552-.01 1.1 1.1 0 0 0-.4-.087" style="baseline-shift:baseline;display:inline;overflow:visible;vector-effect:none;fill:#354e20;fill-opacity:1;stroke:none;stroke-width:.999995;stroke-linecap:round;stroke-linejoin:round;stroke-miterlimit:2;stroke-opacity:1;stop-color:#000"/><use xlink:href="#a" transform="rotate(15.883 28.967 178.628)"/><use xlink:href="#a" transform="rotate(12.331 28.283 266.905)"/><use xlink:href="#a" style="stroke-width:1.0034" transform="rotate(2.34 638.733 1058.66)scale(.99661)"/><use xlink:href="#a" style="stroke-width:1.02246" transform="rotate(12.81 120.836 213.59)scale(.97803)"/><use xlink:href="#a" style="stroke-width:1.02602" transform="rotate(-12.553 -29.817 -138.92)scale(.97464)"/><use xlink:href="#a" style="stroke-width:1.02333" transform="rotate(2.889 137.45 755.12)scale(.9772)"/><use xlink:href="#a" style="stroke-width:.982758" transform="rotate(9.043 144.164 246.255)scale(1.01754)"/><use xlink:href="#a" style="stroke-width:1.00722" transform="rotate(-1.558 -760.48 -1212.816)scale(.99283)"/><use xlink:href="#a" style="stroke-width:1.03027" transform="rotate(6.51 128.203 425.243)scale(.97062)"/><use xlink:href="#a" style="stroke-width:.996536" transform="rotate(15.606 120.265 176.5)scale(1.00348)"/><use xlink:href="#a" style="stroke-width:.994031" transform="rotate(-1.11 -1725.64 -1960.059)scale(1.006)"/><use xlink:href="#a" style="stroke-width:1.02864" transform="rotate(-14.09 -110.913 -105.833)scale(.97216)"/><use xlink:href="#a" style="stroke-width:1.02599" transform="rotate(21.212 52.84 181.907)scale(.97467)"/><use xlink:href="#a" style="stroke-width:.993389" transform="rotate(.819 1230.093 2372.09)scale(1.00665)"/><use xlink:href="#a" style="stroke-width:1.01264" transform="rotate(-5.828 -197.317 -306.025)scale(.98752)"/><use xlink:href="#a" style="stroke-width:1.00472" transform="rotate(5.267 43.893 421.817)scale(.9953)"/><use xlink:href="#a" style="stroke-width:1.00423" transform="rotate(-19.605 -14.61 -48.765)scale(.9958)"/><path id="b" d="M-24.826 86.618a3.3 3.3 0 0 0-.686.084c-1.825.418-3.602 2.328-5.068 4.775s-2.619 5.44-3.172 8.037c-.277 1.299-.404 2.498-.344 3.486.06.987.307 1.766.791 2.212a.056.056 0 0 0 .091-.026c1.064-3.564 2.987-5.696 3.637-8.095 1.188-4.392 2.364-6.97 3.45-8.36.544-.696 1.064-1.093 1.55-1.277.486-.185.939-.159 1.36.002.757.287 1.383 1.02 1.868 1.738.329.512.657 1.045.967 1.745l.001.001v.001a.056.056 0 0 0 .103-.043l-.002-.002c-.002-.004-.285-.718-.787-1.517-.053-.084-.133-.163-.19-.248-.063-.098-.129-.172-.193-.266v-.001c-.436-.64-.88-1.192-1.34-1.537a3.5 3.5 0 0 0-1.35-.64 3 3 0 0 0-.686-.069zm2.192 1.086q.075.05.146.106.036.039.073.075zm-10.33 9.382" style="baseline-shift:baseline;display:inline;overflow:visible;vector-effect:none;fill:#354e20;fill-opacity:1;stroke-width:1;stroke-linecap:round;stroke-linejoin:round;stroke-miterlimit:2;stop-color:#000"/><use xlink:href="#b" style="stroke-width:1.00109" transform="rotate(-2.054 -646.43 -1054.757)scale(.99891)"/><use xlink:href="#b" style="stroke-width:.975756" transform="rotate(14.118 148.341 238.7)scale(1.02485)"/><use xlink:href="#b" style="stroke-width:.997491" transform="matrix(-.9666 .2659 .2659 .9666 -21.583 -37.98)"/><use xlink:href="#b" style="stroke-width:.979109" transform="rotate(14.865 196.987 75.566)scale(-1.02134 1.02134)"/><use xlink:href="#b" style="stroke-width:1.00974" transform="rotate(-178.047 1.853 -19.534)scale(.99036 -.99036)"/><use xlink:href="#b" style="stroke-width:1.03074" transform="rotate(-24.43 -107.967 -38.866)scale(.97018)"/><use xlink:href="#b" style="stroke-width:.976639" transform="rotate(-9.62 -313.036 -169.942)scale(1.02392)"/><path id="c" d="M-16.682 96.447c-.615.003-1.29.22-2.03.684l-.003.001-.001.001h-.002l-.002.001a.069.069 0 0 0 .077.114l.004-.002c.008-.006.014-.003.022-.008q.405-.285.718-.284c.215 0 .407.089.588.262.362.347.663 1.04.918 1.975.51 1.869.847 4.692 1.282 7.643.696 4.717 4.125 9.144 4.125 9.144a.068.068 0 0 0 .122-.041s.017-5.923-.944-11.234c-.48-2.656-1.204-5.16-2.309-6.703-.552-.771-1.203-1.306-1.97-1.486a2.5 2.5 0 0 0-.595-.067z" style="baseline-shift:baseline;display:inline;overflow:visible;vector-effect:none;fill:#354e20;fill-opacity:1;stroke-width:1;stroke-linecap:round;stroke-linejoin:round;stroke-miterlimit:2;stop-color:#000"/><use xlink:href="#c" style="stroke-width:.993563" transform="rotate(-24.314 -136.505 -20.376)scale(1.00648)"/><use xlink:href="#c" style="stroke-width:1.165" transform="rotate(-4.541 -657.342 -474.76)scale(.85837)"/><use xlink:href="#c" style="stroke-width:1.18145" transform="rotate(-23.21 -132.522 -44.527)scale(.84641)"/><use xlink:href="#c" style="stroke-width:1.16261" transform="rotate(-13.834 -188.477 -96.995)scale(.86014)"/><use xlink:href="#c" style="stroke-width:1.165" transform="rotate(4.541 658.543 12.76)scale(-.85837 .85837)"/><use xlink:href="#c" style="stroke-width:1.18145" transform="rotate(23.21 148.33 50.18)scale(-.84641 .84641)"/><use xlink:href="#c" style="stroke-width:1.16261" transform="rotate(13.834 201.863 62.83)scale(-.86014 .86014)"/><use xlink:href="#a" style="stroke-width:1.01514" transform="rotate(11.264 248.842 204.898)scale(.98508)"/><use xlink:href="#a" style="stroke-width:1.01164" transform="rotate(-9.107 -312.83 -193.51)scale(.9885)"/><use xlink:href="#a" style="stroke-width:.992092" transform="rotate(6.512 444.981 373.64)scale(1.00797)"/><use xlink:href="#a" style="stroke-width:1.00939" transform="rotate(7.055 427.695 336.375)scale(.9907)"/><g style="display:inline"><path d="M33.628 5.563c-2.358 2.335-6.85 74.084-6.85 74.084l.91.021s4.447-68.354 5.94-74.105" style="fill:#638032;fill-opacity:1;stroke:none;stroke-width:.132292;stroke-linecap:round;stroke-linejoin:round;stroke-miterlimit:2;stroke-opacity:1" transform="rotate(-4.505 27.93 179.694)"/><g style="display:inline;stroke-width:5.79638"><path d="M84.1 255.232c3.334-2.407 4.015 5.422 5.278 13.988 1.005 6.811 5.969 13.23 5.969 13.23s.1-34.371-11.248-27.218" style="display:inline;fill:#517730;fill-opacity:1;stroke:#3c5924;stroke-width:1.15023;stroke-linecap:round;stroke-linejoin:round;stroke-miterlimit:2;stroke-dasharray:none;stroke-opacity:1" transform="matrix(.1317 -.10964 .11125 .13338 -20.188 -7.118)"/><path d="M84.1 255.232c7.558-5.219 6.658 18.67 11.247 27.219" style="display:inline;fill:none;fill-opacity:1;stroke:#3c5924;stroke-width:1.15023;stroke-linecap:round;stroke-linejoin:round;stroke-miterlimit:2;stroke-dasharray:none;stroke-opacity:1" transform="matrix(.1317 -.10964 .11125 .13338 -20.188 -7.118)"/></g><g style="display:inline;stroke-width:5.4918"><path d="M84.1 255.232c3.334-2.407 4.015 5.422 5.278 13.988 1.005 6.811 5.969 13.23 5.969 13.23s.1-34.371-11.248-27.218" style="display:inline;fill:#517730;fill-opacity:1;stroke:#3c5924;stroke-width:1.08979;stroke-linecap:round;stroke-linejoin:round;stroke-miterlimit:2;stroke-dasharray:none;stroke-opacity:1" transform="matrix(-.13892 -.11578 -.11736 .14086 60.897 -6.815)"/><path d="M84.1 255.232c7.558-5.219 6.658 18.67 11.247 27.219" style="display:inline;fill:none;fill-opacity:1;stroke:#3c5924;stroke-width:1.08979;stroke-linecap:round;stroke-linejoin:round;stroke-miterlimit:2;stroke-dasharray:none;stroke-opacity:1" transform="matrix(-.13892 -.11578 -.11736 .14086 60.897 -6.815)"/></g><g style="display:inline;stroke-width:5.01287"><path d="M84.1 255.232c3.334-2.407 4.015 5.422 5.278 13.988 1.005 6.811 5.969 13.23 5.969 13.23s.1-34.371-11.248-27.218" style="display:inline;fill:#517730;fill-opacity:1;stroke:#3c5924;stroke-width:.994751;stroke-linecap:round;stroke-linejoin:round;stroke-miterlimit:2;stroke-dasharray:none;stroke-opacity:1" transform="matrix(.15206 -.12696 .12846 .15445 -26.368 -5.36)"/><path d="M84.1 255.232c7.558-5.219 6.658 18.67 11.247 27.219" style="display:inline;fill:none;fill-opacity:1;stroke:#3c5924;stroke-width:.994751;stroke-linecap:round;stroke-linejoin:round;stroke-miterlimit:2;stroke-dasharray:none;stroke-opacity:1" transform="matrix(.15206 -.12696 .12846 .15445 -26.368 -5.36)"/></g><g style="display:inline;stroke-width:4.34912"><path d="M84.1 255.232c3.334-2.407 4.015 5.422 5.278 13.988 1.005 6.811 5.969 13.23 5.969 13.23s.1-34.371-11.248-27.218" style="display:inline;fill:#517730;fill-opacity:1;stroke:#3c5924;stroke-width:.863036;stroke-linecap:round;stroke-linejoin:round;stroke-miterlimit:2;stroke-dasharray:none;stroke-opacity:1" transform="matrix(-.17506 -.1465 -.14788 .17824 71.7 -5.179)"/><path d="M84.1 255.232c7.558-5.219 6.658 18.67 11.247 27.219" style="display:inline;fill:none;fill-opacity:1;stroke:#3c5924;stroke-width:.863036;stroke-linecap:round;stroke-linejoin:round;stroke-miterlimit:2;stroke-dasharray:none;stroke-opacity:1" transform="matrix(-.17506 -.1465 -.14788 .17824 71.7 -5.179)"/></g><g style="display:inline;stroke-width:3.55557"><path d="M84.1 255.232c3.334-2.407 4.015 5.422 5.278 13.988 1.005 6.811 5.969 13.23 5.969 13.23s.1-34.371-11.248-27.218" style="display:inline;fill:#517730;fill-opacity:1;stroke:#3c5924;stroke-width:.705564;stroke-linecap:round;stroke-linejoin:round;stroke-miterlimit:2;stroke-dasharray:none;stroke-opacity:1" transform="matrix(.21382 -.17947 .18062 .21833 -45 -8.074)"/><path d="M84.1 255.232c7.558-5.219 6.658 18.67 11.247 27.219" style="display:inline;fill:none;fill-opacity:1;stroke:#3c5924;stroke-width:.705564;stroke-linecap:round;stroke-linejoin:round;stroke-miterlimit:2;stroke-dasharray:none;stroke-opacity:1" transform="matrix(.21382 -.17947 .18062 .21833 -45 -8.074)"/></g><g style="display:inline;stroke-width:3.55557"><path d="M84.1 255.232c3.334-2.407 4.015 5.422 5.278 13.988 1.005 6.811 5.969 13.23 5.969 13.23s.1-34.371-11.248-27.218" style="display:inline;fill:#517730;fill-opacity:1;stroke:#3c5924;stroke-width:.705564;stroke-linecap:round;stroke-linejoin:round;stroke-miterlimit:2;stroke-dasharray:none;stroke-opacity:1" transform="matrix(-.21382 -.17947 -.18062 .21833 83.376 -3.198)"/><path d="M84.1 255.232c7.558-5.219 6.658 18.67 11.247 27.219" style="display:inline;fill:none;fill-opacity:1;stroke:#3c5924;stroke-width:.705564;stroke-linecap:round;stroke-linejoin:round;stroke-miterlimit:2;stroke-dasharray:none;stroke-opacity:1" transform="matrix(-.21382 -.17947 -.18062 .21833 83.376 -3.198)"/></g><path d="M32.175 16.025s-.682-2.855-1.458-4.088c.448-.039 1.91 3.258 1.458 4.088M32.283 12.79s-.305-2.41-.829-3.492c.369.007 1.27 2.847.83 3.491M32.605 11.777s.75-2.309 1.468-3.274c-.363-.062-1.78 2.559-1.468 3.274M32.308 14.66s1.449-2.345 2.505-3.214c-.39-.168-2.665 2.337-2.505 3.213" style="display:inline;fill:#517730;fill-opacity:1;stroke:#3c5924;stroke-width:.198437;stroke-linecap:round;stroke-linejoin:round;stroke-miterlimit:2;stroke-dasharray:none;stroke-opacity:1" transform="rotate(-4.505 27.93 179.694)"/><g transform="rotate(-4.505 27.93 179.694)"><g style="stroke:#638032;stroke-opacity:1"><path d="M25.004 5.026c.99 1.301 2.703 6.703 2.8 7.254M26.43 5.094c.92 1.363 1.219 3.481 1.463 4.899M32.002 4.61c-1.782 1.665-3.031 6.187-4.106 7.676M29.956 6.971l-1.908 3.5M28.811 6.33l-.7 2.609" style="fill:none;fill-opacity:1;stroke:#638032;stroke-width:.132;stroke-linecap:round;stroke-linejoin:round;stroke-miterlimit:2;stroke-dasharray:none;stroke-opacity:1" transform="translate(4.994 -1.732)"/></g><use xlink:href="#d" transform="rotate(-2.575 209.202 -56.998)"/><use xlink:href="#d" transform="rotate(-11.97 66.335 -17.473)"/><use xlink:href="#d" transform="rotate(12.487 -8.069 17.145)"/><use xlink:href="#d" transform="rotate(5.718 -59.941 39.321)"/><use xlink:href="#d" transform="rotate(2.802 -157.657 67.021)"/><use xlink:href="#d" transform="rotate(23.432 6.445 6.025)"/><use xlink:href="#d" transform="rotate(-12.478 67.421 -46.493)"/><use xlink:href="#d" transform="rotate(4.7 -72.303 110.245)"/><use xlink:href="#d" transform="rotate(4.26 -75.257 119.596)"/><use xlink:href="#d" transform="rotate(-21.174 55.12 -26.91)"/><use xlink:href="#d" transform="rotate(-9.68 74.013 -47.745)"/><use xlink:href="#d" transform="rotate(2.098 -194.503 216.91)"/><use xlink:href="#d" transform="rotate(10.353 -21.925 38.695)"/><use xlink:href="#d" transform="rotate(-12.29 75.203 -28.027)"/><use xlink:href="#d" transform="rotate(3.203 -120.374 96.046)"/><use xlink:href="#d" transform="rotate(-8.24 91.353 -43.901)"/><use xlink:href="#d" transform="rotate(-8.606 80.767 -31.828)"/><use xlink:href="#d" transform="rotate(20.654 10.415 14.548)"/><use xlink:href="#d" transform="rotate(-12.864 64.172 -27.578)"/><use xlink:href="#d" transform="rotate(6.488 -49.823 40.196)"/><use xlink:href="#d" transform="rotate(-2.693 231.256 -108.398)"/><use xlink:href="#d" transform="rotate(-3.444 182.798 -134.347)"/><use xlink:href="#d" transform="rotate(-6.71 98.13 -62.35)"/><use xlink:href="#d" transform="rotate(18.505 13.926 19.602)"/><use xlink:href="#d" transform="rotate(-4.938 97.238 -95.47)"/><use xlink:href="#d" transform="rotate(-19.136 50.42 -28.527)"/><use xlink:href="#d" transform="rotate(23.006 16.357 12.504)"/><use xlink:href="#d" transform="rotate(8.963 -5.614 27.66)"/><use xlink:href="#d" transform="rotate(-5.725 88.329 -36.813)"/><use xlink:href="#d" transform="rotate(11.147 -6.739 11.067)"/><use xlink:href="#d" transform="rotate(13.7 2.455 15.438)"/><use xlink:href="#d" transform="rotate(-7.737 79.918 -55.804)"/><use xlink:href="#d" transform="rotate(19.098 10.798 26.595)"/><use xlink:href="#d" transform="rotate(.425 -822.81 817.931)"/><use xlink:href="#d" transform="rotate(-20.139 47.743 -15.252)"/><use xlink:href="#d" transform="rotate(-15.838 53.964 -13.337)"/><use xlink:href="#d" transform="rotate(23.107 15.984 24.048)"/><use xlink:href="#d" transform="rotate(-22.877 50.834 -28.999)"/><use xlink:href="#d" transform="rotate(7.49 -40.724 69.366)"/><use xlink:href="#d" transform="rotate(10.914 -12.799 56.512)"/><use xlink:href="#d" transform="rotate(-22.828 46.839 -4.478)"/><use xlink:href="#d" transform="rotate(16.113 4.308 3.114)"/><use xlink:href="#d" transform="rotate(24.536 7.122 15.124)"/><use xlink:href="#d" transform="rotate(.9 -626.062 273.043)"/><use xlink:href="#d" transform="rotate(-2.735 242.818 -165.817)"/></g><path d="M23.956 9.748c2.082 2.584-1.482 74.384-1.482 74.384l-.907-.08s3.228-68.423 2.389-74.304" style="fill:#638032;fill-opacity:1;stroke:none;stroke-width:.132292;stroke-linecap:round;stroke-linejoin:round;stroke-miterlimit:2;stroke-opacity:1" transform="rotate(176.155 15.695 -2.783)scale(1 -1)"/><g style="display:inline;stroke-width:5.79638"><path d="M84.1 255.232c3.334-2.407 4.015 5.422 5.278 13.988 1.005 6.811 5.969 13.23 5.969 13.23s.1-34.371-11.248-27.218" style="display:inline;fill:#517730;fill-opacity:1;stroke:#3c5924;stroke-width:1.15023;stroke-linecap:round;stroke-linejoin:round;stroke-miterlimit:2;stroke-dasharray:none;stroke-opacity:1" transform="matrix(.1317 -.10964 .11125 .13338 -30.762 -4.973)"/><path d="M84.1 255.232c7.558-5.219 6.658 18.67 11.247 27.219" style="display:inline;fill:none;fill-opacity:1;stroke:#3c5924;stroke-width:1.15023;stroke-linecap:round;stroke-linejoin:round;stroke-miterlimit:2;stroke-dasharray:none;stroke-opacity:1" transform="matrix(.1317 -.10964 .11125 .13338 -30.762 -4.973)"/></g><g style="display:inline;stroke-width:5.79638"><path d="M84.1 255.232c3.334-2.407 4.015 5.422 5.278 13.988 1.005 6.811 5.969 13.23 5.969 13.23s.1-34.371-11.248-27.218" style="display:inline;fill:#517730;fill-opacity:1;stroke:#3c5924;stroke-width:1.15023;stroke-linecap:round;stroke-linejoin:round;stroke-miterlimit:2;stroke-dasharray:none;stroke-opacity:1" transform="matrix(-.1317 -.10964 -.11125 .13338 48.28 -2.513)"/><path d="M84.1 255.232c7.558-5.219 6.658 18.67 11.247 27.219" style="display:inline;fill:none;fill-opacity:1;stroke:#3c5924;stroke-width:1.15023;stroke-linecap:round;stroke-linejoin:round;stroke-miterlimit:2;stroke-dasharray:none;stroke-opacity:1" transform="matrix(-.1317 -.10964 -.11125 .13338 48.28 -2.513)"/></g><g style="display:inline;stroke-width:4.91715"><path d="M84.1 255.232c3.334-2.407 4.015 5.422 5.278 13.988 1.005 6.811 5.969 13.23 5.969 13.23s.1-34.371-11.248-27.218" style="display:inline;fill:#517730;fill-opacity:1;stroke:#3c5924;stroke-width:.975757;stroke-linecap:round;stroke-linejoin:round;stroke-miterlimit:2;stroke-dasharray:none;stroke-opacity:1" transform="matrix(.155 -.12945 .13093 .15748 -37.337 -3.842)"/><path d="M84.1 255.232c7.558-5.219 6.658 18.67 11.247 27.219" style="display:inline;fill:none;fill-opacity:1;stroke:#3c5924;stroke-width:.975757;stroke-linecap:round;stroke-linejoin:round;stroke-miterlimit:2;stroke-dasharray:none;stroke-opacity:1" transform="matrix(.155 -.12945 .13093 .15748 -37.337 -3.842)"/></g><path d="M24.246 21.41s1.892-2.277 3.165-3.052c-.407-.228-3.23 2.11-3.165 3.052M24.512 16.632s-.888-2.438-1.69-3.44c.386-.08 1.999 2.664 1.69 3.44M24.382 19.406s-1.053-2.836-1.995-4c.45-.096 2.348 3.094 1.995 4M24.59 15.612s.864-2.647 1.684-3.754c-.413-.07-2.036 2.935-1.684 3.754M24.446 18.08s1.363-2.703 2.43-3.757c-.437-.144-2.68 2.817-2.43 3.756M24.219 23.02s-1.634-3.359-2.937-4.678c.546-.17 3.27 3.523 2.937 4.678" style="display:inline;fill:#517730;fill-opacity:1;stroke:#3c5924;stroke-width:.198437;stroke-linecap:round;stroke-linejoin:round;stroke-miterlimit:2;stroke-dasharray:none;stroke-opacity:1" transform="rotate(176.155 15.695 -2.783)scale(1 -1)"/><g transform="rotate(176.155 15.695 -2.783)scale(1 -1)"><g style="stroke:#638032;stroke-opacity:1"><path d="M47.285 32.975c1.862 2.283 3.77 6.07 4.263 8.208M55.799 33.976c-2.326 1.728-3.345 4.955-4.009 7.444M49.325 32.82c2.032 2.706 1.786 5.367 2.29 8.398M51.48 31.762c-.425 2.133.19 6.467.19 8.652" style="fill:none;fill-opacity:1;stroke:#638032;stroke-width:.132;stroke-linecap:round;stroke-linejoin:round;stroke-miterlimit:2;stroke-dasharray:none;stroke-opacity:1" transform="rotate(174.245 36.565 -13.17)scale(1 -1)"/><path d="M55.262 32.515c-1.816 2.292-2.777 5.102-3.5 7.89" style="fill:none;fill-opacity:1;stroke:#638032;stroke-width:.132;stroke-linecap:round;stroke-linejoin:round;stroke-miterlimit:2;stroke-dasharray:none;stroke-opacity:1" transform="rotate(174.245 36.565 -13.17)scale(1 -1)"/></g><use xlink:href="#d" transform="rotate(-1.042 662.612 200.86)"/><use xlink:href="#d" transform="rotate(-18.52 62.936 8.902)"/><use xlink:href="#d" transform="rotate(-10.761 91.894 10.13)"/><use xlink:href="#d" transform="rotate(-24.13 52.907 4.61)"/><use xlink:href="#d" transform="rotate(20.275 -5.923 -6.184)"/><use xlink:href="#d" transform="rotate(-7.248 120.995 59.522)"/><use xlink:href="#d" transform="rotate(-14.346 75.386 26.018)"/><use xlink:href="#d" transform="rotate(20.404 -12.477 -18.6)"/><use xlink:href="#d" transform="rotate(23.793 -9.85 -18.001)"/><use xlink:href="#d" transform="rotate(-15.72 74.878 30.114)"/><use xlink:href="#d" transform="rotate(8.374 -70.686 -46.75)"/><use xlink:href="#d" transform="rotate(22.263 -10.857 -13.977)"/><use xlink:href="#d" transform="rotate(-9.189 98.066 40.251)"/><use xlink:href="#d" transform="rotate(-12.775 78.113 38.877)"/><use xlink:href="#d" transform="rotate(-22.912 54.511 24.607)"/><use xlink:href="#d" transform="rotate(-9.294 102.109 27.667)"/><use xlink:href="#d" transform="rotate(-22.988 57.307 9.683)"/><use xlink:href="#d" transform="rotate(15.388 -17.184 4.392)"/><use xlink:href="#d" transform="rotate(-14.711 77.889 -4.699)"/><use xlink:href="#d" transform="rotate(-9.376 107.199 -2.468)"/><use xlink:href="#d" transform="rotate(-9.835 101.691 -.055)"/><use xlink:href="#d" transform="rotate(14.314 -22.261 -.068)"/><use xlink:href="#d" transform="rotate(1.919 -363.849 -27.626)"/><use xlink:href="#d" transform="rotate(-2.291 368.757 .667)"/><use xlink:href="#d" transform="rotate(4.226 -140.845 20.996)"/><use xlink:href="#d" transform="rotate(2.655 -291.126 -44.898)"/><use xlink:href="#d" transform="rotate(22.406 -11.597 -5.654)"/><use xlink:href="#d" transform="rotate(14.439 -34.99 -8.493)"/><use xlink:href="#d" transform="rotate(3.208 -248.342 -32.365)"/><use xlink:href="#d" transform="rotate(-19.025 69.955 20.94)"/><use xlink:href="#d" transform="rotate(7.392 -101.517 -49.274)"/><use xlink:href="#d" transform="rotate(-2.762 361.678 123.49)"/><use xlink:href="#d" transform="rotate(-3.64 275.705 80.874)"/><use xlink:href="#d" transform="rotate(-1.71 515.412 21.129)"/><use xlink:href="#d" transform="rotate(-4.32 217.582 77.747)"/><use xlink:href="#d" transform="rotate(17.15 -20.053 -13.43)"/><use xlink:href="#d" transform="rotate(-14.146 75.16 22.662)"/></g><g style="display:inline;stroke-width:5.01042"><path d="M84.1 255.232c3.334-2.407 4.015 5.422 5.278 13.988 1.005 6.811 5.969 13.23 5.969 13.23s.1-34.371-11.248-27.218" style="display:inline;fill:#517730;fill-opacity:1;stroke:#3c5924;stroke-width:.994264;stroke-linecap:round;stroke-linejoin:round;stroke-miterlimit:2;stroke-dasharray:none;stroke-opacity:1" transform="matrix(-.15214 -.12702 -.12852 .15453 55.184 1.178)"/><path d="M84.1 255.232c7.558-5.219 6.658 18.67 11.247 27.219" style="display:inline;fill:none;fill-opacity:1;stroke:#3c5924;stroke-width:.994264;stroke-linecap:round;stroke-linejoin:round;stroke-miterlimit:2;stroke-dasharray:none;stroke-opacity:1" transform="matrix(-.15214 -.12702 -.12852 .15453 55.184 1.178)"/></g><g style="display:inline;stroke-width:3.74195"><path d="M84.1 255.232c3.334-2.407 4.015 5.422 5.278 13.988 1.005 6.811 5.969 13.23 5.969 13.23s.1-34.371-11.248-27.218" style="display:inline;fill:#517730;fill-opacity:1;stroke:#3c5924;stroke-width:.742551;stroke-linecap:round;stroke-linejoin:round;stroke-miterlimit:2;stroke-dasharray:none;stroke-opacity:1" transform="matrix(.20324 -.17047 .17169 .20739 -51.21 -7.234)"/><path d="M84.1 255.232c7.558-5.219 6.658 18.67 11.247 27.219" style="display:inline;fill:none;fill-opacity:1;stroke:#3c5924;stroke-width:.742551;stroke-linecap:round;stroke-linejoin:round;stroke-miterlimit:2;stroke-dasharray:none;stroke-opacity:1" transform="matrix(.20324 -.17047 .17169 .20739 -51.21 -7.234)"/></g><g style="display:inline;stroke-width:3.74195"><path d="M84.1 255.232c3.334-2.407 4.015 5.422 5.278 13.988 1.005 6.811 5.969 13.23 5.969 13.23s.1-34.371-11.248-27.218" style="display:inline;fill:#517730;fill-opacity:1;stroke:#3c5924;stroke-width:.742551;stroke-linecap:round;stroke-linejoin:round;stroke-miterlimit:2;stroke-dasharray:none;stroke-opacity:1" transform="matrix(-.20324 -.17047 -.17169 .20739 70.953 -2.96)"/><path d="M84.1 255.232c7.558-5.219 6.658 18.67 11.247 27.219" style="display:inline;fill:none;fill-opacity:1;stroke:#3c5924;stroke-width:.742551;stroke-linecap:round;stroke-linejoin:round;stroke-miterlimit:2;stroke-dasharray:none;stroke-opacity:1" transform="matrix(-.20324 -.17047 -.17169 .20739 70.953 -2.96)"/></g><g style="display:inline;stroke-width:2.30124"><path d="M84.1 255.232c3.334-2.407 4.015 5.422 5.278 13.988 1.005 6.811 5.969 13.23 5.969 13.23s.1-34.371-11.248-27.218" style="display:inline;fill:#517730;fill-opacity:1;stroke:#3c5924;stroke-width:.456658;stroke-linecap:round;stroke-linejoin:round;stroke-miterlimit:2;stroke-dasharray:none;stroke-opacity:1" transform="matrix(.3296 -.27792 .27844 .33811 -87.418 -13.92)"/><path d="M84.1 255.232c7.558-5.219 6.658 18.67 11.247 27.219" style="display:inline;fill:none;fill-opacity:1;stroke:#3c5924;stroke-width:.456658;stroke-linecap:round;stroke-linejoin:round;stroke-miterlimit:2;stroke-dasharray:none;stroke-opacity:1" transform="matrix(.3296 -.27792 .27844 .33811 -87.418 -13.92)"/></g><g style="display:inline;stroke-width:2.30124"><path d="M84.1 255.232c3.334-2.407 4.015 5.422 5.278 13.988 1.005 6.811 5.969 13.23 5.969 13.23s.1-34.371-11.248-27.218" style="display:inline;fill:#517730;fill-opacity:1;stroke:#3c5924;stroke-width:.456658;stroke-linecap:round;stroke-linejoin:round;stroke-miterlimit:2;stroke-dasharray:none;stroke-opacity:1" transform="matrix(-.3296 -.27792 -.27844 .33811 110.908 -8.72)"/><path d="M84.1 255.232c7.558-5.219 6.658 18.67 11.247 27.219" style="display:inline;fill:none;fill-opacity:1;stroke:#3c5924;stroke-width:.456658;stroke-linecap:round;stroke-linejoin:round;stroke-miterlimit:2;stroke-dasharray:none;stroke-opacity:1" transform="matrix(-.3296 -.27792 -.27844 .33811 110.908 -8.72)"/></g><path d="M23.956 9.748c2.082 2.584-1.482 74.384-1.482 74.384l-.907-.08s3.228-68.423 2.389-74.304" style="fill:#638032;fill-opacity:1;stroke:none;stroke-width:.132292;stroke-linecap:round;stroke-linejoin:round;stroke-miterlimit:2;stroke-opacity:1" transform="rotate(2.948 102.488 89.109)"/><g style="stroke-width:4.35632"><path d="M-11.978 250.797c-7.379-3.06-1.575 34.551.54 34.551 2.114 0 5.938-36.801-.54-34.551" style="display:inline;fill:#517730;fill-opacity:1;stroke:#3c5924;stroke-width:.864458;stroke-linecap:round;stroke-linejoin:round;stroke-miterlimit:2;stroke-dasharray:none;stroke-opacity:1" transform="matrix(.21912 -.0469 .04643 .23054 18.393 -34.313)"/><path d="m-11.978 250.797.72 34.65" style="fill:none;fill-opacity:1;stroke:#3c5924;stroke-width:.864458;stroke-linecap:round;stroke-linejoin:round;stroke-miterlimit:2;stroke-dasharray:none;stroke-opacity:1" transform="matrix(.21912 -.0469 .04643 .23054 18.393 -34.313)"/></g><g style="stroke-width:5.79638"><path d="M84.1 255.232c3.334-2.407 4.015 5.422 5.278 13.988 1.005 6.811 5.969 13.23 5.969 13.23s.1-34.371-11.248-27.218" style="display:inline;fill:#517730;fill-opacity:1;stroke:#3c5924;stroke-width:1.15023;stroke-linecap:round;stroke-linejoin:round;stroke-miterlimit:2;stroke-dasharray:none;stroke-opacity:1" transform="matrix(-.1317 -.10964 -.11125 .13338 67.221 -6.091)"/><path d="M84.1 255.232c7.558-5.219 6.658 18.67 11.247 27.219" style="display:inline;fill:none;fill-opacity:1;stroke:#3c5924;stroke-width:1.15023;stroke-linecap:round;stroke-linejoin:round;stroke-miterlimit:2;stroke-dasharray:none;stroke-opacity:1" transform="matrix(-.1317 -.10964 -.11125 .13338 67.221 -6.091)"/></g><g style="display:inline;stroke-width:5.79638"><path d="M84.1 255.232c3.334-2.407 4.015 5.422 5.278 13.988 1.005 6.811 5.969 13.23 5.969 13.23s.1-34.371-11.248-27.218" style="display:inline;fill:#517730;fill-opacity:1;stroke:#3c5924;stroke-width:1.15023;stroke-linecap:round;stroke-linejoin:round;stroke-miterlimit:2;stroke-dasharray:none;stroke-opacity:1" transform="matrix(.1317 -.10964 .11125 .13338 -11.635 -3.908)"/><path d="M84.1 255.232c7.558-5.219 6.658 18.67 11.247 27.219" style="display:inline;fill:none;fill-opacity:1;stroke:#3c5924;stroke-width:1.15023;stroke-linecap:round;stroke-linejoin:round;stroke-miterlimit:2;stroke-dasharray:none;stroke-opacity:1" transform="matrix(.1317 -.10964 .11125 .13338 -11.635 -3.908)"/></g><g transform="rotate(2.948 102.488 89.109)"><g style="stroke:#638032;stroke-opacity:1"><path d="M47.285 32.975c1.862 2.283 3.77 6.07 4.263 8.208M55.799 33.976c-2.326 1.728-3.345 4.955-4.009 7.444M49.325 32.82c2.032 2.706 1.786 5.367 2.29 8.398M51.48 31.762c-.425 2.133.19 6.467.19 8.652" style="fill:none;fill-opacity:1;stroke:#638032;stroke-width:.132;stroke-linecap:round;stroke-linejoin:round;stroke-miterlimit:2;stroke-dasharray:none;stroke-opacity:1" transform="rotate(174.245 36.565 -13.17)scale(1 -1)"/><path d="M55.262 32.515c-1.816 2.292-2.777 5.102-3.5 7.89" style="fill:none;fill-opacity:1;stroke:#638032;stroke-width:.132;stroke-linecap:round;stroke-linejoin:round;stroke-miterlimit:2;stroke-dasharray:none;stroke-opacity:1" transform="rotate(174.245 36.565 -13.17)scale(1 -1)"/></g><use xlink:href="#d" transform="rotate(-1.042 662.612 200.86)"/><use xlink:href="#d" transform="rotate(-18.52 62.936 8.902)"/><use xlink:href="#d" transform="rotate(-10.761 91.894 10.13)"/><use xlink:href="#d" transform="rotate(-24.13 52.907 4.61)"/><use xlink:href="#d" transform="rotate(20.275 -5.923 -6.184)"/><use xlink:href="#d" transform="rotate(-7.248 120.995 59.522)"/><use xlink:href="#d" transform="rotate(-14.346 75.386 26.018)"/><use xlink:href="#d" transform="rotate(20.404 -12.477 -18.6)"/><use xlink:href="#d" transform="rotate(23.793 -9.85 -18.001)"/><use xlink:href="#d" transform="rotate(-15.72 74.878 30.114)"/><use xlink:href="#d" transform="rotate(8.374 -70.686 -46.75)"/><use xlink:href="#d" transform="rotate(22.263 -10.857 -13.977)"/><use xlink:href="#d" transform="rotate(-9.189 98.066 40.251)"/><use xlink:href="#d" transform="rotate(-12.775 78.113 38.877)"/><use xlink:href="#d" transform="rotate(-22.912 54.511 24.607)"/><use xlink:href="#d" transform="rotate(-9.294 102.109 27.667)"/><use xlink:href="#d" transform="rotate(-22.988 57.307 9.683)"/><use xlink:href="#d" transform="rotate(15.388 -17.184 4.392)"/><use xlink:href="#d" transform="rotate(-14.711 77.889 -4.699)"/><use xlink:href="#d" transform="rotate(-9.376 107.199 -2.468)"/><use xlink:href="#d" transform="rotate(-9.835 101.691 -.055)"/><use xlink:href="#d" transform="rotate(14.314 -22.261 -.068)"/><use xlink:href="#d" transform="rotate(1.919 -363.849 -27.626)"/><use xlink:href="#d" transform="rotate(-2.291 368.757 .667)"/><use xlink:href="#d" transform="rotate(4.226 -140.845 20.996)"/><use xlink:href="#d" transform="rotate(2.655 -291.126 -44.898)"/><use xlink:href="#d" transform="rotate(22.406 -11.597 -5.654)"/><use xlink:href="#d" transform="rotate(14.439 -34.99 -8.493)"/><use xlink:href="#d" transform="rotate(3.208 -248.342 -32.365)"/><use xlink:href="#d" transform="rotate(-19.025 69.955 20.94)"/><use xlink:href="#d" transform="rotate(7.392 -101.517 -49.274)"/><use xlink:href="#d" transform="rotate(-2.762 361.678 123.49)"/><use xlink:href="#d" transform="rotate(-3.64 275.705 80.874)"/><use xlink:href="#d" transform="rotate(-1.71 515.412 21.129)"/><use xlink:href="#d" transform="rotate(-4.32 217.582 77.747)"/><use xlink:href="#d" transform="rotate(17.15 -20.053 -13.43)"/><use xlink:href="#d" transform="rotate(-14.146 75.16 22.662)"/></g><path d="M24.275 21.16s-.836-2.814-1.678-4.003c.446-.063 2.084 3.15 1.678 4.003M24.207 17.923s-.435-2.389-1.017-3.441c.368-.013 1.423 2.774 1.017 3.441M24.473 16.895s.625-2.347 1.289-3.349c-.366-.042-1.64 2.651-1.289 3.35M24.333 19.79s1.32-2.42 2.327-3.345c-.398-.147-2.534 2.478-2.327 3.344" style="display:inline;fill:#517730;fill-opacity:1;stroke:#3c5924;stroke-width:.198437;stroke-linecap:round;stroke-linejoin:round;stroke-miterlimit:2;stroke-dasharray:none;stroke-opacity:1" transform="rotate(2.948 102.488 89.109)"/></g><g style="stroke-width:2.04903"><path d="M84.1 255.232c3.334-2.407 4.015 5.422 5.278 13.988 1.005 6.811 5.969 13.23 5.969 13.23s.1-34.371-11.248-27.218" style="display:inline;fill:#517730;fill-opacity:1;stroke:#3c5924;stroke-width:.406608;stroke-linecap:round;stroke-linejoin:round;stroke-miterlimit:2;stroke-dasharray:none;stroke-opacity:1" transform="matrix(-.43776 -.21227 -.2135 .44055 115.252 -43.557)"/><path d="M84.1 255.232c7.558-5.219 6.658 18.67 11.247 27.219" style="display:inline;fill:none;fill-opacity:1;stroke:#3c5924;stroke-width:.406608;stroke-linecap:round;stroke-linejoin:round;stroke-miterlimit:2;stroke-dasharray:none;stroke-opacity:1" transform="matrix(-.43776 -.21227 -.2135 .44055 115.252 -43.557)"/></g><path d="M23.956 9.748c2.082 2.584-1.482 74.384-1.482 74.384l-.907-.08s3.228-68.423 2.389-74.304" style="fill:#638032;fill-opacity:1;stroke:none;stroke-width:.132292;stroke-linecap:round;stroke-linejoin:round;stroke-miterlimit:2;stroke-opacity:1" transform="translate(.445 .968)"/><path d="M24.264 23.883s-2.159-2.942-3.668-3.991c.52-.25 3.82 2.837 3.668 3.99M24.302 17.99s1.28-2.93 2.347-4.102c-.47-.128-2.669 3.124-2.347 4.102M24.249 21.41s1.515-3.408 2.766-4.768c-.547-.151-3.131 3.627-2.766 4.768M24.284 16.73s-.863-3.32-1.788-4.742c.514-.055 2.285 3.762 1.788 4.741M24.272 19.774s-1.473-3.426-2.707-4.802c.549-.144 3.087 3.666 2.707 4.802M24.173 25.864s2.271-4.006 3.979-5.528c-.66-.25-4.3 4.083-3.979 5.528" style="display:inline;fill:#517730;fill-opacity:1;stroke:#3c5924;stroke-width:.198437;stroke-linecap:round;stroke-linejoin:round;stroke-miterlimit:2;stroke-dasharray:none;stroke-opacity:1" transform="translate(.445 .968)"/><g style="stroke-width:1.64564"><path d="M84.1 255.232c3.334-2.407 4.015 5.422 5.278 13.988 1.005 6.811 5.969 13.23 5.969 13.23s.1-34.371-11.248-27.218" style="display:inline;fill:#517730;fill-opacity:1;stroke:#3c5924;stroke-width:.326559;stroke-linecap:round;stroke-linejoin:round;stroke-miterlimit:2;stroke-dasharray:none;stroke-opacity:1" transform="matrix(.54507 -.2643 .26584 .54853 -90.356 -50.362)"/><path d="M84.1 255.232c7.558-5.219 6.658 18.67 11.247 27.219" style="display:inline;fill:none;fill-opacity:1;stroke:#3c5924;stroke-width:.326559;stroke-linecap:round;stroke-linejoin:round;stroke-miterlimit:2;stroke-dasharray:none;stroke-opacity:1" transform="matrix(.54507 -.2643 .26584 .54853 -90.356 -50.362)"/></g><g style="stroke-width:1.64564"><path d="M84.1 255.232c3.334-2.407 4.015 5.422 5.278 13.988 1.005 6.811 5.969 13.23 5.969 13.23s.1-34.371-11.248-27.218" style="display:inline;fill:#517730;fill-opacity:1;stroke:#3c5924;stroke-width:.326559;stroke-linecap:round;stroke-linejoin:round;stroke-miterlimit:2;stroke-dasharray:none;stroke-opacity:1" transform="matrix(-.54507 -.2643 -.26584 .54853 137.942 -57.501)"/><path d="M84.1 255.232c7.558-5.219 6.658 18.67 11.247 27.219" style="display:inline;fill:none;fill-opacity:1;stroke:#3c5924;stroke-width:.326559;stroke-linecap:round;stroke-linejoin:round;stroke-miterlimit:2;stroke-dasharray:none;stroke-opacity:1" transform="matrix(-.54507 -.2643 -.26584 .54853 137.942 -57.501)"/></g><g style="stroke-width:1.8846"><path d="M84.1 255.232c3.334-2.407 4.015 5.422 5.278 13.988 1.005 6.811 5.969 13.23 5.969 13.23s.1-34.371-11.248-27.218" style="display:inline;fill:#517730;fill-opacity:1;stroke:#3c5924;stroke-width:.373979;stroke-linecap:round;stroke-linejoin:round;stroke-miterlimit:2;stroke-dasharray:none;stroke-opacity:1" transform="matrix(.47596 -.23079 .23213 .47899 -75.366 -49.55)"/><path d="M84.1 255.232c7.558-5.219 6.658 18.67 11.247 27.219" style="display:inline;fill:none;fill-opacity:1;stroke:#3c5924;stroke-width:.373979;stroke-linecap:round;stroke-linejoin:round;stroke-miterlimit:2;stroke-dasharray:none;stroke-opacity:1" transform="matrix(.47596 -.23079 .23213 .47899 -75.366 -49.55)"/></g><g style="stroke-width:1.95098"><path d="M-11.978 250.797c-7.379-3.06-1.575 34.551.54 34.551 2.114 0 5.938-36.801-.54-34.551" style="display:inline;fill:#517730;fill-opacity:1;stroke:#3c5924;stroke-width:.387147;stroke-linecap:round;stroke-linejoin:round;stroke-miterlimit:2;stroke-dasharray:none;stroke-opacity:1" transform="matrix(-.49678 -.10314 -.10526 .507 43.4 -58.676)"/><path d="m-11.978 250.797.72 34.65" style="fill:none;fill-opacity:1;stroke:#3c5924;stroke-width:.387147;stroke-linecap:round;stroke-linejoin:round;stroke-miterlimit:2;stroke-dasharray:none;stroke-opacity:1" transform="matrix(-.49678 -.10314 -.10526 .507 43.4 -58.676)"/></g><g transform="translate(.445 .968)"><g style="stroke:#638032;stroke-opacity:1"><path d="M47.285 32.975c1.862 2.283 3.77 6.07 4.263 8.208M55.799 33.976c-2.326 1.728-3.345 4.955-4.009 7.444M49.325 32.82c2.032 2.706 1.786 5.367 2.29 8.398M51.48 31.762c-.425 2.133.19 6.467.19 8.652" style="fill:none;fill-opacity:1;stroke:#638032;stroke-width:.132;stroke-linecap:round;stroke-linejoin:round;stroke-miterlimit:2;stroke-dasharray:none;stroke-opacity:1" transform="rotate(174.245 36.565 -13.17)scale(1 -1)"/><path d="M55.262 32.515c-1.816 2.292-2.777 5.102-3.5 7.89" style="fill:none;fill-opacity:1;stroke:#638032;stroke-width:.132;stroke-linecap:round;stroke-linejoin:round;stroke-miterlimit:2;stroke-dasharray:none;stroke-opacity:1" transform="rotate(174.245 36.565 -13.17)scale(1 -1)"/></g><use xlink:href="#d" transform="rotate(-1.042 662.612 200.86)"/><use xlink:href="#d" transform="rotate(-18.52 62.936 8.902)"/><use xlink:href="#d" transform="rotate(-10.761 91.894 10.13)"/><use xlink:href="#d" transform="rotate(-24.13 52.907 4.61)"/><use xlink:href="#d" transform="rotate(20.275 -5.923 -6.184)"/><use xlink:href="#d" transform="rotate(-7.248 120.995 59.522)"/><use xlink:href="#d" transform="rotate(-14.346 75.386 26.018)"/><use xlink:href="#d" transform="rotate(20.404 -12.477 -18.6)"/><use xlink:href="#d" transform="rotate(23.793 -9.85 -18.001)"/><use xlink:href="#d" transform="rotate(-15.72 74.878 30.114)"/><use xlink:href="#d" transform="rotate(8.374 -70.686 -46.75)"/><use xlink:href="#d" transform="rotate(22.263 -10.857 -13.977)"/><use xlink:href="#d" transform="rotate(-9.189 98.066 40.251)"/><use xlink:href="#d" transform="rotate(-12.775 78.113 38.877)"/><use xlink:href="#d" transform="rotate(-22.912 54.511 24.607)"/><use xlink:href="#d" transform="rotate(-9.294 102.109 27.667)"/><use xlink:href="#d" transform="rotate(-22.988 57.307 9.683)"/><use xlink:href="#d" transform="rotate(15.388 -17.184 4.392)"/><use xlink:href="#d" transform="rotate(-14.711 77.889 -4.699)"/><use xlink:href="#d" transform="rotate(-9.376 107.199 -2.468)"/><use xlink:href="#d" transform="rotate(-9.835 101.691 -.055)"/><use xlink:href="#d" transform="rotate(14.314 -22.261 -.068)"/><use xlink:href="#d" transform="rotate(1.919 -363.849 -27.626)"/><use xlink:href="#d" transform="rotate(-2.291 368.757 .667)"/><use xlink:href="#d" transform="rotate(4.226 -140.845 20.996)"/><use xlink:href="#d" transform="rotate(2.655 -291.126 -44.898)"/><use xlink:href="#d" transform="rotate(22.406 -11.597 -5.654)"/><use xlink:href="#d" transform="rotate(14.439 -34.99 -8.493)"/><use xlink:href="#d" transform="rotate(3.208 -248.342 -32.365)"/><use xlink:href="#d" transform="rotate(-19.025 69.955 20.94)"/><use xlink:href="#d" transform="rotate(7.392 -101.517 -49.274)"/><use xlink:href="#d" transform="rotate(-2.762 361.678 123.49)"/><use xlink:href="#d" transform="rotate(-3.64 275.705 80.874)"/><use xlink:href="#d" transform="rotate(-1.71 515.412 21.129)"/><use xlink:href="#d" transform="rotate(-4.32 217.582 77.747)"/><use xlink:href="#d" transform="rotate(17.15 -20.053 -13.43)"/><use xlink:href="#d" transform="rotate(-14.146 75.16 22.662)"/></g><g style="stroke-width:2.2263"><path d="M84.1 255.232c3.334-2.407 4.015 5.422 5.278 13.988 1.005 6.811 5.969 13.23 5.969 13.23s.1-34.371-11.248-27.218" style="display:inline;fill:#517730;fill-opacity:1;stroke:#3c5924;stroke-width:.441785;stroke-linecap:round;stroke-linejoin:round;stroke-miterlimit:2;stroke-dasharray:none;stroke-opacity:1" transform="matrix(.4029 -.19537 .1965 .40547 -59.713 -40.709)"/><path d="M84.1 255.232c7.558-5.219 6.658 18.67 11.247 27.219" style="display:inline;fill:none;fill-opacity:1;stroke:#3c5924;stroke-width:.441785;stroke-linecap:round;stroke-linejoin:round;stroke-miterlimit:2;stroke-dasharray:none;stroke-opacity:1" transform="matrix(.4029 -.19537 .1965 .40547 -59.713 -40.709)"/></g><g style="stroke-width:2.52234"><path d="M84.1 255.232c3.334-2.407 4.015 5.422 5.278 13.988 1.005 6.811 5.969 13.23 5.969 13.23s.1-34.371-11.248-27.218" style="display:inline;fill:#517730;fill-opacity:1;stroke:#3c5924;stroke-width:.500531;stroke-linecap:round;stroke-linejoin:round;stroke-miterlimit:2;stroke-dasharray:none;stroke-opacity:1" transform="matrix(-.3556 -.17244 -.17344 .35789 98.34 -36.053)"/><path d="M84.1 255.232c7.558-5.219 6.658 18.67 11.247 27.219" style="display:inline;fill:none;fill-opacity:1;stroke:#3c5924;stroke-width:.500531;stroke-linecap:round;stroke-linejoin:round;stroke-miterlimit:2;stroke-dasharray:none;stroke-opacity:1" transform="matrix(-.3556 -.17244 -.17344 .35789 98.34 -36.053)"/></g><g style="stroke-width:2.83285"><path d="M84.1 255.232c3.334-2.407 4.015 5.422 5.278 13.988 1.005 6.811 5.969 13.23 5.969 13.23s.1-34.371-11.248-27.218" style="display:inline;fill:#517730;fill-opacity:1;stroke:#3c5924;stroke-width:.562148;stroke-linecap:round;stroke-linejoin:round;stroke-miterlimit:2;stroke-dasharray:none;stroke-opacity:1" transform="matrix(.25115 -.24649 .2484 .25237 -59.998 -8.246)"/><path d="M84.1 255.232c7.558-5.219 6.658 18.67 11.247 27.219" style="display:inline;fill:none;fill-opacity:1;stroke:#3c5924;stroke-width:.562148;stroke-linecap:round;stroke-linejoin:round;stroke-miterlimit:2;stroke-dasharray:none;stroke-opacity:1" transform="matrix(.25115 -.24649 .2484 .25237 -59.998 -8.246)"/></g><g style="stroke-width:4.08893"><path d="M84.1 255.232c3.334-2.407 4.015 5.422 5.278 13.988 1.005 6.811 5.969 13.23 5.969 13.23s.1-34.371-11.248-27.218" style="display:inline;fill:#517730;fill-opacity:1;stroke:#3c5924;stroke-width:.811403;stroke-linecap:round;stroke-linejoin:round;stroke-miterlimit:2;stroke-dasharray:none;stroke-opacity:1" transform="matrix(-.11532 -.21327 -.2191 .11343 90.25 17.083)"/><path d="M84.1 255.232c7.558-5.219 6.658 18.67 11.247 27.219" style="display:inline;fill:none;fill-opacity:1;stroke:#3c5924;stroke-width:.811403;stroke-linecap:round;stroke-linejoin:round;stroke-miterlimit:2;stroke-dasharray:none;stroke-opacity:1" transform="matrix(-.11532 -.21327 -.2191 .11343 90.25 17.083)"/></g><g style="stroke-width:3.25926"><path d="M-11.978 250.797c-7.379-3.06-1.575 34.551.54 34.551 2.114 0 5.938-36.801-.54-34.551" style="display:inline;fill:#517730;fill-opacity:1;stroke:#3c5924;stroke-width:.646759;stroke-linecap:round;stroke-linejoin:round;stroke-miterlimit:2;stroke-dasharray:none;stroke-opacity:1" transform="matrix(-.29492 -.06225 -.06249 .306 36.82 -47.608)"/><path d="m-11.978 250.797.72 34.65" style="fill:none;fill-opacity:1;stroke:#3c5924;stroke-width:.646759;stroke-linecap:round;stroke-linejoin:round;stroke-miterlimit:2;stroke-dasharray:none;stroke-opacity:1" transform="matrix(-.29492 -.06225 -.06249 .306 36.82 -47.608)"/></g><path d="M13.945 23.087s-1.178-3.683-2.322-5.227c.588-.093 2.838 4.093 2.322 5.227M13.773 18.828s-.637-3.133-1.434-4.503c.488-.026 1.954 3.615 1.434 4.503" style="display:inline;fill:#517730;fill-opacity:1;stroke:#3c5924;stroke-width:.198437;stroke-linecap:round;stroke-linejoin:round;stroke-miterlimit:2;stroke-dasharray:none;stroke-opacity:1" transform="translate(.127 -.05)"/><path d="M14.344 10.201c-2.081 2.584 1.482 74.385 1.482 74.385l.907-.08S13.505 16.083 14.344 10.2" style="fill:#638032;fill-opacity:1;stroke:none;stroke-width:.132292;stroke-linecap:round;stroke-linejoin:round;stroke-miterlimit:2;stroke-opacity:1" transform="translate(.127 -.05)"/><path d="M14.1 17.468s.766-3.104 1.619-4.44c-.486-.046-2.102 3.531-1.62 4.44M13.987 21.281s1.685-3.218 2.994-4.46c-.53-.184-3.29 3.325-2.994 4.46" style="display:inline;fill:#517730;fill-opacity:1;stroke:#3c5924;stroke-width:.198437;stroke-linecap:round;stroke-linejoin:round;stroke-miterlimit:2;stroke-dasharray:none;stroke-opacity:1" transform="translate(.127 -.05)"/><g style="stroke-width:4.41336"><path d="M-11.978 250.797c-7.379-3.06-1.575 34.551.54 34.551 2.114 0 5.938-36.801-.54-34.551" style="display:inline;fill:#517730;fill-opacity:1;stroke:#3c5924;stroke-width:.875777;stroke-linecap:round;stroke-linejoin:round;stroke-miterlimit:2;stroke-dasharray:none;stroke-opacity:1" transform="matrix(-.21834 -.02438 -.02373 .2325 17.328 -32.61)"/><path d="m-11.978 250.797.72 34.65" style="fill:none;fill-opacity:1;stroke:#3c5924;stroke-width:.875777;stroke-linecap:round;stroke-linejoin:round;stroke-miterlimit:2;stroke-dasharray:none;stroke-opacity:1" transform="matrix(-.21834 -.02438 -.02373 .2325 17.328 -32.61)"/></g><g style="stroke-width:2.34047"><path d="M-39.152 256.195s-8.089-20.34-16.562 10.962c-1.147 4.24-4.573 8.045-6.473 14.412-6.658-6.118 11.968-50.298 23.035-25.374" style="fill:#517730;fill-opacity:1;stroke:#3c5924;stroke-width:.464435;stroke-linecap:round;stroke-linejoin:round;stroke-miterlimit:2;stroke-dasharray:none;stroke-opacity:1" transform="matrix(-.36936 .13091 .14807 .44176 -37.459 -44.28)"/><path d="M-62.187 281.57c-2.879.27 11.338-50.479 23.035-25.375" style="fill:none;fill-opacity:1;stroke:#3c5924;stroke-width:.464435;stroke-linecap:round;stroke-linejoin:round;stroke-miterlimit:2;stroke-dasharray:none;stroke-opacity:1" transform="matrix(-.36936 .13091 .14807 .44176 -37.459 -44.28)"/></g><g style="stroke-width:2.59463"><path d="M-39.152 256.195s-8.089-20.34-16.562 10.962c-1.147 4.24-4.573 8.045-6.473 14.412-6.658-6.118 11.968-50.298 23.035-25.374" style="fill:#517730;fill-opacity:1;stroke:#3c5924;stroke-width:.514869;stroke-linecap:round;stroke-linejoin:round;stroke-miterlimit:2;stroke-dasharray:none;stroke-opacity:1" transform="matrix(-.34361 .08278 .09136 .41029 -22.25 -59.078)"/><path d="M-62.187 281.57c-2.879.27 11.338-50.479 23.035-25.375" style="fill:none;fill-opacity:1;stroke:#3c5924;stroke-width:.514869;stroke-linecap:round;stroke-linejoin:round;stroke-miterlimit:2;stroke-dasharray:none;stroke-opacity:1" transform="matrix(-.34361 .08278 .09136 .41029 -22.25 -59.078)"/></g><g style="stroke-width:5.62221"><path d="M-39.152 256.195s-8.089-20.34-16.562 10.962c-1.147 4.24-4.573 8.045-6.473 14.412-6.658-6.118 11.968-50.298 23.035-25.374" style="fill:#517730;fill-opacity:1;stroke:#3c5924;stroke-width:1.11565;stroke-linecap:round;stroke-linejoin:round;stroke-miterlimit:2;stroke-dasharray:none;stroke-opacity:1" transform="matrix(-.14472 .07536 .08687 .17336 -13.765 -17.028)"/><path d="M-62.187 281.57c-2.879.27 11.338-50.479 23.035-25.375" style="fill:none;fill-opacity:1;stroke:#3c5924;stroke-width:1.11565;stroke-linecap:round;stroke-linejoin:round;stroke-miterlimit:2;stroke-dasharray:none;stroke-opacity:1" transform="matrix(-.14472 .07536 .08687 .17336 -13.765 -17.028)"/></g><g transform="translate(2.672 12.262)"><g style="stroke:#638032;stroke-opacity:1"><path d="M25.004 5.026c.99 1.301 2.703 6.703 2.8 7.254M26.43 5.094c.92 1.363 1.219 3.481 1.463 4.899M32.002 4.61c-1.782 1.665-3.031 6.187-4.106 7.676M29.956 6.971l-1.908 3.5M28.811 6.33l-.7 2.609" style="fill:none;fill-opacity:1;stroke:#638032;stroke-width:.132;stroke-linecap:round;stroke-linejoin:round;stroke-miterlimit:2;stroke-dasharray:none;stroke-opacity:1" transform="translate(-16.472 -10.365)"/></g><use xlink:href="#d" transform="rotate(8.544 22.125 -131.136)"/><use xlink:href="#d" transform="rotate(-1.028 -4.166 967.585)"/><use xlink:href="#d" transform="rotate(-1.954 21.054 530.135)"/><use xlink:href="#d" transform="rotate(-13.502 23.563 57.757)"/><use xlink:href="#d" transform="rotate(-9.252 16.743 94.74)"/><use xlink:href="#d" transform="rotate(2.705 52.371 -326.7)"/><use xlink:href="#d" transform="rotate(12.486 23.163 -71.586)"/><use xlink:href="#d" transform="rotate(1.135 61.062 -587.46)"/><use xlink:href="#d" transform="rotate(3.073 46.18 -239.468)"/><use xlink:href="#d" transform="rotate(18.673 26.341 -47.494)"/><use xlink:href="#d" transform="rotate(-1.546 -8.736 491.794)"/><use xlink:href="#d" transform="rotate(-.28 75.492 2222.919)"/><use xlink:href="#d" transform="rotate(-15.138 21.436 40.026)"/><use xlink:href="#d" transform="rotate(-13.437 27.149 54.507)"/><use xlink:href="#d" transform="rotate(-1.647 63.053 442.245)"/><use xlink:href="#d" transform="rotate(17.287 18.601 -49.426)"/><use xlink:href="#d" transform="rotate(-14.58 22.681 66.691)"/><use xlink:href="#d" transform="rotate(2.488 4.945 -443.015)"/><use xlink:href="#d" transform="rotate(-2.354 14.24 481.658)"/><use xlink:href="#d" transform="rotate(-23.058 14.374 38.245)"/><use xlink:href="#d" transform="rotate(-10.848 10.894 81.09)"/><use xlink:href="#d" transform="rotate(20.859 17.37 -46.517)"/><use xlink:href="#d" transform="rotate(-6.264 18.654 133.041)"/><use xlink:href="#d" transform="rotate(5.878 20.784 -129.237)"/><use xlink:href="#d" transform="rotate(14.763 17.229 -69.794)"/><use xlink:href="#d" transform="rotate(3.48 24.943 -234.636)"/><use xlink:href="#d" transform="rotate(11.3 23.943 -84.814)"/><use xlink:href="#d" transform="rotate(-1.047 -89.153 872.746)"/><use xlink:href="#d" transform="rotate(16.419 10.911 -56.476)"/><use xlink:href="#d" transform="rotate(16.085 8.193 -59.295)"/><use xlink:href="#d" transform="rotate(24.4 11.261 -37.65)"/></g><g style="stroke-width:1.64564"><path d="M84.1 255.232c3.334-2.407 4.015 5.422 5.278 13.988 1.005 6.811 5.969 13.23 5.969 13.23s.1-34.371-11.248-27.218" style="display:inline;fill:#517730;fill-opacity:1;stroke:#3c5924;stroke-width:.326559;stroke-linecap:round;stroke-linejoin:round;stroke-miterlimit:2;stroke-dasharray:none;stroke-opacity:1" transform="matrix(.56298 -.22363 .22492 .56655 -88.852 -55.25)"/><path d="M84.1 255.232c7.558-5.219 6.658 18.67 11.247 27.219" style="display:inline;fill:none;fill-opacity:1;stroke:#3c5924;stroke-width:.326559;stroke-linecap:round;stroke-linejoin:round;stroke-miterlimit:2;stroke-dasharray:none;stroke-opacity:1" transform="matrix(.56298 -.22363 .22492 .56655 -88.852 -55.25)"/></g><g style="stroke-width:1.77223"><path d="M84.1 255.232c3.334-2.407 4.015 5.422 5.278 13.988 1.005 6.811 5.969 13.23 5.969 13.23s.1-34.371-11.248-27.218" style="display:inline;fill:#517730;fill-opacity:1;stroke:#3c5924;stroke-width:.351679;stroke-linecap:round;stroke-linejoin:round;stroke-miterlimit:2;stroke-dasharray:none;stroke-opacity:1" transform="matrix(-.52273 -.20767 -.20883 .52612 112.323 -70.202)"/><path d="M84.1 255.232c7.558-5.219 6.658 18.67 11.247 27.219" style="display:inline;fill:none;fill-opacity:1;stroke:#3c5924;stroke-width:.351679;stroke-linecap:round;stroke-linejoin:round;stroke-miterlimit:2;stroke-dasharray:none;stroke-opacity:1" transform="matrix(-.52273 -.20767 -.20883 .52612 112.323 -70.202)"/></g><g style="stroke-width:2.44767"><path d="M84.1 255.232c3.334-2.407 4.015 5.422 5.278 13.988 1.005 6.811 5.969 13.23 5.969 13.23s.1-34.371-11.248-27.218" style="display:inline;fill:#517730;fill-opacity:1;stroke:#3c5924;stroke-width:.485713;stroke-linecap:round;stroke-linejoin:round;stroke-miterlimit:2;stroke-dasharray:none;stroke-opacity:1" transform="matrix(-.37833 -.15043 -.15114 .3811 84.835 -47.425)"/><path d="M84.1 255.232c7.558-5.219 6.658 18.67 11.247 27.219" style="display:inline;fill:none;fill-opacity:1;stroke:#3c5924;stroke-width:.485713;stroke-linecap:round;stroke-linejoin:round;stroke-miterlimit:2;stroke-dasharray:none;stroke-opacity:1" transform="matrix(-.37833 -.15043 -.15114 .3811 84.835 -47.425)"/></g><g style="stroke-width:2.72567"><path d="M84.1 255.232c3.334-2.407 4.015 5.422 5.278 13.988 1.005 6.811 5.969 13.23 5.969 13.23s.1-34.371-11.248-27.218" style="display:inline;fill:#517730;fill-opacity:1;stroke:#3c5924;stroke-width:.540879;stroke-linecap:round;stroke-linejoin:round;stroke-miterlimit:2;stroke-dasharray:none;stroke-opacity:1" transform="matrix(.30318 -.20425 .20539 .3056 -63.486 -28.687)"/><path d="M84.1 255.232c7.558-5.219 6.658 18.67 11.247 27.219" style="display:inline;fill:none;fill-opacity:1;stroke:#3c5924;stroke-width:.540879;stroke-linecap:round;stroke-linejoin:round;stroke-miterlimit:2;stroke-dasharray:none;stroke-opacity:1" transform="matrix(.30318 -.20425 .20539 .3056 -63.486 -28.687)"/></g><g style="stroke-width:1.64564"><path d="M84.1 255.232c3.334-2.407 4.015 5.422 5.278 13.988 1.005 6.811 5.969 13.23 5.969 13.23s.1-34.371-11.248-27.218" style="display:inline;fill:#517730;fill-opacity:1;stroke:#3c5924;stroke-width:.326559;stroke-linecap:round;stroke-linejoin:round;stroke-miterlimit:2;stroke-dasharray:none;stroke-opacity:1" transform="matrix(-.56298 -.22363 -.22492 .56655 120.327 -59.81)"/><path d="M84.1 255.232c7.558-5.219 6.658 18.67 11.247 27.219" style="display:inline;fill:none;fill-opacity:1;stroke:#3c5924;stroke-width:.326559;stroke-linecap:round;stroke-linejoin:round;stroke-miterlimit:2;stroke-dasharray:none;stroke-opacity:1" transform="matrix(-.56298 -.22363 -.22492 .56655 120.327 -59.81)"/></g><g style="stroke-width:1.95098"><path d="M-11.978 250.797c-7.379-3.06-1.575 34.551.54 34.551 2.114 0 5.938-36.801-.54-34.551" style="display:inline;fill:#517730;fill-opacity:1;stroke:#3c5924;stroke-width:.387147;stroke-linecap:round;stroke-linejoin:round;stroke-miterlimit:2;stroke-dasharray:none;stroke-opacity:1" transform="rotate(-168.272 15.47 -29.265)scale(.50738 -.5178)"/><path d="m-11.978 250.797.72 34.65" style="fill:none;fill-opacity:1;stroke:#3c5924;stroke-width:.387147;stroke-linecap:round;stroke-linejoin:round;stroke-miterlimit:2;stroke-dasharray:none;stroke-opacity:1" transform="rotate(-168.272 15.47 -29.265)scale(.50738 -.5178)"/></g><g style="stroke-width:2.1698"><path d="M-11.978 250.797c-7.379-3.06-1.575 34.551.54 34.551 2.114 0 5.938-36.801-.54-34.551" style="display:inline;fill:#517730;fill-opacity:1;stroke:#3c5924;stroke-width:.43057;stroke-linecap:round;stroke-linejoin:round;stroke-miterlimit:2;stroke-dasharray:none;stroke-opacity:1" transform="matrix(.45303 -.04862 .04923 .46357 8.005 -64.428)"/><path d="m-11.978 250.797.72 34.65" style="fill:none;fill-opacity:1;stroke:#3c5924;stroke-width:.43057;stroke-linecap:round;stroke-linejoin:round;stroke-miterlimit:2;stroke-dasharray:none;stroke-opacity:1" transform="matrix(.45303 -.04862 .04923 .46357 8.005 -64.428)"/></g><path id="d" d="M28.748-4.409c-.454.292-.208-.79-.744-.725s-.034 1.057-.546.884c-.511-.173.489-.656.103-1.034-.386-.377-.847.632-1.03.125-.184-.508.816-.027.871-.564.055-.538-1.022-.27-.74-.73s.53.623.985.33c.454-.291-.428-.966.108-1.032s-.155.803.356.976c.512.173.49-.937.875-.56.386.378-.724.38-.54.887.183.508 1.037-.202.982.336-.055.537-.748-.33-1.03.13s.805.685.35.977" style="fill:#dbcd1c;fill-opacity:1;stroke:#b1a617;stroke-width:.314592;stroke-linecap:round;stroke-linejoin:round;stroke-miterlimit:2;stroke-dasharray:none;stroke-opacity:1" transform="matrix(.41957 0 0 .41962 15.386 -2.455)"/><g style="stroke-width:4.26967"><path d="M84.1 255.232c3.334-2.407 4.015 5.422 5.278 13.988 1.005 6.811 5.969 13.23 5.969 13.23s.1-34.371-11.248-27.218" style="display:inline;fill:#517730;fill-opacity:1;stroke:#3c5924;stroke-width:.84727;stroke-linecap:round;stroke-linejoin:round;stroke-miterlimit:2;stroke-dasharray:none;stroke-opacity:1" transform="matrix(.17829 -.14926 .15061 .18158 -21.175 -8.059)"/><path d="M84.1 255.232c7.558-5.219 6.658 18.67 11.247 27.219" style="display:inline;fill:none;fill-opacity:1;stroke:#3c5924;stroke-width:.84727;stroke-linecap:round;stroke-linejoin:round;stroke-miterlimit:2;stroke-dasharray:none;stroke-opacity:1" transform="matrix(.17829 -.14926 .15061 .18158 -21.175 -8.059)"/></g><path d="M32.333 13.439s-.476-3.162-1.201-4.571c.488-.001 1.766 3.71 1.201 4.57M31.891 16.481s-1.379-3.36-2.567-4.718c.544-.134 2.967 3.615 2.567 4.718" style="display:inline;fill:#517730;fill-opacity:1;stroke:#3c5924;stroke-width:.198437;stroke-linecap:round;stroke-linejoin:round;stroke-miterlimit:2;stroke-dasharray:none;stroke-opacity:1" transform="translate(.636 4.595)"/><g style="stroke-width:2.34047"><path d="M-39.152 256.195s-8.089-20.34-16.562 10.962c-1.147 4.24-4.573 8.045-6.473 14.412-6.658-6.118 11.968-50.298 23.035-25.374" style="fill:#517730;fill-opacity:1;stroke:#3c5924;stroke-width:.464435;stroke-linecap:round;stroke-linejoin:round;stroke-miterlimit:2;stroke-dasharray:none;stroke-opacity:1" transform="matrix(-.39172 .01103 .0051 .4659 12.576 -54.535)"/><path d="M-62.187 281.57c-2.879.27 11.338-50.479 23.035-25.375" style="fill:none;fill-opacity:1;stroke:#3c5924;stroke-width:.464435;stroke-linecap:round;stroke-linejoin:round;stroke-miterlimit:2;stroke-dasharray:none;stroke-opacity:1" transform="matrix(-.39172 .01103 .0051 .4659 12.576 -54.535)"/></g><path d="M33.628 5.563c-2.358 2.335-6.85 74.084-6.85 74.084l.91.021s4.447-68.354 5.94-74.105" style="fill:#638032;fill-opacity:1;stroke:none;stroke-width:.132292;stroke-linecap:round;stroke-linejoin:round;stroke-miterlimit:2;stroke-opacity:1" transform="translate(.636 4.595)"/><g style="stroke-width:2.34047"><path d="M-39.152 256.195s-8.089-20.34-16.562 10.962c-1.147 4.24-4.573 8.045-6.473 14.412-6.658-6.118 11.968-50.298 23.035-25.374" style="fill:#517730;fill-opacity:1;stroke:#3c5924;stroke-width:.464435;stroke-linecap:round;stroke-linejoin:round;stroke-miterlimit:2;stroke-dasharray:none;stroke-opacity:1" transform="matrix(.39172 .01103 -.0051 .4659 46.296 -59.093)"/><path d="M-62.187 281.57c-2.879.27 11.338-50.479 23.035-25.375" style="fill:none;fill-opacity:1;stroke:#3c5924;stroke-width:.464435;stroke-linecap:round;stroke-linejoin:round;stroke-miterlimit:2;stroke-dasharray:none;stroke-opacity:1" transform="matrix(.39172 .01103 -.0051 .4659 46.296 -59.093)"/></g><g style="stroke-width:3.18192"><path d="M-39.152 256.195s-8.089-20.34-16.562 10.962c-1.147 4.24-4.573 8.045-6.473 14.412-6.658-6.118 11.968-50.298 23.035-25.374" style="fill:#517730;fill-opacity:1;stroke:#3c5924;stroke-width:.631409;stroke-linecap:round;stroke-linejoin:round;stroke-miterlimit:2;stroke-dasharray:none;stroke-opacity:1" transform="matrix(-.28775 .00812 .00375 .34314 19.518 -56.484)"/><path d="M-62.187 281.57c-2.879.27 11.338-50.479 23.035-25.375" style="fill:none;fill-opacity:1;stroke:#3c5924;stroke-width:.631409;stroke-linecap:round;stroke-linejoin:round;stroke-miterlimit:2;stroke-dasharray:none;stroke-opacity:1" transform="matrix(-.28775 .00812 .00375 .34314 19.518 -56.484)"/></g><g transform="translate(.636 4.595)"><g style="stroke:#638032;stroke-opacity:1"><path d="M25.004 5.026c.99 1.301 2.703 6.703 2.8 7.254M26.43 5.094c.92 1.363 1.219 3.481 1.463 4.899M32.002 4.61c-1.782 1.665-3.031 6.187-4.106 7.676M29.956 6.971l-1.908 3.5M28.811 6.33l-.7 2.609" style="fill:none;fill-opacity:1;stroke:#638032;stroke-width:.132;stroke-linecap:round;stroke-linejoin:round;stroke-miterlimit:2;stroke-dasharray:none;stroke-opacity:1" transform="translate(4.994 -1.732)"/></g><use xlink:href="#d" transform="rotate(-2.575 209.202 -56.998)"/><use xlink:href="#d" transform="rotate(-11.97 66.335 -17.473)"/><use xlink:href="#d" transform="rotate(12.487 -8.069 17.145)"/><use xlink:href="#d" transform="rotate(5.718 -59.941 39.321)"/><use xlink:href="#d" transform="rotate(2.802 -157.657 67.021)"/><use xlink:href="#d" transform="rotate(23.432 6.445 6.025)"/><use xlink:href="#d" transform="rotate(-12.478 67.421 -46.493)"/><use xlink:href="#d" transform="rotate(4.7 -72.303 110.245)"/><use xlink:href="#d" transform="rotate(4.26 -75.257 119.596)"/><use xlink:href="#d" transform="rotate(-21.174 55.12 -26.91)"/><use xlink:href="#d" transform="rotate(-9.68 74.013 -47.745)"/><use xlink:href="#d" transform="rotate(2.098 -194.503 216.91)"/><use xlink:href="#d" transform="rotate(10.353 -21.925 38.695)"/><use xlink:href="#d" transform="rotate(-12.29 75.203 -28.027)"/><use xlink:href="#d" transform="rotate(3.203 -120.374 96.046)"/><use xlink:href="#d" transform="rotate(-8.24 91.353 -43.901)"/><use xlink:href="#d" transform="rotate(-8.606 80.767 -31.828)"/><use xlink:href="#d" transform="rotate(20.654 10.415 14.548)"/><use xlink:href="#d" transform="rotate(-12.864 64.172 -27.578)"/><use xlink:href="#d" transform="rotate(6.488 -49.823 40.196)"/><use xlink:href="#d" transform="rotate(-2.693 231.256 -108.398)"/><use xlink:href="#d" transform="rotate(-3.444 182.798 -134.347)"/><use xlink:href="#d" transform="rotate(-6.71 98.13 -62.35)"/><use xlink:href="#d" transform="rotate(18.505 13.926 19.602)"/><use xlink:href="#d" transform="rotate(-4.938 97.238 -95.47)"/><use xlink:href="#d" transform="rotate(-19.136 50.42 -28.527)"/><use xlink:href="#d" transform="rotate(23.006 16.357 12.504)"/><use xlink:href="#d" transform="rotate(8.963 -5.614 27.66)"/><use xlink:href="#d" transform="rotate(-5.725 88.329 -36.813)"/><use xlink:href="#d" transform="rotate(11.147 -6.739 11.067)"/><use xlink:href="#d" transform="rotate(13.7 2.455 15.438)"/><use xlink:href="#d" transform="rotate(-7.737 79.918 -55.804)"/><use xlink:href="#d" transform="rotate(19.098 10.798 26.595)"/><use xlink:href="#d" transform="rotate(.425 -822.81 817.931)"/><use xlink:href="#d" transform="rotate(-20.139 47.743 -15.252)"/><use xlink:href="#d" transform="rotate(-15.838 53.964 -13.337)"/><use xlink:href="#d" transform="rotate(23.107 15.984 24.048)"/><use xlink:href="#d" transform="rotate(-22.877 50.834 -28.999)"/><use xlink:href="#d" transform="rotate(7.49 -40.724 69.366)"/><use xlink:href="#d" transform="rotate(10.914 -12.799 56.512)"/><use xlink:href="#d" transform="rotate(-22.828 46.839 -4.478)"/><use xlink:href="#d" transform="rotate(16.113 4.308 3.114)"/><use xlink:href="#d" transform="rotate(24.536 7.122 15.124)"/><use xlink:href="#d" transform="rotate(.9 -626.062 273.043)"/><use xlink:href="#d" transform="rotate(-2.735 242.818 -165.817)"/></g><g style="stroke-width:1.64564"><path d="M84.1 255.232c3.334-2.407 4.015 5.422 5.278 13.988 1.005 6.811 5.969 13.23 5.969 13.23s.1-34.371-11.248-27.218" style="display:inline;fill:#517730;fill-opacity:1;stroke:#3c5924;stroke-width:.326559;stroke-linecap:round;stroke-linejoin:round;stroke-miterlimit:2;stroke-dasharray:none;stroke-opacity:1" transform="matrix(.588 -.14564 .14644 .5917 -58.296 -63.421)"/><path d="M84.1 255.232c7.558-5.219 6.658 18.67 11.247 27.219" style="display:inline;fill:none;fill-opacity:1;stroke:#3c5924;stroke-width:.326559;stroke-linecap:round;stroke-linejoin:round;stroke-miterlimit:2;stroke-dasharray:none;stroke-opacity:1" transform="matrix(.588 -.14564 .14644 .5917 -58.296 -63.421)"/></g><g style="stroke-width:1.94504"><path d="M84.1 255.232c3.334-2.407 4.015 5.422 5.278 13.988 1.005 6.811 5.969 13.23 5.969 13.23s.1-34.371-11.248-27.218" style="display:inline;fill:#517730;fill-opacity:1;stroke:#3c5924;stroke-width:.385971;stroke-linecap:round;stroke-linejoin:round;stroke-miterlimit:2;stroke-dasharray:none;stroke-opacity:1" transform="matrix(.49723 -.12329 .12383 .5009 -42.848 -70.124)"/><path d="M84.1 255.232c7.558-5.219 6.658 18.67 11.247 27.219" style="display:inline;fill:none;fill-opacity:1;stroke:#3c5924;stroke-width:.385971;stroke-linecap:round;stroke-linejoin:round;stroke-miterlimit:2;stroke-dasharray:none;stroke-opacity:1" transform="matrix(.49723 -.12329 .12383 .5009 -42.848 -70.124)"/></g><g style="stroke-width:2.37226"><path d="M84.1 255.232c3.334-2.407 4.015 5.422 5.278 13.988 1.005 6.811 5.969 13.23 5.969 13.23s.1-34.371-11.248-27.218" style="display:inline;fill:#517730;fill-opacity:1;stroke:#3c5924;stroke-width:.470749;stroke-linecap:round;stroke-linejoin:round;stroke-miterlimit:2;stroke-dasharray:none;stroke-opacity:1" transform="matrix(-.40737 -.10116 -.10145 .411 91.539 -61.422)"/><path d="M84.1 255.232c7.558-5.219 6.658 18.67 11.247 27.219" style="display:inline;fill:none;fill-opacity:1;stroke:#3c5924;stroke-width:.470749;stroke-linecap:round;stroke-linejoin:round;stroke-miterlimit:2;stroke-dasharray:none;stroke-opacity:1" transform="matrix(-.40737 -.10116 -.10145 .411 91.539 -61.422)"/></g><g style="stroke-width:4.26967"><path d="M84.1 255.232c3.334-2.407 4.015 5.422 5.278 13.988 1.005 6.811 5.969 13.23 5.969 13.23s.1-34.371-11.248-27.218" style="display:inline;fill:#517730;fill-opacity:1;stroke:#3c5924;stroke-width:.84727;stroke-linecap:round;stroke-linejoin:round;stroke-miterlimit:2;stroke-dasharray:none;stroke-opacity:1" transform="matrix(-.17829 -.14926 -.15061 .18158 85.784 -9.886)"/><path d="M84.1 255.232c7.558-5.219 6.658 18.67 11.247 27.219" style="display:inline;fill:none;fill-opacity:1;stroke:#3c5924;stroke-width:.84727;stroke-linecap:round;stroke-linejoin:round;stroke-miterlimit:2;stroke-dasharray:none;stroke-opacity:1" transform="matrix(-.17829 -.14926 -.15061 .18158 85.784 -9.886)"/></g><g style="stroke-width:1.64564"><path d="M84.1 255.232c3.334-2.407 4.015 5.422 5.278 13.988 1.005 6.811 5.969 13.23 5.969 13.23s.1-34.371-11.248-27.218" style="display:inline;fill:#517730;fill-opacity:1;stroke:#3c5924;stroke-width:.326559;stroke-linecap:round;stroke-linejoin:round;stroke-miterlimit:2;stroke-dasharray:none;stroke-opacity:1" transform="matrix(-.588 -.14564 -.14644 .5917 115.665 -68.563)"/><path d="M84.1 255.232c7.558-5.219 6.658 18.67 11.247 27.219" style="display:inline;fill:none;fill-opacity:1;stroke:#3c5924;stroke-width:.326559;stroke-linecap:round;stroke-linejoin:round;stroke-miterlimit:2;stroke-dasharray:none;stroke-opacity:1" transform="matrix(-.588 -.14564 -.14644 .5917 115.665 -68.563)"/></g><g style="stroke-width:2.26599"><path d="M-11.978 250.797c-7.379-3.06-1.575 34.551.54 34.551 2.114 0 5.938-36.801-.54-34.551" style="display:inline;fill:#517730;fill-opacity:1;stroke:#3c5924;stroke-width:.449657;stroke-linecap:round;stroke-linejoin:round;stroke-miterlimit:2;stroke-dasharray:none;stroke-opacity:1" transform="matrix(-.43264 -.0544 -.055 .44324 38.683 -62.04)"/><path d="m-11.978 250.797.72 34.65" style="fill:none;fill-opacity:1;stroke:#3c5924;stroke-width:.449657;stroke-linecap:round;stroke-linejoin:round;stroke-miterlimit:2;stroke-dasharray:none;stroke-opacity:1" transform="matrix(-.43264 -.0544 -.055 .44324 38.683 -62.04)"/></g><g style="stroke-width:2.56413"><path d="M-11.978 250.797c-7.379-3.06-1.575 34.551.54 34.551 2.114 0 5.938-36.801-.54-34.551" style="display:inline;fill:#517730;fill-opacity:1;stroke:#3c5924;stroke-width:.508819;stroke-linecap:round;stroke-linejoin:round;stroke-miterlimit:2;stroke-dasharray:none;stroke-opacity:1" transform="matrix(.38138 -.04819 .0485 .39268 23.895 -61.054)"/><path d="m-11.978 250.797.72 34.65" style="fill:none;fill-opacity:1;stroke:#3c5924;stroke-width:.508819;stroke-linecap:round;stroke-linejoin:round;stroke-miterlimit:2;stroke-dasharray:none;stroke-opacity:1" transform="matrix(.38138 -.04819 .0485 .39268 23.895 -61.054)"/></g><path d="M32.445 14.295s.925-3.06 1.845-4.351c-.483-.07-2.28 3.419-1.845 4.351M32.088 17.252s1.514-3.559 2.796-4.99c-.577-.148-3.204 3.812-2.796 4.99" style="display:inline;fill:#517730;fill-opacity:1;stroke:#3c5924;stroke-width:.198437;stroke-linecap:round;stroke-linejoin:round;stroke-miterlimit:2;stroke-dasharray:none;stroke-opacity:1" transform="translate(.636 4.595)"/><path d="M6.637 30.814s2.74-3.7 4.62-5.004c-.624-.33-4.764 3.53-4.62 5.004M6.487 26.488s1.785-3.183 3.155-4.408c-.546-.184-3.447 3.28-3.155 4.408M5.732 20.643s-1.627-2.753-2.828-3.786c.452-.184 3.029 2.776 2.828 3.786M6.2 24.031s-1.917-3.198-3.324-4.396c.524-.216 3.549 3.22 3.325 4.396" style="display:inline;fill:#517730;fill-opacity:1;stroke:#3c5924;stroke-width:.198437;stroke-linecap:round;stroke-linejoin:round;stroke-miterlimit:2;stroke-dasharray:none;stroke-opacity:1" transform="translate(-.064 1.096)"/><path d="M4.633 15.128c2.42 2.27 8.346 71.63 8.346 71.63l-.91.045c-1.606-25.157-6.137-63.819-7.436-71.675" style="fill:#638032;fill-opacity:1;stroke:none;stroke-width:.132292;stroke-linecap:round;stroke-linejoin:round;stroke-miterlimit:2;stroke-opacity:1" transform="translate(-.064 1.096)"/><g transform="translate(-19.502 .966)"><g style="stroke:#638032;stroke-opacity:1"><path d="M47.285 32.975c1.862 2.283 3.77 6.07 4.263 8.208" style="fill:none;fill-opacity:1;stroke:#638032;stroke-width:.132;stroke-linecap:round;stroke-linejoin:round;stroke-miterlimit:2;stroke-dasharray:none;stroke-opacity:1" transform="rotate(174.245 36.565 -13.17)scale(1 -1)"/><path d="M47.176 34.974c2.394 1.632 3.544 4.814 4.31 7.274M49.325 32.82c2.032 2.706 1.786 5.367 2.29 8.398M51.481 32.097c-.424 2.134.191 6.467.191 8.653M55.262 32.515c-1.816 2.292-2.777 5.102-3.5 7.89" style="fill:none;fill-opacity:1;stroke:#638032;stroke-width:.132;stroke-linecap:round;stroke-linejoin:round;stroke-miterlimit:2;stroke-dasharray:none;stroke-opacity:1" transform="rotate(174.245 36.565 -13.17)scale(1 -1)"/></g><use xlink:href="#d" transform="rotate(-1.042 669.576 204.421)"/><use xlink:href="#d" transform="rotate(-18.52 62.936 8.902)"/><use xlink:href="#d" transform="rotate(-10.761 91.509 9.242)"/><use xlink:href="#d" transform="rotate(-24.13 52.907 4.61)"/><use xlink:href="#d" transform="rotate(20.275 -5.923 -6.184)"/><use xlink:href="#d" transform="rotate(-7.248 119.663 56.664)"/><use xlink:href="#d" transform="rotate(-14.346 75.386 26.018)"/><use xlink:href="#d" transform="rotate(20.404 -12.132 -17.76)"/><use xlink:href="#d" transform="rotate(156.207 27.165 7.705)scale(1 -1)"/><use xlink:href="#d" transform="rotate(-164.28 27.766 7.767)scale(1 -1)"/><use xlink:href="#d" transform="rotate(8.374 -72.591 -44.425)"/><use xlink:href="#d" transform="rotate(22.263 -10.857 -13.977)"/><use xlink:href="#d" transform="rotate(-9.189 98.066 40.251)"/><use xlink:href="#d" transform="rotate(-167.225 27.943 6.788)scale(1 -1)"/><use xlink:href="#d" transform="rotate(-157.088 28.64 6.958)scale(1 -1)"/><use xlink:href="#d" transform="rotate(-9.294 102.109 27.667)"/><use xlink:href="#d" transform="rotate(-22.988 57.307 9.683)"/><use xlink:href="#d" transform="rotate(15.388 -17.184 4.392)"/><use xlink:href="#d" transform="rotate(-14.711 77.889 -4.699)"/><use xlink:href="#d" transform="rotate(-9.376 107.199 -2.468)"/><use xlink:href="#d" transform="rotate(-9.835 101.691 -.055)"/><use xlink:href="#d" transform="rotate(14.314 -22.261 -.068)"/><use xlink:href="#d" transform="rotate(1.919 -363.849 -27.626)"/><use xlink:href="#d" transform="rotate(-2.291 368.757 .667)"/><use xlink:href="#d" transform="rotate(4.226 -140.845 20.996)"/><use xlink:href="#d" transform="rotate(2.655 -291.126 -44.898)"/><use xlink:href="#d" transform="rotate(22.406 -11.597 -5.654)"/><use xlink:href="#d" transform="rotate(14.439 -34.99 -8.493)"/><use xlink:href="#d" transform="rotate(3.208 -248.342 -32.365)"/><use xlink:href="#d" transform="rotate(-19.025 69.955 20.94)"/><use xlink:href="#d" transform="rotate(7.392 -83.677 10.646)"/><use xlink:href="#d" transform="rotate(-2.762 361.678 123.49)"/><use xlink:href="#d" transform="rotate(-3.64 275.705 80.874)"/><use xlink:href="#d" transform="rotate(-1.71 515.412 21.129)"/><use xlink:href="#d" transform="rotate(-4.32 217.582 77.747)"/><use xlink:href="#d" transform="rotate(17.15 -20.053 -13.43)"/><use xlink:href="#d" transform="rotate(-14.146 75.16 22.662)"/><use xlink:href="#d" transform="rotate(-15.983 73.605 8.015)"/><use xlink:href="#d" transform="rotate(20.077 -13.56 -7.703)"/><use xlink:href="#d" transform="rotate(23.608 -5.923 -4.09)"/><use xlink:href="#d" transform="rotate(-18.618 65.763 18.648)"/><use xlink:href="#d" transform="rotate(.622 -1298.862 -423.348)"/><use xlink:href="#d" transform="rotate(9.387 -59.12 -5.147)"/></g><path d="M5.597 19.39s.453-3.4 1.199-4.924c-.517.008-1.811 4.012-1.199 4.924M5.979 22.41s1.045-3.58 2.103-5.095c-.562-.076-2.618 4.014-2.103 5.095M6.817 28.443s-2.74-3.7-4.62-5.004c.624-.329 4.764 3.531 4.62 5.004" style="display:inline;fill:#517730;fill-opacity:1;stroke:#3c5924;stroke-width:.198437;stroke-linecap:round;stroke-linejoin:round;stroke-miterlimit:2;stroke-dasharray:none;stroke-opacity:1" transform="translate(-.064 1.096)"/><g style="stroke-width:1.95674"><path d="M-39.152 256.195s-8.089-20.34-16.562 10.962c-1.147 4.24-4.573 8.045-6.473 14.412-6.658-6.118 11.968-50.298 23.035-25.374" style="fill:#517730;fill-opacity:1;stroke:#3c5924;stroke-width:.388289;stroke-linecap:round;stroke-linejoin:round;stroke-miterlimit:2;stroke-dasharray:none;stroke-opacity:1" transform="rotate(6.54 528.41 375.898)scale(.48635 .53702)"/><path d="M-62.187 281.57c-2.879.27 11.338-50.479 23.035-25.375" style="fill:none;fill-opacity:1;stroke:#3c5924;stroke-width:.388289;stroke-linecap:round;stroke-linejoin:round;stroke-miterlimit:2;stroke-dasharray:none;stroke-opacity:1" transform="rotate(6.54 528.41 375.898)scale(.48635 .53702)"/></g><g style="stroke-width:1.95098"><path d="M-11.978 250.797c-7.379-3.06-1.575 34.551.54 34.551 2.114 0 5.938-36.801-.54-34.551" style="display:inline;fill:#517730;fill-opacity:1;stroke:#3c5924;stroke-width:.387147;stroke-linecap:round;stroke-linejoin:round;stroke-miterlimit:2;stroke-dasharray:none;stroke-opacity:1" transform="rotate(-11.728 -304.7 15.794)scale(.50738 .5178)"/><path d="m-11.978 250.797.72 34.65" style="fill:none;fill-opacity:1;stroke:#3c5924;stroke-width:.387147;stroke-linecap:round;stroke-linejoin:round;stroke-miterlimit:2;stroke-dasharray:none;stroke-opacity:1" transform="rotate(-11.728 -304.7 15.794)scale(.50738 .5178)"/></g><g style="stroke-width:1.64564"><path d="M84.1 255.232c3.334-2.407 4.015 5.422 5.278 13.988 1.005 6.811 5.969 13.23 5.969 13.23s.1-34.371-11.248-27.218" style="display:inline;fill:#517730;fill-opacity:1;stroke:#3c5924;stroke-width:.326559;stroke-linecap:round;stroke-linejoin:round;stroke-miterlimit:2;stroke-dasharray:none;stroke-opacity:1" transform="matrix(-.59323 -.12261 -.12326 .59696 91.549 -79.577)"/><path d="M84.1 255.232c7.558-5.219 6.658 18.67 11.247 27.219" style="display:inline;fill:none;fill-opacity:1;stroke:#3c5924;stroke-width:.326559;stroke-linecap:round;stroke-linejoin:round;stroke-miterlimit:2;stroke-dasharray:none;stroke-opacity:1" transform="matrix(-.59323 -.12261 -.12326 .59696 91.549 -79.577)"/></g><g style="stroke-width:1.91562"><path d="M84.1 255.232c3.334-2.407 4.015 5.422 5.278 13.988 1.005 6.811 5.969 13.23 5.969 13.23s.1-34.371-11.248-27.218" style="display:inline;fill:#517730;fill-opacity:1;stroke:#3c5924;stroke-width:.380133;stroke-linecap:round;stroke-linejoin:round;stroke-miterlimit:2;stroke-dasharray:none;stroke-opacity:1" transform="matrix(-.51633 -.06268 -.0628 .52016 67.304 -86.917)"/><path d="M84.1 255.232c7.558-5.219 6.658 18.67 11.247 27.219" style="display:inline;fill:none;fill-opacity:1;stroke:#3c5924;stroke-width:.380133;stroke-linecap:round;stroke-linejoin:round;stroke-miterlimit:2;stroke-dasharray:none;stroke-opacity:1" transform="matrix(-.51633 -.06268 -.0628 .52016 67.304 -86.917)"/></g><g style="stroke-width:1.81807"><path d="M84.1 255.232c3.334-2.407 4.015 5.422 5.278 13.988 1.005 6.811 5.969 13.23 5.969 13.23s.1-34.371-11.248-27.218" style="display:inline;fill:#517730;fill-opacity:1;stroke:#3c5924;stroke-width:.360776;stroke-linecap:round;stroke-linejoin:round;stroke-miterlimit:2;stroke-dasharray:none;stroke-opacity:1" transform="matrix(.53677 -.11103 .11153 .54055 -63.915 -72.717)"/><path d="M84.1 255.232c7.558-5.219 6.658 18.67 11.247 27.219" style="display:inline;fill:none;fill-opacity:1;stroke:#3c5924;stroke-width:.360776;stroke-linecap:round;stroke-linejoin:round;stroke-miterlimit:2;stroke-dasharray:none;stroke-opacity:1" transform="matrix(.53677 -.11103 .11153 .54055 -63.915 -72.717)"/></g><g style="stroke-width:2.3106"><path d="M-11.978 250.797c-7.379-3.06-1.575 34.551.54 34.551 2.114 0 5.938-36.801-.54-34.551" style="display:inline;fill:#517730;fill-opacity:1;stroke:#3c5924;stroke-width:.45851;stroke-linecap:round;stroke-linejoin:round;stroke-miterlimit:2;stroke-dasharray:none;stroke-opacity:1" transform="matrix(-.4185 -.08728 -.08867 .42906 26.029 -60.588)"/><path d="m-11.978 250.797.72 34.65" style="fill:none;fill-opacity:1;stroke:#3c5924;stroke-width:.45851;stroke-linecap:round;stroke-linejoin:round;stroke-miterlimit:2;stroke-dasharray:none;stroke-opacity:1" transform="matrix(-.4185 -.08728 -.08867 .42906 26.029 -60.588)"/></g><g style="stroke-width:3.49909"><path d="M-11.978 250.797c-7.379-3.06-1.575 34.551.54 34.551 2.114 0 5.938-36.801-.54-34.551" style="display:inline;fill:#517730;fill-opacity:1;stroke:#3c5924;stroke-width:.694352;stroke-linecap:round;stroke-linejoin:round;stroke-miterlimit:2;stroke-dasharray:none;stroke-opacity:1" transform="matrix(.27428 -.05807 .05811 .28547 -3.658 -36.844)"/><path d="m-11.978 250.797.72 34.65" style="fill:none;fill-opacity:1;stroke:#3c5924;stroke-width:.694352;stroke-linecap:round;stroke-linejoin:round;stroke-miterlimit:2;stroke-dasharray:none;stroke-opacity:1" transform="matrix(.27428 -.05807 .05811 .28547 -3.658 -36.844)"/></g><g style="stroke-width:2.62112"><path d="M-39.152 256.195s-8.089-20.34-16.562 10.962c-1.147 4.24-4.573 8.045-6.473 14.412-6.658-6.118 11.968-50.298 23.035-25.374" style="fill:#517730;fill-opacity:1;stroke:#3c5924;stroke-width:.520127;stroke-linecap:round;stroke-linejoin:round;stroke-miterlimit:2;stroke-dasharray:none;stroke-opacity:1" transform="matrix(-.36051 .04137 .04563 .39851 -17.158 -54.339)"/><path d="M-62.187 281.57c-2.879.27 11.338-50.479 23.035-25.375" style="fill:none;fill-opacity:1;stroke:#3c5924;stroke-width:.520127;stroke-linecap:round;stroke-linejoin:round;stroke-miterlimit:2;stroke-dasharray:none;stroke-opacity:1" transform="matrix(-.36051 .04137 .04563 .39851 -17.158 -54.339)"/></g><g style="stroke-width:4.0611"><path d="M84.1 255.232c3.334-2.407 4.015 5.422 5.278 13.988 1.005 6.811 5.969 13.23 5.969 13.23s.1-34.371-11.248-27.218" style="display:inline;fill:#517730;fill-opacity:1;stroke:#3c5924;stroke-width:.805883;stroke-linecap:round;stroke-linejoin:round;stroke-miterlimit:2;stroke-dasharray:none;stroke-opacity:1" transform="matrix(-.09168 -.21956 -.2152 .14597 69.709 14.005)"/><path d="M84.1 255.232c7.558-5.219 6.658 18.67 11.247 27.219" style="display:inline;fill:none;fill-opacity:1;stroke:#3c5924;stroke-width:.805883;stroke-linecap:round;stroke-linejoin:round;stroke-miterlimit:2;stroke-dasharray:none;stroke-opacity:1" transform="matrix(-.09168 -.21956 -.2152 .14597 69.709 14.005)"/></g></svg>