<svg xmlns="http://www.w3.org/2000/svg" xmlns:xlink="http://www.w3.org/1999/xlink" xml:space="preserve" width="150" height="300" viewBox="0 0 39.688 79.375"><g transform="translate(-46.778 -34.307)"><path id="a" d="M-31.288 47.006c-.197.16.298.623.051.683-.246.06-.017-.579-.265-.632s-.302.622-.502.467c-.2-.156.441-.375.328-.602s-.674.152-.677-.101c-.003-.254.568.111.675-.118.107-.23-.54-.433-.343-.593.196-.16.266.513.513.453.246-.059.002-.69.25-.637.247.053-.236.528-.035.684.2.155.541-.43.654-.203s-.56.146-.557.4c.004.253.674.155.567.385s-.463-.347-.66-.186" style="fill:#ebc203;fill-opacity:1;stroke:#ecde41;stroke-width:.143448;stroke-linecap:round;stroke-linejoin:round;stroke-miterlimit:2;stroke-dasharray:none;stroke-opacity:1" transform="translate(72.834 -10.243)scale(.92223)"/></g><path d="M11.854 20.814q-.08 0-.175.006l.057.13-.406.143.146.01-.203.174.112-.014-.208.267.154-.027-.212.25.105-.015-.075.265.176-.061-.187.35.18-.077-.102.283.15-.083-.143.36.141-.109-.048.524.15-.115-.014.445.152-.122-.146.509.147-.1-.053.578.102-.072-.252 1.256.781-1.087.107.08.1-.34.19.123.034-.291.152.192.03-.237.102.062.101-.275.096.368.174-.361.12.232c.234.03 1.738-2.3-.341-2.25-.619-.488-.392-.968-1.194-.971m12.198 1.043c-1.088.028-.765.67-1.59 1.348-2.199-.004-1.405 1.872-.796 2.68-.43.09-.834.313-1.146.752q-.315-.14-.57-.241l.08-.326.125.19-.025-.493.148.163-.008-.384.187.168-.083-.5.189.148.018-.351.12.063-.153-.39.175.097-.142-.408.13.063-.174-.293.18.049-.431-.341.121-.134c-1.195-.501-1.04.241-2.053.594-1.672-.62-1.836.715-1.673 1.682-.652-.317-1.425-.438-2.151.085-2.41-2.225-1.743-.568-1.743-.568l-.297.073.278.168-.32.22.388.099-.346.238.43.014-.23.45.466-.151-.24.6.501-.098-.036.107c-.245.235-.48.566-1.033.829-1.31-.327-1.826.167-1.953.867l-.242-.5.276.11-.1-.422.164.033-.317-.408.24.054-.309-.433.177.03-.308-.287.23-.005-.63-.253.098-.201c-1.59-.178-1.15.647-2.229 1.415-2.237-.155-1.92 1.541-1.375 2.627a5 5 0 0 0-.584.193l.463.3s-1.276.05-1.422.376l.253.114s-1.145.308-1.203.528l.156.124s-.687.23-.73.348l.225.084-.29.288.396-.154s-.272.576-.238.715l.253-.11s-.232.563-.166.758l.272-.27.122.564.146-.374-.115.7.178-.094-.274 1.425s.879-1.169 1.703-1.515l.08.186.351-.342.057.097.582-.234v.307l.606-.499.081.222-.383.386c-.233-.069-.54-.047-1.037.134l.143.172-.553.394.225-.05-.231.351.163-.07-.199.494.222-.11-.212.472.152-.07.001.433.243-.171-.133.61.241-.195-.032.472.193-.192-.06.606.166-.227.156.81.178-.24.172.676.177-.25.001.83.18-.215.126.653-.302-.009.32.1.029.149.09-.113.037.012.11 1.323c-1.149-.712-2.479-1-2.479-1l-1.035-.397.107.2-.366-.08.107.166-.404-.107.079.248-2.08-.546 1.847 1.08-.13.14.587.252-.156.143.536.277-.287.088.688.275-.349.206.518.203-.144.128.478.175-.44.338.804.114-.249.158.301.049-.29.228.54-.023-.23.189.564.07-.203.275.48-.072-.053.237.297-.095.063.2.249-.078.074.353.344-.066-.017.28.272-.144.023.262c.417.031.753.037 1.024.026l-.007.2.14-.2.063.204-.339.003.05.127-.634.106.097.077-.668.392.102.096-.638.266.12.09-.453.284.175-.02-.479.347.248.122-.733.288.16.082-.4.171.13.13-.306.407.141.007-.364.5.232-.033-.396.706.251-.038-.475.625.221.008-.407.57.166-.058-.31 1.083 1.464-1.012-.124.326.618-.261-.203.245.565-.15-.146.232.523-.24-.06.173.5-.254-.035.364.412-.293.039.17.403-.33.049.126.445-.32.039.17.087-.053a8 8 0 0 0-.514.466c-1.534.21-2.841.787-2.841.787l-1.383.375.265.13-.443.194.238.092-.504.197.273.2L.99 54.23l2.753-.277-.027.245.06-.013a3.3 3.3 0 0 1-.662.35c-4.158-1.32-2.486 4.2-1.997 4.277l.374-.392.141.821.408-.676.043.608.243-.064-.078.489.416-.293-.1.599.454-.132.004.733.26-.095.146.407-.544.346.287.014-1.137 1.46 1.894-.425.294.82.077-.903.577-.13-.39.42 1.098-.016-.459.249.947.12-.364.263.941-.042-.197.227.914-.079-.28.535.806-.193-.046.283.673-.211.14.048-.003.132.224-.055.232.08-.365.299-.564.093c-1.29-.42-2.45-.514-2.45-.514l-1.395-.33.172.24-.482-.04.164.195-.536-.067.144.305-2.76-.34 2.553 1.068-.14.203.793.223-.175.211.734.264-.352.163.93.235-.412.327.697.17-.162.19.642.144-.185.187c-1.646.255-3.125 1.707-3.125 1.707l.754.151s-1.629.72-1.65 1.219l.387.019s-1.325.989-1.288 1.304l.265.082s-.772.65-.767.826l.335-.007-.226.523.433-.403s-.056.887.059 1.05l.272-.272s-.011.85.174 1.068l.215-.49.447.669-.002-.56.21.968.183-.214.308 1.62-.298.206.36.114.004.027-1.118.565.32.172-1.01.548.285.034L.253 79.29l2.88-.437-.42.392 1.097.061-.475.216.937.186-.383.238.942.024-.213.212.918-.014-.316.514.816-.136-.066.28.83-.199-.019.225.885-.152-.065.278.7-.064.052.339.654-.142-.065.28.776-.244-.166.288.976-.261-.072.31.737-.22-.058.248.674-.365.004.263.618-.411-.058.248.827-.46-.034.286.82-.43-.066.28.67-.628.036.401.353-.669.175.368.398-.724.128.292.154-.37.122.205.014-.286.669.639.046-.284.667.67.013-.254.48.566.077-.251.546.537.013-.254.648.415.016-.318.866.522-.08-.322.679.448.014-.286.59.317.142-.312.656.256.015-.285.808.39.043-.22.743.42.015-.286.746.356-.162-.581.879.267-.146-.262.912.237-.302-.334.952.08-.398-.338.514.117.089.09-.014-.072.482.11-.016-.027.295.17-.023-.286.807.493-.046-.24.036.016.564.41.009-.146.726.334-.083-.173-.027-.136.728.25-.06-.313.965.301-.154-.294.766.274-.054-.28.647.167.065-.337.699.093-.055-.28.879.187-.011-.225.822.232-.054-.281.81.168-.295-.526.916.05-.204-.219.942.014-.372-.253.943-.148-.466-.234 1.098-.016-.402-.41 2.859.554-1.18-1.426.288-.022-.988-.589.326-.159-1.124-.627.4-.109-1.06-.8.369-.104-.876-.513.206-.104-.726-.412.108-.28-.71.008.182-.23-.069.003.396-.698.22.495c.397.076 2.764-2.988 1.254-4.211l.14-.598.174.221.25-.958-.025.56.475-.65.194.499c.195-.21.218-1.06.218-1.06l.26.283c.123-.157.105-1.047.105-1.047l.415.421-.204-.532.334.022c.012-.175-.732-.858-.732-.858l.27-.07c.05-.314-1.233-1.358-1.233-1.358l.388-.002c0-.5-1.598-1.288-1.598-1.288l.76-.12s-.32-.34-.83-.734c.28-.282.188-.45.188-.45l.87.41s-1.564-1.055-1.944-1.138c-.321-.892-.989-1.457-1.782-1.808.02-.138.03-.236.03-.236l.242.3c.123-.142.163-.937.167-1.03h.009l.38.437-.13-.414.095.008-.134-.13-.002-.007.333.041c.023-.174-.677-.902-.677-.902l.272-.053c.07-.31-1.145-1.43-1.145-1.43l.386.021c.007-.116-.072-.255-.198-.397l-.004-.284.817.312.077-.138.498.47.107-.263c1.158.462 2.414 2.072 2.414 2.072l-.419-1.982.251.127-.18-.975.215.518.154-.789.387.37c.088-.274-.252-1.054-.252-1.054l.356.146c.044-.194-.35-.992-.35-.992l.555.206-.41-.396.311-.122c-.063-.164-1.027-.467-1.027-.467l.214-.177c-.088-.306-1.692-.707-1.692-.707l.35-.166c-.213-.452-1.993-.488-1.993-.488l.637-.43s-1.416-.566-2.84-.474l-.084-.05.025-.013 2.117-.072-2.608-.637-.065-.05.215-.207-.414-.1.076-.02-.096-.057.131-.074-.464-.133.246-.163-.397-.052-.267-.153.05-.122.375.172-.005-.173.472.179-.127-.344.549.12-.102-.153.567.1-.2-.188.584.002-.259-.185.665.097-.203-.285 1.673.609-.574-.97.176.015-.539-.448.212-.064-.617-.485.252-.027-.562-.583.233-.026-.479-.392.135-.042-.398-.318.093-.157-.43-.064.132-.12-.781-.094.209-.18-.551-.216.174-.024-.51-.16.093-.118-.684-.096.074-.118-.745-.21.075-.099-.627.056-.013-.01.007-.057.18-.02-.291-.3c.306.032.72.038 1.28 0l.025-.262.271.146-.015-.28.344.07.076-.353.249.08.064-.2.297.097-.05-.236v-.001l.477.075-.2-.276.564-.066-.227-.19.539.026-.29-.23.303-.047-.248-.16.804-.108-.436-.34.479-.173-.143-.129.518-.198-.347-.21.69-.27-.286-.09.538-.272-.155-.145.588-.248-.127-.14 1.855-1.066-2.085.53.081-.247-.405.104.108-.165-.366.078.109-.2-.894.334a7 7 0 0 0-.662-.651l.278.006c.01-.357-1.119-.955-1.119-.955l.548-.07s-.74-.836-1.696-1.232l-.176-.766.163.107-.108-.903.236.15-.252-.791.245.185-.042-.696.242.173-.098-.819.227.165-.241-.558.241.124-.174-.44.289.113-.312-.54.282.088-.13-.413.166.02-.346-.384.244.037-.34-.41.178.017-.328-.263.23-.022-.647-.207.083-.207c-1.6-.061-1.1.73-2.12 1.574l-.099.002.094-.516.092.14.222-.749.135.2.07-.71.13.229.204-.564.131.22.2-.68.124.208v-.523l.148.18.011-.405.19.186-.062-.532.192.166.038-.37.123.073-.142-.42.18.11-.128-.437.133.073-.167-.32.188.062-.44-.383.136-.135c-1.238-.593-1.113.2-2.203.52-1.12-.48-1.619-.068-1.8.562-.13-.135-.42-.25-.692-.333l-.078-.344.14.093-.088-.778.202.13-.213-.682.21.16-.033-.6.207.151-.08-.705.194.143-.206-.482.208.108-.148-.379.247.098-.265-.467.242.078-.11-.356.143.018-.296-.332.21.033-.29-.354.152.015-.28-.229.197-.017-.554-.18.071-.179a3 3 0 0 0-.237-.002m-6.117 5.416-.03.143-.135-.083.081-.052zm7.231.11-.02.115-.148-.068zm-7.017.133-.003.061-.064-.044zm1.246.077-.034.646.442-.254-.002.516.355-.221.076.713.323-.412.065.497.107-.184.248.501.172-.327.064.382.159-.12.28.36.187-.284.552.446.135-.244.521.586.048-.303.54.32.038-.047c-.215.296-.34.715-.867 1.146-.606 0-1.017.12-1.281.319l-.076-.117.003-.058-.036.01-.016-.027h.141l-.285-.422.136-.122-.39-.191.162-.075-.717-.323.253-.11-.46-.371.174.029-.44-.305.125-.085-.623-.298.107-.09-.648-.425.1-.071-.113-.025.081-.621.094.127.072-.295zm-9.25 1.263.242.114c-.13.834.265 1.934.527 2.292-.25.013-.61.07-1.12.191l-.184-.766.232.202.008-.697.23.19-.04-.824.216.182-.2-.575.232.142zm16.064.737-.028.107-.017-.1zm.206.147-.102.381.3-.057-.043.474.174-.046.156.62c-.687.128-.99.481-1.065.917l-.302-.53v-.004l.28.09-.128-.414.166.022-.342-.384v-.002l.242.038-.086-.105-.007-.677.088.392.206-.537.229.307c.04-.075.038-.22.023-.364zM14.02 31.024l.185.23-.002.091.138-.201.173.53.048-.166.312.47.066-.162.306.488.042-.149.166.318c-.248.033-.5.121-.751.28-.35-.363-.634-.63-.862-.822l.037-.282.192.204zm-2.709.043.066.276c-.042-.038-.115-.066-.232-.078zm.42.083.062.456.179-.06-.035.373.299-.241-.047.457.335-.121.038.553.082-.037.15.048.07.16-.211.126.276.026.068.158-.172.293.268-.07.087.201-.093.198-.329.016.177-.212-.58-.121.168-.054-.53-.071.073-.133-.69.02.053-.13-.77-.083.057-.11-.079.02.003-.275.387.185-.197-.37.389.092-.18-.344.324-.02-.23-.202s.236-.2.283-.372l.041.174zm-2.152.177.18.135-.172.043zm15.972.596.282.112c-.178 1.06.98 2.603 1.224 2.566l.178-.368.291.558.136-.581.171.427.16-.103.058.37.23-.307.067.455.295-.2.172.526.165-.129.216.281c-.424-.03-.862.07-1.276.389a10 10 0 0 0-1.089-.846l.143-.002-.506-.632.234-.005-.441-.434.138-.03-.367-.352.106-.148-.422-.104.143-.108-.3-.064-.065-.562.227.166-.24-.56.242.125zm-9.974.495.027.041q-.027 0-.052.004zm-5.286.273.166.17-.188.048zm16.257 3.823.013.006-.153.423-.295.036.16-.225-.258-.033-.223-.194.342.082-.03.065.12-.043.22.053-.063-.11zm.295.487-.007.025-.042.004.014-.02zm-16.673.825.015.005-.012.006zm9.78.71.1.024-.192.225-.017-.02.03-.036.02.007.014-.045.056-.064-.034-.012zm-10.68.197.28.296q.033-.005.074-.05c.028.256.111.524.225.78l-.763-.104.15.17-.374.005.14.137-.417-.013.133.224-.603-.017.002-.408.342.1-.075-.453.314.222-.058-.37.183.05.032-.46.307.512zm19.036.964.786.084-.3.015s-.15-.015-.398-.024zm-7.839.59h.006l.055.117-.043-.014-.044-.05zm.076.15.02.044-.028-.033zm-12.723.068.791.245-.093.165.628.114-.12.175.585.148-.26.15.733.113-.293.28.55.08-.112.157.052.006-1.884.584c-.258-.388-.62-.715-1.018-.988Zm12.92.02.035.058-.053-.01zm-6.687.08.256.374.063-.146.17.207a1 1 0 0 0-.099.156 3 3 0 0 0-.714-.571l-.002-.012.242.143-.046-.128.106.13zm7.047.121.04.069-.06-.022zm.337.232.06.051-.107-.046zm6.909 1.16v.045c-.043.029-.103.089-.173.168l-.139-.202zm-17.738.061.017.003h-.019zm-1.7 22.244.031.003.002.01zm23.851 3.176.296.188.08.222-.18.05zm-.803.14.913.344-.601.169.303.039-.446.333.236-.013-.153.171-.298-.198.333-.144-.814-.508.874.196zm2.93.416.355.368.128-.092.252.636.208-.192c.277.296.512.705.703 1.124a4.6 4.6 0 0 0-.756-.087 3.3 3.3 0 0 1-.679-.824l.118.076zm-28.01 4.098.019.547.322-.249.012.756.215-.34.204.563-.706.073.272.096-.955.169.276.359-1.283-.105.174.237-.711-.036.097.284-.743.382.202.112-.87.463c.246-.617.578-1.334 1.043-1.79l.2.2.278-.625.124.098.633-.604.16.398.527-.959.258.29zm28.542 1.814.149.749-.671.027.069-.362.207.143zm-.814.517.184.263-.264.01.041-.227zm-31.211 1 .347.112-.554.383c.048-.136.14-.33.207-.495m-.365.99.015.004-.018.01q0-.008.003-.014" style="display:inline;fill:#395b48;fill-opacity:1;stroke:#395b48;stroke-width:.198437;stroke-linecap:round;stroke-linejoin:round;stroke-miterlimit:2;stroke-dasharray:none;stroke-opacity:1"/><path d="M65.102 36.598c.315 7.99-.463 78.924-.463 78.924l.463.098s1.034-78.271 0-79.022" style="fill:#4c6c15;fill-opacity:1;stroke:none;stroke-width:.198437;stroke-linecap:round;stroke-linejoin:round;stroke-miterlimit:2;stroke-dasharray:none;stroke-opacity:1" transform="translate(-46.778 -34.307)"/><g transform="translate(-46.778 -35.49)"><use xlink:href="#a" transform="rotate(-.346 626.649 -3482.091)"/><use xlink:href="#a" transform="rotate(-1.877 188.236 -634.437)"/><use xlink:href="#a" transform="rotate(16.234 37.714 107.951)"/><use xlink:href="#a" transform="rotate(-1.313 317.871 -928.374)"/><use xlink:href="#a" transform="rotate(-12.227 84.206 -63.19)"/><use xlink:href="#a" transform="rotate(13.076 21.336 134.083)"/><use xlink:href="#a" transform="rotate(-11.358 93.476 -68.65)"/><use xlink:href="#a" transform="rotate(-15.645 88.012 -36.033)"/><use xlink:href="#a" transform="rotate(-5.584 149.68 -182.81)"/><use xlink:href="#a" transform="rotate(-.48 1307.19 -2615.798)"/><use xlink:href="#a" transform="rotate(-7.096 146.551 -130.882)"/><use xlink:href="#a" transform="rotate(-12.807 109.441 -60.534)"/><use xlink:href="#a" transform="rotate(-8.016 145.31 -107.008)"/><use xlink:href="#a" transform="rotate(14.49 .517 127.004)"/><use xlink:href="#a" transform="rotate(-.585 1455.76 -2001.368)"/><use xlink:href="#a" transform="rotate(-9.162 149.772 -96.583)"/><use xlink:href="#a" transform="rotate(7.513 -89.462 202.676)"/><use xlink:href="#a" transform="rotate(5.627 -146.325 267.34)"/><use xlink:href="#a" transform="rotate(7.992 -117.226 202.443)"/><use xlink:href="#a" transform="rotate(-14.544 148.365 -36.543)"/><use xlink:href="#a" transform="rotate(8.223 -122.766 195.626)"/><use xlink:href="#a" transform="rotate(-9.008 244.136 -86.968)"/></g><path d="M65.102 36.598c.315 7.99-.463 78.924-.463 78.924l.463.098s1.034-78.271 0-79.022" style="fill:#4c6c15;fill-opacity:1;stroke:none;stroke-width:.198437;stroke-linecap:round;stroke-linejoin:round;stroke-miterlimit:2;stroke-dasharray:none;stroke-opacity:1" transform="rotate(.933 1665.476 -2556.366)"/><g transform="rotate(.933 1738.035 -2555.775)"><use xlink:href="#a" transform="rotate(-.346 626.649 -3482.091)"/><use xlink:href="#a" transform="rotate(-1.877 188.236 -634.437)"/><use xlink:href="#a" transform="rotate(16.234 37.714 107.951)"/><use xlink:href="#a" transform="rotate(-1.313 317.871 -928.374)"/><use xlink:href="#a" transform="rotate(-12.227 84.206 -63.19)"/><use xlink:href="#a" transform="rotate(13.076 21.336 134.083)"/><use xlink:href="#a" transform="rotate(-11.358 93.476 -68.65)"/><use xlink:href="#a" transform="rotate(-15.645 88.012 -36.033)"/><use xlink:href="#a" transform="rotate(-5.584 149.68 -182.81)"/><use xlink:href="#a" transform="rotate(-.48 1307.19 -2615.798)"/><use xlink:href="#a" transform="rotate(-7.096 146.551 -130.882)"/><use xlink:href="#a" transform="rotate(-12.807 109.441 -60.534)"/><use xlink:href="#a" transform="rotate(-8.016 145.31 -107.008)"/><use xlink:href="#a" transform="rotate(14.49 .517 127.004)"/><use xlink:href="#a" transform="rotate(-.585 1455.76 -2001.368)"/><use xlink:href="#a" transform="rotate(-9.162 149.772 -96.583)"/><use xlink:href="#a" transform="rotate(7.513 -89.462 202.676)"/><use xlink:href="#a" transform="rotate(5.627 -146.325 267.34)"/><use xlink:href="#a" transform="rotate(7.992 -117.226 202.443)"/><use xlink:href="#a" transform="rotate(-14.544 148.365 -36.543)"/><use xlink:href="#a" transform="rotate(8.223 -122.766 195.626)"/><use xlink:href="#a" transform="rotate(-9.008 244.136 -86.968)"/></g><path d="M23.453-8.21c-.13 7.996-4.862 78.776-4.862 78.776l.457.123S24.445-7.402 23.453-8.21" style="fill:#4c6c15;fill-opacity:1;stroke:none;stroke-width:.198437;stroke-linecap:round;stroke-linejoin:round;stroke-miterlimit:2;stroke-dasharray:none;stroke-opacity:1" transform="translate(5.951 20.993)"/><g transform="translate(-46.778 -34.307)"><use xlink:href="#a" transform="rotate(-8.322 154.829 -183.573)"/><use xlink:href="#a" transform="rotate(-16.995 109.84 -67.104)"/><use xlink:href="#a" transform="rotate(17.145 8.315 149.393)"/><use xlink:href="#a" transform="rotate(-3.448 344.51 -513.207)"/><use xlink:href="#a" transform="rotate(-7.354 190.38 -208.097)"/><use xlink:href="#a" transform="rotate(2.455 -369.01 785.799)"/><use xlink:href="#a" transform="rotate(-6.632 224.693 -239.135)"/><use xlink:href="#a" transform="rotate(5.362 -158.245 382.045)"/><use xlink:href="#a" transform="rotate(-1.683 778.701 -1075.879)"/><use xlink:href="#a" transform="rotate(17.074 -16.669 149.453)"/><use xlink:href="#a" transform="rotate(-9.76 194.686 -148.555)"/><use xlink:href="#a" transform="rotate(-5.123 356.156 -318.044)"/><use xlink:href="#a" transform="rotate(-6.507 298.526 -231.781)"/><use xlink:href="#a" transform="rotate(1.826 -930.554 1051.047)"/><use xlink:href="#a" transform="rotate(-15.995 175.565 -61.585)"/><use xlink:href="#a" transform="rotate(-5.383 357.354 -294.843)"/><use xlink:href="#a" transform="rotate(-9.663 275.882 -135.678)"/></g><path d="M23.453-8.21c-.13 7.996-4.862 78.776-4.862 78.776l.457.123S24.445-7.402 23.453-8.21" style="fill:#4c6c15;fill-opacity:1;stroke:none;stroke-width:.198437;stroke-linecap:round;stroke-linejoin:round;stroke-miterlimit:2;stroke-dasharray:none;stroke-opacity:1" transform="matrix(-1 0 0 1 30.579 18.795)"/><g transform="matrix(-1 0 0 1 83.308 -36.505)"><use xlink:href="#a" transform="rotate(-8.322 154.829 -183.573)"/><use xlink:href="#a" transform="rotate(-16.995 109.84 -67.104)"/><use xlink:href="#a" transform="rotate(17.145 8.315 149.393)"/><use xlink:href="#a" transform="rotate(-3.448 344.51 -513.207)"/><use xlink:href="#a" transform="rotate(-7.354 190.38 -208.097)"/><use xlink:href="#a" transform="rotate(2.455 -369.01 785.799)"/><use xlink:href="#a" transform="rotate(-6.632 224.693 -239.135)"/><use xlink:href="#a" transform="rotate(5.362 -158.245 382.045)"/><use xlink:href="#a" transform="rotate(-1.683 778.701 -1075.879)"/><use xlink:href="#a" transform="rotate(17.074 -16.669 149.453)"/><use xlink:href="#a" transform="rotate(-9.76 194.686 -148.555)"/><use xlink:href="#a" transform="rotate(-5.123 356.156 -318.044)"/><use xlink:href="#a" transform="rotate(-6.507 298.526 -231.781)"/><use xlink:href="#a" transform="rotate(1.826 -930.554 1051.047)"/><use xlink:href="#a" transform="rotate(-15.995 175.565 -61.585)"/><use xlink:href="#a" transform="rotate(-5.383 357.354 -294.843)"/><use xlink:href="#a" transform="rotate(-9.663 275.882 -135.678)"/></g><path d="M23.453-8.21c-.13 7.996-4.862 78.776-4.862 78.776l.457.123S24.445-7.402 23.453-8.21" style="fill:#4c6c15;fill-opacity:1;stroke:none;stroke-width:.198437;stroke-linecap:round;stroke-linejoin:round;stroke-miterlimit:2;stroke-dasharray:none;stroke-opacity:1" transform="rotate(-178.252 18.195 5.51)scale(1 -1)"/><g transform="rotate(-178.252 44.982 -21.738)scale(1 -1)"><use xlink:href="#a" transform="rotate(-8.322 154.829 -183.573)"/><use xlink:href="#a" transform="rotate(-16.995 109.84 -67.104)"/><use xlink:href="#a" transform="rotate(17.145 8.315 149.393)"/><use xlink:href="#a" transform="rotate(-3.448 344.51 -513.207)"/><use xlink:href="#a" transform="rotate(-7.354 190.38 -208.097)"/><use xlink:href="#a" transform="rotate(2.455 -369.01 785.799)"/><use xlink:href="#a" transform="rotate(-6.632 224.693 -239.135)"/><use xlink:href="#a" transform="rotate(5.362 -158.245 382.045)"/><use xlink:href="#a" transform="rotate(-1.683 778.701 -1075.879)"/><use xlink:href="#a" transform="rotate(17.074 -16.669 149.453)"/><use xlink:href="#a" transform="rotate(-9.76 194.686 -148.555)"/><use xlink:href="#a" transform="rotate(-5.123 356.156 -318.044)"/><use xlink:href="#a" transform="rotate(-6.507 298.526 -231.781)"/><use xlink:href="#a" transform="rotate(1.826 -930.554 1051.047)"/><use xlink:href="#a" transform="rotate(-15.995 175.565 -61.585)"/><use xlink:href="#a" transform="rotate(-5.383 357.354 -294.843)"/><use xlink:href="#a" transform="rotate(-9.663 275.882 -135.678)"/></g><g style="display:inline;stroke-width:1.96921"><path d="M19.626 99.73c1.972-2.227 5.424.445 5.424.445l-.732.238s1.702.525 1.782 1.018l-.382.064s1.432.827 1.432 1.145l-.255.112s.843.556.859.731l-.334.032.286.493-.477-.35s.16.875.064 1.05l-.303-.239s.112.843-.047 1.082l-.27-.461-.366.716-.064-.557-.096.986-.206-.19-.143 2.02s-.764-1.894-1.75-2.657l-.175.223-.35-.589-.111.111-.7-.525-.112.414-.636-.89-.223.317-.7-.7-.302.366-.334-.54-.238.143-.032-.541-.286.43-.27-.732-.176.238-.016-.7-.509.525v-1.002l-.525.255.08-.716-.652.286.143-.89-.589.35.175-.685-.588.112.398-.43-.557-.016.366-.397-.43-.143.382-.191s-1.416-2.052 2.545.238" style="fill:#508065;fill-opacity:1;stroke:#3d614d;stroke-width:.390765;stroke-linecap:round;stroke-linejoin:round;stroke-miterlimit:2;stroke-dasharray:none;stroke-opacity:1" transform="matrix(.50857 0 0 .50706 8.63 -25.997)"/><path d="M19.626 99.73c2.831-.478 5.901 5.217 6.172 8.334" style="fill:none;fill-opacity:1;stroke:#3d614d;stroke-width:.390765;stroke-linecap:round;stroke-linejoin:round;stroke-miterlimit:2;stroke-dasharray:none;stroke-opacity:1" transform="matrix(.50857 0 0 .50706 8.63 -25.997)"/></g><g style="stroke-width:3.5308"><path d="m.554 95.196 1.305-.095 3.944-2.673-.159.382 1.082-.35v.35l.954-.382v.35l1.146-.254-.032.223 1.05-.064-.128.159 1.21.382-.128.19 1.113.192-.159.19.827.287-.286.032.89.381-.349.287 1.272.19-.222.191.7.128-.16.254.637.54-.223.065.764.668-.382.031.89.987-.413.031.986.827-.35.096.86.763-.287-.031.89 1.622-2.703-1.082.318.478-1.082-.191.414.318-.955-.032.318.318-.922-.19.159.254-.89-.223.19.573-.763-.318v.286l-.764-.382-.032.223-.827-.35v.286l-.668-.222-.127.318-.605-.287v.287l-.7-.414.096.318-.89-.477v.318l-.669-.382v.255l-.572-.51-.064.255-.509-.54v.254l-.7-.636-.032.286-.7-.604v.286l-.509-.763-.127.381-.19-.731-.255.318-.223-.796-.19.255-.128-.764-.255.287-.222-2.323Z" style="display:inline;fill:#508065;fill-opacity:1;stroke:#3d614d;stroke-width:.700641;stroke-linecap:round;stroke-linejoin:round;stroke-miterlimit:2;stroke-dasharray:none;stroke-opacity:1" transform="matrix(.28702 0 0 .27948 13.022 -2.864)"/><path d="M.554 95.196c6.395.191 14.03 2.577 17.243 5.949" style="display:inline;fill:none;fill-opacity:1;stroke:#3d614d;stroke-width:.700641;stroke-linecap:round;stroke-linejoin:round;stroke-miterlimit:2;stroke-dasharray:none;stroke-opacity:1" transform="matrix(.28702 0 0 .27948 13.022 -2.864)"/></g><g style="stroke-width:7.07074"><path d="m.554 95.196 1.305-.095 3.944-2.673-.159.382 1.082-.35v.35l.954-.382v.35l1.146-.254-.032.223 1.05-.064-.128.159 1.21.382-.128.19 1.113.192-.159.19.827.287-.286.032.89.381-.349.287 1.272.19-.222.191.7.128-.16.254.637.54-.223.065.764.668-.382.031.89.987-.413.031.986.827-.35.096.86.763-.287-.031.89 1.622-2.703-1.082.318.478-1.082-.191.414.318-.955-.032.318.318-.922-.19.159.254-.89-.223.19.573-.763-.318v.286l-.764-.382-.032.223-.827-.35v.286l-.668-.222-.127.318-.605-.287v.287l-.7-.414.096.318-.89-.477v.318l-.669-.382v.255l-.572-.51-.064.255-.509-.54v.254l-.7-.636-.032.286-.7-.604v.286l-.509-.763-.127.381-.19-.731-.255.318-.223-.796-.19.255-.128-.764-.255.287-.222-2.323Z" style="display:inline;fill:#508065;fill-opacity:1;stroke:#3d614d;stroke-width:1.4031;stroke-linecap:round;stroke-linejoin:round;stroke-miterlimit:2;stroke-dasharray:none;stroke-opacity:1" transform="rotate(44.831 -.092 31.752)scale(-.14602 .13698)"/><path d="M.554 95.196c6.395.191 14.03 2.577 17.243 5.949" style="display:inline;fill:none;fill-opacity:1;stroke:#3d614d;stroke-width:1.4031;stroke-linecap:round;stroke-linejoin:round;stroke-miterlimit:2;stroke-dasharray:none;stroke-opacity:1" transform="rotate(44.831 -.092 31.752)scale(-.14602 .13698)"/></g><g style="stroke-width:7.07074"><path d="m.554 95.196 1.305-.095 3.944-2.673-.159.382 1.082-.35v.35l.954-.382v.35l1.146-.254-.032.223 1.05-.064-.128.159 1.21.382-.128.19 1.113.192-.159.19.827.287-.286.032.89.381-.349.287 1.272.19-.222.191.7.128-.16.254.637.54-.223.065.764.668-.382.031.89.987-.413.031.986.827-.35.096.86.763-.287-.031.89 1.622-2.703-1.082.318.478-1.082-.191.414.318-.955-.032.318.318-.922-.19.159.254-.89-.223.19.573-.763-.318v.286l-.764-.382-.032.223-.827-.35v.286l-.668-.222-.127.318-.605-.287v.287l-.7-.414.096.318-.89-.477v.318l-.669-.382v.255l-.572-.51-.064.255-.509-.54v.254l-.7-.636-.032.286-.7-.604v.286l-.509-.763-.127.381-.19-.731-.255.318-.223-.796-.19.255-.128-.764-.255.287-.222-2.323Z" style="display:inline;fill:#508065;fill-opacity:1;stroke:#3d614d;stroke-width:1.4031;stroke-linecap:round;stroke-linejoin:round;stroke-miterlimit:2;stroke-dasharray:none;stroke-opacity:1" transform="matrix(.10356 -.10295 .09657 .09714 3.92 4.538)"/><path d="M.554 95.196c6.395.191 14.03 2.577 17.243 5.949" style="display:inline;fill:none;fill-opacity:1;stroke:#3d614d;stroke-width:1.4031;stroke-linecap:round;stroke-linejoin:round;stroke-miterlimit:2;stroke-dasharray:none;stroke-opacity:1" transform="matrix(.10356 -.10295 .09657 .09714 3.92 4.538)"/></g><g style="stroke-width:7.07074"><path d="m.554 95.196 1.305-.095 3.944-2.673-.159.382 1.082-.35v.35l.954-.382v.35l1.146-.254-.032.223 1.05-.064-.128.159 1.21.382-.128.19 1.113.192-.159.19.827.287-.286.032.89.381-.349.287 1.272.19-.222.191.7.128-.16.254.637.54-.223.065.764.668-.382.031.89.987-.413.031.986.827-.35.096.86.763-.287-.031.89 1.622-2.703-1.082.318.478-1.082-.191.414.318-.955-.032.318.318-.922-.19.159.254-.89-.223.19.573-.763-.318v.286l-.764-.382-.032.223-.827-.35v.286l-.668-.222-.127.318-.605-.287v.287l-.7-.414.096.318-.89-.477v.318l-.669-.382v.255l-.572-.51-.064.255-.509-.54v.254l-.7-.636-.032.286-.7-.604v.286l-.509-.763-.127.381-.19-.731-.255.318-.223-.796-.19.255-.128-.764-.255.287-.222-2.323Z" style="display:inline;fill:#508065;fill-opacity:1;stroke:#3d614d;stroke-width:1.4031;stroke-linecap:round;stroke-linejoin:round;stroke-miterlimit:2;stroke-dasharray:none;stroke-opacity:1" transform="rotate(-44.831 17.518 -6.08)scale(.14602 .13698)"/><path d="M.554 95.196c6.395.191 14.03 2.577 17.243 5.949" style="display:inline;fill:none;fill-opacity:1;stroke:#3d614d;stroke-width:1.4031;stroke-linecap:round;stroke-linejoin:round;stroke-miterlimit:2;stroke-dasharray:none;stroke-opacity:1" transform="rotate(-44.831 17.518 -6.08)scale(.14602 .13698)"/></g><g style="stroke-width:7.07074"><path d="m.554 95.196 1.305-.095 3.944-2.673-.159.382 1.082-.35v.35l.954-.382v.35l1.146-.254-.032.223 1.05-.064-.128.159 1.21.382-.128.19 1.113.192-.159.19.827.287-.286.032.89.381-.349.287 1.272.19-.222.191.7.128-.16.254.637.54-.223.065.764.668-.382.031.89.987-.413.031.986.827-.35.096.86.763-.287-.031.89 1.622-2.703-1.082.318.478-1.082-.191.414.318-.955-.032.318.318-.922-.19.159.254-.89-.223.19.573-.763-.318v.286l-.764-.382-.032.223-.827-.35v.286l-.668-.222-.127.318-.605-.287v.287l-.7-.414.096.318-.89-.477v.318l-.669-.382v.255l-.572-.51-.064.255-.509-.54v.254l-.7-.636-.032.286-.7-.604v.286l-.509-.763-.127.381-.19-.731-.255.318-.223-.796-.19.255-.128-.764-.255.287-.222-2.323Z" style="display:inline;fill:#508065;fill-opacity:1;stroke:#3d614d;stroke-width:1.4031;stroke-linecap:round;stroke-linejoin:round;stroke-miterlimit:2;stroke-dasharray:none;stroke-opacity:1" transform="rotate(44.831 1.113 53.715)scale(-.14602 .13698)"/><path d="M.554 95.196c6.395.191 14.03 2.577 17.243 5.949" style="display:inline;fill:none;fill-opacity:1;stroke:#3d614d;stroke-width:1.4031;stroke-linecap:round;stroke-linejoin:round;stroke-miterlimit:2;stroke-dasharray:none;stroke-opacity:1" transform="rotate(44.831 1.113 53.715)scale(-.14602 .13698)"/></g><g style="stroke-width:7.07074"><path d="m.554 95.196 1.305-.095 3.944-2.673-.159.382 1.082-.35v.35l.954-.382v.35l1.146-.254-.032.223 1.05-.064-.128.159 1.21.382-.128.19 1.113.192-.159.19.827.287-.286.032.89.381-.349.287 1.272.19-.222.191.7.128-.16.254.637.54-.223.065.764.668-.382.031.89.987-.413.031.986.827-.35.096.86.763-.287-.031.89 1.622-2.703-1.082.318.478-1.082-.191.414.318-.955-.032.318.318-.922-.19.159.254-.89-.223.19.573-.763-.318v.286l-.764-.382-.032.223-.827-.35v.286l-.668-.222-.127.318-.605-.287v.287l-.7-.414.096.318-.89-.477v.318l-.669-.382v.255l-.572-.51-.064.255-.509-.54v.254l-.7-.636-.032.286-.7-.604v.286l-.509-.763-.127.381-.19-.731-.255.318-.223-.796-.19.255-.128-.764-.255.287-.222-2.323Z" style="display:inline;fill:#508065;fill-opacity:1;stroke:#3d614d;stroke-width:1.4031;stroke-linecap:round;stroke-linejoin:round;stroke-miterlimit:2;stroke-dasharray:none;stroke-opacity:1" transform="rotate(-135.169 12.097 5.18)scale(.14602 -.13698)"/><path d="M.554 95.196c6.395.191 14.03 2.577 17.243 5.949" style="display:inline;fill:none;fill-opacity:1;stroke:#3d614d;stroke-width:1.4031;stroke-linecap:round;stroke-linejoin:round;stroke-miterlimit:2;stroke-dasharray:none;stroke-opacity:1" transform="rotate(-135.169 12.097 5.18)scale(.14602 -.13698)"/></g><g style="display:inline;stroke-width:1.56199"><path d="M19.626 99.73c1.972-2.227 5.424.445 5.424.445l-.732.238s1.702.525 1.782 1.018l-.382.064s1.432.827 1.432 1.145l-.255.112s.843.556.859.731l-.334.032.286.493-.477-.35s.16.875.064 1.05l-.303-.239s.112.843-.047 1.082l-.27-.461-.366.716-.064-.557-.096.986-.206-.19-.143 2.02s-.764-1.894-1.75-2.657l-.175.223-.35-.589-.111.111-.7-.525-.112.414-.636-.89-.223.317-.7-.7-.302.366-.334-.54-.238.143-.032-.541-.286.43-.27-.732-.176.238-.016-.7-.509.525v-1.002l-.525.255.08-.716-.652.286.143-.89-.589.35.175-.685-.588.112.398-.43-.557-.016.366-.397-.43-.143.382-.191s-1.416-2.052 2.545.238" style="fill:#508065;fill-opacity:1;stroke:#3d614d;stroke-width:.309955;stroke-linecap:round;stroke-linejoin:round;stroke-miterlimit:2;stroke-dasharray:none;stroke-opacity:1" transform="matrix(-.60208 -.2216 -.22284 .59874 52.643 -22.026)"/><path d="M19.626 99.73c2.831-.478 5.901 5.217 6.172 8.334" style="fill:none;fill-opacity:1;stroke:#3d614d;stroke-width:.309955;stroke-linecap:round;stroke-linejoin:round;stroke-miterlimit:2;stroke-dasharray:none;stroke-opacity:1" transform="matrix(-.60208 -.2216 -.22284 .59874 52.643 -22.026)"/></g><g style="display:inline;stroke-width:2.02762"><path d="M19.626 99.73c1.972-2.227 5.424.445 5.424.445l-.732.238s1.702.525 1.782 1.018l-.382.064s1.432.827 1.432 1.145l-.255.112s.843.556.859.731l-.334.032.286.493-.477-.35s.16.875.064 1.05l-.303-.239s.112.843-.047 1.082l-.27-.461-.366.716-.064-.557-.096.986-.206-.19-.143 2.02s-.764-1.894-1.75-2.657l-.175.223-.35-.589-.111.111-.7-.525-.112.414-.636-.89-.223.317-.7-.7-.302.366-.334-.54-.238.143-.032-.541-.286.43-.27-.732-.176.238-.016-.7-.509.525v-1.002l-.525.255.08-.716-.652.286.143-.89-.589.35.175-.685-.588.112.398-.43-.557-.016.366-.397-.43-.143.382-.191s-1.416-2.052 2.545.238" style="fill:#508065;fill-opacity:1;stroke:#3d614d;stroke-width:.402353;stroke-linecap:round;stroke-linejoin:round;stroke-miterlimit:2;stroke-dasharray:none;stroke-opacity:1" transform="matrix(.38705 -.30873 .3089 .38204 -24.695 -3.3)"/><path d="M19.626 99.73c2.831-.478 5.901 5.217 6.172 8.334" style="fill:none;fill-opacity:1;stroke:#3d614d;stroke-width:.402353;stroke-linecap:round;stroke-linejoin:round;stroke-miterlimit:2;stroke-dasharray:none;stroke-opacity:1" transform="matrix(.38705 -.30873 .3089 .38204 -24.695 -3.3)"/></g><g style="display:inline;stroke-width:2.02762"><path d="M19.626 99.73c1.972-2.227 5.424.445 5.424.445l-.732.238s1.702.525 1.782 1.018l-.382.064s1.432.827 1.432 1.145l-.255.112s.843.556.859.731l-.334.032.286.493-.477-.35s.16.875.064 1.05l-.303-.239s.112.843-.047 1.082l-.27-.461-.366.716-.064-.557-.096.986-.206-.19-.143 2.02s-.764-1.894-1.75-2.657l-.175.223-.35-.589-.111.111-.7-.525-.112.414-.636-.89-.223.317-.7-.7-.302.366-.334-.54-.238.143-.032-.541-.286.43-.27-.732-.176.238-.016-.7-.509.525v-1.002l-.525.255.08-.716-.652.286.143-.89-.589.35.175-.685-.588.112.398-.43-.557-.016.366-.397-.43-.143.382-.191s-1.416-2.052 2.545.238" style="fill:#508065;fill-opacity:1;stroke:#3d614d;stroke-width:.402353;stroke-linecap:round;stroke-linejoin:round;stroke-miterlimit:2;stroke-dasharray:none;stroke-opacity:1" transform="matrix(-.43253 -.24092 -.2419 .42762 46.127 -6.776)"/><path d="M19.626 99.73c2.831-.478 5.901 5.217 6.172 8.334" style="fill:none;fill-opacity:1;stroke:#3d614d;stroke-width:.402353;stroke-linecap:round;stroke-linejoin:round;stroke-miterlimit:2;stroke-dasharray:none;stroke-opacity:1" transform="matrix(-.43253 -.24092 -.2419 .42762 46.127 -6.776)"/></g><g style="display:inline;stroke-width:2.56234"><path d="M19.626 99.73c1.972-2.227 5.424.445 5.424.445l-.732.238s1.702.525 1.782 1.018l-.382.064s1.432.827 1.432 1.145l-.255.112s.843.556.859.731l-.334.032.286.493-.477-.35s.16.875.064 1.05l-.303-.239s.112.843-.047 1.082l-.27-.461-.366.716-.064-.557-.096.986-.206-.19-.143 2.02s-.764-1.894-1.75-2.657l-.175.223-.35-.589-.111.111-.7-.525-.112.414-.636-.89-.223.317-.7-.7-.302.366-.334-.54-.238.143-.032-.541-.286.43-.27-.732-.176.238-.016-.7-.509.525v-1.002l-.525.255.08-.716-.652.286.143-.89-.589.35.175-.685-.588.112.398-.43-.557-.016.366-.397-.43-.143.382-.191s-1.416-2.052 2.545.238" style="fill:#508065;fill-opacity:1;stroke:#3d614d;stroke-width:.508462;stroke-linecap:round;stroke-linejoin:round;stroke-miterlimit:2;stroke-dasharray:none;stroke-opacity:1" transform="matrix(-.30765 -.24322 -.24553 .30097 38.49 5.369)"/><path d="M19.626 99.73c2.831-.478 5.901 5.217 6.172 8.334" style="fill:none;fill-opacity:1;stroke:#3d614d;stroke-width:.508462;stroke-linecap:round;stroke-linejoin:round;stroke-miterlimit:2;stroke-dasharray:none;stroke-opacity:1" transform="matrix(-.30765 -.24322 -.24553 .30097 38.49 5.369)"/></g><g style="stroke-width:1.88714"><path d="m.554 95.196 1.305-.095 3.944-2.673-.159.382 1.082-.35v.35l.954-.382v.35l1.146-.254-.032.223 1.05-.064-.128.159 1.21.382-.128.19 1.113.192-.159.19.827.287-.286.032.89.381-.349.287 1.272.19-.222.191.7.128-.16.254.637.54-.223.065.764.668-.382.031.89.987-.413.031.986.827-.35.096.86.763-.287-.031.89 1.622-2.703-1.082.318.478-1.082-.191.414.318-.955-.032.318.318-.922-.19.159.254-.89-.223.19.573-.763-.318v.286l-.764-.382-.032.223-.827-.35v.286l-.668-.222-.127.318-.605-.287v.287l-.7-.414.096.318-.89-.477v.318l-.669-.382v.255l-.572-.51-.064.255-.509-.54v.254l-.7-.636-.032.286-.7-.604v.286l-.509-.763-.127.381-.19-.731-.255.318-.223-.796-.19.255-.128-.764-.255.287-.222-2.323Z" style="display:inline;fill:#508065;fill-opacity:1;stroke:#3d614d;stroke-width:.374478;stroke-linecap:round;stroke-linejoin:round;stroke-miterlimit:2;stroke-dasharray:none;stroke-opacity:1" transform="matrix(-.33737 -.41003 -.41059 .3333 67.246 13.082)"/><path d="M.554 95.196c6.395.191 14.03 2.577 17.243 5.949" style="display:inline;fill:none;fill-opacity:1;stroke:#3d614d;stroke-width:.374478;stroke-linecap:round;stroke-linejoin:round;stroke-miterlimit:2;stroke-dasharray:none;stroke-opacity:1" transform="matrix(-.33737 -.41003 -.41059 .3333 67.246 13.082)"/></g><g style="display:inline;stroke-width:2.00878"><path d="M19.626 99.73c1.972-2.227 5.424.445 5.424.445l-.732.238s1.702.525 1.782 1.018l-.382.064s1.432.827 1.432 1.145l-.255.112s.843.556.859.731l-.334.032.286.493-.477-.35s.16.875.064 1.05l-.303-.239s.112.843-.047 1.082l-.27-.461-.366.716-.064-.557-.096.986-.206-.19-.143 2.02s-.764-1.894-1.75-2.657l-.175.223-.35-.589-.111.111-.7-.525-.112.414-.636-.89-.223.317-.7-.7-.302.366-.334-.54-.238.143-.032-.541-.286.43-.27-.732-.176.238-.016-.7-.509.525v-1.002l-.525.255.08-.716-.652.286.143-.89-.589.35.175-.685-.588.112.398-.43-.557-.016.366-.397-.43-.143.382-.191s-1.416-2.052 2.545.238" style="fill:#508065;fill-opacity:1;stroke:#3d614d;stroke-width:.398615;stroke-linecap:round;stroke-linejoin:round;stroke-miterlimit:2;stroke-dasharray:none;stroke-opacity:1" transform="matrix(.44977 -.2174 .21965 .44482 -7.372 -13.065)"/><path d="M19.626 99.73c2.831-.478 5.901 5.217 6.172 8.334" style="fill:none;fill-opacity:1;stroke:#3d614d;stroke-width:.398615;stroke-linecap:round;stroke-linejoin:round;stroke-miterlimit:2;stroke-dasharray:none;stroke-opacity:1" transform="matrix(.44977 -.2174 .21965 .44482 -7.372 -13.065)"/></g><path d="M65.102 36.598c.315 7.99-.463 78.924-.463 78.924l.463.098s1.034-78.271 0-79.022" style="fill:#4c6c15;fill-opacity:1;stroke:none;stroke-width:.198437;stroke-linecap:round;stroke-linejoin:round;stroke-miterlimit:2;stroke-dasharray:none;stroke-opacity:1" transform="translate(-45.121 -10.895)"/><g transform="translate(-45.121 -12.077)"><use xlink:href="#a" transform="rotate(-1.877 188.236 -634.437)"/><use xlink:href="#a" transform="rotate(16.234 37.714 107.951)"/><use xlink:href="#a" transform="rotate(-1.313 317.871 -928.374)"/><use xlink:href="#a" transform="rotate(-12.227 84.206 -63.19)"/><use xlink:href="#a" transform="rotate(-11.358 93.476 -68.65)"/><use xlink:href="#a" transform="rotate(-15.645 88.012 -36.033)"/><use xlink:href="#a" transform="rotate(-5.584 149.68 -182.81)"/><use xlink:href="#a" transform="rotate(-.48 1307.19 -2615.798)"/><use xlink:href="#a" transform="rotate(-7.096 146.551 -130.882)"/><use xlink:href="#a" transform="rotate(-12.807 109.441 -60.534)"/><use xlink:href="#a" transform="rotate(14.49 .517 127.004)"/><use xlink:href="#a" transform="rotate(-.585 1455.76 -2001.368)"/><use xlink:href="#a" transform="rotate(7.513 -89.462 202.676)"/><use xlink:href="#a" transform="rotate(5.627 -146.325 267.34)"/></g><g style="display:inline;stroke-width:1.08673"><path d="M4.499 81.018s-1.361-1.305-1.72-1.451c-.586-3.318-6.176-3.307-6.176-3.307l-1.417-.214.191.225h-.483l.18.18-.54-.022.168.292-2.778-.112 2.632.854-.123.214.81.158-.158.225.753.202-.337.191.945.158-.383.36.709.112-.146.203.652.09-.461.55 1.046-.078-.27.27.394-.023-.304.372.675-.18-.236.303.73-.067-.18.405.586-.225v.315l.348-.203.135.236.293-.168.19.427.417-.18.056.36.304-.259.101.327c2.846-.405 2.61-1.091 2.61-1.091Z" style="display:inline;fill:#508065;fill-opacity:1;stroke:#3d614d;stroke-width:.215649;stroke-linecap:round;stroke-linejoin:round;stroke-miterlimit:2;stroke-dasharray:none;stroke-opacity:1" transform="matrix(.74313 -.48606 .42896 .85885 -19.637 -24.27)"/><path d="M2.778 79.567c-3.79-2.418-7.412-1.856-10.854-2.958" style="fill:none;fill-opacity:1;stroke:#3d614d;stroke-width:.215649;stroke-linecap:round;stroke-linejoin:round;stroke-miterlimit:2;stroke-dasharray:none;stroke-opacity:1" transform="matrix(.74313 -.48606 .42896 .85885 -19.637 -24.27)"/></g><g style="display:inline;stroke-width:1.22212"><path d="M4.499 81.018s-1.361-1.305-1.72-1.451c-.586-3.318-6.176-3.307-6.176-3.307l-1.417-.214.191.225h-.483l.18.18-.54-.022.168.292-2.778-.112 2.632.854-.123.214.81.158-.158.225.753.202-.337.191.945.158-.383.36.709.112-.146.203.652.09-.461.55 1.046-.078-.27.27.394-.023-.304.372.675-.18-.236.303.73-.067-.18.405.586-.225v.315l.348-.203.135.236.293-.168.19.427.417-.18.056.36.304-.259.101.327c2.846-.405 2.61-1.091 2.61-1.091Z" style="display:inline;fill:#508065;fill-opacity:1;stroke:#3d614d;stroke-width:.242515;stroke-linecap:round;stroke-linejoin:round;stroke-miterlimit:2;stroke-dasharray:none;stroke-opacity:1" transform="matrix(.72532 -.31449 .24814 .81549 -4.838 -25.559)"/><path d="M2.778 79.567c-3.79-2.418-7.412-1.856-10.854-2.958" style="fill:none;fill-opacity:1;stroke:#3d614d;stroke-width:.242515;stroke-linecap:round;stroke-linejoin:round;stroke-miterlimit:2;stroke-dasharray:none;stroke-opacity:1" transform="matrix(.72532 -.31449 .24814 .81549 -4.838 -25.559)"/></g><g style="stroke-width:1.78758"><path d="m.554 95.196 1.305-.095 3.944-2.673-.159.382 1.082-.35v.35l.954-.382v.35l1.146-.254-.032.223 1.05-.064-.128.159 1.21.382-.128.19 1.113.192-.159.19.827.287-.286.032.89.381-.349.287 1.272.19-.222.191.7.128-.16.254.637.54-.223.065.764.668-.382.031.89.987-.413.031.986.827-.35.096.86.763-.287-.031.89 1.622-2.703-1.082.318.478-1.082-.191.414.318-.955-.032.318.318-.922-.19.159.254-.89-.223.19.573-.763-.318v.286l-.764-.382-.032.223-.827-.35v.286l-.668-.222-.127.318-.605-.287v.287l-.7-.414.096.318-.89-.477v.318l-.669-.382v.255l-.572-.51-.064.255-.509-.54v.254l-.7-.636-.032.286-.7-.604v.286l-.509-.763-.127.381-.19-.731-.255.318-.223-.796-.19.255-.128-.764-.255.287-.222-2.323Z" style="display:inline;fill:#508065;fill-opacity:1;stroke:#3d614d;stroke-width:.354722;stroke-linecap:round;stroke-linejoin:round;stroke-miterlimit:2;stroke-dasharray:none;stroke-opacity:1" transform="matrix(-.56174 0 0 .5571 20.624 14.989)"/><path d="M.554 95.196c6.395.191 14.03 2.577 17.243 5.949" style="display:inline;fill:none;fill-opacity:1;stroke:#3d614d;stroke-width:.354722;stroke-linecap:round;stroke-linejoin:round;stroke-miterlimit:2;stroke-dasharray:none;stroke-opacity:1" transform="matrix(-.56174 0 0 .5571 20.624 14.989)"/></g><g style="stroke-width:2.16699"><path d="m.554 95.196 1.305-.095 3.944-2.673-.159.382 1.082-.35v.35l.954-.382v.35l1.146-.254-.032.223 1.05-.064-.128.159 1.21.382-.128.19 1.113.192-.159.19.827.287-.286.032.89.381-.349.287 1.272.19-.222.191.7.128-.16.254.637.54-.223.065.764.668-.382.031.89.987-.413.031.986.827-.35.096.86.763-.287-.031.89 1.622-2.703-1.082.318.478-1.082-.191.414.318-.955-.032.318.318-.922-.19.159.254-.89-.223.19.573-.763-.318v.286l-.764-.382-.032.223-.827-.35v.286l-.668-.222-.127.318-.605-.287v.287l-.7-.414.096.318-.89-.477v.318l-.669-.382v.255l-.572-.51-.064.255-.509-.54v.254l-.7-.636-.032.286-.7-.604v.286l-.509-.763-.127.381-.19-.731-.255.318-.223-.796-.19.255-.128-.764-.255.287-.222-2.323Z" style="display:inline;fill:#508065;fill-opacity:1;stroke:#3d614d;stroke-width:.43001;stroke-linecap:round;stroke-linejoin:round;stroke-miterlimit:2;stroke-dasharray:none;stroke-opacity:1" transform="matrix(-.40737 -.22192 -.221 .40237 30.302 7.875)"/><path d="M.554 95.196c6.395.191 14.03 2.577 17.243 5.949" style="display:inline;fill:none;fill-opacity:1;stroke:#3d614d;stroke-width:.43001;stroke-linecap:round;stroke-linejoin:round;stroke-miterlimit:2;stroke-dasharray:none;stroke-opacity:1" transform="matrix(-.40737 -.22192 -.221 .40237 30.302 7.875)"/></g><g style="stroke-width:1.3982"><path d="m.554 95.196 1.305-.095 3.944-2.673-.159.382 1.082-.35v.35l.954-.382v.35l1.146-.254-.032.223 1.05-.064-.128.159 1.21.382-.128.19 1.113.192-.159.19.827.287-.286.032.89.381-.349.287 1.272.19-.222.191.7.128-.16.254.637.54-.223.065.764.668-.382.031.89.987-.413.031.986.827-.35.096.86.763-.287-.031.89 1.622-2.703-1.082.318.478-1.082-.191.414.318-.955-.032.318.318-.922-.19.159.254-.89-.223.19.573-.763-.318v.286l-.764-.382-.032.223-.827-.35v.286l-.668-.222-.127.318-.605-.287v.287l-.7-.414.096.318-.89-.477v.318l-.669-.382v.255l-.572-.51-.064.255-.509-.54v.254l-.7-.636-.032.286-.7-.604v.286l-.509-.763-.127.381-.19-.731-.255.318-.223-.796-.19.255-.128-.764-.255.287-.222-2.323Z" style="display:inline;fill:#508065;fill-opacity:1;stroke:#3d614d;stroke-width:.277454;stroke-linecap:round;stroke-linejoin:round;stroke-miterlimit:2;stroke-dasharray:none;stroke-opacity:1" transform="matrix(.7167 0 0 .71371 26.317 -3.17)"/><path d="M.554 95.196c6.395.191 14.03 2.577 17.243 5.949" style="display:inline;fill:none;fill-opacity:1;stroke:#3d614d;stroke-width:.277454;stroke-linecap:round;stroke-linejoin:round;stroke-miterlimit:2;stroke-dasharray:none;stroke-opacity:1" transform="matrix(.7167 0 0 .71371 26.317 -3.17)"/></g><g style="stroke-width:1.16904"><path d="m.554 95.196 1.305-.095 3.944-2.673-.159.382 1.082-.35v.35l.954-.382v.35l1.146-.254-.032.223 1.05-.064-.128.159 1.21.382-.128.19 1.113.192-.159.19.827.287-.286.032.89.381-.349.287 1.272.19-.222.191.7.128-.16.254.637.54-.223.065.764.668-.382.031.89.987-.413.031.986.827-.35.096.86.763-.287-.031.89 1.622-2.703-1.082.318.478-1.082-.191.414.318-.955-.032.318.318-.922-.19.159.254-.89-.223.19.573-.763-.318v.286l-.764-.382-.032.223-.827-.35v.286l-.668-.222-.127.318-.605-.287v.287l-.7-.414.096.318-.89-.477v.318l-.669-.382v.255l-.572-.51-.064.255-.509-.54v.254l-.7-.636-.032.286-.7-.604v.286l-.509-.763-.127.381-.19-.731-.255.318-.223-.796-.19.255-.128-.764-.255.287-.222-2.323Z" style="display:inline;fill:#508065;fill-opacity:1;stroke:#3d614d;stroke-width:.231981;stroke-linecap:round;stroke-linejoin:round;stroke-miterlimit:2;stroke-dasharray:none;stroke-opacity:1" transform="matrix(.73237 -.44344 .44333 .73067 -20.762 10.846)"/><path d="M.554 95.196c6.395.191 14.03 2.577 17.243 5.949" style="display:inline;fill:none;fill-opacity:1;stroke:#3d614d;stroke-width:.231981;stroke-linecap:round;stroke-linejoin:round;stroke-miterlimit:2;stroke-dasharray:none;stroke-opacity:1" transform="matrix(.73237 -.44344 .44333 .73067 -20.762 10.846)"/></g><g style="stroke-width:1.68819"><path d="m.554 95.196 1.305-.095 3.944-2.673-.159.382 1.082-.35v.35l.954-.382v.35l1.146-.254-.032.223 1.05-.064-.128.159 1.21.382-.128.19 1.113.192-.159.19.827.287-.286.032.89.381-.349.287 1.272.19-.222.191.7.128-.16.254.637.54-.223.065.764.668-.382.031.89.987-.413.031.986.827-.35.096.86.763-.287-.031.89 1.622-2.703-1.082.318.478-1.082-.191.414.318-.955-.032.318.318-.922-.19.159.254-.89-.223.19.573-.763-.318v.286l-.764-.382-.032.223-.827-.35v.286l-.668-.222-.127.318-.605-.287v.287l-.7-.414.096.318-.89-.477v.318l-.669-.382v.255l-.572-.51-.064.255-.509-.54v.254l-.7-.636-.032.286-.7-.604v.286l-.509-.763-.127.381-.19-.731-.255.318-.223-.796-.19.255-.128-.764-.255.287-.222-2.323Z" style="display:inline;fill:#508065;fill-opacity:1;stroke:#3d614d;stroke-width:.335;stroke-linecap:round;stroke-linejoin:round;stroke-miterlimit:2;stroke-dasharray:none;stroke-opacity:1" transform="matrix(.50851 -.30625 .30782 .50462 -2.433 9.12)"/><path d="M.554 95.196c6.395.191 14.03 2.577 17.243 5.949" style="display:inline;fill:none;fill-opacity:1;stroke:#3d614d;stroke-width:.335;stroke-linecap:round;stroke-linejoin:round;stroke-miterlimit:2;stroke-dasharray:none;stroke-opacity:1" transform="matrix(.50851 -.30625 .30782 .50462 -2.433 9.12)"/></g><g style="stroke-width:1.68819"><path d="m.554 95.196 1.305-.095 3.944-2.673-.159.382 1.082-.35v.35l.954-.382v.35l1.146-.254-.032.223 1.05-.064-.128.159 1.21.382-.128.19 1.113.192-.159.19.827.287-.286.032.89.381-.349.287 1.272.19-.222.191.7.128-.16.254.637.54-.223.065.764.668-.382.031.89.987-.413.031.986.827-.35.096.86.763-.287-.031.89 1.622-2.703-1.082.318.478-1.082-.191.414.318-.955-.032.318.318-.922-.19.159.254-.89-.223.19.573-.763-.318v.286l-.764-.382-.032.223-.827-.35v.286l-.668-.222-.127.318-.605-.287v.287l-.7-.414.096.318-.89-.477v.318l-.669-.382v.255l-.572-.51-.064.255-.509-.54v.254l-.7-.636-.032.286-.7-.604v.286l-.509-.763-.127.381-.19-.731-.255.318-.223-.796-.19.255-.128-.764-.255.287-.222-2.323Z" style="display:inline;fill:#508065;fill-opacity:1;stroke:#3d614d;stroke-width:.335;stroke-linecap:round;stroke-linejoin:round;stroke-miterlimit:2;stroke-dasharray:none;stroke-opacity:1" transform="matrix(-.59255 -.03545 -.03864 .58984 24.206 7.62)"/><path d="M.554 95.196c6.395.191 14.03 2.577 17.243 5.949" style="display:inline;fill:none;fill-opacity:1;stroke:#3d614d;stroke-width:.335;stroke-linecap:round;stroke-linejoin:round;stroke-miterlimit:2;stroke-dasharray:none;stroke-opacity:1" transform="matrix(-.59255 -.03545 -.03864 .58984 24.206 7.62)"/></g><g style="display:inline"><path d="M19.626 99.73c1.972-2.227 5.424.445 5.424.445l-.732.238s1.702.525 1.782 1.018l-.382.064s1.432.827 1.432 1.145l-.255.112s.843.556.859.731l-.334.032.286.493-.477-.35s.16.875.064 1.05l-.303-.239s.112.843-.047 1.082l-.27-.461-.366.716-.064-.557-.096.986-.206-.19-.143 2.02s-.764-1.894-1.75-2.657l-.175.223-.35-.589-.111.111-.7-.525-.112.414-.636-.89-.223.317-.7-.7-.302.366-.334-.54-.238.143-.032-.541-.286.43-.27-.732-.176.238-.016-.7-.509.525v-1.002l-.525.255.08-.716-.652.286.143-.89-.589.35.175-.685-.588.112.398-.43-.557-.016.366-.397-.43-.143.382-.191s-1.416-2.052 2.545.238" style="fill:#508065;fill-opacity:1;stroke:#3d614d;stroke-width:.198437;stroke-linecap:round;stroke-linejoin:round;stroke-miterlimit:2;stroke-dasharray:none;stroke-opacity:1" transform="matrix(-1 0 0 1 41.766 -25.794)"/><path d="M19.626 99.73c2.831-.478 5.901 5.217 6.172 8.334" style="fill:none;fill-opacity:1;stroke:#3d614d;stroke-width:.198437;stroke-linecap:round;stroke-linejoin:round;stroke-miterlimit:2;stroke-dasharray:none;stroke-opacity:1" transform="matrix(-1 0 0 1 41.766 -25.794)"/></g><g style="display:inline;stroke-width:1.06071"><path d="M19.626 99.73c1.972-2.227 5.424.445 5.424.445l-.732.238s1.702.525 1.782 1.018l-.382.064s1.432.827 1.432 1.145l-.255.112s.843.556.859.731l-.334.032.286.493-.477-.35s.16.875.064 1.05l-.303-.239s.112.843-.047 1.082l-.27-.461-.366.716-.064-.557-.096.986-.206-.19-.143 2.02s-.764-1.894-1.75-2.657l-.175.223-.35-.589-.111.111-.7-.525-.112.414-.636-.89-.223.317-.7-.7-.302.366-.334-.54-.238.143-.032-.541-.286.43-.27-.732-.176.238-.016-.7-.509.525v-1.002l-.525.255.08-.716-.652.286.143-.89-.589.35.175-.685-.588.112.398-.43-.557-.016.366-.397-.43-.143.382-.191s-1.416-2.052 2.545.238" style="fill:#508065;fill-opacity:1;stroke:#3d614d;stroke-width:.210483;stroke-linecap:round;stroke-linejoin:round;stroke-miterlimit:2;stroke-dasharray:none;stroke-opacity:1" transform="matrix(.94286 0 0 .94268 8.695 -34.908)"/><path d="M19.626 99.73c2.831-.478 5.901 5.217 6.172 8.334" style="fill:none;fill-opacity:1;stroke:#3d614d;stroke-width:.210483;stroke-linecap:round;stroke-linejoin:round;stroke-miterlimit:2;stroke-dasharray:none;stroke-opacity:1" transform="matrix(.94286 0 0 .94268 8.695 -34.908)"/></g><g style="display:inline;stroke-width:1.12926"><path d="M19.626 99.73c1.972-2.227 5.424.445 5.424.445l-.732.238s1.702.525 1.782 1.018l-.382.064s1.432.827 1.432 1.145l-.255.112s.843.556.859.731l-.334.032.286.493-.477-.35s.16.875.064 1.05l-.303-.239s.112.843-.047 1.082l-.27-.461-.366.716-.064-.557-.096.986-.206-.19-.143 2.02s-.764-1.894-1.75-2.657l-.175.223-.35-.589-.111.111-.7-.525-.112.414-.636-.89-.223.317-.7-.7-.302.366-.334-.54-.238.143-.032-.541-.286.43-.27-.732-.176.238-.016-.7-.509.525v-1.002l-.525.255.08-.716-.652.286.143-.89-.589.35.175-.685-.588.112.398-.43-.557-.016.366-.397-.43-.143.382-.191s-1.416-2.052 2.545.238" style="fill:#508065;fill-opacity:1;stroke:#3d614d;stroke-width:.224087;stroke-linecap:round;stroke-linejoin:round;stroke-miterlimit:2;stroke-dasharray:none;stroke-opacity:1" transform="matrix(-.88571 0 0 .88536 40.292 -44.234)"/><path d="M19.626 99.73c2.831-.478 5.901 5.217 6.172 8.334" style="fill:none;fill-opacity:1;stroke:#3d614d;stroke-width:.224087;stroke-linecap:round;stroke-linejoin:round;stroke-miterlimit:2;stroke-dasharray:none;stroke-opacity:1" transform="matrix(-.88571 0 0 .88536 40.292 -44.234)"/></g><g style="display:inline;stroke-width:1.50383"><path d="M19.626 99.73c1.972-2.227 5.424.445 5.424.445l-.732.238s1.702.525 1.782 1.018l-.382.064s1.432.827 1.432 1.145l-.255.112s.843.556.859.731l-.334.032.286.493-.477-.35s.16.875.064 1.05l-.303-.239s.112.843-.047 1.082l-.27-.461-.366.716-.064-.557-.096.986-.206-.19-.143 2.02s-.764-1.894-1.75-2.657l-.175.223-.35-.589-.111.111-.7-.525-.112.414-.636-.89-.223.317-.7-.7-.302.366-.334-.54-.238.143-.032-.541-.286.43-.27-.732-.176.238-.016-.7-.509.525v-1.002l-.525.255.08-.716-.652.286.143-.89-.589.35.175-.685-.588.112.398-.43-.557-.016.366-.397-.43-.143.382-.191s-1.416-2.052 2.545.238" style="fill:#508065;fill-opacity:1;stroke:#3d614d;stroke-width:.298415;stroke-linecap:round;stroke-linejoin:round;stroke-miterlimit:2;stroke-dasharray:none;stroke-opacity:1" transform="matrix(.59895 -.2913 .2925 .596 -12.83 -13.69)"/><path d="M19.626 99.73c2.831-.478 5.901 5.217 6.172 8.334" style="fill:none;fill-opacity:1;stroke:#3d614d;stroke-width:.298415;stroke-linecap:round;stroke-linejoin:round;stroke-miterlimit:2;stroke-dasharray:none;stroke-opacity:1" transform="matrix(.59895 -.2913 .2925 .596 -12.83 -13.69)"/></g><g style="display:inline;stroke-width:1.61543"><path d="M19.626 99.73c1.972-2.227 5.424.445 5.424.445l-.732.238s1.702.525 1.782 1.018l-.382.064s1.432.827 1.432 1.145l-.255.112s.843.556.859.731l-.334.032.286.493-.477-.35s.16.875.064 1.05l-.303-.239s.112.843-.047 1.082l-.27-.461-.366.716-.064-.557-.096.986-.206-.19-.143 2.02s-.764-1.894-1.75-2.657l-.175.223-.35-.589-.111.111-.7-.525-.112.414-.636-.89-.223.317-.7-.7-.302.366-.334-.54-.238.143-.032-.541-.286.43-.27-.732-.176.238-.016-.7-.509.525v-1.002l-.525.255.08-.716-.652.286.143-.89-.589.35.175-.685-.588.112.398-.43-.557-.016.366-.397-.43-.143.382-.191s-1.416-2.052 2.545.238" style="fill:#508065;fill-opacity:1;stroke:#3d614d;stroke-width:.320561;stroke-linecap:round;stroke-linejoin:round;stroke-miterlimit:2;stroke-dasharray:none;stroke-opacity:1" transform="matrix(.4667 -.4083 .4094 .46291 -27.121 -.728)"/><path d="M19.626 99.73c2.831-.478 5.901 5.217 6.172 8.334" style="fill:none;fill-opacity:1;stroke:#3d614d;stroke-width:.320561;stroke-linecap:round;stroke-linejoin:round;stroke-miterlimit:2;stroke-dasharray:none;stroke-opacity:1" transform="matrix(.4667 -.4083 .4094 .46291 -27.121 -.728)"/></g><g style="display:inline"><path d="M19.626 99.73c1.972-2.227 5.424.445 5.424.445l-.732.238s1.702.525 1.782 1.018l-.382.064s1.432.827 1.432 1.145l-.255.112s.843.556.859.731l-.334.032.286.493-.477-.35s.16.875.064 1.05l-.303-.239s.112.843-.047 1.082l-.27-.461-.366.716-.064-.557-.096.986-.206-.19-.143 2.02s-.764-1.894-1.75-2.657l-.175.223-.35-.589-.111.111-.7-.525-.112.414-.636-.89-.223.317-.7-.7-.302.366-.334-.54-.238.143-.032-.541-.286.43-.27-.732-.176.238-.016-.7-.509.525v-1.002l-.525.255.08-.716-.652.286.143-.89-.589.35.175-.685-.588.112.398-.43-.557-.016.366-.397-.43-.143.382-.191s-1.416-2.052 2.545.238" style="fill:#508065;fill-opacity:1;stroke:#3d614d;stroke-width:.198437;stroke-linecap:round;stroke-linejoin:round;stroke-miterlimit:2;stroke-dasharray:none;stroke-opacity:1" transform="rotate(-159.69 29.671 -16.4)scale(1 -1)"/><path d="M19.626 99.73c2.831-.478 5.901 5.217 6.172 8.334" style="fill:none;fill-opacity:1;stroke:#3d614d;stroke-width:.198437;stroke-linecap:round;stroke-linejoin:round;stroke-miterlimit:2;stroke-dasharray:none;stroke-opacity:1" transform="rotate(-159.69 29.671 -16.4)scale(1 -1)"/></g><g style="display:inline;stroke-width:1.40941"><path d="M19.626 99.73c1.972-2.227 5.424.445 5.424.445l-.732.238s1.702.525 1.782 1.018l-.382.064s1.432.827 1.432 1.145l-.255.112s.843.556.859.731l-.334.032.286.493-.477-.35s.16.875.064 1.05l-.303-.239s.112.843-.047 1.082l-.27-.461-.366.716-.064-.557-.096.986-.206-.19-.143 2.02s-.764-1.894-1.75-2.657l-.175.223-.35-.589-.111.111-.7-.525-.112.414-.636-.89-.223.317-.7-.7-.302.366-.334-.54-.238.143-.032-.541-.286.43-.27-.732-.176.238-.016-.7-.509.525v-1.002l-.525.255.08-.716-.652.286.143-.89-.589.35.175-.685-.588.112.398-.43-.557-.016.366-.397-.43-.143.382-.191s-1.416-2.052 2.545.238" style="fill:#508065;fill-opacity:1;stroke:#3d614d;stroke-width:.279678;stroke-linecap:round;stroke-linejoin:round;stroke-miterlimit:2;stroke-dasharray:none;stroke-opacity:1" transform="matrix(.66676 -.24578 .24677 .66406 -29.039 -20.299)"/><path d="M19.626 99.73c2.831-.478 5.901 5.217 6.172 8.334" style="fill:none;fill-opacity:1;stroke:#3d614d;stroke-width:.279678;stroke-linecap:round;stroke-linejoin:round;stroke-miterlimit:2;stroke-dasharray:none;stroke-opacity:1" transform="matrix(.66676 -.24578 .24677 .66406 -29.039 -20.299)"/></g><g style="display:inline;stroke-width:1.067"><path d="M4.499 81.018s-1.361-1.305-1.72-1.451c-.586-3.318-6.176-3.307-6.176-3.307l-1.417-.214.191.225h-.483l.18.18-.54-.022.168.292-2.778-.112 2.632.854-.123.214.81.158-.158.225.753.202-.337.191.945.158-.383.36.709.112-.146.203.652.09-.461.55 1.046-.078-.27.27.394-.023-.304.372.675-.18-.236.303.73-.067-.18.405.586-.225v.315l.348-.203.135.236.293-.168.19.427.417-.18.056.36.304-.259.101.327c2.846-.405 2.61-1.091 2.61-1.091Z" style="display:inline;fill:#508065;fill-opacity:1;stroke:#3d614d;stroke-width:.211733;stroke-linecap:round;stroke-linejoin:round;stroke-miterlimit:2;stroke-dasharray:none;stroke-opacity:1" transform="matrix(.87835 0 0 1 7.197 -.892)"/><path d="M2.778 79.567c-3.79-2.418-7.412-1.856-10.854-2.958" style="fill:none;fill-opacity:1;stroke:#3d614d;stroke-width:.211733;stroke-linecap:round;stroke-linejoin:round;stroke-miterlimit:2;stroke-dasharray:none;stroke-opacity:1" transform="matrix(.87835 0 0 1 7.197 -.892)"/></g><g style="display:inline"><path d="M20.23 73.166c-1.59-.747-1.209-1.925-3.244-1.32l.174.238-.763.478.302-.048-.334.445.223-.08-.302.637.302-.127-.318.606.207-.081-.032.572.334-.206-.223.795.334-.239-.08.62.27-.238-.126.795.238-.286.143 1.082.255-.303.175.907.254-.318-.063 1.097.254-.27.16 1.193.174-.19.064 2.655 1.097-2.56.255.11.048-.73.445.158-.064-.604.398.318-.048-.493.239.08.08-.605.365.7.191-.811.35.413c.493-.048 2.497-5.456-1.734-4.39" style="display:inline;fill:#508065;fill-opacity:1;stroke:#3d614d;stroke-width:.198437;stroke-linecap:round;stroke-linejoin:round;stroke-miterlimit:2;stroke-dasharray:none;stroke-opacity:1" transform="matrix(-1 0 0 1 30.828 -1.208)"/><path d="M20.23 73.166c.048 1.145-1.622 8.414-1.622 8.414" style="fill:none;fill-opacity:1;stroke:#3d614d;stroke-width:.198437;stroke-linecap:round;stroke-linejoin:round;stroke-miterlimit:2;stroke-dasharray:none;stroke-opacity:1" transform="matrix(-1 0 0 1 30.828 -1.208)"/></g><g style="display:inline"><path d="M4.499 81.018s-1.361-1.305-1.72-1.451c-.586-3.318-6.176-3.307-6.176-3.307l-1.417-.214.191.225h-.483l.18.18-.54-.022.168.292-2.778-.112 2.632.854-.123.214.81.158-.158.225.753.202-.337.191.945.158-.383.36.709.112-.146.203.652.09-.461.55 1.046-.078-.27.27.394-.023-.304.372.675-.18-.236.303.73-.067-.18.405.586-.225v.315l.348-.203.135.236.293-.168.19.427.417-.18.056.36.304-.259.101.327c2.846-.405 2.61-1.091 2.61-1.091Z" style="display:inline;fill:#508065;fill-opacity:1;stroke:#3d614d;stroke-width:.198437;stroke-linecap:round;stroke-linejoin:round;stroke-miterlimit:2;stroke-dasharray:none;stroke-opacity:1" transform="rotate(17.157 41.886 178.264)scale(-1 1)"/><path d="M2.778 79.567c-3.79-2.418-7.412-1.856-10.854-2.958" style="fill:none;fill-opacity:1;stroke:#3d614d;stroke-width:.198437;stroke-linecap:round;stroke-linejoin:round;stroke-miterlimit:2;stroke-dasharray:none;stroke-opacity:1" transform="rotate(17.157 41.886 178.264)scale(-1 1)"/></g><g style="display:inline"><path d="M4.499 81.018s-1.361-1.305-1.72-1.451c-.586-3.318-6.176-3.307-6.176-3.307l-1.417-.214.191.225h-.483l.18.18-.54-.022.168.292-2.778-.112 2.632.854-.123.214.81.158-.158.225.753.202-.337.191.945.158-.383.36.709.112-.146.203.652.09-.461.55 1.046-.078-.27.27.394-.023-.304.372.675-.18-.236.303.73-.067-.18.405.586-.225v.315l.348-.203.135.236.293-.168.19.427.417-.18.056.36.304-.259.101.327c2.846-.405 2.61-1.091 2.61-1.091Z" style="display:inline;fill:#508065;fill-opacity:1;stroke:#3d614d;stroke-width:.198437;stroke-linecap:round;stroke-linejoin:round;stroke-miterlimit:2;stroke-dasharray:none;stroke-opacity:1" transform="rotate(-17.157 -18.347 30.538)"/><path d="M2.778 79.567c-3.79-2.418-7.412-1.856-10.854-2.958" style="fill:none;fill-opacity:1;stroke:#3d614d;stroke-width:.198437;stroke-linecap:round;stroke-linejoin:round;stroke-miterlimit:2;stroke-dasharray:none;stroke-opacity:1" transform="rotate(-17.157 -18.347 30.538)"/></g><g style="display:inline;stroke-width:1.08673"><path d="M4.499 81.018s-1.361-1.305-1.72-1.451c-.586-3.318-6.176-3.307-6.176-3.307l-1.417-.214.191.225h-.483l.18.18-.54-.022.168.292-2.778-.112 2.632.854-.123.214.81.158-.158.225.753.202-.337.191.945.158-.383.36.709.112-.146.203.652.09-.461.55 1.046-.078-.27.27.394-.023-.304.372.675-.18-.236.303.73-.067-.18.405.586-.225v.315l.348-.203.135.236.293-.168.19.427.417-.18.056.36.304-.259.101.327c2.846-.405 2.61-1.091 2.61-1.091Z" style="display:inline;fill:#508065;fill-opacity:1;stroke:#3d614d;stroke-width:.215649;stroke-linecap:round;stroke-linejoin:round;stroke-miterlimit:2;stroke-dasharray:none;stroke-opacity:1" transform="matrix(.50345 -.73146 .72248 .63218 -51.197 7.291)"/><path d="M2.778 79.567c-3.79-2.418-7.412-1.856-10.854-2.958" style="fill:none;fill-opacity:1;stroke:#3d614d;stroke-width:.215649;stroke-linecap:round;stroke-linejoin:round;stroke-miterlimit:2;stroke-dasharray:none;stroke-opacity:1" transform="matrix(.50345 -.73146 .72248 .63218 -51.197 7.291)"/></g><g style="stroke-width:1.78758"><path d="m.554 95.196 1.305-.095 3.944-2.673-.159.382 1.082-.35v.35l.954-.382v.35l1.146-.254-.032.223 1.05-.064-.128.159 1.21.382-.128.19 1.113.192-.159.19.827.287-.286.032.89.381-.349.287 1.272.19-.222.191.7.128-.16.254.637.54-.223.065.764.668-.382.031.89.987-.413.031.986.827-.35.096.86.763-.287-.031.89 1.622-2.703-1.082.318.478-1.082-.191.414.318-.955-.032.318.318-.922-.19.159.254-.89-.223.19.573-.763-.318v.286l-.764-.382-.032.223-.827-.35v.286l-.668-.222-.127.318-.605-.287v.287l-.7-.414.096.318-.89-.477v.318l-.669-.382v.255l-.572-.51-.064.255-.509-.54v.254l-.7-.636-.032.286-.7-.604v.286l-.509-.763-.127.381-.19-.731-.255.318-.223-.796-.19.255-.128-.764-.255.287-.222-2.323Z" style="display:inline;fill:#508065;fill-opacity:1;stroke:#3d614d;stroke-width:.354722;stroke-linecap:round;stroke-linejoin:round;stroke-miterlimit:2;stroke-dasharray:none;stroke-opacity:1" transform="matrix(.56174 0 0 .5571 21.795 17.33)"/><path d="M.554 95.196c6.395.191 14.03 2.577 17.243 5.949" style="display:inline;fill:none;fill-opacity:1;stroke:#3d614d;stroke-width:.354722;stroke-linecap:round;stroke-linejoin:round;stroke-miterlimit:2;stroke-dasharray:none;stroke-opacity:1" transform="matrix(.56174 0 0 .5571 21.795 17.33)"/></g><g style="display:inline;stroke-width:1.12174"><path d="M20.23 73.166c-1.59-.747-1.209-1.925-3.244-1.32l.174.238-.763.478.302-.048-.334.445.223-.08-.302.637.302-.127-.318.606.207-.081-.032.572.334-.206-.223.795.334-.239-.08.62.27-.238-.126.795.238-.286.143 1.082.255-.303.175.907.254-.318-.063 1.097.254-.27.16 1.193.174-.19.064 2.655 1.097-2.56.255.11.048-.73.445.158-.064-.604.398.318-.048-.493.239.08.08-.605.365.7.191-.811.35.413c.493-.048 2.497-5.456-1.734-4.39" style="display:inline;fill:#508065;fill-opacity:1;stroke:#3d614d;stroke-width:.222595;stroke-linecap:round;stroke-linejoin:round;stroke-miterlimit:2;stroke-dasharray:none;stroke-opacity:1" transform="rotate(-5.176 29.716 18.413)scale(.89094 .892)"/><path d="M20.23 73.166c.048 1.145-1.622 8.414-1.622 8.414" style="fill:none;fill-opacity:1;stroke:#3d614d;stroke-width:.222595;stroke-linecap:round;stroke-linejoin:round;stroke-miterlimit:2;stroke-dasharray:none;stroke-opacity:1" transform="rotate(-5.176 29.716 18.413)scale(.89094 .892)"/></g><g style="display:inline;stroke-width:1.0956"><path d="M20.23 73.166c-1.59-.747-1.209-1.925-3.244-1.32l.174.238-.763.478.302-.048-.334.445.223-.08-.302.637.302-.127-.318.606.207-.081-.032.572.334-.206-.223.795.334-.239-.08.62.27-.238-.126.795.238-.286.143 1.082.255-.303.175.907.254-.318-.063 1.097.254-.27.16 1.193.174-.19.064 2.655 1.097-2.56.255.11.048-.73.445.158-.064-.604.398.318-.048-.493.239.08.08-.605.365.7.191-.811.35.413c.493-.048 2.497-5.456-1.734-4.39" style="display:inline;fill:#508065;fill-opacity:1;stroke:#3d614d;stroke-width:.217407;stroke-linecap:round;stroke-linejoin:round;stroke-miterlimit:2;stroke-dasharray:none;stroke-opacity:1" transform="matrix(-.79141 -.45369 -.45428 .79226 76.863 -1.59)"/><path d="M20.23 73.166c.048 1.145-1.622 8.414-1.622 8.414" style="fill:none;fill-opacity:1;stroke:#3d614d;stroke-width:.217407;stroke-linecap:round;stroke-linejoin:round;stroke-miterlimit:2;stroke-dasharray:none;stroke-opacity:1" transform="matrix(-.79141 -.45369 -.45428 .79226 76.863 -1.59)"/></g><g style="display:inline;stroke-width:1.64056"><path d="M20.23 73.166c-1.59-.747-1.209-1.925-3.244-1.32l.174.238-.763.478.302-.048-.334.445.223-.08-.302.637.302-.127-.318.606.207-.081-.032.572.334-.206-.223.795.334-.239-.08.62.27-.238-.126.795.238-.286.143 1.082.255-.303.175.907.254-.318-.063 1.097.254-.27.16 1.193.174-.19.064 2.655 1.097-2.56.255.11.048-.73.445.158-.064-.604.398.318-.048-.493.239.08.08-.605.365.7.191-.811.35.413c.493-.048 2.497-5.456-1.734-4.39" style="display:inline;fill:#508065;fill-opacity:1;stroke:#3d614d;stroke-width:.325548;stroke-linecap:round;stroke-linejoin:round;stroke-miterlimit:2;stroke-dasharray:none;stroke-opacity:1" transform="matrix(-.52785 -.30336 -.303 .52975 40.93 1.875)"/><path d="M20.23 73.166c.048 1.145-1.622 8.414-1.622 8.414" style="fill:none;fill-opacity:1;stroke:#3d614d;stroke-width:.325548;stroke-linecap:round;stroke-linejoin:round;stroke-miterlimit:2;stroke-dasharray:none;stroke-opacity:1" transform="matrix(-.52785 -.30336 -.303 .52975 40.93 1.875)"/></g><g style="display:inline;stroke-width:1.82181"><path d="M20.23 73.166c-1.59-.747-1.209-1.925-3.244-1.32l.174.238-.763.478.302-.048-.334.445.223-.08-.302.637.302-.127-.318.606.207-.081-.032.572.334-.206-.223.795.334-.239-.08.62.27-.238-.126.795.238-.286.143 1.082.255-.303.175.907.254-.318-.063 1.097.254-.27.16 1.193.174-.19.064 2.655 1.097-2.56.255.11.048-.73.445.158-.064-.604.398.318-.048-.493.239.08.08-.605.365.7.191-.811.35.413c.493-.048 2.497-5.456-1.734-4.39" style="display:inline;fill:#508065;fill-opacity:1;stroke:#3d614d;stroke-width:.361514;stroke-linecap:round;stroke-linejoin:round;stroke-miterlimit:2;stroke-dasharray:none;stroke-opacity:1" transform="matrix(.47514 -.2733 .27274 .47725 -6.266 2.722)"/><path d="M20.23 73.166c.048 1.145-1.622 8.414-1.622 8.414" style="fill:none;fill-opacity:1;stroke:#3d614d;stroke-width:.361514;stroke-linecap:round;stroke-linejoin:round;stroke-miterlimit:2;stroke-dasharray:none;stroke-opacity:1" transform="matrix(.47514 -.2733 .27274 .47725 -6.266 2.722)"/></g><g style="display:inline;stroke-width:1.0956"><path d="M20.23 73.166c-1.59-.747-1.209-1.925-3.244-1.32l.174.238-.763.478.302-.048-.334.445.223-.08-.302.637.302-.127-.318.606.207-.081-.032.572.334-.206-.223.795.334-.239-.08.62.27-.238-.126.795.238-.286.143 1.082.255-.303.175.907.254-.318-.063 1.097.254-.27.16 1.193.174-.19.064 2.655 1.097-2.56.255.11.048-.73.445.158-.064-.604.398.318-.048-.493.239.08.08-.605.365.7.191-.811.35.413c.493-.048 2.497-5.456-1.734-4.39" style="display:inline;fill:#508065;fill-opacity:1;stroke:#3d614d;stroke-width:.217407;stroke-linecap:round;stroke-linejoin:round;stroke-miterlimit:2;stroke-dasharray:none;stroke-opacity:1" transform="matrix(.79141 -.45369 .45428 .79226 -26.628 1.512)"/><path d="M20.23 73.166c.048 1.145-1.622 8.414-1.622 8.414" style="fill:none;fill-opacity:1;stroke:#3d614d;stroke-width:.217407;stroke-linecap:round;stroke-linejoin:round;stroke-miterlimit:2;stroke-dasharray:none;stroke-opacity:1" transform="matrix(.79141 -.45369 .45428 .79226 -26.628 1.512)"/></g><g style="display:inline;stroke-width:1.12174"><path d="M20.23 73.166c-1.59-.747-1.209-1.925-3.244-1.32l.174.238-.763.478.302-.048-.334.445.223-.08-.302.637.302-.127-.318.606.207-.081-.032.572.334-.206-.223.795.334-.239-.08.62.27-.238-.126.795.238-.286.143 1.082.255-.303.175.907.254-.318-.063 1.097.254-.27.16 1.193.174-.19.064 2.655 1.097-2.56.255.11.048-.73.445.158-.064-.604.398.318-.048-.493.239.08.08-.605.365.7.191-.811.35.413c.493-.048 2.497-5.456-1.734-4.39" style="display:inline;fill:#508065;fill-opacity:1;stroke:#3d614d;stroke-width:.222595;stroke-linecap:round;stroke-linejoin:round;stroke-miterlimit:2;stroke-dasharray:none;stroke-opacity:1" transform="rotate(23.574 36.362 121.844)scale(-.89094 .892)"/><path d="M20.23 73.166c.048 1.145-1.622 8.414-1.622 8.414" style="fill:none;fill-opacity:1;stroke:#3d614d;stroke-width:.222595;stroke-linecap:round;stroke-linejoin:round;stroke-miterlimit:2;stroke-dasharray:none;stroke-opacity:1" transform="rotate(23.574 36.362 121.844)scale(-.89094 .892)"/></g><g style="stroke-width:1.78758"><path d="m.554 95.196 1.305-.095 3.944-2.673-.159.382 1.082-.35v.35l.954-.382v.35l1.146-.254-.032.223 1.05-.064-.128.159 1.21.382-.128.19 1.113.192-.159.19.827.287-.286.032.89.381-.349.287 1.272.19-.222.191.7.128-.16.254.637.54-.223.065.764.668-.382.031.89.987-.413.031.986.827-.35.096.86.763-.287-.031.89 1.622-2.703-1.082.318.478-1.082-.191.414.318-.955-.032.318.318-.922-.19.159.254-.89-.223.19.573-.763-.318v.286l-.764-.382-.032.223-.827-.35v.286l-.668-.222-.127.318-.605-.287v.287l-.7-.414.096.318-.89-.477v.318l-.669-.382v.255l-.572-.51-.064.255-.509-.54v.254l-.7-.636-.032.286-.7-.604v.286l-.509-.763-.127.381-.19-.731-.255.318-.223-.796-.19.255-.128-.764-.255.287-.222-2.323Z" style="display:inline;fill:#508065;fill-opacity:1;stroke:#3d614d;stroke-width:.354722;stroke-linecap:round;stroke-linejoin:round;stroke-miterlimit:2;stroke-dasharray:none;stroke-opacity:1" transform="matrix(.56174 0 0 .5571 9.414 5.87)"/><path d="M.554 95.196c6.395.191 14.03 2.577 17.243 5.949" style="display:inline;fill:none;fill-opacity:1;stroke:#3d614d;stroke-width:.354722;stroke-linecap:round;stroke-linejoin:round;stroke-miterlimit:2;stroke-dasharray:none;stroke-opacity:1" transform="matrix(.56174 0 0 .5571 9.414 5.87)"/></g><g style="display:inline;stroke-width:1.12174"><path d="M20.23 73.166c-1.59-.747-1.209-1.925-3.244-1.32l.174.238-.763.478.302-.048-.334.445.223-.08-.302.637.302-.127-.318.606.207-.081-.032.572.334-.206-.223.795.334-.239-.08.62.27-.238-.126.795.238-.286.143 1.082.255-.303.175.907.254-.318-.063 1.097.254-.27.16 1.193.174-.19.064 2.655 1.097-2.56.255.11.048-.73.445.158-.064-.604.398.318-.048-.493.239.08.08-.605.365.7.191-.811.35.413c.493-.048 2.497-5.456-1.734-4.39" style="display:inline;fill:#508065;fill-opacity:1;stroke:#3d614d;stroke-width:.222595;stroke-linecap:round;stroke-linejoin:round;stroke-miterlimit:2;stroke-dasharray:none;stroke-opacity:1" transform="rotate(24.979 23.85 132.557)scale(-.89094 .892)"/><path d="M20.23 73.166c.048 1.145-1.622 8.414-1.622 8.414" style="fill:none;fill-opacity:1;stroke:#3d614d;stroke-width:.222595;stroke-linecap:round;stroke-linejoin:round;stroke-miterlimit:2;stroke-dasharray:none;stroke-opacity:1" transform="rotate(24.979 23.85 132.557)scale(-.89094 .892)"/></g><g style="display:inline;stroke-width:1.067"><path d="M4.499 81.018s-1.361-1.305-1.72-1.451c-.586-3.318-6.176-3.307-6.176-3.307l-1.417-.214.191.225h-.483l.18.18-.54-.022.168.292-2.778-.112 2.632.854-.123.214.81.158-.158.225.753.202-.337.191.945.158-.383.36.709.112-.146.203.652.09-.461.55 1.046-.078-.27.27.394-.023-.304.372.675-.18-.236.303.73-.067-.18.405.586-.225v.315l.348-.203.135.236.293-.168.19.427.417-.18.056.36.304-.259.101.327c2.846-.405 2.61-1.091 2.61-1.091Z" style="display:inline;fill:#508065;fill-opacity:1;stroke:#3d614d;stroke-width:.211733;stroke-linecap:round;stroke-linejoin:round;stroke-miterlimit:2;stroke-dasharray:none;stroke-opacity:1" transform="matrix(.87835 0 0 1 18.636 -23.51)"/><path d="M2.778 79.567c-3.79-2.418-7.412-1.856-10.854-2.958" style="fill:none;fill-opacity:1;stroke:#3d614d;stroke-width:.211733;stroke-linecap:round;stroke-linejoin:round;stroke-miterlimit:2;stroke-dasharray:none;stroke-opacity:1" transform="matrix(.87835 0 0 1 18.636 -23.51)"/></g><g style="display:inline;stroke-width:1.067"><path d="M4.499 81.018s-1.361-1.305-1.72-1.451c-.586-3.318-6.176-3.307-6.176-3.307l-1.417-.214.191.225h-.483l.18.18-.54-.022.168.292-2.778-.112 2.632.854-.123.214.81.158-.158.225.753.202-.337.191.945.158-.383.36.709.112-.146.203.652.09-.461.55 1.046-.078-.27.27.394-.023-.304.372.675-.18-.236.303.73-.067-.18.405.586-.225v.315l.348-.203.135.236.293-.168.19.427.417-.18.056.36.304-.259.101.327c2.846-.405 2.61-1.091 2.61-1.091Z" style="display:inline;fill:#508065;fill-opacity:1;stroke:#3d614d;stroke-width:.211733;stroke-linecap:round;stroke-linejoin:round;stroke-miterlimit:2;stroke-dasharray:none;stroke-opacity:1" transform="matrix(-.87835 0 0 1 24.078 -18.882)"/><path d="M2.778 79.567c-3.79-2.418-7.412-1.856-10.854-2.958" style="fill:none;fill-opacity:1;stroke:#3d614d;stroke-width:.211733;stroke-linecap:round;stroke-linejoin:round;stroke-miterlimit:2;stroke-dasharray:none;stroke-opacity:1" transform="matrix(-.87835 0 0 1 24.078 -18.882)"/></g><g style="display:inline;stroke-width:1.12174"><path d="M20.23 73.166c-1.59-.747-1.209-1.925-3.244-1.32l.174.238-.763.478.302-.048-.334.445.223-.08-.302.637.302-.127-.318.606.207-.081-.032.572.334-.206-.223.795.334-.239-.08.62.27-.238-.126.795.238-.286.143 1.082.255-.303.175.907.254-.318-.063 1.097.254-.27.16 1.193.174-.19.064 2.655 1.097-2.56.255.11.048-.73.445.158-.064-.604.398.318-.048-.493.239.08.08-.605.365.7.191-.811.35.413c.493-.048 2.497-5.456-1.734-4.39" style="display:inline;fill:#508065;fill-opacity:1;stroke:#3d614d;stroke-width:.222595;stroke-linecap:round;stroke-linejoin:round;stroke-miterlimit:2;stroke-dasharray:none;stroke-opacity:1" transform="rotate(-52.993 -1.053 60.804)scale(.89094 .892)"/><path d="M20.23 73.166c.048 1.145-1.622 8.414-1.622 8.414" style="fill:none;fill-opacity:1;stroke:#3d614d;stroke-width:.222595;stroke-linecap:round;stroke-linejoin:round;stroke-miterlimit:2;stroke-dasharray:none;stroke-opacity:1" transform="rotate(-52.993 -1.053 60.804)scale(.89094 .892)"/></g><g style="display:inline;stroke-width:1.04854"><path d="M20.23 73.166c-1.59-.747-1.209-1.925-3.244-1.32l.174.238-.763.478.302-.048-.334.445.223-.08-.302.637.302-.127-.318.606.207-.081-.032.572.334-.206-.223.795.334-.239-.08.62.27-.238-.126.795.238-.286.143 1.082.255-.303.175.907.254-.318-.063 1.097.254-.27.16 1.193.174-.19.064 2.655 1.097-2.56.255.11.048-.73.445.158-.064-.604.398.318-.048-.493.239.08.08-.605.365.7.191-.811.35.413c.493-.048 2.497-5.456-1.734-4.39" style="display:inline;fill:#508065;fill-opacity:1;stroke:#3d614d;stroke-width:.208069;stroke-linecap:round;stroke-linejoin:round;stroke-miterlimit:2;stroke-dasharray:none;stroke-opacity:1" transform="matrix(-.90235 -.30752 -.30802 .90302 50.332 -1.267)"/><path d="M20.23 73.166c.048 1.145-1.622 8.414-1.622 8.414" style="fill:none;fill-opacity:1;stroke:#3d614d;stroke-width:.208069;stroke-linecap:round;stroke-linejoin:round;stroke-miterlimit:2;stroke-dasharray:none;stroke-opacity:1" transform="matrix(-.90235 -.30752 -.30802 .90302 50.332 -1.267)"/></g></svg>