<?xml version="1.0" encoding="UTF-8" standalone="no"?>
<!-- Created with Inkscape (http://www.inkscape.org/) -->

<svg
   width="37.774147mm"
   height="49.154533mm"
   viewBox="0 0 37.774147 49.154533"
   version="1.1"
   id="svg1"
   xml:space="preserve"
   xmlns="http://www.w3.org/2000/svg"
   xmlns:svg="http://www.w3.org/2000/svg"><defs
     id="defs1" /><g
     id="layer1"
     transform="translate(-49.20865,-60.406781)"><rect
       style="fill:#000000;stroke-width:0.264583"
       id="rect1"
       width="33.386589"
       height="49.154537"
       x="53.59621"
       y="60.406776"
       ry="6.7365375"
       rx="9.1794615" /><ellipse
       style="fill:none;stroke:#000000;stroke-width:1.18;stroke-dasharray:none;stroke-opacity:1"
       id="path3"
       cx="54.980934"
       cy="68.71666"
       rx="5.1822872"
       ry="3.5190599" /><ellipse
       style="fill:none;stroke:#000000;stroke-width:1.18;stroke-dasharray:none;stroke-opacity:1"
       id="path3-3"
       cx="54.980934"
       cy="72.895325"
       rx="5.1822872"
       ry="3.5190599" /><ellipse
       style="fill:none;stroke:#000000;stroke-width:1.18;stroke-dasharray:none;stroke-opacity:1"
       id="path3-6"
       cx="54.980934"
       cy="77.073952"
       rx="5.1822872"
       ry="3.5190599" /><ellipse
       style="fill:none;stroke:#000000;stroke-width:1.18;stroke-dasharray:none;stroke-opacity:1"
       id="path3-2"
       cx="54.980934"
       cy="81.252571"
       rx="5.1822872"
       ry="3.5190599" /><ellipse
       style="fill:none;stroke:#000000;stroke-width:1.18;stroke-dasharray:none;stroke-opacity:1"
       id="path3-5"
       cx="54.980934"
       cy="85.431236"
       rx="5.1822872"
       ry="3.5190599" /><ellipse
       style="fill:none;stroke:#000000;stroke-width:1.18;stroke-dasharray:none;stroke-opacity:1"
       id="path3-9"
       cx="54.980934"
       cy="93.788536"
       rx="5.1822872"
       ry="3.5190599" /><ellipse
       style="fill:none;stroke:#000000;stroke-width:1.18;stroke-dasharray:none;stroke-opacity:1"
       id="path3-29"
       cx="54.980934"
       cy="89.609871"
       rx="5.1822872"
       ry="3.5190599" /><ellipse
       style="fill:none;stroke:#000000;stroke-width:1.18;stroke-dasharray:none;stroke-opacity:1"
       id="path3-7"
       cx="54.980934"
       cy="97.967171"
       rx="5.1822872"
       ry="3.5190599" /><ellipse
       style="fill:none;stroke:#000000;stroke-width:1.18;stroke-dasharray:none;stroke-opacity:1"
       id="path3-36"
       cx="54.980934"
       cy="102.14582"
       rx="5.1822872"
       ry="3.5190599" /><path
       id="path4"
       style="fill:none;stroke:#fecd01;stroke-width:2.13174"
       transform="matrix(0.66987663,0,0,0.66987663,49.741344,49.638401)"
       d="m 24.078994,64.699215 c -2.228926,-1.231775 5.587,-6.984195 3.688053,-8.68107 -1.898946,-1.696874 -6.739461,6.714336 -8.213206,4.63745 -1.473746,-2.076886 8.064041,-3.868434 7.089395,-6.221187 -0.974645,-2.352753 -8.985285,3.125265 -9.411957,0.614621 -0.426672,-2.510644 8.943901,0.01352 9.086597,-2.529123 0.142696,-2.54264 -9.451464,-1.082802 -8.746555,-3.52994 0.704909,-2.447138 8.052311,3.892792 9.284086,1.663866 1.231775,-2.228926 -8.045664,-5.076409 -6.34879,-6.975355 1.696875,-1.898947 5.565863,7.001051 7.642748,5.527305 2.076886,-1.473745 -5.046322,-8.064568 -2.693568,-9.039214 2.352753,-0.974645 1.977026,8.722667 4.48767,8.295995 2.510643,-0.426673 -1.047494,-9.455443 1.495146,-9.312746 2.54264,0.142696 -2.003384,8.71665 0.443754,9.421559 2.447138,0.704909 3.158803,-8.97355 5.387729,-7.741775 2.228926,1.231775 -5.586999,6.984196 -3.688053,8.68107 1.898947,1.696875 6.739461,-6.714335 8.213207,-4.63745 1.473746,2.076886 -8.064041,3.868434 -7.089396,6.221188 0.974646,2.352753 8.985285,-3.125265 9.411958,-0.614622 0.426672,2.510644 -8.943901,-0.01352 -9.086597,2.529123 -0.142696,2.54264 9.451464,1.082803 8.746555,3.529941 -0.70491,2.447138 -8.052312,-3.892793 -9.284087,-1.663866 -1.231774,2.228926 8.045665,5.076408 6.34879,6.975354 -1.696874,1.898947 -5.565862,-7.001051 -7.642748,-5.527305 -2.076886,1.473746 5.046322,8.064568 2.693569,9.039214 -2.352753,0.974645 -1.977026,-8.722667 -4.48767,-8.295994 -2.510644,0.426672 1.047494,9.455442 -1.495146,9.312746 -2.542641,-0.142696 2.003384,-8.716651 -0.443754,-9.42156 -2.447138,-0.704909 -3.158804,8.97355 -5.38773,7.741775 z" /></g></svg>
